<svg width="155" height="151" viewBox="0 0 155 151" fill="none" xmlns="http://www.w3.org/2000/svg">
<path d="M38.6592 0.63353C39.6939 0.687866 5.53601 -7.11458 -11.001 30.5818C-21.9732 55.5942 -9.43708 83.5407 15.2487 93.7761C40.6178 104.295 45.828 124.487 58.2062 136.43C77.3534 154.809 117.554 156.104 136.031 134.561C154.507 113.017 181.054 34.6329 134.173 15.352C90.6271 -2.55823 37.6245 0.579178 38.6592 0.63353Z" fill="#9C73F8" fill-opacity="0.2"/>
<g clip-path="url(#clip0_1833_32)">
<mask id="mask0_1833_32" style="mask-type:luminance" maskUnits="userSpaceOnUse" x="-102" y="4" width="360" height="146">
<path d="M258 4H-102V150H258V4Z" fill="white"/>
</mask>
<g mask="url(#mask0_1833_32)">
<g opacity="0.1">
<path d="M258 76.5V77.5H-102V76.5H258Z" fill="#2500C4"/>
</g>
<mask id="mask1_1833_32" style="mask-type:luminance" maskUnits="userSpaceOnUse" x="-102" y="4" width="360" height="146">
<path d="M-102 4H258V150H-102V4Z" fill="white"/>
</mask>
<g mask="url(#mask1_1833_32)">
<g opacity="0.1">
<path d="M78 76.9999H-12C12.062 14.4561 53.938 14.4561 78 76.9999Z" fill="#2500C4"/>
<path d="M78 77H-12C12.062 139.544 53.938 139.544 78 77Z" fill="#2500C4"/>
</g>
<g opacity="0.1">
<path d="M169 76.9998H78C102.33 31.9808 144.67 31.9808 169 76.9998Z" fill="#2500C4"/>
<path d="M169 77H78C102.33 122.019 144.67 122.019 169 77Z" fill="#2500C4"/>
</g>
<g opacity="0.1">
<path d="M42.3469 76.9999H-29.8271C-10.5311 -20.2741 23.0509 -20.2741 42.3469 76.9999Z" fill="#2500C4"/>
<path d="M42.3469 77H-29.8271C-10.5311 174.274 23.0509 174.274 42.3469 77Z" fill="#2500C4"/>
</g>
<g opacity="0.1">
<path d="M114.521 77.001H42.3467C61.6437 41.5811 95.2247 41.5811 114.521 77.001Z" fill="#2500C4"/>
<path d="M114.521 77H42.3467C61.6437 112.42 95.2247 112.42 114.521 77Z" fill="#2500C4"/>
</g>
<g opacity="0.1">
<path d="M186 77.001H113.826C133.122 2.19173 166.704 2.19173 186 77.001Z" fill="#2500C4"/>
<path d="M186 77H113.826C133.122 151.809 166.704 151.809 186 77Z" fill="#2500C4"/>
</g>
</g>
</g>
</g>
<defs>
<clipPath id="clip0_1833_32">
<rect width="360" height="146" fill="white" transform="translate(-102 4)"/>
</clipPath>
</defs>
</svg>
