<svg width="74" height="58" viewBox="0 0 74 58" fill="none" xmlns="http://www.w3.org/2000/svg">
<circle cx="29" cy="29" r="29" fill="#8446FF" fill-opacity="0.4"/>
<path d="M26.2109 38.2188C25.9244 38.2188 25.6454 38.1268 25.415 37.9564C25.4022 37.9475 25.3898 37.938 25.378 37.9278L20.2557 33.7342H16.3453C15.9885 33.7342 15.6463 33.5924 15.394 33.3401C15.1417 33.0878 15 32.7456 15 32.3888V26.1104C15 25.7536 15.1417 25.4114 15.394 25.1591C15.6463 24.9068 15.9885 24.765 16.3453 24.765H20.2551L25.3768 20.5714C25.3887 20.5613 25.401 20.5517 25.4138 20.5428C25.6142 20.3955 25.8515 20.3065 26.0993 20.2859C26.3472 20.2653 26.5959 20.3137 26.8179 20.4259C27.0398 20.5381 27.2263 20.7097 27.3567 20.9215C27.487 21.1333 27.5561 21.3771 27.5563 21.6259V36.8734C27.5563 37.2302 27.4145 37.5724 27.1622 37.8247C26.9099 38.077 26.5677 38.2188 26.2109 38.2188ZM31.1438 33.7342C30.9907 33.7341 30.8402 33.695 30.7066 33.6203C30.573 33.5457 30.4607 33.4381 30.3804 33.3078C30.3001 33.1775 30.2545 33.0288 30.2479 32.8759C30.2413 32.723 30.274 32.5709 30.3427 32.4342C30.8747 31.3764 31.1443 30.304 31.1443 29.2496C31.1443 28.1632 30.8831 27.1228 30.3455 26.0695C30.2425 25.8582 30.2266 25.6149 30.3011 25.392C30.3757 25.1691 30.5348 24.9844 30.7441 24.8775C30.9535 24.7707 31.1964 24.7504 31.4207 24.8208C31.6449 24.8913 31.8325 25.047 31.9431 25.2544C32.6118 26.5656 32.9375 27.8729 32.9375 29.2496C32.9375 30.5871 32.6012 31.9297 31.9453 33.2403C31.8706 33.3888 31.7561 33.5137 31.6146 33.6009C31.473 33.6881 31.31 33.7343 31.1438 33.7342Z" fill="white"/>
<path d="M33.8986 36.9375C33.7299 36.9375 33.5642 36.8931 33.4181 36.8087C33.272 36.7244 33.1506 36.603 33.0663 36.4568C32.9819 36.3106 32.9375 36.1448 32.9375 35.9759C32.9375 35.8071 32.9819 35.6413 33.0662 35.4951C34.2019 33.5171 34.8595 31.8596 34.8595 29.2446C34.8595 26.5899 34.2031 24.9437 33.0686 22.9976C32.9442 22.7776 32.9114 22.5173 32.9773 22.2732C33.0433 22.0291 33.2026 21.8208 33.4209 21.6935C33.6391 21.5661 33.8987 21.5298 34.1435 21.5926C34.3882 21.6554 34.5984 21.8121 34.7286 22.0288C35.9957 24.2027 36.7812 26.168 36.7812 29.2446C36.7812 32.2755 35.9969 34.2504 34.7316 36.4567C34.6472 36.603 34.5257 36.7245 34.3795 36.8089C34.2333 36.8933 34.0674 36.9376 33.8986 36.9375Z" fill="white"/>
<path d="M37.5501 39.5C37.4116 39.4999 37.2758 39.4544 37.1569 39.3685C37.038 39.2826 36.9405 39.1593 36.8746 39.0117C36.8087 38.8642 36.7769 38.6978 36.7826 38.5301C36.7882 38.3625 36.8311 38.1998 36.9067 38.0592C38.2155 35.6255 39.0875 33.1965 39.0875 29.2503C39.0875 25.3776 38.2141 22.9247 36.9019 20.4339C36.8476 20.3307 36.8106 20.2155 36.793 20.0949C36.7754 19.9743 36.7776 19.8507 36.7994 19.7311C36.8212 19.6115 36.8622 19.4984 36.9202 19.398C36.9781 19.2977 37.0517 19.2121 37.1369 19.1463C37.2221 19.0804 37.3171 19.0356 37.4166 19.0142C37.5161 18.9929 37.618 18.9956 37.7167 19.022C37.8153 19.0484 37.9087 19.0982 37.9915 19.1684C38.0743 19.2386 38.1448 19.3278 38.1992 19.4311C39.655 22.1973 40.625 24.9257 40.625 29.2503C40.625 33.0212 39.9206 35.8678 38.1939 39.0772C38.124 39.207 38.0286 39.3137 37.9162 39.3875C37.8038 39.4613 37.6779 39.5 37.5501 39.5Z" fill="white"/>
<circle cx="57.5" cy="41.5" r="16.5" fill="white"/>
<path d="M51.3745 32C51.2066 32.0001 51.0419 32.0475 50.8974 32.1372C50.7529 32.227 50.6341 32.3558 50.5533 32.5101L47.1159 39.0673C47.0253 39.2403 46.9864 39.4378 47.0042 39.6343C47.0221 39.8307 47.0958 40.017 47.2159 40.1689L56.2781 51.644C56.3661 51.7554 56.4764 51.845 56.6012 51.9066C56.726 51.9681 56.8621 52 57 52C57.1379 52 57.274 51.9681 57.3988 51.9066C57.5236 51.845 57.6339 51.7554 57.7219 51.644L66.7841 40.1689C66.9042 40.017 66.9779 39.8307 66.9958 39.6343C67.0136 39.4378 66.9747 39.2403 66.8841 39.0673L63.4467 32.5101C63.3658 32.3556 63.2468 32.2266 63.1021 32.1369C62.9574 32.0471 62.7923 31.9999 62.6242 32H51.3745ZM49.6946 38.2293L51.9283 33.9672H53.8032L52.3807 38.2293H49.6946ZM52.1795 40.1965L54.5907 46.4232L49.6721 40.1965H52.1795ZM56.9856 47.3844L54.2032 40.1965H59.6856L56.9856 47.3844ZM54.3682 38.2293L55.7894 33.9672H58.2206L59.7168 38.2293H54.3682ZM61.7155 38.2293L60.2193 33.9672H62.0692L64.3042 38.2293H61.7155ZM61.7005 40.1965H64.3254L59.3193 46.5359L61.7005 40.1965Z" fill="#8446FF"/>
</svg>
