<svg width="96" height="93" viewBox="0 0 96 93" fill="none" xmlns="http://www.w3.org/2000/svg">
<path d="M3.18106 92V80.72H6.98906C8.81306 80.72 10.2211 81.2053 11.2131 82.176C12.2051 83.136 12.7011 84.528 12.7011 86.352C12.7011 88.176 12.2051 89.5733 11.2131 90.544C10.2211 91.5147 8.81306 92 6.98906 92H3.18106ZM4.49306 90.88H6.89306C9.83706 90.88 11.3091 89.3707 11.3091 86.352C11.3091 83.344 9.83706 81.84 6.89306 81.84H4.49306V90.88ZM14.7201 82.288V80.832H16.3201V82.288H14.7201ZM14.8801 92V84.224H16.1761V92H14.8801ZM21.0468 92.144C20.5135 92.144 20.0335 92.0427 19.6068 91.84C19.1908 91.6267 18.8601 91.3387 18.6148 90.976C18.3695 90.6133 18.2468 90.208 18.2468 89.76C18.2468 89.1947 18.3908 88.7467 18.6788 88.416C18.9775 88.0853 19.4628 87.8507 20.1348 87.712C20.8175 87.5627 21.7455 87.488 22.9188 87.488H23.4308V86.992C23.4308 86.3307 23.2921 85.856 23.0148 85.568C22.7481 85.2693 22.3161 85.12 21.7188 85.12C21.2495 85.12 20.7961 85.1893 20.3588 85.328C19.9215 85.456 19.4735 85.6693 19.0148 85.968L18.5668 85.024C18.9721 84.736 19.4628 84.5067 20.0388 84.336C20.6255 84.1653 21.1855 84.08 21.7188 84.08C22.7215 84.08 23.4628 84.3253 23.9428 84.816C24.4335 85.3067 24.6788 86.0693 24.6788 87.104V92H23.4628V90.656C23.2601 91.1147 22.9455 91.4773 22.5188 91.744C22.1028 92.0107 21.6121 92.144 21.0468 92.144ZM21.2548 91.168C21.8948 91.168 22.4175 90.9493 22.8228 90.512C23.2281 90.064 23.4308 89.4987 23.4308 88.816V88.336H22.9348C22.0708 88.336 21.3881 88.3787 20.8868 88.464C20.3961 88.5387 20.0495 88.6773 19.8468 88.88C19.6548 89.072 19.5588 89.3387 19.5588 89.68C19.5588 90.1173 19.7081 90.4747 20.0068 90.752C20.3161 91.0293 20.7321 91.168 21.2548 91.168ZM27.0832 92V84.224H28.3472V85.616C28.7632 84.6773 29.6165 84.16 30.9072 84.064L31.3712 84.016L31.4672 85.136L30.6512 85.232C29.9152 85.296 29.3552 85.5307 28.9712 85.936C28.5872 86.3307 28.3952 86.8747 28.3952 87.568V92H27.0832ZM32.6576 82.288V80.832H34.2576V82.288H32.6576ZM32.8176 92V84.224H34.1136V92H32.8176ZM39.7683 92.144C39.011 92.144 38.355 91.9787 37.8003 91.648C37.2456 91.3173 36.8136 90.8533 36.5043 90.256C36.2056 89.648 36.0563 88.9333 36.0563 88.112C36.0563 87.2907 36.2056 86.5813 36.5043 85.984C36.8136 85.376 37.2456 84.9067 37.8003 84.576C38.355 84.2453 39.011 84.08 39.7683 84.08C40.515 84.08 41.1656 84.2453 41.7203 84.576C42.2856 84.9067 42.7176 85.376 43.0163 85.984C43.3256 86.5813 43.4803 87.2907 43.4803 88.112C43.4803 88.9333 43.3256 89.648 43.0163 90.256C42.7176 90.8533 42.2856 91.3173 41.7203 91.648C41.1656 91.9787 40.515 92.144 39.7683 92.144ZM39.7683 91.104C40.4936 91.104 41.075 90.848 41.5123 90.336C41.9496 89.8133 42.1683 89.072 42.1683 88.112C42.1683 87.1413 41.9496 86.4 41.5123 85.888C41.075 85.376 40.4936 85.12 39.7683 85.12C39.0323 85.12 38.4456 85.376 38.0083 85.888C37.5816 86.4 37.3683 87.1413 37.3683 88.112C37.3683 89.072 37.5816 89.8133 38.0083 90.336C38.4456 90.848 39.0323 91.104 39.7683 91.104ZM51.8243 92L48.4803 84.224H49.8883L52.4643 90.528L55.0723 84.224H56.4003L53.0403 92H51.8243ZM57.6107 82.288V80.832H59.2107V82.288H57.6107ZM57.7707 92V84.224H59.0667V92H57.7707ZM61.4894 92V84.224H62.7534V85.616C63.1694 84.6773 64.0228 84.16 65.3134 84.064L65.7774 84.016L65.8734 85.136L65.0574 85.232C64.3214 85.296 63.7614 85.5307 63.3774 85.936C62.9934 86.3307 62.8014 86.8747 62.8014 87.568V92H61.4894ZM70.7657 92.144C69.8484 92.144 69.1604 91.904 68.7017 91.424C68.243 90.9333 68.0137 90.2293 68.0137 89.312V85.232H66.4937V84.224H68.0137V81.84H69.3097V84.224H71.7737V85.232H69.3097V89.184C69.3097 89.792 69.4377 90.256 69.6937 90.576C69.9497 90.8853 70.3657 91.04 70.9417 91.04C71.1124 91.04 71.283 91.0187 71.4537 90.976C71.6244 90.9333 71.779 90.8907 71.9177 90.848L72.1417 91.84C72.003 91.9147 71.8004 91.984 71.5337 92.048C71.267 92.112 71.011 92.144 70.7657 92.144ZM75.9914 92.144C74.1248 92.144 73.1914 91.1147 73.1914 89.056V84.224H74.4874V89.04C74.4874 89.7333 74.6261 90.2453 74.9034 90.576C75.1914 90.9067 75.6394 91.072 76.2474 91.072C76.9088 91.072 77.4474 90.8533 77.8634 90.416C78.2794 89.968 78.4874 89.376 78.4874 88.64V84.224H79.7834V92H78.5194V90.688C78.2741 91.1573 77.9274 91.52 77.4794 91.776C77.0421 92.0213 76.5461 92.144 75.9914 92.144ZM84.6562 92.144C84.1229 92.144 83.6429 92.0427 83.2162 91.84C82.8002 91.6267 82.4695 91.3387 82.2242 90.976C81.9789 90.6133 81.8562 90.208 81.8562 89.76C81.8562 89.1947 82.0002 88.7467 82.2882 88.416C82.5869 88.0853 83.0722 87.8507 83.7442 87.712C84.4269 87.5627 85.3549 87.488 86.5282 87.488H87.0402V86.992C87.0402 86.3307 86.9015 85.856 86.6242 85.568C86.3575 85.2693 85.9255 85.12 85.3282 85.12C84.8589 85.12 84.4055 85.1893 83.9682 85.328C83.5309 85.456 83.0829 85.6693 82.6242 85.968L82.1762 85.024C82.5815 84.736 83.0722 84.5067 83.6482 84.336C84.2349 84.1653 84.7949 84.08 85.3282 84.08C86.3309 84.08 87.0722 84.3253 87.5522 84.816C88.0429 85.3067 88.2882 86.0693 88.2882 87.104V92H87.0722V90.656C86.8695 91.1147 86.5549 91.4773 86.1282 91.744C85.7122 92.0107 85.2215 92.144 84.6562 92.144ZM84.8642 91.168C85.5042 91.168 86.0269 90.9493 86.4322 90.512C86.8375 90.064 87.0402 89.4987 87.0402 88.816V88.336H86.5442C85.6802 88.336 84.9975 88.3787 84.4962 88.464C84.0055 88.5387 83.6589 88.6773 83.4562 88.88C83.2642 89.072 83.1682 89.3387 83.1682 89.68C83.1682 90.1173 83.3175 90.4747 83.6162 90.752C83.9255 91.0293 84.3415 91.168 84.8642 91.168ZM93.0766 92.144C92.2872 92.144 91.6899 91.9147 91.2846 91.456C90.8899 90.9867 90.6926 90.3093 90.6926 89.424V80.72H91.9886V89.328C91.9886 90.4693 92.4419 91.04 93.3486 91.04C93.6152 91.04 93.8552 91.008 94.0686 90.944L94.0366 92.032C93.7059 92.1067 93.3859 92.144 93.0766 92.144Z" fill="white"/>
<g filter="url(#filter0_d_1256_8)">
<path d="M18.325 56.4211C19.7373 56.4211 21.0917 56.9783 22.0903 57.9703C23.089 58.9623 23.65 60.3077 23.65 61.7105C23.65 63.1134 23.089 64.4588 22.0903 65.4507C21.0917 66.4427 19.7373 67 18.325 67C16.9127 67 15.5583 66.4427 14.5597 65.4507C13.561 64.4588 13 63.1134 13 61.7105C13 60.3077 13.561 58.9623 14.5597 57.9703C15.5583 56.9783 16.9127 56.4211 18.325 56.4211ZM36.075 45.8421C38.4288 45.8421 40.6862 46.7709 42.3506 48.4242C44.015 50.0775 44.95 52.3198 44.95 54.6579C44.95 56.996 44.015 59.2383 42.3506 60.8916C40.6862 62.5449 38.4288 63.4737 36.075 63.4737C33.7212 63.4737 31.4638 62.5449 29.7994 60.8916C28.135 59.2383 27.2 56.996 27.2 54.6579C27.2 52.3198 28.135 50.0775 29.7994 48.4242C31.4638 46.7709 33.7212 45.8421 36.075 45.8421ZM57.375 42.3158C53.1505 42.3158 49.3165 40.5526 46.725 37.5553C44.1335 40.5526 40.2995 42.3158 36.075 42.3158C29.117 42.3158 23.3305 37.3437 22.1235 30.82C19.4425 29.7901 17.1372 27.98 15.5092 25.6268C13.8813 23.2736 13.0067 20.4869 13 17.6316C13 13.8906 14.4961 10.3029 17.1591 7.65765C19.8221 5.0124 23.4339 3.52632 27.2 3.52632L29.9335 3.77316C32.525 1.44579 35.8975 0 39.625 0C43.8495 0 47.6835 1.76316 50.275 4.76053C52.8665 1.76316 56.7005 0 60.925 0C67.883 0 73.6695 4.97211 74.8765 11.4958C77.5575 12.5257 79.8628 14.3357 81.4908 16.689C83.1187 19.0422 83.9933 21.8289 84 24.6842C84 28.4252 82.5039 32.0129 79.8409 34.6581C77.1779 37.3034 73.5661 38.7895 69.8 38.7895L67.0665 38.5426C64.475 40.87 61.1025 42.3158 57.375 42.3158ZM27.2 10.5789C25.317 10.5789 23.511 11.322 22.1795 12.6446C20.848 13.9672 20.1 15.7611 20.1 17.6316C20.1 19.5021 20.848 21.2959 22.1795 22.6185C23.511 23.9412 25.317 24.6842 27.2 24.6842C28.3715 24.6842 29.472 24.4021 30.466 23.9084C29.5042 25.1395 28.9799 26.6523 28.975 28.2105C28.975 30.081 29.723 31.8749 31.0545 33.1975C32.386 34.5201 34.192 35.2632 36.075 35.2632C38.205 35.2632 40.122 34.3111 41.4 32.83L46.6185 26.9058L52.05 32.9358C53.399 34.3463 55.2805 35.2632 57.375 35.2632C60.925 35.2632 63.8715 32.6537 64.475 29.2684C65.682 30.7847 67.6345 31.7368 69.8 31.7368C71.683 31.7368 73.4889 30.9938 74.8205 29.6712C76.152 28.3485 76.9 26.5547 76.9 24.6842C76.9 22.8137 76.152 21.0199 74.8205 19.6972C73.4889 18.3746 71.683 17.6316 69.8 17.6316C68.6285 17.6316 67.528 17.9137 66.534 18.4074C67.4958 17.1763 68.0201 15.6635 68.025 14.1053C68.025 12.2348 67.277 10.4409 65.9455 9.1183C64.6139 7.79567 62.808 7.05263 60.925 7.05263C58.8305 7.05263 56.949 7.96947 55.6 9.38L50.1685 15.41L44.95 9.48579C43.672 8.00474 41.755 7.05263 39.625 7.05263C36.075 7.05263 33.1285 9.6621 32.525 13.0474C31.318 11.5311 29.3655 10.5789 27.2 10.5789ZM36.075 51.1316C35.1335 51.1316 34.2305 51.5031 33.5648 52.1644C32.899 52.8257 32.525 53.7227 32.525 54.6579C32.525 55.5931 32.899 56.4901 33.5648 57.1514C34.2305 57.8127 35.1335 58.1842 36.075 58.1842C37.0165 58.1842 37.9195 57.8127 38.5852 57.1514C39.251 56.4901 39.625 55.5931 39.625 54.6579C39.625 53.7227 39.251 52.8257 38.5852 52.1644C37.9195 51.5031 37.0165 51.1316 36.075 51.1316Z" fill="white"/>
</g>
<defs>
<filter id="filter0_d_1256_8" x="9" y="0" width="79" height="75" filterUnits="userSpaceOnUse" color-interpolation-filters="sRGB">
<feFlood flood-opacity="0" result="BackgroundImageFix"/>
<feColorMatrix in="SourceAlpha" type="matrix" values="0 0 0 0 0 0 0 0 0 0 0 0 0 0 0 0 0 0 127 0" result="hardAlpha"/>
<feOffset dy="4"/>
<feGaussianBlur stdDeviation="2"/>
<feComposite in2="hardAlpha" operator="out"/>
<feColorMatrix type="matrix" values="0 0 0 0 0 0 0 0 0 0 0 0 0 0 0 0 0 0 0.25 0"/>
<feBlend mode="normal" in2="BackgroundImageFix" result="effect1_dropShadow_1256_8"/>
<feBlend mode="normal" in="SourceGraphic" in2="effect1_dropShadow_1256_8" result="shape"/>
</filter>
</defs>
</svg>
