<svg width="17" height="17" viewBox="0 0 17 17" fill="none" xmlns="http://www.w3.org/2000/svg">
<circle cx="8.5" cy="8.5" r="8.5" transform="rotate(-90 8.5 8.5)" fill="#1C288F" fill-opacity="0.11"/>
<path d="M4.22197 7.20992C4.36996 7.06997 4.5583 7 4.78699 7C5.01569 7 5.20404 7.06997 5.35202 7.20992L8.5 10.187L11.648 7.20992C11.796 7.06997 11.9843 7 12.213 7C12.4417 7 12.63 7.06997 12.778 7.20992C12.926 7.34987 13 7.52799 13 7.74427C13 7.96056 12.926 8.13868 12.778 8.27863L9.06502 11.7901C8.9843 11.8664 8.89686 11.9206 8.80269 11.9527C8.70852 11.9842 8.60762 12 8.5 12C8.39238 12 8.29148 11.9842 8.19731 11.9527C8.10314 11.9206 8.0157 11.8664 7.93498 11.7901L4.22197 8.27863C4.07399 8.13868 4 7.96056 4 7.74427C4 7.52799 4.07399 7.34987 4.22197 7.20992Z" fill="#8446FF"/>
</svg>
