<svg width="22" height="21" viewBox="0 0 22 21" fill="none" xmlns="http://www.w3.org/2000/svg">
<path d="M19.81 20.9992C14.2662 20.9992 8.72181 20.9992 3.17796 20.9992C3.14957 20.983 3.12218 20.9561 3.09227 20.9526C2.37121 20.8633 1.8043 20.5053 1.41943 19.904C1.22978 19.6078 1.13546 19.2503 0.998047 18.9202C0.998047 13.8327 0.998047 8.74476 0.998047 3.65727C1.01529 3.62076 1.04013 3.58628 1.04926 3.54774C1.29164 2.54526 1.90419 1.8673 2.91783 1.69439C3.59072 1.57979 4.29505 1.64723 4.98518 1.63506C4.99785 1.63506 5.01053 1.65433 5.04755 1.68475C5.04755 2.22986 5.03233 2.79525 5.0511 3.35911C5.08304 4.32306 6.08908 5.04869 7.01905 4.79464C7.79437 4.58268 8.25023 3.9889 8.25226 3.18468C8.25378 2.67203 8.25277 2.15988 8.25277 1.63911C10.4225 1.63911 12.5614 1.63911 14.7291 1.63911C14.7291 2.22327 14.7144 2.78815 14.7327 3.35201C14.756 4.07054 15.3254 4.69576 16.0374 4.8205C16.7681 4.94829 17.5256 4.55378 17.7878 3.88039C17.874 3.65879 17.9201 3.41033 17.9303 3.172C17.9511 2.66138 17.9369 2.14923 17.9369 1.65078C18.6407 1.65078 19.3176 1.57269 19.9697 1.66751C21.1852 1.84397 21.9808 2.87181 21.9823 4.14052C21.9859 7.08865 21.9833 10.0373 21.9833 12.9854C21.9833 14.8185 21.9899 16.6516 21.9808 18.4852C21.9762 19.4334 21.5787 20.1844 20.7461 20.6575C20.4601 20.8192 20.1229 20.8882 19.81 20.9992ZM2.62981 7.2859C2.62525 7.37008 2.61714 7.44411 2.61714 7.51763C2.61663 11.1848 2.61663 14.852 2.61815 18.5191C2.61815 18.6099 2.62981 18.7052 2.65669 18.7914C2.78346 19.1956 3.06184 19.3665 3.58362 19.3665C8.83083 19.367 14.078 19.3665 19.3253 19.3665C20.0732 19.3665 20.3688 19.0718 20.3688 18.3254C20.3688 14.7429 20.3688 11.16 20.3688 7.57747C20.3688 7.4862 20.3688 7.39492 20.3688 7.28539C14.4447 7.2859 8.54433 7.2859 2.62981 7.2859Z" fill="#6C52BA"/>
<path d="M7.45429 2.03534C7.45429 2.40703 7.45986 2.77872 7.45276 3.14989C7.44313 3.68029 7.09274 4.05807 6.6308 4.04843C6.16733 4.0388 5.82962 3.65241 5.8281 3.12454C5.82607 2.37306 5.82404 1.62157 5.82911 0.869578C5.83266 0.45327 6.06845 0.133813 6.43101 0.0298625C6.77328 -0.0680029 7.15815 0.0785417 7.33715 0.412704C7.4127 0.554178 7.44262 0.732161 7.44921 0.895946C7.46544 1.27524 7.45429 1.65554 7.45429 2.03534Z" fill="#6C52BA"/>
<path d="M17.1217 2.02197C17.1217 2.41901 17.1227 2.81605 17.1217 3.21258C17.1207 3.67504 16.8017 4.01985 16.3514 4.04774C15.9427 4.07309 15.5269 3.71002 15.5163 3.26583C15.497 2.43879 15.4975 1.61073 15.5158 0.783187C15.5259 0.314143 15.9118 -0.0113991 16.3737 0.00736268C16.8012 0.0251103 17.1207 0.376006 17.1217 0.830852C17.1222 1.22789 17.1217 1.62493 17.1217 2.02197Z" fill="#6C52BA"/>
<rect x="4.22876" y="8.88409" width="3.23061" height="2.42296" fill="#6C52BA"/>
<rect x="8.26685" y="8.88409" width="3.23061" height="2.42296" fill="#6C52BA"/>
<rect x="12.3052" y="8.88409" width="3.23061" height="2.42296" fill="#6C52BA"/>
<rect x="16.3435" y="8.88409" width="3.23061" height="2.42296" fill="#6C52BA"/>
<rect x="4.22876" y="12.9224" width="3.23061" height="2.42296" fill="#6C52BA"/>
<rect x="8.26685" y="12.9224" width="3.23061" height="2.42296" fill="#6C52BA"/>
<rect x="12.3052" y="12.9224" width="3.23061" height="2.42296" fill="#6C52BA"/>
</svg>
