<svg width="9" height="9" viewBox="0 0 9 9" fill="none" xmlns="http://www.w3.org/2000/svg">
<path d="M2.299 8.484L2.398 8.374L2.486 8.319L2.585 8.374C2.728 8.264 2.849 8.143 2.948 8.022C3.047 7.901 3.234 7.582 3.531 7.087L4.213 5.932C4.576 5.316 6.479 2.731 6.908 2.247C7.898 1.114 8.228 0.773 8.36 0.597C8.481 0.443 8.558 0.322 8.558 0.234C8.558 0.179 8.525 0.0909995 8.47 0.0909995C8.415 0.0909995 8.327 0.135 8.217 0.212L8.305 0.0139999L7.931 0.234L7.953 0.0799997C7.931 0.145999 7.755 0.322 7.711 0.322C7.678 0.322 7.667 0.289 7.667 0.234V0.19L7.359 0.344C7.337 0.344 7.315 0.333 7.315 0.299999C7.315 0.267 7.337 0.19 7.359 0.0799997C7.205 0.245 6.985 0.432 6.699 0.63C6.314 0.894 4.818 2.775 4.213 3.754C3.806 4.403 3.641 4.788 3.575 4.788C3.553 4.788 3.542 4.744 3.531 4.656C3.333 5.107 3.157 5.481 2.981 5.756C2.805 6.031 2.64 6.174 2.519 6.174C2.376 6.174 2.255 5.899 2.123 5.338C2.068 5.096 1.947 4.942 1.771 4.854L1.738 4.843C1.705 4.843 1.661 4.865 1.606 4.898C1.551 4.931 1.518 4.964 1.496 4.964H1.485L1.287 4.898L1.111 5.162C1.089 5.195 1.045 5.206 1.012 5.206C0.957 5.206 0.913 5.195 0.891 5.162C0.847 5.316 0.792 5.393 0.748 5.393C0.715 5.393 0.649 5.371 0.561 5.316C0.638 5.899 0.704 6.284 0.77 6.471C0.902 6.834 1.199 7.659 1.485 8.209C1.518 8.275 1.562 8.352 1.595 8.418C1.705 8.352 1.738 8.341 1.815 8.341L1.903 8.352C1.958 8.374 1.991 8.407 1.991 8.462L2.244 8.341C2.288 8.341 2.299 8.385 2.299 8.484Z" fill="#6C52BA"/>
</svg>
