<svg width="287" height="106" viewBox="0 0 287 106" fill="none" xmlns="http://www.w3.org/2000/svg">
<g filter="url(#filter0_d_1760_19)">
<path d="M4.64 10V2.95H9.62V4.37H6.4V5.71H9.39V7.13H6.4V8.58H9.62V10H4.64ZM12.6026 10.11C11.9226 10.11 11.4292 9.94 11.1226 9.6C10.8159 9.25333 10.6626 8.73333 10.6626 8.04V2.95H12.4426V7.98C12.4426 8.44667 12.6559 8.68 13.0826 8.68C13.1492 8.68 13.2159 8.67667 13.2826 8.67C13.3559 8.66333 13.4259 8.65333 13.4926 8.64L13.4726 10C13.2059 10.0733 12.9159 10.11 12.6026 10.11ZM17.0005 11.8V5.08H18.7305V5.75C18.8638 5.51 19.0671 5.32 19.3405 5.18C19.6138 5.04 19.9138 4.97 20.2405 4.97C20.6605 4.97 21.0305 5.07333 21.3505 5.28C21.6771 5.48667 21.9305 5.78333 22.1105 6.17C22.2971 6.55 22.3905 7.00667 22.3905 7.54C22.3905 8.06667 22.3005 8.52333 22.1205 8.91C21.9405 9.29667 21.6871 9.59333 21.3605 9.8C21.0405 10.0067 20.6671 10.11 20.2405 10.11C19.9338 10.11 19.6471 10.0467 19.3805 9.92C19.1205 9.79333 18.9205 9.62333 18.7805 9.41V11.8H17.0005ZM19.6805 8.8C19.9471 8.8 20.1671 8.7 20.3405 8.5C20.5138 8.3 20.6005 7.98 20.6005 7.54C20.6005 7.09333 20.5138 6.77333 20.3405 6.58C20.1671 6.38 19.9471 6.28 19.6805 6.28C19.4071 6.28 19.1838 6.38 19.0105 6.58C18.8371 6.77333 18.7505 7.09333 18.7505 7.54C18.7505 7.98 18.8371 8.3 19.0105 8.5C19.1838 8.7 19.4071 8.8 19.6805 8.8ZM25.8816 10.11C25.2816 10.11 24.7616 10.0067 24.3216 9.8C23.8883 9.58667 23.555 9.28667 23.3216 8.9C23.0883 8.51333 22.9716 8.05667 22.9716 7.53C22.9716 7.03 23.0816 6.58667 23.3016 6.2C23.5283 5.81333 23.835 5.51333 24.2216 5.3C24.615 5.08 25.0616 4.97 25.5616 4.97C26.055 4.97 26.4816 5.07333 26.8416 5.28C27.2083 5.48667 27.4883 5.78333 27.6816 6.17C27.8816 6.55 27.9816 6.99667 27.9816 7.51V7.9H24.6716C24.7316 8.22 24.865 8.45 25.0716 8.59C25.2783 8.73 25.565 8.8 25.9316 8.8C26.185 8.8 26.4483 8.76333 26.7216 8.69C27.0016 8.61 27.2483 8.49667 27.4616 8.35L27.9016 9.52C27.6483 9.7 27.3383 9.84333 26.9716 9.95C26.605 10.0567 26.2416 10.11 25.8816 10.11ZM25.6416 6.12C25.375 6.12 25.155 6.2 24.9816 6.36C24.815 6.52 24.7083 6.75333 24.6616 7.06H26.5216C26.5016 6.74667 26.415 6.51333 26.2616 6.36C26.115 6.2 25.9083 6.12 25.6416 6.12ZM28.7485 10V5.08H30.4785V5.91C30.7052 5.34333 31.1952 5.03333 31.9485 4.98L32.4385 4.94L32.5385 6.44L31.5685 6.53C31.2152 6.56333 30.9585 6.66333 30.7985 6.83C30.6385 6.99 30.5585 7.23 30.5585 7.55V10H28.7485ZM33.7974 10V6.39H32.8674V5.08H33.7974C33.8308 4.38667 34.0541 3.86667 34.4674 3.52C34.8808 3.16667 35.5074 2.96667 36.3474 2.92L36.9474 2.89L37.0474 4.16L36.5874 4.19C36.2008 4.21667 35.9341 4.28667 35.7874 4.4C35.6474 4.51333 35.5774 4.69 35.5774 4.93V5.08H36.8174V6.39H35.5774V10H33.7974ZM39.9734 10.11C39.3734 10.11 38.8534 10.0067 38.4134 9.8C37.9801 9.58667 37.6468 9.28667 37.4134 8.9C37.1801 8.51333 37.0634 8.05667 37.0634 7.53C37.0634 7.03 37.1734 6.58667 37.3934 6.2C37.6201 5.81333 37.9268 5.51333 38.3134 5.3C38.7068 5.08 39.1534 4.97 39.6534 4.97C40.1468 4.97 40.5734 5.07333 40.9334 5.28C41.3001 5.48667 41.5801 5.78333 41.7734 6.17C41.9734 6.55 42.0734 6.99667 42.0734 7.51V7.9H38.7634C38.8234 8.22 38.9568 8.45 39.1634 8.59C39.3701 8.73 39.6568 8.8 40.0234 8.8C40.2768 8.8 40.5401 8.76333 40.8134 8.69C41.0934 8.61 41.3401 8.49667 41.5534 8.35L41.9934 9.52C41.7401 9.7 41.4301 9.84333 41.0634 9.95C40.6968 10.0567 40.3334 10.11 39.9734 10.11ZM39.7334 6.12C39.4668 6.12 39.2468 6.2 39.0734 6.36C38.9068 6.52 38.8001 6.75333 38.7534 7.06H40.6134C40.5934 6.74667 40.5068 6.51333 40.3534 6.36C40.2068 6.2 40.0001 6.12 39.7334 6.12ZM45.3503 10.11C44.797 10.11 44.3136 10.0067 43.9003 9.8C43.4936 9.59333 43.177 9.29667 42.9503 8.91C42.7236 8.52333 42.6103 8.06333 42.6103 7.53C42.6103 6.99667 42.7236 6.54 42.9503 6.16C43.177 5.77333 43.4936 5.48 43.9003 5.28C44.3136 5.07333 44.797 4.97 45.3503 4.97C45.677 4.97 46.0003 5.01667 46.3203 5.11C46.647 5.19667 46.9136 5.32 47.1203 5.48L46.6503 6.7C46.497 6.58 46.317 6.48667 46.1103 6.42C45.9103 6.34667 45.7203 6.31 45.5403 6.31C45.187 6.31 44.9136 6.41667 44.7203 6.63C44.527 6.84333 44.4303 7.14333 44.4303 7.53C44.4303 7.92333 44.527 8.23 44.7203 8.45C44.9136 8.66333 45.187 8.77 45.5403 8.77C45.7203 8.77 45.9103 8.73667 46.1103 8.67C46.317 8.59667 46.497 8.5 46.6503 8.38L47.1203 9.6C46.9136 9.76 46.647 9.88667 46.3203 9.98C45.9936 10.0667 45.6703 10.11 45.3503 10.11ZM50.0964 10.11C49.5431 10.11 49.0597 10.0067 48.6464 9.8C48.2397 9.59333 47.9231 9.29667 47.6964 8.91C47.4697 8.52333 47.3564 8.06333 47.3564 7.53C47.3564 6.99667 47.4697 6.54 47.6964 6.16C47.9231 5.77333 48.2397 5.48 48.6464 5.28C49.0597 5.07333 49.5431 4.97 50.0964 4.97C50.4231 4.97 50.7464 5.01667 51.0664 5.11C51.3931 5.19667 51.6597 5.32 51.8664 5.48L51.3964 6.7C51.2431 6.58 51.0631 6.48667 50.8564 6.42C50.6564 6.34667 50.4664 6.31 50.2864 6.31C49.9331 6.31 49.6597 6.41667 49.4664 6.63C49.2731 6.84333 49.1764 7.14333 49.1764 7.53C49.1764 7.92333 49.2731 8.23 49.4664 8.45C49.6597 8.66333 49.9331 8.77 50.2864 8.77C50.4664 8.77 50.6564 8.73667 50.8564 8.67C51.0631 8.59667 51.2431 8.5 51.3964 8.38L51.8664 9.6C51.6597 9.76 51.3931 9.88667 51.0664 9.98C50.7397 10.0667 50.4164 10.11 50.0964 10.11ZM52.3802 4.23V2.62H54.2502V4.23H52.3802ZM52.4302 10V5.08H54.2102V10H52.4302ZM57.7327 10.11C57.186 10.11 56.7093 10.0067 56.3027 9.8C55.896 9.59333 55.5793 9.29667 55.3527 8.91C55.126 8.52333 55.0127 8.06667 55.0127 7.54C55.0127 7.00667 55.126 6.55 55.3527 6.17C55.5793 5.78333 55.896 5.48667 56.3027 5.28C56.7093 5.07333 57.186 4.97 57.7327 4.97C58.2793 4.97 58.756 5.07333 59.1627 5.28C59.5693 5.48667 59.8827 5.78333 60.1027 6.17C60.3293 6.55 60.4427 7.00667 60.4427 7.54C60.4427 8.06667 60.3293 8.52333 60.1027 8.91C59.8827 9.29667 59.5693 9.59333 59.1627 9.8C58.756 10.0067 58.2793 10.11 57.7327 10.11ZM57.7327 8.8C57.9993 8.8 58.2193 8.7 58.3927 8.5C58.566 8.3 58.6527 7.98 58.6527 7.54C58.6527 7.09333 58.566 6.77333 58.3927 6.58C58.2193 6.38 57.9993 6.28 57.7327 6.28C57.4593 6.28 57.236 6.38 57.0627 6.58C56.8893 6.77333 56.8027 7.09333 56.8027 7.54C56.8027 7.98 56.8893 8.3 57.0627 8.5C57.236 8.7 57.4593 8.8 57.7327 8.8ZM61.2583 10V5.08H62.9883V5.75C63.1616 5.49667 63.3849 5.30333 63.6583 5.17C63.9316 5.03667 64.2383 4.97 64.5783 4.97C65.1649 4.97 65.5983 5.14333 65.8783 5.49C66.1649 5.83667 66.3083 6.37 66.3083 7.09V10H64.5283V7.16C64.5283 6.86 64.4749 6.64667 64.3683 6.52C64.2683 6.39333 64.1183 6.33 63.9183 6.33C63.6516 6.33 63.4383 6.41667 63.2783 6.59C63.1183 6.75667 63.0383 6.98333 63.0383 7.27V10H61.2583ZM67.2727 4.23V2.62H69.1427V4.23H67.2727ZM67.3227 10V5.08H69.1027V10H67.3227ZM72.0952 10.11C71.6419 10.11 71.2219 10.0633 70.8352 9.97C70.4552 9.87667 70.1319 9.74667 69.8652 9.58L70.2752 8.43C70.5219 8.57 70.8086 8.68667 71.1352 8.78C71.4619 8.86667 71.7852 8.91 72.1052 8.91C72.3519 8.91 72.5286 8.87667 72.6352 8.81C72.7419 8.73667 72.7952 8.64333 72.7952 8.53C72.7952 8.43 72.7586 8.35667 72.6852 8.31C72.6186 8.25667 72.5219 8.21667 72.3952 8.19L71.2852 8.01C70.8719 7.94333 70.5519 7.79333 70.3252 7.56C70.0986 7.32667 69.9852 7.02333 69.9852 6.65C69.9852 6.30333 70.0819 6.00667 70.2752 5.76C70.4686 5.50667 70.7386 5.31333 71.0852 5.18C71.4319 5.04 71.8286 4.97 72.2752 4.97C72.6286 4.97 72.9786 5.01333 73.3252 5.1C73.6719 5.18 73.9752 5.31333 74.2352 5.5L73.7952 6.63C73.6019 6.49667 73.3619 6.38667 73.0752 6.3C72.7886 6.20667 72.5319 6.16 72.3052 6.16C72.0319 6.16 71.8386 6.2 71.7252 6.28C71.6119 6.35333 71.5552 6.44333 71.5552 6.55C71.5552 6.73 71.6786 6.84 71.9252 6.88L73.0352 7.07C73.4619 7.13667 73.7886 7.28333 74.0152 7.51C74.2486 7.73 74.3652 8.03 74.3652 8.41C74.3652 8.95 74.1586 9.37 73.7452 9.67C73.3319 9.96333 72.7819 10.11 72.0952 10.11ZM77.6273 10.11C76.8807 10.11 76.3273 9.93667 75.9673 9.59C75.6073 9.24333 75.4273 8.72 75.4273 8.02V6.39H74.5073V5.08H75.4273V3.65H77.2073V5.08H78.6073V6.39H77.2073V7.96C77.2073 8.44 77.4507 8.68 77.9373 8.68C78.0173 8.68 78.104 8.67333 78.1973 8.66C78.2973 8.64 78.4073 8.61333 78.5273 8.58L78.7673 9.86C78.614 9.94 78.434 10 78.2273 10.04C78.0207 10.0867 77.8207 10.11 77.6273 10.11ZM81.0152 10.11C80.6352 10.11 80.2985 10.04 80.0052 9.9C79.7185 9.76 79.4918 9.57 79.3252 9.33C79.1652 9.08333 79.0852 8.80333 79.0852 8.49C79.0852 8.13667 79.1785 7.85667 79.3652 7.65C79.5518 7.43667 79.8518 7.28667 80.2652 7.2C80.6785 7.10667 81.2285 7.06 81.9152 7.06H82.2952V6.92C82.2952 6.68 82.2318 6.51 82.1052 6.41C81.9852 6.31 81.7752 6.26 81.4752 6.26C81.2218 6.26 80.9418 6.3 80.6352 6.38C80.3285 6.46 80.0285 6.58333 79.7352 6.75L79.2852 5.58C79.4518 5.46 79.6652 5.35333 79.9252 5.26C80.1852 5.16667 80.4585 5.09667 80.7452 5.05C81.0318 4.99667 81.3018 4.97 81.5552 4.97C82.3752 4.97 82.9818 5.14667 83.3752 5.5C83.7752 5.85333 83.9752 6.41 83.9752 7.17V10H82.3152V9.3C82.2285 9.55333 82.0718 9.75333 81.8452 9.9C81.6185 10.04 81.3418 10.11 81.0152 10.11ZM81.4152 8.95C81.6618 8.95 81.8685 8.87 82.0352 8.71C82.2085 8.55 82.2952 8.34 82.2952 8.08V7.9H81.9152C81.5218 7.9 81.2318 7.94333 81.0452 8.03C80.8652 8.11 80.7752 8.24 80.7752 8.42C80.7752 8.57333 80.8285 8.7 80.9352 8.8C81.0485 8.9 81.2085 8.95 81.4152 8.95Z" fill="#363636"/>
<path d="M4.64 53V45.95H9.62V47.37H6.4V48.71H9.39V50.13H6.4V51.58H9.62V53H4.64ZM12.6026 53.11C11.9226 53.11 11.4292 52.94 11.1226 52.6C10.8159 52.2533 10.6626 51.7333 10.6626 51.04V45.95H12.4426V50.98C12.4426 51.4467 12.6559 51.68 13.0826 51.68C13.1492 51.68 13.2159 51.6767 13.2826 51.67C13.3559 51.6633 13.4259 51.6533 13.4926 51.64L13.4726 53C13.2059 53.0733 12.9159 53.11 12.6026 53.11ZM16.9505 47.23V45.62H18.8205V47.23H16.9505ZM17.0005 53V48.08H18.7805V53H17.0005ZM22.393 53.11C21.6463 53.11 21.093 52.9367 20.733 52.59C20.373 52.2433 20.193 51.72 20.193 51.02V49.39H19.273V48.08H20.193V46.65H21.973V48.08H23.373V49.39H21.973V50.96C21.973 51.44 22.2163 51.68 22.703 51.68C22.783 51.68 22.8696 51.6733 22.963 51.66C23.063 51.64 23.173 51.6133 23.293 51.58L23.533 52.86C23.3796 52.94 23.1996 53 22.993 53.04C22.7863 53.0867 22.5863 53.11 22.393 53.11ZM26.702 53.11C26.102 53.11 25.582 53.0067 25.142 52.8C24.7086 52.5867 24.3753 52.2867 24.142 51.9C23.9086 51.5133 23.792 51.0567 23.792 50.53C23.792 50.03 23.902 49.5867 24.122 49.2C24.3486 48.8133 24.6553 48.5133 25.042 48.3C25.4353 48.08 25.882 47.97 26.382 47.97C26.8753 47.97 27.302 48.0733 27.662 48.28C28.0286 48.4867 28.3086 48.7833 28.502 49.17C28.702 49.55 28.802 49.9967 28.802 50.51V50.9H25.492C25.552 51.22 25.6853 51.45 25.892 51.59C26.0986 51.73 26.3853 51.8 26.752 51.8C27.0053 51.8 27.2686 51.7633 27.542 51.69C27.822 51.61 28.0686 51.4967 28.282 51.35L28.722 52.52C28.4686 52.7 28.1586 52.8433 27.792 52.95C27.4253 53.0567 27.062 53.11 26.702 53.11ZM26.462 49.12C26.1953 49.12 25.9753 49.2 25.802 49.36C25.6353 49.52 25.5286 49.7533 25.482 50.06H27.342C27.322 49.7467 27.2353 49.5133 27.082 49.36C26.9353 49.2 26.7286 49.12 26.462 49.12ZM29.5688 53V48.08H31.2988V48.91C31.5255 48.3433 32.0155 48.0333 32.7688 47.98L33.2588 47.94L33.3588 49.44L32.3888 49.53C32.0355 49.5633 31.7788 49.6633 31.6188 49.83C31.4588 49.99 31.3788 50.23 31.3788 50.55V53H29.5688ZM35.5659 53.11C35.1859 53.11 34.8493 53.04 34.5559 52.9C34.2693 52.76 34.0426 52.57 33.8759 52.33C33.7159 52.0833 33.6359 51.8033 33.6359 51.49C33.6359 51.1367 33.7293 50.8567 33.9159 50.65C34.1026 50.4367 34.4026 50.2867 34.8159 50.2C35.2293 50.1067 35.7793 50.06 36.4659 50.06H36.8459V49.92C36.8459 49.68 36.7826 49.51 36.6559 49.41C36.5359 49.31 36.3259 49.26 36.0259 49.26C35.7726 49.26 35.4926 49.3 35.1859 49.38C34.8793 49.46 34.5793 49.5833 34.2859 49.75L33.8359 48.58C34.0026 48.46 34.2159 48.3533 34.4759 48.26C34.7359 48.1667 35.0093 48.0967 35.2959 48.05C35.5826 47.9967 35.8526 47.97 36.1059 47.97C36.9259 47.97 37.5326 48.1467 37.9259 48.5C38.3259 48.8533 38.5259 49.41 38.5259 50.17V53H36.8659V52.3C36.7793 52.5533 36.6226 52.7533 36.3959 52.9C36.1693 53.04 35.8926 53.11 35.5659 53.11ZM35.9659 51.95C36.2126 51.95 36.4193 51.87 36.5859 51.71C36.7593 51.55 36.8459 51.34 36.8459 51.08V50.9H36.4659C36.0726 50.9 35.7826 50.9433 35.5959 51.03C35.4159 51.11 35.3259 51.24 35.3259 51.42C35.3259 51.5733 35.3793 51.7 35.4859 51.8C35.5993 51.9 35.7593 51.95 35.9659 51.95ZM41.4595 53.11C41.0395 53.11 40.6662 53.0067 40.3395 52.8C40.0195 52.5933 39.7662 52.2967 39.5795 51.91C39.3995 51.5233 39.3095 51.0667 39.3095 50.54C39.3095 50.0067 39.3995 49.55 39.5795 49.17C39.7662 48.7833 40.0195 48.4867 40.3395 48.28C40.6662 48.0733 41.0395 47.97 41.4595 47.97C41.7729 47.97 42.0595 48.0367 42.3195 48.17C42.5862 48.2967 42.7895 48.4633 42.9295 48.67V45.95H44.7095V53H42.9695V52.32C42.8429 52.56 42.6429 52.7533 42.3695 52.9C42.0962 53.04 41.7929 53.11 41.4595 53.11ZM42.0295 51.8C42.2962 51.8 42.5162 51.7 42.6895 51.5C42.8629 51.3 42.9495 50.98 42.9495 50.54C42.9495 50.0933 42.8629 49.7733 42.6895 49.58C42.5162 49.38 42.2962 49.28 42.0295 49.28C41.7562 49.28 41.5329 49.38 41.3595 49.58C41.1862 49.7733 41.0995 50.0933 41.0995 50.54C41.0995 50.98 41.1862 51.3 41.3595 51.5C41.5329 51.7 41.7562 51.8 42.0295 51.8ZM48.2307 53.11C47.684 53.11 47.2074 53.0067 46.8007 52.8C46.394 52.5933 46.0774 52.2967 45.8507 51.91C45.624 51.5233 45.5107 51.0667 45.5107 50.54C45.5107 50.0067 45.624 49.55 45.8507 49.17C46.0774 48.7833 46.394 48.4867 46.8007 48.28C47.2074 48.0733 47.684 47.97 48.2307 47.97C48.7774 47.97 49.254 48.0733 49.6607 48.28C50.0674 48.4867 50.3807 48.7833 50.6007 49.17C50.8274 49.55 50.9407 50.0067 50.9407 50.54C50.9407 51.0667 50.8274 51.5233 50.6007 51.91C50.3807 52.2967 50.0674 52.5933 49.6607 52.8C49.254 53.0067 48.7774 53.11 48.2307 53.11ZM48.2307 51.8C48.4974 51.8 48.7174 51.7 48.8907 51.5C49.064 51.3 49.1507 50.98 49.1507 50.54C49.1507 50.0933 49.064 49.7733 48.8907 49.58C48.7174 49.38 48.4974 49.28 48.2307 49.28C47.9574 49.28 47.734 49.38 47.5607 49.58C47.3874 49.7733 47.3007 50.0933 47.3007 50.54C47.3007 50.98 47.3874 51.3 47.5607 51.5C47.734 51.7 47.9574 51.8 48.2307 51.8ZM51.7563 53V48.08H53.4863V48.91C53.713 48.3433 54.203 48.0333 54.9563 47.98L55.4463 47.94L55.5463 49.44L54.5763 49.53C54.223 49.5633 53.9663 49.6633 53.8063 49.83C53.6463 49.99 53.5663 50.23 53.5663 50.55V53H51.7563Z" fill="#363636"/>
<path d="M4.64 96V88.95H9.62V90.37H6.4V91.71H9.39V93.13H6.4V94.58H9.62V96H4.64ZM12.6026 96.11C11.9226 96.11 11.4292 95.94 11.1226 95.6C10.8159 95.2533 10.6626 94.7333 10.6626 94.04V88.95H12.4426V93.98C12.4426 94.4467 12.6559 94.68 13.0826 94.68C13.1492 94.68 13.2159 94.6767 13.2826 94.67C13.3559 94.6633 13.4259 94.6533 13.4926 94.64L13.4726 96C13.2059 96.0733 12.9159 96.11 12.6026 96.11ZM17.0005 97.8V91.08H18.7305V91.75C18.8638 91.51 19.0671 91.32 19.3405 91.18C19.6138 91.04 19.9138 90.97 20.2405 90.97C20.6605 90.97 21.0305 91.0733 21.3505 91.28C21.6771 91.4867 21.9305 91.7833 22.1105 92.17C22.2971 92.55 22.3905 93.0067 22.3905 93.54C22.3905 94.0667 22.3005 94.5233 22.1205 94.91C21.9405 95.2967 21.6871 95.5933 21.3605 95.8C21.0405 96.0067 20.6671 96.11 20.2405 96.11C19.9338 96.11 19.6471 96.0467 19.3805 95.92C19.1205 95.7933 18.9205 95.6233 18.7805 95.41V97.8H17.0005ZM19.6805 94.8C19.9471 94.8 20.1671 94.7 20.3405 94.5C20.5138 94.3 20.6005 93.98 20.6005 93.54C20.6005 93.0933 20.5138 92.7733 20.3405 92.58C20.1671 92.38 19.9471 92.28 19.6805 92.28C19.4071 92.28 19.1838 92.38 19.0105 92.58C18.8371 92.7733 18.7505 93.0933 18.7505 93.54C18.7505 93.98 18.8371 94.3 19.0105 94.5C19.1838 94.7 19.4071 94.8 19.6805 94.8ZM23.2016 96V91.08H24.9316V91.91C25.1583 91.3433 25.6483 91.0333 26.4016 90.98L26.8916 90.94L26.9916 92.44L26.0216 92.53C25.6683 92.5633 25.4116 92.6633 25.2516 92.83C25.0916 92.99 25.0116 93.23 25.0116 93.55V96H23.2016ZM29.9397 96.11C29.393 96.11 28.9164 96.0067 28.5097 95.8C28.103 95.5933 27.7864 95.2967 27.5597 94.91C27.333 94.5233 27.2197 94.0667 27.2197 93.54C27.2197 93.0067 27.333 92.55 27.5597 92.17C27.7864 91.7833 28.103 91.4867 28.5097 91.28C28.9164 91.0733 29.393 90.97 29.9397 90.97C30.4864 90.97 30.963 91.0733 31.3697 91.28C31.7764 91.4867 32.0897 91.7833 32.3097 92.17C32.5364 92.55 32.6497 93.0067 32.6497 93.54C32.6497 94.0667 32.5364 94.5233 32.3097 94.91C32.0897 95.2967 31.7764 95.5933 31.3697 95.8C30.963 96.0067 30.4864 96.11 29.9397 96.11ZM29.9397 94.8C30.2064 94.8 30.4264 94.7 30.5997 94.5C30.773 94.3 30.8597 93.98 30.8597 93.54C30.8597 93.0933 30.773 92.7733 30.5997 92.58C30.4264 92.38 30.2064 92.28 29.9397 92.28C29.6664 92.28 29.443 92.38 29.2697 92.58C29.0964 92.7733 29.0097 93.0933 29.0097 93.54C29.0097 93.98 29.0964 94.3 29.2697 94.5C29.443 94.7 29.6664 94.8 29.9397 94.8ZM35.9753 96.11C35.422 96.11 34.9386 96.0067 34.5253 95.8C34.1186 95.5933 33.802 95.2967 33.5753 94.91C33.3486 94.5233 33.2353 94.0633 33.2353 93.53C33.2353 92.9967 33.3486 92.54 33.5753 92.16C33.802 91.7733 34.1186 91.48 34.5253 91.28C34.9386 91.0733 35.422 90.97 35.9753 90.97C36.302 90.97 36.6253 91.0167 36.9453 91.11C37.272 91.1967 37.5386 91.32 37.7453 91.48L37.2753 92.7C37.122 92.58 36.942 92.4867 36.7353 92.42C36.5353 92.3467 36.3453 92.31 36.1653 92.31C35.812 92.31 35.5386 92.4167 35.3453 92.63C35.152 92.8433 35.0553 93.1433 35.0553 93.53C35.0553 93.9233 35.152 94.23 35.3453 94.45C35.5386 94.6633 35.812 94.77 36.1653 94.77C36.3453 94.77 36.5353 94.7367 36.7353 94.67C36.942 94.5967 37.122 94.5 37.2753 94.38L37.7453 95.6C37.5386 95.76 37.272 95.8867 36.9453 95.98C36.6186 96.0667 36.2953 96.11 35.9753 96.11ZM40.0093 96.11C39.6293 96.11 39.2926 96.04 38.9993 95.9C38.7126 95.76 38.486 95.57 38.3193 95.33C38.1593 95.0833 38.0793 94.8033 38.0793 94.49C38.0793 94.1367 38.1726 93.8567 38.3593 93.65C38.546 93.4367 38.846 93.2867 39.2593 93.2C39.6726 93.1067 40.2226 93.06 40.9093 93.06H41.2893V92.92C41.2893 92.68 41.226 92.51 41.0993 92.41C40.9793 92.31 40.7693 92.26 40.4693 92.26C40.216 92.26 39.936 92.3 39.6293 92.38C39.3226 92.46 39.0226 92.5833 38.7293 92.75L38.2793 91.58C38.446 91.46 38.6593 91.3533 38.9193 91.26C39.1793 91.1667 39.4526 91.0967 39.7393 91.05C40.026 90.9967 40.296 90.97 40.5493 90.97C41.3693 90.97 41.976 91.1467 42.3693 91.5C42.7693 91.8533 42.9693 92.41 42.9693 93.17V96H41.3093V95.3C41.2226 95.5533 41.066 95.7533 40.8393 95.9C40.6126 96.04 40.336 96.11 40.0093 96.11ZM40.4093 94.95C40.656 94.95 40.8626 94.87 41.0293 94.71C41.2026 94.55 41.2893 94.34 41.2893 94.08V93.9H40.9093C40.516 93.9 40.226 93.9433 40.0393 94.03C39.8593 94.11 39.7693 94.24 39.7693 94.42C39.7693 94.5733 39.8226 94.7 39.9293 94.8C40.0426 94.9 40.2026 94.95 40.4093 94.95ZM45.9429 96.11C45.4896 96.11 45.0696 96.0633 44.6829 95.97C44.3029 95.8767 43.9796 95.7467 43.7129 95.58L44.1229 94.43C44.3696 94.57 44.6562 94.6867 44.9829 94.78C45.3096 94.8667 45.6329 94.91 45.9529 94.91C46.1996 94.91 46.3762 94.8767 46.4829 94.81C46.5896 94.7367 46.6429 94.6433 46.6429 94.53C46.6429 94.43 46.6062 94.3567 46.5329 94.31C46.4662 94.2567 46.3696 94.2167 46.2429 94.19L45.1329 94.01C44.7196 93.9433 44.3996 93.7933 44.1729 93.56C43.9462 93.3267 43.8329 93.0233 43.8329 92.65C43.8329 92.3033 43.9296 92.0067 44.1229 91.76C44.3162 91.5067 44.5862 91.3133 44.9329 91.18C45.2796 91.04 45.6762 90.97 46.1229 90.97C46.4762 90.97 46.8262 91.0133 47.1729 91.1C47.5196 91.18 47.8229 91.3133 48.0829 91.5L47.6429 92.63C47.4496 92.4967 47.2096 92.3867 46.9229 92.3C46.6362 92.2067 46.3796 92.16 46.1529 92.16C45.8796 92.16 45.6862 92.2 45.5729 92.28C45.4596 92.3533 45.4029 92.4433 45.4029 92.55C45.4029 92.73 45.5262 92.84 45.7729 92.88L46.8829 93.07C47.3096 93.1367 47.6362 93.2833 47.8629 93.51C48.0962 93.73 48.2129 94.03 48.2129 94.41C48.2129 94.95 48.0062 95.37 47.5929 95.67C47.1796 95.9633 46.6296 96.11 45.9429 96.11ZM51.475 96.11C50.7283 96.11 50.175 95.9367 49.815 95.59C49.455 95.2433 49.275 94.72 49.275 94.02V92.39H48.355V91.08H49.275V89.65H51.055V91.08H52.455V92.39H51.055V93.96C51.055 94.44 51.2983 94.68 51.785 94.68C51.865 94.68 51.9517 94.6733 52.045 94.66C52.145 94.64 52.255 94.6133 52.375 94.58L52.615 95.86C52.4617 95.94 52.2817 96 52.075 96.04C51.8683 96.0867 51.6683 96.11 51.475 96.11ZM53.1028 90.23V88.62H54.9728V90.23H53.1028ZM53.1528 96V91.08H54.9328V96H53.1528ZM55.9653 96V91.08H57.6953V91.75C57.8686 91.4967 58.092 91.3033 58.3653 91.17C58.6386 91.0367 58.9453 90.97 59.2853 90.97C59.872 90.97 60.3053 91.1433 60.5853 91.49C60.872 91.8367 61.0153 92.37 61.0153 93.09V96H59.2353V93.16C59.2353 92.86 59.182 92.6467 59.0753 92.52C58.9753 92.3933 58.8253 92.33 58.6253 92.33C58.3586 92.33 58.1453 92.4167 57.9853 92.59C57.8253 92.7567 57.7453 92.9833 57.7453 93.27V96H55.9653ZM63.7398 96.11C63.3598 96.11 63.0231 96.04 62.7298 95.9C62.4431 95.76 62.2164 95.57 62.0498 95.33C61.8898 95.0833 61.8098 94.8033 61.8098 94.49C61.8098 94.1367 61.9031 93.8567 62.0898 93.65C62.2764 93.4367 62.5764 93.2867 62.9898 93.2C63.4031 93.1067 63.9531 93.06 64.6398 93.06H65.0198V92.92C65.0198 92.68 64.9564 92.51 64.8298 92.41C64.7098 92.31 64.4998 92.26 64.1998 92.26C63.9464 92.26 63.6664 92.3 63.3598 92.38C63.0531 92.46 62.7531 92.5833 62.4598 92.75L62.0098 91.58C62.1764 91.46 62.3898 91.3533 62.6498 91.26C62.9098 91.1667 63.1831 91.0967 63.4698 91.05C63.7564 90.9967 64.0264 90.97 64.2798 90.97C65.0998 90.97 65.7064 91.1467 66.0998 91.5C66.4998 91.8533 66.6998 92.41 66.6998 93.17V96H65.0398V95.3C64.9531 95.5533 64.7964 95.7533 64.5698 95.9C64.3431 96.04 64.0664 96.11 63.7398 96.11ZM64.1398 94.95C64.3864 94.95 64.5931 94.87 64.7598 94.71C64.9331 94.55 65.0198 94.34 65.0198 94.08V93.9H64.6398C64.2464 93.9 63.9564 93.9433 63.7698 94.03C63.5898 94.11 63.4998 94.24 63.4998 94.42C63.4998 94.5733 63.5531 94.7 63.6598 94.8C63.7731 94.9 63.9331 94.95 64.1398 94.95ZM69.6334 96.11C69.2134 96.11 68.84 96.0067 68.5134 95.8C68.1934 95.5933 67.94 95.2967 67.7534 94.91C67.5734 94.5233 67.4834 94.0667 67.4834 93.54C67.4834 93.0067 67.5734 92.55 67.7534 92.17C67.94 91.7833 68.1934 91.4867 68.5134 91.28C68.84 91.0733 69.2134 90.97 69.6334 90.97C69.9467 90.97 70.2334 91.0367 70.4934 91.17C70.76 91.2967 70.9634 91.4633 71.1034 91.67V88.95H72.8834V96H71.1434V95.32C71.0167 95.56 70.8167 95.7533 70.5434 95.9C70.27 96.04 69.9667 96.11 69.6334 96.11ZM70.2034 94.8C70.47 94.8 70.69 94.7 70.8634 94.5C71.0367 94.3 71.1234 93.98 71.1234 93.54C71.1234 93.0933 71.0367 92.7733 70.8634 92.58C70.69 92.38 70.47 92.28 70.2034 92.28C69.93 92.28 69.7067 92.38 69.5334 92.58C69.36 92.7733 69.2734 93.0933 69.2734 93.54C69.2734 93.98 69.36 94.3 69.5334 94.5C69.7067 94.7 69.93 94.8 70.2034 94.8ZM76.4045 96.11C75.8579 96.11 75.3812 96.0067 74.9745 95.8C74.5679 95.5933 74.2512 95.2967 74.0245 94.91C73.7979 94.5233 73.6845 94.0667 73.6845 93.54C73.6845 93.0067 73.7979 92.55 74.0245 92.17C74.2512 91.7833 74.5679 91.4867 74.9745 91.28C75.3812 91.0733 75.8579 90.97 76.4045 90.97C76.9512 90.97 77.4279 91.0733 77.8345 91.28C78.2412 91.4867 78.5545 91.7833 78.7745 92.17C79.0012 92.55 79.1145 93.0067 79.1145 93.54C79.1145 94.0667 79.0012 94.5233 78.7745 94.91C78.5545 95.2967 78.2412 95.5933 77.8345 95.8C77.4279 96.0067 76.9512 96.11 76.4045 96.11ZM76.4045 94.8C76.6712 94.8 76.8912 94.7 77.0645 94.5C77.2379 94.3 77.3245 93.98 77.3245 93.54C77.3245 93.0933 77.2379 92.7733 77.0645 92.58C76.8912 92.38 76.6712 92.28 76.4045 92.28C76.1312 92.28 75.9079 92.38 75.7345 92.58C75.5612 92.7733 75.4745 93.0933 75.4745 93.54C75.4745 93.98 75.5612 94.3 75.7345 94.5C75.9079 94.7 76.1312 94.8 76.4045 94.8ZM79.9302 96V91.08H81.6602V91.91C81.8868 91.3433 82.3768 91.0333 83.1302 90.98L83.6202 90.94L83.7202 92.44L82.7502 92.53C82.3968 92.5633 82.1402 92.6633 81.9802 92.83C81.8202 92.99 81.7402 93.23 81.7402 93.55V96H79.9302Z" fill="#363636"/>
<path d="M100 6.5C99.7239 6.5 99.5 6.72386 99.5 7C99.5 7.27614 99.7239 7.5 100 7.5V6.5ZM124.354 7.35355C124.549 7.15829 124.549 6.84171 124.354 6.64645L121.172 3.46447C120.976 3.2692 120.66 3.2692 120.464 3.46447C120.269 3.65973 120.269 3.97631 120.464 4.17157L123.293 7L120.464 9.82843C120.269 10.0237 120.269 10.3403 120.464 10.5355C120.66 10.7308 120.976 10.7308 121.172 10.5355L124.354 7.35355ZM100 7.5H124V6.5H100V7.5Z" fill="#8446FF"/>
<path d="M70.5119 46.7782C70.452 47.0477 70.622 47.3148 70.8915 47.3747C71.1611 47.4346 71.4282 47.2647 71.4881 46.9951L70.5119 46.7782ZM87.3706 47.2002L86.9007 47.3711L87.3706 47.2002ZM109.261 49.5837L109.078 49.1183L109.261 49.5837ZM115.596 46.4476L115.733 46.9283L115.596 46.4476ZM121.68 45.7576L121.661 46.2573L121.68 45.7576ZM126.07 48.1411L125.672 48.4436L126.07 48.1411ZM130.555 51.1204L130.84 50.7093L130.555 51.1204ZM148.933 50.305L148.983 49.8075L148.933 50.305ZM157.808 60.9992L158.245 60.7564L157.808 60.9992ZM184.152 61.3442L183.835 60.9572L184.152 61.3442ZM191.553 62.7241L191.965 62.4408L191.553 62.7241ZM203.909 69.5922L203.791 70.0781L203.909 69.5922ZM212.69 69.3413L212.594 68.8507L212.69 69.3413ZM222.162 66.6443L221.976 66.18L222.162 66.6443ZM242.358 54.5074L242.095 54.0823L242.358 54.5074ZM260.642 41.2416L260.899 41.6703L260.642 41.2416ZM270.301 33.0563L270.612 33.4479L270.301 33.0563ZM282.609 26.1213C282.676 25.8534 282.514 25.5819 282.246 25.5149L277.88 24.4235C277.612 24.3565 277.341 24.5194 277.274 24.7873C277.207 25.0552 277.37 25.3267 277.637 25.3937L281.518 26.3638L280.548 30.2444C280.481 30.5123 280.644 30.7837 280.912 30.8507C281.18 30.9177 281.451 30.7548 281.518 30.4869L282.609 26.1213ZM71.4881 46.9951C71.5574 46.6831 71.8992 46.2719 72.5933 45.8142C73.2589 45.3753 74.1441 44.9613 75.0984 44.6035C77.0215 43.8825 79.0991 43.4351 80.0321 43.4351V42.4351C78.9237 42.4351 76.7151 42.9294 74.7474 43.6672C73.7563 44.0388 72.7949 44.4835 72.0428 44.9793C71.3193 45.4565 70.6724 46.0561 70.5119 46.7782L71.4881 46.9951ZM80.0321 43.4351C81.1975 43.4351 82.7188 43.8326 84.0626 44.5467C85.4145 45.2652 86.4945 46.254 86.9007 47.3711L87.8405 47.0294C87.3134 45.5799 85.9853 44.4361 84.5319 43.6637C83.0703 42.887 81.389 42.4351 80.0321 42.4351V43.4351ZM86.9007 47.3711C87.7493 49.7048 89.1822 51.2303 90.974 52.1372C92.7514 53.0367 94.8461 53.3102 97.007 53.2176C101.32 53.0329 106.054 51.3808 109.444 50.0491L109.078 49.1183C105.693 50.448 101.096 52.0416 96.9642 52.2185C94.9027 52.3068 92.9967 52.0401 91.4256 51.2449C89.8689 50.457 88.6055 49.1331 87.8405 47.0294L86.9007 47.3711ZM109.444 50.0491C110.583 49.6014 111.601 48.9646 112.588 48.3857C113.589 47.7989 114.58 47.2578 115.733 46.9283L115.458 45.9668C114.176 46.3332 113.093 46.9304 112.082 47.523C111.058 48.1234 110.126 48.7068 109.078 49.1183L109.444 50.0491ZM115.733 46.9283C117.746 46.3534 119.533 46.1785 121.661 46.2573L121.698 45.258C119.481 45.1758 117.586 45.3588 115.458 45.9668L115.733 46.9283ZM121.661 46.2573C121.813 46.2629 122.104 46.3379 122.508 46.4986C122.895 46.6528 123.339 46.8661 123.776 47.105C124.212 47.3438 124.634 47.6035 124.979 47.848C125.336 48.1011 125.571 48.3103 125.672 48.4436L126.469 47.8385C126.269 47.5764 125.927 47.2944 125.557 47.0321C125.175 46.7612 124.719 46.4812 124.255 46.2276C123.792 45.974 123.311 45.742 122.878 45.5695C122.461 45.4035 122.034 45.2704 121.698 45.258L121.661 46.2573ZM125.672 48.4436C126.336 49.3164 127.11 49.8119 127.9 50.2289C128.705 50.6544 129.464 50.973 130.271 51.5315L130.84 50.7093C129.968 50.1057 129.084 49.7238 128.367 49.3447C127.633 48.9572 127.005 48.5441 126.469 47.8385L125.672 48.4436ZM130.271 51.5315C132.991 53.4149 136.395 53.0138 139.657 52.3042C140.48 52.1251 141.308 51.9228 142.12 51.7267C142.936 51.53 143.737 51.3392 144.522 51.1793C146.097 50.8586 147.567 50.6709 148.883 50.8025L148.983 49.8075C147.514 49.6607 145.926 49.8729 144.323 50.1995C143.518 50.3633 142.701 50.5579 141.886 50.7546C141.068 50.9519 140.254 51.1509 139.444 51.3271C136.172 52.039 133.172 52.324 130.84 50.7093L130.271 51.5315ZM148.883 50.8025C151.266 51.0408 152.839 52.5972 154.106 54.673C154.739 55.7102 155.281 56.8544 155.805 57.9952C156.323 59.1256 156.827 60.2635 157.371 61.242L158.245 60.7564C157.725 59.8209 157.242 58.7304 156.713 57.5783C156.19 56.4367 155.626 55.2446 154.959 54.1521C153.627 51.9685 151.825 50.0918 148.983 49.8075L148.883 50.8025ZM157.371 61.242C160.308 66.5284 165.373 68.0882 170.518 67.61C175.641 67.1337 180.912 64.6408 184.468 61.7312L183.835 60.9572C180.409 63.7604 175.321 66.1591 170.425 66.6143C165.551 67.0674 160.935 65.5984 158.245 60.7564L157.371 61.242ZM184.468 61.7312C185.951 60.5178 187.057 60.1224 188.009 60.3046C188.979 60.4905 189.973 61.3085 191.141 63.0074L191.965 62.4408C190.768 60.6997 189.578 59.5869 188.197 59.3225C186.797 59.0544 185.385 59.689 183.835 60.9572L184.468 61.7312ZM191.141 63.0074C193.944 67.0845 199.352 68.9983 203.791 70.0781L204.027 69.1064C199.595 68.0281 194.535 66.1797 191.965 62.4408L191.141 63.0074ZM203.791 70.0781C206.904 70.8353 209.79 70.4195 212.787 69.832L212.594 68.8507C209.617 69.4345 206.915 69.8088 204.027 69.1064L203.791 70.0781ZM212.787 69.832C215.787 69.2436 219.475 68.2573 222.347 67.1085L221.976 66.18C219.178 67.2993 215.553 68.2704 212.594 68.8507L212.787 69.832ZM222.347 67.1085C226.072 65.6188 229.491 63.5926 232.799 61.4342C236.128 59.2626 239.298 56.9899 242.621 54.9326L242.095 54.0823C238.77 56.1405 235.521 58.4646 232.253 60.5967C228.965 62.742 225.61 64.7265 221.976 66.18L222.347 67.1085ZM242.621 54.9326C245.84 52.9402 248.834 50.5649 251.802 48.2262C254.779 45.8809 257.731 43.5714 260.899 41.6703L260.385 40.8129C257.153 42.7516 254.153 45.1004 251.183 47.4407C248.204 49.7876 245.256 52.1253 242.095 54.0823L242.621 54.9326ZM260.899 41.6703C262.749 40.5602 264.378 39.1332 265.937 37.6782C267.508 36.2122 268.996 34.7312 270.612 33.4479L269.99 32.6647C268.333 33.981 266.794 35.5111 265.255 36.9471C263.704 38.394 262.14 39.7599 260.385 40.8129L260.899 41.6703ZM270.612 33.4479C272.415 32.0164 274.353 30.8615 276.347 29.7628C278.33 28.671 280.394 27.6212 282.382 26.4287L281.867 25.5713C279.899 26.752 277.888 27.7727 275.865 28.8869C273.854 29.9944 271.859 31.181 269.99 32.6647L270.612 33.4479Z" fill="#8446FF"/>
</g>
<defs>
<filter id="filter0_d_1760_19" x="0.640137" y="2.62012" width="285.984" height="103.18" filterUnits="userSpaceOnUse" color-interpolation-filters="sRGB">
<feFlood flood-opacity="0" result="BackgroundImageFix"/>
<feColorMatrix in="SourceAlpha" type="matrix" values="0 0 0 0 0 0 0 0 0 0 0 0 0 0 0 0 0 0 127 0" result="hardAlpha"/>
<feOffset dy="4"/>
<feGaussianBlur stdDeviation="2"/>
<feComposite in2="hardAlpha" operator="out"/>
<feColorMatrix type="matrix" values="0 0 0 0 0 0 0 0 0 0 0 0 0 0 0 0 0 0 0.25 0"/>
<feBlend mode="normal" in2="BackgroundImageFix" result="effect1_dropShadow_1760_19"/>
<feBlend mode="normal" in="SourceGraphic" in2="effect1_dropShadow_1760_19" result="shape"/>
</filter>
</defs>
</svg>
