<svg width="236" height="507" viewBox="0 0 236 507" fill="none" xmlns="http://www.w3.org/2000/svg">
<rect y="218" width="17" height="17" rx="2.5" fill="#8446FF"/>
<rect y="243" width="17" height="17" rx="2.5" fill="#8446FF"/>
<rect y="268" width="17" height="17" rx="2.5" fill="#8446FF"/>
<rect x="25" y="218" width="17" height="17" rx="2.5" fill="#8446FF"/>
<rect x="25" y="243" width="17" height="17" rx="2.5" fill="#8446FF"/>
<rect x="25" y="268" width="17" height="17" rx="2.5" fill="#8446FF"/>
<rect x="50" y="218" width="17" height="17" rx="2.5" fill="#8446FF"/>
<rect x="50" y="243" width="17" height="17" rx="2.5" fill="#8446FF"/>
<rect x="50" y="268" width="17" height="17" rx="2.5" fill="#8446FF"/>
<rect x="130" width="17" height="17" rx="2.5" fill="#D512DE"/>
<rect x="130" y="25" width="17" height="17" rx="2.5" fill="#CEB5FF"/>
<rect x="130" y="50" width="17" height="17" rx="2.5" fill="#CEB5FF"/>
<rect x="155" width="17" height="17" rx="2.5" fill="#CEB5FF"/>
<rect x="155" y="25" width="17" height="17" rx="2.5" fill="#CEB5FF"/>
<rect x="155" y="50" width="17" height="17" rx="2.5" fill="#CEB5FF"/>
<rect x="180" width="17" height="17" rx="2.5" fill="#CEB5FF"/>
<rect x="180" y="25" width="17" height="17" rx="2.5" fill="#CEB5FF"/>
<rect x="180" y="50" width="17" height="17" rx="2.5" fill="#CEB5FF"/>
<rect x="130" y="88" width="17" height="17" rx="2.5" fill="#8446FF"/>
<rect x="130" y="113" width="17" height="17" rx="2.5" fill="#CEB5FF"/>
<rect x="130" y="138" width="17" height="17" rx="2.5" fill="#CEB5FF"/>
<rect x="155" y="88" width="17" height="17" rx="2.5" fill="#D512DE"/>
<rect x="155" y="113" width="17" height="17" rx="2.5" fill="#CEB5FF"/>
<rect x="155" y="138" width="17" height="17" rx="2.5" fill="#CEB5FF"/>
<rect x="180" y="88" width="17" height="17" rx="2.5" fill="#CEB5FF"/>
<rect x="180" y="113" width="17" height="17" rx="2.5" fill="#CEB5FF"/>
<rect x="180" y="138" width="17" height="17" rx="2.5" fill="#CEB5FF"/>
<rect x="130" y="176" width="17" height="17" rx="2.5" fill="#8446FF"/>
<rect x="130" y="201" width="17" height="17" rx="2.5" fill="#CEB5FF"/>
<rect x="130" y="226" width="17" height="17" rx="2.5" fill="#CEB5FF"/>
<rect x="155" y="176" width="17" height="17" rx="2.5" fill="#8446FF"/>
<rect x="155" y="201" width="17" height="17" rx="2.5" fill="#CEB5FF"/>
<rect x="155" y="226" width="17" height="17" rx="2.5" fill="#CEB5FF"/>
<rect x="180" y="176" width="17" height="17" rx="2.5" fill="#D512DE"/>
<rect x="180" y="201" width="17" height="17" rx="2.5" fill="#CEB5FF"/>
<rect x="180" y="226" width="17" height="17" rx="2.5" fill="#CEB5FF"/>
<rect x="130" y="264" width="17" height="17" rx="2.5" fill="#8446FF"/>
<rect x="130" y="289" width="17" height="17" rx="2.5" fill="#D512DE"/>
<rect x="130" y="314" width="17" height="17" rx="2.5" fill="#CEB5FF"/>
<rect x="155" y="264" width="17" height="17" rx="2.5" fill="#8446FF"/>
<rect x="155" y="289" width="17" height="17" rx="2.5" fill="#D512DE"/>
<rect x="155" y="314" width="17" height="17" rx="2.5" fill="#CEB5FF"/>
<rect x="180" y="264" width="17" height="17" rx="2.5" fill="#8446FF"/>
<rect x="180" y="289" width="17" height="17" rx="2.5" fill="#D512DE"/>
<rect x="180" y="314" width="17" height="17" rx="2.5" fill="#CEB5FF"/>
<rect x="130" y="352" width="17" height="17" rx="2.5" fill="#8446FF"/>
<rect x="130" y="377" width="17" height="17" rx="2.5" fill="#8446FF"/>
<rect x="130" y="402" width="17" height="17" rx="2.5" fill="#D512DE"/>
<rect x="155" y="352" width="17" height="17" rx="2.5" fill="#8446FF"/>
<rect x="155" y="377" width="17" height="17" rx="2.5" fill="#8446FF"/>
<rect x="155" y="402" width="17" height="17" rx="2.5" fill="#D512DE"/>
<rect x="180" y="352" width="17" height="17" rx="2.5" fill="#8446FF"/>
<rect x="180" y="377" width="17" height="17" rx="2.5" fill="#8446FF"/>
<rect x="180" y="402" width="17" height="17" rx="2.5" fill="#D512DE"/>
<rect x="130" y="440" width="17" height="17" rx="2.5" fill="#8446FF"/>
<rect x="130" y="465" width="17" height="17" rx="2.5" fill="#8446FF"/>
<rect x="130" y="490" width="17" height="17" rx="2.5" fill="#8446FF"/>
<rect x="155" y="440" width="17" height="17" rx="2.5" fill="#8446FF"/>
<rect x="155" y="465" width="17" height="17" rx="2.5" fill="#8446FF"/>
<rect x="155" y="490" width="17" height="17" rx="2.5" fill="#8446FF"/>
<rect x="180" y="440" width="17" height="17" rx="2.5" fill="#8446FF"/>
<rect x="180" y="465" width="17" height="17" rx="2.5" fill="#8446FF"/>
<rect x="180" y="490" width="17" height="17" rx="2.5" fill="#8446FF"/>
<path d="M210.82 38V30.95H213.31C214.47 30.95 215.363 31.2533 215.99 31.86C216.623 32.4667 216.94 33.3367 216.94 34.47C216.94 35.6033 216.623 36.4767 215.99 37.09C215.363 37.6967 214.47 38 213.31 38H210.82ZM211.86 37.13H213.25C214.99 37.13 215.86 36.2433 215.86 34.47C215.86 32.7033 214.99 31.82 213.25 31.82H211.86V37.13ZM218.22 38V33.12H219.23V38H218.22ZM218.37 32.47L219.4 30.45H220.43L219.07 32.47H218.37ZM222.211 38.09C221.871 38.09 221.568 38.0233 221.301 37.89C221.035 37.7567 220.821 37.5767 220.661 37.35C220.508 37.1233 220.431 36.8667 220.431 36.58C220.431 36.22 220.521 35.9367 220.701 35.73C220.888 35.5233 221.191 35.3733 221.611 35.28C222.038 35.1867 222.611 35.14 223.331 35.14H223.671V34.88C223.671 34.5 223.591 34.2267 223.431 34.06C223.271 33.8933 223.008 33.81 222.641 33.81C222.361 33.81 222.081 33.8533 221.801 33.94C221.521 34.02 221.235 34.15 220.941 34.33L220.631 33.62C220.885 33.44 221.201 33.2967 221.581 33.19C221.961 33.0833 222.325 33.03 222.671 33.03C223.338 33.03 223.831 33.19 224.151 33.51C224.471 33.8233 224.631 34.3167 224.631 34.99V38H223.681V37.19C223.561 37.47 223.375 37.69 223.121 37.85C222.868 38.01 222.565 38.09 222.211 38.09ZM222.411 37.37C222.771 37.37 223.071 37.2433 223.311 36.99C223.551 36.7367 223.671 36.4167 223.671 36.03V35.76H223.341C222.855 35.76 222.471 35.7833 222.191 35.83C221.918 35.8767 221.721 35.9567 221.601 36.07C221.488 36.1767 221.431 36.3267 221.431 36.52C221.431 36.7733 221.518 36.98 221.691 37.14C221.865 37.2933 222.105 37.37 222.411 37.37ZM229.109 38V37.13H230.709V32.15L229.459 32.93L229.039 32.16L231.009 30.95H231.739V37.13H233.239V38H229.109Z" fill="#979797"/>
<path d="M210.82 125V117.95H213.31C214.47 117.95 215.363 118.253 215.99 118.86C216.623 119.467 216.94 120.337 216.94 121.47C216.94 122.603 216.623 123.477 215.99 124.09C215.363 124.697 214.47 125 213.31 125H210.82ZM211.86 124.13H213.25C214.99 124.13 215.86 123.243 215.86 121.47C215.86 119.703 214.99 118.82 213.25 118.82H211.86V124.13ZM218.22 125V120.12H219.23V125H218.22ZM218.37 119.47L219.4 117.45H220.43L219.07 119.47H218.37ZM222.211 125.09C221.871 125.09 221.568 125.023 221.301 124.89C221.035 124.757 220.821 124.577 220.661 124.35C220.508 124.123 220.431 123.867 220.431 123.58C220.431 123.22 220.521 122.937 220.701 122.73C220.888 122.523 221.191 122.373 221.611 122.28C222.038 122.187 222.611 122.14 223.331 122.14H223.671V121.88C223.671 121.5 223.591 121.227 223.431 121.06C223.271 120.893 223.008 120.81 222.641 120.81C222.361 120.81 222.081 120.853 221.801 120.94C221.521 121.02 221.235 121.15 220.941 121.33L220.631 120.62C220.885 120.44 221.201 120.297 221.581 120.19C221.961 120.083 222.325 120.03 222.671 120.03C223.338 120.03 223.831 120.19 224.151 120.51C224.471 120.823 224.631 121.317 224.631 121.99V125H223.681V124.19C223.561 124.47 223.375 124.69 223.121 124.85C222.868 125.01 222.565 125.09 222.211 125.09ZM222.411 124.37C222.771 124.37 223.071 124.243 223.311 123.99C223.551 123.737 223.671 123.417 223.671 123.03V122.76H223.341C222.855 122.76 222.471 122.783 222.191 122.83C221.918 122.877 221.721 122.957 221.601 123.07C221.488 123.177 221.431 123.327 221.431 123.52C221.431 123.773 221.518 123.98 221.691 124.14C221.865 124.293 222.105 124.37 222.411 124.37ZM228.789 125V124.23L231.139 121.71C231.466 121.357 231.699 121.037 231.839 120.75C231.986 120.463 232.059 120.173 232.059 119.88C232.059 119.12 231.613 118.74 230.719 118.74C230.039 118.74 229.429 118.997 228.889 119.51L228.519 118.72C228.786 118.46 229.126 118.253 229.539 118.1C229.953 117.94 230.383 117.86 230.829 117.86C231.556 117.86 232.113 118.027 232.499 118.36C232.893 118.693 233.089 119.17 233.089 119.79C233.089 120.21 232.986 120.62 232.779 121.02C232.579 121.42 232.263 121.847 231.829 122.3L230.089 124.13H233.369V125H228.789Z" fill="#979797"/>
<path d="M210.82 215V207.95H213.31C214.47 207.95 215.363 208.253 215.99 208.86C216.623 209.467 216.94 210.337 216.94 211.47C216.94 212.603 216.623 213.477 215.99 214.09C215.363 214.697 214.47 215 213.31 215H210.82ZM211.86 214.13H213.25C214.99 214.13 215.86 213.243 215.86 211.47C215.86 209.703 214.99 208.82 213.25 208.82H211.86V214.13ZM218.22 215V210.12H219.23V215H218.22ZM218.37 209.47L219.4 207.45H220.43L219.07 209.47H218.37ZM222.211 215.09C221.871 215.09 221.568 215.023 221.301 214.89C221.035 214.757 220.821 214.577 220.661 214.35C220.508 214.123 220.431 213.867 220.431 213.58C220.431 213.22 220.521 212.937 220.701 212.73C220.888 212.523 221.191 212.373 221.611 212.28C222.038 212.187 222.611 212.14 223.331 212.14H223.671V211.88C223.671 211.5 223.591 211.227 223.431 211.06C223.271 210.893 223.008 210.81 222.641 210.81C222.361 210.81 222.081 210.853 221.801 210.94C221.521 211.02 221.235 211.15 220.941 211.33L220.631 210.62C220.885 210.44 221.201 210.297 221.581 210.19C221.961 210.083 222.325 210.03 222.671 210.03C223.338 210.03 223.831 210.19 224.151 210.51C224.471 210.823 224.631 211.317 224.631 211.99V215H223.681V214.19C223.561 214.47 223.375 214.69 223.121 214.85C222.868 215.01 222.565 215.09 222.211 215.09ZM222.411 214.37C222.771 214.37 223.071 214.243 223.311 213.99C223.551 213.737 223.671 213.417 223.671 213.03V212.76H223.341C222.855 212.76 222.471 212.783 222.191 212.83C221.918 212.877 221.721 212.957 221.601 213.07C221.488 213.177 221.431 213.327 221.431 213.52C221.431 213.773 221.518 213.98 221.691 214.14C221.865 214.293 222.105 214.37 222.411 214.37ZM230.829 215.09C230.356 215.09 229.906 215.02 229.479 214.88C229.053 214.733 228.696 214.53 228.409 214.27L228.769 213.47C229.083 213.723 229.406 213.91 229.739 214.03C230.073 214.15 230.426 214.21 230.799 214.21C231.279 214.21 231.643 214.107 231.889 213.9C232.143 213.693 232.269 213.397 232.269 213.01C232.269 212.623 232.143 212.337 231.889 212.15C231.643 211.963 231.283 211.87 230.809 211.87H229.719V211H230.709C231.129 211 231.459 210.893 231.699 210.68C231.946 210.467 232.069 210.173 232.069 209.8C232.069 209.46 231.956 209.2 231.729 209.02C231.503 208.833 231.179 208.74 230.759 208.74C230.046 208.74 229.423 208.997 228.889 209.51L228.529 208.72C228.803 208.447 229.143 208.237 229.549 208.09C229.963 207.937 230.393 207.86 230.839 207.86C231.546 207.86 232.096 208.023 232.489 208.35C232.883 208.67 233.079 209.117 233.079 209.69C233.079 210.077 232.979 210.417 232.779 210.71C232.586 211.003 232.316 211.217 231.969 211.35C232.389 211.457 232.713 211.663 232.939 211.97C233.166 212.27 233.279 212.64 233.279 213.08C233.279 213.7 233.059 214.19 232.619 214.55C232.186 214.91 231.589 215.09 230.829 215.09Z" fill="#979797"/>
<path d="M210.82 301V293.95H213.31C214.47 293.95 215.363 294.253 215.99 294.86C216.623 295.467 216.94 296.337 216.94 297.47C216.94 298.603 216.623 299.477 215.99 300.09C215.363 300.697 214.47 301 213.31 301H210.82ZM211.86 300.13H213.25C214.99 300.13 215.86 299.243 215.86 297.47C215.86 295.703 214.99 294.82 213.25 294.82H211.86V300.13ZM218.22 301V296.12H219.23V301H218.22ZM218.37 295.47L219.4 293.45H220.43L219.07 295.47H218.37ZM222.211 301.09C221.871 301.09 221.568 301.023 221.301 300.89C221.035 300.757 220.821 300.577 220.661 300.35C220.508 300.123 220.431 299.867 220.431 299.58C220.431 299.22 220.521 298.937 220.701 298.73C220.888 298.523 221.191 298.373 221.611 298.28C222.038 298.187 222.611 298.14 223.331 298.14H223.671V297.88C223.671 297.5 223.591 297.227 223.431 297.06C223.271 296.893 223.008 296.81 222.641 296.81C222.361 296.81 222.081 296.853 221.801 296.94C221.521 297.02 221.235 297.15 220.941 297.33L220.631 296.62C220.885 296.44 221.201 296.297 221.581 296.19C221.961 296.083 222.325 296.03 222.671 296.03C223.338 296.03 223.831 296.19 224.151 296.51C224.471 296.823 224.631 297.317 224.631 297.99V301H223.681V300.19C223.561 300.47 223.375 300.69 223.121 300.85C222.868 301.01 222.565 301.09 222.211 301.09ZM222.411 300.37C222.771 300.37 223.071 300.243 223.311 299.99C223.551 299.737 223.671 299.417 223.671 299.03V298.76H223.341C222.855 298.76 222.471 298.783 222.191 298.83C221.918 298.877 221.721 298.957 221.601 299.07C221.488 299.177 221.431 299.327 221.431 299.52C221.431 299.773 221.518 299.98 221.691 300.14C221.865 300.293 222.105 300.37 222.411 300.37ZM231.579 301V299.57H228.409V298.8L231.759 293.95H232.609V298.7H233.639V299.57H232.609V301H231.579ZM231.579 298.7V295.57L229.439 298.7H231.579Z" fill="#979797"/>
<path d="M210.82 389V381.95H213.31C214.47 381.95 215.363 382.253 215.99 382.86C216.623 383.467 216.94 384.337 216.94 385.47C216.94 386.603 216.623 387.477 215.99 388.09C215.363 388.697 214.47 389 213.31 389H210.82ZM211.86 388.13H213.25C214.99 388.13 215.86 387.243 215.86 385.47C215.86 383.703 214.99 382.82 213.25 382.82H211.86V388.13ZM218.22 389V384.12H219.23V389H218.22ZM218.37 383.47L219.4 381.45H220.43L219.07 383.47H218.37ZM222.211 389.09C221.871 389.09 221.568 389.023 221.301 388.89C221.035 388.757 220.821 388.577 220.661 388.35C220.508 388.123 220.431 387.867 220.431 387.58C220.431 387.22 220.521 386.937 220.701 386.73C220.888 386.523 221.191 386.373 221.611 386.28C222.038 386.187 222.611 386.14 223.331 386.14H223.671V385.88C223.671 385.5 223.591 385.227 223.431 385.06C223.271 384.893 223.008 384.81 222.641 384.81C222.361 384.81 222.081 384.853 221.801 384.94C221.521 385.02 221.235 385.15 220.941 385.33L220.631 384.62C220.885 384.44 221.201 384.297 221.581 384.19C221.961 384.083 222.325 384.03 222.671 384.03C223.338 384.03 223.831 384.19 224.151 384.51C224.471 384.823 224.631 385.317 224.631 385.99V389H223.681V388.19C223.561 388.47 223.375 388.69 223.121 388.85C222.868 389.01 222.565 389.09 222.211 389.09ZM222.411 388.37C222.771 388.37 223.071 388.243 223.311 387.99C223.551 387.737 223.671 387.417 223.671 387.03V386.76H223.341C222.855 386.76 222.471 386.783 222.191 386.83C221.918 386.877 221.721 386.957 221.601 387.07C221.488 387.177 221.431 387.327 221.431 387.52C221.431 387.773 221.518 387.98 221.691 388.14C221.865 388.293 222.105 388.37 222.411 388.37ZM231.049 389.09C230.596 389.09 230.156 389.02 229.729 388.88C229.309 388.733 228.959 388.53 228.679 388.27L229.029 387.47C229.643 387.963 230.309 388.21 231.029 388.21C231.489 388.21 231.849 388.087 232.109 387.84C232.369 387.587 232.499 387.257 232.499 386.85C232.499 386.43 232.376 386.087 232.129 385.82C231.883 385.553 231.539 385.42 231.099 385.42C230.479 385.42 229.983 385.677 229.609 386.19H228.889V381.95H233.089V382.82H229.899V385.05C230.273 384.723 230.746 384.56 231.319 384.56C231.766 384.56 232.153 384.653 232.479 384.84C232.806 385.027 233.059 385.29 233.239 385.63C233.419 385.963 233.509 386.353 233.509 386.8C233.509 387.253 233.409 387.653 233.209 388C233.009 388.34 232.726 388.607 232.359 388.8C231.993 388.993 231.556 389.09 231.049 389.09Z" fill="#979797"/>
<path d="M210.82 477V469.95H213.31C214.47 469.95 215.363 470.253 215.99 470.86C216.623 471.467 216.94 472.337 216.94 473.47C216.94 474.603 216.623 475.477 215.99 476.09C215.363 476.697 214.47 477 213.31 477H210.82ZM211.86 476.13H213.25C214.99 476.13 215.86 475.243 215.86 473.47C215.86 471.703 214.99 470.82 213.25 470.82H211.86V476.13ZM218.22 477V472.12H219.23V477H218.22ZM218.37 471.47L219.4 469.45H220.43L219.07 471.47H218.37ZM222.211 477.09C221.871 477.09 221.568 477.023 221.301 476.89C221.035 476.757 220.821 476.577 220.661 476.35C220.508 476.123 220.431 475.867 220.431 475.58C220.431 475.22 220.521 474.937 220.701 474.73C220.888 474.523 221.191 474.373 221.611 474.28C222.038 474.187 222.611 474.14 223.331 474.14H223.671V473.88C223.671 473.5 223.591 473.227 223.431 473.06C223.271 472.893 223.008 472.81 222.641 472.81C222.361 472.81 222.081 472.853 221.801 472.94C221.521 473.02 221.235 473.15 220.941 473.33L220.631 472.62C220.885 472.44 221.201 472.297 221.581 472.19C221.961 472.083 222.325 472.03 222.671 472.03C223.338 472.03 223.831 472.19 224.151 472.51C224.471 472.823 224.631 473.317 224.631 473.99V477H223.681V476.19C223.561 476.47 223.375 476.69 223.121 476.85C222.868 477.01 222.565 477.09 222.211 477.09ZM222.411 476.37C222.771 476.37 223.071 476.243 223.311 475.99C223.551 475.737 223.671 475.417 223.671 475.03V474.76H223.341C222.855 474.76 222.471 474.783 222.191 474.83C221.918 474.877 221.721 474.957 221.601 475.07C221.488 475.177 221.431 475.327 221.431 475.52C221.431 475.773 221.518 475.98 221.691 476.14C221.865 476.293 222.105 476.37 222.411 476.37ZM231.189 477.09C230.336 477.09 229.676 476.787 229.209 476.18C228.749 475.573 228.519 474.723 228.519 473.63C228.519 472.423 228.779 471.493 229.299 470.84C229.819 470.187 230.539 469.86 231.459 469.86C231.819 469.86 232.183 469.933 232.549 470.08C232.916 470.22 233.223 470.42 233.469 470.68L233.109 471.46C232.869 471.22 232.603 471.04 232.309 470.92C232.023 470.8 231.733 470.74 231.439 470.74C230.819 470.74 230.343 470.967 230.009 471.42C229.683 471.867 229.519 472.537 229.519 473.43V473.83C229.653 473.423 229.883 473.107 230.209 472.88C230.543 472.647 230.926 472.53 231.359 472.53C231.773 472.53 232.136 472.627 232.449 472.82C232.769 473.013 233.019 473.28 233.199 473.62C233.379 473.953 233.469 474.337 233.469 474.77C233.469 475.223 233.373 475.627 233.179 475.98C232.986 476.327 232.716 476.6 232.369 476.8C232.029 476.993 231.636 477.09 231.189 477.09ZM231.129 476.25C231.536 476.25 231.866 476.117 232.119 475.85C232.373 475.583 232.499 475.237 232.499 474.81C232.499 474.383 232.373 474.037 232.119 473.77C231.866 473.503 231.536 473.37 231.129 473.37C230.723 473.37 230.393 473.503 230.139 473.77C229.886 474.037 229.759 474.383 229.759 474.81C229.759 475.237 229.886 475.583 230.139 475.85C230.393 476.117 230.723 476.25 231.129 476.25Z" fill="#979797"/>
<path d="M21.84 307V299.95H22.71L25.32 304.82L27.92 299.95H28.77V307H27.84V301.83L25.63 305.92H25L22.78 301.85V307H21.84ZM32.6133 307.09C31.8133 307.09 31.1833 306.867 30.7233 306.42C30.2633 305.967 30.0333 305.35 30.0333 304.57C30.0333 304.07 30.1333 303.63 30.3333 303.25C30.5399 302.863 30.8233 302.563 31.1833 302.35C31.5433 302.137 31.9566 302.03 32.4233 302.03C33.0966 302.03 33.6266 302.247 34.0133 302.68C34.3999 303.107 34.5933 303.697 34.5933 304.45V304.79H31.0133C31.0866 305.803 31.6233 306.31 32.6233 306.31C32.9033 306.31 33.1766 306.267 33.4433 306.18C33.7166 306.093 33.9733 305.95 34.2133 305.75L34.5133 306.45C34.2933 306.65 34.0099 306.807 33.6633 306.92C33.3166 307.033 32.9666 307.09 32.6133 307.09ZM32.4633 302.74C32.0433 302.74 31.7099 302.87 31.4633 303.13C31.2166 303.39 31.0666 303.737 31.0133 304.17H33.7433C33.7233 303.717 33.6033 303.367 33.3833 303.12C33.1633 302.867 32.8566 302.74 32.4633 302.74ZM37.7646 307.09C37.1513 307.09 36.6946 306.933 36.3946 306.62C36.0946 306.307 35.9446 305.853 35.9446 305.26V302.9H34.9946V302.12H35.9446V300.65H36.9546V302.12H38.4646V302.9H36.9546V305.18C36.9546 305.533 37.0279 305.8 37.1746 305.98C37.3279 306.16 37.5746 306.25 37.9146 306.25C38.0213 306.25 38.1246 306.24 38.2246 306.22C38.3246 306.193 38.4246 306.163 38.5246 306.13L38.6846 306.89C38.5846 306.95 38.4446 306.997 38.2646 307.03C38.0913 307.07 37.9246 307.09 37.7646 307.09ZM40.897 307.09C40.557 307.09 40.2536 307.023 39.987 306.89C39.7203 306.757 39.507 306.577 39.347 306.35C39.1936 306.123 39.117 305.867 39.117 305.58C39.117 305.22 39.207 304.937 39.387 304.73C39.5736 304.523 39.877 304.373 40.297 304.28C40.7236 304.187 41.297 304.14 42.017 304.14H42.357V303.88C42.357 303.5 42.277 303.227 42.117 303.06C41.957 302.893 41.6936 302.81 41.327 302.81C41.047 302.81 40.767 302.853 40.487 302.94C40.207 303.02 39.9203 303.15 39.627 303.33L39.317 302.62C39.5703 302.44 39.887 302.297 40.267 302.19C40.647 302.083 41.0103 302.03 41.357 302.03C42.0236 302.03 42.517 302.19 42.837 302.51C43.157 302.823 43.317 303.317 43.317 303.99V307H42.367V306.19C42.247 306.47 42.0603 306.69 41.807 306.85C41.5536 307.01 41.2503 307.09 40.897 307.09ZM41.097 306.37C41.457 306.37 41.757 306.243 41.997 305.99C42.237 305.737 42.357 305.417 42.357 305.03V304.76H42.027C41.5403 304.76 41.157 304.783 40.877 304.83C40.6036 304.877 40.407 304.957 40.287 305.07C40.1736 305.177 40.117 305.327 40.117 305.52C40.117 305.773 40.2036 305.98 40.377 306.14C40.5503 306.293 40.7903 306.37 41.097 306.37Z" fill="#979797"/>
</svg>
