<svg width="215" height="142" viewBox="0 0 215 142" fill="none" xmlns="http://www.w3.org/2000/svg">
<path d="M16.7074 139V131.95H21.6874V133.37H18.4674V134.71H21.4574V136.13H18.4674V137.58H21.6874V139H16.7074ZM24.6704 139.11C24.2171 139.11 23.7971 139.063 23.4104 138.97C23.0304 138.877 22.7071 138.747 22.4404 138.58L22.8504 137.43C23.0971 137.57 23.3838 137.687 23.7104 137.78C24.0371 137.867 24.3604 137.91 24.6804 137.91C24.9271 137.91 25.1038 137.877 25.2104 137.81C25.3171 137.737 25.3704 137.643 25.3704 137.53C25.3704 137.43 25.3338 137.357 25.2604 137.31C25.1938 137.257 25.0971 137.217 24.9704 137.19L23.8604 137.01C23.4471 136.943 23.1271 136.793 22.9004 136.56C22.6738 136.327 22.5604 136.023 22.5604 135.65C22.5604 135.303 22.6571 135.007 22.8504 134.76C23.0438 134.507 23.3138 134.313 23.6604 134.18C24.0071 134.04 24.4038 133.97 24.8504 133.97C25.2038 133.97 25.5538 134.013 25.9004 134.1C26.2471 134.18 26.5504 134.313 26.8104 134.5L26.3704 135.63C26.1771 135.497 25.9371 135.387 25.6504 135.3C25.3638 135.207 25.1071 135.16 24.8804 135.16C24.6071 135.16 24.4138 135.2 24.3004 135.28C24.1871 135.353 24.1304 135.443 24.1304 135.55C24.1304 135.73 24.2538 135.84 24.5004 135.88L25.6104 136.07C26.0371 136.137 26.3638 136.283 26.5904 136.51C26.8238 136.73 26.9404 137.03 26.9404 137.41C26.9404 137.95 26.7338 138.37 26.3204 138.67C25.9071 138.963 25.3571 139.11 24.6704 139.11ZM28.0914 139V135.39H27.1614V134.08H28.0914C28.1247 133.387 28.348 132.867 28.7614 132.52C29.1747 132.167 29.8014 131.967 30.6414 131.92L31.2414 131.89L31.3414 133.16L30.8814 133.19C30.4947 133.217 30.228 133.287 30.0814 133.4C29.9414 133.513 29.8714 133.69 29.8714 133.93V134.08H31.1114V135.39H29.8714V139H28.0914ZM33.5348 139.11C32.8948 139.11 32.4215 138.937 32.1148 138.59C31.8148 138.237 31.6648 137.7 31.6648 136.98V134.08H33.4448V137.03C33.4448 137.51 33.6515 137.75 34.0648 137.75C34.3048 137.75 34.5015 137.663 34.6548 137.49C34.8081 137.317 34.8848 137.087 34.8848 136.8V134.08H36.6648V139H34.9248V138.39C34.6048 138.87 34.1415 139.11 33.5348 139.11ZM40.3807 139.11C39.7807 139.11 39.2607 139.007 38.8207 138.8C38.3873 138.587 38.054 138.287 37.8207 137.9C37.5873 137.513 37.4707 137.057 37.4707 136.53C37.4707 136.03 37.5807 135.587 37.8007 135.2C38.0273 134.813 38.334 134.513 38.7207 134.3C39.114 134.08 39.5607 133.97 40.0607 133.97C40.554 133.97 40.9807 134.073 41.3407 134.28C41.7073 134.487 41.9873 134.783 42.1807 135.17C42.3807 135.55 42.4807 135.997 42.4807 136.51V136.9H39.1707C39.2307 137.22 39.364 137.45 39.5707 137.59C39.7773 137.73 40.064 137.8 40.4307 137.8C40.684 137.8 40.9473 137.763 41.2207 137.69C41.5007 137.61 41.7473 137.497 41.9607 137.35L42.4007 138.52C42.1473 138.7 41.8373 138.843 41.4707 138.95C41.104 139.057 40.7407 139.11 40.3807 139.11ZM40.1407 135.12C39.874 135.12 39.654 135.2 39.4807 135.36C39.314 135.52 39.2073 135.753 39.1607 136.06H41.0207C41.0007 135.747 40.914 135.513 40.7607 135.36C40.614 135.2 40.4073 135.12 40.1407 135.12ZM43.2475 139V134.08H44.9775V134.91C45.2042 134.343 45.6942 134.033 46.4475 133.98L46.9375 133.94L47.0375 135.44L46.0675 135.53C45.7142 135.563 45.4575 135.663 45.2975 135.83C45.1375 135.99 45.0575 136.23 45.0575 136.55V139H43.2475ZM47.5616 139V137.86L49.7516 135.39H47.5616V134.08H51.6816V135.21L49.4916 137.69H51.7916V139H47.5616ZM54.927 139.11C54.3803 139.11 53.9037 139.007 53.497 138.8C53.0903 138.593 52.7737 138.297 52.547 137.91C52.3203 137.523 52.207 137.067 52.207 136.54C52.207 136.007 52.3203 135.55 52.547 135.17C52.7737 134.783 53.0903 134.487 53.497 134.28C53.9037 134.073 54.3803 133.97 54.927 133.97C55.4737 133.97 55.9503 134.073 56.357 134.28C56.7637 134.487 57.077 134.783 57.297 135.17C57.5237 135.55 57.637 136.007 57.637 136.54C57.637 137.067 57.5237 137.523 57.297 137.91C57.077 138.297 56.7637 138.593 56.357 138.8C55.9503 139.007 55.4737 139.11 54.927 139.11ZM54.927 137.8C55.1937 137.8 55.4137 137.7 55.587 137.5C55.7603 137.3 55.847 136.98 55.847 136.54C55.847 136.093 55.7603 135.773 55.587 135.58C55.4137 135.38 55.1937 135.28 54.927 135.28C54.6537 135.28 54.4303 135.38 54.257 135.58C54.0837 135.773 53.997 136.093 53.997 136.54C53.997 136.98 54.0837 137.3 54.257 137.5C54.4303 137.7 54.6537 137.8 54.927 137.8Z" fill="#363636"/>
<path d="M167.034 139.11C166.481 139.11 165.951 139.043 165.444 138.91C164.938 138.77 164.521 138.587 164.194 138.36L164.704 136.93C165.011 137.137 165.371 137.3 165.784 137.42C166.198 137.54 166.614 137.6 167.034 137.6C167.474 137.6 167.781 137.543 167.954 137.43C168.134 137.31 168.224 137.163 168.224 136.99C168.224 136.837 168.161 136.713 168.034 136.62C167.914 136.527 167.698 136.447 167.384 136.38L166.214 136.13C164.948 135.857 164.314 135.193 164.314 134.14C164.314 133.68 164.438 133.277 164.684 132.93C164.938 132.583 165.288 132.317 165.734 132.13C166.181 131.937 166.701 131.84 167.294 131.84C167.781 131.84 168.241 131.91 168.674 132.05C169.114 132.183 169.471 132.367 169.744 132.6L169.234 133.94C168.981 133.753 168.688 133.61 168.354 133.51C168.021 133.403 167.661 133.35 167.274 133.35C166.901 133.35 166.614 133.417 166.414 133.55C166.214 133.677 166.114 133.843 166.114 134.05C166.114 134.197 166.174 134.317 166.294 134.41C166.414 134.503 166.628 134.583 166.934 134.65L168.094 134.9C169.381 135.173 170.024 135.82 170.024 136.84C170.024 137.3 169.901 137.7 169.654 138.04C169.408 138.38 169.061 138.643 168.614 138.83C168.168 139.017 167.641 139.11 167.034 139.11ZM172.648 139.11C172.008 139.11 171.535 138.937 171.228 138.59C170.928 138.237 170.778 137.7 170.778 136.98V134.08H172.558V137.03C172.558 137.51 172.765 137.75 173.178 137.75C173.418 137.75 173.615 137.663 173.768 137.49C173.921 137.317 173.998 137.087 173.998 136.8V134.08H175.778V139H174.038V138.39C173.718 138.87 173.255 139.11 172.648 139.11ZM179.494 139.11C178.894 139.11 178.374 139.007 177.934 138.8C177.501 138.587 177.167 138.287 176.934 137.9C176.701 137.513 176.584 137.057 176.584 136.53C176.584 136.03 176.694 135.587 176.914 135.2C177.141 134.813 177.447 134.513 177.834 134.3C178.227 134.08 178.674 133.97 179.174 133.97C179.667 133.97 180.094 134.073 180.454 134.28C180.821 134.487 181.101 134.783 181.294 135.17C181.494 135.55 181.594 135.997 181.594 136.51V136.9H178.284C178.344 137.22 178.477 137.45 178.684 137.59C178.891 137.73 179.177 137.8 179.544 137.8C179.797 137.8 180.061 137.763 180.334 137.69C180.614 137.61 180.861 137.497 181.074 137.35L181.514 138.52C181.261 138.7 180.951 138.843 180.584 138.95C180.217 139.057 179.854 139.11 179.494 139.11ZM179.254 135.12C178.987 135.12 178.767 135.2 178.594 135.36C178.427 135.52 178.321 135.753 178.274 136.06H180.134C180.114 135.747 180.027 135.513 179.874 135.36C179.727 135.2 179.521 135.12 179.254 135.12ZM182.361 139V134.08H184.091V134.91C184.317 134.343 184.807 134.033 185.561 133.98L186.051 133.94L186.151 135.44L185.181 135.53C184.827 135.563 184.571 135.663 184.411 135.83C184.251 135.99 184.171 136.23 184.171 136.55V139H182.361ZM189.57 139.11C188.823 139.11 188.27 138.937 187.91 138.59C187.55 138.243 187.37 137.72 187.37 137.02V135.39H186.45V134.08H187.37V132.65H189.15V134.08H190.55V135.39H189.15V136.96C189.15 137.44 189.393 137.68 189.88 137.68C189.96 137.68 190.046 137.673 190.14 137.66C190.24 137.64 190.35 137.613 190.47 137.58L190.71 138.86C190.556 138.94 190.376 139 190.17 139.04C189.963 139.087 189.763 139.11 189.57 139.11ZM193.879 139.11C193.279 139.11 192.759 139.007 192.319 138.8C191.885 138.587 191.552 138.287 191.319 137.9C191.085 137.513 190.969 137.057 190.969 136.53C190.969 136.03 191.079 135.587 191.299 135.2C191.525 134.813 191.832 134.513 192.219 134.3C192.612 134.08 193.059 133.97 193.559 133.97C194.052 133.97 194.479 134.073 194.839 134.28C195.205 134.487 195.485 134.783 195.679 135.17C195.879 135.55 195.979 135.997 195.979 136.51V136.9H192.669C192.729 137.22 192.862 137.45 193.069 137.59C193.275 137.73 193.562 137.8 193.929 137.8C194.182 137.8 194.445 137.763 194.719 137.69C194.999 137.61 195.245 137.497 195.459 137.35L195.899 138.52C195.645 138.7 195.335 138.843 194.969 138.95C194.602 139.057 194.239 139.11 193.879 139.11ZM193.639 135.12C193.372 135.12 193.152 135.2 192.979 135.36C192.812 135.52 192.705 135.753 192.659 136.06H194.519C194.499 135.747 194.412 135.513 194.259 135.36C194.112 135.2 193.905 135.12 193.639 135.12Z" fill="#363636"/>
<rect x="55" y="21" width="3" height="88" rx="1.5" fill="#8446FF"/>
<rect x="201" y="98" width="3" height="11" rx="1.5" fill="#8446FF"/>
<rect x="66" width="3" height="109" rx="1.5" fill="#8446FF"/>
<rect x="212" y="98" width="3" height="11" rx="1.5" fill="#8446FF"/>
<rect x="44" y="42" width="3" height="67" rx="1.5" fill="#8446FF"/>
<rect x="190" y="98" width="3" height="11" rx="1.5" fill="#8446FF"/>
<rect x="33" y="61" width="3" height="48" rx="1.5" fill="#8446FF"/>
<rect x="179" width="3" height="109" rx="1.5" fill="#8446FF"/>
<rect x="22" y="77" width="3" height="32" rx="1.5" fill="#8446FF"/>
<rect x="168" y="98" width="3" height="11" rx="1.5" fill="#8446FF"/>
<rect x="11" y="89" width="3" height="20" rx="1.5" fill="#8446FF"/>
<rect x="157" y="98" width="3" height="11" rx="1.5" fill="#8446FF"/>
<rect y="98" width="3" height="11" rx="1.5" fill="#8446FF"/>
<rect x="146" y="98" width="3" height="11" rx="1.5" fill="#8446FF"/>
</svg>
