<svg width="319" height="267" viewBox="0 0 319 267" fill="none" xmlns="http://www.w3.org/2000/svg">
<path d="M11.4866 88.11C10.9332 88.11 10.4032 88.0433 9.89656 87.91C9.3899 87.77 8.97323 87.5867 8.64656 87.36L9.15656 85.93C9.46323 86.1367 9.82323 86.3 10.2366 86.42C10.6499 86.54 11.0666 86.6 11.4866 86.6C11.9266 86.6 12.2332 86.5433 12.4066 86.43C12.5866 86.31 12.6766 86.1633 12.6766 85.99C12.6766 85.8367 12.6132 85.7133 12.4866 85.62C12.3666 85.5267 12.1499 85.4467 11.8366 85.38L10.6666 85.13C9.3999 84.8567 8.76656 84.1933 8.76656 83.14C8.76656 82.68 8.8899 82.2767 9.13656 81.93C9.3899 81.5833 9.7399 81.3167 10.1866 81.13C10.6332 80.9367 11.1532 80.84 11.7466 80.84C12.2332 80.84 12.6932 80.91 13.1266 81.05C13.5666 81.1833 13.9232 81.3667 14.1966 81.6L13.6866 82.94C13.4332 82.7533 13.1399 82.61 12.8066 82.51C12.4732 82.4033 12.1132 82.35 11.7266 82.35C11.3532 82.35 11.0666 82.4167 10.8666 82.55C10.6666 82.6767 10.5666 82.8433 10.5666 83.05C10.5666 83.1967 10.6266 83.3167 10.7466 83.41C10.8666 83.5033 11.0799 83.5833 11.3866 83.65L12.5466 83.9C13.8332 84.1733 14.4766 84.82 14.4766 85.84C14.4766 86.3 14.3532 86.7 14.1066 87.04C13.8599 87.38 13.5132 87.6433 13.0666 87.83C12.6199 88.0167 12.0932 88.11 11.4866 88.11ZM17.9402 88.11C17.3402 88.11 16.8202 88.0067 16.3802 87.8C15.9469 87.5867 15.6136 87.2867 15.3802 86.9C15.1469 86.5133 15.0302 86.0567 15.0302 85.53C15.0302 85.03 15.1402 84.5867 15.3602 84.2C15.5869 83.8133 15.8936 83.5133 16.2802 83.3C16.6736 83.08 17.1202 82.97 17.6202 82.97C18.1136 82.97 18.5402 83.0733 18.9002 83.28C19.2669 83.4867 19.5469 83.7833 19.7402 84.17C19.9402 84.55 20.0402 84.9967 20.0402 85.51V85.9H16.7302C16.7902 86.22 16.9236 86.45 17.1302 86.59C17.3369 86.73 17.6236 86.8 17.9902 86.8C18.2436 86.8 18.5069 86.7633 18.7802 86.69C19.0602 86.61 19.3069 86.4967 19.5202 86.35L19.9602 87.52C19.7069 87.7 19.3969 87.8433 19.0302 87.95C18.6636 88.0567 18.3002 88.11 17.9402 88.11ZM17.7002 84.12C17.4336 84.12 17.2136 84.2 17.0402 84.36C16.8736 84.52 16.7669 84.7533 16.7202 85.06H18.5802C18.5602 84.7467 18.4736 84.5133 18.3202 84.36C18.1736 84.2 17.9669 84.12 17.7002 84.12ZM24.0884 88V84.39H23.1584V83.08H24.0884C24.1218 82.3867 24.3451 81.8667 24.7584 81.52C25.1718 81.1667 25.7984 80.9667 26.6384 80.92L27.2384 80.89L27.3384 82.16L26.8784 82.19C26.4918 82.2167 26.2251 82.2867 26.0784 82.4C25.9384 82.5133 25.8684 82.69 25.8684 82.93V83.08H27.1084V84.39H25.8684V88H24.0884ZM30.2645 88.11C29.6645 88.11 29.1445 88.0067 28.7045 87.8C28.2711 87.5867 27.9378 87.2867 27.7045 86.9C27.4711 86.5133 27.3545 86.0567 27.3545 85.53C27.3545 85.03 27.4645 84.5867 27.6845 84.2C27.9111 83.8133 28.2178 83.5133 28.6045 83.3C28.9978 83.08 29.4445 82.97 29.9445 82.97C30.4378 82.97 30.8645 83.0733 31.2245 83.28C31.5911 83.4867 31.8711 83.7833 32.0645 84.17C32.2645 84.55 32.3645 84.9967 32.3645 85.51V85.9H29.0545C29.1145 86.22 29.2478 86.45 29.4545 86.59C29.6611 86.73 29.9478 86.8 30.3145 86.8C30.5678 86.8 30.8311 86.7633 31.1045 86.69C31.3845 86.61 31.6311 86.4967 31.8445 86.35L32.2845 87.52C32.0311 87.7 31.7211 87.8433 31.3545 87.95C30.9878 88.0567 30.6245 88.11 30.2645 88.11ZM30.0245 84.12C29.7578 84.12 29.5378 84.2 29.3645 84.36C29.1978 84.52 29.0911 84.7533 29.0445 85.06H30.9045C30.8845 84.7467 30.7978 84.5133 30.6445 84.36C30.4978 84.2 30.2911 84.12 30.0245 84.12ZM35.0713 88.11C34.3913 88.11 33.898 87.94 33.5913 87.6C33.2847 87.2533 33.1313 86.7333 33.1313 86.04V80.95H34.9113V85.98C34.9113 86.4467 35.1247 86.68 35.5513 86.68C35.618 86.68 35.6847 86.6767 35.7513 86.67C35.8247 86.6633 35.8947 86.6533 35.9613 86.64L35.9413 88C35.6747 88.0733 35.3847 88.11 35.0713 88.11ZM36.5579 82.23V80.62H38.4279V82.23H36.5579ZM36.6079 88V83.08H38.3879V88H36.6079ZM39.3204 88V86.86L41.5104 84.39H39.3204V83.08H43.4404V84.21L41.2504 86.69H43.5504V88H39.3204ZM4.15695 100.11C3.60362 100.11 3.12029 100.007 2.70695 99.8C2.30029 99.5933 1.98362 99.2967 1.75695 98.91C1.53029 98.5233 1.41695 98.0633 1.41695 97.53C1.41695 96.9967 1.53029 96.54 1.75695 96.16C1.98362 95.7733 2.30029 95.48 2.70695 95.28C3.12029 95.0733 3.60362 94.97 4.15695 94.97C4.48362 94.97 4.80695 95.0167 5.12695 95.11C5.45362 95.1967 5.72029 95.32 5.92695 95.48L5.45695 96.7C5.30362 96.58 5.12362 96.4867 4.91695 96.42C4.71695 96.3467 4.52695 96.31 4.34695 96.31C3.99362 96.31 3.72029 96.4167 3.52695 96.63C3.33362 96.8433 3.23695 97.1433 3.23695 97.53C3.23695 97.9233 3.33362 98.23 3.52695 98.45C3.72029 98.6633 3.99362 98.77 4.34695 98.77C4.52695 98.77 4.71695 98.7367 4.91695 98.67C5.12362 98.5967 5.30362 98.5 5.45695 98.38L5.92695 99.6C5.72029 99.76 5.45362 99.8867 5.12695 99.98C4.80029 100.067 4.47695 100.11 4.15695 100.11ZM8.88305 100.11C8.33638 100.11 7.85971 100.007 7.45305 99.8C7.04638 99.5933 6.72971 99.2967 6.50305 98.91C6.27638 98.5233 6.16305 98.0667 6.16305 97.54C6.16305 97.0067 6.27638 96.55 6.50305 96.17C6.72971 95.7833 7.04638 95.4867 7.45305 95.28C7.85971 95.0733 8.33638 94.97 8.88305 94.97C9.42971 94.97 9.90638 95.0733 10.313 95.28C10.7197 95.4867 11.033 95.7833 11.253 96.17C11.4797 96.55 11.593 97.0067 11.593 97.54C11.593 98.0667 11.4797 98.5233 11.253 98.91C11.033 99.2967 10.7197 99.5933 10.313 99.8C9.90638 100.007 9.42971 100.11 8.88305 100.11ZM8.88305 98.8C9.14971 98.8 9.36971 98.7 9.54305 98.5C9.71638 98.3 9.80305 97.98 9.80305 97.54C9.80305 97.0933 9.71638 96.7733 9.54305 96.58C9.36971 96.38 9.14971 96.28 8.88305 96.28C8.60971 96.28 8.38638 96.38 8.21305 96.58C8.03971 96.7733 7.95305 97.0933 7.95305 97.54C7.95305 97.98 8.03971 98.3 8.21305 98.5C8.38638 98.7 8.60971 98.8 8.88305 98.8ZM12.4087 100V95.08H14.1387V95.75C14.312 95.4967 14.5353 95.3033 14.8087 95.17C15.082 95.0367 15.3887 94.97 15.7287 94.97C16.3153 94.97 16.7487 95.1433 17.0287 95.49C17.3153 95.8367 17.4587 96.37 17.4587 97.09V100H15.6787V97.16C15.6787 96.86 15.6253 96.6467 15.5187 96.52C15.4187 96.3933 15.2687 96.33 15.0687 96.33C14.802 96.33 14.5887 96.4167 14.4287 96.59C14.2687 96.7567 14.1887 96.9833 14.1887 97.27V100H12.4087ZM23.2745 100.11C22.5945 100.11 22.1011 99.94 21.7945 99.6C21.4878 99.2533 21.3345 98.7333 21.3345 98.04V92.95H23.1145V97.98C23.1145 98.4467 23.3278 98.68 23.7545 98.68C23.8211 98.68 23.8878 98.6767 23.9545 98.67C24.0278 98.6633 24.0978 98.6533 24.1645 98.64L24.1445 100C23.8778 100.073 23.5878 100.11 23.2745 100.11ZM27.2522 100.11C26.7055 100.11 26.2289 100.007 25.8222 99.8C25.4155 99.5933 25.0989 99.2967 24.8722 98.91C24.6455 98.5233 24.5322 98.0667 24.5322 97.54C24.5322 97.0067 24.6455 96.55 24.8722 96.17C25.0989 95.7833 25.4155 95.4867 25.8222 95.28C26.2289 95.0733 26.7055 94.97 27.2522 94.97C27.7989 94.97 28.2755 95.0733 28.6822 95.28C29.0889 95.4867 29.4022 95.7833 29.6222 96.17C29.8489 96.55 29.9622 97.0067 29.9622 97.54C29.9622 98.0667 29.8489 98.5233 29.6222 98.91C29.4022 99.2967 29.0889 99.5933 28.6822 99.8C28.2755 100.007 27.7989 100.11 27.2522 100.11ZM27.2522 98.8C27.5189 98.8 27.7389 98.7 27.9122 98.5C28.0855 98.3 28.1722 97.98 28.1722 97.54C28.1722 97.0933 28.0855 96.7733 27.9122 96.58C27.7389 96.38 27.5189 96.28 27.2522 96.28C26.9789 96.28 26.7555 96.38 26.5822 96.58C26.4089 96.7733 26.3222 97.0933 26.3222 97.54C26.3222 97.98 26.4089 98.3 26.5822 98.5C26.7555 98.7 26.9789 98.8 27.2522 98.8ZM37.0291 101.8V99.4C36.8891 99.6133 36.6858 99.7867 36.4191 99.92C36.1591 100.047 35.8725 100.11 35.5591 100.11C35.1391 100.11 34.7658 100.007 34.4391 99.8C34.1191 99.5933 33.8658 99.2967 33.6791 98.91C33.4991 98.5233 33.4091 98.0667 33.4091 97.54C33.4091 97.0067 33.4991 96.55 33.6791 96.17C33.8658 95.7833 34.1191 95.4867 34.4391 95.28C34.7658 95.0733 35.1391 94.97 35.5591 94.97C35.8925 94.97 36.1958 95.0433 36.4691 95.19C36.7425 95.33 36.9425 95.52 37.0691 95.76V95.08H38.8091V101.8H37.0291ZM36.1291 98.8C36.3958 98.8 36.6158 98.7 36.7891 98.5C36.9625 98.3 37.0491 97.98 37.0491 97.54C37.0491 97.0933 36.9625 96.7733 36.7891 96.58C36.6158 96.38 36.3958 96.28 36.1291 96.28C35.8558 96.28 35.6325 96.38 35.4591 96.58C35.2858 96.7733 35.1991 97.0933 35.1991 97.54C35.1991 97.98 35.2858 98.3 35.4591 98.5C35.6325 98.7 35.8558 98.8 36.1291 98.8ZM41.6803 100.11C41.0403 100.11 40.567 99.9367 40.2603 99.59C39.9603 99.2367 39.8103 98.7 39.8103 97.98V95.08H41.5903V98.03C41.5903 98.51 41.797 98.75 42.2103 98.75C42.4503 98.75 42.647 98.6633 42.8003 98.49C42.9536 98.3167 43.0303 98.0867 43.0303 97.8V95.08H44.8103V100H43.0703V99.39C42.7503 99.87 42.287 100.11 41.6803 100.11ZM48.5262 100.11C47.9262 100.11 47.4062 100.007 46.9662 99.8C46.5328 99.5867 46.1995 99.2867 45.9662 98.9C45.7328 98.5133 45.6162 98.0567 45.6162 97.53C45.6162 97.03 45.7262 96.5867 45.9462 96.2C46.1728 95.8133 46.4795 95.5133 46.8662 95.3C47.2595 95.08 47.7062 94.97 48.2062 94.97C48.6995 94.97 49.1262 95.0733 49.4862 95.28C49.8528 95.4867 50.1328 95.7833 50.3262 96.17C50.5262 96.55 50.6262 96.9967 50.6262 97.51V97.9H47.3162C47.3762 98.22 47.5095 98.45 47.7162 98.59C47.9228 98.73 48.2095 98.8 48.5762 98.8C48.8295 98.8 49.0928 98.7633 49.3662 98.69C49.6462 98.61 49.8928 98.4967 50.1062 98.35L50.5462 99.52C50.2928 99.7 49.9828 99.8433 49.6162 99.95C49.2495 100.057 48.8862 100.11 48.5262 100.11ZM48.2862 96.12C48.0195 96.12 47.7995 96.2 47.6262 96.36C47.4595 96.52 47.3528 96.7533 47.3062 97.06H49.1662C49.1462 96.7467 49.0595 96.5133 48.9062 96.36C48.7595 96.2 48.5528 96.12 48.2862 96.12ZM14.5053 113.11C13.7586 113.11 13.2053 112.937 12.8453 112.59C12.4853 112.243 12.3053 111.72 12.3053 111.02V109.39H11.3853V108.08H12.3053V106.65H14.0853V108.08H15.4853V109.39H14.0853V110.96C14.0853 111.44 14.3286 111.68 14.8153 111.68C14.8953 111.68 14.9819 111.673 15.0753 111.66C15.1753 111.64 15.2853 111.613 15.4053 111.58L15.6453 112.86C15.4919 112.94 15.3119 113 15.1053 113.04C14.8986 113.087 14.6986 113.11 14.5053 113.11ZM16.1331 107.23V105.62H18.0031V107.23H16.1331ZM16.1831 113V108.08H17.9631V113H16.1831ZM21.6756 113.11C21.0756 113.11 20.5556 113.007 20.1156 112.8C19.6823 112.587 19.3489 112.287 19.1156 111.9C18.8823 111.513 18.7656 111.057 18.7656 110.53C18.7656 110.03 18.8756 109.587 19.0956 109.2C19.3223 108.813 19.6289 108.513 20.0156 108.3C20.4089 108.08 20.8556 107.97 21.3556 107.97C21.8489 107.97 22.2756 108.073 22.6356 108.28C23.0023 108.487 23.2823 108.783 23.4756 109.17C23.6756 109.55 23.7756 109.997 23.7756 110.51V110.9H20.4656C20.5256 111.22 20.6589 111.45 20.8656 111.59C21.0723 111.73 21.3589 111.8 21.7256 111.8C21.9789 111.8 22.2423 111.763 22.5156 111.69C22.7956 111.61 23.0423 111.497 23.2556 111.35L23.6956 112.52C23.4423 112.7 23.1323 112.843 22.7656 112.95C22.3989 113.057 22.0356 113.11 21.6756 113.11ZM21.4356 109.12C21.1689 109.12 20.9489 109.2 20.7756 109.36C20.6089 109.52 20.5023 109.753 20.4556 110.06H22.3156C22.2956 109.747 22.2089 109.513 22.0556 109.36C21.9089 109.2 21.7023 109.12 21.4356 109.12ZM24.5425 113V108.08H26.2725V108.75C26.4458 108.497 26.6691 108.303 26.9425 108.17C27.2158 108.037 27.5225 107.97 27.8625 107.97C28.4491 107.97 28.8825 108.143 29.1625 108.49C29.4491 108.837 29.5925 109.37 29.5925 110.09V113H27.8125V110.16C27.8125 109.86 27.7591 109.647 27.6525 109.52C27.5525 109.393 27.4025 109.33 27.2025 109.33C26.9358 109.33 26.7225 109.417 26.5625 109.59C26.4025 109.757 26.3225 109.983 26.3225 110.27V113H24.5425ZM33.2869 113.11C32.6869 113.11 32.1669 113.007 31.7269 112.8C31.2936 112.587 30.9602 112.287 30.7269 111.9C30.4936 111.513 30.3769 111.057 30.3769 110.53C30.3769 110.03 30.4869 109.587 30.7069 109.2C30.9336 108.813 31.2402 108.513 31.6269 108.3C32.0202 108.08 32.4669 107.97 32.9669 107.97C33.4602 107.97 33.8869 108.073 34.2469 108.28C34.6136 108.487 34.8936 108.783 35.0869 109.17C35.2869 109.55 35.3869 109.997 35.3869 110.51V110.9H32.0769C32.1369 111.22 32.2702 111.45 32.4769 111.59C32.6836 111.73 32.9702 111.8 33.3369 111.8C33.5902 111.8 33.8536 111.763 34.1269 111.69C34.4069 111.61 34.6536 111.497 34.8669 111.35L35.3069 112.52C35.0536 112.7 34.7436 112.843 34.3769 112.95C34.0102 113.057 33.6469 113.11 33.2869 113.11ZM33.0469 109.12C32.7802 109.12 32.5602 109.2 32.3869 109.36C32.2202 109.52 32.1136 109.753 32.0669 110.06H33.9269C33.9069 109.747 33.8202 109.513 33.6669 109.36C33.5202 109.2 33.3136 109.12 33.0469 109.12ZM38.1138 113.11C37.6605 113.11 37.2405 113.063 36.8538 112.97C36.4738 112.877 36.1505 112.747 35.8838 112.58L36.2938 111.43C36.5405 111.57 36.8271 111.687 37.1538 111.78C37.4805 111.867 37.8038 111.91 38.1238 111.91C38.3705 111.91 38.5471 111.877 38.6538 111.81C38.7605 111.737 38.8138 111.643 38.8138 111.53C38.8138 111.43 38.7771 111.357 38.7038 111.31C38.6371 111.257 38.5405 111.217 38.4138 111.19L37.3038 111.01C36.8905 110.943 36.5705 110.793 36.3438 110.56C36.1171 110.327 36.0038 110.023 36.0038 109.65C36.0038 109.303 36.1005 109.007 36.2938 108.76C36.4871 108.507 36.7571 108.313 37.1038 108.18C37.4505 108.04 37.8471 107.97 38.2938 107.97C38.6471 107.97 38.9971 108.013 39.3438 108.1C39.6905 108.18 39.9938 108.313 40.2538 108.5L39.8138 109.63C39.6205 109.497 39.3805 109.387 39.0938 109.3C38.8071 109.207 38.5505 109.16 38.3238 109.16C38.0505 109.16 37.8571 109.2 37.7438 109.28C37.6305 109.353 37.5738 109.443 37.5738 109.55C37.5738 109.73 37.6971 109.84 37.9438 109.88L39.0538 110.07C39.4805 110.137 39.8071 110.283 40.0338 110.51C40.2671 110.73 40.3838 111.03 40.3838 111.41C40.3838 111.95 40.1771 112.37 39.7638 112.67C39.3505 112.963 38.8005 113.11 38.1138 113.11Z" fill="#363636"/>
<path d="M272.434 82V74.95H273.964L276.214 78.99L278.464 74.95H279.954V82H278.294V78.17L276.684 80.96H275.684L274.094 78.21V82H272.434ZM281.082 76.23V74.62H282.952V76.23H281.082ZM281.132 82V77.08H282.912V82H281.132ZM286.625 82.11C286.025 82.11 285.505 82.0067 285.065 81.8C284.631 81.5867 284.298 81.2867 284.065 80.9C283.831 80.5133 283.715 80.0567 283.715 79.53C283.715 79.03 283.825 78.5867 284.045 78.2C284.271 77.8133 284.578 77.5133 284.965 77.3C285.358 77.08 285.805 76.97 286.305 76.97C286.798 76.97 287.225 77.0733 287.585 77.28C287.951 77.4867 288.231 77.7833 288.425 78.17C288.625 78.55 288.725 78.9967 288.725 79.51V79.9H285.415C285.475 80.22 285.608 80.45 285.815 80.59C286.021 80.73 286.308 80.8 286.675 80.8C286.928 80.8 287.191 80.7633 287.465 80.69C287.745 80.61 287.991 80.4967 288.205 80.35L288.645 81.52C288.391 81.7 288.081 81.8433 287.715 81.95C287.348 82.0567 286.985 82.11 286.625 82.11ZM286.385 78.12C286.118 78.12 285.898 78.2 285.725 78.36C285.558 78.52 285.451 78.7533 285.405 79.06H287.265C287.245 78.7467 287.158 78.5133 287.005 78.36C286.858 78.2 286.651 78.12 286.385 78.12ZM289.492 82V77.08H291.222V77.75C291.395 77.4967 291.618 77.3033 291.892 77.17C292.165 77.0367 292.472 76.97 292.812 76.97C293.398 76.97 293.832 77.1433 294.112 77.49C294.398 77.8367 294.542 78.37 294.542 79.09V82H292.762V79.16C292.762 78.86 292.708 78.6467 292.602 78.52C292.502 78.3933 292.352 78.33 292.152 78.33C291.885 78.33 291.672 78.4167 291.512 78.59C291.352 78.7567 291.272 78.9833 291.272 79.27V82H289.492ZM298.136 82.11C297.389 82.11 296.836 81.9367 296.476 81.59C296.116 81.2433 295.936 80.72 295.936 80.02V78.39H295.016V77.08H295.936V75.65H297.716V77.08H299.116V78.39H297.716V79.96C297.716 80.44 297.959 80.68 298.446 80.68C298.526 80.68 298.613 80.6733 298.706 80.66C298.806 80.64 298.916 80.6133 299.036 80.58L299.276 81.86C299.123 81.94 298.943 82 298.736 82.04C298.529 82.0867 298.329 82.11 298.136 82.11ZM299.814 82V77.08H301.544V77.91C301.771 77.3433 302.261 77.0333 303.014 76.98L303.504 76.94L303.604 78.44L302.634 78.53C302.281 78.5633 302.024 78.6633 301.864 78.83C301.704 78.99 301.624 79.23 301.624 79.55V82H299.814ZM305.811 82.11C305.431 82.11 305.094 82.04 304.801 81.9C304.514 81.76 304.288 81.57 304.121 81.33C303.961 81.0833 303.881 80.8033 303.881 80.49C303.881 80.1367 303.974 79.8567 304.161 79.65C304.348 79.4367 304.648 79.2867 305.061 79.2C305.474 79.1067 306.024 79.06 306.711 79.06H307.091V78.92C307.091 78.68 307.028 78.51 306.901 78.41C306.781 78.31 306.571 78.26 306.271 78.26C306.018 78.26 305.738 78.3 305.431 78.38C305.124 78.46 304.824 78.5833 304.531 78.75L304.081 77.58C304.248 77.46 304.461 77.3533 304.721 77.26C304.981 77.1667 305.254 77.0967 305.541 77.05C305.828 76.9967 306.098 76.97 306.351 76.97C307.171 76.97 307.778 77.1467 308.171 77.5C308.571 77.8533 308.771 78.41 308.771 79.17V82H307.111V81.3C307.024 81.5533 306.868 81.7533 306.641 81.9C306.414 82.04 306.138 82.11 305.811 82.11ZM306.211 80.95C306.458 80.95 306.664 80.87 306.831 80.71C307.004 80.55 307.091 80.34 307.091 80.08V79.9H306.711C306.318 79.9 306.028 79.9433 305.841 80.03C305.661 80.11 305.571 80.24 305.571 80.42C305.571 80.5733 305.624 80.7 305.731 80.8C305.844 80.9 306.004 80.95 306.211 80.95ZM311.745 82.11C311.291 82.11 310.871 82.0633 310.485 81.97C310.105 81.8767 309.781 81.7467 309.515 81.58L309.925 80.43C310.171 80.57 310.458 80.6867 310.785 80.78C311.111 80.8667 311.435 80.91 311.755 80.91C312.001 80.91 312.178 80.8767 312.285 80.81C312.391 80.7367 312.445 80.6433 312.445 80.53C312.445 80.43 312.408 80.3567 312.335 80.31C312.268 80.2567 312.171 80.2167 312.045 80.19L310.935 80.01C310.521 79.9433 310.201 79.7933 309.975 79.56C309.748 79.3267 309.635 79.0233 309.635 78.65C309.635 78.3033 309.731 78.0067 309.925 77.76C310.118 77.5067 310.388 77.3133 310.735 77.18C311.081 77.04 311.478 76.97 311.925 76.97C312.278 76.97 312.628 77.0133 312.975 77.1C313.321 77.18 313.625 77.3133 313.885 77.5L313.445 78.63C313.251 78.4967 313.011 78.3867 312.725 78.3C312.438 78.2067 312.181 78.16 311.955 78.16C311.681 78.16 311.488 78.2 311.375 78.28C311.261 78.3533 311.205 78.4433 311.205 78.55C311.205 78.73 311.328 78.84 311.575 78.88L312.685 79.07C313.111 79.1367 313.438 79.2833 313.665 79.51C313.898 79.73 314.015 80.03 314.015 80.41C314.015 80.95 313.808 81.37 313.395 81.67C312.981 81.9633 312.431 82.11 311.745 82.11ZM276.286 94.11C275.539 94.11 274.986 93.9367 274.626 93.59C274.266 93.2433 274.086 92.72 274.086 92.02V90.39H273.166V89.08H274.086V87.65H275.866V89.08H277.266V90.39H275.866V91.96C275.866 92.44 276.109 92.68 276.596 92.68C276.676 92.68 276.762 92.6733 276.856 92.66C276.956 92.64 277.066 92.6133 277.186 92.58L277.426 93.86C277.272 93.94 277.092 94 276.886 94.04C276.679 94.0867 276.479 94.11 276.286 94.11ZM277.963 94V89.08H279.693V89.91C279.92 89.3433 280.41 89.0333 281.163 88.98L281.653 88.94L281.753 90.44L280.783 90.53C280.43 90.5633 280.173 90.6633 280.013 90.83C279.853 90.99 279.773 91.23 279.773 91.55V94H277.963ZM283.96 94.11C283.58 94.11 283.244 94.04 282.95 93.9C282.664 93.76 282.437 93.57 282.27 93.33C282.11 93.0833 282.03 92.8033 282.03 92.49C282.03 92.1367 282.124 91.8567 282.31 91.65C282.497 91.4367 282.797 91.2867 283.21 91.2C283.624 91.1067 284.174 91.06 284.86 91.06H285.24V90.92C285.24 90.68 285.177 90.51 285.05 90.41C284.93 90.31 284.72 90.26 284.42 90.26C284.167 90.26 283.887 90.3 283.58 90.38C283.274 90.46 282.974 90.5833 282.68 90.75L282.23 89.58C282.397 89.46 282.61 89.3533 282.87 89.26C283.13 89.1667 283.404 89.0967 283.69 89.05C283.977 88.9967 284.247 88.97 284.5 88.97C285.32 88.97 285.927 89.1467 286.32 89.5C286.72 89.8533 286.92 90.41 286.92 91.17V94H285.26V93.3C285.174 93.5533 285.017 93.7533 284.79 93.9C284.564 94.04 284.287 94.11 283.96 94.11ZM284.36 92.95C284.607 92.95 284.814 92.87 284.98 92.71C285.154 92.55 285.24 92.34 285.24 92.08V91.9H284.86C284.467 91.9 284.177 91.9433 283.99 92.03C283.81 92.11 283.72 92.24 283.72 92.42C283.72 92.5733 283.774 92.7 283.88 92.8C283.994 92.9 284.154 92.95 284.36 92.95ZM291.174 94.11C290.847 94.11 290.547 94.04 290.274 93.9C290.001 93.7533 289.797 93.5633 289.664 93.33V94H287.934V86.95H289.714V89.67C289.854 89.4567 290.054 89.2867 290.314 89.16C290.581 89.0333 290.867 88.97 291.174 88.97C291.601 88.97 291.974 89.0733 292.294 89.28C292.621 89.4867 292.874 89.7833 293.054 90.17C293.234 90.55 293.324 91.0067 293.324 91.54C293.324 92.0667 293.231 92.5233 293.044 92.91C292.864 93.2967 292.611 93.5933 292.284 93.8C291.964 94.0067 291.594 94.11 291.174 94.11ZM290.614 92.8C290.881 92.8 291.101 92.7 291.274 92.5C291.447 92.3 291.534 91.98 291.534 91.54C291.534 91.0933 291.447 90.7733 291.274 90.58C291.101 90.38 290.881 90.28 290.614 90.28C290.341 90.28 290.117 90.38 289.944 90.58C289.771 90.7733 289.684 91.0933 289.684 91.54C289.684 91.98 289.771 92.3 289.944 92.5C290.117 92.7 290.341 92.8 290.614 92.8ZM295.845 94.11C295.465 94.11 295.129 94.04 294.835 93.9C294.549 93.76 294.322 93.57 294.155 93.33C293.995 93.0833 293.915 92.8033 293.915 92.49C293.915 92.1367 294.009 91.8567 294.195 91.65C294.382 91.4367 294.682 91.2867 295.095 91.2C295.509 91.1067 296.059 91.06 296.745 91.06H297.125V90.92C297.125 90.68 297.062 90.51 296.935 90.41C296.815 90.31 296.605 90.26 296.305 90.26C296.052 90.26 295.772 90.3 295.465 90.38C295.159 90.46 294.859 90.5833 294.565 90.75L294.115 89.58C294.282 89.46 294.495 89.3533 294.755 89.26C295.015 89.1667 295.289 89.0967 295.575 89.05C295.862 88.9967 296.132 88.97 296.385 88.97C297.205 88.97 297.812 89.1467 298.205 89.5C298.605 89.8533 298.805 90.41 298.805 91.17V94H297.145V93.3C297.059 93.5533 296.902 93.7533 296.675 93.9C296.449 94.04 296.172 94.11 295.845 94.11ZM296.245 92.95C296.492 92.95 296.699 92.87 296.865 92.71C297.039 92.55 297.125 92.34 297.125 92.08V91.9H296.745C296.352 91.9 296.062 91.9433 295.875 92.03C295.695 92.11 295.605 92.24 295.605 92.42C295.605 92.5733 295.659 92.7 295.765 92.8C295.879 92.9 296.039 92.95 296.245 92.95ZM299.809 88.23V86.62H301.689V88.23H299.809ZM298.909 95.93L298.789 94.68L299.279 94.62C299.485 94.5933 299.635 94.53 299.729 94.43C299.822 94.33 299.869 94.1767 299.869 93.97V89.08H301.649V93.72C301.649 94.2133 301.575 94.6133 301.429 94.92C301.289 95.2267 301.049 95.4567 300.709 95.61C300.375 95.7633 299.922 95.86 299.349 95.9L298.909 95.93ZM304.4 94.11C304.02 94.11 303.683 94.04 303.39 93.9C303.103 93.76 302.877 93.57 302.71 93.33C302.55 93.0833 302.47 92.8033 302.47 92.49C302.47 92.1367 302.563 91.8567 302.75 91.65C302.937 91.4367 303.237 91.2867 303.65 91.2C304.063 91.1067 304.613 91.06 305.3 91.06H305.68V90.92C305.68 90.68 305.617 90.51 305.49 90.41C305.37 90.31 305.16 90.26 304.86 90.26C304.607 90.26 304.327 90.3 304.02 90.38C303.713 90.46 303.413 90.5833 303.12 90.75L302.67 89.58C302.837 89.46 303.05 89.3533 303.31 89.26C303.57 89.1667 303.843 89.0967 304.13 89.05C304.417 88.9967 304.687 88.97 304.94 88.97C305.76 88.97 306.367 89.1467 306.76 89.5C307.16 89.8533 307.36 90.41 307.36 91.17V94H305.7V93.3C305.613 93.5533 305.457 93.7533 305.23 93.9C305.003 94.04 304.727 94.11 304.4 94.11ZM304.8 92.95C305.047 92.95 305.253 92.87 305.42 92.71C305.593 92.55 305.68 92.34 305.68 92.08V91.9H305.3C304.907 91.9 304.617 91.9433 304.43 92.03C304.25 92.11 304.16 92.24 304.16 92.42C304.16 92.5733 304.213 92.7 304.32 92.8C304.433 92.9 304.593 92.95 304.8 92.95ZM310.334 94.11C309.88 94.11 309.46 94.0633 309.074 93.97C308.694 93.8767 308.37 93.7467 308.104 93.58L308.514 92.43C308.76 92.57 309.047 92.6867 309.374 92.78C309.7 92.8667 310.024 92.91 310.344 92.91C310.59 92.91 310.767 92.8767 310.874 92.81C310.98 92.7367 311.034 92.6433 311.034 92.53C311.034 92.43 310.997 92.3567 310.924 92.31C310.857 92.2567 310.76 92.2167 310.634 92.19L309.524 92.01C309.11 91.9433 308.79 91.7933 308.564 91.56C308.337 91.3267 308.224 91.0233 308.224 90.65C308.224 90.3033 308.32 90.0067 308.514 89.76C308.707 89.5067 308.977 89.3133 309.324 89.18C309.67 89.04 310.067 88.97 310.514 88.97C310.867 88.97 311.217 89.0133 311.564 89.1C311.91 89.18 312.214 89.3133 312.474 89.5L312.034 90.63C311.84 90.4967 311.6 90.3867 311.314 90.3C311.027 90.2067 310.77 90.16 310.544 90.16C310.27 90.16 310.077 90.2 309.964 90.28C309.85 90.3533 309.794 90.4433 309.794 90.55C309.794 90.73 309.917 90.84 310.164 90.88L311.274 91.07C311.7 91.1367 312.027 91.2833 312.254 91.51C312.487 91.73 312.604 92.03 312.604 92.41C312.604 92.95 312.397 93.37 311.984 93.67C311.57 93.9633 311.02 94.11 310.334 94.11ZM268.784 108.8V102.08H270.514V102.75C270.647 102.51 270.85 102.32 271.124 102.18C271.397 102.04 271.697 101.97 272.024 101.97C272.444 101.97 272.814 102.073 273.134 102.28C273.46 102.487 273.714 102.783 273.894 103.17C274.08 103.55 274.174 104.007 274.174 104.54C274.174 105.067 274.084 105.523 273.904 105.91C273.724 106.297 273.47 106.593 273.144 106.8C272.824 107.007 272.45 107.11 272.024 107.11C271.717 107.11 271.43 107.047 271.164 106.92C270.904 106.793 270.704 106.623 270.564 106.41V108.8H268.784ZM271.464 105.8C271.73 105.8 271.95 105.7 272.124 105.5C272.297 105.3 272.384 104.98 272.384 104.54C272.384 104.093 272.297 103.773 272.124 103.58C271.95 103.38 271.73 103.28 271.464 103.28C271.19 103.28 270.967 103.38 270.794 103.58C270.62 103.773 270.534 104.093 270.534 104.54C270.534 104.98 270.62 105.3 270.794 105.5C270.967 105.7 271.19 105.8 271.464 105.8ZM277.475 107.11C276.928 107.11 276.452 107.007 276.045 106.8C275.638 106.593 275.322 106.297 275.095 105.91C274.868 105.523 274.755 105.067 274.755 104.54C274.755 104.007 274.868 103.55 275.095 103.17C275.322 102.783 275.638 102.487 276.045 102.28C276.452 102.073 276.928 101.97 277.475 101.97C278.022 101.97 278.498 102.073 278.905 102.28C279.312 102.487 279.625 102.783 279.845 103.17C280.072 103.55 280.185 104.007 280.185 104.54C280.185 105.067 280.072 105.523 279.845 105.91C279.625 106.297 279.312 106.593 278.905 106.8C278.498 107.007 278.022 107.11 277.475 107.11ZM277.475 105.8C277.742 105.8 277.962 105.7 278.135 105.5C278.308 105.3 278.395 104.98 278.395 104.54C278.395 104.093 278.308 103.773 278.135 103.58C277.962 103.38 277.742 103.28 277.475 103.28C277.202 103.28 276.978 103.38 276.805 103.58C276.632 103.773 276.545 104.093 276.545 104.54C276.545 104.98 276.632 105.3 276.805 105.5C276.978 105.7 277.202 105.8 277.475 105.8ZM281 107V102.08H282.73V102.91C282.957 102.343 283.447 102.033 284.2 101.98L284.69 101.94L284.79 103.44L283.82 103.53C283.467 103.563 283.21 103.663 283.05 103.83C282.89 103.99 282.81 104.23 282.81 104.55V107H281ZM290.138 107.11C289.458 107.11 288.964 106.94 288.658 106.6C288.351 106.253 288.198 105.733 288.198 105.04V99.95H289.978V104.98C289.978 105.447 290.191 105.68 290.618 105.68C290.684 105.68 290.751 105.677 290.818 105.67C290.891 105.663 290.961 105.653 291.028 105.64L291.008 107C290.741 107.073 290.451 107.11 290.138 107.11ZM294.115 107.11C293.569 107.11 293.092 107.007 292.685 106.8C292.279 106.593 291.962 106.297 291.735 105.91C291.509 105.523 291.395 105.067 291.395 104.54C291.395 104.007 291.509 103.55 291.735 103.17C291.962 102.783 292.279 102.487 292.685 102.28C293.092 102.073 293.569 101.97 294.115 101.97C294.662 101.97 295.139 102.073 295.545 102.28C295.952 102.487 296.265 102.783 296.485 103.17C296.712 103.55 296.825 104.007 296.825 104.54C296.825 105.067 296.712 105.523 296.485 105.91C296.265 106.297 295.952 106.593 295.545 106.8C295.139 107.007 294.662 107.11 294.115 107.11ZM294.115 105.8C294.382 105.8 294.602 105.7 294.775 105.5C294.949 105.3 295.035 104.98 295.035 104.54C295.035 104.093 294.949 103.773 294.775 103.58C294.602 103.38 294.382 103.28 294.115 103.28C293.842 103.28 293.619 103.38 293.445 103.58C293.272 103.773 293.185 104.093 293.185 104.54C293.185 104.98 293.272 105.3 293.445 105.5C293.619 105.7 293.842 105.8 294.115 105.8ZM303.892 108.8V106.4C303.752 106.613 303.549 106.787 303.282 106.92C303.022 107.047 302.736 107.11 302.422 107.11C302.002 107.11 301.629 107.007 301.302 106.8C300.982 106.593 300.729 106.297 300.542 105.91C300.362 105.523 300.272 105.067 300.272 104.54C300.272 104.007 300.362 103.55 300.542 103.17C300.729 102.783 300.982 102.487 301.302 102.28C301.629 102.073 302.002 101.97 302.422 101.97C302.756 101.97 303.059 102.043 303.332 102.19C303.606 102.33 303.806 102.52 303.932 102.76V102.08H305.672V108.8H303.892ZM302.992 105.8C303.259 105.8 303.479 105.7 303.652 105.5C303.826 105.3 303.912 104.98 303.912 104.54C303.912 104.093 303.826 103.773 303.652 103.58C303.479 103.38 303.259 103.28 302.992 103.28C302.719 103.28 302.496 103.38 302.322 103.58C302.149 103.773 302.062 104.093 302.062 104.54C302.062 104.98 302.149 105.3 302.322 105.5C302.496 105.7 302.719 105.8 302.992 105.8ZM308.544 107.11C307.904 107.11 307.43 106.937 307.124 106.59C306.824 106.237 306.674 105.7 306.674 104.98V102.08H308.454V105.03C308.454 105.51 308.66 105.75 309.074 105.75C309.314 105.75 309.51 105.663 309.664 105.49C309.817 105.317 309.894 105.087 309.894 104.8V102.08H311.674V107H309.934V106.39C309.614 106.87 309.15 107.11 308.544 107.11ZM315.389 107.11C314.789 107.11 314.269 107.007 313.829 106.8C313.396 106.587 313.063 106.287 312.829 105.9C312.596 105.513 312.479 105.057 312.479 104.53C312.479 104.03 312.589 103.587 312.809 103.2C313.036 102.813 313.343 102.513 313.729 102.3C314.123 102.08 314.569 101.97 315.069 101.97C315.563 101.97 315.989 102.073 316.349 102.28C316.716 102.487 316.996 102.783 317.189 103.17C317.389 103.55 317.489 103.997 317.489 104.51V104.9H314.179C314.239 105.22 314.373 105.45 314.579 105.59C314.786 105.73 315.073 105.8 315.439 105.8C315.693 105.8 315.956 105.763 316.229 105.69C316.509 105.61 316.756 105.497 316.969 105.35L317.409 106.52C317.156 106.7 316.846 106.843 316.479 106.95C316.113 107.057 315.749 107.11 315.389 107.11ZM315.149 103.12C314.883 103.12 314.663 103.2 314.489 103.36C314.323 103.52 314.216 103.753 314.169 104.06H316.029C316.009 103.747 315.923 103.513 315.769 103.36C315.623 103.2 315.416 103.12 315.149 103.12ZM279.249 120.8V118.4C279.109 118.613 278.906 118.787 278.639 118.92C278.379 119.047 278.092 119.11 277.779 119.11C277.359 119.11 276.986 119.007 276.659 118.8C276.339 118.593 276.086 118.297 275.899 117.91C275.719 117.523 275.629 117.067 275.629 116.54C275.629 116.007 275.719 115.55 275.899 115.17C276.086 114.783 276.339 114.487 276.659 114.28C276.986 114.073 277.359 113.97 277.779 113.97C278.112 113.97 278.416 114.043 278.689 114.19C278.962 114.33 279.162 114.52 279.289 114.76V114.08H281.029V120.8H279.249ZM278.349 117.8C278.616 117.8 278.836 117.7 279.009 117.5C279.182 117.3 279.269 116.98 279.269 116.54C279.269 116.093 279.182 115.773 279.009 115.58C278.836 115.38 278.616 115.28 278.349 115.28C278.076 115.28 277.852 115.38 277.679 115.58C277.506 115.773 277.419 116.093 277.419 116.54C277.419 116.98 277.506 117.3 277.679 117.5C277.852 117.7 278.076 117.8 278.349 117.8ZM283.9 119.11C283.26 119.11 282.787 118.937 282.48 118.59C282.18 118.237 282.03 117.7 282.03 116.98V114.08H283.81V117.03C283.81 117.51 284.017 117.75 284.43 117.75C284.67 117.75 284.867 117.663 285.02 117.49C285.173 117.317 285.25 117.087 285.25 116.8V114.08H287.03V119H285.29V118.39C284.97 118.87 284.507 119.11 283.9 119.11ZM288.016 113.23V111.62H289.886V113.23H288.016ZM288.066 119V114.08H289.846V119H288.066ZM293.558 119.11C292.958 119.11 292.438 119.007 291.998 118.8C291.565 118.587 291.232 118.287 290.998 117.9C290.765 117.513 290.648 117.057 290.648 116.53C290.648 116.03 290.758 115.587 290.978 115.2C291.205 114.813 291.512 114.513 291.898 114.3C292.292 114.08 292.738 113.97 293.238 113.97C293.732 113.97 294.158 114.073 294.518 114.28C294.885 114.487 295.165 114.783 295.358 115.17C295.558 115.55 295.658 115.997 295.658 116.51V116.9H292.348C292.408 117.22 292.542 117.45 292.748 117.59C292.955 117.73 293.242 117.8 293.608 117.8C293.862 117.8 294.125 117.763 294.398 117.69C294.678 117.61 294.925 117.497 295.138 117.35L295.578 118.52C295.325 118.7 295.015 118.843 294.648 118.95C294.282 119.057 293.918 119.11 293.558 119.11ZM293.318 115.12C293.052 115.12 292.832 115.2 292.658 115.36C292.492 115.52 292.385 115.753 292.338 116.06H294.198C294.178 115.747 294.092 115.513 293.938 115.36C293.792 115.2 293.585 115.12 293.318 115.12ZM296.425 119V114.08H298.155V114.91C298.382 114.343 298.872 114.033 299.625 113.98L300.115 113.94L300.215 115.44L299.245 115.53C298.892 115.563 298.635 115.663 298.475 115.83C298.315 115.99 298.235 116.23 298.235 116.55V119H296.425ZM303.353 119.11C302.753 119.11 302.233 119.007 301.793 118.8C301.36 118.587 301.027 118.287 300.793 117.9C300.56 117.513 300.443 117.057 300.443 116.53C300.443 116.03 300.553 115.587 300.773 115.2C301 114.813 301.307 114.513 301.693 114.3C302.087 114.08 302.533 113.97 303.033 113.97C303.527 113.97 303.953 114.073 304.313 114.28C304.68 114.487 304.96 114.783 305.153 115.17C305.353 115.55 305.453 115.997 305.453 116.51V116.9H302.143C302.203 117.22 302.337 117.45 302.543 117.59C302.75 117.73 303.037 117.8 303.403 117.8C303.657 117.8 303.92 117.763 304.193 117.69C304.473 117.61 304.72 117.497 304.933 117.35L305.373 118.52C305.12 118.7 304.81 118.843 304.443 118.95C304.077 119.057 303.713 119.11 303.353 119.11ZM303.113 115.12C302.847 115.12 302.627 115.2 302.453 115.36C302.287 115.52 302.18 115.753 302.133 116.06H303.993C303.973 115.747 303.887 115.513 303.733 115.36C303.587 115.2 303.38 115.12 303.113 115.12ZM308.18 119.11C307.727 119.11 307.307 119.063 306.92 118.97C306.54 118.877 306.217 118.747 305.95 118.58L306.36 117.43C306.607 117.57 306.894 117.687 307.22 117.78C307.547 117.867 307.87 117.91 308.19 117.91C308.437 117.91 308.614 117.877 308.72 117.81C308.827 117.737 308.88 117.643 308.88 117.53C308.88 117.43 308.844 117.357 308.77 117.31C308.704 117.257 308.607 117.217 308.48 117.19L307.37 117.01C306.957 116.943 306.637 116.793 306.41 116.56C306.184 116.327 306.07 116.023 306.07 115.65C306.07 115.303 306.167 115.007 306.36 114.76C306.554 114.507 306.824 114.313 307.17 114.18C307.517 114.04 307.914 113.97 308.36 113.97C308.714 113.97 309.064 114.013 309.41 114.1C309.757 114.18 310.06 114.313 310.32 114.5L309.88 115.63C309.687 115.497 309.447 115.387 309.16 115.3C308.874 115.207 308.617 115.16 308.39 115.16C308.117 115.16 307.924 115.2 307.81 115.28C307.697 115.353 307.64 115.443 307.64 115.55C307.64 115.73 307.764 115.84 308.01 115.88L309.12 116.07C309.547 116.137 309.874 116.283 310.1 116.51C310.334 116.73 310.45 117.03 310.45 117.41C310.45 117.95 310.244 118.37 309.83 118.67C309.417 118.963 308.867 119.11 308.18 119.11Z" fill="#363636"/>
<path d="M292.001 133.5C292.553 133.5 293 133.948 292.996 134.5C292.734 169.545 278.699 203.098 253.899 227.899C228.863 252.935 194.906 267 159.5 267C124.094 267 90.1374 252.935 65.1013 227.899C40.3009 203.098 26.2659 169.545 26.0037 134.5C25.9996 133.948 26.4472 133.5 26.9989 133.5V133.5C27.5507 133.5 27.9975 133.948 28.0017 134.5C28.2638 169.015 42.0883 202.06 66.514 226.486C91.1754 251.147 124.623 265.002 159.5 265.002C194.377 265.002 227.825 251.147 252.486 226.486C276.912 202.06 290.736 169.015 290.998 134.5C291.002 133.948 291.449 133.5 292.001 133.5V133.5Z" fill="#8446FF"/>
<path d="M296.753 137.706C296.589 137.902 296.38 138 296.126 138C295.871 138 295.662 137.902 295.498 137.706L292 133.538L288.502 137.706C288.338 137.902 288.129 138 287.874 138C287.62 138 287.411 137.902 287.247 137.706C287.082 137.51 287 137.261 287 136.958C287 136.655 287.082 136.406 287.247 136.21L291.372 131.294C291.462 131.187 291.559 131.111 291.664 131.066C291.768 131.022 291.88 131 292 131C292.12 131 292.232 131.022 292.336 131.066C292.441 131.111 292.538 131.187 292.628 131.294L296.753 136.21C296.918 136.406 297 136.655 297 136.958C297 137.261 296.918 137.51 296.753 137.706V137.706Z" fill="#8446FF"/>
</svg>
