<svg width="330" height="302" viewBox="0 0 330 302" fill="none" xmlns="http://www.w3.org/2000/svg">
<path d="M50.2134 254.54V253.082C50.2134 252.542 50.3034 252.044 50.4834 251.588C50.6754 251.12 50.9994 250.652 51.4554 250.184L52.2654 250.814C51.9774 251.102 51.7614 251.372 51.6174 251.624C51.4854 251.876 51.4014 252.134 51.3654 252.398H52.3554V254.54H50.2134ZM53.4354 254.54V253.082C53.4354 252.542 53.5254 252.044 53.7054 251.588C53.8974 251.12 54.2214 250.652 54.6774 250.184L55.4874 250.814C55.1994 251.102 54.9834 251.372 54.8394 251.624C54.7074 251.876 54.6234 252.134 54.5874 252.398H55.5774V254.54H53.4354ZM58.1156 263V250.31H59.9876V261.398H66.2696V263H58.1156ZM70.6573 263.162C70.0453 263.162 69.4993 263.042 69.0193 262.802C68.5393 262.562 68.1553 262.238 67.8673 261.83C67.5913 261.422 67.4533 260.96 67.4533 260.444C67.4533 259.796 67.6153 259.286 67.9393 258.914C68.2753 258.542 68.8213 258.272 69.5773 258.104C70.3453 257.936 71.3773 257.852 72.6733 257.852H73.2853V257.384C73.2853 256.7 73.1413 256.208 72.8533 255.908C72.5653 255.608 72.0913 255.458 71.4313 255.458C70.9273 255.458 70.4233 255.536 69.9193 255.692C69.4153 255.836 68.8993 256.07 68.3713 256.394L67.8133 255.116C68.2693 254.792 68.8393 254.534 69.5233 254.342C70.2073 254.15 70.8613 254.054 71.4853 254.054C72.6853 254.054 73.5733 254.342 74.1493 254.918C74.7253 255.482 75.0133 256.37 75.0133 257.582V263H73.3033V261.542C73.0873 262.046 72.7513 262.442 72.2953 262.73C71.8393 263.018 71.2933 263.162 70.6573 263.162ZM71.0173 261.866C71.6653 261.866 72.2053 261.638 72.6373 261.182C73.0693 260.726 73.2853 260.15 73.2853 259.454V258.968H72.6913C71.8153 258.968 71.1253 259.01 70.6213 259.094C70.1293 259.178 69.7753 259.322 69.5593 259.526C69.3553 259.718 69.2533 259.988 69.2533 260.336C69.2533 260.792 69.4093 261.164 69.7213 261.452C70.0333 261.728 70.4653 261.866 71.0173 261.866ZM86.1158 263.162C85.2158 263.162 84.4358 262.976 83.7758 262.604C83.1278 262.22 82.6238 261.686 82.2638 261.002C81.9038 260.306 81.7238 259.49 81.7238 258.554C81.7238 257.162 82.1198 256.064 82.9118 255.26C83.7038 254.456 84.7718 254.054 86.1158 254.054C86.6678 254.054 87.2138 254.15 87.7538 254.342C88.2938 254.534 88.7378 254.798 89.0858 255.134L88.5098 256.412C88.1738 256.1 87.8018 255.872 87.3938 255.728C86.9978 255.572 86.6198 255.494 86.2598 255.494C85.4078 255.494 84.7478 255.764 84.2798 256.304C83.8238 256.832 83.5958 257.588 83.5958 258.572C83.5958 259.556 83.8238 260.33 84.2798 260.894C84.7478 261.446 85.4078 261.722 86.2598 261.722C86.6198 261.722 86.9978 261.65 87.3938 261.506C87.8018 261.35 88.1738 261.116 88.5098 260.804L89.0858 262.1C88.7378 262.424 88.2878 262.682 87.7358 262.874C87.1958 263.066 86.6558 263.162 86.1158 263.162ZM94.2883 263.162C93.4003 263.162 92.6323 262.976 91.9843 262.604C91.3363 262.232 90.8323 261.71 90.4723 261.038C90.1243 260.354 89.9503 259.544 89.9503 258.608C89.9503 257.672 90.1243 256.868 90.4723 256.196C90.8323 255.512 91.3363 254.984 91.9843 254.612C92.6323 254.24 93.4003 254.054 94.2883 254.054C95.1523 254.054 95.9083 254.24 96.5563 254.612C97.2043 254.984 97.7083 255.512 98.0683 256.196C98.4283 256.868 98.6083 257.672 98.6083 258.608C98.6083 259.544 98.4283 260.354 98.0683 261.038C97.7083 261.71 97.2043 262.232 96.5563 262.604C95.9083 262.976 95.1523 263.162 94.2883 263.162ZM94.2883 261.758C95.0323 261.758 95.6323 261.488 96.0883 260.948C96.5443 260.408 96.7723 259.628 96.7723 258.608C96.7723 257.588 96.5443 256.814 96.0883 256.286C95.6323 255.746 95.0323 255.476 94.2883 255.476C93.5323 255.476 92.9263 255.746 92.4703 256.286C92.0143 256.814 91.7863 257.588 91.7863 258.608C91.7863 259.628 92.0143 260.408 92.4703 260.948C92.9263 261.488 93.5323 261.758 94.2883 261.758ZM100.686 263V254.216H102.45V255.638C102.714 255.134 103.08 254.744 103.548 254.468C104.016 254.192 104.562 254.054 105.186 254.054C106.53 254.054 107.4 254.642 107.796 255.818C108.072 255.266 108.468 254.834 108.984 254.522C109.5 254.21 110.088 254.054 110.748 254.054C112.716 254.054 113.7 255.23 113.7 257.582V263H111.882V257.672C111.882 256.928 111.75 256.382 111.486 256.034C111.234 255.686 110.814 255.512 110.226 255.512C109.566 255.512 109.044 255.746 108.66 256.214C108.276 256.67 108.084 257.294 108.084 258.086V263H106.266V257.672C106.266 256.928 106.14 256.382 105.888 256.034C105.636 255.686 105.216 255.512 104.628 255.512C103.968 255.512 103.446 255.746 103.062 256.214C102.69 256.67 102.504 257.294 102.504 258.086V263H100.686ZM116.242 266.24V254.216H118.024V255.71C118.276 255.206 118.66 254.804 119.176 254.504C119.692 254.204 120.286 254.054 120.958 254.054C121.738 254.054 122.416 254.24 122.992 254.612C123.58 254.984 124.03 255.512 124.342 256.196C124.666 256.868 124.828 257.672 124.828 258.608C124.828 259.544 124.666 260.354 124.342 261.038C124.03 261.722 123.58 262.25 122.992 262.622C122.416 262.982 121.738 263.162 120.958 263.162C120.31 263.162 119.728 263.024 119.212 262.748C118.708 262.46 118.324 262.07 118.06 261.578V266.24H116.242ZM120.508 261.758C121.264 261.758 121.864 261.488 122.308 260.948C122.764 260.408 122.992 259.628 122.992 258.608C122.992 257.588 122.764 256.814 122.308 256.286C121.864 255.746 121.264 255.476 120.508 255.476C119.752 255.476 119.146 255.746 118.69 256.286C118.246 256.814 118.024 257.588 118.024 258.608C118.024 259.628 118.246 260.408 118.69 260.948C119.146 261.488 119.752 261.758 120.508 261.758ZM129.685 263.162C129.073 263.162 128.527 263.042 128.047 262.802C127.567 262.562 127.183 262.238 126.895 261.83C126.619 261.422 126.481 260.96 126.481 260.444C126.481 259.796 126.643 259.286 126.967 258.914C127.303 258.542 127.849 258.272 128.605 258.104C129.373 257.936 130.405 257.852 131.701 257.852H132.313V257.384C132.313 256.7 132.169 256.208 131.881 255.908C131.593 255.608 131.119 255.458 130.459 255.458C129.955 255.458 129.451 255.536 128.947 255.692C128.443 255.836 127.927 256.07 127.399 256.394L126.841 255.116C127.297 254.792 127.867 254.534 128.551 254.342C129.235 254.15 129.889 254.054 130.513 254.054C131.713 254.054 132.601 254.342 133.177 254.918C133.753 255.482 134.041 256.37 134.041 257.582V263H132.331V261.542C132.115 262.046 131.779 262.442 131.323 262.73C130.867 263.018 130.321 263.162 129.685 263.162ZM130.045 261.866C130.693 261.866 131.233 261.638 131.665 261.182C132.097 260.726 132.313 260.15 132.313 259.454V258.968H131.719C130.843 258.968 130.153 259.01 129.649 259.094C129.157 259.178 128.803 259.322 128.587 259.526C128.383 259.718 128.281 259.988 128.281 260.336C128.281 260.792 128.437 261.164 128.749 261.452C129.061 261.728 129.493 261.866 130.045 261.866ZM136.545 263V254.216H138.309V255.782C138.765 254.738 139.713 254.156 141.153 254.036L141.747 254L141.873 255.548L140.775 255.656C139.179 255.812 138.381 256.634 138.381 258.122V263H136.545ZM145.98 263.162C145.368 263.162 144.822 263.042 144.342 262.802C143.862 262.562 143.478 262.238 143.19 261.83C142.914 261.422 142.776 260.96 142.776 260.444C142.776 259.796 142.938 259.286 143.262 258.914C143.598 258.542 144.144 258.272 144.9 258.104C145.668 257.936 146.7 257.852 147.996 257.852H148.608V257.384C148.608 256.7 148.464 256.208 148.176 255.908C147.888 255.608 147.414 255.458 146.754 255.458C146.25 255.458 145.746 255.536 145.242 255.692C144.738 255.836 144.222 256.07 143.694 256.394L143.136 255.116C143.592 254.792 144.162 254.534 144.846 254.342C145.53 254.15 146.184 254.054 146.808 254.054C148.008 254.054 148.896 254.342 149.472 254.918C150.048 255.482 150.336 256.37 150.336 257.582V263H148.626V261.542C148.41 262.046 148.074 262.442 147.618 262.73C147.162 263.018 146.616 263.162 145.98 263.162ZM146.34 261.866C146.988 261.866 147.528 261.638 147.96 261.182C148.392 260.726 148.608 260.15 148.608 259.454V258.968H148.014C147.138 258.968 146.448 259.01 145.944 259.094C145.452 259.178 145.098 259.322 144.882 259.526C144.678 259.718 144.576 259.988 144.576 260.336C144.576 260.792 144.732 261.164 145.044 261.452C145.356 261.728 145.788 261.866 146.34 261.866ZM156.71 263.162C155.81 263.162 155.03 262.976 154.37 262.604C153.722 262.22 153.218 261.686 152.858 261.002C152.498 260.306 152.318 259.49 152.318 258.554C152.318 257.162 152.714 256.064 153.506 255.26C154.298 254.456 155.366 254.054 156.71 254.054C157.262 254.054 157.808 254.15 158.348 254.342C158.888 254.534 159.332 254.798 159.68 255.134L159.104 256.412C158.768 256.1 158.396 255.872 157.988 255.728C157.592 255.572 157.214 255.494 156.854 255.494C156.002 255.494 155.342 255.764 154.874 256.304C154.418 256.832 154.19 257.588 154.19 258.572C154.19 259.556 154.418 260.33 154.874 260.894C155.342 261.446 156.002 261.722 156.854 261.722C157.214 261.722 157.592 261.65 157.988 261.506C158.396 261.35 158.768 261.116 159.104 260.804L159.68 262.1C159.332 262.424 158.882 262.682 158.33 262.874C157.79 263.066 157.25 263.162 156.71 263.162ZM161.08 252.182V250.292H163.204V252.182H161.08ZM161.242 263V254.216H163.06V263H161.242ZM169.435 263.162C168.547 263.162 167.779 262.976 167.131 262.604C166.483 262.232 165.979 261.71 165.619 261.038C165.271 260.354 165.097 259.544 165.097 258.608C165.097 257.672 165.271 256.868 165.619 256.196C165.979 255.512 166.483 254.984 167.131 254.612C167.779 254.24 168.547 254.054 169.435 254.054C170.299 254.054 171.055 254.24 171.703 254.612C172.351 254.984 172.855 255.512 173.215 256.196C173.575 256.868 173.755 257.672 173.755 258.608C173.755 259.544 173.575 260.354 173.215 261.038C172.855 261.71 172.351 262.232 171.703 262.604C171.055 262.976 170.299 263.162 169.435 263.162ZM169.435 261.758C170.179 261.758 170.779 261.488 171.235 260.948C171.691 260.408 171.919 259.628 171.919 258.608C171.919 257.588 171.691 256.814 171.235 256.286C170.779 255.746 170.179 255.476 169.435 255.476C168.679 255.476 168.073 255.746 167.617 256.286C167.161 256.814 166.933 257.588 166.933 258.608C166.933 259.628 167.161 260.408 167.617 260.948C168.073 261.488 168.679 261.758 169.435 261.758ZM168.805 253.046L170.659 249.41H172.513L170.065 253.046H168.805ZM175.797 263V254.216H177.561V255.674C177.861 255.146 178.269 254.744 178.785 254.468C179.313 254.192 179.901 254.054 180.549 254.054C182.625 254.054 183.663 255.23 183.663 257.582V263H181.845V257.69C181.845 256.934 181.695 256.382 181.395 256.034C181.107 255.686 180.651 255.512 180.027 255.512C179.295 255.512 178.707 255.746 178.263 256.214C177.831 256.67 177.615 257.276 177.615 258.032V263H175.797ZM194.244 263.162C193.476 263.162 192.798 262.982 192.21 262.622C191.634 262.25 191.184 261.722 190.86 261.038C190.536 260.354 190.374 259.544 190.374 258.608C190.374 257.672 190.536 256.868 190.86 256.196C191.184 255.512 191.634 254.984 192.21 254.612C192.786 254.24 193.464 254.054 194.244 254.054C194.904 254.054 195.492 254.198 196.008 254.486C196.524 254.774 196.908 255.164 197.16 255.656V250.31H198.978V263H197.196V261.47C196.944 261.998 196.554 262.412 196.026 262.712C195.51 263.012 194.916 263.162 194.244 263.162ZM194.712 261.758C195.456 261.758 196.056 261.488 196.512 260.948C196.968 260.408 197.196 259.628 197.196 258.608C197.196 257.588 196.968 256.814 196.512 256.286C196.056 255.746 195.456 255.476 194.712 255.476C193.956 255.476 193.35 255.746 192.894 256.286C192.438 256.814 192.21 257.588 192.21 258.608C192.21 259.628 192.438 260.408 192.894 260.948C193.35 261.488 193.956 261.758 194.712 261.758ZM205.653 263.162C204.213 263.162 203.079 262.76 202.251 261.956C201.423 261.14 201.009 260.03 201.009 258.626C201.009 257.726 201.189 256.934 201.549 256.25C201.921 255.554 202.431 255.014 203.079 254.63C203.727 254.246 204.471 254.054 205.311 254.054C206.523 254.054 207.477 254.444 208.173 255.224C208.869 255.992 209.217 257.054 209.217 258.41V259.022H202.773C202.905 260.846 203.871 261.758 205.671 261.758C206.175 261.758 206.667 261.68 207.147 261.524C207.639 261.368 208.101 261.11 208.533 260.75L209.073 262.01C208.677 262.37 208.167 262.652 207.543 262.856C206.919 263.06 206.289 263.162 205.653 263.162ZM205.383 255.332C204.627 255.332 204.027 255.566 203.583 256.034C203.139 256.502 202.869 257.126 202.773 257.906H207.687C207.651 257.09 207.435 256.46 207.039 256.016C206.643 255.56 206.091 255.332 205.383 255.332ZM214.277 263.162C213.557 263.162 212.885 263.072 212.261 262.892C211.637 262.7 211.115 262.436 210.695 262.1L211.217 260.876C211.661 261.188 212.147 261.428 212.675 261.596C213.215 261.764 213.755 261.848 214.295 261.848C214.931 261.848 215.411 261.734 215.735 261.506C216.059 261.278 216.221 260.972 216.221 260.588C216.221 260.276 216.113 260.036 215.897 259.868C215.681 259.688 215.357 259.55 214.925 259.454L213.215 259.112C211.703 258.8 210.947 258.02 210.947 256.772C210.947 255.944 211.277 255.284 211.937 254.792C212.597 254.3 213.461 254.054 214.529 254.054C215.141 254.054 215.723 254.144 216.275 254.324C216.839 254.504 217.307 254.774 217.679 255.134L217.157 256.358C216.797 256.046 216.383 255.806 215.915 255.638C215.447 255.47 214.985 255.386 214.529 255.386C213.905 255.386 213.431 255.506 213.107 255.746C212.783 255.974 212.621 256.286 212.621 256.682C212.621 257.282 213.017 257.666 213.809 257.834L215.519 258.176C216.299 258.332 216.887 258.596 217.283 258.968C217.691 259.34 217.895 259.844 217.895 260.48C217.895 261.32 217.565 261.98 216.905 262.46C216.245 262.928 215.369 263.162 214.277 263.162ZM223.574 263.162C222.47 263.162 221.648 262.88 221.108 262.316C220.568 261.752 220.298 260.936 220.298 259.868V255.62H218.588V254.216H220.298V251.57H222.116V254.216H224.834V255.62H222.116V259.724C222.116 260.36 222.248 260.84 222.512 261.164C222.788 261.488 223.232 261.65 223.844 261.65C224.036 261.65 224.222 261.632 224.402 261.596C224.582 261.548 224.762 261.494 224.942 261.434L225.23 262.802C225.05 262.91 224.798 262.994 224.474 263.054C224.162 263.126 223.862 263.162 223.574 263.162ZM226.404 263V254.216H228.168V255.782C228.624 254.738 229.572 254.156 231.012 254.036L231.606 254L231.732 255.548L230.634 255.656C229.038 255.812 228.24 256.634 228.24 258.122V263H226.404ZM236.251 263.162C234.127 263.162 233.065 261.98 233.065 259.616V254.216H234.883V259.634C234.883 260.342 235.027 260.864 235.315 261.2C235.603 261.536 236.059 261.704 236.683 261.704C237.367 261.704 237.919 261.476 238.339 261.02C238.771 260.564 238.987 259.952 238.987 259.184V254.216H240.805V263H239.041V261.596C238.753 262.112 238.369 262.502 237.889 262.766C237.409 263.03 236.863 263.162 236.251 263.162ZM244.267 266.24L245.833 262.766L242.161 254.216H244.105L246.805 260.894L249.541 254.216H251.413L246.175 266.24H244.267ZM256.682 263.162C255.242 263.162 254.108 262.76 253.28 261.956C252.452 261.14 252.038 260.03 252.038 258.626C252.038 257.726 252.218 256.934 252.578 256.25C252.95 255.554 253.46 255.014 254.108 254.63C254.756 254.246 255.5 254.054 256.34 254.054C257.552 254.054 258.506 254.444 259.202 255.224C259.898 255.992 260.246 257.054 260.246 258.41V259.022H253.802C253.934 260.846 254.9 261.758 256.7 261.758C257.204 261.758 257.696 261.68 258.176 261.524C258.668 261.368 259.13 261.11 259.562 260.75L260.102 262.01C259.706 262.37 259.196 262.652 258.572 262.856C257.948 263.06 257.318 263.162 256.682 263.162ZM256.412 255.332C255.656 255.332 255.056 255.566 254.612 256.034C254.168 256.502 253.898 257.126 253.802 257.906H258.716C258.68 257.09 258.464 256.46 258.068 256.016C257.672 255.56 257.12 255.332 256.412 255.332ZM269.819 263.162C268.859 263.162 268.139 262.892 267.659 262.352C267.191 261.812 266.957 261.02 266.957 259.976V250.31H268.775V259.868C268.775 261.056 269.261 261.65 270.233 261.65C270.377 261.65 270.509 261.644 270.629 261.632C270.761 261.62 270.893 261.596 271.025 261.56L270.989 263.018C270.581 263.114 270.191 263.162 269.819 263.162ZM275.267 263.162C274.655 263.162 274.109 263.042 273.629 262.802C273.149 262.562 272.765 262.238 272.477 261.83C272.201 261.422 272.063 260.96 272.063 260.444C272.063 259.796 272.225 259.286 272.549 258.914C272.885 258.542 273.431 258.272 274.187 258.104C274.955 257.936 275.987 257.852 277.283 257.852H277.895V257.384C277.895 256.7 277.751 256.208 277.463 255.908C277.175 255.608 276.701 255.458 276.041 255.458C275.537 255.458 275.033 255.536 274.529 255.692C274.025 255.836 273.509 256.07 272.981 256.394L272.423 255.116C272.879 254.792 273.449 254.534 274.133 254.342C274.817 254.15 275.471 254.054 276.095 254.054C277.295 254.054 278.183 254.342 278.759 254.918C279.335 255.482 279.623 256.37 279.623 257.582V263H277.913V261.542C277.697 262.046 277.361 262.442 276.905 262.73C276.449 263.018 275.903 263.162 275.267 263.162ZM275.627 261.866C276.275 261.866 276.815 261.638 277.247 261.182C277.679 260.726 277.895 260.15 277.895 259.454V258.968H277.301C276.425 258.968 275.735 259.01 275.231 259.094C274.739 259.178 274.385 259.322 274.169 259.526C273.965 259.718 273.863 259.988 273.863 260.336C273.863 260.792 274.019 261.164 274.331 261.452C274.643 261.728 275.075 261.866 275.627 261.866ZM109.193 286.24V274.216H110.975V275.71C111.227 275.206 111.611 274.804 112.127 274.504C112.643 274.204 113.237 274.054 113.909 274.054C114.689 274.054 115.367 274.24 115.943 274.612C116.531 274.984 116.981 275.512 117.293 276.196C117.617 276.868 117.779 277.672 117.779 278.608C117.779 279.544 117.617 280.354 117.293 281.038C116.981 281.722 116.531 282.25 115.943 282.622C115.367 282.982 114.689 283.162 113.909 283.162C113.261 283.162 112.679 283.024 112.163 282.748C111.659 282.46 111.275 282.07 111.011 281.578V286.24H109.193ZM113.459 281.758C114.215 281.758 114.815 281.488 115.259 280.948C115.715 280.408 115.943 279.628 115.943 278.608C115.943 277.588 115.715 276.814 115.259 276.286C114.815 275.746 114.215 275.476 113.459 275.476C112.703 275.476 112.097 275.746 111.641 276.286C111.197 276.814 110.975 277.588 110.975 278.608C110.975 279.628 111.197 280.408 111.641 280.948C112.097 281.488 112.703 281.758 113.459 281.758ZM123.95 283.162C122.51 283.162 121.376 282.76 120.548 281.956C119.72 281.14 119.306 280.03 119.306 278.626C119.306 277.726 119.486 276.934 119.846 276.25C120.218 275.554 120.728 275.014 121.376 274.63C122.024 274.246 122.768 274.054 123.608 274.054C124.82 274.054 125.774 274.444 126.47 275.224C127.166 275.992 127.514 277.054 127.514 278.41V279.022H121.07C121.202 280.846 122.168 281.758 123.968 281.758C124.472 281.758 124.964 281.68 125.444 281.524C125.936 281.368 126.398 281.11 126.83 280.75L127.37 282.01C126.974 282.37 126.464 282.652 125.84 282.856C125.216 283.06 124.586 283.162 123.95 283.162ZM123.68 275.332C122.924 275.332 122.324 275.566 121.88 276.034C121.436 276.502 121.166 277.126 121.07 277.906H125.984C125.948 277.09 125.732 276.46 125.336 276.016C124.94 275.56 124.388 275.332 123.68 275.332ZM129.496 283V274.216H131.26V275.782C131.716 274.738 132.664 274.156 134.104 274.036L134.698 274L134.824 275.548L133.726 275.656C132.13 275.812 131.332 276.634 131.332 278.122V283H129.496ZM139.201 283.162C138.481 283.162 137.809 283.072 137.185 282.892C136.561 282.7 136.039 282.436 135.619 282.1L136.141 280.876C136.585 281.188 137.071 281.428 137.599 281.596C138.139 281.764 138.679 281.848 139.219 281.848C139.855 281.848 140.335 281.734 140.659 281.506C140.983 281.278 141.145 280.972 141.145 280.588C141.145 280.276 141.037 280.036 140.821 279.868C140.605 279.688 140.281 279.55 139.849 279.454L138.139 279.112C136.627 278.8 135.871 278.02 135.871 276.772C135.871 275.944 136.201 275.284 136.861 274.792C137.521 274.3 138.385 274.054 139.453 274.054C140.065 274.054 140.647 274.144 141.199 274.324C141.763 274.504 142.231 274.774 142.603 275.134L142.081 276.358C141.721 276.046 141.307 275.806 140.839 275.638C140.371 275.47 139.909 275.386 139.453 275.386C138.829 275.386 138.355 275.506 138.031 275.746C137.707 275.974 137.545 276.286 137.545 276.682C137.545 277.282 137.941 277.666 138.733 277.834L140.443 278.176C141.223 278.332 141.811 278.596 142.207 278.968C142.615 279.34 142.819 279.844 142.819 280.48C142.819 281.32 142.489 281.98 141.829 282.46C141.169 282.928 140.293 283.162 139.201 283.162ZM148.657 283.162C147.769 283.162 147.001 282.976 146.353 282.604C145.705 282.232 145.201 281.71 144.841 281.038C144.493 280.354 144.319 279.544 144.319 278.608C144.319 277.672 144.493 276.868 144.841 276.196C145.201 275.512 145.705 274.984 146.353 274.612C147.001 274.24 147.769 274.054 148.657 274.054C149.521 274.054 150.277 274.24 150.925 274.612C151.573 274.984 152.077 275.512 152.437 276.196C152.797 276.868 152.977 277.672 152.977 278.608C152.977 279.544 152.797 280.354 152.437 281.038C152.077 281.71 151.573 282.232 150.925 282.604C150.277 282.976 149.521 283.162 148.657 283.162ZM148.657 281.758C149.401 281.758 150.001 281.488 150.457 280.948C150.913 280.408 151.141 279.628 151.141 278.608C151.141 277.588 150.913 276.814 150.457 276.286C150.001 275.746 149.401 275.476 148.657 275.476C147.901 275.476 147.295 275.746 146.839 276.286C146.383 276.814 146.155 277.588 146.155 278.608C146.155 279.628 146.383 280.408 146.839 280.948C147.295 281.488 147.901 281.758 148.657 281.758ZM155.019 283V274.216H156.783V275.674C157.083 275.146 157.491 274.744 158.007 274.468C158.535 274.192 159.123 274.054 159.771 274.054C161.847 274.054 162.885 275.23 162.885 277.582V283H161.067V277.69C161.067 276.934 160.917 276.382 160.617 276.034C160.329 275.686 159.873 275.512 159.249 275.512C158.517 275.512 157.929 275.746 157.485 276.214C157.053 276.67 156.837 277.276 156.837 278.032V283H155.019ZM168.198 283.162C167.586 283.162 167.04 283.042 166.56 282.802C166.08 282.562 165.696 282.238 165.408 281.83C165.132 281.422 164.994 280.96 164.994 280.444C164.994 279.796 165.156 279.286 165.48 278.914C165.816 278.542 166.362 278.272 167.118 278.104C167.886 277.936 168.918 277.852 170.214 277.852H170.826V277.384C170.826 276.7 170.682 276.208 170.394 275.908C170.106 275.608 169.632 275.458 168.972 275.458C168.468 275.458 167.964 275.536 167.46 275.692C166.956 275.836 166.44 276.07 165.912 276.394L165.354 275.116C165.81 274.792 166.38 274.534 167.064 274.342C167.748 274.15 168.402 274.054 169.026 274.054C170.226 274.054 171.114 274.342 171.69 274.918C172.266 275.482 172.554 276.37 172.554 277.582V283H170.844V281.542C170.628 282.046 170.292 282.442 169.836 282.73C169.38 283.018 168.834 283.162 168.198 283.162ZM168.558 281.866C169.206 281.866 169.746 281.638 170.178 281.182C170.61 280.726 170.826 280.15 170.826 279.454V278.968H170.232C169.356 278.968 168.666 279.01 168.162 279.094C167.67 279.178 167.316 279.322 167.1 279.526C166.896 279.718 166.794 279.988 166.794 280.336C166.794 280.792 166.95 281.164 167.262 281.452C167.574 281.728 168.006 281.866 168.558 281.866ZM177.92 283.162C176.96 283.162 176.24 282.892 175.76 282.352C175.292 281.812 175.058 281.02 175.058 279.976V270.31H176.876V279.868C176.876 281.056 177.362 281.65 178.334 281.65C178.478 281.65 178.61 281.644 178.73 281.632C178.862 281.62 178.994 281.596 179.126 281.56L179.09 283.018C178.682 283.114 178.292 283.162 177.92 283.162ZM180.398 272.182V270.292H182.522V272.182H180.398ZM180.56 283V274.216H182.378V283H180.56ZM188.285 283.162C187.517 283.162 186.839 282.982 186.251 282.622C185.675 282.25 185.225 281.722 184.901 281.038C184.577 280.354 184.415 279.544 184.415 278.608C184.415 277.672 184.577 276.868 184.901 276.196C185.225 275.512 185.675 274.984 186.251 274.612C186.827 274.24 187.505 274.054 188.285 274.054C188.945 274.054 189.533 274.198 190.049 274.486C190.565 274.774 190.949 275.164 191.201 275.656V270.31H193.019V283H191.237V281.47C190.985 281.998 190.595 282.412 190.067 282.712C189.551 283.012 188.957 283.162 188.285 283.162ZM188.753 281.758C189.497 281.758 190.097 281.488 190.553 280.948C191.009 280.408 191.237 279.628 191.237 278.608C191.237 277.588 191.009 276.814 190.553 276.286C190.097 275.746 189.497 275.476 188.753 275.476C187.997 275.476 187.391 275.746 186.935 276.286C186.479 276.814 186.251 277.588 186.251 278.608C186.251 279.628 186.479 280.408 186.935 280.948C187.391 281.488 187.997 281.758 188.753 281.758ZM198.38 283.162C197.768 283.162 197.222 283.042 196.742 282.802C196.262 282.562 195.878 282.238 195.59 281.83C195.314 281.422 195.176 280.96 195.176 280.444C195.176 279.796 195.338 279.286 195.662 278.914C195.998 278.542 196.544 278.272 197.3 278.104C198.068 277.936 199.1 277.852 200.396 277.852H201.008V277.384C201.008 276.7 200.864 276.208 200.576 275.908C200.288 275.608 199.814 275.458 199.154 275.458C198.65 275.458 198.146 275.536 197.642 275.692C197.138 275.836 196.622 276.07 196.094 276.394L195.536 275.116C195.992 274.792 196.562 274.534 197.246 274.342C197.93 274.15 198.584 274.054 199.208 274.054C200.408 274.054 201.296 274.342 201.872 274.918C202.448 275.482 202.736 276.37 202.736 277.582V283H201.026V281.542C200.81 282.046 200.474 282.442 200.018 282.73C199.562 283.018 199.016 283.162 198.38 283.162ZM198.74 281.866C199.388 281.866 199.928 281.638 200.36 281.182C200.792 280.726 201.008 280.15 201.008 279.454V278.968H200.414C199.538 278.968 198.848 279.01 198.344 279.094C197.852 279.178 197.498 279.322 197.282 279.526C197.078 279.718 196.976 279.988 196.976 280.336C196.976 280.792 197.132 281.164 197.444 281.452C197.756 281.728 198.188 281.866 198.74 281.866ZM208.588 283.162C207.82 283.162 207.142 282.982 206.554 282.622C205.978 282.25 205.528 281.722 205.204 281.038C204.88 280.354 204.718 279.544 204.718 278.608C204.718 277.672 204.88 276.868 205.204 276.196C205.528 275.512 205.978 274.984 206.554 274.612C207.13 274.24 207.808 274.054 208.588 274.054C209.248 274.054 209.836 274.198 210.352 274.486C210.868 274.774 211.252 275.164 211.504 275.656V270.31H213.322V283H211.54V281.47C211.288 281.998 210.898 282.412 210.37 282.712C209.854 283.012 209.26 283.162 208.588 283.162ZM209.056 281.758C209.8 281.758 210.4 281.488 210.856 280.948C211.312 280.408 211.54 279.628 211.54 278.608C211.54 277.588 211.312 276.814 210.856 276.286C210.4 275.746 209.8 275.476 209.056 275.476C208.3 275.476 207.694 275.746 207.238 276.286C206.782 276.814 206.554 277.588 206.554 278.608C206.554 279.628 206.782 280.408 207.238 280.948C207.694 281.488 208.3 281.758 209.056 281.758ZM216.577 274.666L215.785 274.054C216.061 273.754 216.265 273.478 216.397 273.226C216.529 272.974 216.619 272.716 216.667 272.452H215.659V270.31H217.819V271.768C217.819 272.308 217.729 272.812 217.549 273.28C217.369 273.748 217.045 274.21 216.577 274.666ZM219.799 274.666L219.007 274.054C219.283 273.754 219.487 273.478 219.619 273.226C219.751 272.974 219.841 272.716 219.889 272.452H218.881V270.31H221.041V271.768C221.041 272.308 220.951 272.812 220.771 273.28C220.591 273.748 220.267 274.21 219.799 274.666Z" fill="#8446FF"/>
<mask id="mask0_1831_18" style="mask-type:luminance" maskUnits="userSpaceOnUse" x="64" y="0" width="220" height="220">
<path d="M64 220L284 220L284 1.52588e-05L64 5.05682e-05L64 220Z" fill="white"/>
</mask>
<g mask="url(#mask0_1831_18)">
<path d="M197.418 203.827C193.495 203.827 190.309 202.315 190.309 200.452C190.309 198.589 193.495 197.076 197.418 197.076C201.342 197.076 204.527 198.589 204.527 200.452C204.527 202.315 201.342 203.827 197.418 203.827Z" fill="#F3AFAF"/>
<path d="M190.579 200.176L190.579 188.037L204.293 188.037L204.293 200.176L190.579 200.176Z" fill="#F3AFAF"/>
<path d="M190.37 202.009L190.37 187.982L194.206 187.982L194.206 202.009L190.37 202.009Z" fill="#E38E8E"/>
<path d="M193.656 203.431L194.252 201.826L190.722 201.781L193.656 203.431Z" fill="#E38E8E"/>
<path d="M190.132 188.26L190.132 86.6137L204.441 86.6137L204.441 188.26L190.132 188.26Z" fill="#979797"/>
<path d="M200.488 188.259L200.488 86.6134L204.779 86.6134L204.779 188.259L200.488 188.259Z" fill="#D9D9D9"/>
<path d="M190.038 188.442L190.038 86.7965L193.921 86.7965L193.921 188.442L190.038 188.442Z" fill="#0D1032"/>
<path d="M189.959 192.118L189.959 179.095L204.747 179.094L204.747 192.118L189.959 192.118Z" fill="#6C85AA"/>
<path d="M189.904 192.118L189.904 179.095L192.464 179.094L192.464 192.118L189.904 192.118Z" fill="#3B577F"/>
<path d="M193.978 192.209L193.978 179.186L198.29 179.186L198.29 192.209L193.978 192.209Z" fill="#809ABF"/>
<path d="M202.136 192.117L202.136 179.094L204.095 179.094L204.095 192.117L202.136 192.117Z" fill="#ADC6EB"/>
<path d="M197.279 69.2281L200.902 77.9164L204.524 86.6048L197.305 86.6256L190.085 86.6465L193.682 77.9373L197.279 69.2281Z" fill="#EBD1AD"/>
<path d="M192.876 92.5588L195.993 88.9838L198.193 91.4588L200.393 88.1588L202.685 92.1922L204.701 86.8755L203.235 84.3088L192.876 83.1172L190.126 86.6922L192.876 92.5588Z" fill="#EBD1AD"/>
<path d="M192.649 92.5588L193.932 91.3672L196.086 72.3467L190.128 86.9672L192.649 92.5588Z" fill="#D5B78E"/>
<path d="M203.419 90.3594L204.61 86.9215L199.248 74.4548L203.419 90.3594Z" fill="#FAE4C5"/>
<path d="M194.482 75.7849C194.482 75.7849 197.506 77.9841 200.211 75.7387C200.073 75.1887 197.369 69.5515 197.369 69.5515L194.482 75.7849Z" fill="#515567"/>
<path d="M196.36 76.7007L197.276 69.8257L194.526 76.059L196.36 76.7007Z" fill="#1F222E"/>
</g>
<path d="M35.0662 58V52.36H35.6982L38.9302 56.624V52.36H39.6982V58H39.0822L35.8342 53.72V58H35.0662ZM42.6195 58.072C42.2248 58.072 41.8835 57.9893 41.5955 57.824C41.3075 57.6587 41.0835 57.4267 40.9235 57.128C40.7688 56.824 40.6915 56.464 40.6915 56.048C40.6915 55.632 40.7688 55.2747 40.9235 54.976C41.0835 54.672 41.3075 54.4373 41.5955 54.272C41.8835 54.1067 42.2248 54.024 42.6195 54.024C43.0035 54.024 43.3395 54.1067 43.6275 54.272C43.9155 54.4373 44.1395 54.672 44.2995 54.976C44.4595 55.2747 44.5395 55.632 44.5395 56.048C44.5395 56.464 44.4595 56.824 44.2995 57.128C44.1395 57.4267 43.9155 57.6587 43.6275 57.824C43.3395 57.9893 43.0035 58.072 42.6195 58.072ZM42.6195 57.448C42.9501 57.448 43.2168 57.328 43.4195 57.088C43.6221 56.848 43.7235 56.5013 43.7235 56.048C43.7235 55.5947 43.6221 55.2507 43.4195 55.016C43.2168 54.776 42.9501 54.656 42.6195 54.656C42.2835 54.656 42.0141 54.776 41.8115 55.016C41.6088 55.2507 41.5075 55.5947 41.5075 56.048C41.5075 56.5013 41.6088 56.848 41.8115 57.088C42.0141 57.328 42.2835 57.448 42.6195 57.448ZM49.3805 58.072C48.7405 58.072 48.2365 57.8933 47.8685 57.536C47.5005 57.1733 47.3165 56.68 47.3165 56.056C47.3165 55.656 47.3965 55.304 47.5565 55C47.7218 54.6907 47.9485 54.4507 48.2365 54.28C48.5245 54.1093 48.8551 54.024 49.2285 54.024C49.7671 54.024 50.1911 54.1973 50.5005 54.544C50.8098 54.8853 50.9645 55.3573 50.9645 55.96V56.232H48.1005C48.1591 57.0427 48.5885 57.448 49.3885 57.448C49.6125 57.448 49.8311 57.4133 50.0445 57.344C50.2631 57.2747 50.4685 57.16 50.6605 57L50.9005 57.56C50.7245 57.72 50.4978 57.8453 50.2205 57.936C49.9431 58.0267 49.6631 58.072 49.3805 58.072ZM49.2605 54.592C48.9245 54.592 48.6578 54.696 48.4605 54.904C48.2631 55.112 48.1431 55.3893 48.1005 55.736H50.2845C50.2685 55.3733 50.1725 55.0933 49.9965 54.896C49.8205 54.6933 49.5751 54.592 49.2605 54.592ZM53.2133 58.072C52.8933 58.072 52.5947 58.032 52.3173 57.952C52.04 57.8667 51.808 57.7493 51.6213 57.6L51.8533 57.056C52.0507 57.1947 52.2667 57.3013 52.5013 57.376C52.7413 57.4507 52.9813 57.488 53.2213 57.488C53.504 57.488 53.7173 57.4373 53.8613 57.336C54.0053 57.2347 54.0773 57.0987 54.0773 56.928C54.0773 56.7893 54.0293 56.6827 53.9333 56.608C53.8373 56.528 53.6933 56.4667 53.5013 56.424L52.7413 56.272C52.0693 56.1333 51.7333 55.7867 51.7333 55.232C51.7333 54.864 51.88 54.5707 52.1733 54.352C52.4667 54.1333 52.8507 54.024 53.3253 54.024C53.5973 54.024 53.856 54.064 54.1013 54.144C54.352 54.224 54.56 54.344 54.7253 54.504L54.4933 55.048C54.3333 54.9093 54.1493 54.8027 53.9413 54.728C53.7333 54.6533 53.528 54.616 53.3253 54.616C53.048 54.616 52.8373 54.6693 52.6933 54.776C52.5493 54.8773 52.4773 55.016 52.4773 55.192C52.4773 55.4587 52.6533 55.6293 53.0053 55.704L53.7653 55.856C54.112 55.9253 54.3733 56.0427 54.5493 56.208C54.7307 56.3733 54.8213 56.5973 54.8213 56.88C54.8213 57.2533 54.6747 57.5467 54.3813 57.76C54.088 57.968 53.6987 58.072 53.2133 58.072ZM57.3453 58.072C56.8546 58.072 56.4893 57.9467 56.2493 57.696C56.0093 57.4453 55.8893 57.0827 55.8893 56.608V54.72H55.1293V54.096H55.8893V52.92H56.6973V54.096H57.9053V54.72H56.6973V56.544C56.6973 56.8267 56.7559 57.04 56.8733 57.184C56.9959 57.328 57.1933 57.4 57.4653 57.4C57.5506 57.4 57.6333 57.392 57.7133 57.376C57.7933 57.3547 57.8733 57.3307 57.9533 57.304L58.0813 57.912C58.0013 57.96 57.8893 57.9973 57.7453 58.024C57.6066 58.056 57.4733 58.072 57.3453 58.072ZM60.2601 58.072C59.8654 58.072 59.5241 57.9893 59.2361 57.824C58.9481 57.6587 58.7241 57.4267 58.5641 57.128C58.4094 56.824 58.3321 56.464 58.3321 56.048C58.3321 55.632 58.4094 55.2747 58.5641 54.976C58.7241 54.672 58.9481 54.4373 59.2361 54.272C59.5241 54.1067 59.8654 54.024 60.2601 54.024C60.6441 54.024 60.9801 54.1067 61.2681 54.272C61.5561 54.4373 61.7801 54.672 61.9401 54.976C62.1001 55.2747 62.1801 55.632 62.1801 56.048C62.1801 56.464 62.1001 56.824 61.9401 57.128C61.7801 57.4267 61.5561 57.6587 61.2681 57.824C60.9801 57.9893 60.6441 58.072 60.2601 58.072ZM60.2601 57.448C60.5908 57.448 60.8574 57.328 61.0601 57.088C61.2628 56.848 61.3641 56.5013 61.3641 56.048C61.3641 55.5947 61.2628 55.2507 61.0601 55.016C60.8574 54.776 60.5908 54.656 60.2601 54.656C59.9241 54.656 59.6548 54.776 59.4521 55.016C59.2494 55.2507 59.1481 55.5947 59.1481 56.048C59.1481 56.5013 59.2494 56.848 59.4521 57.088C59.6548 57.328 59.9241 57.448 60.2601 57.448ZM63.4172 59.44L64.1132 57.896L62.4812 54.096H63.3452L64.5452 57.064L65.7612 54.096H66.5932L64.2652 59.44H63.4172ZM70.547 58.072C70.1204 58.072 69.8004 57.952 69.587 57.712C69.379 57.472 69.275 57.12 69.275 56.656V52.36H70.083V56.608C70.083 57.136 70.299 57.4 70.731 57.4C70.795 57.4 70.8537 57.3973 70.907 57.392C70.9657 57.3867 71.0244 57.376 71.083 57.36L71.067 58.008C70.8857 58.0507 70.7124 58.072 70.547 58.072ZM73.3773 58.072C72.9826 58.072 72.6413 57.9893 72.3533 57.824C72.0653 57.6587 71.8413 57.4267 71.6813 57.128C71.5266 56.824 71.4493 56.464 71.4493 56.048C71.4493 55.632 71.5266 55.2747 71.6813 54.976C71.8413 54.672 72.0653 54.4373 72.3533 54.272C72.6413 54.1067 72.9826 54.024 73.3773 54.024C73.7613 54.024 74.0973 54.1067 74.3853 54.272C74.6733 54.4373 74.8973 54.672 75.0573 54.976C75.2173 55.2747 75.2973 55.632 75.2973 56.048C75.2973 56.464 75.2173 56.824 75.0573 57.128C74.8973 57.4267 74.6733 57.6587 74.3853 57.824C74.0973 57.9893 73.7613 58.072 73.3773 58.072ZM73.3773 57.448C73.7079 57.448 73.9746 57.328 74.1773 57.088C74.3799 56.848 74.4813 56.5013 74.4813 56.048C74.4813 55.5947 74.3799 55.2507 74.1773 55.016C73.9746 54.776 73.7079 54.656 73.3773 54.656C73.0413 54.656 72.7719 54.776 72.5693 55.016C72.3666 55.2507 72.2653 55.5947 72.2653 56.048C72.2653 56.5013 72.3666 56.848 72.5693 57.088C72.7719 57.328 73.0413 57.448 73.3773 57.448ZM79.6743 58.072C79.3543 58.072 79.0556 58.032 78.7783 57.952C78.5009 57.8667 78.2689 57.7493 78.0823 57.6L78.3143 57.056C78.5116 57.1947 78.7276 57.3013 78.9623 57.376C79.2023 57.4507 79.4423 57.488 79.6823 57.488C79.9649 57.488 80.1783 57.4373 80.3223 57.336C80.4663 57.2347 80.5383 57.0987 80.5383 56.928C80.5383 56.7893 80.4903 56.6827 80.3943 56.608C80.2983 56.528 80.1543 56.4667 79.9623 56.424L79.2023 56.272C78.5303 56.1333 78.1943 55.7867 78.1943 55.232C78.1943 54.864 78.3409 54.5707 78.6343 54.352C78.9276 54.1333 79.3116 54.024 79.7863 54.024C80.0583 54.024 80.3169 54.064 80.5623 54.144C80.8129 54.224 81.0209 54.344 81.1863 54.504L80.9543 55.048C80.7943 54.9093 80.6103 54.8027 80.4023 54.728C80.1943 54.6533 79.9889 54.616 79.7863 54.616C79.5089 54.616 79.2983 54.6693 79.1543 54.776C79.0103 54.8773 78.9383 55.016 78.9383 55.192C78.9383 55.4587 79.1143 55.6293 79.4663 55.704L80.2263 55.856C80.5729 55.9253 80.8343 56.0427 81.0103 56.208C81.1916 56.3733 81.2823 56.5973 81.2823 56.88C81.2823 57.2533 81.1356 57.5467 80.8423 57.76C80.5489 57.968 80.1596 58.072 79.6743 58.072ZM83.5733 58.072C82.6293 58.072 82.1573 57.5467 82.1573 56.496V54.096H82.9653V56.504C82.9653 56.8187 83.0293 57.0507 83.1573 57.2C83.2853 57.3493 83.4879 57.424 83.7653 57.424C84.0693 57.424 84.3146 57.3227 84.5013 57.12C84.6933 56.9173 84.7893 56.6453 84.7893 56.304V54.096H85.5973V58H84.8133V57.376C84.6853 57.6053 84.5146 57.7787 84.3013 57.896C84.0879 58.0133 83.8453 58.072 83.5733 58.072ZM86.968 58V54.72H86.208V54.096H86.968V54.024C86.968 53.4853 87.104 53.08 87.376 52.808C87.6533 52.536 88.0773 52.384 88.648 52.352L88.968 52.336L89.016 52.944L88.688 52.96C88.3626 52.9813 88.128 53.0693 87.984 53.224C87.8453 53.3787 87.776 53.608 87.776 53.912V54.096H90.264V58H89.456V54.72H87.776V58H86.968ZM89.384 53.192V52.352H90.328V53.192H89.384ZM93.1122 58.072C92.7122 58.072 92.3656 57.9893 92.0722 57.824C91.7842 57.6533 91.5602 57.416 91.4002 57.112C91.2402 56.8027 91.1602 56.44 91.1602 56.024C91.1602 55.4053 91.3362 54.9173 91.6882 54.56C92.0402 54.2027 92.5149 54.024 93.1122 54.024C93.3576 54.024 93.6002 54.0667 93.8402 54.152C94.0802 54.2373 94.2776 54.3547 94.4322 54.504L94.1762 55.072C94.0269 54.9333 93.8616 54.832 93.6802 54.768C93.5042 54.6987 93.3362 54.664 93.1762 54.664C92.7976 54.664 92.5042 54.784 92.2962 55.024C92.0936 55.2587 91.9922 55.5947 91.9922 56.032C91.9922 56.4693 92.0936 56.8133 92.2962 57.064C92.5042 57.3093 92.7976 57.432 93.1762 57.432C93.3362 57.432 93.5042 57.4 93.6802 57.336C93.8616 57.2667 94.0269 57.1627 94.1762 57.024L94.4322 57.6C94.2776 57.744 94.0776 57.8587 93.8322 57.944C93.5922 58.0293 93.3522 58.072 93.1122 58.072ZM95.0546 53.192V52.352H95.9986V53.192H95.0546ZM95.1266 58V54.096H95.9346V58H95.1266ZM98.9039 58.072C98.2639 58.072 97.7599 57.8933 97.3919 57.536C97.0239 57.1733 96.8399 56.68 96.8399 56.056C96.8399 55.656 96.9199 55.304 97.0799 55C97.2452 54.6907 97.4719 54.4507 97.7599 54.28C98.0479 54.1093 98.3786 54.024 98.7519 54.024C99.2906 54.024 99.7146 54.1973 100.024 54.544C100.333 54.8853 100.488 55.3573 100.488 55.96V56.232H97.6239C97.6826 57.0427 98.1119 57.448 98.9119 57.448C99.1359 57.448 99.3546 57.4133 99.5679 57.344C99.7866 57.2747 99.9919 57.16 100.184 57L100.424 57.56C100.248 57.72 100.021 57.8453 99.7439 57.936C99.4666 58.0267 99.1866 58.072 98.9039 58.072ZM98.7839 54.592C98.4479 54.592 98.1812 54.696 97.9839 54.904C97.7866 55.112 97.6666 55.3893 97.6239 55.736H99.8079C99.7919 55.3733 99.6959 55.0933 99.5199 54.896C99.3439 54.6933 99.0986 54.592 98.7839 54.592ZM101.369 58V54.096H102.153V54.744C102.286 54.5093 102.467 54.3307 102.697 54.208C102.931 54.0853 103.193 54.024 103.481 54.024C104.403 54.024 104.865 54.5467 104.865 55.592V58H104.057V55.64C104.057 55.304 103.99 55.0587 103.857 54.904C103.729 54.7493 103.526 54.672 103.249 54.672C102.923 54.672 102.662 54.776 102.465 54.984C102.273 55.1867 102.177 55.456 102.177 55.792V58H101.369ZM107.642 58.072C107.151 58.072 106.786 57.9467 106.546 57.696C106.306 57.4453 106.186 57.0827 106.186 56.608V54.72H105.426V54.096H106.186V52.92H106.994V54.096H108.202V54.72H106.994V56.544C106.994 56.8267 107.053 57.04 107.17 57.184C107.293 57.328 107.49 57.4 107.762 57.4C107.847 57.4 107.93 57.392 108.01 57.376C108.09 57.3547 108.17 57.3307 108.25 57.304L108.378 57.912C108.298 57.96 108.186 57.9973 108.042 58.024C107.903 58.056 107.77 58.072 107.642 58.072ZM110.693 58.072C110.053 58.072 109.549 57.8933 109.181 57.536C108.813 57.1733 108.629 56.68 108.629 56.056C108.629 55.656 108.709 55.304 108.869 55C109.034 54.6907 109.261 54.4507 109.549 54.28C109.837 54.1093 110.168 54.024 110.541 54.024C111.08 54.024 111.504 54.1973 111.813 54.544C112.122 54.8853 112.277 55.3573 112.277 55.96V56.232H109.413C109.472 57.0427 109.901 57.448 110.701 57.448C110.925 57.448 111.144 57.4133 111.357 57.344C111.576 57.2747 111.781 57.16 111.973 57L112.213 57.56C112.037 57.72 111.81 57.8453 111.533 57.936C111.256 58.0267 110.976 58.072 110.693 58.072ZM110.573 54.592C110.237 54.592 109.97 54.696 109.773 54.904C109.576 55.112 109.456 55.3893 109.413 55.736H111.597C111.581 55.3733 111.485 55.0933 111.309 54.896C111.133 54.6933 110.888 54.592 110.573 54.592ZM61.9723 70.072C61.7003 70.072 61.4576 70.0187 61.2443 69.912C61.0309 69.8053 60.8603 69.6613 60.7323 69.48C60.6096 69.2987 60.5483 69.0933 60.5483 68.864C60.5483 68.576 60.6203 68.3493 60.7643 68.184C60.9136 68.0187 61.1563 67.8987 61.4923 67.824C61.8336 67.7493 62.2923 67.712 62.8683 67.712H63.1403V67.504C63.1403 67.2 63.0763 66.9813 62.9483 66.848C62.8203 66.7147 62.6096 66.648 62.3163 66.648C62.0923 66.648 61.8683 66.6827 61.6443 66.752C61.4203 66.816 61.1909 66.92 60.9563 67.064L60.7083 66.496C60.9109 66.352 61.1643 66.2373 61.4683 66.152C61.7723 66.0667 62.0629 66.024 62.3403 66.024C62.8736 66.024 63.2683 66.152 63.5243 66.408C63.7803 66.6587 63.9083 67.0533 63.9083 67.592V70H63.1483V69.352C63.0523 69.576 62.9029 69.752 62.7003 69.88C62.4976 70.008 62.2549 70.072 61.9723 70.072ZM62.1323 69.496C62.4203 69.496 62.6603 69.3947 62.8523 69.192C63.0443 68.9893 63.1403 68.7333 63.1403 68.424V68.208H62.8763C62.4869 68.208 62.1803 68.2267 61.9563 68.264C61.7376 68.3013 61.5803 68.3653 61.4843 68.456C61.3936 68.5413 61.3483 68.6613 61.3483 68.816C61.3483 69.0187 61.4176 69.184 61.5563 69.312C61.6949 69.4347 61.8869 69.496 62.1323 69.496ZM65.2531 70V66.72H64.4931V66.096H65.2531V66.024C65.2531 65.4853 65.3891 65.08 65.6611 64.808C65.9385 64.536 66.3625 64.384 66.9331 64.352L67.2531 64.336L67.3011 64.944L66.9731 64.96C66.6478 64.9813 66.4131 65.0693 66.2691 65.224C66.1305 65.3787 66.0611 65.608 66.0611 65.912V66.096H68.5491V70H67.7411V66.72H66.0611V70H65.2531ZM67.6691 65.192V64.352H68.6131V65.192H67.6691ZM70.9494 70.072C70.5227 70.072 70.2027 69.952 69.9894 69.712C69.7814 69.472 69.6774 69.12 69.6774 68.656V64.36H70.4854V68.608C70.4854 69.136 70.7014 69.4 71.1334 69.4C71.1974 69.4 71.256 69.3973 71.3094 69.392C71.368 69.3867 71.4267 69.376 71.4854 69.36L71.4694 70.008C71.288 70.0507 71.1147 70.072 70.9494 70.072ZM73.3707 70.072C73.0987 70.072 72.856 70.0187 72.6427 69.912C72.4294 69.8053 72.2587 69.6613 72.1307 69.48C72.008 69.2987 71.9467 69.0933 71.9467 68.864C71.9467 68.576 72.0187 68.3493 72.1627 68.184C72.312 68.0187 72.5547 67.8987 72.8907 67.824C73.232 67.7493 73.6907 67.712 74.2667 67.712H74.5387V67.504C74.5387 67.2 74.4747 66.9813 74.3467 66.848C74.2187 66.7147 74.008 66.648 73.7147 66.648C73.4907 66.648 73.2667 66.6827 73.0427 66.752C72.8187 66.816 72.5894 66.92 72.3547 67.064L72.1067 66.496C72.3094 66.352 72.5627 66.2373 72.8667 66.152C73.1707 66.0667 73.4614 66.024 73.7387 66.024C74.272 66.024 74.6667 66.152 74.9227 66.408C75.1787 66.6587 75.3067 67.0533 75.3067 67.592V70H74.5467V69.352C74.4507 69.576 74.3014 69.752 74.0987 69.88C73.896 70.008 73.6534 70.072 73.3707 70.072ZM73.5307 69.496C73.8187 69.496 74.0587 69.3947 74.2507 69.192C74.4427 68.9893 74.5387 68.7333 74.5387 68.424V68.208H74.2747C73.8854 68.208 73.5787 68.2267 73.3547 68.264C73.136 68.3013 72.9787 68.3653 72.8827 68.456C72.792 68.5413 72.7467 68.6613 72.7467 68.816C72.7467 69.0187 72.816 69.184 72.9547 69.312C73.0934 69.4347 73.2854 69.496 73.5307 69.496ZM77.9076 70.072C77.5662 70.072 77.2649 69.992 77.0036 69.832C76.7476 69.6667 76.5476 69.432 76.4036 69.128C76.2596 68.824 76.1876 68.464 76.1876 68.048C76.1876 67.632 76.2596 67.2747 76.4036 66.976C76.5476 66.672 76.7476 66.4373 77.0036 66.272C77.2596 66.1067 77.5609 66.024 77.9076 66.024C78.2009 66.024 78.4622 66.088 78.6916 66.216C78.9209 66.344 79.0916 66.5173 79.2036 66.736V64.36H80.0116V70H79.2196V69.32C79.1076 69.5547 78.9342 69.7387 78.6996 69.872C78.4702 70.0053 78.2062 70.072 77.9076 70.072ZM78.1156 69.448C78.4462 69.448 78.7129 69.328 78.9156 69.088C79.1182 68.848 79.2196 68.5013 79.2196 68.048C79.2196 67.5947 79.1182 67.2507 78.9156 67.016C78.7129 66.776 78.4462 66.656 78.1156 66.656C77.7796 66.656 77.5102 66.776 77.3076 67.016C77.1049 67.2507 77.0036 67.5947 77.0036 68.048C77.0036 68.5013 77.1049 68.848 77.3076 69.088C77.5102 69.328 77.7796 69.448 78.1156 69.448ZM82.8421 70.072C82.4475 70.072 82.1061 69.9893 81.8181 69.824C81.5301 69.6587 81.3061 69.4267 81.1461 69.128C80.9915 68.824 80.9141 68.464 80.9141 68.048C80.9141 67.632 80.9915 67.2747 81.1461 66.976C81.3061 66.672 81.5301 66.4373 81.8181 66.272C82.1061 66.1067 82.4475 66.024 82.8421 66.024C83.2261 66.024 83.5621 66.1067 83.8501 66.272C84.1381 66.4373 84.3621 66.672 84.5221 66.976C84.6821 67.2747 84.7621 67.632 84.7621 68.048C84.7621 68.464 84.6821 68.824 84.5221 69.128C84.3621 69.4267 84.1381 69.6587 83.8501 69.824C83.5621 69.9893 83.2261 70.072 82.8421 70.072ZM82.8421 69.448C83.1728 69.448 83.4395 69.328 83.6421 69.088C83.8448 68.848 83.9461 68.5013 83.9461 68.048C83.9461 67.5947 83.8448 67.2507 83.6421 67.016C83.4395 66.776 83.1728 66.656 82.8421 66.656C82.5061 66.656 82.2368 66.776 82.0341 67.016C81.8315 67.2507 81.7301 67.5947 81.7301 68.048C81.7301 68.5013 81.8315 68.848 82.0341 69.088C82.2368 69.328 82.5061 69.448 82.8421 69.448ZM85.4173 70V69.048H86.3693V70H85.4173Z" fill="#363636"/>
<path d="M218.679 58V52.36H219.311L222.543 56.624V52.36H223.311V58H222.695L219.447 53.72V58H218.679ZM226.233 58.072C225.838 58.072 225.497 57.9893 225.209 57.824C224.921 57.6587 224.697 57.4267 224.537 57.128C224.382 56.824 224.305 56.464 224.305 56.048C224.305 55.632 224.382 55.2747 224.537 54.976C224.697 54.672 224.921 54.4373 225.209 54.272C225.497 54.1067 225.838 54.024 226.233 54.024C226.617 54.024 226.953 54.1067 227.241 54.272C227.529 54.4373 227.753 54.672 227.913 54.976C228.073 55.2747 228.153 55.632 228.153 56.048C228.153 56.464 228.073 56.824 227.913 57.128C227.753 57.4267 227.529 57.6587 227.241 57.824C226.953 57.9893 226.617 58.072 226.233 58.072ZM226.233 57.448C226.563 57.448 226.83 57.328 227.033 57.088C227.235 56.848 227.337 56.5013 227.337 56.048C227.337 55.5947 227.235 55.2507 227.033 55.016C226.83 54.776 226.563 54.656 226.233 54.656C225.897 54.656 225.627 54.776 225.425 55.016C225.222 55.2507 225.121 55.5947 225.121 56.048C225.121 56.5013 225.222 56.848 225.425 57.088C225.627 57.328 225.897 57.448 226.233 57.448ZM232.826 58.072C232.335 58.072 231.97 57.9467 231.73 57.696C231.49 57.4453 231.37 57.0827 231.37 56.608V54.72H230.61V54.096H231.37V52.92H232.178V54.096H233.386V54.72H232.178V56.544C232.178 56.8267 232.236 57.04 232.354 57.184C232.476 57.328 232.674 57.4 232.946 57.4C233.031 57.4 233.114 57.392 233.194 57.376C233.274 57.3547 233.354 57.3307 233.434 57.304L233.562 57.912C233.482 57.96 233.37 57.9973 233.226 58.024C233.087 58.056 232.954 58.072 232.826 58.072ZM235.877 58.072C235.237 58.072 234.733 57.8933 234.365 57.536C233.997 57.1733 233.813 56.68 233.813 56.056C233.813 55.656 233.893 55.304 234.053 55C234.218 54.6907 234.445 54.4507 234.733 54.28C235.021 54.1093 235.351 54.024 235.725 54.024C236.263 54.024 236.687 54.1973 236.997 54.544C237.306 54.8853 237.461 55.3573 237.461 55.96V56.232H234.597C234.655 57.0427 235.085 57.448 235.885 57.448C236.109 57.448 236.327 57.4133 236.541 57.344C236.759 57.2747 236.965 57.16 237.157 57L237.397 57.56C237.221 57.72 236.994 57.8453 236.717 57.936C236.439 58.0267 236.159 58.072 235.877 58.072ZM235.757 54.592C235.421 54.592 235.154 54.696 234.957 54.904C234.759 55.112 234.639 55.3893 234.597 55.736H236.781C236.765 55.3733 236.669 55.0933 236.493 54.896C236.317 54.6933 236.071 54.592 235.757 54.592ZM238.341 58V54.096H239.125V54.744C239.259 54.5093 239.44 54.3307 239.669 54.208C239.904 54.0853 240.165 54.024 240.453 54.024C241.376 54.024 241.837 54.5467 241.837 55.592V58H241.029V55.64C241.029 55.304 240.963 55.0587 240.829 54.904C240.701 54.7493 240.499 54.672 240.221 54.672C239.896 54.672 239.635 54.776 239.437 54.984C239.245 55.1867 239.149 55.456 239.149 55.792V58H238.341ZM244.719 59.512C244.367 59.512 244.039 59.4693 243.735 59.384C243.431 59.304 243.161 59.176 242.927 59L243.175 58.424C243.409 58.584 243.649 58.7013 243.895 58.776C244.14 58.8507 244.396 58.888 244.663 58.888C245.409 58.888 245.783 58.5147 245.783 57.768V57.152C245.671 57.3867 245.495 57.5707 245.255 57.704C245.02 57.8373 244.756 57.904 244.463 57.904C244.111 57.904 243.804 57.824 243.543 57.664C243.281 57.4987 243.079 57.272 242.935 56.984C242.791 56.6907 242.719 56.3493 242.719 55.96C242.719 55.576 242.791 55.24 242.935 54.952C243.079 54.6587 243.281 54.432 243.543 54.272C243.804 54.1067 244.111 54.024 244.463 54.024C244.761 54.024 245.028 54.0907 245.263 54.224C245.497 54.3573 245.671 54.5413 245.783 54.776V54.096H246.567V57.672C246.567 58.2853 246.409 58.744 246.095 59.048C245.78 59.3573 245.321 59.512 244.719 59.512ZM244.655 57.272C244.996 57.272 245.268 57.1547 245.471 56.92C245.673 56.6853 245.775 56.3653 245.775 55.96C245.775 55.5547 245.673 55.2373 245.471 55.008C245.268 54.7733 244.996 54.656 244.655 54.656C244.313 54.656 244.041 54.7733 243.839 55.008C243.636 55.2373 243.535 55.5547 243.535 55.96C243.535 56.3653 243.636 56.6853 243.839 56.92C244.041 57.1547 244.313 57.272 244.655 57.272ZM249.397 58.072C249.002 58.072 248.661 57.9893 248.373 57.824C248.085 57.6587 247.861 57.4267 247.701 57.128C247.546 56.824 247.469 56.464 247.469 56.048C247.469 55.632 247.546 55.2747 247.701 54.976C247.861 54.672 248.085 54.4373 248.373 54.272C248.661 54.1067 249.002 54.024 249.397 54.024C249.781 54.024 250.117 54.1067 250.405 54.272C250.693 54.4373 250.917 54.672 251.077 54.976C251.237 55.2747 251.317 55.632 251.317 56.048C251.317 56.464 251.237 56.824 251.077 57.128C250.917 57.4267 250.693 57.6587 250.405 57.824C250.117 57.9893 249.781 58.072 249.397 58.072ZM249.397 57.448C249.727 57.448 249.994 57.328 250.197 57.088C250.399 56.848 250.501 56.5013 250.501 56.048C250.501 55.5947 250.399 55.2507 250.197 55.016C249.994 54.776 249.727 54.656 249.397 54.656C249.061 54.656 248.791 54.776 248.589 55.016C248.386 55.2507 248.285 55.5947 248.285 56.048C248.285 56.5013 248.386 56.848 248.589 57.088C248.791 57.328 249.061 57.448 249.397 57.448ZM255.598 58.072C255.171 58.072 254.851 57.952 254.638 57.712C254.43 57.472 254.326 57.12 254.326 56.656V52.36H255.134V56.608C255.134 57.136 255.35 57.4 255.782 57.4C255.846 57.4 255.904 57.3973 255.958 57.392C256.016 57.3867 256.075 57.376 256.134 57.36L256.118 58.008C255.936 58.0507 255.763 58.072 255.598 58.072ZM258.428 58.072C258.033 58.072 257.692 57.9893 257.404 57.824C257.116 57.6587 256.892 57.4267 256.732 57.128C256.577 56.824 256.5 56.464 256.5 56.048C256.5 55.632 256.577 55.2747 256.732 54.976C256.892 54.672 257.116 54.4373 257.404 54.272C257.692 54.1067 258.033 54.024 258.428 54.024C258.812 54.024 259.148 54.1067 259.436 54.272C259.724 54.4373 259.948 54.672 260.108 54.976C260.268 55.2747 260.348 55.632 260.348 56.048C260.348 56.464 260.268 56.824 260.108 57.128C259.948 57.4267 259.724 57.6587 259.436 57.824C259.148 57.9893 258.812 58.072 258.428 58.072ZM258.428 57.448C258.759 57.448 259.025 57.328 259.228 57.088C259.431 56.848 259.532 56.5013 259.532 56.048C259.532 55.5947 259.431 55.2507 259.228 55.016C259.025 54.776 258.759 54.656 258.428 54.656C258.092 54.656 257.823 54.776 257.62 55.016C257.417 55.2507 257.316 55.5947 257.316 56.048C257.316 56.5013 257.417 56.848 257.62 57.088C257.823 57.328 258.092 57.448 258.428 57.448ZM262.624 58.072C262.304 58.072 262.005 58.032 261.728 57.952C261.45 57.8667 261.218 57.7493 261.032 57.6L261.264 57.056C261.461 57.1947 261.677 57.3013 261.912 57.376C262.152 57.4507 262.392 57.488 262.632 57.488C262.914 57.488 263.128 57.4373 263.272 57.336C263.416 57.2347 263.488 57.0987 263.488 56.928C263.488 56.7893 263.44 56.6827 263.344 56.608C263.248 56.528 263.104 56.4667 262.912 56.424L262.152 56.272C261.48 56.1333 261.144 55.7867 261.144 55.232C261.144 54.864 261.29 54.5707 261.584 54.352C261.877 54.1333 262.261 54.024 262.736 54.024C263.008 54.024 263.266 54.064 263.512 54.144C263.762 54.224 263.97 54.344 264.136 54.504L263.904 55.048C263.744 54.9093 263.56 54.8027 263.352 54.728C263.144 54.6533 262.938 54.616 262.736 54.616C262.458 54.616 262.248 54.6693 262.104 54.776C261.96 54.8773 261.888 55.016 261.888 55.192C261.888 55.4587 262.064 55.6293 262.416 55.704L263.176 55.856C263.522 55.9253 263.784 56.0427 263.96 56.208C264.141 56.3733 264.232 56.5973 264.232 56.88C264.232 57.2533 264.085 57.5467 263.792 57.76C263.498 57.968 263.109 58.072 262.624 58.072ZM268.952 58.072C268.552 58.072 268.205 57.9893 267.912 57.824C267.624 57.6533 267.4 57.416 267.24 57.112C267.08 56.8027 267 56.44 267 56.024C267 55.4053 267.176 54.9173 267.528 54.56C267.88 54.2027 268.355 54.024 268.952 54.024C269.197 54.024 269.44 54.0667 269.68 54.152C269.92 54.2373 270.117 54.3547 270.272 54.504L270.016 55.072C269.867 54.9333 269.701 54.832 269.52 54.768C269.344 54.6987 269.176 54.664 269.016 54.664C268.637 54.664 268.344 54.784 268.136 55.024C267.933 55.2587 267.832 55.5947 267.832 56.032C267.832 56.4693 267.933 56.8133 268.136 57.064C268.344 57.3093 268.637 57.432 269.016 57.432C269.176 57.432 269.344 57.4 269.52 57.336C269.701 57.2667 269.867 57.1627 270.016 57.024L270.272 57.6C270.117 57.744 269.917 57.8587 269.672 57.944C269.432 58.0293 269.192 58.072 268.952 58.072ZM272.584 58.072C272.19 58.072 271.848 57.9893 271.56 57.824C271.272 57.6587 271.048 57.4267 270.888 57.128C270.734 56.824 270.656 56.464 270.656 56.048C270.656 55.632 270.734 55.2747 270.888 54.976C271.048 54.672 271.272 54.4373 271.56 54.272C271.848 54.1067 272.19 54.024 272.584 54.024C272.968 54.024 273.304 54.1067 273.592 54.272C273.88 54.4373 274.104 54.672 274.264 54.976C274.424 55.2747 274.504 55.632 274.504 56.048C274.504 56.464 274.424 56.824 274.264 57.128C274.104 57.4267 273.88 57.6587 273.592 57.824C273.304 57.9893 272.968 58.072 272.584 58.072ZM272.584 57.448C272.915 57.448 273.182 57.328 273.384 57.088C273.587 56.848 273.688 56.5013 273.688 56.048C273.688 55.5947 273.587 55.2507 273.384 55.016C273.182 54.776 272.915 54.656 272.584 54.656C272.248 54.656 271.979 54.776 271.776 55.016C271.574 55.2507 271.472 55.5947 271.472 56.048C271.472 56.5013 271.574 56.848 271.776 57.088C271.979 57.328 272.248 57.448 272.584 57.448ZM276.684 58.072C276.257 58.072 275.937 57.952 275.724 57.712C275.516 57.472 275.412 57.12 275.412 56.656V52.36H276.22V56.608C276.22 57.136 276.436 57.4 276.868 57.4C276.932 57.4 276.99 57.3973 277.044 57.392C277.102 57.3867 277.161 57.376 277.22 57.36L277.204 58.008C277.022 58.0507 276.849 58.072 276.684 58.072ZM279.514 58.072C279.119 58.072 278.778 57.9893 278.49 57.824C278.202 57.6587 277.978 57.4267 277.818 57.128C277.663 56.824 277.586 56.464 277.586 56.048C277.586 55.632 277.663 55.2747 277.818 54.976C277.978 54.672 278.202 54.4373 278.49 54.272C278.778 54.1067 279.119 54.024 279.514 54.024C279.898 54.024 280.234 54.1067 280.522 54.272C280.81 54.4373 281.034 54.672 281.194 54.976C281.354 55.2747 281.434 55.632 281.434 56.048C281.434 56.464 281.354 56.824 281.194 57.128C281.034 57.4267 280.81 57.6587 280.522 57.824C280.234 57.9893 279.898 58.072 279.514 58.072ZM279.514 57.448C279.845 57.448 280.111 57.328 280.314 57.088C280.517 56.848 280.618 56.5013 280.618 56.048C280.618 55.5947 280.517 55.2507 280.314 55.016C280.111 54.776 279.845 54.656 279.514 54.656C279.178 54.656 278.909 54.776 278.706 55.016C278.503 55.2507 278.402 55.5947 278.402 56.048C278.402 56.5013 278.503 56.848 278.706 57.088C278.909 57.328 279.178 57.448 279.514 57.448ZM282.341 58V54.096H283.125V54.792C283.328 54.328 283.749 54.0693 284.389 54.016L284.653 54L284.709 54.688L284.221 54.736C283.512 54.8053 283.157 55.1707 283.157 55.832V58H282.341ZM287.103 58.072C286.463 58.072 285.959 57.8933 285.591 57.536C285.223 57.1733 285.039 56.68 285.039 56.056C285.039 55.656 285.119 55.304 285.279 55C285.444 54.6907 285.671 54.4507 285.959 54.28C286.247 54.1093 286.578 54.024 286.951 54.024C287.49 54.024 287.914 54.1973 288.223 54.544C288.532 54.8853 288.687 55.3573 288.687 55.96V56.232H285.823C285.882 57.0427 286.311 57.448 287.111 57.448C287.335 57.448 287.554 57.4133 287.767 57.344C287.986 57.2747 288.191 57.16 288.383 57L288.623 57.56C288.447 57.72 288.22 57.8453 287.943 57.936C287.666 58.0267 287.386 58.072 287.103 58.072ZM286.983 54.592C286.647 54.592 286.38 54.696 286.183 54.904C285.986 55.112 285.866 55.3893 285.823 55.736H288.007C287.991 55.3733 287.895 55.0933 287.719 54.896C287.543 54.6933 287.298 54.592 286.983 54.592ZM290.936 58.072C290.616 58.072 290.317 58.032 290.04 57.952C289.763 57.8667 289.531 57.7493 289.344 57.6L289.576 57.056C289.773 57.1947 289.989 57.3013 290.224 57.376C290.464 57.4507 290.704 57.488 290.944 57.488C291.227 57.488 291.44 57.4373 291.584 57.336C291.728 57.2347 291.8 57.0987 291.8 56.928C291.8 56.7893 291.752 56.6827 291.656 56.608C291.56 56.528 291.416 56.4667 291.224 56.424L290.464 56.272C289.792 56.1333 289.456 55.7867 289.456 55.232C289.456 54.864 289.603 54.5707 289.896 54.352C290.189 54.1333 290.573 54.024 291.048 54.024C291.32 54.024 291.579 54.064 291.824 54.144C292.075 54.224 292.283 54.344 292.448 54.504L292.216 55.048C292.056 54.9093 291.872 54.8027 291.664 54.728C291.456 54.6533 291.251 54.616 291.048 54.616C290.771 54.616 290.56 54.6693 290.416 54.776C290.272 54.8773 290.2 55.016 290.2 55.192C290.2 55.4587 290.376 55.6293 290.728 55.704L291.488 55.856C291.835 55.9253 292.096 56.0427 292.272 56.208C292.453 56.3733 292.544 56.5973 292.544 56.88C292.544 57.2533 292.397 57.5467 292.104 57.76C291.811 57.968 291.421 58.072 290.936 58.072ZM239.073 70.072C238.753 70.072 238.454 70.032 238.177 69.952C237.899 69.8667 237.667 69.7493 237.481 69.6L237.713 69.056C237.91 69.1947 238.126 69.3013 238.361 69.376C238.601 69.4507 238.841 69.488 239.081 69.488C239.363 69.488 239.577 69.4373 239.721 69.336C239.865 69.2347 239.937 69.0987 239.937 68.928C239.937 68.7893 239.889 68.6827 239.793 68.608C239.697 68.528 239.553 68.4667 239.361 68.424L238.601 68.272C237.929 68.1333 237.593 67.7867 237.593 67.232C237.593 66.864 237.739 66.5707 238.033 66.352C238.326 66.1333 238.71 66.024 239.185 66.024C239.457 66.024 239.715 66.064 239.961 66.144C240.211 66.224 240.419 66.344 240.585 66.504L240.353 67.048C240.193 66.9093 240.009 66.8027 239.801 66.728C239.593 66.6533 239.387 66.616 239.185 66.616C238.907 66.616 238.697 66.6693 238.553 66.776C238.409 66.8773 238.337 67.016 238.337 67.192C238.337 67.4587 238.513 67.6293 238.865 67.704L239.625 67.856C239.971 67.9253 240.233 68.0427 240.409 68.208C240.59 68.3733 240.681 68.5973 240.681 68.88C240.681 69.2533 240.534 69.5467 240.241 69.76C239.947 69.968 239.558 70.072 239.073 70.072ZM242.972 70.072C242.028 70.072 241.556 69.5467 241.556 68.496V66.096H242.364V68.504C242.364 68.8187 242.428 69.0507 242.556 69.2C242.684 69.3493 242.886 69.424 243.164 69.424C243.468 69.424 243.713 69.3227 243.9 69.12C244.092 68.9173 244.188 68.6453 244.188 68.304V66.096H244.996V70H244.212V69.376C244.084 69.6053 243.913 69.7787 243.7 69.896C243.486 70.0133 243.244 70.072 242.972 70.072ZM246.366 70V66.72H245.606V66.096H246.366V66.024C246.366 65.4853 246.502 65.08 246.774 64.808C247.052 64.536 247.476 64.384 248.046 64.352L248.366 64.336L248.414 64.944L248.086 64.96C247.761 64.9813 247.526 65.0693 247.382 65.224C247.244 65.3787 247.174 65.608 247.174 65.912V66.096H249.662V70H248.854V66.72H247.174V70H246.366ZM248.782 65.192V64.352H249.726V65.192H248.782ZM252.511 70.072C252.111 70.072 251.764 69.9893 251.471 69.824C251.183 69.6533 250.959 69.416 250.799 69.112C250.639 68.8027 250.559 68.44 250.559 68.024C250.559 67.4053 250.735 66.9173 251.087 66.56C251.439 66.2027 251.913 66.024 252.511 66.024C252.756 66.024 252.999 66.0667 253.239 66.152C253.479 66.2373 253.676 66.3547 253.831 66.504L253.575 67.072C253.425 66.9333 253.26 66.832 253.079 66.768C252.903 66.6987 252.735 66.664 252.575 66.664C252.196 66.664 251.903 66.784 251.695 67.024C251.492 67.2587 251.391 67.5947 251.391 68.032C251.391 68.4693 251.492 68.8133 251.695 69.064C251.903 69.3093 252.196 69.432 252.575 69.432C252.735 69.432 252.903 69.4 253.079 69.336C253.26 69.2667 253.425 69.1627 253.575 69.024L253.831 69.6C253.676 69.744 253.476 69.8587 253.231 69.944C252.991 70.0293 252.751 70.072 252.511 70.072ZM254.453 65.192V64.352H255.397V65.192H254.453ZM254.525 70V66.096H255.333V70H254.525ZM258.302 70.072C257.662 70.072 257.158 69.8933 256.79 69.536C256.422 69.1733 256.238 68.68 256.238 68.056C256.238 67.656 256.318 67.304 256.478 67C256.644 66.6907 256.87 66.4507 257.158 66.28C257.446 66.1093 257.777 66.024 258.15 66.024C258.689 66.024 259.113 66.1973 259.422 66.544C259.732 66.8853 259.886 67.3573 259.886 67.96V68.232H257.022C257.081 69.0427 257.51 69.448 258.31 69.448C258.534 69.448 258.753 69.4133 258.966 69.344C259.185 69.2747 259.39 69.16 259.582 69L259.822 69.56C259.646 69.72 259.42 69.8453 259.142 69.936C258.865 70.0267 258.585 70.072 258.302 70.072ZM258.182 66.592C257.846 66.592 257.58 66.696 257.382 66.904C257.185 67.112 257.065 67.3893 257.022 67.736H259.206C259.19 67.3733 259.094 67.0933 258.918 66.896C258.742 66.6933 258.497 66.592 258.182 66.592ZM260.767 70V66.096H261.551V66.744C261.685 66.5093 261.866 66.3307 262.095 66.208C262.33 66.0853 262.591 66.024 262.879 66.024C263.802 66.024 264.263 66.5467 264.263 67.592V70H263.455V67.64C263.455 67.304 263.389 67.0587 263.255 66.904C263.127 66.7493 262.925 66.672 262.647 66.672C262.322 66.672 262.061 66.776 261.863 66.984C261.671 67.1867 261.575 67.456 261.575 67.792V70H260.767ZM267.041 70.072C266.55 70.072 266.185 69.9467 265.945 69.696C265.705 69.4453 265.585 69.0827 265.585 68.608V66.72H264.825V66.096H265.585V64.92H266.393V66.096H267.601V66.72H266.393V68.544C266.393 68.8267 266.451 69.04 266.569 69.184C266.691 69.328 266.889 69.4 267.161 69.4C267.246 69.4 267.329 69.392 267.409 69.376C267.489 69.3547 267.569 69.3307 267.649 69.304L267.777 69.912C267.697 69.96 267.585 69.9973 267.441 70.024C267.302 70.056 267.169 70.072 267.041 70.072ZM270.091 70.072C269.451 70.072 268.947 69.8933 268.579 69.536C268.211 69.1733 268.027 68.68 268.027 68.056C268.027 67.656 268.107 67.304 268.267 67C268.433 66.6907 268.659 66.4507 268.947 66.28C269.235 66.1093 269.566 66.024 269.939 66.024C270.478 66.024 270.902 66.1973 271.211 66.544C271.521 66.8853 271.675 67.3573 271.675 67.96V68.232H268.811C268.87 69.0427 269.299 69.448 270.099 69.448C270.323 69.448 270.542 69.4133 270.755 69.344C270.974 69.2747 271.179 69.16 271.371 69L271.611 69.56C271.435 69.72 271.209 69.8453 270.931 69.936C270.654 70.0267 270.374 70.072 270.091 70.072ZM269.971 66.592C269.635 66.592 269.369 66.696 269.171 66.904C268.974 67.112 268.854 67.3893 268.811 67.736H270.995C270.979 67.3733 270.883 67.0933 270.707 66.896C270.531 66.6933 270.286 66.592 269.971 66.592ZM273.924 70.072C273.604 70.072 273.306 70.032 273.028 69.952C272.751 69.8667 272.519 69.7493 272.332 69.6L272.564 69.056C272.762 69.1947 272.978 69.3013 273.212 69.376C273.452 69.4507 273.692 69.488 273.932 69.488C274.215 69.488 274.428 69.4373 274.572 69.336C274.716 69.2347 274.788 69.0987 274.788 68.928C274.788 68.7893 274.74 68.6827 274.644 68.608C274.548 68.528 274.404 68.4667 274.212 68.424L273.452 68.272C272.78 68.1333 272.444 67.7867 272.444 67.232C272.444 66.864 272.591 66.5707 272.884 66.352C273.178 66.1333 273.562 66.024 274.036 66.024C274.308 66.024 274.567 66.064 274.812 66.144C275.063 66.224 275.271 66.344 275.436 66.504L275.204 67.048C275.044 66.9093 274.86 66.8027 274.652 66.728C274.444 66.6533 274.239 66.616 274.036 66.616C273.759 66.616 273.548 66.6693 273.404 66.776C273.26 66.8773 273.188 67.016 273.188 67.192C273.188 67.4587 273.364 67.6293 273.716 67.704L274.476 67.856C274.823 67.9253 275.084 68.0427 275.26 68.208C275.442 68.3733 275.532 68.5973 275.532 68.88C275.532 69.2533 275.386 69.5467 275.092 69.76C274.799 69.968 274.41 70.072 273.924 70.072Z" fill="#363636"/>
<mask id="mask1_1831_18" style="mask-type:luminance" maskUnits="userSpaceOnUse" x="9" y="40" width="220" height="176">
<path d="M9.00002 216L229 216L229 40L9.00001 40.0001L9.00002 216Z" fill="white"/>
</mask>
<g mask="url(#mask1_1831_18)">
<path d="M129.514 202.062C125.59 202.062 122.405 200.852 122.405 199.361C122.405 197.871 125.59 196.661 129.514 196.661C133.437 196.661 136.623 197.871 136.623 199.361C136.623 200.852 133.437 202.062 129.514 202.062Z" fill="#F3AFAF"/>
<path d="M122.674 199.141L122.674 189.429L136.389 189.429L136.389 199.141L122.674 199.141Z" fill="#F3AFAF"/>
<path d="M122.466 200.607L122.466 189.386L126.302 189.386L126.302 200.607L122.466 200.607Z" fill="#E38E8E"/>
<path d="M125.751 201.745L126.348 200.461L122.818 200.425L125.751 201.745Z" fill="#E38E8E"/>
<path d="M122.228 189.607L122.228 108.291L136.537 108.291L136.537 189.607L122.228 189.607Z" fill="#9C73F8"/>
<path d="M132.583 189.607L132.583 108.291L136.875 108.291L136.875 189.607L132.583 189.607Z" fill="#CEB5FF"/>
<path d="M122.134 189.754L122.134 108.437L126.017 108.437L126.017 189.754L122.134 189.754Z" fill="#8446FF"/>
<path d="M122.055 192.694L122.055 182.276L136.843 182.276L136.843 192.694L122.055 192.694Z" fill="#6C85AA"/>
<path d="M122 192.694L122 182.276L124.56 182.276L124.56 192.694L122 192.694Z" fill="#3B577F"/>
<path d="M126.074 192.767L126.074 182.349L130.386 182.349L130.386 192.767L126.074 192.767Z" fill="#809ABF"/>
<path d="M134.232 192.694L134.232 182.275L136.19 182.275L136.19 192.694L134.232 192.694Z" fill="#ADC6EB"/>
<path d="M129.375 96L132.997 102.144L136.62 108.288L129.401 108.303L122.181 108.317L125.778 102.159L129.375 96Z" fill="#EBD1AD"/>
<path d="M124.972 113.047L128.089 110.187L130.289 112.167L132.489 109.527L134.78 112.754L136.797 108.501L135.33 106.447L124.972 105.494L122.222 108.354L124.972 113.047Z" fill="#EBD1AD"/>
<path d="M124.745 113.047L126.028 112.094L128.182 96.8777L122.223 108.574L124.745 113.047Z" fill="#D5B78E"/>
<path d="M135.514 111.288L136.706 108.537L131.344 98.564L135.514 111.288Z" fill="#FAE4C5"/>
<path d="M127.729 96.8115C127.103 97.8246 127.482 99.1533 128.66 99.3288C129.254 99.4174 129.933 99.437 130.636 99.2989C131.674 99.0951 131.957 97.9828 131.402 97.0815C131.345 96.9878 131.286 96.8924 131.226 96.7959C130.421 95.4949 128.533 95.5097 127.729 96.8115V96.8115Z" fill="#515567"/>
</g>
<path d="M260.367 79.9996C260.367 79.9996 254.761 103.378 219.694 118.733" stroke="#363636" stroke-linecap="round" stroke-linejoin="round"/>
<path d="M223.841 111.559L219.803 120.461L229.282 120.194" stroke="#363636" stroke-linecap="round" stroke-linejoin="round"/>
<path d="M66.695 75.0001C66.695 75.0001 72.3009 98.378 107.368 113.734" stroke="#363636" stroke-linecap="round" stroke-linejoin="round"/>
<path d="M103.221 106.559L107.259 115.461L97.7792 115.195" stroke="#363636" stroke-linecap="round" stroke-linejoin="round"/>
</svg>
