<svg width="282" height="289" viewBox="0 0 282 289" fill="none" xmlns="http://www.w3.org/2000/svg">
<rect x="51" y="25" width="19" height="88" rx="2.5" transform="rotate(-90 51 25)" fill="#8446FF" fill-opacity="0.4"/>
<rect x="194" y="25" width="19" height="88" rx="2.5" transform="rotate(-90 194 25)" fill="#8446FF" fill-opacity="0.4"/>
<rect x="194" y="50" width="19" height="88" rx="2.5" transform="rotate(-90 194 50)" fill="#8446FF" fill-opacity="0.4"/>
<rect x="51" y="97" width="35" height="88" rx="2.5" transform="rotate(-90 51 97)" fill="#8446FF" fill-opacity="0.4"/>
<rect x="194" y="97" width="35" height="88" rx="2.5" transform="rotate(-90 194 97)" fill="url(#paint0_linear_1758_17)" fill-opacity="0.4"/>
<rect x="51" y="289" width="30" height="88" rx="2.5" transform="rotate(-90 51 289)" fill="#8446FF" fill-opacity="0.4"/>
<rect x="194" y="289" width="30" height="88" rx="2.5" transform="rotate(-90 194 289)" fill="url(#paint1_linear_1758_17)" fill-opacity="0.4"/>
<rect x="194" y="132" width="23" height="88" rx="2.5" transform="rotate(-90 194 132)" fill="url(#paint2_linear_1758_17)" fill-opacity="0.4"/>
<rect x="51" y="247" width="138" height="88" rx="2.5" transform="rotate(-90 51 247)" fill="#8446FF" fill-opacity="0.4"/>
<rect x="194" y="247" width="109" height="88" rx="2.5" transform="rotate(-90 194 247)" fill="url(#paint3_linear_1758_17)" fill-opacity="0.4"/>
<path d="M69.84 19V11.95H70.71L73.32 16.82L75.92 11.95H76.77V19H75.84V13.83L73.63 17.92H73L70.78 13.85V19H69.84ZM80.6133 19.09C79.8133 19.09 79.1833 18.8667 78.7233 18.42C78.2633 17.9667 78.0333 17.35 78.0333 16.57C78.0333 16.07 78.1333 15.63 78.3333 15.25C78.5399 14.8633 78.8233 14.5633 79.1833 14.35C79.5433 14.1367 79.9566 14.03 80.4233 14.03C81.0966 14.03 81.6266 14.2467 82.0133 14.68C82.3999 15.1067 82.5933 15.6967 82.5933 16.45V16.79H79.0133C79.0866 17.8033 79.6233 18.31 80.6233 18.31C80.9033 18.31 81.1766 18.2667 81.4433 18.18C81.7166 18.0933 81.9733 17.95 82.2133 17.75L82.5133 18.45C82.2933 18.65 82.0099 18.8067 81.6633 18.92C81.3166 19.0333 80.9666 19.09 80.6133 19.09ZM80.4633 14.74C80.0433 14.74 79.7099 14.87 79.4633 15.13C79.2166 15.39 79.0666 15.7367 79.0133 16.17H81.7433C81.7233 15.7167 81.6033 15.3667 81.3833 15.12C81.1633 14.8667 80.8566 14.74 80.4633 14.74ZM85.5544 19.09C85.1277 19.09 84.751 18.99 84.4244 18.79C84.1044 18.5833 83.8544 18.29 83.6744 17.91C83.4944 17.53 83.4044 17.08 83.4044 16.56C83.4044 16.04 83.4944 15.5933 83.6744 15.22C83.8544 14.84 84.1044 14.5467 84.4244 14.34C84.7444 14.1333 85.121 14.03 85.5544 14.03C85.921 14.03 86.2477 14.11 86.5344 14.27C86.821 14.43 87.0344 14.6467 87.1744 14.92V11.95H88.1844V19H87.1944V18.15C87.0544 18.4433 86.8377 18.6733 86.5444 18.84C86.2577 19.0067 85.9277 19.09 85.5544 19.09ZM85.8144 18.31C86.2277 18.31 86.561 18.16 86.8144 17.86C87.0677 17.56 87.1944 17.1267 87.1944 16.56C87.1944 15.9933 87.0677 15.5633 86.8144 15.27C86.561 14.97 86.2277 14.82 85.8144 14.82C85.3944 14.82 85.0577 14.97 84.8044 15.27C84.551 15.5633 84.4244 15.9933 84.4244 16.56C84.4244 17.1267 84.551 17.56 84.8044 17.86C85.0577 18.16 85.3944 18.31 85.8144 18.31ZM89.5126 12.99V11.94H90.6926V12.99H89.5126ZM89.6026 19V14.12H90.6126V19H89.6026ZM94.1142 19.09C93.5009 19.09 93.0442 18.9333 92.7442 18.62C92.4442 18.3067 92.2942 17.8533 92.2942 17.26V14.9H91.3442V14.12H92.2942V12.65H93.3042V14.12H94.8142V14.9H93.3042V17.18C93.3042 17.5333 93.3776 17.8 93.5242 17.98C93.6776 18.16 93.9242 18.25 94.2642 18.25C94.3709 18.25 94.4742 18.24 94.5742 18.22C94.6742 18.1933 94.7742 18.1633 94.8742 18.13L95.0342 18.89C94.9342 18.95 94.7942 18.9967 94.6142 19.03C94.4409 19.07 94.2742 19.09 94.1142 19.09ZM97.2466 19.09C96.9066 19.09 96.6032 19.0233 96.3366 18.89C96.0699 18.7567 95.8566 18.5767 95.6966 18.35C95.5432 18.1233 95.4666 17.8667 95.4666 17.58C95.4666 17.22 95.5566 16.9367 95.7366 16.73C95.9232 16.5233 96.2266 16.3733 96.6466 16.28C97.0732 16.1867 97.6466 16.14 98.3666 16.14H98.7066V15.88C98.7066 15.5 98.6266 15.2267 98.4666 15.06C98.3066 14.8933 98.0432 14.81 97.6766 14.81C97.3966 14.81 97.1166 14.8533 96.8366 14.94C96.5566 15.02 96.2699 15.15 95.9766 15.33L95.6666 14.62C95.9199 14.44 96.2366 14.2967 96.6166 14.19C96.9966 14.0833 97.3599 14.03 97.7066 14.03C98.3732 14.03 98.8666 14.19 99.1866 14.51C99.5066 14.8233 99.6666 15.3167 99.6666 15.99V19H98.7166V18.19C98.5966 18.47 98.4099 18.69 98.1566 18.85C97.9032 19.01 97.5999 19.09 97.2466 19.09ZM97.4466 18.37C97.8066 18.37 98.1066 18.2433 98.3466 17.99C98.5866 17.7367 98.7066 17.4167 98.7066 17.03V16.76H98.3766C97.8899 16.76 97.5066 16.7833 97.2266 16.83C96.9532 16.8767 96.7566 16.9567 96.6366 17.07C96.5232 17.1767 96.4666 17.3267 96.4666 17.52C96.4666 17.7733 96.5532 17.98 96.7266 18.14C96.8999 18.2933 97.1399 18.37 97.4466 18.37ZM103.208 19.09C102.708 19.09 102.274 18.9867 101.908 18.78C101.548 18.5667 101.268 18.27 101.068 17.89C100.868 17.5033 100.768 17.05 100.768 16.53C100.768 15.7567 100.988 15.1467 101.428 14.7C101.868 14.2533 102.461 14.03 103.208 14.03C103.514 14.03 103.818 14.0833 104.118 14.19C104.418 14.2967 104.664 14.4433 104.858 14.63L104.538 15.34C104.351 15.1667 104.144 15.04 103.918 14.96C103.698 14.8733 103.488 14.83 103.288 14.83C102.814 14.83 102.448 14.98 102.188 15.28C101.934 15.5733 101.808 15.9933 101.808 16.54C101.808 17.0867 101.934 17.5167 102.188 17.83C102.448 18.1367 102.814 18.29 103.288 18.29C103.488 18.29 103.698 18.25 103.918 18.17C104.144 18.0833 104.351 17.9533 104.538 17.78L104.858 18.5C104.664 18.68 104.414 18.8233 104.108 18.93C103.808 19.0367 103.508 19.09 103.208 19.09ZM105.636 12.99V11.94H106.816V12.99H105.636ZM105.726 19V14.12H106.736V19H105.726ZM110.277 19.09C109.784 19.09 109.357 18.9867 108.997 18.78C108.637 18.5733 108.357 18.2833 108.157 17.91C107.964 17.53 107.867 17.08 107.867 16.56C107.867 16.04 107.964 15.5933 108.157 15.22C108.357 14.84 108.637 14.5467 108.997 14.34C109.357 14.1333 109.784 14.03 110.277 14.03C110.757 14.03 111.177 14.1333 111.537 14.34C111.897 14.5467 112.177 14.84 112.377 15.22C112.577 15.5933 112.677 16.04 112.677 16.56C112.677 17.08 112.577 17.53 112.377 17.91C112.177 18.2833 111.897 18.5733 111.537 18.78C111.177 18.9867 110.757 19.09 110.277 19.09ZM110.277 18.31C110.691 18.31 111.024 18.16 111.277 17.86C111.531 17.56 111.657 17.1267 111.657 16.56C111.657 15.9933 111.531 15.5633 111.277 15.27C111.024 14.97 110.691 14.82 110.277 14.82C109.857 14.82 109.521 14.97 109.267 15.27C109.014 15.5633 108.887 15.9933 108.887 16.56C108.887 17.1267 109.014 17.56 109.267 17.86C109.521 18.16 109.857 18.31 110.277 18.31ZM109.927 13.47L110.957 11.45H111.987L110.627 13.47H109.927ZM113.812 19V14.12H114.792V14.93C114.958 14.6367 115.185 14.4133 115.472 14.26C115.765 14.1067 116.092 14.03 116.452 14.03C117.605 14.03 118.182 14.6833 118.182 15.99V19H117.172V16.05C117.172 15.63 117.088 15.3233 116.922 15.13C116.762 14.9367 116.508 14.84 116.162 14.84C115.755 14.84 115.428 14.97 115.182 15.23C114.942 15.4833 114.822 15.82 114.822 16.24V19H113.812Z" fill="#363636"/>
<path d="M211.84 19V11.95H212.71L215.32 16.82L217.92 11.95H218.77V19H217.84V13.83L215.63 17.92H215L212.78 13.85V19H211.84ZM222.613 19.09C221.813 19.09 221.183 18.8667 220.723 18.42C220.263 17.9667 220.033 17.35 220.033 16.57C220.033 16.07 220.133 15.63 220.333 15.25C220.54 14.8633 220.823 14.5633 221.183 14.35C221.543 14.1367 221.957 14.03 222.423 14.03C223.097 14.03 223.627 14.2467 224.013 14.68C224.4 15.1067 224.593 15.6967 224.593 16.45V16.79H221.013C221.087 17.8033 221.623 18.31 222.623 18.31C222.903 18.31 223.177 18.2667 223.443 18.18C223.717 18.0933 223.973 17.95 224.213 17.75L224.513 18.45C224.293 18.65 224.01 18.8067 223.663 18.92C223.317 19.0333 222.967 19.09 222.613 19.09ZM222.463 14.74C222.043 14.74 221.71 14.87 221.463 15.13C221.217 15.39 221.067 15.7367 221.013 16.17H223.743C223.723 15.7167 223.603 15.3667 223.383 15.12C223.163 14.8667 222.857 14.74 222.463 14.74ZM227.554 19.09C227.128 19.09 226.751 18.99 226.424 18.79C226.104 18.5833 225.854 18.29 225.674 17.91C225.494 17.53 225.404 17.08 225.404 16.56C225.404 16.04 225.494 15.5933 225.674 15.22C225.854 14.84 226.104 14.5467 226.424 14.34C226.744 14.1333 227.121 14.03 227.554 14.03C227.921 14.03 228.248 14.11 228.534 14.27C228.821 14.43 229.034 14.6467 229.174 14.92V11.95H230.184V19H229.194V18.15C229.054 18.4433 228.838 18.6733 228.544 18.84C228.258 19.0067 227.928 19.09 227.554 19.09ZM227.814 18.31C228.228 18.31 228.561 18.16 228.814 17.86C229.068 17.56 229.194 17.1267 229.194 16.56C229.194 15.9933 229.068 15.5633 228.814 15.27C228.561 14.97 228.228 14.82 227.814 14.82C227.394 14.82 227.058 14.97 226.804 15.27C226.551 15.5633 226.424 15.9933 226.424 16.56C226.424 17.1267 226.551 17.56 226.804 17.86C227.058 18.16 227.394 18.31 227.814 18.31ZM231.513 12.99V11.94H232.693V12.99H231.513ZM231.603 19V14.12H232.613V19H231.603ZM236.114 19.09C235.501 19.09 235.044 18.9333 234.744 18.62C234.444 18.3067 234.294 17.8533 234.294 17.26V14.9H233.344V14.12H234.294V12.65H235.304V14.12H236.814V14.9H235.304V17.18C235.304 17.5333 235.378 17.8 235.524 17.98C235.678 18.16 235.924 18.25 236.264 18.25C236.371 18.25 236.474 18.24 236.574 18.22C236.674 18.1933 236.774 18.1633 236.874 18.13L237.034 18.89C236.934 18.95 236.794 18.9967 236.614 19.03C236.441 19.07 236.274 19.09 236.114 19.09ZM239.247 19.09C238.907 19.09 238.603 19.0233 238.337 18.89C238.07 18.7567 237.857 18.5767 237.697 18.35C237.543 18.1233 237.467 17.8667 237.467 17.58C237.467 17.22 237.557 16.9367 237.737 16.73C237.923 16.5233 238.227 16.3733 238.647 16.28C239.073 16.1867 239.647 16.14 240.367 16.14H240.707V15.88C240.707 15.5 240.627 15.2267 240.467 15.06C240.307 14.8933 240.043 14.81 239.677 14.81C239.397 14.81 239.117 14.8533 238.837 14.94C238.557 15.02 238.27 15.15 237.977 15.33L237.667 14.62C237.92 14.44 238.237 14.2967 238.617 14.19C238.997 14.0833 239.36 14.03 239.707 14.03C240.373 14.03 240.867 14.19 241.187 14.51C241.507 14.8233 241.667 15.3167 241.667 15.99V19H240.717V18.19C240.597 18.47 240.41 18.69 240.157 18.85C239.903 19.01 239.6 19.09 239.247 19.09ZM239.447 18.37C239.807 18.37 240.107 18.2433 240.347 17.99C240.587 17.7367 240.707 17.4167 240.707 17.03V16.76H240.377C239.89 16.76 239.507 16.7833 239.227 16.83C238.953 16.8767 238.757 16.9567 238.637 17.07C238.523 17.1767 238.467 17.3267 238.467 17.52C238.467 17.7733 238.553 17.98 238.727 18.14C238.9 18.2933 239.14 18.37 239.447 18.37ZM245.208 19.09C244.708 19.09 244.274 18.9867 243.908 18.78C243.548 18.5667 243.268 18.27 243.068 17.89C242.868 17.5033 242.768 17.05 242.768 16.53C242.768 15.7567 242.988 15.1467 243.428 14.7C243.868 14.2533 244.461 14.03 245.208 14.03C245.514 14.03 245.818 14.0833 246.118 14.19C246.418 14.2967 246.664 14.4433 246.858 14.63L246.538 15.34C246.351 15.1667 246.144 15.04 245.918 14.96C245.698 14.8733 245.488 14.83 245.288 14.83C244.814 14.83 244.448 14.98 244.188 15.28C243.934 15.5733 243.808 15.9933 243.808 16.54C243.808 17.0867 243.934 17.5167 244.188 17.83C244.448 18.1367 244.814 18.29 245.288 18.29C245.488 18.29 245.698 18.25 245.918 18.17C246.144 18.0833 246.351 17.9533 246.538 17.78L246.858 18.5C246.664 18.68 246.414 18.8233 246.108 18.93C245.808 19.0367 245.508 19.09 245.208 19.09ZM247.636 12.99V11.94H248.816V12.99H247.636ZM247.726 19V14.12H248.736V19H247.726ZM252.277 19.09C251.784 19.09 251.357 18.9867 250.997 18.78C250.637 18.5733 250.357 18.2833 250.157 17.91C249.964 17.53 249.867 17.08 249.867 16.56C249.867 16.04 249.964 15.5933 250.157 15.22C250.357 14.84 250.637 14.5467 250.997 14.34C251.357 14.1333 251.784 14.03 252.277 14.03C252.757 14.03 253.177 14.1333 253.537 14.34C253.897 14.5467 254.177 14.84 254.377 15.22C254.577 15.5933 254.677 16.04 254.677 16.56C254.677 17.08 254.577 17.53 254.377 17.91C254.177 18.2833 253.897 18.5733 253.537 18.78C253.177 18.9867 252.757 19.09 252.277 19.09ZM252.277 18.31C252.691 18.31 253.024 18.16 253.277 17.86C253.531 17.56 253.657 17.1267 253.657 16.56C253.657 15.9933 253.531 15.5633 253.277 15.27C253.024 14.97 252.691 14.82 252.277 14.82C251.857 14.82 251.521 14.97 251.267 15.27C251.014 15.5633 250.887 15.9933 250.887 16.56C250.887 17.1267 251.014 17.56 251.267 17.86C251.521 18.16 251.857 18.31 252.277 18.31ZM251.927 13.47L252.957 11.45H253.987L252.627 13.47H251.927ZM255.812 19V14.12H256.792V14.93C256.958 14.6367 257.185 14.4133 257.472 14.26C257.765 14.1067 258.092 14.03 258.452 14.03C259.605 14.03 260.182 14.6833 260.182 15.99V19H259.172V16.05C259.172 15.63 259.088 15.3233 258.922 15.13C258.762 14.9367 258.508 14.84 258.162 14.84C257.755 14.84 257.428 14.97 257.182 15.23C256.942 15.4833 256.822 15.82 256.822 16.24V19H255.812Z" fill="#363636"/>
<path d="M211.82 44V36.95H216.38V37.79H212.82V40H216.17V40.84H212.82V43.16H216.38V44H211.82ZM217.549 37.99V36.94H218.729V37.99H217.549ZM216.409 45.93L216.339 45.17L216.779 45.13C217.345 45.07 217.629 44.73 217.629 44.11V39.12H218.639V44C218.639 44.6133 218.495 45.07 218.209 45.37C217.929 45.6767 217.472 45.8533 216.839 45.9L216.409 45.93ZM222.35 44.09C221.55 44.09 220.92 43.8667 220.46 43.42C220 42.9667 219.77 42.35 219.77 41.57C219.77 41.07 219.87 40.63 220.07 40.25C220.276 39.8633 220.56 39.5633 220.92 39.35C221.28 39.1367 221.693 39.03 222.16 39.03C222.833 39.03 223.363 39.2467 223.75 39.68C224.136 40.1067 224.33 40.6967 224.33 41.45V41.79H220.75C220.823 42.8033 221.36 43.31 222.36 43.31C222.64 43.31 222.913 43.2667 223.18 43.18C223.453 43.0933 223.71 42.95 223.95 42.75L224.25 43.45C224.03 43.65 223.746 43.8067 223.4 43.92C223.053 44.0333 222.703 44.09 222.35 44.09ZM222.2 39.74C221.78 39.74 221.446 39.87 221.2 40.13C220.953 40.39 220.803 40.7367 220.75 41.17H223.48C223.46 40.7167 223.34 40.3667 223.12 40.12C222.9 39.8667 222.593 39.74 222.2 39.74ZM225.431 44V39.12H226.411V39.99C226.664 39.41 227.191 39.0867 227.991 39.02L228.321 39L228.391 39.86L227.781 39.92C226.894 40.0067 226.451 40.4633 226.451 41.29V44H225.431ZM231.243 44.09C230.743 44.09 230.309 43.9867 229.943 43.78C229.583 43.5667 229.303 43.27 229.103 42.89C228.903 42.5033 228.803 42.05 228.803 41.53C228.803 40.7567 229.023 40.1467 229.463 39.7C229.903 39.2533 230.496 39.03 231.243 39.03C231.549 39.03 231.853 39.0833 232.153 39.19C232.453 39.2967 232.699 39.4433 232.893 39.63L232.573 40.34C232.386 40.1667 232.179 40.04 231.953 39.96C231.733 39.8733 231.523 39.83 231.323 39.83C230.849 39.83 230.483 39.98 230.223 40.28C229.969 40.5733 229.843 40.9933 229.843 41.54C229.843 42.0867 229.969 42.5167 230.223 42.83C230.483 43.1367 230.849 43.29 231.323 43.29C231.523 43.29 231.733 43.25 231.953 43.17C232.179 43.0833 232.386 42.9533 232.573 42.78L232.893 43.5C232.699 43.68 232.449 43.8233 232.143 43.93C231.843 44.0367 231.543 44.09 231.243 44.09ZM233.671 37.99V36.94H234.851V37.99H233.671ZM233.761 44V39.12H234.771V44H233.761ZM238.272 44.09C237.659 44.09 237.202 43.9333 236.902 43.62C236.602 43.3067 236.452 42.8533 236.452 42.26V39.9H235.502V39.12H236.452V37.65H237.462V39.12H238.972V39.9H237.462V42.18C237.462 42.5333 237.536 42.8 237.682 42.98C237.836 43.16 238.082 43.25 238.422 43.25C238.529 43.25 238.632 43.24 238.732 43.22C238.832 43.1933 238.932 43.1633 239.032 43.13L239.192 43.89C239.092 43.95 238.952 43.9967 238.772 44.03C238.599 44.07 238.432 44.09 238.272 44.09ZM241.405 44.09C241.065 44.09 240.761 44.0233 240.495 43.89C240.228 43.7567 240.015 43.5767 239.855 43.35C239.701 43.1233 239.625 42.8667 239.625 42.58C239.625 42.22 239.715 41.9367 239.895 41.73C240.081 41.5233 240.385 41.3733 240.805 41.28C241.231 41.1867 241.805 41.14 242.525 41.14H242.865V40.88C242.865 40.5 242.785 40.2267 242.625 40.06C242.465 39.8933 242.201 39.81 241.835 39.81C241.555 39.81 241.275 39.8533 240.995 39.94C240.715 40.02 240.428 40.15 240.135 40.33L239.825 39.62C240.078 39.44 240.395 39.2967 240.775 39.19C241.155 39.0833 241.518 39.03 241.865 39.03C242.531 39.03 243.025 39.19 243.345 39.51C243.665 39.8233 243.825 40.3167 243.825 40.99V44H242.875V43.19C242.755 43.47 242.568 43.69 242.315 43.85C242.061 44.01 241.758 44.09 241.405 44.09ZM241.605 43.37C241.965 43.37 242.265 43.2433 242.505 42.99C242.745 42.7367 242.865 42.4167 242.865 42.03V41.76H242.535C242.048 41.76 241.665 41.7833 241.385 41.83C241.111 41.8767 240.915 41.9567 240.795 42.07C240.681 42.1767 240.625 42.3267 240.625 42.52C240.625 42.7733 240.711 42.98 240.885 43.14C241.058 43.2933 241.298 43.37 241.605 43.37ZM247.366 44.09C246.866 44.09 246.433 43.9867 246.066 43.78C245.706 43.5667 245.426 43.27 245.226 42.89C245.026 42.5033 244.926 42.05 244.926 41.53C244.926 40.7567 245.146 40.1467 245.586 39.7C246.026 39.2533 246.619 39.03 247.366 39.03C247.673 39.03 247.976 39.0833 248.276 39.19C248.576 39.2967 248.823 39.4433 249.016 39.63L248.696 40.34C248.509 40.1667 248.303 40.04 248.076 39.96C247.856 39.8733 247.646 39.83 247.446 39.83C246.973 39.83 246.606 39.98 246.346 40.28C246.093 40.5733 245.966 40.9933 245.966 41.54C245.966 42.0867 246.093 42.5167 246.346 42.83C246.606 43.1367 246.973 43.29 247.446 43.29C247.646 43.29 247.856 43.25 248.076 43.17C248.303 43.0833 248.509 42.9533 248.696 42.78L249.016 43.5C248.823 43.68 248.573 43.8233 248.266 43.93C247.966 44.0367 247.666 44.09 247.366 44.09ZM249.794 37.99V36.94H250.974V37.99H249.794ZM249.884 44V39.12H250.894V44H249.884ZM254.435 44.09C253.942 44.09 253.515 43.9867 253.155 43.78C252.795 43.5733 252.515 43.2833 252.315 42.91C252.122 42.53 252.025 42.08 252.025 41.56C252.025 41.04 252.122 40.5933 252.315 40.22C252.515 39.84 252.795 39.5467 253.155 39.34C253.515 39.1333 253.942 39.03 254.435 39.03C254.915 39.03 255.335 39.1333 255.695 39.34C256.055 39.5467 256.335 39.84 256.535 40.22C256.735 40.5933 256.835 41.04 256.835 41.56C256.835 42.08 256.735 42.53 256.535 42.91C256.335 43.2833 256.055 43.5733 255.695 43.78C255.335 43.9867 254.915 44.09 254.435 44.09ZM254.435 43.31C254.849 43.31 255.182 43.16 255.435 42.86C255.689 42.56 255.815 42.1267 255.815 41.56C255.815 40.9933 255.689 40.5633 255.435 40.27C255.182 39.97 254.849 39.82 254.435 39.82C254.015 39.82 253.679 39.97 253.425 40.27C253.172 40.5633 253.045 40.9933 253.045 41.56C253.045 42.1267 253.172 42.56 253.425 42.86C253.679 43.16 254.015 43.31 254.435 43.31ZM254.085 38.47L255.115 36.45H256.145L254.785 38.47H254.085ZM257.97 44V39.12H258.95V39.93C259.116 39.6367 259.343 39.4133 259.63 39.26C259.923 39.1067 260.25 39.03 260.61 39.03C261.763 39.03 262.34 39.6833 262.34 40.99V44H261.33V41.05C261.33 40.63 261.246 40.3233 261.08 40.13C260.92 39.9367 260.666 39.84 260.32 39.84C259.913 39.84 259.586 39.97 259.34 40.23C259.1 40.4833 258.98 40.82 258.98 41.24V44H257.97Z" fill="#363636"/>
<path d="M66.82 83V75.95H67.86V82.11H71.35V83H66.82ZM74.4688 83.09C73.6688 83.09 73.0388 82.8667 72.5788 82.42C72.1188 81.9667 71.8888 81.35 71.8888 80.57C71.8888 80.07 71.9888 79.63 72.1888 79.25C72.3954 78.8633 72.6788 78.5633 73.0388 78.35C73.3988 78.1367 73.8121 78.03 74.2788 78.03C74.9521 78.03 75.4821 78.2467 75.8688 78.68C76.2554 79.1067 76.4488 79.6967 76.4488 80.45V80.79H72.8688C72.9421 81.8033 73.4788 82.31 74.4788 82.31C74.7588 82.31 75.0321 82.2667 75.2988 82.18C75.5721 82.0933 75.8288 81.95 76.0688 81.75L76.3688 82.45C76.1488 82.65 75.8654 82.8067 75.5188 82.92C75.1721 83.0333 74.8221 83.09 74.4688 83.09ZM74.3188 78.74C73.8988 78.74 73.5654 78.87 73.3188 79.13C73.0721 79.39 72.9221 79.7367 72.8688 80.17H75.5988C75.5788 79.7167 75.4588 79.3667 75.2388 79.12C75.0188 78.8667 74.7121 78.74 74.3188 78.74ZM79.8398 83.09C79.0398 83.09 78.4098 82.8667 77.9498 82.42C77.4898 81.9667 77.2598 81.35 77.2598 80.57C77.2598 80.07 77.3598 79.63 77.5598 79.25C77.7665 78.8633 78.0498 78.5633 78.4098 78.35C78.7698 78.1367 79.1832 78.03 79.6498 78.03C80.3232 78.03 80.8532 78.2467 81.2398 78.68C81.6265 79.1067 81.8198 79.6967 81.8198 80.45V80.79H78.2398C78.3132 81.8033 78.8498 82.31 79.8498 82.31C80.1298 82.31 80.4032 82.2667 80.6698 82.18C80.9432 82.0933 81.1998 81.95 81.4398 81.75L81.7398 82.45C81.5198 82.65 81.2365 82.8067 80.8898 82.92C80.5432 83.0333 80.1932 83.09 79.8398 83.09ZM79.6898 78.74C79.2698 78.74 78.9365 78.87 78.6898 79.13C78.4432 79.39 78.2932 79.7367 78.2398 80.17H80.9698C80.9498 79.7167 80.8298 79.3667 80.6098 79.12C80.3898 78.8667 80.0832 78.74 79.6898 78.74ZM82.9209 83V78.12H83.9009V78.99C84.1543 78.41 84.6809 78.0867 85.4809 78.02L85.8109 78L85.8809 78.86L85.2709 78.92C84.3843 79.0067 83.9409 79.4633 83.9409 80.29V83H82.9209ZM91.0184 83.09C89.8384 83.09 89.2484 82.4333 89.2484 81.12V78.12H90.2584V81.13C90.2584 81.5233 90.3384 81.8133 90.4984 82C90.6584 82.1867 90.9117 82.28 91.2584 82.28C91.6384 82.28 91.945 82.1533 92.1784 81.9C92.4184 81.6467 92.5384 81.3067 92.5384 80.88V78.12H93.5484V83H92.5684V82.22C92.4084 82.5067 92.195 82.7233 91.9284 82.87C91.6617 83.0167 91.3584 83.09 91.0184 83.09ZM94.9717 83V78.12H95.9517V78.93C96.1184 78.6367 96.3451 78.4133 96.6317 78.26C96.9251 78.1067 97.2517 78.03 97.6117 78.03C98.7651 78.03 99.3417 78.6833 99.3417 79.99V83H98.3317V80.05C98.3317 79.63 98.2484 79.3233 98.0817 79.13C97.9217 78.9367 97.6684 78.84 97.3217 78.84C96.9151 78.84 96.5884 78.97 96.3417 79.23C96.1017 79.4833 95.9817 79.82 95.9817 80.24V83H94.9717ZM104.95 83.09C104.417 83.09 104.017 82.94 103.75 82.64C103.49 82.34 103.36 81.9 103.36 81.32V75.95H104.37V81.26C104.37 81.92 104.64 82.25 105.18 82.25C105.26 82.25 105.334 82.2467 105.4 82.24C105.474 82.2333 105.547 82.22 105.62 82.2L105.6 83.01C105.374 83.0633 105.157 83.09 104.95 83.09ZM106.327 76.99V75.94H107.507V76.99H106.327ZM106.417 83V78.12H107.427V83H106.417ZM111.469 83.09C111.095 83.09 110.765 83.0067 110.479 82.84C110.192 82.6733 109.979 82.45 109.839 82.17V83H108.849V75.95H109.859V78.91C110.005 78.6433 110.219 78.43 110.499 78.27C110.785 78.11 111.109 78.03 111.469 78.03C111.902 78.03 112.279 78.1333 112.599 78.34C112.925 78.5467 113.175 78.84 113.349 79.22C113.529 79.5933 113.619 80.04 113.619 80.56C113.619 81.08 113.529 81.53 113.349 81.91C113.175 82.29 112.925 82.5833 112.599 82.79C112.279 82.99 111.902 83.09 111.469 83.09ZM111.219 82.31C111.639 82.31 111.972 82.16 112.219 81.86C112.472 81.56 112.599 81.1267 112.599 80.56C112.599 79.9933 112.472 79.5633 112.219 79.27C111.972 78.97 111.639 78.82 111.219 78.82C110.799 78.82 110.462 78.97 110.209 79.27C109.962 79.5633 109.839 79.9933 109.839 80.56C109.839 81.1267 109.962 81.56 110.209 81.86C110.462 82.16 110.799 82.31 111.219 82.31ZM114.757 83V78.12H115.737V78.99C115.99 78.41 116.517 78.0867 117.317 78.02L117.647 78L117.717 78.86L117.107 78.92C116.22 79.0067 115.777 79.4633 115.777 80.29V83H114.757ZM120.539 83.09C120.046 83.09 119.619 82.9867 119.259 82.78C118.899 82.5733 118.619 82.2833 118.419 81.91C118.226 81.53 118.129 81.08 118.129 80.56C118.129 80.04 118.226 79.5933 118.419 79.22C118.619 78.84 118.899 78.5467 119.259 78.34C119.619 78.1333 120.046 78.03 120.539 78.03C121.019 78.03 121.439 78.1333 121.799 78.34C122.159 78.5467 122.439 78.84 122.639 79.22C122.839 79.5933 122.939 80.04 122.939 80.56C122.939 81.08 122.839 81.53 122.639 81.91C122.439 82.2833 122.159 82.5733 121.799 82.78C121.439 82.9867 121.019 83.09 120.539 83.09ZM120.539 82.31C120.952 82.31 121.286 82.16 121.539 81.86C121.792 81.56 121.919 81.1267 121.919 80.56C121.919 79.9933 121.792 79.5633 121.539 79.27C121.286 78.97 120.952 78.82 120.539 78.82C120.119 78.82 119.782 78.97 119.529 79.27C119.276 79.5633 119.149 79.9933 119.149 80.56C119.149 81.1267 119.276 81.56 119.529 81.86C119.782 82.16 120.119 82.31 120.539 82.31Z" fill="#363636"/>
<path d="M209.82 89V81.95H210.86V88.11H214.35V89H209.82ZM217.469 89.09C216.669 89.09 216.039 88.8667 215.579 88.42C215.119 87.9667 214.889 87.35 214.889 86.57C214.889 86.07 214.989 85.63 215.189 85.25C215.395 84.8633 215.679 84.5633 216.039 84.35C216.399 84.1367 216.812 84.03 217.279 84.03C217.952 84.03 218.482 84.2467 218.869 84.68C219.255 85.1067 219.449 85.6967 219.449 86.45V86.79H215.869C215.942 87.8033 216.479 88.31 217.479 88.31C217.759 88.31 218.032 88.2667 218.299 88.18C218.572 88.0933 218.829 87.95 219.069 87.75L219.369 88.45C219.149 88.65 218.865 88.8067 218.519 88.92C218.172 89.0333 217.822 89.09 217.469 89.09ZM217.319 84.74C216.899 84.74 216.565 84.87 216.319 85.13C216.072 85.39 215.922 85.7367 215.869 86.17H218.599C218.579 85.7167 218.459 85.3667 218.239 85.12C218.019 84.8667 217.712 84.74 217.319 84.74ZM222.84 89.09C222.04 89.09 221.41 88.8667 220.95 88.42C220.49 87.9667 220.26 87.35 220.26 86.57C220.26 86.07 220.36 85.63 220.56 85.25C220.767 84.8633 221.05 84.5633 221.41 84.35C221.77 84.1367 222.183 84.03 222.65 84.03C223.323 84.03 223.853 84.2467 224.24 84.68C224.627 85.1067 224.82 85.6967 224.82 86.45V86.79H221.24C221.313 87.8033 221.85 88.31 222.85 88.31C223.13 88.31 223.403 88.2667 223.67 88.18C223.943 88.0933 224.2 87.95 224.44 87.75L224.74 88.45C224.52 88.65 224.237 88.8067 223.89 88.92C223.543 89.0333 223.193 89.09 222.84 89.09ZM222.69 84.74C222.27 84.74 221.937 84.87 221.69 85.13C221.443 85.39 221.293 85.7367 221.24 86.17H223.97C223.95 85.7167 223.83 85.3667 223.61 85.12C223.39 84.8667 223.083 84.74 222.69 84.74ZM225.921 89V84.12H226.901V84.99C227.154 84.41 227.681 84.0867 228.481 84.02L228.811 84L228.881 84.86L228.271 84.92C227.384 85.0067 226.941 85.4633 226.941 86.29V89H225.921ZM234.018 89.09C232.838 89.09 232.248 88.4333 232.248 87.12V84.12H233.258V87.13C233.258 87.5233 233.338 87.8133 233.498 88C233.658 88.1867 233.912 88.28 234.258 88.28C234.638 88.28 234.945 88.1533 235.178 87.9C235.418 87.6467 235.538 87.3067 235.538 86.88V84.12H236.548V89H235.568V88.22C235.408 88.5067 235.195 88.7233 234.928 88.87C234.662 89.0167 234.358 89.09 234.018 89.09ZM237.972 89V84.12H238.952V84.93C239.118 84.6367 239.345 84.4133 239.632 84.26C239.925 84.1067 240.252 84.03 240.612 84.03C241.765 84.03 242.342 84.6833 242.342 85.99V89H241.332V86.05C241.332 85.63 241.248 85.3233 241.082 85.13C240.922 84.9367 240.668 84.84 240.322 84.84C239.915 84.84 239.588 84.97 239.342 85.23C239.102 85.4833 238.982 85.82 238.982 86.24V89H237.972ZM247.95 89.09C247.417 89.09 247.017 88.94 246.75 88.64C246.49 88.34 246.36 87.9 246.36 87.32V81.95H247.37V87.26C247.37 87.92 247.64 88.25 248.18 88.25C248.26 88.25 248.334 88.2467 248.4 88.24C248.474 88.2333 248.547 88.22 248.62 88.2L248.6 89.01C248.374 89.0633 248.157 89.09 247.95 89.09ZM249.327 82.99V81.94H250.507V82.99H249.327ZM249.417 89V84.12H250.427V89H249.417ZM254.469 89.09C254.095 89.09 253.765 89.0067 253.479 88.84C253.192 88.6733 252.979 88.45 252.839 88.17V89H251.849V81.95H252.859V84.91C253.005 84.6433 253.219 84.43 253.499 84.27C253.785 84.11 254.109 84.03 254.469 84.03C254.902 84.03 255.279 84.1333 255.599 84.34C255.925 84.5467 256.175 84.84 256.349 85.22C256.529 85.5933 256.619 86.04 256.619 86.56C256.619 87.08 256.529 87.53 256.349 87.91C256.175 88.29 255.925 88.5833 255.599 88.79C255.279 88.99 254.902 89.09 254.469 89.09ZM254.219 88.31C254.639 88.31 254.972 88.16 255.219 87.86C255.472 87.56 255.599 87.1267 255.599 86.56C255.599 85.9933 255.472 85.5633 255.219 85.27C254.972 84.97 254.639 84.82 254.219 84.82C253.799 84.82 253.462 84.97 253.209 85.27C252.962 85.5633 252.839 85.9933 252.839 86.56C252.839 87.1267 252.962 87.56 253.209 87.86C253.462 88.16 253.799 88.31 254.219 88.31ZM257.757 89V84.12H258.737V84.99C258.99 84.41 259.517 84.0867 260.317 84.02L260.647 84L260.717 84.86L260.107 84.92C259.22 85.0067 258.777 85.4633 258.777 86.29V89H257.757ZM263.539 89.09C263.046 89.09 262.619 88.9867 262.259 88.78C261.899 88.5733 261.619 88.2833 261.419 87.91C261.226 87.53 261.129 87.08 261.129 86.56C261.129 86.04 261.226 85.5933 261.419 85.22C261.619 84.84 261.899 84.5467 262.259 84.34C262.619 84.1333 263.046 84.03 263.539 84.03C264.019 84.03 264.439 84.1333 264.799 84.34C265.159 84.5467 265.439 84.84 265.639 85.22C265.839 85.5933 265.939 86.04 265.939 86.56C265.939 87.08 265.839 87.53 265.639 87.91C265.439 88.2833 265.159 88.5733 264.799 88.78C264.439 88.9867 264.019 89.09 263.539 89.09ZM263.539 88.31C263.952 88.31 264.286 88.16 264.539 87.86C264.792 87.56 264.919 87.1267 264.919 86.56C264.919 85.9933 264.792 85.5633 264.539 85.27C264.286 84.97 263.952 84.82 263.539 84.82C263.119 84.82 262.782 84.97 262.529 85.27C262.276 85.5633 262.149 85.9933 262.149 86.56C262.149 87.1267 262.276 87.56 262.529 87.86C262.782 88.16 263.119 88.31 263.539 88.31Z" fill="#363636"/>
<path d="M77.54 181V174.82H75.04V173.95H81.07V174.82H78.57V181H77.54ZM81.0518 181V176.12H82.0318V176.99C82.2851 176.41 82.8118 176.087 83.6118 176.02L83.9418 176L84.0118 176.86L83.4018 176.92C82.5151 177.007 82.0718 177.463 82.0718 178.29V181H81.0518ZM86.2934 181.09C85.9534 181.09 85.6501 181.023 85.3834 180.89C85.1168 180.757 84.9034 180.577 84.7434 180.35C84.5901 180.123 84.5134 179.867 84.5134 179.58C84.5134 179.22 84.6034 178.937 84.7834 178.73C84.9701 178.523 85.2734 178.373 85.6934 178.28C86.1201 178.187 86.6934 178.14 87.4134 178.14H87.7534V177.88C87.7534 177.5 87.6734 177.227 87.5134 177.06C87.3534 176.893 87.0901 176.81 86.7234 176.81C86.4434 176.81 86.1634 176.853 85.8834 176.94C85.6034 177.02 85.3168 177.15 85.0234 177.33L84.7134 176.62C84.9668 176.44 85.2834 176.297 85.6634 176.19C86.0434 176.083 86.4068 176.03 86.7534 176.03C87.4201 176.03 87.9134 176.19 88.2334 176.51C88.5534 176.823 88.7134 177.317 88.7134 177.99V181H87.7634V180.19C87.6434 180.47 87.4568 180.69 87.2034 180.85C86.9501 181.01 86.6468 181.09 86.2934 181.09ZM86.4934 180.37C86.8534 180.37 87.1534 180.243 87.3934 179.99C87.6334 179.737 87.7534 179.417 87.7534 179.03V178.76H87.4234C86.9368 178.76 86.5534 178.783 86.2734 178.83C86.0001 178.877 85.8034 178.957 85.6834 179.07C85.5701 179.177 85.5134 179.327 85.5134 179.52C85.5134 179.773 85.6001 179.98 85.7734 180.14C85.9468 180.293 86.1868 180.37 86.4934 180.37ZM92.7245 181.09C92.3512 181.09 92.0212 181.007 91.7345 180.84C91.4479 180.673 91.2345 180.45 91.0945 180.17V181H90.1045V173.95H91.1145V176.91C91.2612 176.643 91.4745 176.43 91.7545 176.27C92.0412 176.11 92.3645 176.03 92.7245 176.03C93.1579 176.03 93.5345 176.133 93.8545 176.34C94.1812 176.547 94.4312 176.84 94.6045 177.22C94.7845 177.593 94.8745 178.04 94.8745 178.56C94.8745 179.08 94.7845 179.53 94.6045 179.91C94.4312 180.29 94.1812 180.583 93.8545 180.79C93.5345 180.99 93.1579 181.09 92.7245 181.09ZM92.4745 180.31C92.8945 180.31 93.2279 180.16 93.4745 179.86C93.7279 179.56 93.8545 179.127 93.8545 178.56C93.8545 177.993 93.7279 177.563 93.4745 177.27C93.2279 176.97 92.8945 176.82 92.4745 176.82C92.0545 176.82 91.7179 176.97 91.4645 177.27C91.2179 177.563 91.0945 177.993 91.0945 178.56C91.0945 179.127 91.2179 179.56 91.4645 179.86C91.7179 180.16 92.0545 180.31 92.4745 180.31ZM97.5727 181.09C97.2327 181.09 96.9294 181.023 96.6627 180.89C96.3961 180.757 96.1827 180.577 96.0227 180.35C95.8694 180.123 95.7927 179.867 95.7927 179.58C95.7927 179.22 95.8827 178.937 96.0627 178.73C96.2494 178.523 96.5527 178.373 96.9727 178.28C97.3994 178.187 97.9727 178.14 98.6927 178.14H99.0327V177.88C99.0327 177.5 98.9527 177.227 98.7927 177.06C98.6327 176.893 98.3694 176.81 98.0027 176.81C97.7227 176.81 97.4427 176.853 97.1627 176.94C96.8827 177.02 96.5961 177.15 96.3027 177.33L95.9927 176.62C96.2461 176.44 96.5627 176.297 96.9427 176.19C97.3227 176.083 97.6861 176.03 98.0327 176.03C98.6994 176.03 99.1927 176.19 99.5127 176.51C99.8327 176.823 99.9927 177.317 99.9927 177.99V181H99.0427V180.19C98.9227 180.47 98.7361 180.69 98.4827 180.85C98.2294 181.01 97.9261 181.09 97.5727 181.09ZM97.7727 180.37C98.1327 180.37 98.4327 180.243 98.6727 179.99C98.9127 179.737 99.0327 179.417 99.0327 179.03V178.76H98.7027C98.2161 178.76 97.8327 178.783 97.5527 178.83C97.2794 178.877 97.0827 178.957 96.9627 179.07C96.8494 179.177 96.7927 179.327 96.7927 179.52C96.7927 179.773 96.8794 179.98 97.0527 180.14C97.2261 180.293 97.4661 180.37 97.7727 180.37ZM101.334 174.99V173.94H102.514V174.99H101.334ZM100.194 182.93L100.124 182.17L100.564 182.13C101.13 182.07 101.414 181.73 101.414 181.11V176.12H102.424V181C102.424 181.613 102.28 182.07 101.994 182.37C101.714 182.677 101.257 182.853 100.624 182.9L100.194 182.93ZM105.405 181.09C105.065 181.09 104.761 181.023 104.495 180.89C104.228 180.757 104.015 180.577 103.855 180.35C103.701 180.123 103.625 179.867 103.625 179.58C103.625 179.22 103.715 178.937 103.895 178.73C104.081 178.523 104.385 178.373 104.805 178.28C105.231 178.187 105.805 178.14 106.525 178.14H106.865V177.88C106.865 177.5 106.785 177.227 106.625 177.06C106.465 176.893 106.201 176.81 105.835 176.81C105.555 176.81 105.275 176.853 104.995 176.94C104.715 177.02 104.428 177.15 104.135 177.33L103.825 176.62C104.078 176.44 104.395 176.297 104.775 176.19C105.155 176.083 105.518 176.03 105.865 176.03C106.531 176.03 107.025 176.19 107.345 176.51C107.665 176.823 107.825 177.317 107.825 177.99V181H106.875V180.19C106.755 180.47 106.568 180.69 106.315 180.85C106.061 181.01 105.758 181.09 105.405 181.09ZM105.605 180.37C105.965 180.37 106.265 180.243 106.505 179.99C106.745 179.737 106.865 179.417 106.865 179.03V178.76H106.535C106.048 178.76 105.665 178.783 105.385 178.83C105.111 178.877 104.915 178.957 104.795 179.07C104.681 179.177 104.625 179.327 104.625 179.52C104.625 179.773 104.711 179.98 104.885 180.14C105.058 180.293 105.298 180.37 105.605 180.37ZM109.216 181V176.12H110.196V176.99C110.449 176.41 110.976 176.087 111.776 176.02L112.106 176L112.176 176.86L111.566 176.92C110.679 177.007 110.236 177.463 110.236 178.29V181H109.216Z" fill="#363636"/>
<path d="M2.312 254.072C1.93333 254.072 1.57333 254.016 1.232 253.904C0.890667 253.787 0.605333 253.624 0.376 253.416L0.664 252.776C0.914667 252.979 1.17333 253.128 1.44 253.224C1.70667 253.32 1.98933 253.368 2.288 253.368C2.672 253.368 2.96267 253.285 3.16 253.12C3.36267 252.955 3.464 252.717 3.464 252.408C3.464 252.099 3.36267 251.869 3.16 251.72C2.96267 251.571 2.67467 251.496 2.296 251.496H1.424V250.8H2.216C2.552 250.8 2.816 250.715 3.008 250.544C3.20533 250.373 3.304 250.139 3.304 249.84C3.304 249.568 3.21333 249.36 3.032 249.216C2.85067 249.067 2.592 248.992 2.256 248.992C1.68533 248.992 1.18667 249.197 0.76 249.608L0.472 248.976C0.690667 248.757 0.962667 248.589 1.288 248.472C1.61867 248.349 1.96267 248.288 2.32 248.288C2.88533 248.288 3.32533 248.419 3.64 248.68C3.95467 248.936 4.112 249.293 4.112 249.752C4.112 250.061 4.032 250.333 3.872 250.568C3.71733 250.803 3.50133 250.973 3.224 251.08C3.56 251.165 3.81867 251.331 4 251.576C4.18133 251.816 4.272 252.112 4.272 252.464C4.272 252.96 4.096 253.352 3.744 253.64C3.39733 253.928 2.92 254.072 2.312 254.072ZM7.55444 254V248.36H9.89044C10.4984 248.36 10.9678 248.512 11.2984 248.816C11.6291 249.115 11.7944 249.536 11.7944 250.08C11.7944 250.629 11.6291 251.056 11.2984 251.36C10.9678 251.659 10.4984 251.808 9.89044 251.808H8.38644V254H7.55444ZM8.38644 251.144H9.77044C10.5811 251.144 10.9864 250.789 10.9864 250.08C10.9864 249.376 10.5811 249.024 9.77044 249.024H8.38644V251.144ZM12.7033 254V248.36H13.3993L15.4873 252.256L17.5673 248.36H18.2473V254H17.5033V249.864L15.7353 253.136H15.2313L13.4553 249.88V254H12.7033Z" fill="#979797"/>
<path d="M2.6 56.072C1.91733 56.072 1.38933 55.8293 1.016 55.344C0.648 54.8587 0.464 54.1787 0.464 53.304C0.464 52.3387 0.672 51.5947 1.088 51.072C1.504 50.5493 2.08 50.288 2.816 50.288C3.104 50.288 3.39467 50.3467 3.688 50.464C3.98133 50.576 4.22667 50.736 4.424 50.944L4.136 51.568C3.944 51.376 3.73067 51.232 3.496 51.136C3.26667 51.04 3.03467 50.992 2.8 50.992C2.304 50.992 1.92267 51.1733 1.656 51.536C1.39467 51.8933 1.264 52.4293 1.264 53.144V53.464C1.37067 53.1387 1.55467 52.8853 1.816 52.704C2.08267 52.5173 2.38933 52.424 2.736 52.424C3.06667 52.424 3.35733 52.5013 3.608 52.656C3.864 52.8107 4.064 53.024 4.208 53.296C4.352 53.5627 4.424 53.8693 4.424 54.216C4.424 54.5787 4.34667 54.9013 4.192 55.184C4.03733 55.4613 3.82133 55.68 3.544 55.84C3.272 55.9947 2.95733 56.072 2.6 56.072ZM2.552 55.4C2.87733 55.4 3.14133 55.2933 3.344 55.08C3.54667 54.8667 3.648 54.5893 3.648 54.248C3.648 53.9067 3.54667 53.6293 3.344 53.416C3.14133 53.2027 2.87733 53.096 2.552 53.096C2.22667 53.096 1.96267 53.2027 1.76 53.416C1.55733 53.6293 1.456 53.9067 1.456 54.248C1.456 54.5893 1.55733 54.8667 1.76 55.08C1.96267 55.2933 2.22667 55.4 2.552 55.4ZM6.98644 56L9.49844 50.36H10.1864L12.7064 56H11.8584L11.2664 54.624H8.41044L7.82644 56H6.98644ZM9.83444 51.28L8.70644 53.952H10.9864L9.85044 51.28H9.83444ZM13.4611 56V50.36H14.1571L16.2451 54.256L18.3251 50.36H19.0051V56H18.2611V51.864L16.4931 55.136H15.9891L14.2131 51.88V56H13.4611Z" fill="#979797"/>
<path d="M0.8 103L3.384 98.056H0.496V97.36H4.312V97.976L1.712 103H0.8ZM6.98644 103L9.49844 97.36H10.1864L12.7064 103H11.8584L11.2664 101.624H8.41044L7.82644 103H6.98644ZM9.83444 98.28L8.70644 100.952H10.9864L9.85044 98.28H9.83444ZM13.4611 103V97.36H14.1571L16.2451 101.256L18.3251 97.36H19.0051V103H18.2611V98.864L16.4931 102.136H15.9891L14.2131 98.88V103H13.4611Z" fill="#979797"/>
<path d="M220.54 181V174.82H218.04V173.95H224.07V174.82H221.57V181H220.54ZM224.052 181V176.12H225.032V176.99C225.285 176.41 225.812 176.087 226.612 176.02L226.942 176L227.012 176.86L226.402 176.92C225.515 177.007 225.072 177.463 225.072 178.29V181H224.052ZM229.293 181.09C228.953 181.09 228.65 181.023 228.383 180.89C228.117 180.757 227.903 180.577 227.743 180.35C227.59 180.123 227.513 179.867 227.513 179.58C227.513 179.22 227.603 178.937 227.783 178.73C227.97 178.523 228.273 178.373 228.693 178.28C229.12 178.187 229.693 178.14 230.413 178.14H230.753V177.88C230.753 177.5 230.673 177.227 230.513 177.06C230.353 176.893 230.09 176.81 229.723 176.81C229.443 176.81 229.163 176.853 228.883 176.94C228.603 177.02 228.317 177.15 228.023 177.33L227.713 176.62C227.967 176.44 228.283 176.297 228.663 176.19C229.043 176.083 229.407 176.03 229.753 176.03C230.42 176.03 230.913 176.19 231.233 176.51C231.553 176.823 231.713 177.317 231.713 177.99V181H230.763V180.19C230.643 180.47 230.457 180.69 230.203 180.85C229.95 181.01 229.647 181.09 229.293 181.09ZM229.493 180.37C229.853 180.37 230.153 180.243 230.393 179.99C230.633 179.737 230.753 179.417 230.753 179.03V178.76H230.423C229.937 178.76 229.553 178.783 229.273 178.83C229 178.877 228.803 178.957 228.683 179.07C228.57 179.177 228.513 179.327 228.513 179.52C228.513 179.773 228.6 179.98 228.773 180.14C228.947 180.293 229.187 180.37 229.493 180.37ZM235.725 181.09C235.351 181.09 235.021 181.007 234.735 180.84C234.448 180.673 234.235 180.45 234.095 180.17V181H233.105V173.95H234.115V176.91C234.261 176.643 234.475 176.43 234.755 176.27C235.041 176.11 235.365 176.03 235.725 176.03C236.158 176.03 236.535 176.133 236.855 176.34C237.181 176.547 237.431 176.84 237.605 177.22C237.785 177.593 237.875 178.04 237.875 178.56C237.875 179.08 237.785 179.53 237.605 179.91C237.431 180.29 237.181 180.583 236.855 180.79C236.535 180.99 236.158 181.09 235.725 181.09ZM235.475 180.31C235.895 180.31 236.228 180.16 236.475 179.86C236.728 179.56 236.855 179.127 236.855 178.56C236.855 177.993 236.728 177.563 236.475 177.27C236.228 176.97 235.895 176.82 235.475 176.82C235.055 176.82 234.718 176.97 234.465 177.27C234.218 177.563 234.095 177.993 234.095 178.56C234.095 179.127 234.218 179.56 234.465 179.86C234.718 180.16 235.055 180.31 235.475 180.31ZM240.573 181.09C240.233 181.09 239.929 181.023 239.663 180.89C239.396 180.757 239.183 180.577 239.023 180.35C238.869 180.123 238.793 179.867 238.793 179.58C238.793 179.22 238.883 178.937 239.063 178.73C239.249 178.523 239.553 178.373 239.973 178.28C240.399 178.187 240.973 178.14 241.693 178.14H242.033V177.88C242.033 177.5 241.953 177.227 241.793 177.06C241.633 176.893 241.369 176.81 241.003 176.81C240.723 176.81 240.443 176.853 240.163 176.94C239.883 177.02 239.596 177.15 239.303 177.33L238.993 176.62C239.246 176.44 239.563 176.297 239.943 176.19C240.323 176.083 240.686 176.03 241.033 176.03C241.699 176.03 242.193 176.19 242.513 176.51C242.833 176.823 242.993 177.317 242.993 177.99V181H242.043V180.19C241.923 180.47 241.736 180.69 241.483 180.85C241.229 181.01 240.926 181.09 240.573 181.09ZM240.773 180.37C241.133 180.37 241.433 180.243 241.673 179.99C241.913 179.737 242.033 179.417 242.033 179.03V178.76H241.703C241.216 178.76 240.833 178.783 240.553 178.83C240.279 178.877 240.083 178.957 239.963 179.07C239.849 179.177 239.793 179.327 239.793 179.52C239.793 179.773 239.879 179.98 240.053 180.14C240.226 180.293 240.466 180.37 240.773 180.37ZM244.334 174.99V173.94H245.514V174.99H244.334ZM243.194 182.93L243.124 182.17L243.564 182.13C244.13 182.07 244.414 181.73 244.414 181.11V176.12H245.424V181C245.424 181.613 245.28 182.07 244.994 182.37C244.714 182.677 244.257 182.853 243.624 182.9L243.194 182.93ZM248.405 181.09C248.065 181.09 247.761 181.023 247.495 180.89C247.228 180.757 247.015 180.577 246.855 180.35C246.701 180.123 246.625 179.867 246.625 179.58C246.625 179.22 246.715 178.937 246.895 178.73C247.081 178.523 247.385 178.373 247.805 178.28C248.231 178.187 248.805 178.14 249.525 178.14H249.865V177.88C249.865 177.5 249.785 177.227 249.625 177.06C249.465 176.893 249.201 176.81 248.835 176.81C248.555 176.81 248.275 176.853 247.995 176.94C247.715 177.02 247.428 177.15 247.135 177.33L246.825 176.62C247.078 176.44 247.395 176.297 247.775 176.19C248.155 176.083 248.518 176.03 248.865 176.03C249.531 176.03 250.025 176.19 250.345 176.51C250.665 176.823 250.825 177.317 250.825 177.99V181H249.875V180.19C249.755 180.47 249.568 180.69 249.315 180.85C249.061 181.01 248.758 181.09 248.405 181.09ZM248.605 180.37C248.965 180.37 249.265 180.243 249.505 179.99C249.745 179.737 249.865 179.417 249.865 179.03V178.76H249.535C249.048 178.76 248.665 178.783 248.385 178.83C248.111 178.877 247.915 178.957 247.795 179.07C247.681 179.177 247.625 179.327 247.625 179.52C247.625 179.773 247.711 179.98 247.885 180.14C248.058 180.293 248.298 180.37 248.605 180.37ZM252.216 181V176.12H253.196V176.99C253.449 176.41 253.976 176.087 254.776 176.02L255.106 176L255.176 176.86L254.566 176.92C253.679 177.007 253.236 177.463 253.236 178.29V181H252.216Z" fill="#363636"/>
<path d="M81.82 277V269.95H84.74C85.5 269.95 86.0867 270.14 86.5 270.52C86.9133 270.893 87.12 271.42 87.12 272.1C87.12 272.787 86.9133 273.32 86.5 273.7C86.0867 274.073 85.5 274.26 84.74 274.26H82.86V277H81.82ZM82.86 273.43H84.59C85.6033 273.43 86.11 272.987 86.11 272.1C86.11 271.22 85.6033 270.78 84.59 270.78H82.86V273.43ZM89.4419 277.09C89.1019 277.09 88.7985 277.023 88.5319 276.89C88.2652 276.757 88.0519 276.577 87.8919 276.35C87.7385 276.123 87.6619 275.867 87.6619 275.58C87.6619 275.22 87.7519 274.937 87.9319 274.73C88.1185 274.523 88.4219 274.373 88.8419 274.28C89.2685 274.187 89.8419 274.14 90.5619 274.14H90.9019V273.88C90.9019 273.5 90.8219 273.227 90.6619 273.06C90.5019 272.893 90.2385 272.81 89.8719 272.81C89.5919 272.81 89.3119 272.853 89.0319 272.94C88.7519 273.02 88.4652 273.15 88.1719 273.33L87.8619 272.62C88.1152 272.44 88.4319 272.297 88.8119 272.19C89.1919 272.083 89.5552 272.03 89.9019 272.03C90.5685 272.03 91.0619 272.19 91.3819 272.51C91.7019 272.823 91.8619 273.317 91.8619 273.99V277H90.9119V276.19C90.7919 276.47 90.6052 276.69 90.3519 276.85C90.0985 277.01 89.7952 277.09 89.4419 277.09ZM89.6419 276.37C90.0019 276.37 90.3019 276.243 90.5419 275.99C90.7819 275.737 90.9019 275.417 90.9019 275.03V274.76H90.5719C90.0852 274.76 89.7019 274.783 89.4219 274.83C89.1485 274.877 88.9519 274.957 88.8319 275.07C88.7185 275.177 88.6619 275.327 88.6619 275.52C88.6619 275.773 88.7485 275.98 88.9219 276.14C89.0952 276.293 89.3352 276.37 89.6419 276.37ZM94.993 277.09C93.813 277.09 93.223 276.433 93.223 275.12V272.12H94.233V275.13C94.233 275.523 94.313 275.813 94.473 276C94.633 276.187 94.8863 276.28 95.233 276.28C95.613 276.28 95.9196 276.153 96.153 275.9C96.393 275.647 96.513 275.307 96.513 274.88V272.12H97.523V277H96.543V276.22C96.383 276.507 96.1696 276.723 95.903 276.87C95.6363 277.017 95.333 277.09 94.993 277.09ZM100.656 277.09C100.256 277.09 99.883 277.04 99.5363 276.94C99.1897 276.833 98.8997 276.687 98.6663 276.5L98.9563 275.82C99.203 275.993 99.473 276.127 99.7663 276.22C100.066 276.313 100.366 276.36 100.666 276.36C101.02 276.36 101.286 276.297 101.466 276.17C101.646 276.043 101.736 275.873 101.736 275.66C101.736 275.487 101.676 275.353 101.556 275.26C101.436 275.16 101.256 275.083 101.016 275.03L100.066 274.84C99.2263 274.667 98.8063 274.233 98.8063 273.54C98.8063 273.08 98.9897 272.713 99.3563 272.44C99.723 272.167 100.203 272.03 100.796 272.03C101.136 272.03 101.46 272.08 101.766 272.18C102.08 272.28 102.34 272.43 102.546 272.63L102.256 273.31C102.056 273.137 101.826 273.003 101.566 272.91C101.306 272.817 101.05 272.77 100.796 272.77C100.45 272.77 100.186 272.837 100.006 272.97C99.8263 273.097 99.7363 273.27 99.7363 273.49C99.7363 273.823 99.9563 274.037 100.396 274.13L101.346 274.32C101.78 274.407 102.106 274.553 102.326 274.76C102.553 274.967 102.666 275.247 102.666 275.6C102.666 276.067 102.483 276.433 102.116 276.7C101.75 276.96 101.263 277.09 100.656 277.09ZM105.35 277.09C105.01 277.09 104.707 277.023 104.44 276.89C104.173 276.757 103.96 276.577 103.8 276.35C103.647 276.123 103.57 275.867 103.57 275.58C103.57 275.22 103.66 274.937 103.84 274.73C104.027 274.523 104.33 274.373 104.75 274.28C105.177 274.187 105.75 274.14 106.47 274.14H106.81V273.88C106.81 273.5 106.73 273.227 106.57 273.06C106.41 272.893 106.147 272.81 105.78 272.81C105.5 272.81 105.22 272.853 104.94 272.94C104.66 273.02 104.373 273.15 104.08 273.33L103.77 272.62C104.023 272.44 104.34 272.297 104.72 272.19C105.1 272.083 105.463 272.03 105.81 272.03C106.477 272.03 106.97 272.19 107.29 272.51C107.61 272.823 107.77 273.317 107.77 273.99V277H106.82V276.19C106.7 276.47 106.513 276.69 106.26 276.85C106.007 277.01 105.703 277.09 105.35 277.09ZM105.55 276.37C105.91 276.37 106.21 276.243 106.45 275.99C106.69 275.737 106.81 275.417 106.81 275.03V274.76H106.48C105.993 274.76 105.61 274.783 105.33 274.83C105.057 274.877 104.86 274.957 104.74 275.07C104.627 275.177 104.57 275.327 104.57 275.52C104.57 275.773 104.657 275.98 104.83 276.14C105.003 276.293 105.243 276.37 105.55 276.37Z" fill="#363636"/>
<path d="M224.82 277V269.95H227.74C228.5 269.95 229.087 270.14 229.5 270.52C229.913 270.893 230.12 271.42 230.12 272.1C230.12 272.787 229.913 273.32 229.5 273.7C229.087 274.073 228.5 274.26 227.74 274.26H225.86V277H224.82ZM225.86 273.43H227.59C228.603 273.43 229.11 272.987 229.11 272.1C229.11 271.22 228.603 270.78 227.59 270.78H225.86V273.43ZM232.442 277.09C232.102 277.09 231.799 277.023 231.532 276.89C231.265 276.757 231.052 276.577 230.892 276.35C230.739 276.123 230.662 275.867 230.662 275.58C230.662 275.22 230.752 274.937 230.932 274.73C231.119 274.523 231.422 274.373 231.842 274.28C232.269 274.187 232.842 274.14 233.562 274.14H233.902V273.88C233.902 273.5 233.822 273.227 233.662 273.06C233.502 272.893 233.239 272.81 232.872 272.81C232.592 272.81 232.312 272.853 232.032 272.94C231.752 273.02 231.465 273.15 231.172 273.33L230.862 272.62C231.115 272.44 231.432 272.297 231.812 272.19C232.192 272.083 232.555 272.03 232.902 272.03C233.569 272.03 234.062 272.19 234.382 272.51C234.702 272.823 234.862 273.317 234.862 273.99V277H233.912V276.19C233.792 276.47 233.605 276.69 233.352 276.85C233.099 277.01 232.795 277.09 232.442 277.09ZM232.642 276.37C233.002 276.37 233.302 276.243 233.542 275.99C233.782 275.737 233.902 275.417 233.902 275.03V274.76H233.572C233.085 274.76 232.702 274.783 232.422 274.83C232.149 274.877 231.952 274.957 231.832 275.07C231.719 275.177 231.662 275.327 231.662 275.52C231.662 275.773 231.749 275.98 231.922 276.14C232.095 276.293 232.335 276.37 232.642 276.37ZM237.993 277.09C236.813 277.09 236.223 276.433 236.223 275.12V272.12H237.233V275.13C237.233 275.523 237.313 275.813 237.473 276C237.633 276.187 237.886 276.28 238.233 276.28C238.613 276.28 238.92 276.153 239.153 275.9C239.393 275.647 239.513 275.307 239.513 274.88V272.12H240.523V277H239.543V276.22C239.383 276.507 239.17 276.723 238.903 276.87C238.636 277.017 238.333 277.09 237.993 277.09ZM243.656 277.09C243.256 277.09 242.883 277.04 242.536 276.94C242.19 276.833 241.9 276.687 241.666 276.5L241.956 275.82C242.203 275.993 242.473 276.127 242.766 276.22C243.066 276.313 243.366 276.36 243.666 276.36C244.02 276.36 244.286 276.297 244.466 276.17C244.646 276.043 244.736 275.873 244.736 275.66C244.736 275.487 244.676 275.353 244.556 275.26C244.436 275.16 244.256 275.083 244.016 275.03L243.066 274.84C242.226 274.667 241.806 274.233 241.806 273.54C241.806 273.08 241.99 272.713 242.356 272.44C242.723 272.167 243.203 272.03 243.796 272.03C244.136 272.03 244.46 272.08 244.766 272.18C245.08 272.28 245.34 272.43 245.546 272.63L245.256 273.31C245.056 273.137 244.826 273.003 244.566 272.91C244.306 272.817 244.05 272.77 243.796 272.77C243.45 272.77 243.186 272.837 243.006 272.97C242.826 273.097 242.736 273.27 242.736 273.49C242.736 273.823 242.956 274.037 243.396 274.13L244.346 274.32C244.78 274.407 245.106 274.553 245.326 274.76C245.553 274.967 245.666 275.247 245.666 275.6C245.666 276.067 245.483 276.433 245.116 276.7C244.75 276.96 244.263 277.09 243.656 277.09ZM248.35 277.09C248.01 277.09 247.707 277.023 247.44 276.89C247.173 276.757 246.96 276.577 246.8 276.35C246.647 276.123 246.57 275.867 246.57 275.58C246.57 275.22 246.66 274.937 246.84 274.73C247.027 274.523 247.33 274.373 247.75 274.28C248.177 274.187 248.75 274.14 249.47 274.14H249.81V273.88C249.81 273.5 249.73 273.227 249.57 273.06C249.41 272.893 249.147 272.81 248.78 272.81C248.5 272.81 248.22 272.853 247.94 272.94C247.66 273.02 247.373 273.15 247.08 273.33L246.77 272.62C247.023 272.44 247.34 272.297 247.72 272.19C248.1 272.083 248.463 272.03 248.81 272.03C249.477 272.03 249.97 272.19 250.29 272.51C250.61 272.823 250.77 273.317 250.77 273.99V277H249.82V276.19C249.7 276.47 249.513 276.69 249.26 276.85C249.007 277.01 248.703 277.09 248.35 277.09ZM248.55 276.37C248.91 276.37 249.21 276.243 249.45 275.99C249.69 275.737 249.81 275.417 249.81 275.03V274.76H249.48C248.993 274.76 248.61 274.783 248.33 274.83C248.057 274.877 247.86 274.957 247.74 275.07C247.627 275.177 247.57 275.327 247.57 275.52C247.57 275.773 247.657 275.98 247.83 276.14C248.003 276.293 248.243 276.37 248.55 276.37Z" fill="#363636"/>
<path d="M224.82 123V115.95H227.74C228.5 115.95 229.087 116.14 229.5 116.52C229.913 116.893 230.12 117.42 230.12 118.1C230.12 118.787 229.913 119.32 229.5 119.7C229.087 120.073 228.5 120.26 227.74 120.26H225.86V123H224.82ZM225.86 119.43H227.59C228.603 119.43 229.11 118.987 229.11 118.1C229.11 117.22 228.603 116.78 227.59 116.78H225.86V119.43ZM232.442 123.09C232.102 123.09 231.799 123.023 231.532 122.89C231.265 122.757 231.052 122.577 230.892 122.35C230.739 122.123 230.662 121.867 230.662 121.58C230.662 121.22 230.752 120.937 230.932 120.73C231.119 120.523 231.422 120.373 231.842 120.28C232.269 120.187 232.842 120.14 233.562 120.14H233.902V119.88C233.902 119.5 233.822 119.227 233.662 119.06C233.502 118.893 233.239 118.81 232.872 118.81C232.592 118.81 232.312 118.853 232.032 118.94C231.752 119.02 231.465 119.15 231.172 119.33L230.862 118.62C231.115 118.44 231.432 118.297 231.812 118.19C232.192 118.083 232.555 118.03 232.902 118.03C233.569 118.03 234.062 118.19 234.382 118.51C234.702 118.823 234.862 119.317 234.862 119.99V123H233.912V122.19C233.792 122.47 233.605 122.69 233.352 122.85C233.099 123.01 232.795 123.09 232.442 123.09ZM232.642 122.37C233.002 122.37 233.302 122.243 233.542 121.99C233.782 121.737 233.902 121.417 233.902 121.03V120.76H233.572C233.085 120.76 232.702 120.783 232.422 120.83C232.149 120.877 231.952 120.957 231.832 121.07C231.719 121.177 231.662 121.327 231.662 121.52C231.662 121.773 231.749 121.98 231.922 122.14C232.095 122.293 232.335 122.37 232.642 122.37ZM237.993 123.09C236.813 123.09 236.223 122.433 236.223 121.12V118.12H237.233V121.13C237.233 121.523 237.313 121.813 237.473 122C237.633 122.187 237.886 122.28 238.233 122.28C238.613 122.28 238.92 122.153 239.153 121.9C239.393 121.647 239.513 121.307 239.513 120.88V118.12H240.523V123H239.543V122.22C239.383 122.507 239.17 122.723 238.903 122.87C238.636 123.017 238.333 123.09 237.993 123.09ZM243.656 123.09C243.256 123.09 242.883 123.04 242.536 122.94C242.19 122.833 241.9 122.687 241.666 122.5L241.956 121.82C242.203 121.993 242.473 122.127 242.766 122.22C243.066 122.313 243.366 122.36 243.666 122.36C244.02 122.36 244.286 122.297 244.466 122.17C244.646 122.043 244.736 121.873 244.736 121.66C244.736 121.487 244.676 121.353 244.556 121.26C244.436 121.16 244.256 121.083 244.016 121.03L243.066 120.84C242.226 120.667 241.806 120.233 241.806 119.54C241.806 119.08 241.99 118.713 242.356 118.44C242.723 118.167 243.203 118.03 243.796 118.03C244.136 118.03 244.46 118.08 244.766 118.18C245.08 118.28 245.34 118.43 245.546 118.63L245.256 119.31C245.056 119.137 244.826 119.003 244.566 118.91C244.306 118.817 244.05 118.77 243.796 118.77C243.45 118.77 243.186 118.837 243.006 118.97C242.826 119.097 242.736 119.27 242.736 119.49C242.736 119.823 242.956 120.037 243.396 120.13L244.346 120.32C244.78 120.407 245.106 120.553 245.326 120.76C245.553 120.967 245.666 121.247 245.666 121.6C245.666 122.067 245.483 122.433 245.116 122.7C244.75 122.96 244.263 123.09 243.656 123.09ZM248.35 123.09C248.01 123.09 247.707 123.023 247.44 122.89C247.173 122.757 246.96 122.577 246.8 122.35C246.647 122.123 246.57 121.867 246.57 121.58C246.57 121.22 246.66 120.937 246.84 120.73C247.027 120.523 247.33 120.373 247.75 120.28C248.177 120.187 248.75 120.14 249.47 120.14H249.81V119.88C249.81 119.5 249.73 119.227 249.57 119.06C249.41 118.893 249.147 118.81 248.78 118.81C248.5 118.81 248.22 118.853 247.94 118.94C247.66 119.02 247.373 119.15 247.08 119.33L246.77 118.62C247.023 118.44 247.34 118.297 247.72 118.19C248.1 118.083 248.463 118.03 248.81 118.03C249.477 118.03 249.97 118.19 250.29 118.51C250.61 118.823 250.77 119.317 250.77 119.99V123H249.82V122.19C249.7 122.47 249.513 122.69 249.26 122.85C249.007 123.01 248.703 123.09 248.35 123.09ZM248.55 122.37C248.91 122.37 249.21 122.243 249.45 121.99C249.69 121.737 249.81 121.417 249.81 121.03V120.76H249.48C248.993 120.76 248.61 120.783 248.33 120.83C248.057 120.877 247.86 120.957 247.74 121.07C247.627 121.177 247.57 121.327 247.57 121.52C247.57 121.773 247.657 121.98 247.83 122.14C248.003 122.293 248.243 122.37 248.55 122.37Z" fill="#363636"/>
<rect width="1" height="288" rx="0.5" transform="matrix(-1 0 0 1 23 1)" fill="#979797"/>
<rect x="23" y="103" width="0.999989" height="259" rx="0.499994" transform="rotate(-90 23 103)" fill="#979797"/>
<rect x="22" y="56" width="0.999989" height="259" rx="0.499994" transform="rotate(-90 22 56)" fill="#979797"/>
<rect x="22" y="1" width="0.999989" height="259" rx="0.499994" transform="rotate(-90 22 1)" fill="#979797"/>
<rect x="51" y="50" width="19" height="88" rx="2.5" transform="rotate(-90 51 50)" fill="#8446FF" fill-opacity="0.4"/>
<path d="M69.82 44V36.95H74.38V37.79H70.82V40H74.17V40.84H70.82V43.16H74.38V44H69.82ZM75.5487 37.99V36.94H76.7287V37.99H75.5487ZM74.4087 45.93L74.3387 45.17L74.7787 45.13C75.3453 45.07 75.6287 44.73 75.6287 44.11V39.12H76.6387V44C76.6387 44.6133 76.4953 45.07 76.2087 45.37C75.9287 45.6767 75.472 45.8533 74.8387 45.9L74.4087 45.93ZM80.3496 44.09C79.5496 44.09 78.9196 43.8667 78.4596 43.42C77.9996 42.9667 77.7696 42.35 77.7696 41.57C77.7696 41.07 77.8696 40.63 78.0696 40.25C78.2763 39.8633 78.5596 39.5633 78.9196 39.35C79.2796 39.1367 79.6929 39.03 80.1596 39.03C80.8329 39.03 81.3629 39.2467 81.7496 39.68C82.1363 40.1067 82.3296 40.6967 82.3296 41.45V41.79H78.7496C78.8229 42.8033 79.3596 43.31 80.3596 43.31C80.6396 43.31 80.9129 43.2667 81.1796 43.18C81.4529 43.0933 81.7096 42.95 81.9496 42.75L82.2496 43.45C82.0296 43.65 81.7463 43.8067 81.3996 43.92C81.0529 44.0333 80.7029 44.09 80.3496 44.09ZM80.1996 39.74C79.7796 39.74 79.4463 39.87 79.1996 40.13C78.9529 40.39 78.8029 40.7367 78.7496 41.17H81.4796C81.4596 40.7167 81.3396 40.3667 81.1196 40.12C80.8996 39.8667 80.5929 39.74 80.1996 39.74ZM83.4307 44V39.12H84.4107V39.99C84.664 39.41 85.1907 39.0867 85.9907 39.02L86.3207 39L86.3907 39.86L85.7807 39.92C84.894 40.0067 84.4507 40.4633 84.4507 41.29V44H83.4307ZM89.2428 44.09C88.7428 44.09 88.3095 43.9867 87.9428 43.78C87.5828 43.5667 87.3028 43.27 87.1028 42.89C86.9028 42.5033 86.8028 42.05 86.8028 41.53C86.8028 40.7567 87.0228 40.1467 87.4628 39.7C87.9028 39.2533 88.4961 39.03 89.2428 39.03C89.5495 39.03 89.8528 39.0833 90.1528 39.19C90.4528 39.2967 90.6995 39.4433 90.8928 39.63L90.5728 40.34C90.3861 40.1667 90.1795 40.04 89.9528 39.96C89.7328 39.8733 89.5228 39.83 89.3228 39.83C88.8495 39.83 88.4828 39.98 88.2228 40.28C87.9695 40.5733 87.8428 40.9933 87.8428 41.54C87.8428 42.0867 87.9695 42.5167 88.2228 42.83C88.4828 43.1367 88.8495 43.29 89.3228 43.29C89.5228 43.29 89.7328 43.25 89.9528 43.17C90.1795 43.0833 90.3861 42.9533 90.5728 42.78L90.8928 43.5C90.6995 43.68 90.4495 43.8233 90.1428 43.93C89.8428 44.0367 89.5428 44.09 89.2428 44.09ZM91.6708 37.99V36.94H92.8508V37.99H91.6708ZM91.7608 44V39.12H92.7708V44H91.7608ZM96.2724 44.09C95.6591 44.09 95.2024 43.9333 94.9024 43.62C94.6024 43.3067 94.4524 42.8533 94.4524 42.26V39.9H93.5024V39.12H94.4524V37.65H95.4624V39.12H96.9724V39.9H95.4624V42.18C95.4624 42.5333 95.5358 42.8 95.6824 42.98C95.8358 43.16 96.0824 43.25 96.4224 43.25C96.5291 43.25 96.6324 43.24 96.7324 43.22C96.8324 43.1933 96.9324 43.1633 97.0324 43.13L97.1924 43.89C97.0924 43.95 96.9524 43.9967 96.7724 44.03C96.5991 44.07 96.4324 44.09 96.2724 44.09ZM99.4048 44.09C99.0648 44.09 98.7614 44.0233 98.4948 43.89C98.2281 43.7567 98.0148 43.5767 97.8548 43.35C97.7014 43.1233 97.6248 42.8667 97.6248 42.58C97.6248 42.22 97.7148 41.9367 97.8948 41.73C98.0814 41.5233 98.3848 41.3733 98.8048 41.28C99.2314 41.1867 99.8048 41.14 100.525 41.14H100.865V40.88C100.865 40.5 100.785 40.2267 100.625 40.06C100.465 39.8933 100.201 39.81 99.8348 39.81C99.5548 39.81 99.2748 39.8533 98.9948 39.94C98.7148 40.02 98.4281 40.15 98.1348 40.33L97.8248 39.62C98.0781 39.44 98.3948 39.2967 98.7748 39.19C99.1548 39.0833 99.5181 39.03 99.8648 39.03C100.531 39.03 101.025 39.19 101.345 39.51C101.665 39.8233 101.825 40.3167 101.825 40.99V44H100.875V43.19C100.755 43.47 100.568 43.69 100.315 43.85C100.061 44.01 99.7581 44.09 99.4048 44.09ZM99.6048 43.37C99.9648 43.37 100.265 43.2433 100.505 42.99C100.745 42.7367 100.865 42.4167 100.865 42.03V41.76H100.535C100.048 41.76 99.6648 41.7833 99.3848 41.83C99.1114 41.8767 98.9148 41.9567 98.7948 42.07C98.6814 42.1767 98.6248 42.3267 98.6248 42.52C98.6248 42.7733 98.7114 42.98 98.8848 43.14C99.0581 43.2933 99.2981 43.37 99.6048 43.37ZM105.366 44.09C104.866 44.09 104.433 43.9867 104.066 43.78C103.706 43.5667 103.426 43.27 103.226 42.89C103.026 42.5033 102.926 42.05 102.926 41.53C102.926 40.7567 103.146 40.1467 103.586 39.7C104.026 39.2533 104.619 39.03 105.366 39.03C105.673 39.03 105.976 39.0833 106.276 39.19C106.576 39.2967 106.823 39.4433 107.016 39.63L106.696 40.34C106.509 40.1667 106.303 40.04 106.076 39.96C105.856 39.8733 105.646 39.83 105.446 39.83C104.973 39.83 104.606 39.98 104.346 40.28C104.093 40.5733 103.966 40.9933 103.966 41.54C103.966 42.0867 104.093 42.5167 104.346 42.83C104.606 43.1367 104.973 43.29 105.446 43.29C105.646 43.29 105.856 43.25 106.076 43.17C106.303 43.0833 106.509 42.9533 106.696 42.78L107.016 43.5C106.823 43.68 106.573 43.8233 106.266 43.93C105.966 44.0367 105.666 44.09 105.366 44.09ZM107.794 37.99V36.94H108.974V37.99H107.794ZM107.884 44V39.12H108.894V44H107.884ZM112.435 44.09C111.942 44.09 111.515 43.9867 111.155 43.78C110.795 43.5733 110.515 43.2833 110.315 42.91C110.122 42.53 110.025 42.08 110.025 41.56C110.025 41.04 110.122 40.5933 110.315 40.22C110.515 39.84 110.795 39.5467 111.155 39.34C111.515 39.1333 111.942 39.03 112.435 39.03C112.915 39.03 113.335 39.1333 113.695 39.34C114.055 39.5467 114.335 39.84 114.535 40.22C114.735 40.5933 114.835 41.04 114.835 41.56C114.835 42.08 114.735 42.53 114.535 42.91C114.335 43.2833 114.055 43.5733 113.695 43.78C113.335 43.9867 112.915 44.09 112.435 44.09ZM112.435 43.31C112.849 43.31 113.182 43.16 113.435 42.86C113.689 42.56 113.815 42.1267 113.815 41.56C113.815 40.9933 113.689 40.5633 113.435 40.27C113.182 39.97 112.849 39.82 112.435 39.82C112.015 39.82 111.679 39.97 111.425 40.27C111.172 40.5633 111.045 40.9933 111.045 41.56C111.045 42.1267 111.172 42.56 111.425 42.86C111.679 43.16 112.015 43.31 112.435 43.31ZM112.085 38.47L113.115 36.45H114.145L112.785 38.47H112.085ZM115.97 44V39.12H116.95V39.93C117.116 39.6367 117.343 39.4133 117.63 39.26C117.923 39.1067 118.25 39.03 118.61 39.03C119.763 39.03 120.34 39.6833 120.34 40.99V44H119.33V41.05C119.33 40.63 119.246 40.3233 119.08 40.13C118.92 39.9367 118.666 39.84 118.32 39.84C117.913 39.84 117.586 39.97 117.34 40.23C117.1 40.4833 116.98 40.82 116.98 41.24V44H115.97Z" fill="#363636"/>
<rect x="23" y="254" width="0.999989" height="259" rx="0.499994" transform="rotate(-90 23 254)" fill="#979797"/>
<defs>
<linearGradient id="paint0_linear_1758_17" x1="194" y1="141" x2="229" y2="141" gradientUnits="userSpaceOnUse">
<stop stop-color="#8446FF"/>
<stop offset="1" stop-color="#8446FF" stop-opacity="0"/>
</linearGradient>
<linearGradient id="paint1_linear_1758_17" x1="194" y1="333" x2="224" y2="333" gradientUnits="userSpaceOnUse">
<stop stop-color="#FF8E3A"/>
<stop offset="1" stop-color="#8446FF" stop-opacity="0"/>
</linearGradient>
<linearGradient id="paint2_linear_1758_17" x1="194" y1="176" x2="217" y2="176" gradientUnits="userSpaceOnUse">
<stop stop-color="#8446FF"/>
<stop offset="1" stop-color="#8446FF" stop-opacity="0"/>
</linearGradient>
<linearGradient id="paint3_linear_1758_17" x1="194" y1="291" x2="303" y2="291" gradientUnits="userSpaceOnUse">
<stop stop-color="#ED509E"/>
<stop offset="1" stop-color="#8446FF" stop-opacity="0"/>
</linearGradient>
</defs>
</svg>
