<svg width="244" height="141" viewBox="0 0 244 141" fill="none" xmlns="http://www.w3.org/2000/svg">
<circle cx="52" cy="52" r="51.5" stroke="#8446FF"/>
<circle cx="52.5" cy="52.5" r="33" stroke="#8446FF"/>
<circle cx="192.5" cy="52.5" r="33" stroke="#8446FF"/>
<circle cx="192.5" cy="52.5" r="18" stroke="#8446FF"/>
<circle cx="52.5" cy="52.5" r="18" stroke="#8446FF"/>
<circle cx="192" cy="52" r="51.5" stroke="#8446FF"/>
<path d="M37.64 138V130.95H42.56V132.37H39.48V133.79H42.34V135.2H39.48V138H37.64ZM44.8257 138.11C44.4457 138.11 44.109 138.04 43.8157 137.9C43.529 137.76 43.3024 137.57 43.1357 137.33C42.9757 137.083 42.8957 136.803 42.8957 136.49C42.8957 136.137 42.989 135.857 43.1757 135.65C43.3624 135.437 43.6624 135.287 44.0757 135.2C44.489 135.107 45.039 135.06 45.7257 135.06H46.1057V134.92C46.1057 134.68 46.0424 134.51 45.9157 134.41C45.7957 134.31 45.5857 134.26 45.2857 134.26C45.0324 134.26 44.7524 134.3 44.4457 134.38C44.139 134.46 43.839 134.583 43.5457 134.75L43.0957 133.58C43.2624 133.46 43.4757 133.353 43.7357 133.26C43.9957 133.167 44.269 133.097 44.5557 133.05C44.8424 132.997 45.1124 132.97 45.3657 132.97C46.1857 132.97 46.7924 133.147 47.1857 133.5C47.5857 133.853 47.7857 134.41 47.7857 135.17V138H46.1257V137.3C46.039 137.553 45.8824 137.753 45.6557 137.9C45.429 138.04 45.1524 138.11 44.8257 138.11ZM45.2257 136.95C45.4724 136.95 45.679 136.87 45.8457 136.71C46.019 136.55 46.1057 136.34 46.1057 136.08V135.9H45.7257C45.3324 135.9 45.0424 135.943 44.8557 136.03C44.6757 136.11 44.5857 136.24 44.5857 136.42C44.5857 136.573 44.639 136.7 44.7457 136.8C44.859 136.9 45.019 136.95 45.2257 136.95ZM50.7393 138.11C50.0593 138.11 49.566 137.94 49.2593 137.6C48.9526 137.253 48.7993 136.733 48.7993 136.04V130.95H50.5793V135.98C50.5793 136.447 50.7926 136.68 51.2193 136.68C51.286 136.68 51.3526 136.677 51.4193 136.67C51.4926 136.663 51.5626 136.653 51.6293 136.64L51.6093 138C51.3426 138.073 51.0526 138.11 50.7393 138.11ZM54.2159 138.11C53.5359 138.11 53.0425 137.94 52.7359 137.6C52.4292 137.253 52.2759 136.733 52.2759 136.04V130.95H54.0559V135.98C54.0559 136.447 54.2692 136.68 54.6959 136.68C54.7625 136.68 54.8292 136.677 54.8959 136.67C54.9692 136.663 55.0392 136.653 55.1059 136.64L55.0859 138C54.8192 138.073 54.5292 138.11 54.2159 138.11ZM57.4624 138.11C57.0824 138.11 56.7458 138.04 56.4524 137.9C56.1658 137.76 55.9391 137.57 55.7724 137.33C55.6124 137.083 55.5324 136.803 55.5324 136.49C55.5324 136.137 55.6258 135.857 55.8124 135.65C55.9991 135.437 56.2991 135.287 56.7124 135.2C57.1258 135.107 57.6758 135.06 58.3624 135.06H58.7424V134.92C58.7424 134.68 58.6791 134.51 58.5524 134.41C58.4324 134.31 58.2224 134.26 57.9224 134.26C57.6691 134.26 57.3891 134.3 57.0824 134.38C56.7758 134.46 56.4758 134.583 56.1824 134.75L55.7324 133.58C55.8991 133.46 56.1124 133.353 56.3724 133.26C56.6324 133.167 56.9058 133.097 57.1924 133.05C57.4791 132.997 57.7491 132.97 58.0024 132.97C58.8224 132.97 59.4291 133.147 59.8224 133.5C60.2224 133.853 60.4224 134.41 60.4224 135.17V138H58.7624V137.3C58.6758 137.553 58.5191 137.753 58.2924 137.9C58.0658 138.04 57.7891 138.11 57.4624 138.11ZM57.8624 136.95C58.1091 136.95 58.3158 136.87 58.4824 136.71C58.6558 136.55 58.7424 136.34 58.7424 136.08V135.9H58.3624C57.9691 135.9 57.6791 135.943 57.4924 136.03C57.3124 136.11 57.2224 136.24 57.2224 136.42C57.2224 136.573 57.2758 136.7 57.3824 136.8C57.4958 136.9 57.6558 136.95 57.8624 136.95ZM61.436 138V133.08H63.166V133.91C63.3927 133.343 63.8827 133.033 64.636 132.98L65.126 132.94L65.226 134.44L64.256 134.53C63.9027 134.563 63.646 134.663 63.486 134.83C63.326 134.99 63.246 135.23 63.246 135.55V138H61.436Z" fill="#363636"/>
<path d="M172.64 138V130.95H177.56V132.37H174.48V133.79H177.34V135.2H174.48V138H172.64ZM178.213 138V133.08H179.943V133.91C180.17 133.343 180.66 133.033 181.413 132.98L181.903 132.94L182.003 134.44L181.033 134.53C180.68 134.563 180.423 134.663 180.263 134.83C180.103 134.99 180.023 135.23 180.023 135.55V138H178.213ZM184.21 138.11C183.83 138.11 183.494 138.04 183.2 137.9C182.914 137.76 182.687 137.57 182.52 137.33C182.36 137.083 182.28 136.803 182.28 136.49C182.28 136.137 182.374 135.857 182.56 135.65C182.747 135.437 183.047 135.287 183.46 135.2C183.874 135.107 184.424 135.06 185.11 135.06H185.49V134.92C185.49 134.68 185.427 134.51 185.3 134.41C185.18 134.31 184.97 134.26 184.67 134.26C184.417 134.26 184.137 134.3 183.83 134.38C183.524 134.46 183.224 134.583 182.93 134.75L182.48 133.58C182.647 133.46 182.86 133.353 183.12 133.26C183.38 133.167 183.654 133.097 183.94 133.05C184.227 132.997 184.497 132.97 184.75 132.97C185.57 132.97 186.177 133.147 186.57 133.5C186.97 133.853 187.17 134.41 187.17 135.17V138H185.51V137.3C185.424 137.553 185.267 137.753 185.04 137.9C184.814 138.04 184.537 138.11 184.21 138.11ZM184.61 136.95C184.857 136.95 185.064 136.87 185.23 136.71C185.404 136.55 185.49 136.34 185.49 136.08V135.9H185.11C184.717 135.9 184.427 135.943 184.24 136.03C184.06 136.11 183.97 136.24 183.97 136.42C183.97 136.573 184.024 136.7 184.13 136.8C184.244 136.9 184.404 136.95 184.61 136.95ZM190.694 138.11C190.141 138.11 189.657 138.007 189.244 137.8C188.837 137.593 188.521 137.297 188.294 136.91C188.067 136.523 187.954 136.063 187.954 135.53C187.954 134.997 188.067 134.54 188.294 134.16C188.521 133.773 188.837 133.48 189.244 133.28C189.657 133.073 190.141 132.97 190.694 132.97C191.021 132.97 191.344 133.017 191.664 133.11C191.991 133.197 192.257 133.32 192.464 133.48L191.994 134.7C191.841 134.58 191.661 134.487 191.454 134.42C191.254 134.347 191.064 134.31 190.884 134.31C190.531 134.31 190.257 134.417 190.064 134.63C189.871 134.843 189.774 135.143 189.774 135.53C189.774 135.923 189.871 136.23 190.064 136.45C190.257 136.663 190.531 136.77 190.884 136.77C191.064 136.77 191.254 136.737 191.454 136.67C191.661 136.597 191.841 136.5 191.994 136.38L192.464 137.6C192.257 137.76 191.991 137.887 191.664 137.98C191.337 138.067 191.014 138.11 190.694 138.11ZM194.728 138.11C194.348 138.11 194.011 138.04 193.718 137.9C193.431 137.76 193.205 137.57 193.038 137.33C192.878 137.083 192.798 136.803 192.798 136.49C192.798 136.137 192.891 135.857 193.078 135.65C193.265 135.437 193.565 135.287 193.978 135.2C194.391 135.107 194.941 135.06 195.628 135.06H196.008V134.92C196.008 134.68 195.945 134.51 195.818 134.41C195.698 134.31 195.488 134.26 195.188 134.26C194.935 134.26 194.655 134.3 194.348 134.38C194.041 134.46 193.741 134.583 193.448 134.75L192.998 133.58C193.165 133.46 193.378 133.353 193.638 133.26C193.898 133.167 194.171 133.097 194.458 133.05C194.745 132.997 195.015 132.97 195.268 132.97C196.088 132.97 196.695 133.147 197.088 133.5C197.488 133.853 197.688 134.41 197.688 135.17V138H196.028V137.3C195.941 137.553 195.785 137.753 195.558 137.9C195.331 138.04 195.055 138.11 194.728 138.11ZM195.128 136.95C195.375 136.95 195.581 136.87 195.748 136.71C195.921 136.55 196.008 136.34 196.008 136.08V135.9H195.628C195.235 135.9 194.945 135.943 194.758 136.03C194.578 136.11 194.488 136.24 194.488 136.42C194.488 136.573 194.541 136.7 194.648 136.8C194.761 136.9 194.921 136.95 195.128 136.95ZM200.662 138.11C200.208 138.11 199.788 138.063 199.402 137.97C199.022 137.877 198.698 137.747 198.432 137.58L198.842 136.43C199.088 136.57 199.375 136.687 199.702 136.78C200.028 136.867 200.352 136.91 200.672 136.91C200.918 136.91 201.095 136.877 201.202 136.81C201.308 136.737 201.362 136.643 201.362 136.53C201.362 136.43 201.325 136.357 201.252 136.31C201.185 136.257 201.088 136.217 200.962 136.19L199.852 136.01C199.438 135.943 199.118 135.793 198.892 135.56C198.665 135.327 198.552 135.023 198.552 134.65C198.552 134.303 198.648 134.007 198.842 133.76C199.035 133.507 199.305 133.313 199.652 133.18C199.998 133.04 200.395 132.97 200.842 132.97C201.195 132.97 201.545 133.013 201.892 133.1C202.238 133.18 202.542 133.313 202.802 133.5L202.362 134.63C202.168 134.497 201.928 134.387 201.642 134.3C201.355 134.207 201.098 134.16 200.872 134.16C200.598 134.16 200.405 134.2 200.292 134.28C200.178 134.353 200.122 134.443 200.122 134.55C200.122 134.73 200.245 134.84 200.492 134.88L201.602 135.07C202.028 135.137 202.355 135.283 202.582 135.51C202.815 135.73 202.932 136.03 202.932 136.41C202.932 136.95 202.725 137.37 202.312 137.67C201.898 137.963 201.348 138.11 200.662 138.11ZM205.373 138.11C204.993 138.11 204.656 138.04 204.363 137.9C204.076 137.76 203.849 137.57 203.683 137.33C203.523 137.083 203.443 136.803 203.443 136.49C203.443 136.137 203.536 135.857 203.723 135.65C203.909 135.437 204.209 135.287 204.623 135.2C205.036 135.107 205.586 135.06 206.273 135.06H206.653V134.92C206.653 134.68 206.589 134.51 206.463 134.41C206.343 134.31 206.133 134.26 205.833 134.26C205.579 134.26 205.299 134.3 204.993 134.38C204.686 134.46 204.386 134.583 204.093 134.75L203.643 133.58C203.809 133.46 204.023 133.353 204.283 133.26C204.543 133.167 204.816 133.097 205.103 133.05C205.389 132.997 205.659 132.97 205.913 132.97C206.733 132.97 207.339 133.147 207.733 133.5C208.133 133.853 208.333 134.41 208.333 135.17V138H206.673V137.3C206.586 137.553 206.429 137.753 206.203 137.9C205.976 138.04 205.699 138.11 205.373 138.11ZM205.773 136.95C206.019 136.95 206.226 136.87 206.393 136.71C206.566 136.55 206.653 136.34 206.653 136.08V135.9H206.273C205.879 135.9 205.589 135.943 205.403 136.03C205.223 136.11 205.133 136.24 205.133 136.42C205.133 136.573 205.186 136.7 205.293 136.8C205.406 136.9 205.566 136.95 205.773 136.95ZM209.346 138V133.08H211.076V133.91C211.303 133.343 211.793 133.033 212.546 132.98L213.036 132.94L213.136 134.44L212.166 134.53C211.813 134.563 211.556 134.663 211.396 134.83C211.236 134.99 211.156 135.23 211.156 135.55V138H209.346Z" fill="#363636"/>
<path d="M8.36971 1.29971C8.44137 1.23056 8.49855 1.14783 8.5379 1.05634C8.57725 0.964857 8.59798 0.866452 8.59889 0.766868C8.5998 0.667285 8.58088 0.568516 8.54321 0.476327C8.50554 0.384137 8.44989 0.300372 8.37951 0.22992C8.30912 0.159467 8.22541 0.103738 8.13325 0.0659841C8.0411 0.02823 7.94235 0.00920731 7.84276 0.0100254C7.74318 0.0108435 7.64476 0.0314862 7.55323 0.0707492C7.46171 0.110012 7.37893 0.167109 7.30971 0.238708L4.30371 3.24371L1.29871 0.238708C1.23005 0.165022 1.14725 0.105919 1.05525 0.0649275C0.963247 0.0239355 0.863934 0.0018935 0.763231 0.00011672C0.662528 -0.00166006 0.562499 0.0168648 0.469111 0.0545858C0.375723 0.0923068 0.290889 0.148451 0.21967 0.21967C0.148451 0.290889 0.0923068 0.375722 0.0545858 0.46911C0.0168648 0.562499 -0.00166006 0.662528 0.00011672 0.763231C0.0018935 0.863934 0.0239355 0.963247 0.0649275 1.05525C0.105919 1.14725 0.165022 1.23005 0.238708 1.29871L3.24171 4.30471L0.236709 7.30971C0.104229 7.45188 0.0321051 7.63993 0.0355333 7.83423C0.0389615 8.02853 0.117674 8.21392 0.255087 8.35133C0.3925 8.48874 0.577885 8.56745 0.772186 8.57088C0.966487 8.57431 1.15453 8.50219 1.29671 8.36971L4.30371 5.36471L7.30871 8.37071C7.45088 8.50319 7.63893 8.57531 7.83323 8.57188C8.02753 8.56846 8.21292 8.48974 8.35033 8.35233C8.48774 8.21492 8.56645 8.02953 8.56988 7.83523C8.57331 7.64093 8.50119 7.45288 8.36871 7.31071L5.36571 4.30471L8.36971 1.29971Z" fill="#0D1032"/>
</svg>
