<svg width="236" height="97" viewBox="0 0 236 97" fill="none" xmlns="http://www.w3.org/2000/svg">
<rect x="197" y="8" width="12" height="88" rx="2.5" fill="#8446FF"/>
<rect x="236" y="96" width="1.00001" height="236" rx="0.500005" transform="rotate(90 236 96)" fill="#979797"/>
<rect x="177" y="16" width="12" height="80" rx="2.5" fill="#8446FF"/>
<rect x="157" y="27" width="12" height="69" rx="2.5" fill="#8446FF"/>
<rect x="145.103" y="37" width="12" height="58" rx="2.5" transform="rotate(8.03019 145.103 37)" fill="#8446FF"/>
<rect x="133.351" y="41" width="12" height="54.8185" rx="2.5" transform="rotate(24.0625 133.351 41)" fill="#8446FF"/>
<rect x="117.563" y="48" width="12" height="55.0034" rx="2.5" transform="rotate(43.0724 117.563 48)" fill="#8446FF"/>
<rect x="87.939" y="63" width="12" height="45.6918" rx="2.5" transform="rotate(60.9381 87.939 63)" fill="#8446FF"/>
<rect x="47.8916" y="68" width="12" height="28.7439" rx="2.5" transform="rotate(46.6201 47.8916 68)" fill="#8446FF"/>
<path d="M27.656 9V3.36H31.304V4.032H28.456V5.8H31.136V6.472H28.456V8.328H31.304V9H27.656ZM33.3526 9L31.6726 5.096H32.5446L33.7366 8.064L34.9606 5.096H35.7846L34.0806 9H33.3526ZM38.1266 9.072C37.4866 9.072 36.9826 8.89333 36.6146 8.536C36.2466 8.17333 36.0626 7.68 36.0626 7.056C36.0626 6.656 36.1426 6.304 36.3026 6C36.4679 5.69067 36.6946 5.45067 36.9826 5.28C37.2706 5.10933 37.6012 5.024 37.9746 5.024C38.5132 5.024 38.9372 5.19733 39.2466 5.544C39.5559 5.88533 39.7106 6.35733 39.7106 6.96V7.232H36.8466C36.9052 8.04267 37.3346 8.448 38.1346 8.448C38.3586 8.448 38.5772 8.41333 38.7906 8.344C39.0092 8.27467 39.2146 8.16 39.4066 8L39.6466 8.56C39.4706 8.72 39.2439 8.84533 38.9666 8.936C38.6892 9.02667 38.4092 9.072 38.1266 9.072ZM38.0066 5.592C37.6706 5.592 37.4039 5.696 37.2066 5.904C37.0092 6.112 36.8892 6.38933 36.8466 6.736H39.0306C39.0146 6.37333 38.9186 6.09333 38.7426 5.896C38.5666 5.69333 38.3212 5.592 38.0066 5.592ZM40.5914 9V5.096H41.3754V5.744C41.5088 5.50933 41.6901 5.33067 41.9194 5.208C42.1541 5.08533 42.4154 5.024 42.7034 5.024C43.6261 5.024 44.0874 5.54667 44.0874 6.592V9H43.2794V6.64C43.2794 6.304 43.2128 6.05867 43.0794 5.904C42.9514 5.74933 42.7488 5.672 42.4714 5.672C42.1461 5.672 41.8848 5.776 41.6874 5.984C41.4954 6.18667 41.3994 6.456 41.3994 6.792V9H40.5914ZM46.8648 9.072C46.3741 9.072 46.0088 8.94667 45.7688 8.696C45.5288 8.44533 45.4088 8.08267 45.4088 7.608V5.72H44.6488V5.096H45.4088V3.92H46.2168V5.096H47.4248V5.72H46.2168V7.544C46.2168 7.82667 46.2755 8.04 46.3928 8.184C46.5155 8.328 46.7128 8.4 46.9848 8.4C47.0701 8.4 47.1528 8.392 47.2328 8.376C47.3128 8.35467 47.3928 8.33067 47.4728 8.304L47.6008 8.912C47.5208 8.96 47.4088 8.99733 47.2648 9.024C47.1261 9.056 46.9928 9.072 46.8648 9.072ZM49.7796 9.072C49.385 9.072 49.0436 8.98933 48.7556 8.824C48.4676 8.65867 48.2436 8.42667 48.0836 8.128C47.929 7.824 47.8516 7.464 47.8516 7.048C47.8516 6.632 47.929 6.27467 48.0836 5.976C48.2436 5.672 48.4676 5.43733 48.7556 5.272C49.0436 5.10667 49.385 5.024 49.7796 5.024C50.1636 5.024 50.4996 5.10667 50.7876 5.272C51.0756 5.43733 51.2996 5.672 51.4596 5.976C51.6196 6.27467 51.6996 6.632 51.6996 7.048C51.6996 7.464 51.6196 7.824 51.4596 8.128C51.2996 8.42667 51.0756 8.65867 50.7876 8.824C50.4996 8.98933 50.1636 9.072 49.7796 9.072ZM49.7796 8.448C50.1103 8.448 50.377 8.328 50.5796 8.088C50.7823 7.848 50.8836 7.50133 50.8836 7.048C50.8836 6.59467 50.7823 6.25067 50.5796 6.016C50.377 5.776 50.1103 5.656 49.7796 5.656C49.4436 5.656 49.1743 5.776 48.9716 6.016C48.769 6.25067 48.6676 6.59467 48.6676 7.048C48.6676 7.50133 48.769 7.848 48.9716 8.088C49.1743 8.328 49.4436 8.448 49.7796 8.448ZM53.9751 9.072C53.6551 9.072 53.3564 9.032 53.0791 8.952C52.8017 8.86667 52.5697 8.74933 52.3831 8.6L52.6151 8.056C52.8124 8.19467 53.0284 8.30133 53.2631 8.376C53.5031 8.45067 53.7431 8.488 53.9831 8.488C54.2657 8.488 54.4791 8.43733 54.6231 8.336C54.7671 8.23467 54.8391 8.09867 54.8391 7.928C54.8391 7.78933 54.7911 7.68267 54.6951 7.608C54.5991 7.528 54.4551 7.46667 54.2631 7.424L53.5031 7.272C52.8311 7.13333 52.4951 6.78667 52.4951 6.232C52.4951 5.864 52.6417 5.57067 52.9351 5.352C53.2284 5.13333 53.6124 5.024 54.0871 5.024C54.3591 5.024 54.6177 5.064 54.8631 5.144C55.1137 5.224 55.3217 5.344 55.4871 5.504L55.2551 6.048C55.0951 5.90933 54.9111 5.80267 54.7031 5.728C54.4951 5.65333 54.2897 5.616 54.0871 5.616C53.8097 5.616 53.5991 5.66933 53.4551 5.776C53.3111 5.87733 53.2391 6.016 53.2391 6.192C53.2391 6.45867 53.4151 6.62933 53.7671 6.704L54.5271 6.856C54.8737 6.92533 55.1351 7.04267 55.3111 7.208C55.4924 7.37333 55.5831 7.59733 55.5831 7.88C55.5831 8.25333 55.4364 8.54667 55.1431 8.76C54.8497 8.968 54.4604 9.072 53.9751 9.072ZM58.5116 4.192V3.352H59.4556V4.192H58.5116ZM58.5836 9V5.096H59.3916V9H58.5836ZM60.5449 9V5.096H61.3289V5.728C61.4463 5.504 61.6089 5.33067 61.8169 5.208C62.0249 5.08533 62.2676 5.024 62.5449 5.024C63.1423 5.024 63.5289 5.28533 63.7049 5.808C63.8276 5.56267 64.0036 5.37067 64.2329 5.232C64.4623 5.09333 64.7236 5.024 65.0169 5.024C65.8916 5.024 66.3289 5.54667 66.3289 6.592V9H65.5209V6.632C65.5209 6.30133 65.4623 6.05867 65.3449 5.904C65.2329 5.74933 65.0463 5.672 64.7849 5.672C64.4916 5.672 64.2596 5.776 64.0889 5.984C63.9183 6.18667 63.8329 6.464 63.8329 6.816V9H63.0249V6.632C63.0249 6.30133 62.9689 6.05867 62.8569 5.904C62.7449 5.74933 62.5583 5.672 62.2969 5.672C62.0036 5.672 61.7716 5.776 61.6009 5.984C61.4356 6.18667 61.3529 6.464 61.3529 6.816V9H60.5449ZM67.4586 10.44V5.096H68.2506V5.76C68.3626 5.536 68.5333 5.35733 68.7626 5.224C68.992 5.09067 69.256 5.024 69.5546 5.024C69.9013 5.024 70.2026 5.10667 70.4586 5.272C70.72 5.43733 70.92 5.672 71.0586 5.976C71.2026 6.27467 71.2746 6.632 71.2746 7.048C71.2746 7.464 71.2026 7.824 71.0586 8.128C70.92 8.432 70.72 8.66667 70.4586 8.832C70.2026 8.992 69.9013 9.072 69.5546 9.072C69.2666 9.072 69.008 9.01067 68.7786 8.888C68.5546 8.76 68.384 8.58667 68.2666 8.368V10.44H67.4586ZM69.3546 8.448C69.6906 8.448 69.9573 8.328 70.1546 8.088C70.3573 7.848 70.4586 7.50133 70.4586 7.048C70.4586 6.59467 70.3573 6.25067 70.1546 6.016C69.9573 5.776 69.6906 5.656 69.3546 5.656C69.0186 5.656 68.7493 5.776 68.5466 6.016C68.3493 6.25067 68.2506 6.59467 68.2506 7.048C68.2506 7.50133 68.3493 7.848 68.5466 8.088C68.7493 8.328 69.0186 8.448 69.3546 8.448ZM74.0172 9.072C73.3772 9.072 72.8732 8.89333 72.5052 8.536C72.1372 8.17333 71.9532 7.68 71.9532 7.056C71.9532 6.656 72.0332 6.304 72.1932 6C72.3585 5.69067 72.5852 5.45067 72.8732 5.28C73.1612 5.10933 73.4919 5.024 73.8652 5.024C74.4039 5.024 74.8279 5.19733 75.1372 5.544C75.4465 5.88533 75.6012 6.35733 75.6012 6.96V7.232H72.7372C72.7959 8.04267 73.2252 8.448 74.0252 8.448C74.2492 8.448 74.4679 8.41333 74.6812 8.344C74.8999 8.27467 75.1052 8.16 75.2972 8L75.5372 8.56C75.3612 8.72 75.1345 8.84533 74.8572 8.936C74.5799 9.02667 74.2999 9.072 74.0172 9.072ZM73.8972 5.592C73.5612 5.592 73.2945 5.696 73.0972 5.904C72.8999 6.112 72.7799 6.38933 72.7372 6.736H74.9212C74.9052 6.37333 74.8092 6.09333 74.6332 5.896C74.4572 5.69333 74.2119 5.592 73.8972 5.592ZM77.5714 9L75.8914 5.096H76.7634L77.9554 8.064L79.1794 5.096H80.0034L78.2994 9H77.5714ZM80.5116 4.192V3.352H81.4556V4.192H80.5116ZM80.5836 9V5.096H81.3916V9H80.5836ZM83.8969 9.072C83.5769 9.072 83.2783 9.032 83.0009 8.952C82.7236 8.86667 82.4916 8.74933 82.3049 8.6L82.5369 8.056C82.7343 8.19467 82.9503 8.30133 83.1849 8.376C83.4249 8.45067 83.6649 8.488 83.9049 8.488C84.1876 8.488 84.4009 8.43733 84.5449 8.336C84.6889 8.23467 84.7609 8.09867 84.7609 7.928C84.7609 7.78933 84.7129 7.68267 84.6169 7.608C84.5209 7.528 84.3769 7.46667 84.1849 7.424L83.4249 7.272C82.7529 7.13333 82.4169 6.78667 82.4169 6.232C82.4169 5.864 82.5636 5.57067 82.8569 5.352C83.1503 5.13333 83.5343 5.024 84.0089 5.024C84.2809 5.024 84.5396 5.064 84.7849 5.144C85.0356 5.224 85.2436 5.344 85.4089 5.504L85.1769 6.048C85.0169 5.90933 84.8329 5.80267 84.6249 5.728C84.4169 5.65333 84.2116 5.616 84.0089 5.616C83.7316 5.616 83.5209 5.66933 83.3769 5.776C83.2329 5.87733 83.1609 6.016 83.1609 6.192C83.1609 6.45867 83.3369 6.62933 83.6889 6.704L84.4489 6.856C84.7956 6.92533 85.0569 7.04267 85.2329 7.208C85.4143 7.37333 85.5049 7.59733 85.5049 7.88C85.5049 8.25333 85.3583 8.54667 85.0649 8.76C84.7716 8.968 84.3823 9.072 83.8969 9.072ZM88.0289 9.072C87.5382 9.072 87.1729 8.94667 86.9329 8.696C86.6929 8.44533 86.5729 8.08267 86.5729 7.608V5.72H85.8129V5.096H86.5729V3.92H87.3809V5.096H88.5889V5.72H87.3809V7.544C87.3809 7.82667 87.4395 8.04 87.5569 8.184C87.6795 8.328 87.8769 8.4 88.1489 8.4C88.2342 8.4 88.3169 8.392 88.3969 8.376C88.4769 8.35467 88.5569 8.33067 88.6369 8.304L88.7649 8.912C88.6849 8.96 88.5729 8.99733 88.4289 9.024C88.2902 9.056 88.1569 9.072 88.0289 9.072ZM90.9437 9.072C90.549 9.072 90.2077 8.98933 89.9197 8.824C89.6317 8.65867 89.4077 8.42667 89.2477 8.128C89.093 7.824 89.0157 7.464 89.0157 7.048C89.0157 6.632 89.093 6.27467 89.2477 5.976C89.4077 5.672 89.6317 5.43733 89.9197 5.272C90.2077 5.10667 90.549 5.024 90.9437 5.024C91.3277 5.024 91.6637 5.10667 91.9517 5.272C92.2397 5.43733 92.4637 5.672 92.6237 5.976C92.7837 6.27467 92.8637 6.632 92.8637 7.048C92.8637 7.464 92.7837 7.824 92.6237 8.128C92.4637 8.42667 92.2397 8.65867 91.9517 8.824C91.6637 8.98933 91.3277 9.072 90.9437 9.072ZM90.9437 8.448C91.2744 8.448 91.541 8.328 91.7437 8.088C91.9464 7.848 92.0477 7.50133 92.0477 7.048C92.0477 6.59467 91.9464 6.25067 91.7437 6.016C91.541 5.776 91.2744 5.656 90.9437 5.656C90.6077 5.656 90.3384 5.776 90.1357 6.016C89.933 6.25067 89.8317 6.59467 89.8317 7.048C89.8317 7.50133 89.933 7.848 90.1357 8.088C90.3384 8.328 90.6077 8.448 90.9437 8.448ZM95.1391 9.072C94.8191 9.072 94.5205 9.032 94.2431 8.952C93.9658 8.86667 93.7338 8.74933 93.5471 8.6L93.7791 8.056C93.9765 8.19467 94.1925 8.30133 94.4271 8.376C94.6671 8.45067 94.9071 8.488 95.1471 8.488C95.4298 8.488 95.6431 8.43733 95.7871 8.336C95.9311 8.23467 96.0031 8.09867 96.0031 7.928C96.0031 7.78933 95.9551 7.68267 95.8591 7.608C95.7631 7.528 95.6191 7.46667 95.4271 7.424L94.6671 7.272C93.9951 7.13333 93.6591 6.78667 93.6591 6.232C93.6591 5.864 93.8058 5.57067 94.0991 5.352C94.3925 5.13333 94.7765 5.024 95.2511 5.024C95.5231 5.024 95.7818 5.064 96.0271 5.144C96.2778 5.224 96.4858 5.344 96.6511 5.504L96.4191 6.048C96.2591 5.90933 96.0751 5.80267 95.8671 5.728C95.6591 5.65333 95.4538 5.616 95.2511 5.616C94.9738 5.616 94.7631 5.66933 94.6191 5.776C94.4751 5.87733 94.4031 6.016 94.4031 6.192C94.4031 6.45867 94.5791 6.62933 94.9311 6.704L95.6911 6.856C96.0378 6.92533 96.2991 7.04267 96.4751 7.208C96.6565 7.37333 96.7471 7.59733 96.7471 7.88C96.7471 8.25333 96.6005 8.54667 96.3071 8.76C96.0138 8.968 95.6245 9.072 95.1391 9.072Z" fill="#979797"/>
<mask id="mask0_1758_15" style="mask-type:luminance" maskUnits="userSpaceOnUse" x="6" y="7" width="80" height="69">
<path d="M25.9614 7.00008L85.1646 38.5889L65.2032 76L6.00012 44.4112L25.9614 7.00008Z" fill="white"/>
</mask>
<g mask="url(#mask0_1758_15)">
<path d="M40.0426 18.2709C40.0426 18.2709 31.5901 37.8408 50.134 56.9546" stroke="#363636" stroke-linecap="round" stroke-linejoin="round"/>
<path d="M52.8244 51.5451L51.288 58.6078L44.5689 56.7015" stroke="#363636" stroke-linecap="round" stroke-linejoin="round"/>
</g>
</svg>
