<svg width="269" height="100" viewBox="0 0 269 100" fill="none" xmlns="http://www.w3.org/2000/svg">
<path d="M11.6801 1.81947C11.7801 1.72266 11.8599 1.60685 11.9148 1.47878C11.9697 1.35071 11.9987 1.21295 12 1.07354C12.0012 0.934136 11.9748 0.79587 11.9222 0.666813C11.8697 0.537756 11.792 0.420493 11.6938 0.321866C11.5956 0.223239 11.4787 0.145224 11.3501 0.0923716C11.2215 0.0395194 11.0837 0.0128894 10.9448 0.0140346C10.8058 0.0151799 10.6684 0.0440777 10.5407 0.0990422C10.413 0.154007 10.2975 0.233937 10.2009 0.334169L6.00593 4.54089L1.81238 0.334169C1.71656 0.231015 1.60101 0.148277 1.47262 0.0908924C1.34423 0.0335075 1.20564 0.00265073 1.06511 0.000163397C0.924573 -0.00232394 0.78498 0.0236092 0.654655 0.0764151C0.52433 0.129221 0.405942 0.207818 0.306555 0.307518C0.207167 0.407217 0.128816 0.525976 0.0761758 0.656711C0.0235352 0.787445 -0.00231666 0.927478 0.000162885 1.06845C0.00264243 1.20943 0.0334026 1.34846 0.0906078 1.47725C0.147813 1.60604 0.230291 1.72195 0.333123 1.81807L4.52388 6.02619L0.330332 10.2329C0.145453 10.4319 0.0448034 10.6952 0.0495876 10.9672C0.0543717 11.2392 0.164216 11.4987 0.35598 11.6911C0.547743 11.8834 0.806451 11.9936 1.0776 11.9984C1.34875 12.0032 1.61118 11.9023 1.80959 11.7168L6.00593 7.51009L10.1995 11.7182C10.3979 11.9037 10.6603 12.0046 10.9315 11.9998C11.2026 11.995 11.4613 11.8848 11.6531 11.6925C11.8448 11.5001 11.9547 11.2406 11.9595 10.9686C11.9643 10.6966 11.8636 10.4333 11.6787 10.2343L7.48797 6.02619L11.6801 1.81947Z" fill="#8446FF"/>
<path d="M11.6801 19.8195C11.7801 19.7227 11.8599 19.6068 11.9148 19.4788C11.9697 19.3507 11.9987 19.213 12 19.0735C12.0012 18.9341 11.9748 18.7959 11.9222 18.6668C11.8697 18.5378 11.792 18.4205 11.6938 18.3219C11.5956 18.2232 11.4787 18.1452 11.3501 18.0924C11.2215 18.0395 11.0837 18.0129 10.9448 18.014C10.8058 18.0152 10.6684 18.0441 10.5407 18.099C10.413 18.154 10.2975 18.2339 10.2009 18.3342L6.00593 22.5409L1.81238 18.3342C1.71656 18.231 1.60101 18.1483 1.47262 18.0909C1.34423 18.0335 1.20564 18.0027 1.06511 18.0002C0.924573 17.9977 0.78498 18.0236 0.654655 18.0764C0.52433 18.1292 0.405942 18.2078 0.306555 18.3075C0.207167 18.4072 0.128816 18.526 0.0761758 18.6567C0.0235352 18.7874 -0.00231666 18.9275 0.000162885 19.0685C0.00264243 19.2094 0.0334026 19.3485 0.0906078 19.4772C0.147813 19.606 0.230291 19.722 0.333123 19.8181L4.52388 24.0262L0.330332 28.2329C0.145453 28.4319 0.0448034 28.6952 0.0495876 28.9672C0.0543717 29.2392 0.164216 29.4987 0.35598 29.6911C0.547743 29.8834 0.806451 29.9936 1.0776 29.9984C1.34875 30.0032 1.61118 29.9023 1.80959 29.7168L6.00593 25.5101L10.1995 29.7182C10.3979 29.9037 10.6603 30.0046 10.9315 29.9998C11.2026 29.995 11.4613 29.8848 11.6531 29.6925C11.8448 29.5001 11.9547 29.2406 11.9595 28.9686C11.9643 28.6966 11.8636 28.4333 11.6787 28.2343L7.48797 24.0262L11.6801 19.8195Z" fill="#8446FF"/>
<path d="M11.6801 37.8195C11.7801 37.7227 11.8599 37.6068 11.9148 37.4788C11.9697 37.3507 11.9987 37.213 12 37.0735C12.0012 36.9341 11.9748 36.7959 11.9222 36.6668C11.8697 36.5378 11.792 36.4205 11.6938 36.3219C11.5956 36.2232 11.4787 36.1452 11.3501 36.0924C11.2215 36.0395 11.0837 36.0129 10.9448 36.014C10.8058 36.0152 10.6684 36.0441 10.5407 36.099C10.413 36.154 10.2975 36.2339 10.2009 36.3342L6.00593 40.5409L1.81238 36.3342C1.71656 36.231 1.60101 36.1483 1.47262 36.0909C1.34423 36.0335 1.20564 36.0027 1.06511 36.0002C0.924573 35.9977 0.78498 36.0236 0.654655 36.0764C0.52433 36.1292 0.405942 36.2078 0.306555 36.3075C0.207167 36.4072 0.128816 36.526 0.0761758 36.6567C0.0235352 36.7874 -0.00231666 36.9275 0.000162885 37.0685C0.00264243 37.2094 0.0334026 37.3485 0.0906078 37.4772C0.147813 37.606 0.230291 37.722 0.333123 37.8181L4.52388 42.0262L0.330332 46.2329C0.145453 46.4319 0.0448034 46.6952 0.0495876 46.9672C0.0543717 47.2392 0.164216 47.4987 0.35598 47.6911C0.547743 47.8834 0.806451 47.9936 1.0776 47.9984C1.34875 48.0032 1.61118 47.9023 1.80959 47.7168L6.00593 43.5101L10.1995 47.7182C10.3979 47.9037 10.6603 48.0046 10.9315 47.9998C11.2026 47.995 11.4613 47.8848 11.6531 47.6925C11.8448 47.5001 11.9547 47.2406 11.9595 46.9686C11.9643 46.6966 11.8636 46.4333 11.6787 46.2343L7.48797 42.0262L11.6801 37.8195Z" fill="#8446FF"/>
<path d="M11.6801 55.8195C11.7801 55.7227 11.8599 55.6068 11.9148 55.4788C11.9697 55.3507 11.9987 55.213 12 55.0735C12.0012 54.9341 11.9748 54.7959 11.9222 54.6668C11.8697 54.5378 11.792 54.4205 11.6938 54.3219C11.5956 54.2232 11.4787 54.1452 11.3501 54.0924C11.2215 54.0395 11.0837 54.0129 10.9448 54.014C10.8058 54.0152 10.6684 54.0441 10.5407 54.099C10.413 54.154 10.2975 54.2339 10.2009 54.3342L6.00593 58.5409L1.81238 54.3342C1.71656 54.231 1.60101 54.1483 1.47262 54.0909C1.34423 54.0335 1.20564 54.0027 1.06511 54.0002C0.924573 53.9977 0.78498 54.0236 0.654655 54.0764C0.52433 54.1292 0.405942 54.2078 0.306555 54.3075C0.207167 54.4072 0.128816 54.526 0.0761758 54.6567C0.0235352 54.7874 -0.00231666 54.9275 0.000162885 55.0685C0.00264243 55.2094 0.0334026 55.3485 0.0906078 55.4772C0.147813 55.606 0.230291 55.722 0.333123 55.8181L4.52388 60.0262L0.330332 64.2329C0.145453 64.4319 0.0448034 64.6952 0.0495876 64.9672C0.0543717 65.2392 0.164216 65.4987 0.35598 65.6911C0.547743 65.8834 0.806451 65.9936 1.0776 65.9984C1.34875 66.0032 1.61118 65.9023 1.80959 65.7168L6.00593 61.5101L10.1995 65.7182C10.3979 65.9037 10.6603 66.0046 10.9315 65.9998C11.2026 65.995 11.4613 65.8848 11.6531 65.6925C11.8448 65.5001 11.9547 65.2406 11.9595 64.9686C11.9643 64.6966 11.8636 64.4333 11.6787 64.2343L7.48797 60.0262L11.6801 55.8195Z" fill="#8446FF"/>
<path d="M29.6801 1.81947C29.7801 1.72266 29.8599 1.60685 29.9148 1.47878C29.9697 1.35071 29.9987 1.21295 30 1.07354C30.0012 0.934136 29.9748 0.79587 29.9222 0.666813C29.8697 0.537756 29.792 0.420493 29.6938 0.321866C29.5956 0.223239 29.4787 0.145224 29.3501 0.0923716C29.2215 0.0395194 29.0837 0.0128894 28.9448 0.0140346C28.8058 0.0151799 28.6684 0.0440777 28.5407 0.0990422C28.413 0.154007 28.2975 0.233937 28.2009 0.334169L24.0059 4.54089L19.8124 0.334169C19.7166 0.231015 19.601 0.148277 19.4726 0.0908924C19.3442 0.0335075 19.2056 0.00265073 19.0651 0.000163397C18.9246 -0.00232394 18.785 0.0236092 18.6547 0.0764151C18.5243 0.129221 18.4059 0.207818 18.3066 0.307518C18.2072 0.407217 18.1288 0.525976 18.0762 0.656711C18.0235 0.787445 17.9977 0.927478 18.0002 1.06845C18.0026 1.20943 18.0334 1.34846 18.0906 1.47725C18.1478 1.60604 18.2303 1.72195 18.3331 1.81807L22.5239 6.02619L18.3303 10.2329C18.1455 10.4319 18.0448 10.6952 18.0496 10.9672C18.0544 11.2392 18.1642 11.4987 18.356 11.6911C18.5477 11.8834 18.8065 11.9936 19.0776 11.9984C19.3488 12.0032 19.6112 11.9023 19.8096 11.7168L24.0059 7.51009L28.1995 11.7182C28.3979 11.9037 28.6603 12.0046 28.9315 11.9998C29.2026 11.995 29.4613 11.8848 29.6531 11.6925C29.8448 11.5001 29.9547 11.2406 29.9595 10.9686C29.9643 10.6966 29.8636 10.4333 29.6787 10.2343L25.488 6.02619L29.6801 1.81947Z" fill="#8446FF"/>
<path d="M29.6801 19.8195C29.7801 19.7227 29.8599 19.6068 29.9148 19.4788C29.9697 19.3507 29.9987 19.213 30 19.0735C30.0012 18.9341 29.9748 18.7959 29.9222 18.6668C29.8697 18.5378 29.792 18.4205 29.6938 18.3219C29.5956 18.2232 29.4787 18.1452 29.3501 18.0924C29.2215 18.0395 29.0837 18.0129 28.9448 18.014C28.8058 18.0152 28.6684 18.0441 28.5407 18.099C28.413 18.154 28.2975 18.2339 28.2009 18.3342L24.0059 22.5409L19.8124 18.3342C19.7166 18.231 19.601 18.1483 19.4726 18.0909C19.3442 18.0335 19.2056 18.0027 19.0651 18.0002C18.9246 17.9977 18.785 18.0236 18.6547 18.0764C18.5243 18.1292 18.4059 18.2078 18.3066 18.3075C18.2072 18.4072 18.1288 18.526 18.0762 18.6567C18.0235 18.7874 17.9977 18.9275 18.0002 19.0685C18.0026 19.2094 18.0334 19.3485 18.0906 19.4772C18.1478 19.606 18.2303 19.722 18.3331 19.8181L22.5239 24.0262L18.3303 28.2329C18.1455 28.4319 18.0448 28.6952 18.0496 28.9672C18.0544 29.2392 18.1642 29.4987 18.356 29.6911C18.5477 29.8834 18.8065 29.9936 19.0776 29.9984C19.3488 30.0032 19.6112 29.9023 19.8096 29.7168L24.0059 25.5101L28.1995 29.7182C28.3979 29.9037 28.6603 30.0046 28.9315 29.9998C29.2026 29.995 29.4613 29.8848 29.6531 29.6925C29.8448 29.5001 29.9547 29.2406 29.9595 28.9686C29.9643 28.6966 29.8636 28.4333 29.6787 28.2343L25.488 24.0262L29.6801 19.8195Z" fill="#8446FF"/>
<path d="M29.6801 37.8195C29.7801 37.7227 29.8599 37.6068 29.9148 37.4788C29.9697 37.3507 29.9987 37.213 30 37.0735C30.0012 36.9341 29.9748 36.7959 29.9222 36.6668C29.8697 36.5378 29.792 36.4205 29.6938 36.3219C29.5956 36.2232 29.4787 36.1452 29.3501 36.0924C29.2215 36.0395 29.0837 36.0129 28.9448 36.014C28.8058 36.0152 28.6684 36.0441 28.5407 36.099C28.413 36.154 28.2975 36.2339 28.2009 36.3342L24.0059 40.5409L19.8124 36.3342C19.7166 36.231 19.601 36.1483 19.4726 36.0909C19.3442 36.0335 19.2056 36.0027 19.0651 36.0002C18.9246 35.9977 18.785 36.0236 18.6547 36.0764C18.5243 36.1292 18.4059 36.2078 18.3066 36.3075C18.2072 36.4072 18.1288 36.526 18.0762 36.6567C18.0235 36.7874 17.9977 36.9275 18.0002 37.0685C18.0026 37.2094 18.0334 37.3485 18.0906 37.4772C18.1478 37.606 18.2303 37.722 18.3331 37.8181L22.5239 42.0262L18.3303 46.2329C18.1455 46.4319 18.0448 46.6952 18.0496 46.9672C18.0544 47.2392 18.1642 47.4987 18.356 47.6911C18.5477 47.8834 18.8065 47.9936 19.0776 47.9984C19.3488 48.0032 19.6112 47.9023 19.8096 47.7168L24.0059 43.5101L28.1995 47.7182C28.3979 47.9037 28.6603 48.0046 28.9315 47.9998C29.2026 47.995 29.4613 47.8848 29.6531 47.6925C29.8448 47.5001 29.9547 47.2406 29.9595 46.9686C29.9643 46.6966 29.8636 46.4333 29.6787 46.2343L25.488 42.0262L29.6801 37.8195Z" fill="#8446FF"/>
<path d="M29.6801 55.8195C29.7801 55.7227 29.8599 55.6068 29.9148 55.4788C29.9697 55.3507 29.9987 55.213 30 55.0735C30.0012 54.9341 29.9748 54.7959 29.9222 54.6668C29.8697 54.5378 29.792 54.4205 29.6938 54.3219C29.5956 54.2232 29.4787 54.1452 29.3501 54.0924C29.2215 54.0395 29.0837 54.0129 28.9448 54.014C28.8058 54.0152 28.6684 54.0441 28.5407 54.099C28.413 54.154 28.2975 54.2339 28.2009 54.3342L24.0059 58.5409L19.8124 54.3342C19.7166 54.231 19.601 54.1483 19.4726 54.0909C19.3442 54.0335 19.2056 54.0027 19.0651 54.0002C18.9246 53.9977 18.785 54.0236 18.6547 54.0764C18.5243 54.1292 18.4059 54.2078 18.3066 54.3075C18.2072 54.4072 18.1288 54.526 18.0762 54.6567C18.0235 54.7874 17.9977 54.9275 18.0002 55.0685C18.0026 55.2094 18.0334 55.3485 18.0906 55.4772C18.1478 55.606 18.2303 55.722 18.3331 55.8181L22.5239 60.0262L18.3303 64.2329C18.1455 64.4319 18.0448 64.6952 18.0496 64.9672C18.0544 65.2392 18.1642 65.4987 18.356 65.6911C18.5477 65.8834 18.8065 65.9936 19.0776 65.9984C19.3488 66.0032 19.6112 65.9023 19.8096 65.7168L24.0059 61.5101L28.1995 65.7182C28.3979 65.9037 28.6603 66.0046 28.9315 65.9998C29.2026 65.995 29.4613 65.8848 29.6531 65.6925C29.8448 65.5001 29.9547 65.2406 29.9595 64.9686C29.9643 64.6966 29.8636 64.4333 29.6787 64.2343L25.488 60.0262L29.6801 55.8195Z" fill="#8446FF"/>
<path d="M47.6801 1.81947C47.7801 1.72266 47.8599 1.60685 47.9148 1.47878C47.9697 1.35071 47.9987 1.21295 48 1.07354C48.0012 0.934136 47.9748 0.79587 47.9222 0.666813C47.8697 0.537756 47.792 0.420493 47.6938 0.321866C47.5956 0.223239 47.4787 0.145224 47.3501 0.0923716C47.2215 0.0395194 47.0837 0.0128894 46.9448 0.0140346C46.8058 0.0151799 46.6684 0.0440777 46.5407 0.0990422C46.413 0.154007 46.2975 0.233937 46.2009 0.334169L42.0059 4.54089L37.8124 0.334169C37.7166 0.231015 37.601 0.148277 37.4726 0.0908924C37.3442 0.0335075 37.2056 0.00265073 37.0651 0.000163397C36.9246 -0.00232394 36.785 0.0236092 36.6547 0.0764151C36.5243 0.129221 36.4059 0.207818 36.3066 0.307518C36.2072 0.407217 36.1288 0.525976 36.0762 0.656711C36.0235 0.787445 35.9977 0.927478 36.0002 1.06845C36.0026 1.20943 36.0334 1.34846 36.0906 1.47725C36.1478 1.60604 36.2303 1.72195 36.3331 1.81807L40.5239 6.02619L36.3303 10.2329C36.1455 10.4319 36.0448 10.6952 36.0496 10.9672C36.0544 11.2392 36.1642 11.4987 36.356 11.6911C36.5477 11.8834 36.8065 11.9936 37.0776 11.9984C37.3488 12.0032 37.6112 11.9023 37.8096 11.7168L42.0059 7.51009L46.1995 11.7182C46.3979 11.9037 46.6603 12.0046 46.9315 11.9998C47.2026 11.995 47.4613 11.8848 47.6531 11.6925C47.8448 11.5001 47.9547 11.2406 47.9595 10.9686C47.9643 10.6966 47.8636 10.4333 47.6787 10.2343L43.488 6.02619L47.6801 1.81947Z" fill="#8446FF"/>
<path d="M47.6801 19.8195C47.7801 19.7227 47.8599 19.6068 47.9148 19.4788C47.9697 19.3507 47.9987 19.213 48 19.0735C48.0012 18.9341 47.9748 18.7959 47.9222 18.6668C47.8697 18.5378 47.792 18.4205 47.6938 18.3219C47.5956 18.2232 47.4787 18.1452 47.3501 18.0924C47.2215 18.0395 47.0837 18.0129 46.9448 18.014C46.8058 18.0152 46.6684 18.0441 46.5407 18.099C46.413 18.154 46.2975 18.2339 46.2009 18.3342L42.0059 22.5409L37.8124 18.3342C37.7166 18.231 37.601 18.1483 37.4726 18.0909C37.3442 18.0335 37.2056 18.0027 37.0651 18.0002C36.9246 17.9977 36.785 18.0236 36.6547 18.0764C36.5243 18.1292 36.4059 18.2078 36.3066 18.3075C36.2072 18.4072 36.1288 18.526 36.0762 18.6567C36.0235 18.7874 35.9977 18.9275 36.0002 19.0685C36.0026 19.2094 36.0334 19.3485 36.0906 19.4772C36.1478 19.606 36.2303 19.722 36.3331 19.8181L40.5239 24.0262L36.3303 28.2329C36.1455 28.4319 36.0448 28.6952 36.0496 28.9672C36.0544 29.2392 36.1642 29.4987 36.356 29.6911C36.5477 29.8834 36.8065 29.9936 37.0776 29.9984C37.3488 30.0032 37.6112 29.9023 37.8096 29.7168L42.0059 25.5101L46.1995 29.7182C46.3979 29.9037 46.6603 30.0046 46.9315 29.9998C47.2026 29.995 47.4613 29.8848 47.6531 29.6925C47.8448 29.5001 47.9547 29.2406 47.9595 28.9686C47.9643 28.6966 47.8636 28.4333 47.6787 28.2343L43.488 24.0262L47.6801 19.8195Z" fill="#8446FF"/>
<path d="M47.6801 37.8195C47.7801 37.7227 47.8599 37.6068 47.9148 37.4788C47.9697 37.3507 47.9987 37.213 48 37.0735C48.0012 36.9341 47.9748 36.7959 47.9222 36.6668C47.8697 36.5378 47.792 36.4205 47.6938 36.3219C47.5956 36.2232 47.4787 36.1452 47.3501 36.0924C47.2215 36.0395 47.0837 36.0129 46.9448 36.014C46.8058 36.0152 46.6684 36.0441 46.5407 36.099C46.413 36.154 46.2975 36.2339 46.2009 36.3342L42.0059 40.5409L37.8124 36.3342C37.7166 36.231 37.601 36.1483 37.4726 36.0909C37.3442 36.0335 37.2056 36.0027 37.0651 36.0002C36.9246 35.9977 36.785 36.0236 36.6547 36.0764C36.5243 36.1292 36.4059 36.2078 36.3066 36.3075C36.2072 36.4072 36.1288 36.526 36.0762 36.6567C36.0235 36.7874 35.9977 36.9275 36.0002 37.0685C36.0026 37.2094 36.0334 37.3485 36.0906 37.4772C36.1478 37.606 36.2303 37.722 36.3331 37.8181L40.5239 42.0262L36.3303 46.2329C36.1455 46.4319 36.0448 46.6952 36.0496 46.9672C36.0544 47.2392 36.1642 47.4987 36.356 47.6911C36.5477 47.8834 36.8065 47.9936 37.0776 47.9984C37.3488 48.0032 37.6112 47.9023 37.8096 47.7168L42.0059 43.5101L46.1995 47.7182C46.3979 47.9037 46.6603 48.0046 46.9315 47.9998C47.2026 47.995 47.4613 47.8848 47.6531 47.6925C47.8448 47.5001 47.9547 47.2406 47.9595 46.9686C47.9643 46.6966 47.8636 46.4333 47.6787 46.2343L43.488 42.0262L47.6801 37.8195Z" fill="#8446FF"/>
<path d="M47.6801 55.8195C47.7801 55.7227 47.8599 55.6068 47.9148 55.4788C47.9697 55.3507 47.9987 55.213 48 55.0735C48.0012 54.9341 47.9748 54.7959 47.9222 54.6668C47.8697 54.5378 47.792 54.4205 47.6938 54.3219C47.5956 54.2232 47.4787 54.1452 47.3501 54.0924C47.2215 54.0395 47.0837 54.0129 46.9448 54.014C46.8058 54.0152 46.6684 54.0441 46.5407 54.099C46.413 54.154 46.2975 54.2339 46.2009 54.3342L42.0059 58.5409L37.8124 54.3342C37.7166 54.231 37.601 54.1483 37.4726 54.0909C37.3442 54.0335 37.2056 54.0027 37.0651 54.0002C36.9246 53.9977 36.785 54.0236 36.6547 54.0764C36.5243 54.1292 36.4059 54.2078 36.3066 54.3075C36.2072 54.4072 36.1288 54.526 36.0762 54.6567C36.0235 54.7874 35.9977 54.9275 36.0002 55.0685C36.0026 55.2094 36.0334 55.3485 36.0906 55.4772C36.1478 55.606 36.2303 55.722 36.3331 55.8181L40.5239 60.0262L36.3303 64.2329C36.1455 64.4319 36.0448 64.6952 36.0496 64.9672C36.0544 65.2392 36.1642 65.4987 36.356 65.6911C36.5477 65.8834 36.8065 65.9936 37.0776 65.9984C37.3488 66.0032 37.6112 65.9023 37.8096 65.7168L42.0059 61.5101L46.1995 65.7182C46.3979 65.9037 46.6603 66.0046 46.9315 65.9998C47.2026 65.995 47.4613 65.8848 47.6531 65.6925C47.8448 65.5001 47.9547 65.2406 47.9595 64.9686C47.9643 64.6966 47.8636 64.4333 47.6787 64.2343L43.488 60.0262L47.6801 55.8195Z" fill="#8446FF"/>
<path d="M67.6801 1.81947C67.7801 1.72266 67.8599 1.60685 67.9148 1.47878C67.9697 1.35071 67.9987 1.21295 68 1.07354C68.0012 0.934136 67.9748 0.79587 67.9222 0.666813C67.8697 0.537756 67.792 0.420493 67.6938 0.321866C67.5956 0.223239 67.4787 0.145224 67.3501 0.0923716C67.2215 0.0395194 67.0837 0.0128894 66.9448 0.0140346C66.8058 0.0151799 66.6684 0.0440777 66.5407 0.0990422C66.413 0.154007 66.2975 0.233937 66.2009 0.334169L62.0059 4.54089L57.8124 0.334169C57.7166 0.231015 57.601 0.148277 57.4726 0.0908924C57.3442 0.0335075 57.2056 0.00265073 57.0651 0.000163397C56.9246 -0.00232394 56.785 0.0236092 56.6547 0.0764151C56.5243 0.129221 56.4059 0.207818 56.3066 0.307518C56.2072 0.407217 56.1288 0.525976 56.0762 0.656711C56.0235 0.787445 55.9977 0.927478 56.0002 1.06845C56.0026 1.20943 56.0334 1.34846 56.0906 1.47725C56.1478 1.60604 56.2303 1.72195 56.3331 1.81807L60.5239 6.02619L56.3303 10.2329C56.1455 10.4319 56.0448 10.6952 56.0496 10.9672C56.0544 11.2392 56.1642 11.4987 56.356 11.6911C56.5477 11.8834 56.8065 11.9936 57.0776 11.9984C57.3488 12.0032 57.6112 11.9023 57.8096 11.7168L62.0059 7.51009L66.1995 11.7182C66.3979 11.9037 66.6603 12.0046 66.9315 11.9998C67.2026 11.995 67.4613 11.8848 67.6531 11.6925C67.8448 11.5001 67.9547 11.2406 67.9595 10.9686C67.9643 10.6966 67.8636 10.4333 67.6787 10.2343L63.488 6.02619L67.6801 1.81947Z" fill="#8446FF"/>
<path d="M67.6801 19.8195C67.7801 19.7227 67.8599 19.6068 67.9148 19.4788C67.9697 19.3507 67.9987 19.213 68 19.0735C68.0012 18.9341 67.9748 18.7959 67.9222 18.6668C67.8697 18.5378 67.792 18.4205 67.6938 18.3219C67.5956 18.2232 67.4787 18.1452 67.3501 18.0924C67.2215 18.0395 67.0837 18.0129 66.9448 18.014C66.8058 18.0152 66.6684 18.0441 66.5407 18.099C66.413 18.154 66.2975 18.2339 66.2009 18.3342L62.0059 22.5409L57.8124 18.3342C57.7166 18.231 57.601 18.1483 57.4726 18.0909C57.3442 18.0335 57.2056 18.0027 57.0651 18.0002C56.9246 17.9977 56.785 18.0236 56.6547 18.0764C56.5243 18.1292 56.4059 18.2078 56.3066 18.3075C56.2072 18.4072 56.1288 18.526 56.0762 18.6567C56.0235 18.7874 55.9977 18.9275 56.0002 19.0685C56.0026 19.2094 56.0334 19.3485 56.0906 19.4772C56.1478 19.606 56.2303 19.722 56.3331 19.8181L60.5239 24.0262L56.3303 28.2329C56.1455 28.4319 56.0448 28.6952 56.0496 28.9672C56.0544 29.2392 56.1642 29.4987 56.356 29.6911C56.5477 29.8834 56.8065 29.9936 57.0776 29.9984C57.3488 30.0032 57.6112 29.9023 57.8096 29.7168L62.0059 25.5101L66.1995 29.7182C66.3979 29.9037 66.6603 30.0046 66.9315 29.9998C67.2026 29.995 67.4613 29.8848 67.6531 29.6925C67.8448 29.5001 67.9547 29.2406 67.9595 28.9686C67.9643 28.6966 67.8636 28.4333 67.6787 28.2343L63.488 24.0262L67.6801 19.8195Z" fill="#8446FF"/>
<path d="M67.6801 37.8195C67.7801 37.7227 67.8599 37.6068 67.9148 37.4788C67.9697 37.3507 67.9987 37.213 68 37.0735C68.0012 36.9341 67.9748 36.7959 67.9222 36.6668C67.8697 36.5378 67.792 36.4205 67.6938 36.3219C67.5956 36.2232 67.4787 36.1452 67.3501 36.0924C67.2215 36.0395 67.0837 36.0129 66.9448 36.014C66.8058 36.0152 66.6684 36.0441 66.5407 36.099C66.413 36.154 66.2975 36.2339 66.2009 36.3342L62.0059 40.5409L57.8124 36.3342C57.7166 36.231 57.601 36.1483 57.4726 36.0909C57.3442 36.0335 57.2056 36.0027 57.0651 36.0002C56.9246 35.9977 56.785 36.0236 56.6547 36.0764C56.5243 36.1292 56.4059 36.2078 56.3066 36.3075C56.2072 36.4072 56.1288 36.526 56.0762 36.6567C56.0235 36.7874 55.9977 36.9275 56.0002 37.0685C56.0026 37.2094 56.0334 37.3485 56.0906 37.4772C56.1478 37.606 56.2303 37.722 56.3331 37.8181L60.5239 42.0262L56.3303 46.2329C56.1455 46.4319 56.0448 46.6952 56.0496 46.9672C56.0544 47.2392 56.1642 47.4987 56.356 47.6911C56.5477 47.8834 56.8065 47.9936 57.0776 47.9984C57.3488 48.0032 57.6112 47.9023 57.8096 47.7168L62.0059 43.5101L66.1995 47.7182C66.3979 47.9037 66.6603 48.0046 66.9315 47.9998C67.2026 47.995 67.4613 47.8848 67.6531 47.6925C67.8448 47.5001 67.9547 47.2406 67.9595 46.9686C67.9643 46.6966 67.8636 46.4333 67.6787 46.2343L63.488 42.0262L67.6801 37.8195Z" fill="#8446FF"/>
<path d="M67.6801 55.8195C67.7801 55.7227 67.8599 55.6068 67.9148 55.4788C67.9697 55.3507 67.9987 55.213 68 55.0735C68.0012 54.9341 67.9748 54.7959 67.9222 54.6668C67.8697 54.5378 67.792 54.4205 67.6938 54.3219C67.5956 54.2232 67.4787 54.1452 67.3501 54.0924C67.2215 54.0395 67.0837 54.0129 66.9448 54.014C66.8058 54.0152 66.6684 54.0441 66.5407 54.099C66.413 54.154 66.2975 54.2339 66.2009 54.3342L62.0059 58.5409L57.8124 54.3342C57.7166 54.231 57.601 54.1483 57.4726 54.0909C57.3442 54.0335 57.2056 54.0027 57.0651 54.0002C56.9246 53.9977 56.785 54.0236 56.6547 54.0764C56.5243 54.1292 56.4059 54.2078 56.3066 54.3075C56.2072 54.4072 56.1288 54.526 56.0762 54.6567C56.0235 54.7874 55.9977 54.9275 56.0002 55.0685C56.0026 55.2094 56.0334 55.3485 56.0906 55.4772C56.1478 55.606 56.2303 55.722 56.3331 55.8181L60.5239 60.0262L56.3303 64.2329C56.1455 64.4319 56.0448 64.6952 56.0496 64.9672C56.0544 65.2392 56.1642 65.4987 56.356 65.6911C56.5477 65.8834 56.8065 65.9936 57.0776 65.9984C57.3488 66.0032 57.6112 65.9023 57.8096 65.7168L62.0059 61.5101L66.1995 65.7182C66.3979 65.9037 66.6603 66.0046 66.9315 65.9998C67.2026 65.995 67.4613 65.8848 67.6531 65.6925C67.8448 65.5001 67.9547 65.2406 67.9595 64.9686C67.9643 64.6966 67.8636 64.4333 67.6787 64.2343L63.488 60.0262L67.6801 55.8195Z" fill="#8446FF"/>
<path d="M85.6801 1.81947C85.7801 1.72266 85.8599 1.60685 85.9148 1.47878C85.9697 1.35071 85.9987 1.21295 86 1.07354C86.0012 0.934136 85.9748 0.79587 85.9222 0.666813C85.8697 0.537756 85.792 0.420493 85.6938 0.321866C85.5956 0.223239 85.4787 0.145224 85.3501 0.0923716C85.2215 0.0395194 85.0837 0.0128894 84.9448 0.0140346C84.8058 0.0151799 84.6684 0.0440777 84.5407 0.0990422C84.413 0.154007 84.2975 0.233937 84.2009 0.334169L80.0059 4.54089L75.8124 0.334169C75.7166 0.231015 75.601 0.148277 75.4726 0.0908924C75.3442 0.0335075 75.2056 0.00265073 75.0651 0.000163397C74.9246 -0.00232394 74.785 0.0236092 74.6547 0.0764151C74.5243 0.129221 74.4059 0.207818 74.3066 0.307518C74.2072 0.407217 74.1288 0.525976 74.0762 0.656711C74.0235 0.787445 73.9977 0.927478 74.0002 1.06845C74.0026 1.20943 74.0334 1.34846 74.0906 1.47725C74.1478 1.60604 74.2303 1.72195 74.3331 1.81807L78.5239 6.02619L74.3303 10.2329C74.1455 10.4319 74.0448 10.6952 74.0496 10.9672C74.0544 11.2392 74.1642 11.4987 74.356 11.6911C74.5477 11.8834 74.8065 11.9936 75.0776 11.9984C75.3488 12.0032 75.6112 11.9023 75.8096 11.7168L80.0059 7.51009L84.1995 11.7182C84.3979 11.9037 84.6603 12.0046 84.9315 11.9998C85.2026 11.995 85.4613 11.8848 85.6531 11.6925C85.8448 11.5001 85.9547 11.2406 85.9595 10.9686C85.9643 10.6966 85.8636 10.4333 85.6787 10.2343L81.488 6.02619L85.6801 1.81947Z" fill="#8446FF"/>
<path d="M85.6801 19.8195C85.7801 19.7227 85.8599 19.6068 85.9148 19.4788C85.9697 19.3507 85.9987 19.213 86 19.0735C86.0012 18.9341 85.9748 18.7959 85.9222 18.6668C85.8697 18.5378 85.792 18.4205 85.6938 18.3219C85.5956 18.2232 85.4787 18.1452 85.3501 18.0924C85.2215 18.0395 85.0837 18.0129 84.9448 18.014C84.8058 18.0152 84.6684 18.0441 84.5407 18.099C84.413 18.154 84.2975 18.2339 84.2009 18.3342L80.0059 22.5409L75.8124 18.3342C75.7166 18.231 75.601 18.1483 75.4726 18.0909C75.3442 18.0335 75.2056 18.0027 75.0651 18.0002C74.9246 17.9977 74.785 18.0236 74.6547 18.0764C74.5243 18.1292 74.4059 18.2078 74.3066 18.3075C74.2072 18.4072 74.1288 18.526 74.0762 18.6567C74.0235 18.7874 73.9977 18.9275 74.0002 19.0685C74.0026 19.2094 74.0334 19.3485 74.0906 19.4772C74.1478 19.606 74.2303 19.722 74.3331 19.8181L78.5239 24.0262L74.3303 28.2329C74.1455 28.4319 74.0448 28.6952 74.0496 28.9672C74.0544 29.2392 74.1642 29.4987 74.356 29.6911C74.5477 29.8834 74.8065 29.9936 75.0776 29.9984C75.3488 30.0032 75.6112 29.9023 75.8096 29.7168L80.0059 25.5101L84.1995 29.7182C84.3979 29.9037 84.6603 30.0046 84.9315 29.9998C85.2026 29.995 85.4613 29.8848 85.6531 29.6925C85.8448 29.5001 85.9547 29.2406 85.9595 28.9686C85.9643 28.6966 85.8636 28.4333 85.6787 28.2343L81.488 24.0262L85.6801 19.8195Z" fill="#8446FF"/>
<path d="M85.6801 37.8195C85.7801 37.7227 85.8599 37.6068 85.9148 37.4788C85.9697 37.3507 85.9987 37.213 86 37.0735C86.0012 36.9341 85.9748 36.7959 85.9222 36.6668C85.8697 36.5378 85.792 36.4205 85.6938 36.3219C85.5956 36.2232 85.4787 36.1452 85.3501 36.0924C85.2215 36.0395 85.0837 36.0129 84.9448 36.014C84.8058 36.0152 84.6684 36.0441 84.5407 36.099C84.413 36.154 84.2975 36.2339 84.2009 36.3342L80.0059 40.5409L75.8124 36.3342C75.7166 36.231 75.601 36.1483 75.4726 36.0909C75.3442 36.0335 75.2056 36.0027 75.0651 36.0002C74.9246 35.9977 74.785 36.0236 74.6547 36.0764C74.5243 36.1292 74.4059 36.2078 74.3066 36.3075C74.2072 36.4072 74.1288 36.526 74.0762 36.6567C74.0235 36.7874 73.9977 36.9275 74.0002 37.0685C74.0026 37.2094 74.0334 37.3485 74.0906 37.4772C74.1478 37.606 74.2303 37.722 74.3331 37.8181L78.5239 42.0262L74.3303 46.2329C74.1455 46.4319 74.0448 46.6952 74.0496 46.9672C74.0544 47.2392 74.1642 47.4987 74.356 47.6911C74.5477 47.8834 74.8065 47.9936 75.0776 47.9984C75.3488 48.0032 75.6112 47.9023 75.8096 47.7168L80.0059 43.5101L84.1995 47.7182C84.3979 47.9037 84.6603 48.0046 84.9315 47.9998C85.2026 47.995 85.4613 47.8848 85.6531 47.6925C85.8448 47.5001 85.9547 47.2406 85.9595 46.9686C85.9643 46.6966 85.8636 46.4333 85.6787 46.2343L81.488 42.0262L85.6801 37.8195Z" fill="#8446FF"/>
<path d="M85.6801 55.8195C85.7801 55.7227 85.8599 55.6068 85.9148 55.4788C85.9697 55.3507 85.9987 55.213 86 55.0735C86.0012 54.9341 85.9748 54.7959 85.9222 54.6668C85.8697 54.5378 85.792 54.4205 85.6938 54.3219C85.5956 54.2232 85.4787 54.1452 85.3501 54.0924C85.2215 54.0395 85.0837 54.0129 84.9448 54.014C84.8058 54.0152 84.6684 54.0441 84.5407 54.099C84.413 54.154 84.2975 54.2339 84.2009 54.3342L80.0059 58.5409L75.8124 54.3342C75.7166 54.231 75.601 54.1483 75.4726 54.0909C75.3442 54.0335 75.2056 54.0027 75.0651 54.0002C74.9246 53.9977 74.785 54.0236 74.6547 54.0764C74.5243 54.1292 74.4059 54.2078 74.3066 54.3075C74.2072 54.4072 74.1288 54.526 74.0762 54.6567C74.0235 54.7874 73.9977 54.9275 74.0002 55.0685C74.0026 55.2094 74.0334 55.3485 74.0906 55.4772C74.1478 55.606 74.2303 55.722 74.3331 55.8181L78.5239 60.0262L74.3303 64.2329C74.1455 64.4319 74.0448 64.6952 74.0496 64.9672C74.0544 65.2392 74.1642 65.4987 74.356 65.6911C74.5477 65.8834 74.8065 65.9936 75.0776 65.9984C75.3488 66.0032 75.6112 65.9023 75.8096 65.7168L80.0059 61.5101L84.1995 65.7182C84.3979 65.9037 84.6603 66.0046 84.9315 65.9998C85.2026 65.995 85.4613 65.8848 85.6531 65.6925C85.8448 65.5001 85.9547 65.2406 85.9595 64.9686C85.9643 64.6966 85.8636 64.4333 85.6787 64.2343L81.488 60.0262L85.6801 55.8195Z" fill="#8446FF"/>
<path d="M103.68 1.81947C103.78 1.72266 103.86 1.60685 103.915 1.47878C103.97 1.35071 103.999 1.21295 104 1.07354C104.001 0.934136 103.975 0.79587 103.922 0.666813C103.87 0.537756 103.792 0.420493 103.694 0.321866C103.596 0.223239 103.479 0.145224 103.35 0.0923716C103.222 0.0395194 103.084 0.0128894 102.945 0.0140346C102.806 0.0151799 102.668 0.0440777 102.541 0.0990422C102.413 0.154007 102.297 0.233937 102.201 0.334169L98.0059 4.54089L93.8124 0.334169C93.7166 0.231015 93.601 0.148277 93.4726 0.0908924C93.3442 0.0335075 93.2056 0.00265073 93.0651 0.000163397C92.9246 -0.00232394 92.785 0.0236092 92.6547 0.0764151C92.5243 0.129221 92.4059 0.207818 92.3066 0.307518C92.2072 0.407217 92.1288 0.525976 92.0762 0.656711C92.0235 0.787445 91.9977 0.927478 92.0002 1.06845C92.0026 1.20943 92.0334 1.34846 92.0906 1.47725C92.1478 1.60604 92.2303 1.72195 92.3331 1.81807L96.5239 6.02619L92.3303 10.2329C92.1455 10.4319 92.0448 10.6952 92.0496 10.9672C92.0544 11.2392 92.1642 11.4987 92.356 11.6911C92.5477 11.8834 92.8065 11.9936 93.0776 11.9984C93.3488 12.0032 93.6112 11.9023 93.8096 11.7168L98.0059 7.51009L102.199 11.7182C102.398 11.9037 102.66 12.0046 102.931 11.9998C103.203 11.995 103.461 11.8848 103.653 11.6925C103.845 11.5001 103.955 11.2406 103.959 10.9686C103.964 10.6966 103.864 10.4333 103.679 10.2343L99.488 6.02619L103.68 1.81947Z" fill="#8446FF"/>
<path d="M103.68 19.8195C103.78 19.7227 103.86 19.6068 103.915 19.4788C103.97 19.3507 103.999 19.213 104 19.0735C104.001 18.9341 103.975 18.7959 103.922 18.6668C103.87 18.5378 103.792 18.4205 103.694 18.3219C103.596 18.2232 103.479 18.1452 103.35 18.0924C103.222 18.0395 103.084 18.0129 102.945 18.014C102.806 18.0152 102.668 18.0441 102.541 18.099C102.413 18.154 102.297 18.2339 102.201 18.3342L98.0059 22.5409L93.8124 18.3342C93.7166 18.231 93.601 18.1483 93.4726 18.0909C93.3442 18.0335 93.2056 18.0027 93.0651 18.0002C92.9246 17.9977 92.785 18.0236 92.6547 18.0764C92.5243 18.1292 92.4059 18.2078 92.3066 18.3075C92.2072 18.4072 92.1288 18.526 92.0762 18.6567C92.0235 18.7874 91.9977 18.9275 92.0002 19.0685C92.0026 19.2094 92.0334 19.3485 92.0906 19.4772C92.1478 19.606 92.2303 19.722 92.3331 19.8181L96.5239 24.0262L92.3303 28.2329C92.1455 28.4319 92.0448 28.6952 92.0496 28.9672C92.0544 29.2392 92.1642 29.4987 92.356 29.6911C92.5477 29.8834 92.8065 29.9936 93.0776 29.9984C93.3488 30.0032 93.6112 29.9023 93.8096 29.7168L98.0059 25.5101L102.199 29.7182C102.398 29.9037 102.66 30.0046 102.931 29.9998C103.203 29.995 103.461 29.8848 103.653 29.6925C103.845 29.5001 103.955 29.2406 103.959 28.9686C103.964 28.6966 103.864 28.4333 103.679 28.2343L99.488 24.0262L103.68 19.8195Z" fill="#8446FF"/>
<path d="M103.68 37.8195C103.78 37.7227 103.86 37.6068 103.915 37.4788C103.97 37.3507 103.999 37.213 104 37.0735C104.001 36.9341 103.975 36.7959 103.922 36.6668C103.87 36.5378 103.792 36.4205 103.694 36.3219C103.596 36.2232 103.479 36.1452 103.35 36.0924C103.222 36.0395 103.084 36.0129 102.945 36.014C102.806 36.0152 102.668 36.0441 102.541 36.099C102.413 36.154 102.297 36.2339 102.201 36.3342L98.0059 40.5409L93.8124 36.3342C93.7166 36.231 93.601 36.1483 93.4726 36.0909C93.3442 36.0335 93.2056 36.0027 93.0651 36.0002C92.9246 35.9977 92.785 36.0236 92.6547 36.0764C92.5243 36.1292 92.4059 36.2078 92.3066 36.3075C92.2072 36.4072 92.1288 36.526 92.0762 36.6567C92.0235 36.7874 91.9977 36.9275 92.0002 37.0685C92.0026 37.2094 92.0334 37.3485 92.0906 37.4772C92.1478 37.606 92.2303 37.722 92.3331 37.8181L96.5239 42.0262L92.3303 46.2329C92.1455 46.4319 92.0448 46.6952 92.0496 46.9672C92.0544 47.2392 92.1642 47.4987 92.356 47.6911C92.5477 47.8834 92.8065 47.9936 93.0776 47.9984C93.3488 48.0032 93.6112 47.9023 93.8096 47.7168L98.0059 43.5101L102.199 47.7182C102.398 47.9037 102.66 48.0046 102.931 47.9998C103.203 47.995 103.461 47.8848 103.653 47.6925C103.845 47.5001 103.955 47.2406 103.959 46.9686C103.964 46.6966 103.864 46.4333 103.679 46.2343L99.488 42.0262L103.68 37.8195Z" fill="#8446FF"/>
<path d="M103.68 55.8195C103.78 55.7227 103.86 55.6068 103.915 55.4788C103.97 55.3507 103.999 55.213 104 55.0735C104.001 54.9341 103.975 54.7959 103.922 54.6668C103.87 54.5378 103.792 54.4205 103.694 54.3219C103.596 54.2232 103.479 54.1452 103.35 54.0924C103.222 54.0395 103.084 54.0129 102.945 54.014C102.806 54.0152 102.668 54.0441 102.541 54.099C102.413 54.154 102.297 54.2339 102.201 54.3342L98.0059 58.5409L93.8124 54.3342C93.7166 54.231 93.601 54.1483 93.4726 54.0909C93.3442 54.0335 93.2056 54.0027 93.0651 54.0002C92.9246 53.9977 92.785 54.0236 92.6547 54.0764C92.5243 54.1292 92.4059 54.2078 92.3066 54.3075C92.2072 54.4072 92.1288 54.526 92.0762 54.6567C92.0235 54.7874 91.9977 54.9275 92.0002 55.0685C92.0026 55.2094 92.0334 55.3485 92.0906 55.4772C92.1478 55.606 92.2303 55.722 92.3331 55.8181L96.5239 60.0262L92.3303 64.2329C92.1455 64.4319 92.0448 64.6952 92.0496 64.9672C92.0544 65.2392 92.1642 65.4987 92.356 65.6911C92.5477 65.8834 92.8065 65.9936 93.0776 65.9984C93.3488 66.0032 93.6112 65.9023 93.8096 65.7168L98.0059 61.5101L102.199 65.7182C102.398 65.9037 102.66 66.0046 102.931 65.9998C103.203 65.995 103.461 65.8848 103.653 65.6925C103.845 65.5001 103.955 65.2406 103.959 64.9686C103.964 64.6966 103.864 64.4333 103.679 64.2343L99.488 60.0262L103.68 55.8195Z" fill="#8446FF"/>
<path d="M121.68 1.81947C121.78 1.72266 121.86 1.60685 121.915 1.47878C121.97 1.35071 121.999 1.21295 122 1.07354C122.001 0.934136 121.975 0.79587 121.922 0.666813C121.87 0.537756 121.792 0.420493 121.694 0.321866C121.596 0.223239 121.479 0.145224 121.35 0.0923716C121.222 0.0395194 121.084 0.0128894 120.945 0.0140346C120.806 0.0151799 120.668 0.0440777 120.541 0.0990422C120.413 0.154007 120.297 0.233937 120.201 0.334169L116.006 4.54089L111.812 0.334169C111.717 0.231015 111.601 0.148277 111.473 0.0908924C111.344 0.0335075 111.206 0.00265073 111.065 0.000163397C110.925 -0.00232394 110.785 0.0236092 110.655 0.0764151C110.524 0.129221 110.406 0.207818 110.307 0.307518C110.207 0.407217 110.129 0.525976 110.076 0.656711C110.024 0.787445 109.998 0.927478 110 1.06845C110.003 1.20943 110.033 1.34846 110.091 1.47725C110.148 1.60604 110.23 1.72195 110.333 1.81807L114.524 6.02619L110.33 10.2329C110.145 10.4319 110.045 10.6952 110.05 10.9672C110.054 11.2392 110.164 11.4987 110.356 11.6911C110.548 11.8834 110.806 11.9936 111.078 11.9984C111.349 12.0032 111.611 11.9023 111.81 11.7168L116.006 7.51009L120.199 11.7182C120.398 11.9037 120.66 12.0046 120.931 11.9998C121.203 11.995 121.461 11.8848 121.653 11.6925C121.845 11.5001 121.955 11.2406 121.959 10.9686C121.964 10.6966 121.864 10.4333 121.679 10.2343L117.488 6.02619L121.68 1.81947Z" fill="#8446FF"/>
<path d="M121.68 19.8195C121.78 19.7227 121.86 19.6068 121.915 19.4788C121.97 19.3507 121.999 19.213 122 19.0735C122.001 18.9341 121.975 18.7959 121.922 18.6668C121.87 18.5378 121.792 18.4205 121.694 18.3219C121.596 18.2232 121.479 18.1452 121.35 18.0924C121.222 18.0395 121.084 18.0129 120.945 18.014C120.806 18.0152 120.668 18.0441 120.541 18.099C120.413 18.154 120.297 18.2339 120.201 18.3342L116.006 22.5409L111.812 18.3342C111.717 18.231 111.601 18.1483 111.473 18.0909C111.344 18.0335 111.206 18.0027 111.065 18.0002C110.925 17.9977 110.785 18.0236 110.655 18.0764C110.524 18.1292 110.406 18.2078 110.307 18.3075C110.207 18.4072 110.129 18.526 110.076 18.6567C110.024 18.7874 109.998 18.9275 110 19.0685C110.003 19.2094 110.033 19.3485 110.091 19.4772C110.148 19.606 110.23 19.722 110.333 19.8181L114.524 24.0262L110.33 28.2329C110.145 28.4319 110.045 28.6952 110.05 28.9672C110.054 29.2392 110.164 29.4987 110.356 29.6911C110.548 29.8834 110.806 29.9936 111.078 29.9984C111.349 30.0032 111.611 29.9023 111.81 29.7168L116.006 25.5101L120.199 29.7182C120.398 29.9037 120.66 30.0046 120.931 29.9998C121.203 29.995 121.461 29.8848 121.653 29.6925C121.845 29.5001 121.955 29.2406 121.959 28.9686C121.964 28.6966 121.864 28.4333 121.679 28.2343L117.488 24.0262L121.68 19.8195Z" fill="#8446FF"/>
<path d="M121.68 37.8195C121.78 37.7227 121.86 37.6068 121.915 37.4788C121.97 37.3507 121.999 37.213 122 37.0735C122.001 36.9341 121.975 36.7959 121.922 36.6668C121.87 36.5378 121.792 36.4205 121.694 36.3219C121.596 36.2232 121.479 36.1452 121.35 36.0924C121.222 36.0395 121.084 36.0129 120.945 36.014C120.806 36.0152 120.668 36.0441 120.541 36.099C120.413 36.154 120.297 36.2339 120.201 36.3342L116.006 40.5409L111.812 36.3342C111.717 36.231 111.601 36.1483 111.473 36.0909C111.344 36.0335 111.206 36.0027 111.065 36.0002C110.925 35.9977 110.785 36.0236 110.655 36.0764C110.524 36.1292 110.406 36.2078 110.307 36.3075C110.207 36.4072 110.129 36.526 110.076 36.6567C110.024 36.7874 109.998 36.9275 110 37.0685C110.003 37.2094 110.033 37.3485 110.091 37.4772C110.148 37.606 110.23 37.722 110.333 37.8181L114.524 42.0262L110.33 46.2329C110.145 46.4319 110.045 46.6952 110.05 46.9672C110.054 47.2392 110.164 47.4987 110.356 47.6911C110.548 47.8834 110.806 47.9936 111.078 47.9984C111.349 48.0032 111.611 47.9023 111.81 47.7168L116.006 43.5101L120.199 47.7182C120.398 47.9037 120.66 48.0046 120.931 47.9998C121.203 47.995 121.461 47.8848 121.653 47.6925C121.845 47.5001 121.955 47.2406 121.959 46.9686C121.964 46.6966 121.864 46.4333 121.679 46.2343L117.488 42.0262L121.68 37.8195Z" fill="#8446FF"/>
<path d="M121.68 55.8195C121.78 55.7227 121.86 55.6068 121.915 55.4788C121.97 55.3507 121.999 55.213 122 55.0735C122.001 54.9341 121.975 54.7959 121.922 54.6668C121.87 54.5378 121.792 54.4205 121.694 54.3219C121.596 54.2232 121.479 54.1452 121.35 54.0924C121.222 54.0395 121.084 54.0129 120.945 54.014C120.806 54.0152 120.668 54.0441 120.541 54.099C120.413 54.154 120.297 54.2339 120.201 54.3342L116.006 58.5409L111.812 54.3342C111.717 54.231 111.601 54.1483 111.473 54.0909C111.344 54.0335 111.206 54.0027 111.065 54.0002C110.925 53.9977 110.785 54.0236 110.655 54.0764C110.524 54.1292 110.406 54.2078 110.307 54.3075C110.207 54.4072 110.129 54.526 110.076 54.6567C110.024 54.7874 109.998 54.9275 110 55.0685C110.003 55.2094 110.033 55.3485 110.091 55.4772C110.148 55.606 110.23 55.722 110.333 55.8181L114.524 60.0262L110.33 64.2329C110.145 64.4319 110.045 64.6952 110.05 64.9672C110.054 65.2392 110.164 65.4987 110.356 65.6911C110.548 65.8834 110.806 65.9936 111.078 65.9984C111.349 66.0032 111.611 65.9023 111.81 65.7168L116.006 61.5101L120.199 65.7182C120.398 65.9037 120.66 66.0046 120.931 65.9998C121.203 65.995 121.461 65.8848 121.653 65.6925C121.845 65.5001 121.955 65.2406 121.959 64.9686C121.964 64.6966 121.864 64.4333 121.679 64.2343L117.488 60.0262L121.68 55.8195Z" fill="#8446FF"/>
<path d="M139.68 1.81947C139.78 1.72266 139.86 1.60685 139.915 1.47878C139.97 1.35071 139.999 1.21295 140 1.07354C140.001 0.934136 139.975 0.79587 139.922 0.666813C139.87 0.537756 139.792 0.420493 139.694 0.321866C139.596 0.223239 139.479 0.145224 139.35 0.0923716C139.222 0.0395194 139.084 0.0128894 138.945 0.0140346C138.806 0.0151799 138.668 0.0440777 138.541 0.0990422C138.413 0.154007 138.297 0.233937 138.201 0.334169L134.006 4.54089L129.812 0.334169C129.717 0.231015 129.601 0.148277 129.473 0.0908924C129.344 0.0335075 129.206 0.00265073 129.065 0.000163397C128.925 -0.00232394 128.785 0.0236092 128.655 0.0764151C128.524 0.129221 128.406 0.207818 128.307 0.307518C128.207 0.407217 128.129 0.525976 128.076 0.656711C128.024 0.787445 127.998 0.927478 128 1.06845C128.003 1.20943 128.033 1.34846 128.091 1.47725C128.148 1.60604 128.23 1.72195 128.333 1.81807L132.524 6.02619L128.33 10.2329C128.145 10.4319 128.045 10.6952 128.05 10.9672C128.054 11.2392 128.164 11.4987 128.356 11.6911C128.548 11.8834 128.806 11.9936 129.078 11.9984C129.349 12.0032 129.611 11.9023 129.81 11.7168L134.006 7.51009L138.199 11.7182C138.398 11.9037 138.66 12.0046 138.931 11.9998C139.203 11.995 139.461 11.8848 139.653 11.6925C139.845 11.5001 139.955 11.2406 139.959 10.9686C139.964 10.6966 139.864 10.4333 139.679 10.2343L135.488 6.02619L139.68 1.81947Z" fill="#8446FF"/>
<path d="M139.68 19.8195C139.78 19.7227 139.86 19.6068 139.915 19.4788C139.97 19.3507 139.999 19.213 140 19.0735C140.001 18.9341 139.975 18.7959 139.922 18.6668C139.87 18.5378 139.792 18.4205 139.694 18.3219C139.596 18.2232 139.479 18.1452 139.35 18.0924C139.222 18.0395 139.084 18.0129 138.945 18.014C138.806 18.0152 138.668 18.0441 138.541 18.099C138.413 18.154 138.297 18.2339 138.201 18.3342L134.006 22.5409L129.812 18.3342C129.717 18.231 129.601 18.1483 129.473 18.0909C129.344 18.0335 129.206 18.0027 129.065 18.0002C128.925 17.9977 128.785 18.0236 128.655 18.0764C128.524 18.1292 128.406 18.2078 128.307 18.3075C128.207 18.4072 128.129 18.526 128.076 18.6567C128.024 18.7874 127.998 18.9275 128 19.0685C128.003 19.2094 128.033 19.3485 128.091 19.4772C128.148 19.606 128.23 19.722 128.333 19.8181L132.524 24.0262L128.33 28.2329C128.145 28.4319 128.045 28.6952 128.05 28.9672C128.054 29.2392 128.164 29.4987 128.356 29.6911C128.548 29.8834 128.806 29.9936 129.078 29.9984C129.349 30.0032 129.611 29.9023 129.81 29.7168L134.006 25.5101L138.199 29.7182C138.398 29.9037 138.66 30.0046 138.931 29.9998C139.203 29.995 139.461 29.8848 139.653 29.6925C139.845 29.5001 139.955 29.2406 139.959 28.9686C139.964 28.6966 139.864 28.4333 139.679 28.2343L135.488 24.0262L139.68 19.8195Z" fill="#8446FF"/>
<path d="M139.68 37.8195C139.78 37.7227 139.86 37.6068 139.915 37.4788C139.97 37.3507 139.999 37.213 140 37.0735C140.001 36.9341 139.975 36.7959 139.922 36.6668C139.87 36.5378 139.792 36.4205 139.694 36.3219C139.596 36.2232 139.479 36.1452 139.35 36.0924C139.222 36.0395 139.084 36.0129 138.945 36.014C138.806 36.0152 138.668 36.0441 138.541 36.099C138.413 36.154 138.297 36.2339 138.201 36.3342L134.006 40.5409L129.812 36.3342C129.717 36.231 129.601 36.1483 129.473 36.0909C129.344 36.0335 129.206 36.0027 129.065 36.0002C128.925 35.9977 128.785 36.0236 128.655 36.0764C128.524 36.1292 128.406 36.2078 128.307 36.3075C128.207 36.4072 128.129 36.526 128.076 36.6567C128.024 36.7874 127.998 36.9275 128 37.0685C128.003 37.2094 128.033 37.3485 128.091 37.4772C128.148 37.606 128.23 37.722 128.333 37.8181L132.524 42.0262L128.33 46.2329C128.145 46.4319 128.045 46.6952 128.05 46.9672C128.054 47.2392 128.164 47.4987 128.356 47.6911C128.548 47.8834 128.806 47.9936 129.078 47.9984C129.349 48.0032 129.611 47.9023 129.81 47.7168L134.006 43.5101L138.199 47.7182C138.398 47.9037 138.66 48.0046 138.931 47.9998C139.203 47.995 139.461 47.8848 139.653 47.6925C139.845 47.5001 139.955 47.2406 139.959 46.9686C139.964 46.6966 139.864 46.4333 139.679 46.2343L135.488 42.0262L139.68 37.8195Z" fill="#8446FF"/>
<path d="M139.68 55.8195C139.78 55.7227 139.86 55.6068 139.915 55.4788C139.97 55.3507 139.999 55.213 140 55.0735C140.001 54.9341 139.975 54.7959 139.922 54.6668C139.87 54.5378 139.792 54.4205 139.694 54.3219C139.596 54.2232 139.479 54.1452 139.35 54.0924C139.222 54.0395 139.084 54.0129 138.945 54.014C138.806 54.0152 138.668 54.0441 138.541 54.099C138.413 54.154 138.297 54.2339 138.201 54.3342L134.006 58.5409L129.812 54.3342C129.717 54.231 129.601 54.1483 129.473 54.0909C129.344 54.0335 129.206 54.0027 129.065 54.0002C128.925 53.9977 128.785 54.0236 128.655 54.0764C128.524 54.1292 128.406 54.2078 128.307 54.3075C128.207 54.4072 128.129 54.526 128.076 54.6567C128.024 54.7874 127.998 54.9275 128 55.0685C128.003 55.2094 128.033 55.3485 128.091 55.4772C128.148 55.606 128.23 55.722 128.333 55.8181L132.524 60.0262L128.33 64.2329C128.145 64.4319 128.045 64.6952 128.05 64.9672C128.054 65.2392 128.164 65.4987 128.356 65.6911C128.548 65.8834 128.806 65.9936 129.078 65.9984C129.349 66.0032 129.611 65.9023 129.81 65.7168L134.006 61.5101L138.199 65.7182C138.398 65.9037 138.66 66.0046 138.931 65.9998C139.203 65.995 139.461 65.8848 139.653 65.6925C139.845 65.5001 139.955 65.2406 139.959 64.9686C139.964 64.6966 139.864 64.4333 139.679 64.2343L135.488 60.0262L139.68 55.8195Z" fill="#8446FF"/>
<path d="M157.68 1.81947C157.78 1.72266 157.86 1.60685 157.915 1.47878C157.97 1.35071 157.999 1.21295 158 1.07354C158.001 0.934136 157.975 0.79587 157.922 0.666813C157.87 0.537756 157.792 0.420493 157.694 0.321866C157.596 0.223239 157.479 0.145224 157.35 0.0923716C157.222 0.0395194 157.084 0.0128894 156.945 0.0140346C156.806 0.0151799 156.668 0.0440777 156.541 0.0990422C156.413 0.154007 156.297 0.233937 156.201 0.334169L152.006 4.54089L147.812 0.334169C147.717 0.231015 147.601 0.148277 147.473 0.0908924C147.344 0.0335075 147.206 0.00265073 147.065 0.000163397C146.925 -0.00232394 146.785 0.0236092 146.655 0.0764151C146.524 0.129221 146.406 0.207818 146.307 0.307518C146.207 0.407217 146.129 0.525976 146.076 0.656711C146.024 0.787445 145.998 0.927478 146 1.06845C146.003 1.20943 146.033 1.34846 146.091 1.47725C146.148 1.60604 146.23 1.72195 146.333 1.81807L150.524 6.02619L146.33 10.2329C146.145 10.4319 146.045 10.6952 146.05 10.9672C146.054 11.2392 146.164 11.4987 146.356 11.6911C146.548 11.8834 146.806 11.9936 147.078 11.9984C147.349 12.0032 147.611 11.9023 147.81 11.7168L152.006 7.51009L156.199 11.7182C156.398 11.9037 156.66 12.0046 156.931 11.9998C157.203 11.995 157.461 11.8848 157.653 11.6925C157.845 11.5001 157.955 11.2406 157.959 10.9686C157.964 10.6966 157.864 10.4333 157.679 10.2343L153.488 6.02619L157.68 1.81947Z" fill="#8446FF"/>
<path d="M157.68 19.8195C157.78 19.7227 157.86 19.6068 157.915 19.4788C157.97 19.3507 157.999 19.213 158 19.0735C158.001 18.9341 157.975 18.7959 157.922 18.6668C157.87 18.5378 157.792 18.4205 157.694 18.3219C157.596 18.2232 157.479 18.1452 157.35 18.0924C157.222 18.0395 157.084 18.0129 156.945 18.014C156.806 18.0152 156.668 18.0441 156.541 18.099C156.413 18.154 156.297 18.2339 156.201 18.3342L152.006 22.5409L147.812 18.3342C147.717 18.231 147.601 18.1483 147.473 18.0909C147.344 18.0335 147.206 18.0027 147.065 18.0002C146.925 17.9977 146.785 18.0236 146.655 18.0764C146.524 18.1292 146.406 18.2078 146.307 18.3075C146.207 18.4072 146.129 18.526 146.076 18.6567C146.024 18.7874 145.998 18.9275 146 19.0685C146.003 19.2094 146.033 19.3485 146.091 19.4772C146.148 19.606 146.23 19.722 146.333 19.8181L150.524 24.0262L146.33 28.2329C146.145 28.4319 146.045 28.6952 146.05 28.9672C146.054 29.2392 146.164 29.4987 146.356 29.6911C146.548 29.8834 146.806 29.9936 147.078 29.9984C147.349 30.0032 147.611 29.9023 147.81 29.7168L152.006 25.5101L156.199 29.7182C156.398 29.9037 156.66 30.0046 156.931 29.9998C157.203 29.995 157.461 29.8848 157.653 29.6925C157.845 29.5001 157.955 29.2406 157.959 28.9686C157.964 28.6966 157.864 28.4333 157.679 28.2343L153.488 24.0262L157.68 19.8195Z" fill="#8446FF"/>
<path d="M157.68 37.8195C157.78 37.7227 157.86 37.6068 157.915 37.4788C157.97 37.3507 157.999 37.213 158 37.0735C158.001 36.9341 157.975 36.7959 157.922 36.6668C157.87 36.5378 157.792 36.4205 157.694 36.3219C157.596 36.2232 157.479 36.1452 157.35 36.0924C157.222 36.0395 157.084 36.0129 156.945 36.014C156.806 36.0152 156.668 36.0441 156.541 36.099C156.413 36.154 156.297 36.2339 156.201 36.3342L152.006 40.5409L147.812 36.3342C147.717 36.231 147.601 36.1483 147.473 36.0909C147.344 36.0335 147.206 36.0027 147.065 36.0002C146.925 35.9977 146.785 36.0236 146.655 36.0764C146.524 36.1292 146.406 36.2078 146.307 36.3075C146.207 36.4072 146.129 36.526 146.076 36.6567C146.024 36.7874 145.998 36.9275 146 37.0685C146.003 37.2094 146.033 37.3485 146.091 37.4772C146.148 37.606 146.23 37.722 146.333 37.8181L150.524 42.0262L146.33 46.2329C146.145 46.4319 146.045 46.6952 146.05 46.9672C146.054 47.2392 146.164 47.4987 146.356 47.6911C146.548 47.8834 146.806 47.9936 147.078 47.9984C147.349 48.0032 147.611 47.9023 147.81 47.7168L152.006 43.5101L156.199 47.7182C156.398 47.9037 156.66 48.0046 156.931 47.9998C157.203 47.995 157.461 47.8848 157.653 47.6925C157.845 47.5001 157.955 47.2406 157.959 46.9686C157.964 46.6966 157.864 46.4333 157.679 46.2343L153.488 42.0262L157.68 37.8195Z" fill="#8446FF"/>
<path d="M157.68 55.8195C157.78 55.7227 157.86 55.6068 157.915 55.4788C157.97 55.3507 157.999 55.213 158 55.0735C158.001 54.9341 157.975 54.7959 157.922 54.6668C157.87 54.5378 157.792 54.4205 157.694 54.3219C157.596 54.2232 157.479 54.1452 157.35 54.0924C157.222 54.0395 157.084 54.0129 156.945 54.014C156.806 54.0152 156.668 54.0441 156.541 54.099C156.413 54.154 156.297 54.2339 156.201 54.3342L152.006 58.5409L147.812 54.3342C147.717 54.231 147.601 54.1483 147.473 54.0909C147.344 54.0335 147.206 54.0027 147.065 54.0002C146.925 53.9977 146.785 54.0236 146.655 54.0764C146.524 54.1292 146.406 54.2078 146.307 54.3075C146.207 54.4072 146.129 54.526 146.076 54.6567C146.024 54.7874 145.998 54.9275 146 55.0685C146.003 55.2094 146.033 55.3485 146.091 55.4772C146.148 55.606 146.23 55.722 146.333 55.8181L150.524 60.0262L146.33 64.2329C146.145 64.4319 146.045 64.6952 146.05 64.9672C146.054 65.2392 146.164 65.4987 146.356 65.6911C146.548 65.8834 146.806 65.9936 147.078 65.9984C147.349 66.0032 147.611 65.9023 147.81 65.7168L152.006 61.5101L156.199 65.7182C156.398 65.9037 156.66 66.0046 156.931 65.9998C157.203 65.995 157.461 65.8848 157.653 65.6925C157.845 65.5001 157.955 65.2406 157.959 64.9686C157.964 64.6966 157.864 64.4333 157.679 64.2343L153.488 60.0262L157.68 55.8195Z" fill="#8446FF"/>
<path d="M175.68 1.81947C175.78 1.72266 175.86 1.60685 175.915 1.47878C175.97 1.35071 175.999 1.21295 176 1.07354C176.001 0.934136 175.975 0.79587 175.922 0.666813C175.87 0.537756 175.792 0.420493 175.694 0.321866C175.596 0.223239 175.479 0.145224 175.35 0.0923716C175.222 0.0395194 175.084 0.0128894 174.945 0.0140346C174.806 0.0151799 174.668 0.0440777 174.541 0.0990422C174.413 0.154007 174.297 0.233937 174.201 0.334169L170.006 4.54089L165.812 0.334169C165.717 0.231015 165.601 0.148277 165.473 0.0908924C165.344 0.0335075 165.206 0.00265073 165.065 0.000163397C164.925 -0.00232394 164.785 0.0236092 164.655 0.0764151C164.524 0.129221 164.406 0.207818 164.307 0.307518C164.207 0.407217 164.129 0.525976 164.076 0.656711C164.024 0.787445 163.998 0.927478 164 1.06845C164.003 1.20943 164.033 1.34846 164.091 1.47725C164.148 1.60604 164.23 1.72195 164.333 1.81807L168.524 6.02619L164.33 10.2329C164.145 10.4319 164.045 10.6952 164.05 10.9672C164.054 11.2392 164.164 11.4987 164.356 11.6911C164.548 11.8834 164.806 11.9936 165.078 11.9984C165.349 12.0032 165.611 11.9023 165.81 11.7168L170.006 7.51009L174.199 11.7182C174.398 11.9037 174.66 12.0046 174.931 11.9998C175.203 11.995 175.461 11.8848 175.653 11.6925C175.845 11.5001 175.955 11.2406 175.959 10.9686C175.964 10.6966 175.864 10.4333 175.679 10.2343L171.488 6.02619L175.68 1.81947Z" fill="#8446FF"/>
<path d="M175.68 19.8195C175.78 19.7227 175.86 19.6068 175.915 19.4788C175.97 19.3507 175.999 19.213 176 19.0735C176.001 18.9341 175.975 18.7959 175.922 18.6668C175.87 18.5378 175.792 18.4205 175.694 18.3219C175.596 18.2232 175.479 18.1452 175.35 18.0924C175.222 18.0395 175.084 18.0129 174.945 18.014C174.806 18.0152 174.668 18.0441 174.541 18.099C174.413 18.154 174.297 18.2339 174.201 18.3342L170.006 22.5409L165.812 18.3342C165.717 18.231 165.601 18.1483 165.473 18.0909C165.344 18.0335 165.206 18.0027 165.065 18.0002C164.925 17.9977 164.785 18.0236 164.655 18.0764C164.524 18.1292 164.406 18.2078 164.307 18.3075C164.207 18.4072 164.129 18.526 164.076 18.6567C164.024 18.7874 163.998 18.9275 164 19.0685C164.003 19.2094 164.033 19.3485 164.091 19.4772C164.148 19.606 164.23 19.722 164.333 19.8181L168.524 24.0262L164.33 28.2329C164.145 28.4319 164.045 28.6952 164.05 28.9672C164.054 29.2392 164.164 29.4987 164.356 29.6911C164.548 29.8834 164.806 29.9936 165.078 29.9984C165.349 30.0032 165.611 29.9023 165.81 29.7168L170.006 25.5101L174.199 29.7182C174.398 29.9037 174.66 30.0046 174.931 29.9998C175.203 29.995 175.461 29.8848 175.653 29.6925C175.845 29.5001 175.955 29.2406 175.959 28.9686C175.964 28.6966 175.864 28.4333 175.679 28.2343L171.488 24.0262L175.68 19.8195Z" fill="#8446FF"/>
<path d="M175.68 37.8195C175.78 37.7227 175.86 37.6068 175.915 37.4788C175.97 37.3507 175.999 37.213 176 37.0735C176.001 36.9341 175.975 36.7959 175.922 36.6668C175.87 36.5378 175.792 36.4205 175.694 36.3219C175.596 36.2232 175.479 36.1452 175.35 36.0924C175.222 36.0395 175.084 36.0129 174.945 36.014C174.806 36.0152 174.668 36.0441 174.541 36.099C174.413 36.154 174.297 36.2339 174.201 36.3342L170.006 40.5409L165.812 36.3342C165.717 36.231 165.601 36.1483 165.473 36.0909C165.344 36.0335 165.206 36.0027 165.065 36.0002C164.925 35.9977 164.785 36.0236 164.655 36.0764C164.524 36.1292 164.406 36.2078 164.307 36.3075C164.207 36.4072 164.129 36.526 164.076 36.6567C164.024 36.7874 163.998 36.9275 164 37.0685C164.003 37.2094 164.033 37.3485 164.091 37.4772C164.148 37.606 164.23 37.722 164.333 37.8181L168.524 42.0262L164.33 46.2329C164.145 46.4319 164.045 46.6952 164.05 46.9672C164.054 47.2392 164.164 47.4987 164.356 47.6911C164.548 47.8834 164.806 47.9936 165.078 47.9984C165.349 48.0032 165.611 47.9023 165.81 47.7168L170.006 43.5101L174.199 47.7182C174.398 47.9037 174.66 48.0046 174.931 47.9998C175.203 47.995 175.461 47.8848 175.653 47.6925C175.845 47.5001 175.955 47.2406 175.959 46.9686C175.964 46.6966 175.864 46.4333 175.679 46.2343L171.488 42.0262L175.68 37.8195Z" fill="#8446FF"/>
<path d="M168.489 62.9213L175.897 55.3528C176.127 55.1176 176.42 55 176.776 55C177.132 55 177.425 55.1176 177.655 55.3528C177.885 55.5879 178 55.8873 178 56.2507C178 56.6142 177.885 56.9135 177.655 57.1487L169.368 65.6152C169.117 65.8717 168.824 66 168.489 66C168.154 66 167.861 65.8717 167.61 65.6152L164.345 62.2799C164.115 62.0447 164 61.7454 164 61.3819C164 61.0185 164.115 60.7191 164.345 60.484C164.575 60.2488 164.868 60.1312 165.224 60.1312C165.58 60.1312 165.873 60.2488 166.103 60.484L168.489 62.9213Z" fill="#8446FF"/>
<path d="M63.1088 97V89.95H66.4988C67.2988 89.95 67.9154 90.1567 68.3487 90.57C68.7888 90.9767 69.0088 91.54 69.0088 92.26C69.0088 92.98 68.7888 93.5467 68.3487 93.96C67.9154 94.3667 67.2988 94.57 66.4988 94.57H64.9488V97H63.1088ZM64.9488 93.16H66.1788C66.8988 93.16 67.2588 92.86 67.2588 92.26C67.2588 91.66 66.8988 91.36 66.1788 91.36H64.9488V93.16ZM69.6489 97V92.08H71.3789V92.91C71.6056 92.3433 72.0956 92.0333 72.8489 91.98L73.3389 91.94L73.4389 93.44L72.4689 93.53C72.1156 93.5633 71.8589 93.6633 71.6989 93.83C71.5389 93.99 71.4589 94.23 71.4589 94.55V97H69.6489ZM76.577 97.11C75.977 97.11 75.457 97.0067 75.017 96.8C74.5836 96.5867 74.2503 96.2867 74.017 95.9C73.7836 95.5133 73.667 95.0567 73.667 94.53C73.667 94.03 73.777 93.5867 73.997 93.2C74.2236 92.8133 74.5303 92.5133 74.917 92.3C75.3103 92.08 75.757 91.97 76.257 91.97C76.7503 91.97 77.177 92.0733 77.537 92.28C77.9036 92.4867 78.1836 92.7833 78.377 93.17C78.577 93.55 78.677 93.9967 78.677 94.51V94.9H75.367C75.427 95.22 75.5603 95.45 75.767 95.59C75.9736 95.73 76.2603 95.8 76.627 95.8C76.8803 95.8 77.1436 95.7633 77.417 95.69C77.697 95.61 77.9436 95.4967 78.157 95.35L78.597 96.52C78.3436 96.7 78.0336 96.8433 77.667 96.95C77.3003 97.0567 76.937 97.11 76.577 97.11ZM76.337 93.12C76.0703 93.12 75.8503 93.2 75.677 93.36C75.5103 93.52 75.4036 93.7533 75.357 94.06H77.217C77.197 93.7467 77.1103 93.5133 76.957 93.36C76.8103 93.2 76.6036 93.12 76.337 93.12ZM81.8838 98.91C81.3905 98.91 80.9272 98.8633 80.4938 98.77C80.0672 98.6767 79.7005 98.5233 79.3938 98.31L79.8538 97.11C80.1072 97.2633 80.4072 97.3833 80.7538 97.47C81.1072 97.5567 81.4272 97.6 81.7138 97.6C82.1205 97.6 82.4238 97.5133 82.6238 97.34C82.8305 97.1733 82.9338 96.91 82.9338 96.55V96.09C82.7938 96.33 82.5838 96.52 82.3038 96.66C82.0238 96.8 81.7238 96.87 81.4038 96.87C80.9638 96.87 80.5805 96.77 80.2538 96.57C79.9272 96.3633 79.6705 96.0767 79.4838 95.71C79.3038 95.3433 79.2138 94.9133 79.2138 94.42C79.2138 93.9267 79.3038 93.4967 79.4838 93.13C79.6705 92.7633 79.9272 92.48 80.2538 92.28C80.5805 92.0733 80.9638 91.97 81.4038 91.97C81.7372 91.97 82.0405 92.0433 82.3138 92.19C82.5938 92.33 82.7972 92.5167 82.9238 92.75V92.08H84.6638V96.34C84.6638 97.2 84.4238 97.8433 83.9438 98.27C83.4638 98.6967 82.7772 98.91 81.8838 98.91ZM81.9538 95.56C82.2472 95.56 82.4805 95.46 82.6538 95.26C82.8272 95.06 82.9138 94.78 82.9138 94.42C82.9138 94.06 82.8272 93.78 82.6538 93.58C82.4805 93.38 82.2472 93.28 81.9538 93.28C81.6672 93.28 81.4372 93.38 81.2638 93.58C81.0905 93.78 81.0038 94.06 81.0038 94.42C81.0038 94.78 81.0905 95.06 81.2638 95.26C81.4372 95.46 81.6672 95.56 81.9538 95.56ZM87.5436 97.11C86.9036 97.11 86.4303 96.9367 86.1236 96.59C85.8236 96.2367 85.6736 95.7 85.6736 94.98V92.08H87.4536V95.03C87.4536 95.51 87.6603 95.75 88.0736 95.75C88.3136 95.75 88.5103 95.6633 88.6636 95.49C88.8169 95.3167 88.8936 95.0867 88.8936 94.8V92.08H90.6736V97H88.9336V96.39C88.6136 96.87 88.1503 97.11 87.5436 97.11ZM91.7095 97V92.08H93.4395V92.75C93.6128 92.4967 93.8361 92.3033 94.1095 92.17C94.3828 92.0367 94.6895 91.97 95.0295 91.97C95.6161 91.97 96.0495 92.1433 96.3295 92.49C96.6161 92.8367 96.7595 93.37 96.7595 94.09V97H94.9795V94.16C94.9795 93.86 94.9261 93.6467 94.8195 93.52C94.7195 93.3933 94.5695 93.33 94.3695 93.33C94.1028 93.33 93.8895 93.4167 93.7295 93.59C93.5695 93.7567 93.4895 93.9833 93.4895 94.27V97H91.7095ZM100.354 97.11C99.6072 97.11 99.0539 96.9367 98.6939 96.59C98.3339 96.2433 98.1539 95.72 98.1539 95.02V93.39H97.2339V92.08H98.1539V90.65H99.9339V92.08H101.334V93.39H99.9339V94.96C99.9339 95.44 100.177 95.68 100.664 95.68C100.744 95.68 100.831 95.6733 100.924 95.66C101.024 95.64 101.134 95.6133 101.254 95.58L101.494 96.86C101.341 96.94 101.161 97 100.954 97.04C100.747 97.0867 100.547 97.11 100.354 97.11ZM103.742 97.11C103.362 97.11 103.025 97.04 102.732 96.9C102.445 96.76 102.218 96.57 102.052 96.33C101.892 96.0833 101.812 95.8033 101.812 95.49C101.812 95.1367 101.905 94.8567 102.092 94.65C102.278 94.4367 102.578 94.2867 102.992 94.2C103.405 94.1067 103.955 94.06 104.642 94.06H105.022V93.92C105.022 93.68 104.958 93.51 104.832 93.41C104.712 93.31 104.502 93.26 104.202 93.26C103.948 93.26 103.668 93.3 103.362 93.38C103.055 93.46 102.755 93.5833 102.462 93.75L102.012 92.58C102.178 92.46 102.392 92.3533 102.652 92.26C102.912 92.1667 103.185 92.0967 103.472 92.05C103.758 91.9967 104.028 91.97 104.282 91.97C105.102 91.97 105.708 92.1467 106.102 92.5C106.502 92.8533 106.702 93.41 106.702 94.17V97H105.042V96.3C104.955 96.5533 104.798 96.7533 104.572 96.9C104.345 97.04 104.068 97.11 103.742 97.11ZM104.142 95.95C104.388 95.95 104.595 95.87 104.762 95.71C104.935 95.55 105.022 95.34 105.022 95.08V94.9H104.642C104.248 94.9 103.958 94.9433 103.772 95.03C103.592 95.11 103.502 95.24 103.502 95.42C103.502 95.5733 103.555 95.7 103.662 95.8C103.775 95.9 103.935 95.95 104.142 95.95ZM107.715 97V92.08H109.445V92.91C109.672 92.3433 110.162 92.0333 110.915 91.98L111.405 91.94L111.505 93.44L110.535 93.53C110.182 93.5633 109.925 93.6633 109.765 93.83C109.605 93.99 109.525 94.23 109.525 94.55V97H107.715Z" fill="#363636"/>
<path d="M225.071 97V89.95H230.051V91.37H226.831V92.71H229.821V94.13H226.831V95.58H230.051V97H225.071ZM233.034 97.11C232.58 97.11 232.16 97.0633 231.774 96.97C231.394 96.8767 231.07 96.7467 230.804 96.58L231.214 95.43C231.46 95.57 231.747 95.6867 232.074 95.78C232.4 95.8667 232.724 95.91 233.044 95.91C233.29 95.91 233.467 95.8767 233.574 95.81C233.68 95.7367 233.734 95.6433 233.734 95.53C233.734 95.43 233.697 95.3567 233.624 95.31C233.557 95.2567 233.46 95.2167 233.334 95.19L232.224 95.01C231.81 94.9433 231.49 94.7933 231.264 94.56C231.037 94.3267 230.924 94.0233 230.924 93.65C230.924 93.3033 231.02 93.0067 231.214 92.76C231.407 92.5067 231.677 92.3133 232.024 92.18C232.37 92.04 232.767 91.97 233.214 91.97C233.567 91.97 233.917 92.0133 234.264 92.1C234.61 92.18 234.914 92.3133 235.174 92.5L234.734 93.63C234.54 93.4967 234.3 93.3867 234.014 93.3C233.727 93.2067 233.47 93.16 233.244 93.16C232.97 93.16 232.777 93.2 232.664 93.28C232.55 93.3533 232.494 93.4433 232.494 93.55C232.494 93.73 232.617 93.84 232.864 93.88L233.974 94.07C234.4 94.1367 234.727 94.2833 234.954 94.51C235.187 94.73 235.304 95.03 235.304 95.41C235.304 95.95 235.097 96.37 234.684 96.67C234.27 96.9633 233.72 97.11 233.034 97.11ZM236.035 98.8V92.08H237.765V92.75C237.898 92.51 238.101 92.32 238.375 92.18C238.648 92.04 238.948 91.97 239.275 91.97C239.695 91.97 240.065 92.0733 240.385 92.28C240.711 92.4867 240.965 92.7833 241.145 93.17C241.331 93.55 241.425 94.0067 241.425 94.54C241.425 95.0667 241.335 95.5233 241.155 95.91C240.975 96.2967 240.721 96.5933 240.395 96.8C240.075 97.0067 239.701 97.11 239.275 97.11C238.968 97.11 238.681 97.0467 238.415 96.92C238.155 96.7933 237.955 96.6233 237.815 96.41V98.8H236.035ZM238.715 95.8C238.981 95.8 239.201 95.7 239.375 95.5C239.548 95.3 239.635 94.98 239.635 94.54C239.635 94.0933 239.548 93.7733 239.375 93.58C239.201 93.38 238.981 93.28 238.715 93.28C238.441 93.28 238.218 93.38 238.045 93.58C237.871 93.7733 237.785 94.0933 237.785 94.54C237.785 94.98 237.871 95.3 238.045 95.5C238.218 95.7 238.441 95.8 238.715 95.8ZM244.916 97.11C244.316 97.11 243.796 97.0067 243.356 96.8C242.922 96.5867 242.589 96.2867 242.356 95.9C242.122 95.5133 242.006 95.0567 242.006 94.53C242.006 94.03 242.116 93.5867 242.336 93.2C242.562 92.8133 242.869 92.5133 243.256 92.3C243.649 92.08 244.096 91.97 244.596 91.97C245.089 91.97 245.516 92.0733 245.876 92.28C246.242 92.4867 246.522 92.7833 246.716 93.17C246.916 93.55 247.016 93.9967 247.016 94.51V94.9H243.706C243.766 95.22 243.899 95.45 244.106 95.59C244.312 95.73 244.599 95.8 244.966 95.8C245.219 95.8 245.482 95.7633 245.756 95.69C246.036 95.61 246.282 95.4967 246.496 95.35L246.936 96.52C246.682 96.7 246.372 96.8433 246.006 96.95C245.639 97.0567 245.276 97.11 244.916 97.11ZM244.676 93.12C244.409 93.12 244.189 93.2 244.016 93.36C243.849 93.52 243.742 93.7533 243.696 94.06H245.556C245.536 93.7467 245.449 93.5133 245.296 93.36C245.149 93.2 244.942 93.12 244.676 93.12ZM247.783 97V92.08H249.513V92.91C249.739 92.3433 250.229 92.0333 250.983 91.98L251.473 91.94L251.573 93.44L250.603 93.53C250.249 93.5633 249.993 93.6633 249.833 93.83C249.673 93.99 249.593 94.23 249.593 94.55V97H247.783ZM253.78 97.11C253.4 97.11 253.063 97.04 252.77 96.9C252.483 96.76 252.256 96.57 252.09 96.33C251.93 96.0833 251.85 95.8033 251.85 95.49C251.85 95.1367 251.943 94.8567 252.13 94.65C252.316 94.4367 252.616 94.2867 253.03 94.2C253.443 94.1067 253.993 94.06 254.68 94.06H255.06V93.92C255.06 93.68 254.996 93.51 254.87 93.41C254.75 93.31 254.54 93.26 254.24 93.26C253.986 93.26 253.706 93.3 253.4 93.38C253.093 93.46 252.793 93.5833 252.5 93.75L252.05 92.58C252.216 92.46 252.43 92.3533 252.69 92.26C252.95 92.1667 253.223 92.0967 253.51 92.05C253.796 91.9967 254.066 91.97 254.32 91.97C255.14 91.97 255.746 92.1467 256.14 92.5C256.54 92.8533 256.74 93.41 256.74 94.17V97H255.08V96.3C254.993 96.5533 254.836 96.7533 254.61 96.9C254.383 97.04 254.106 97.11 253.78 97.11ZM254.18 95.95C254.426 95.95 254.633 95.87 254.8 95.71C254.973 95.55 255.06 95.34 255.06 95.08V94.9H254.68C254.286 94.9 253.996 94.9433 253.81 95.03C253.63 95.11 253.54 95.24 253.54 95.42C253.54 95.5733 253.593 95.7 253.7 95.8C253.813 95.9 253.973 95.95 254.18 95.95ZM257.753 97V92.08H259.483V92.91C259.71 92.3433 260.2 92.0333 260.953 91.98L261.443 91.94L261.543 93.44L260.573 93.53C260.22 93.5633 259.963 93.6633 259.803 93.83C259.643 93.99 259.563 94.23 259.563 94.55V97H257.753Z" fill="#363636"/>
</svg>
