<svg width="292" height="148" viewBox="0 0 292 148" fill="none" xmlns="http://www.w3.org/2000/svg">
<path d="M24.64 145V137.95H25.99L29.23 141.99V137.95H30.93V145H29.59L26.35 140.96V145H24.64ZM34.5881 145.11C34.0415 145.11 33.5648 145.007 33.1581 144.8C32.7515 144.593 32.4348 144.297 32.2081 143.91C31.9815 143.523 31.8681 143.067 31.8681 142.54C31.8681 142.007 31.9815 141.55 32.2081 141.17C32.4348 140.783 32.7515 140.487 33.1581 140.28C33.5648 140.073 34.0415 139.97 34.5881 139.97C35.1348 139.97 35.6115 140.073 36.0181 140.28C36.4248 140.487 36.7381 140.783 36.9581 141.17C37.1848 141.55 37.2981 142.007 37.2981 142.54C37.2981 143.067 37.1848 143.523 36.9581 143.91C36.7381 144.297 36.4248 144.593 36.0181 144.8C35.6115 145.007 35.1348 145.11 34.5881 145.11ZM34.5881 143.8C34.8548 143.8 35.0748 143.7 35.2481 143.5C35.4215 143.3 35.5081 142.98 35.5081 142.54C35.5081 142.093 35.4215 141.773 35.2481 141.58C35.0748 141.38 34.8548 141.28 34.5881 141.28C34.3148 141.28 34.0915 141.38 33.9181 141.58C33.7448 141.773 33.6581 142.093 33.6581 142.54C33.6581 142.98 33.7448 143.3 33.9181 143.5C34.0915 143.7 34.3148 143.8 34.5881 143.8ZM42.9151 145.11C42.2351 145.11 41.7417 144.94 41.4351 144.6C41.1284 144.253 40.9751 143.733 40.9751 143.04V137.95H42.7551V142.98C42.7551 143.447 42.9684 143.68 43.3951 143.68C43.4617 143.68 43.5284 143.677 43.5951 143.67C43.6684 143.663 43.7384 143.653 43.8051 143.64L43.7851 145C43.5184 145.073 43.2284 145.11 42.9151 145.11ZM46.8928 145.11C46.3461 145.11 45.8695 145.007 45.4628 144.8C45.0561 144.593 44.7395 144.297 44.5128 143.91C44.2861 143.523 44.1728 143.067 44.1728 142.54C44.1728 142.007 44.2861 141.55 44.5128 141.17C44.7395 140.783 45.0561 140.487 45.4628 140.28C45.8695 140.073 46.3461 139.97 46.8928 139.97C47.4395 139.97 47.9161 140.073 48.3228 140.28C48.7295 140.487 49.0428 140.783 49.2628 141.17C49.4895 141.55 49.6028 142.007 49.6028 142.54C49.6028 143.067 49.4895 143.523 49.2628 143.91C49.0428 144.297 48.7295 144.593 48.3228 144.8C47.9161 145.007 47.4395 145.11 46.8928 145.11ZM46.8928 143.8C47.1595 143.8 47.3795 143.7 47.5528 143.5C47.7261 143.3 47.8128 142.98 47.8128 142.54C47.8128 142.093 47.7261 141.773 47.5528 141.58C47.3795 141.38 47.1595 141.28 46.8928 141.28C46.6195 141.28 46.3961 141.38 46.2228 141.58C46.0495 141.773 45.9628 142.093 45.9628 142.54C45.9628 142.98 46.0495 143.3 46.2228 143.5C46.3961 143.7 46.6195 143.8 46.8928 143.8ZM56.6698 146.8V144.4C56.5298 144.613 56.3264 144.787 56.0598 144.92C55.7998 145.047 55.5131 145.11 55.1998 145.11C54.7798 145.11 54.4064 145.007 54.0798 144.8C53.7598 144.593 53.5064 144.297 53.3198 143.91C53.1398 143.523 53.0498 143.067 53.0498 142.54C53.0498 142.007 53.1398 141.55 53.3198 141.17C53.5064 140.783 53.7598 140.487 54.0798 140.28C54.4064 140.073 54.7798 139.97 55.1998 139.97C55.5331 139.97 55.8364 140.043 56.1098 140.19C56.3831 140.33 56.5831 140.52 56.7098 140.76V140.08H58.4498V146.8H56.6698ZM55.7698 143.8C56.0364 143.8 56.2564 143.7 56.4298 143.5C56.6031 143.3 56.6898 142.98 56.6898 142.54C56.6898 142.093 56.6031 141.773 56.4298 141.58C56.2564 141.38 56.0364 141.28 55.7698 141.28C55.4964 141.28 55.2731 141.38 55.0998 141.58C54.9264 141.773 54.8398 142.093 54.8398 142.54C54.8398 142.98 54.9264 143.3 55.0998 143.5C55.2731 143.7 55.4964 143.8 55.7698 143.8ZM61.3209 145.11C60.6809 145.11 60.2076 144.937 59.9009 144.59C59.6009 144.237 59.4509 143.7 59.4509 142.98V140.08H61.2309V143.03C61.2309 143.51 61.4376 143.75 61.8509 143.75C62.0909 143.75 62.2876 143.663 62.4409 143.49C62.5943 143.317 62.6709 143.087 62.6709 142.8V140.08H64.4509V145H62.7109V144.39C62.3909 144.87 61.9276 145.11 61.3209 145.11ZM68.1668 145.11C67.5668 145.11 67.0468 145.007 66.6068 144.8C66.1735 144.587 65.8401 144.287 65.6068 143.9C65.3735 143.513 65.2568 143.057 65.2568 142.53C65.2568 142.03 65.3668 141.587 65.5868 141.2C65.8135 140.813 66.1201 140.513 66.5068 140.3C66.9001 140.08 67.3468 139.97 67.8468 139.97C68.3401 139.97 68.7668 140.073 69.1268 140.28C69.4935 140.487 69.7735 140.783 69.9668 141.17C70.1668 141.55 70.2668 141.997 70.2668 142.51V142.9H66.9568C67.0168 143.22 67.1501 143.45 67.3568 143.59C67.5635 143.73 67.8501 143.8 68.2168 143.8C68.4701 143.8 68.7335 143.763 69.0068 143.69C69.2868 143.61 69.5335 143.497 69.7468 143.35L70.1868 144.52C69.9335 144.7 69.6235 144.843 69.2568 144.95C68.8901 145.057 68.5268 145.11 68.1668 145.11ZM67.9268 141.12C67.6601 141.12 67.4401 141.2 67.2668 141.36C67.1001 141.52 66.9935 141.753 66.9468 142.06H68.8068C68.7868 141.747 68.7001 141.513 68.5468 141.36C68.4001 141.2 68.1935 141.12 67.9268 141.12ZM75.815 145.11C75.395 145.11 75.0217 145.007 74.695 144.8C74.375 144.593 74.1217 144.297 73.935 143.91C73.755 143.523 73.665 143.067 73.665 142.54C73.665 142.007 73.755 141.55 73.935 141.17C74.1217 140.783 74.375 140.487 74.695 140.28C75.0217 140.073 75.395 139.97 75.815 139.97C76.1283 139.97 76.415 140.037 76.675 140.17C76.9417 140.297 77.145 140.463 77.285 140.67V137.95H79.065V145H77.325V144.32C77.1983 144.56 76.9983 144.753 76.725 144.9C76.4517 145.04 76.1483 145.11 75.815 145.11ZM76.385 143.8C76.6517 143.8 76.8717 143.7 77.045 143.5C77.2183 143.3 77.305 142.98 77.305 142.54C77.305 142.093 77.2183 141.773 77.045 141.58C76.8717 141.38 76.6517 141.28 76.385 141.28C76.1117 141.28 75.8883 141.38 75.715 141.58C75.5417 141.773 75.455 142.093 75.455 142.54C75.455 142.98 75.5417 143.3 75.715 143.5C75.8883 143.7 76.1117 143.8 76.385 143.8ZM80.0462 139.23V137.62H81.9162V139.23H80.0462ZM80.0962 145V140.08H81.8762V145H80.0962ZM85.4187 145.11C84.8653 145.11 84.382 145.007 83.9687 144.8C83.562 144.593 83.2453 144.297 83.0187 143.91C82.792 143.523 82.6787 143.063 82.6787 142.53C82.6787 141.997 82.792 141.54 83.0187 141.16C83.2453 140.773 83.562 140.48 83.9687 140.28C84.382 140.073 84.8653 139.97 85.4187 139.97C85.7453 139.97 86.0687 140.017 86.3887 140.11C86.7153 140.197 86.982 140.32 87.1887 140.48L86.7187 141.7C86.5653 141.58 86.3853 141.487 86.1787 141.42C85.9787 141.347 85.7887 141.31 85.6087 141.31C85.2553 141.31 84.982 141.417 84.7887 141.63C84.5953 141.843 84.4987 142.143 84.4987 142.53C84.4987 142.923 84.5953 143.23 84.7887 143.45C84.982 143.663 85.2553 143.77 85.6087 143.77C85.7887 143.77 85.9787 143.737 86.1787 143.67C86.3853 143.597 86.5653 143.5 86.7187 143.38L87.1887 144.6C86.982 144.76 86.7153 144.887 86.3887 144.98C86.062 145.067 85.7387 145.11 85.4187 145.11ZM90.3348 145.11C89.7348 145.11 89.2148 145.007 88.7748 144.8C88.3414 144.587 88.0081 144.287 87.7748 143.9C87.5414 143.513 87.4248 143.057 87.4248 142.53C87.4248 142.03 87.5348 141.587 87.7548 141.2C87.9814 140.813 88.2881 140.513 88.6748 140.3C89.0681 140.08 89.5148 139.97 90.0148 139.97C90.5081 139.97 90.9348 140.073 91.2948 140.28C91.6614 140.487 91.9414 140.783 92.1348 141.17C92.3348 141.55 92.4348 141.997 92.4348 142.51V142.9H89.1248C89.1848 143.22 89.3181 143.45 89.5248 143.59C89.7314 143.73 90.0181 143.8 90.3848 143.8C90.6381 143.8 90.9014 143.763 91.1748 143.69C91.4548 143.61 91.7014 143.497 91.9148 143.35L92.3548 144.52C92.1014 144.7 91.7914 144.843 91.4248 144.95C91.0581 145.057 90.6948 145.11 90.3348 145.11ZM90.0948 141.12C89.8281 141.12 89.6081 141.2 89.4348 141.36C89.2681 141.52 89.1614 141.753 89.1148 142.06H90.9748C90.9548 141.747 90.8681 141.513 90.7148 141.36C90.5681 141.2 90.3614 141.12 90.0948 141.12ZM95.1616 145.11C94.7083 145.11 94.2883 145.063 93.9016 144.97C93.5216 144.877 93.1983 144.747 92.9316 144.58L93.3416 143.43C93.5883 143.57 93.875 143.687 94.2016 143.78C94.5283 143.867 94.8516 143.91 95.1716 143.91C95.4183 143.91 95.595 143.877 95.7016 143.81C95.8083 143.737 95.8616 143.643 95.8616 143.53C95.8616 143.43 95.825 143.357 95.7516 143.31C95.685 143.257 95.5883 143.217 95.4616 143.19L94.3516 143.01C93.9383 142.943 93.6183 142.793 93.3916 142.56C93.165 142.327 93.0516 142.023 93.0516 141.65C93.0516 141.303 93.1483 141.007 93.3416 140.76C93.535 140.507 93.805 140.313 94.1516 140.18C94.4983 140.04 94.895 139.97 95.3416 139.97C95.695 139.97 96.045 140.013 96.3916 140.1C96.7383 140.18 97.0416 140.313 97.3016 140.5L96.8616 141.63C96.6683 141.497 96.4283 141.387 96.1416 141.3C95.855 141.207 95.5983 141.16 95.3716 141.16C95.0983 141.16 94.905 141.2 94.7916 141.28C94.6783 141.353 94.6216 141.443 94.6216 141.55C94.6216 141.73 94.745 141.84 94.9916 141.88L96.1016 142.07C96.5283 142.137 96.855 142.283 97.0816 142.51C97.315 142.73 97.4316 143.03 97.4316 143.41C97.4316 143.95 97.225 144.37 96.8116 144.67C96.3983 144.963 95.8483 145.11 95.1616 145.11ZM104.414 146.8V144.4C104.274 144.613 104.071 144.787 103.804 144.92C103.544 145.047 103.257 145.11 102.944 145.11C102.524 145.11 102.151 145.007 101.824 144.8C101.504 144.593 101.251 144.297 101.064 143.91C100.884 143.523 100.794 143.067 100.794 142.54C100.794 142.007 100.884 141.55 101.064 141.17C101.251 140.783 101.504 140.487 101.824 140.28C102.151 140.073 102.524 139.97 102.944 139.97C103.277 139.97 103.581 140.043 103.854 140.19C104.127 140.33 104.327 140.52 104.454 140.76V140.08H106.194V146.8H104.414ZM103.514 143.8C103.781 143.8 104.001 143.7 104.174 143.5C104.347 143.3 104.434 142.98 104.434 142.54C104.434 142.093 104.347 141.773 104.174 141.58C104.001 141.38 103.781 141.28 103.514 141.28C103.241 141.28 103.017 141.38 102.844 141.58C102.671 141.773 102.584 142.093 102.584 142.54C102.584 142.98 102.671 143.3 102.844 143.5C103.017 143.7 103.241 143.8 103.514 143.8ZM109.065 145.11C108.425 145.11 107.952 144.937 107.645 144.59C107.345 144.237 107.195 143.7 107.195 142.98V140.08H108.975V143.03C108.975 143.51 109.182 143.75 109.595 143.75C109.835 143.75 110.032 143.663 110.185 143.49C110.338 143.317 110.415 143.087 110.415 142.8V140.08H112.195V145H110.455V144.39C110.135 144.87 109.672 145.11 109.065 145.11ZM115.911 145.11C115.311 145.11 114.791 145.007 114.351 144.8C113.918 144.587 113.584 144.287 113.351 143.9C113.118 143.513 113.001 143.057 113.001 142.53C113.001 142.03 113.111 141.587 113.331 141.2C113.558 140.813 113.864 140.513 114.251 140.3C114.644 140.08 115.091 139.97 115.591 139.97C116.084 139.97 116.511 140.073 116.871 140.28C117.238 140.487 117.518 140.783 117.711 141.17C117.911 141.55 118.011 141.997 118.011 142.51V142.9H114.701C114.761 143.22 114.894 143.45 115.101 143.59C115.308 143.73 115.594 143.8 115.961 143.8C116.214 143.8 116.478 143.763 116.751 143.69C117.031 143.61 117.278 143.497 117.491 143.35L117.931 144.52C117.678 144.7 117.368 144.843 117.001 144.95C116.634 145.057 116.271 145.11 115.911 145.11ZM115.671 141.12C115.404 141.12 115.184 141.2 115.011 141.36C114.844 141.52 114.738 141.753 114.691 142.06H116.551C116.531 141.747 116.444 141.513 116.291 141.36C116.144 141.2 115.938 141.12 115.671 141.12ZM121.639 145V137.95H123.419V140.69C123.772 140.21 124.286 139.97 124.959 139.97C125.546 139.97 125.979 140.143 126.259 140.49C126.546 140.837 126.689 141.37 126.689 142.09V145H124.909V142.16C124.909 141.86 124.856 141.647 124.749 141.52C124.649 141.393 124.499 141.33 124.299 141.33C124.032 141.33 123.819 141.417 123.659 141.59C123.499 141.757 123.419 141.983 123.419 142.27V145H121.639ZM129.414 145.11C129.034 145.11 128.697 145.04 128.404 144.9C128.117 144.76 127.89 144.57 127.724 144.33C127.564 144.083 127.484 143.803 127.484 143.49C127.484 143.137 127.577 142.857 127.764 142.65C127.95 142.437 128.25 142.287 128.664 142.2C129.077 142.107 129.627 142.06 130.314 142.06H130.694V141.92C130.694 141.68 130.63 141.51 130.504 141.41C130.384 141.31 130.174 141.26 129.874 141.26C129.62 141.26 129.34 141.3 129.034 141.38C128.727 141.46 128.427 141.583 128.134 141.75L127.684 140.58C127.85 140.46 128.064 140.353 128.324 140.26C128.584 140.167 128.857 140.097 129.144 140.05C129.43 139.997 129.7 139.97 129.954 139.97C130.774 139.97 131.38 140.147 131.774 140.5C132.174 140.853 132.374 141.41 132.374 142.17V145H130.714V144.3C130.627 144.553 130.47 144.753 130.244 144.9C130.017 145.04 129.74 145.11 129.414 145.11ZM129.814 143.95C130.06 143.95 130.267 143.87 130.434 143.71C130.607 143.55 130.694 143.34 130.694 143.08V142.9H130.314C129.92 142.9 129.63 142.943 129.444 143.03C129.264 143.11 129.174 143.24 129.174 143.42C129.174 143.573 129.227 143.7 129.334 143.8C129.447 143.9 129.607 143.95 129.814 143.95ZM133.387 145V140.08H135.117V140.91C135.344 140.343 135.834 140.033 136.587 139.98L137.077 139.94L137.177 141.44L136.207 141.53C135.854 141.563 135.597 141.663 135.437 141.83C135.277 141.99 135.197 142.23 135.197 142.55V145H133.387ZM139.384 145.11C139.004 145.11 138.668 145.04 138.374 144.9C138.088 144.76 137.861 144.57 137.694 144.33C137.534 144.083 137.454 143.803 137.454 143.49C137.454 143.137 137.548 142.857 137.734 142.65C137.921 142.437 138.221 142.287 138.634 142.2C139.048 142.107 139.598 142.06 140.284 142.06H140.664V141.92C140.664 141.68 140.601 141.51 140.474 141.41C140.354 141.31 140.144 141.26 139.844 141.26C139.591 141.26 139.311 141.3 139.004 141.38C138.698 141.46 138.398 141.583 138.104 141.75L137.654 140.58C137.821 140.46 138.034 140.353 138.294 140.26C138.554 140.167 138.828 140.097 139.114 140.05C139.401 139.997 139.671 139.97 139.924 139.97C140.744 139.97 141.351 140.147 141.744 140.5C142.144 140.853 142.344 141.41 142.344 142.17V145H140.684V144.3C140.598 144.553 140.441 144.753 140.214 144.9C139.988 145.04 139.711 145.11 139.384 145.11ZM139.784 143.95C140.031 143.95 140.238 143.87 140.404 143.71C140.578 143.55 140.664 143.34 140.664 143.08V142.9H140.284C139.891 142.9 139.601 142.943 139.414 143.03C139.234 143.11 139.144 143.24 139.144 143.42C139.144 143.573 139.198 143.7 139.304 143.8C139.418 143.9 139.578 143.95 139.784 143.95ZM139.464 139.43L140.474 137.38H142.144L140.604 139.43H139.464ZM145.318 145.11C144.865 145.11 144.445 145.063 144.058 144.97C143.678 144.877 143.355 144.747 143.088 144.58L143.498 143.43C143.745 143.57 144.031 143.687 144.358 143.78C144.685 143.867 145.008 143.91 145.328 143.91C145.575 143.91 145.751 143.877 145.858 143.81C145.965 143.737 146.018 143.643 146.018 143.53C146.018 143.43 145.981 143.357 145.908 143.31C145.841 143.257 145.745 143.217 145.618 143.19L144.508 143.01C144.095 142.943 143.775 142.793 143.548 142.56C143.321 142.327 143.208 142.023 143.208 141.65C143.208 141.303 143.305 141.007 143.498 140.76C143.691 140.507 143.961 140.313 144.308 140.18C144.655 140.04 145.051 139.97 145.498 139.97C145.851 139.97 146.201 140.013 146.548 140.1C146.895 140.18 147.198 140.313 147.458 140.5L147.018 141.63C146.825 141.497 146.585 141.387 146.298 141.3C146.011 141.207 145.755 141.16 145.528 141.16C145.255 141.16 145.061 141.2 144.948 141.28C144.835 141.353 144.778 141.443 144.778 141.55C144.778 141.73 144.901 141.84 145.148 141.88L146.258 142.07C146.685 142.137 147.011 142.283 147.238 142.51C147.471 142.73 147.588 143.03 147.588 143.41C147.588 143.95 147.381 144.37 146.968 144.67C146.555 144.963 146.005 145.11 145.318 145.11ZM148.18 145V143.18H150.03V145H148.18Z" fill="#363636"/>
<path d="M24.64 117V109.95H26.48V115.47H29.62V117H24.64ZM32.8108 117.11C32.2641 117.11 31.7874 117.007 31.3808 116.8C30.9741 116.593 30.6574 116.297 30.4308 115.91C30.2041 115.523 30.0908 115.067 30.0908 114.54C30.0908 114.007 30.2041 113.55 30.4308 113.17C30.6574 112.783 30.9741 112.487 31.3808 112.28C31.7874 112.073 32.2641 111.97 32.8108 111.97C33.3574 111.97 33.8341 112.073 34.2408 112.28C34.6474 112.487 34.9608 112.783 35.1808 113.17C35.4074 113.55 35.5208 114.007 35.5208 114.54C35.5208 115.067 35.4074 115.523 35.1808 115.91C34.9608 116.297 34.6474 116.593 34.2408 116.8C33.8341 117.007 33.3574 117.11 32.8108 117.11ZM32.8108 115.8C33.0774 115.8 33.2974 115.7 33.4708 115.5C33.6441 115.3 33.7308 114.98 33.7308 114.54C33.7308 114.093 33.6441 113.773 33.4708 113.58C33.2974 113.38 33.0774 113.28 32.8108 113.28C32.5374 113.28 32.3141 113.38 32.1408 113.58C31.9674 113.773 31.8808 114.093 31.8808 114.54C31.8808 114.98 31.9674 115.3 32.1408 115.5C32.3141 115.7 32.5374 115.8 32.8108 115.8ZM42.5877 118.8V116.4C42.4477 116.613 42.2444 116.787 41.9777 116.92C41.7177 117.047 41.4311 117.11 41.1177 117.11C40.6977 117.11 40.3244 117.007 39.9977 116.8C39.6777 116.593 39.4244 116.297 39.2377 115.91C39.0577 115.523 38.9677 115.067 38.9677 114.54C38.9677 114.007 39.0577 113.55 39.2377 113.17C39.4244 112.783 39.6777 112.487 39.9977 112.28C40.3244 112.073 40.6977 111.97 41.1177 111.97C41.4511 111.97 41.7544 112.043 42.0277 112.19C42.3011 112.33 42.5011 112.52 42.6277 112.76V112.08H44.3677V118.8H42.5877ZM41.6877 115.8C41.9544 115.8 42.1744 115.7 42.3477 115.5C42.5211 115.3 42.6077 114.98 42.6077 114.54C42.6077 114.093 42.5211 113.773 42.3477 113.58C42.1744 113.38 41.9544 113.28 41.6877 113.28C41.4144 113.28 41.1911 113.38 41.0177 113.58C40.8444 113.773 40.7577 114.093 40.7577 114.54C40.7577 114.98 40.8444 115.3 41.0177 115.5C41.1911 115.7 41.4144 115.8 41.6877 115.8ZM47.2389 117.11C46.5989 117.11 46.1256 116.937 45.8189 116.59C45.5189 116.237 45.3689 115.7 45.3689 114.98V112.08H47.1489V115.03C47.1489 115.51 47.3556 115.75 47.7689 115.75C48.0089 115.75 48.2056 115.663 48.3589 115.49C48.5122 115.317 48.5889 115.087 48.5889 114.8V112.08H50.3689V117H48.6289V116.39C48.3089 116.87 47.8456 117.11 47.2389 117.11ZM54.0848 117.11C53.4848 117.11 52.9648 117.007 52.5248 116.8C52.0914 116.587 51.7581 116.287 51.5248 115.9C51.2914 115.513 51.1748 115.057 51.1748 114.53C51.1748 114.03 51.2848 113.587 51.5048 113.2C51.7314 112.813 52.0381 112.513 52.4248 112.3C52.8181 112.08 53.2648 111.97 53.7648 111.97C54.2581 111.97 54.6848 112.073 55.0448 112.28C55.4114 112.487 55.6914 112.783 55.8848 113.17C56.0848 113.55 56.1848 113.997 56.1848 114.51V114.9H52.8748C52.9348 115.22 53.0681 115.45 53.2748 115.59C53.4814 115.73 53.7681 115.8 54.1348 115.8C54.3881 115.8 54.6514 115.763 54.9248 115.69C55.2048 115.61 55.4514 115.497 55.6648 115.35L56.1048 116.52C55.8514 116.7 55.5414 116.843 55.1748 116.95C54.8081 117.057 54.4448 117.11 54.0848 117.11ZM53.8448 113.12C53.5781 113.12 53.3581 113.2 53.1848 113.36C53.0181 113.52 52.9114 113.753 52.8648 114.06H54.7248C54.7048 113.747 54.6181 113.513 54.4648 113.36C54.3181 113.2 54.1114 113.12 53.8448 113.12ZM59.813 117V109.95H61.593V112.69C61.9463 112.21 62.4596 111.97 63.133 111.97C63.7196 111.97 64.153 112.143 64.433 112.49C64.7196 112.837 64.863 113.37 64.863 114.09V117H63.083V114.16C63.083 113.86 63.0296 113.647 62.923 113.52C62.823 113.393 62.673 113.33 62.473 113.33C62.2063 113.33 61.993 113.417 61.833 113.59C61.673 113.757 61.593 113.983 61.593 114.27V117H59.813ZM67.5874 117.11C67.2074 117.11 66.8708 117.04 66.5774 116.9C66.2908 116.76 66.0641 116.57 65.8974 116.33C65.7374 116.083 65.6574 115.803 65.6574 115.49C65.6574 115.137 65.7508 114.857 65.9374 114.65C66.1241 114.437 66.4241 114.287 66.8374 114.2C67.2508 114.107 67.8008 114.06 68.4874 114.06H68.8674V113.92C68.8674 113.68 68.8041 113.51 68.6774 113.41C68.5574 113.31 68.3474 113.26 68.0474 113.26C67.7941 113.26 67.5141 113.3 67.2074 113.38C66.9008 113.46 66.6008 113.583 66.3074 113.75L65.8574 112.58C66.0241 112.46 66.2374 112.353 66.4974 112.26C66.7574 112.167 67.0308 112.097 67.3174 112.05C67.6041 111.997 67.8741 111.97 68.1274 111.97C68.9474 111.97 69.5541 112.147 69.9474 112.5C70.3474 112.853 70.5474 113.41 70.5474 114.17V117H68.8874V116.3C68.8008 116.553 68.6441 116.753 68.4174 116.9C68.1908 117.04 67.9141 117.11 67.5874 117.11ZM67.9874 115.95C68.2341 115.95 68.4408 115.87 68.6074 115.71C68.7808 115.55 68.8674 115.34 68.8674 115.08V114.9H68.4874C68.0941 114.9 67.8041 114.943 67.6174 115.03C67.4374 115.11 67.3474 115.24 67.3474 115.42C67.3474 115.573 67.4008 115.7 67.5074 115.8C67.6208 115.9 67.7808 115.95 67.9874 115.95ZM74.071 117.11C73.5177 117.11 73.0343 117.007 72.621 116.8C72.2143 116.593 71.8977 116.297 71.671 115.91C71.4443 115.523 71.331 115.063 71.331 114.53C71.331 113.997 71.4443 113.54 71.671 113.16C71.8977 112.773 72.2143 112.48 72.621 112.28C73.0343 112.073 73.5177 111.97 74.071 111.97C74.3977 111.97 74.721 112.017 75.041 112.11C75.3677 112.197 75.6343 112.32 75.841 112.48L75.371 113.7C75.2177 113.58 75.0377 113.487 74.831 113.42C74.631 113.347 74.441 113.31 74.261 113.31C73.9077 113.31 73.6343 113.417 73.441 113.63C73.2477 113.843 73.151 114.143 73.151 114.53C73.151 114.923 73.2477 115.23 73.441 115.45C73.6343 115.663 73.9077 115.77 74.261 115.77C74.441 115.77 74.631 115.737 74.831 115.67C75.0377 115.597 75.2177 115.5 75.371 115.38L75.841 116.6C75.6343 116.76 75.3677 116.887 75.041 116.98C74.7143 117.067 74.391 117.11 74.071 117.11ZM78.9871 117.11C78.3871 117.11 77.8671 117.007 77.4271 116.8C76.9938 116.587 76.6604 116.287 76.4271 115.9C76.1938 115.513 76.0771 115.057 76.0771 114.53C76.0771 114.03 76.1871 113.587 76.4071 113.2C76.6338 112.813 76.9404 112.513 77.3271 112.3C77.7204 112.08 78.1671 111.97 78.6671 111.97C79.1604 111.97 79.5871 112.073 79.9471 112.28C80.3138 112.487 80.5938 112.783 80.7871 113.17C80.9871 113.55 81.0871 113.997 81.0871 114.51V114.9H77.7771C77.8371 115.22 77.9704 115.45 78.1771 115.59C78.3838 115.73 78.6704 115.8 79.0371 115.8C79.2904 115.8 79.5538 115.763 79.8271 115.69C80.1071 115.61 80.3538 115.497 80.5671 115.35L81.0071 116.52C80.7538 116.7 80.4438 116.843 80.0771 116.95C79.7104 117.057 79.3471 117.11 78.9871 117.11ZM78.7471 113.12C78.4804 113.12 78.2604 113.2 78.0871 113.36C77.9204 113.52 77.8138 113.753 77.7671 114.06H79.6271C79.6071 113.747 79.5204 113.513 79.3671 113.36C79.2204 113.2 79.0138 113.12 78.7471 113.12ZM83.814 117.11C83.3607 117.11 82.9407 117.063 82.554 116.97C82.174 116.877 81.8507 116.747 81.584 116.58L81.994 115.43C82.2407 115.57 82.5273 115.687 82.854 115.78C83.1807 115.867 83.504 115.91 83.824 115.91C84.0707 115.91 84.2473 115.877 84.354 115.81C84.4607 115.737 84.514 115.643 84.514 115.53C84.514 115.43 84.4773 115.357 84.404 115.31C84.3373 115.257 84.2407 115.217 84.114 115.19L83.004 115.01C82.5907 114.943 82.2707 114.793 82.044 114.56C81.8173 114.327 81.704 114.023 81.704 113.65C81.704 113.303 81.8007 113.007 81.994 112.76C82.1873 112.507 82.4573 112.313 82.804 112.18C83.1507 112.04 83.5473 111.97 83.994 111.97C84.3473 111.97 84.6973 112.013 85.044 112.1C85.3907 112.18 85.694 112.313 85.954 112.5L85.514 113.63C85.3207 113.497 85.0807 113.387 84.794 113.3C84.5073 113.207 84.2507 113.16 84.024 113.16C83.7507 113.16 83.5573 113.2 83.444 113.28C83.3307 113.353 83.274 113.443 83.274 113.55C83.274 113.73 83.3973 113.84 83.644 113.88L84.754 114.07C85.1807 114.137 85.5073 114.283 85.734 114.51C85.9673 114.73 86.084 115.03 86.084 115.41C86.084 115.95 85.8773 116.37 85.464 116.67C85.0507 116.963 84.5007 117.11 83.814 117.11ZM86.6761 117V115.18H88.5261V117H86.6761Z" fill="#363636"/>
<rect y="100" width="17" height="17" rx="2.5" fill="#8446FF"/>
<rect x="0.5" y="128.5" width="16" height="16" rx="2" stroke="#8446FF"/>
<rect width="17" height="17" rx="2.5" fill="#8446FF"/>
<rect x="0.5" y="25.5" width="16" height="16" rx="2" stroke="#8446FF"/>
<rect x="0.5" y="50.5" width="16" height="16" rx="2" stroke="#8446FF"/>
<rect x="75.5" y="0.5" width="16" height="16" rx="2" stroke="#8446FF"/>
<rect x="75.5" y="25.5" width="16" height="16" rx="2" stroke="#8446FF"/>
<rect x="75.5" y="50.5" width="16" height="16" rx="2" stroke="#8446FF"/>
<rect x="150.5" y="0.5" width="16" height="16" rx="2" stroke="#8446FF"/>
<rect x="150.5" y="25.5" width="16" height="16" rx="2" stroke="#8446FF"/>
<rect x="150.5" y="50.5" width="16" height="16" rx="2" stroke="#8446FF"/>
<rect x="225.5" y="0.5" width="16" height="16" rx="2" stroke="#8446FF"/>
<rect x="225.5" y="25.5" width="16" height="16" rx="2" stroke="#8446FF"/>
<rect x="225.5" y="50.5" width="16" height="16" rx="2" stroke="#8446FF"/>
<rect x="25" width="17" height="17" rx="2.5" fill="#8446FF"/>
<rect x="25.5" y="25.5" width="16" height="16" rx="2" stroke="#8446FF"/>
<rect x="25.5" y="50.5" width="16" height="16" rx="2" stroke="#8446FF"/>
<rect x="100.5" y="0.5" width="16" height="16" rx="2" stroke="#8446FF"/>
<rect x="100.5" y="25.5" width="16" height="16" rx="2" stroke="#8446FF"/>
<rect x="100.5" y="50.5" width="16" height="16" rx="2" stroke="#8446FF"/>
<rect x="175.5" y="0.5" width="16" height="16" rx="2" stroke="#8446FF"/>
<rect x="175.5" y="25.5" width="16" height="16" rx="2" stroke="#8446FF"/>
<rect x="175.5" y="50.5" width="16" height="16" rx="2" stroke="#8446FF"/>
<rect x="250.5" y="0.5" width="16" height="16" rx="2" stroke="#8446FF"/>
<rect x="250.5" y="25.5" width="16" height="16" rx="2" stroke="#8446FF"/>
<rect x="250.5" y="50.5" width="16" height="16" rx="2" stroke="#8446FF"/>
<rect x="50" width="17" height="17" rx="2.5" fill="#8446FF"/>
<rect x="50.5" y="25.5" width="16" height="16" rx="2" stroke="#8446FF"/>
<rect x="50.5" y="50.5" width="16" height="16" rx="2" stroke="#8446FF"/>
<rect x="125.5" y="0.5" width="16" height="16" rx="2" stroke="#8446FF"/>
<rect x="125.5" y="25.5" width="16" height="16" rx="2" stroke="#8446FF"/>
<rect x="125.5" y="50.5" width="16" height="16" rx="2" stroke="#8446FF"/>
<rect x="200.5" y="0.5" width="16" height="16" rx="2" stroke="#8446FF"/>
<rect x="200.5" y="25.5" width="16" height="16" rx="2" stroke="#8446FF"/>
<rect x="200.5" y="50.5" width="16" height="16" rx="2" stroke="#8446FF"/>
<rect x="275.5" y="0.5" width="16" height="16" rx="2" stroke="#8446FF"/>
<rect x="275.5" y="25.5" width="16" height="16" rx="2" stroke="#8446FF"/>
<rect x="275.5" y="50.5" width="16" height="16" rx="2" stroke="#8446FF"/>
</svg>
