<svg width="273" height="222" viewBox="0 0 273 222" fill="none" xmlns="http://www.w3.org/2000/svg">
<path d="M1 3.5C0.723858 3.5 0.5 3.72386 0.5 4C0.5 4.27614 0.723858 4.5 1 4.5V3.5ZM25.3536 4.35355C25.5488 4.15829 25.5488 3.84171 25.3536 3.64645L22.1716 0.464466C21.9763 0.269204 21.6597 0.269204 21.4645 0.464466C21.2692 0.659728 21.2692 0.976311 21.4645 1.17157L24.2929 4L21.4645 6.82843C21.2692 7.02369 21.2692 7.34027 21.4645 7.53553C21.6597 7.7308 21.9763 7.7308 22.1716 7.53553L25.3536 4.35355ZM1 4.5H25V3.5H1V4.5Z" fill="#8446FF"/>
<path d="M42 3.5C41.7239 3.5 41.5 3.72386 41.5 4C41.5 4.27614 41.7239 4.5 42 4.5V3.5ZM66.3536 4.35355C66.5488 4.15829 66.5488 3.84171 66.3536 3.64645L63.1716 0.464466C62.9763 0.269204 62.6597 0.269204 62.4645 0.464466C62.2692 0.659728 62.2692 0.976311 62.4645 1.17157L65.2929 4L62.4645 6.82843C62.2692 7.02369 62.2692 7.34027 62.4645 7.53553C62.6597 7.7308 62.9763 7.7308 63.1716 7.53553L66.3536 4.35355ZM42 4.5H66V3.5H42V4.5Z" fill="#8446FF"/>
<path d="M83 3.5C82.7239 3.5 82.5 3.72386 82.5 4C82.5 4.27614 82.7239 4.5 83 4.5V3.5ZM107.354 4.35355C107.549 4.15829 107.549 3.84171 107.354 3.64645L104.172 0.464466C103.976 0.269204 103.66 0.269204 103.464 0.464466C103.269 0.659728 103.269 0.976311 103.464 1.17157L106.293 4L103.464 6.82843C103.269 7.02369 103.269 7.34027 103.464 7.53553C103.66 7.7308 103.976 7.7308 104.172 7.53553L107.354 4.35355ZM83 4.5H107V3.5H83V4.5Z" fill="#8446FF"/>
<path d="M124 3.5C123.724 3.5 123.5 3.72386 123.5 4C123.5 4.27614 123.724 4.5 124 4.5V3.5ZM148.354 4.35355C148.549 4.15829 148.549 3.84171 148.354 3.64645L145.172 0.464466C144.976 0.269204 144.66 0.269204 144.464 0.464466C144.269 0.659728 144.269 0.976311 144.464 1.17157L147.293 4L144.464 6.82843C144.269 7.02369 144.269 7.34027 144.464 7.53553C144.66 7.7308 144.976 7.7308 145.172 7.53553L148.354 4.35355ZM124 4.5H148V3.5H124V4.5Z" fill="#8446FF"/>
<path d="M165 3.5C164.724 3.5 164.5 3.72386 164.5 4C164.5 4.27614 164.724 4.5 165 4.5V3.5ZM189.354 4.35355C189.549 4.15829 189.549 3.84171 189.354 3.64645L186.172 0.464466C185.976 0.269204 185.66 0.269204 185.464 0.464466C185.269 0.659728 185.269 0.976311 185.464 1.17157L188.293 4L185.464 6.82843C185.269 7.02369 185.269 7.34027 185.464 7.53553C185.66 7.7308 185.976 7.7308 186.172 7.53553L189.354 4.35355ZM165 4.5H189V3.5H165V4.5Z" fill="#8446FF"/>
<path d="M206 3.5C205.724 3.5 205.5 3.72386 205.5 4C205.5 4.27614 205.724 4.5 206 4.5V3.5ZM230.354 4.35355C230.549 4.15829 230.549 3.84171 230.354 3.64645L227.172 0.464466C226.976 0.269204 226.66 0.269204 226.464 0.464466C226.269 0.659728 226.269 0.976311 226.464 1.17157L229.293 4L226.464 6.82843C226.269 7.02369 226.269 7.34027 226.464 7.53553C226.66 7.7308 226.976 7.7308 227.172 7.53553L230.354 4.35355ZM206 4.5H230V3.5H206V4.5Z" fill="#8446FF"/>
<path d="M247 3.5C246.724 3.5 246.5 3.72386 246.5 4C246.5 4.27614 246.724 4.5 247 4.5V3.5ZM271.354 4.35355C271.549 4.15829 271.549 3.84171 271.354 3.64645L268.172 0.464466C267.976 0.269204 267.66 0.269204 267.464 0.464466C267.269 0.659728 267.269 0.976311 267.464 1.17157L270.293 4L267.464 6.82843C267.269 7.02369 267.269 7.34027 267.464 7.53553C267.66 7.7308 267.976 7.7308 268.172 7.53553L271.354 4.35355ZM247 4.5H271V3.5H247V4.5Z" fill="#8446FF"/>
<path d="M1.08948 21.456C0.814385 21.4319 0.571868 21.6354 0.547801 21.9105C0.523734 22.1856 0.727229 22.4281 1.00232 22.4522L1.08948 21.456ZM25.276 24.4289C25.4875 24.2514 25.5151 23.936 25.3376 23.7244L22.4451 20.2772C22.2675 20.0657 21.9522 20.0381 21.7406 20.2156C21.5291 20.3931 21.5015 20.7085 21.679 20.92L24.2502 23.9842L21.186 26.5554C20.9744 26.7329 20.9468 27.0482 21.1243 27.2598C21.3019 27.4713 21.6172 27.4989 21.8288 27.3214L25.276 24.4289ZM1.00232 22.4522L24.911 24.5439L24.9981 23.5477L1.08948 21.456L1.00232 22.4522Z" fill="#8446FF"/>
<path d="M1.14088 40.8799C0.867421 40.8414 0.614587 41.032 0.576155 41.3054C0.537723 41.5789 0.728248 41.8317 1.0017 41.8701L1.14088 40.8799ZM25.1386 45.1145C25.3592 44.9483 25.4032 44.6348 25.237 44.4142L22.5289 40.8204C22.3627 40.5998 22.0492 40.5558 21.8286 40.722C21.6081 40.8882 21.5641 41.2017 21.7302 41.4222L24.1375 44.6167L20.943 47.024C20.7224 47.1902 20.6784 47.5037 20.8445 47.7242C21.0107 47.9448 21.3242 47.9888 21.5448 47.8226L25.1386 45.1145ZM1.0017 41.8701L24.7681 45.2103L24.9073 44.22L1.14088 40.8799L1.0017 41.8701Z" fill="#8446FF"/>
<path d="M2.36071 61.2815C2.09277 61.2146 1.8214 61.3777 1.7546 61.6456C1.68779 61.9136 1.85085 62.1849 2.11879 62.2517L2.36071 61.2815ZM25.7844 68.0013C26.0211 67.8591 26.0977 67.5519 25.9554 67.3152L23.6378 63.458C23.4955 63.2213 23.1884 63.1447 22.9517 63.2869C22.715 63.4291 22.6384 63.7363 22.7806 63.973L24.8407 67.4017L21.4121 69.4618C21.1754 69.604 21.0988 69.9112 21.241 70.1479C21.3832 70.3846 21.6904 70.4612 21.9271 70.319L25.7844 68.0013ZM2.11879 62.2517L25.4059 68.0579L25.6478 67.0876L2.36071 61.2815L2.11879 62.2517Z" fill="#8446FF"/>
<path d="M1.5382 83.329C1.27871 83.2345 0.991787 83.3683 0.897341 83.6278C0.802895 83.8873 0.936688 84.1742 1.19618 84.2687L1.5382 83.329ZM24.1311 92.4605C24.3814 92.3438 24.4897 92.0463 24.373 91.796L22.4712 87.7176C22.3545 87.4673 22.057 87.3591 21.8067 87.4758C21.5564 87.5925 21.4482 87.89 21.5649 88.1402L23.2553 91.7655L19.6301 93.4559C19.3798 93.5726 19.2716 93.8701 19.3883 94.1204C19.505 94.3707 19.8025 94.479 20.0527 94.3622L24.1311 92.4605ZM1.19618 84.2687L23.7488 92.4772L24.0908 91.5375L1.5382 83.329L1.19618 84.2687Z" fill="#8446FF"/>
<path d="M2.13379 106.671C1.89464 106.533 1.58885 106.615 1.45078 106.854C1.31271 107.094 1.39464 107.399 1.63379 107.538L2.13379 106.671ZM22.7978 119.587C23.0645 119.516 23.2228 119.242 23.1514 118.975L21.9867 114.628C21.9152 114.362 21.641 114.203 21.3743 114.275C21.1076 114.346 20.9493 114.621 21.0207 114.887L22.056 118.751L18.1923 119.786C17.9256 119.858 17.7673 120.132 17.8388 120.399C17.9102 120.665 18.1844 120.824 18.4511 120.752L22.7978 119.587ZM1.63379 107.538L22.4184 119.538L22.9184 118.671L2.13379 106.671L1.63379 107.538Z" fill="#8446FF"/>
<path d="M2.26029 133.161C2.06503 132.966 1.74845 132.966 1.55318 133.161C1.35792 133.356 1.35792 133.673 1.55318 133.868L2.26029 133.161ZM18.8773 150.985C19.1534 150.985 19.3773 150.761 19.3773 150.485L19.3773 145.985C19.3773 145.709 19.1534 145.485 18.8773 145.485C18.6012 145.485 18.3773 145.709 18.3773 145.985L18.3773 149.985L14.3773 149.985C14.1012 149.985 13.8773 150.209 13.8773 150.485C13.8773 150.761 14.1012 150.985 14.3773 150.985L18.8773 150.985ZM1.55318 133.868L18.5237 150.839L19.2309 150.132L2.26029 133.161L1.55318 133.868Z" fill="#8446FF"/>
<path d="M3.91836 162.843C3.78029 162.604 3.4745 162.522 3.23535 162.66C2.99621 162.798 2.91427 163.104 3.05234 163.343L3.91836 162.843ZM15.3559 184.36C15.6227 184.432 15.8968 184.274 15.9683 184.007L17.133 179.66C17.2045 179.393 17.0462 179.119 16.7794 179.048C16.5127 178.976 16.2385 179.135 16.1671 179.401L15.1318 183.265L11.2681 182.23C11.0014 182.158 10.7272 182.317 10.6557 182.583C10.5843 182.85 10.7425 183.124 11.0093 183.196L15.3559 184.36ZM3.05234 163.343L15.0523 184.127L15.9184 183.627L3.91836 162.843L3.05234 163.343Z" fill="#8446FF"/>
<path d="M12.4522 197.394C12.4281 197.119 12.1856 196.915 11.9105 196.939C11.6354 196.963 11.4319 197.206 11.456 197.481L12.4522 197.394ZM13.7244 221.729C13.936 221.907 14.2514 221.879 14.4289 221.668L17.3214 218.22C17.4989 218.009 17.4713 217.693 17.2598 217.516C17.0482 217.338 16.7329 217.366 16.5554 217.578L13.9842 220.642L10.92 218.071C10.7085 217.893 10.3931 217.921 10.2156 218.132C10.0381 218.344 10.0657 218.659 10.2772 218.837L13.7244 221.729ZM11.456 197.481L13.5477 221.39L14.5439 221.303L12.4522 197.394L11.456 197.481Z" fill="#8446FF"/>
<path d="M42.0895 21.456C41.8144 21.4319 41.5719 21.6354 41.5478 21.9105C41.5237 22.1856 41.7272 22.4281 42.0023 22.4522L42.0895 21.456ZM66.276 24.4289C66.4875 24.2514 66.5151 23.936 66.3376 23.7244L63.4451 20.2772C63.2675 20.0657 62.9522 20.0381 62.7406 20.2156C62.5291 20.3931 62.5015 20.7085 62.679 20.92L65.2502 23.9842L62.186 26.5554C61.9744 26.7329 61.9468 27.0482 62.1243 27.2598C62.3019 27.4713 62.6172 27.4989 62.8288 27.3214L66.276 24.4289ZM42.0023 22.4522L65.911 24.5439L65.9981 23.5477L42.0895 21.456L42.0023 22.4522Z" fill="#8446FF"/>
<path d="M42.1409 40.8799C41.8674 40.8414 41.6146 41.032 41.5762 41.3054C41.5377 41.5789 41.7282 41.8317 42.0017 41.8701L42.1409 40.8799ZM66.1386 45.1145C66.3592 44.9483 66.4032 44.6348 66.237 44.4142L63.5289 40.8204C63.3627 40.5998 63.0492 40.5558 62.8286 40.722C62.6081 40.8882 62.5641 41.2017 62.7302 41.4222L65.1375 44.6167L61.943 47.024C61.7224 47.1902 61.6784 47.5037 61.8445 47.7242C62.0107 47.9448 62.3242 47.9888 62.5448 47.8226L66.1386 45.1145ZM42.0017 41.8701L65.7681 45.2103L65.9073 44.22L42.1409 40.8799L42.0017 41.8701Z" fill="#8446FF"/>
<path d="M43.3607 61.2815C43.0928 61.2146 42.8214 61.3777 42.7546 61.6456C42.6878 61.9136 42.8508 62.1849 43.1188 62.2517L43.3607 61.2815ZM66.7844 68.0013C67.0211 67.8591 67.0977 67.5519 66.9554 67.3152L64.6378 63.458C64.4955 63.2213 64.1884 63.1447 63.9517 63.2869C63.715 63.4291 63.6384 63.7363 63.7806 63.973L65.8407 67.4017L62.4121 69.4618C62.1754 69.604 62.0988 69.9112 62.241 70.1479C62.3832 70.3846 62.6904 70.4612 62.9271 70.319L66.7844 68.0013ZM43.1188 62.2517L66.4059 68.0579L66.6478 67.0876L43.3607 61.2815L43.1188 62.2517Z" fill="#8446FF"/>
<path d="M42.5382 83.329C42.2787 83.2345 41.9918 83.3683 41.8973 83.6278C41.8029 83.8873 41.9367 84.1742 42.1962 84.2687L42.5382 83.329ZM65.1311 92.4605C65.3814 92.3438 65.4897 92.0463 65.373 91.796L63.4712 87.7176C63.3545 87.4673 63.057 87.3591 62.8067 87.4758C62.5564 87.5925 62.4482 87.89 62.5649 88.1402L64.2553 91.7655L60.6301 93.4559C60.3798 93.5726 60.2716 93.8701 60.3883 94.1204C60.505 94.3707 60.8025 94.479 61.0527 94.3622L65.1311 92.4605ZM42.1962 84.2687L64.7488 92.4772L65.0908 91.5375L42.5382 83.329L42.1962 84.2687Z" fill="#8446FF"/>
<path d="M43.1338 106.671C42.8946 106.533 42.5888 106.615 42.4508 106.854C42.3127 107.094 42.3946 107.399 42.6338 107.538L43.1338 106.671ZM63.7978 119.587C64.0645 119.516 64.2228 119.242 64.1514 118.975L62.9867 114.628C62.9152 114.362 62.641 114.203 62.3743 114.275C62.1076 114.346 61.9493 114.621 62.0207 114.887L63.056 118.751L59.1923 119.786C58.9256 119.858 58.7673 120.132 58.8388 120.399C58.9102 120.665 59.1844 120.824 59.4511 120.752L63.7978 119.587ZM42.6338 107.538L63.4184 119.538L63.9184 118.671L43.1338 106.671L42.6338 107.538Z" fill="#8446FF"/>
<path d="M43.2603 133.161C43.065 132.966 42.7484 132.966 42.5532 133.161C42.3579 133.356 42.3579 133.673 42.5532 133.868L43.2603 133.161ZM59.8773 150.985C60.1534 150.985 60.3773 150.761 60.3773 150.485L60.3773 145.985C60.3773 145.709 60.1534 145.485 59.8773 145.485C59.6012 145.485 59.3773 145.709 59.3773 145.985L59.3773 149.985L55.3773 149.985C55.1012 149.985 54.8773 150.209 54.8773 150.485C54.8773 150.761 55.1012 150.985 55.3773 150.985L59.8773 150.985ZM42.5532 133.868L59.5237 150.839L60.2309 150.132L43.2603 133.161L42.5532 133.868Z" fill="#8446FF"/>
<path d="M44.9184 162.843C44.7803 162.604 44.4745 162.522 44.2354 162.66C43.9962 162.798 43.9143 163.104 44.0523 163.343L44.9184 162.843ZM56.3559 184.36C56.6227 184.432 56.8968 184.274 56.9683 184.007L58.133 179.66C58.2045 179.393 58.0462 179.119 57.7794 179.048C57.5127 178.976 57.2385 179.135 57.1671 179.401L56.1318 183.265L52.2681 182.23C52.0014 182.158 51.7272 182.317 51.6557 182.583C51.5843 182.85 51.7425 183.124 52.0093 183.196L56.3559 184.36ZM44.0523 163.343L56.0523 184.127L56.9184 183.627L44.9184 162.843L44.0523 163.343Z" fill="#8446FF"/>
<path d="M53.4522 197.394C53.4281 197.119 53.1856 196.915 52.9105 196.939C52.6354 196.963 52.4319 197.206 52.456 197.481L53.4522 197.394ZM54.7244 221.729C54.936 221.907 55.2514 221.879 55.4289 221.668L58.3214 218.22C58.4989 218.009 58.4713 217.693 58.2598 217.516C58.0482 217.338 57.7329 217.366 57.5554 217.578L54.9842 220.642L51.92 218.071C51.7085 217.893 51.3931 217.921 51.2156 218.132C51.0381 218.344 51.0657 218.659 51.2772 218.837L54.7244 221.729ZM52.456 197.481L54.5477 221.39L55.5439 221.303L53.4522 197.394L52.456 197.481Z" fill="#8446FF"/>
<path d="M83.0895 21.456C82.8144 21.4319 82.5719 21.6354 82.5478 21.9105C82.5237 22.1856 82.7272 22.4281 83.0023 22.4522L83.0895 21.456ZM107.276 24.4289C107.488 24.2514 107.515 23.936 107.338 23.7244L104.445 20.2772C104.268 20.0657 103.952 20.0381 103.741 20.2156C103.529 20.3931 103.502 20.7085 103.679 20.92L106.25 23.9842L103.186 26.5554C102.974 26.7329 102.947 27.0482 103.124 27.2598C103.302 27.4713 103.617 27.4989 103.829 27.3214L107.276 24.4289ZM83.0023 22.4522L106.911 24.5439L106.998 23.5477L83.0895 21.456L83.0023 22.4522Z" fill="#8446FF"/>
<path d="M83.1409 40.8799C82.8674 40.8414 82.6146 41.032 82.5762 41.3054C82.5377 41.5789 82.7282 41.8317 83.0017 41.8701L83.1409 40.8799ZM107.139 45.1145C107.359 44.9483 107.403 44.6348 107.237 44.4142L104.529 40.8204C104.363 40.5998 104.049 40.5558 103.829 40.722C103.608 40.8882 103.564 41.2017 103.73 41.4222L106.137 44.6167L102.943 47.024C102.722 47.1902 102.678 47.5037 102.845 47.7242C103.011 47.9448 103.324 47.9888 103.545 47.8226L107.139 45.1145ZM83.0017 41.8701L106.768 45.2103L106.907 44.22L83.1409 40.8799L83.0017 41.8701Z" fill="#8446FF"/>
<path d="M84.3607 61.2815C84.0928 61.2146 83.8214 61.3777 83.7546 61.6456C83.6878 61.9136 83.8508 62.1849 84.1188 62.2517L84.3607 61.2815ZM107.784 68.0013C108.021 67.8591 108.098 67.5519 107.955 67.3152L105.638 63.458C105.496 63.2213 105.188 63.1447 104.952 63.2869C104.715 63.4291 104.638 63.7363 104.781 63.973L106.841 67.4017L103.412 69.4618C103.175 69.604 103.099 69.9112 103.241 70.1479C103.383 70.3846 103.69 70.4612 103.927 70.319L107.784 68.0013ZM84.1188 62.2517L107.406 68.0579L107.648 67.0876L84.3607 61.2815L84.1188 62.2517Z" fill="#8446FF"/>
<path d="M83.5382 83.329C83.2787 83.2345 82.9918 83.3683 82.8973 83.6278C82.8029 83.8873 82.9367 84.1742 83.1962 84.2687L83.5382 83.329ZM106.131 92.4605C106.381 92.3438 106.49 92.0463 106.373 91.796L104.471 87.7176C104.354 87.4673 104.057 87.3591 103.807 87.4758C103.556 87.5925 103.448 87.89 103.565 88.1402L105.255 91.7655L101.63 93.4559C101.38 93.5726 101.272 93.8701 101.388 94.1204C101.505 94.3707 101.802 94.479 102.053 94.3622L106.131 92.4605ZM83.1962 84.2687L105.749 92.4772L106.091 91.5375L83.5382 83.329L83.1962 84.2687Z" fill="#8446FF"/>
<path d="M84.1338 106.671C83.8946 106.533 83.5888 106.615 83.4508 106.854C83.3127 107.094 83.3946 107.399 83.6338 107.538L84.1338 106.671ZM104.798 119.587C105.065 119.516 105.223 119.242 105.151 118.975L103.987 114.628C103.915 114.362 103.641 114.203 103.374 114.275C103.108 114.346 102.949 114.621 103.021 114.887L104.056 118.751L100.192 119.786C99.9256 119.858 99.7673 120.132 99.8388 120.399C99.9102 120.665 100.184 120.824 100.451 120.752L104.798 119.587ZM83.6338 107.538L104.418 119.538L104.918 118.671L84.1338 106.671L83.6338 107.538Z" fill="#8446FF"/>
<path d="M84.2603 133.161C84.065 132.966 83.7484 132.966 83.5532 133.161C83.3579 133.356 83.3579 133.673 83.5532 133.868L84.2603 133.161ZM100.877 150.985C101.153 150.985 101.377 150.761 101.377 150.485L101.377 145.985C101.377 145.709 101.153 145.485 100.877 145.485C100.601 145.485 100.377 145.709 100.377 145.985L100.377 149.985L96.3773 149.985C96.1012 149.985 95.8773 150.209 95.8773 150.485C95.8773 150.761 96.1012 150.985 96.3773 150.985L100.877 150.985ZM83.5532 133.868L100.524 150.839L101.231 150.132L84.2603 133.161L83.5532 133.868Z" fill="#8446FF"/>
<path d="M85.9184 162.843C85.7803 162.604 85.4745 162.522 85.2354 162.66C84.9962 162.798 84.9143 163.104 85.0523 163.343L85.9184 162.843ZM97.3559 184.36C97.6227 184.432 97.8968 184.274 97.9683 184.007L99.133 179.66C99.2045 179.393 99.0462 179.119 98.7794 179.048C98.5127 178.976 98.2385 179.135 98.1671 179.401L97.1318 183.265L93.2681 182.23C93.0014 182.158 92.7272 182.317 92.6557 182.583C92.5843 182.85 92.7425 183.124 93.0093 183.196L97.3559 184.36ZM85.0523 163.343L97.0523 184.127L97.9184 183.627L85.9184 162.843L85.0523 163.343Z" fill="#8446FF"/>
<path d="M94.4522 197.394C94.4281 197.119 94.1856 196.915 93.9105 196.939C93.6354 196.963 93.4319 197.206 93.456 197.481L94.4522 197.394ZM95.7244 221.729C95.936 221.907 96.2514 221.879 96.4289 221.668L99.3214 218.22C99.4989 218.009 99.4713 217.693 99.2598 217.516C99.0482 217.338 98.7329 217.366 98.5554 217.578L95.9842 220.642L92.92 218.071C92.7085 217.893 92.3931 217.921 92.2156 218.132C92.0381 218.344 92.0657 218.659 92.2772 218.837L95.7244 221.729ZM93.456 197.481L95.5477 221.39L96.5439 221.303L94.4522 197.394L93.456 197.481Z" fill="#8446FF"/>
<path d="M124.089 21.456C123.814 21.4319 123.572 21.6354 123.548 21.9105C123.524 22.1856 123.727 22.4281 124.002 22.4522L124.089 21.456ZM148.276 24.4289C148.488 24.2514 148.515 23.936 148.338 23.7244L145.445 20.2772C145.268 20.0657 144.952 20.0381 144.741 20.2156C144.529 20.3931 144.502 20.7085 144.679 20.92L147.25 23.9842L144.186 26.5554C143.974 26.7329 143.947 27.0482 144.124 27.2598C144.302 27.4713 144.617 27.4989 144.829 27.3214L148.276 24.4289ZM124.002 22.4522L147.911 24.5439L147.998 23.5477L124.089 21.456L124.002 22.4522Z" fill="#8446FF"/>
<path d="M124.141 40.8799C123.867 40.8414 123.615 41.032 123.576 41.3054C123.538 41.5789 123.728 41.8317 124.002 41.8701L124.141 40.8799ZM148.139 45.1145C148.359 44.9483 148.403 44.6348 148.237 44.4142L145.529 40.8204C145.363 40.5998 145.049 40.5558 144.829 40.722C144.608 40.8882 144.564 41.2017 144.73 41.4222L147.137 44.6167L143.943 47.024C143.722 47.1902 143.678 47.5037 143.845 47.7242C144.011 47.9448 144.324 47.9888 144.545 47.8226L148.139 45.1145ZM124.002 41.8701L147.768 45.2103L147.907 44.22L124.141 40.8799L124.002 41.8701Z" fill="#8446FF"/>
<path d="M125.361 61.2815C125.093 61.2146 124.821 61.3777 124.755 61.6456C124.688 61.9136 124.851 62.1849 125.119 62.2517L125.361 61.2815ZM148.784 68.0013C149.021 67.8591 149.098 67.5519 148.955 67.3152L146.638 63.458C146.496 63.2213 146.188 63.1447 145.952 63.2869C145.715 63.4291 145.638 63.7363 145.781 63.973L147.841 67.4017L144.412 69.4618C144.175 69.604 144.099 69.9112 144.241 70.1479C144.383 70.3846 144.69 70.4612 144.927 70.319L148.784 68.0013ZM125.119 62.2517L148.406 68.0579L148.648 67.0876L125.361 61.2815L125.119 62.2517Z" fill="#8446FF"/>
<path d="M124.538 83.329C124.279 83.2345 123.992 83.3683 123.897 83.6278C123.803 83.8873 123.937 84.1742 124.196 84.2687L124.538 83.329ZM147.131 92.4605C147.381 92.3438 147.49 92.0463 147.373 91.796L145.471 87.7176C145.354 87.4673 145.057 87.3591 144.807 87.4758C144.556 87.5925 144.448 87.89 144.565 88.1402L146.255 91.7655L142.63 93.4559C142.38 93.5726 142.272 93.8701 142.388 94.1204C142.505 94.3707 142.802 94.479 143.053 94.3622L147.131 92.4605ZM124.196 84.2687L146.749 92.4772L147.091 91.5375L124.538 83.329L124.196 84.2687Z" fill="#8446FF"/>
<path d="M125.134 106.671C124.895 106.533 124.589 106.615 124.451 106.854C124.313 107.094 124.395 107.399 124.634 107.538L125.134 106.671ZM145.798 119.587C146.065 119.516 146.223 119.242 146.151 118.975L144.987 114.628C144.915 114.362 144.641 114.203 144.374 114.275C144.108 114.346 143.949 114.621 144.021 114.887L145.056 118.751L141.192 119.786C140.926 119.858 140.767 120.132 140.839 120.399C140.91 120.665 141.184 120.824 141.451 120.752L145.798 119.587ZM124.634 107.538L145.418 119.538L145.918 118.671L125.134 106.671L124.634 107.538Z" fill="#8446FF"/>
<path d="M125.26 133.161C125.065 132.966 124.748 132.966 124.553 133.161C124.358 133.356 124.358 133.673 124.553 133.868L125.26 133.161ZM141.877 150.985C142.153 150.985 142.377 150.761 142.377 150.485L142.377 145.985C142.377 145.709 142.153 145.485 141.877 145.485C141.601 145.485 141.377 145.709 141.377 145.985L141.377 149.985L137.377 149.985C137.101 149.985 136.877 150.209 136.877 150.485C136.877 150.761 137.101 150.985 137.377 150.985L141.877 150.985ZM124.553 133.868L141.524 150.839L142.231 150.132L125.26 133.161L124.553 133.868Z" fill="#8446FF"/>
<path d="M126.918 162.843C126.78 162.604 126.474 162.522 126.235 162.66C125.996 162.798 125.914 163.104 126.052 163.343L126.918 162.843ZM138.356 184.36C138.623 184.432 138.897 184.274 138.968 184.007L140.133 179.66C140.204 179.393 140.046 179.119 139.779 179.048C139.513 178.976 139.239 179.135 139.167 179.401L138.132 183.265L134.268 182.23C134.001 182.158 133.727 182.317 133.656 182.583C133.584 182.85 133.743 183.124 134.009 183.196L138.356 184.36ZM126.052 163.343L138.052 184.127L138.918 183.627L126.918 162.843L126.052 163.343Z" fill="#8446FF"/>
<path d="M135.452 197.394C135.428 197.119 135.186 196.915 134.911 196.939C134.635 196.963 134.432 197.206 134.456 197.481L135.452 197.394ZM136.724 221.729C136.936 221.907 137.251 221.879 137.429 221.668L140.321 218.22C140.499 218.009 140.471 217.693 140.26 217.516C140.048 217.338 139.733 217.366 139.555 217.578L136.984 220.642L133.92 218.071C133.708 217.893 133.393 217.921 133.216 218.132C133.038 218.344 133.066 218.659 133.277 218.837L136.724 221.729ZM134.456 197.481L136.548 221.39L137.544 221.303L135.452 197.394L134.456 197.481Z" fill="#8446FF"/>
<path d="M165.089 21.456C164.814 21.4319 164.572 21.6354 164.548 21.9105C164.524 22.1856 164.727 22.4281 165.002 22.4522L165.089 21.456ZM189.276 24.4289C189.488 24.2514 189.515 23.936 189.338 23.7244L186.445 20.2772C186.268 20.0657 185.952 20.0381 185.741 20.2156C185.529 20.3931 185.502 20.7085 185.679 20.92L188.25 23.9842L185.186 26.5554C184.974 26.7329 184.947 27.0482 185.124 27.2598C185.302 27.4713 185.617 27.4989 185.829 27.3214L189.276 24.4289ZM165.002 22.4522L188.911 24.5439L188.998 23.5477L165.089 21.456L165.002 22.4522Z" fill="#8446FF"/>
<path d="M165.141 40.8799C164.867 40.8414 164.615 41.032 164.576 41.3054C164.538 41.5789 164.728 41.8317 165.002 41.8701L165.141 40.8799ZM189.139 45.1145C189.359 44.9483 189.403 44.6348 189.237 44.4142L186.529 40.8204C186.363 40.5998 186.049 40.5558 185.829 40.722C185.608 40.8882 185.564 41.2017 185.73 41.4222L188.137 44.6167L184.943 47.024C184.722 47.1902 184.678 47.5037 184.845 47.7242C185.011 47.9448 185.324 47.9888 185.545 47.8226L189.139 45.1145ZM165.002 41.8701L188.768 45.2103L188.907 44.22L165.141 40.8799L165.002 41.8701Z" fill="#8446FF"/>
<path d="M166.361 61.2815C166.093 61.2146 165.821 61.3777 165.755 61.6456C165.688 61.9136 165.851 62.1849 166.119 62.2517L166.361 61.2815ZM189.784 68.0013C190.021 67.8591 190.098 67.5519 189.955 67.3152L187.638 63.458C187.496 63.2213 187.188 63.1447 186.952 63.2869C186.715 63.4291 186.638 63.7363 186.781 63.973L188.841 67.4017L185.412 69.4618C185.175 69.604 185.099 69.9112 185.241 70.1479C185.383 70.3846 185.69 70.4612 185.927 70.319L189.784 68.0013ZM166.119 62.2517L189.406 68.0579L189.648 67.0876L166.361 61.2815L166.119 62.2517Z" fill="#8446FF"/>
<path d="M165.538 83.329C165.279 83.2345 164.992 83.3683 164.897 83.6278C164.803 83.8873 164.937 84.1742 165.196 84.2687L165.538 83.329ZM188.131 92.4605C188.381 92.3438 188.49 92.0463 188.373 91.796L186.471 87.7176C186.354 87.4673 186.057 87.3591 185.807 87.4758C185.556 87.5925 185.448 87.89 185.565 88.1402L187.255 91.7655L183.63 93.4559C183.38 93.5726 183.272 93.8701 183.388 94.1204C183.505 94.3707 183.802 94.479 184.053 94.3622L188.131 92.4605ZM165.196 84.2687L187.749 92.4772L188.091 91.5375L165.538 83.329L165.196 84.2687Z" fill="#8446FF"/>
<path d="M166.134 106.671C165.895 106.533 165.589 106.615 165.451 106.854C165.313 107.094 165.395 107.399 165.634 107.538L166.134 106.671ZM186.798 119.587C187.065 119.516 187.223 119.242 187.151 118.975L185.987 114.628C185.915 114.362 185.641 114.203 185.374 114.275C185.108 114.346 184.949 114.621 185.021 114.887L186.056 118.751L182.192 119.786C181.926 119.858 181.767 120.132 181.839 120.399C181.91 120.665 182.184 120.824 182.451 120.752L186.798 119.587ZM165.634 107.538L186.418 119.538L186.918 118.671L166.134 106.671L165.634 107.538Z" fill="#8446FF"/>
<path d="M166.26 133.161C166.065 132.966 165.748 132.966 165.553 133.161C165.358 133.356 165.358 133.673 165.553 133.868L166.26 133.161ZM182.877 150.985C183.153 150.985 183.377 150.761 183.377 150.485L183.377 145.985C183.377 145.709 183.153 145.485 182.877 145.485C182.601 145.485 182.377 145.709 182.377 145.985L182.377 149.985L178.377 149.985C178.101 149.985 177.877 150.209 177.877 150.485C177.877 150.761 178.101 150.985 178.377 150.985L182.877 150.985ZM165.553 133.868L182.524 150.839L183.231 150.132L166.26 133.161L165.553 133.868Z" fill="#8446FF"/>
<path d="M167.918 162.843C167.78 162.604 167.474 162.522 167.235 162.66C166.996 162.798 166.914 163.104 167.052 163.343L167.918 162.843ZM179.356 184.36C179.623 184.432 179.897 184.274 179.968 184.007L181.133 179.66C181.204 179.393 181.046 179.119 180.779 179.048C180.513 178.976 180.239 179.135 180.167 179.401L179.132 183.265L175.268 182.23C175.001 182.158 174.727 182.317 174.656 182.583C174.584 182.85 174.743 183.124 175.009 183.196L179.356 184.36ZM167.052 163.343L179.052 184.127L179.918 183.627L167.918 162.843L167.052 163.343Z" fill="#8446FF"/>
<path d="M176.452 197.394C176.428 197.119 176.186 196.915 175.911 196.939C175.635 196.963 175.432 197.206 175.456 197.481L176.452 197.394ZM177.724 221.729C177.936 221.907 178.251 221.879 178.429 221.668L181.321 218.22C181.499 218.009 181.471 217.693 181.26 217.516C181.048 217.338 180.733 217.366 180.555 217.578L177.984 220.642L174.92 218.071C174.708 217.893 174.393 217.921 174.216 218.132C174.038 218.344 174.066 218.659 174.277 218.837L177.724 221.729ZM175.456 197.481L177.548 221.39L178.544 221.303L176.452 197.394L175.456 197.481Z" fill="#8446FF"/>
<path d="M206.089 21.456C205.814 21.4319 205.572 21.6354 205.548 21.9105C205.524 22.1856 205.727 22.4281 206.002 22.4522L206.089 21.456ZM230.276 24.4289C230.488 24.2514 230.515 23.936 230.338 23.7244L227.445 20.2772C227.268 20.0657 226.952 20.0381 226.741 20.2156C226.529 20.3931 226.502 20.7085 226.679 20.92L229.25 23.9842L226.186 26.5554C225.974 26.7329 225.947 27.0482 226.124 27.2598C226.302 27.4713 226.617 27.4989 226.829 27.3214L230.276 24.4289ZM206.002 22.4522L229.911 24.5439L229.998 23.5477L206.089 21.456L206.002 22.4522Z" fill="#8446FF"/>
<path d="M206.141 40.8799C205.867 40.8414 205.615 41.032 205.576 41.3054C205.538 41.5789 205.728 41.8317 206.002 41.8701L206.141 40.8799ZM230.139 45.1145C230.359 44.9483 230.403 44.6348 230.237 44.4142L227.529 40.8204C227.363 40.5998 227.049 40.5558 226.829 40.722C226.608 40.8882 226.564 41.2017 226.73 41.4222L229.137 44.6167L225.943 47.024C225.722 47.1902 225.678 47.5037 225.845 47.7242C226.011 47.9448 226.324 47.9888 226.545 47.8226L230.139 45.1145ZM206.002 41.8701L229.768 45.2103L229.907 44.22L206.141 40.8799L206.002 41.8701Z" fill="#8446FF"/>
<path d="M207.361 61.2815C207.093 61.2146 206.821 61.3777 206.755 61.6456C206.688 61.9136 206.851 62.1849 207.119 62.2517L207.361 61.2815ZM230.784 68.0013C231.021 67.8591 231.098 67.5519 230.955 67.3152L228.638 63.458C228.496 63.2213 228.188 63.1447 227.952 63.2869C227.715 63.4291 227.638 63.7363 227.781 63.973L229.841 67.4017L226.412 69.4618C226.175 69.604 226.099 69.9112 226.241 70.1479C226.383 70.3846 226.69 70.4612 226.927 70.319L230.784 68.0013ZM207.119 62.2517L230.406 68.0579L230.648 67.0876L207.361 61.2815L207.119 62.2517Z" fill="#8446FF"/>
<path d="M206.538 83.329C206.279 83.2345 205.992 83.3683 205.897 83.6278C205.803 83.8873 205.937 84.1742 206.196 84.2687L206.538 83.329ZM229.131 92.4605C229.381 92.3438 229.49 92.0463 229.373 91.796L227.471 87.7176C227.354 87.4673 227.057 87.3591 226.807 87.4758C226.556 87.5925 226.448 87.89 226.565 88.1402L228.255 91.7655L224.63 93.4559C224.38 93.5726 224.272 93.8701 224.388 94.1204C224.505 94.3707 224.802 94.479 225.053 94.3622L229.131 92.4605ZM206.196 84.2687L228.749 92.4772L229.091 91.5375L206.538 83.329L206.196 84.2687Z" fill="#8446FF"/>
<path d="M207.134 106.671C206.895 106.533 206.589 106.615 206.451 106.854C206.313 107.094 206.395 107.399 206.634 107.538L207.134 106.671ZM227.798 119.587C228.065 119.516 228.223 119.242 228.151 118.975L226.987 114.628C226.915 114.362 226.641 114.203 226.374 114.275C226.108 114.346 225.949 114.621 226.021 114.887L227.056 118.751L223.192 119.786C222.926 119.858 222.767 120.132 222.839 120.399C222.91 120.665 223.184 120.824 223.451 120.752L227.798 119.587ZM206.634 107.538L227.418 119.538L227.918 118.671L207.134 106.671L206.634 107.538Z" fill="#8446FF"/>
<path d="M207.26 133.161C207.065 132.966 206.748 132.966 206.553 133.161C206.358 133.356 206.358 133.673 206.553 133.868L207.26 133.161ZM223.877 150.985C224.153 150.985 224.377 150.761 224.377 150.485L224.377 145.985C224.377 145.709 224.153 145.485 223.877 145.485C223.601 145.485 223.377 145.709 223.377 145.985L223.377 149.985L219.377 149.985C219.101 149.985 218.877 150.209 218.877 150.485C218.877 150.761 219.101 150.985 219.377 150.985L223.877 150.985ZM206.553 133.868L223.524 150.839L224.231 150.132L207.26 133.161L206.553 133.868Z" fill="#8446FF"/>
<path d="M208.918 162.843C208.78 162.604 208.474 162.522 208.235 162.66C207.996 162.798 207.914 163.104 208.052 163.343L208.918 162.843ZM220.356 184.36C220.623 184.432 220.897 184.274 220.968 184.007L222.133 179.66C222.204 179.393 222.046 179.119 221.779 179.048C221.513 178.976 221.239 179.135 221.167 179.401L220.132 183.265L216.268 182.23C216.001 182.158 215.727 182.317 215.656 182.583C215.584 182.85 215.743 183.124 216.009 183.196L220.356 184.36ZM208.052 163.343L220.052 184.127L220.918 183.627L208.918 162.843L208.052 163.343Z" fill="#8446FF"/>
<path d="M217.452 197.394C217.428 197.119 217.186 196.915 216.911 196.939C216.635 196.963 216.432 197.206 216.456 197.481L217.452 197.394ZM218.724 221.729C218.936 221.907 219.251 221.879 219.429 221.668L222.321 218.22C222.499 218.009 222.471 217.693 222.26 217.516C222.048 217.338 221.733 217.366 221.555 217.578L218.984 220.642L215.92 218.071C215.708 217.893 215.393 217.921 215.216 218.132C215.038 218.344 215.066 218.659 215.277 218.837L218.724 221.729ZM216.456 197.481L218.548 221.39L219.544 221.303L217.452 197.394L216.456 197.481Z" fill="#8446FF"/>
<path d="M247.089 21.456C246.814 21.4319 246.572 21.6354 246.548 21.9105C246.524 22.1856 246.727 22.4281 247.002 22.4522L247.089 21.456ZM271.276 24.4289C271.488 24.2514 271.515 23.936 271.338 23.7244L268.445 20.2772C268.268 20.0657 267.952 20.0381 267.741 20.2156C267.529 20.3931 267.502 20.7085 267.679 20.92L270.25 23.9842L267.186 26.5554C266.974 26.7329 266.947 27.0482 267.124 27.2598C267.302 27.4713 267.617 27.4989 267.829 27.3214L271.276 24.4289ZM247.002 22.4522L270.911 24.5439L270.998 23.5477L247.089 21.456L247.002 22.4522Z" fill="#8446FF"/>
<path d="M247.141 40.8799C246.867 40.8414 246.615 41.032 246.576 41.3054C246.538 41.5789 246.728 41.8317 247.002 41.8701L247.141 40.8799ZM271.139 45.1145C271.359 44.9483 271.403 44.6348 271.237 44.4142L268.529 40.8204C268.363 40.5998 268.049 40.5558 267.829 40.722C267.608 40.8882 267.564 41.2017 267.73 41.4222L270.137 44.6167L266.943 47.024C266.722 47.1902 266.678 47.5037 266.845 47.7242C267.011 47.9448 267.324 47.9888 267.545 47.8226L271.139 45.1145ZM247.002 41.8701L270.768 45.2103L270.907 44.22L247.141 40.8799L247.002 41.8701Z" fill="#8446FF"/>
<path d="M248.361 61.2815C248.093 61.2146 247.821 61.3777 247.755 61.6456C247.688 61.9136 247.851 62.1849 248.119 62.2517L248.361 61.2815ZM271.784 68.0013C272.021 67.8591 272.098 67.5519 271.955 67.3152L269.638 63.458C269.496 63.2213 269.188 63.1447 268.952 63.2869C268.715 63.4291 268.638 63.7363 268.781 63.973L270.841 67.4017L267.412 69.4618C267.175 69.604 267.099 69.9112 267.241 70.1479C267.383 70.3846 267.69 70.4612 267.927 70.319L271.784 68.0013ZM248.119 62.2517L271.406 68.0579L271.648 67.0876L248.361 61.2815L248.119 62.2517Z" fill="#8446FF"/>
<path d="M247.538 83.329C247.279 83.2345 246.992 83.3683 246.897 83.6278C246.803 83.8873 246.937 84.1742 247.196 84.2687L247.538 83.329ZM270.131 92.4605C270.381 92.3438 270.49 92.0463 270.373 91.796L268.471 87.7176C268.354 87.4673 268.057 87.3591 267.807 87.4758C267.556 87.5925 267.448 87.89 267.565 88.1402L269.255 91.7655L265.63 93.4559C265.38 93.5726 265.272 93.8701 265.388 94.1204C265.505 94.3707 265.802 94.479 266.053 94.3622L270.131 92.4605ZM247.196 84.2687L269.749 92.4772L270.091 91.5375L247.538 83.329L247.196 84.2687Z" fill="#8446FF"/>
<path d="M248.134 106.671C247.895 106.533 247.589 106.615 247.451 106.854C247.313 107.094 247.395 107.399 247.634 107.538L248.134 106.671ZM268.798 119.587C269.065 119.516 269.223 119.242 269.151 118.975L267.987 114.628C267.915 114.362 267.641 114.203 267.374 114.275C267.108 114.346 266.949 114.621 267.021 114.887L268.056 118.751L264.192 119.786C263.926 119.858 263.767 120.132 263.839 120.399C263.91 120.665 264.184 120.824 264.451 120.752L268.798 119.587ZM247.634 107.538L268.418 119.538L268.918 118.671L248.134 106.671L247.634 107.538Z" fill="#8446FF"/>
<path d="M248.26 133.161C248.065 132.966 247.748 132.966 247.553 133.161C247.358 133.356 247.358 133.673 247.553 133.868L248.26 133.161ZM264.877 150.985C265.153 150.985 265.377 150.761 265.377 150.485L265.377 145.985C265.377 145.709 265.153 145.485 264.877 145.485C264.601 145.485 264.377 145.709 264.377 145.985L264.377 149.985L260.377 149.985C260.101 149.985 259.877 150.209 259.877 150.485C259.877 150.761 260.101 150.985 260.377 150.985L264.877 150.985ZM247.553 133.868L264.524 150.839L265.231 150.132L248.26 133.161L247.553 133.868Z" fill="#8446FF"/>
<path d="M249.918 162.843C249.78 162.604 249.474 162.522 249.235 162.66C248.996 162.798 248.914 163.104 249.052 163.343L249.918 162.843ZM261.356 184.36C261.623 184.432 261.897 184.274 261.968 184.007L263.133 179.66C263.204 179.393 263.046 179.119 262.779 179.048C262.513 178.976 262.239 179.135 262.167 179.401L261.132 183.265L257.268 182.23C257.001 182.158 256.727 182.317 256.656 182.583C256.584 182.85 256.743 183.124 257.009 183.196L261.356 184.36ZM249.052 163.343L261.052 184.127L261.918 183.627L249.918 162.843L249.052 163.343Z" fill="#8446FF"/>
<path d="M258.452 197.394C258.428 197.119 258.186 196.915 257.911 196.939C257.635 196.963 257.432 197.206 257.456 197.481L258.452 197.394ZM259.724 221.729C259.936 221.907 260.251 221.879 260.429 221.668L263.321 218.22C263.499 218.009 263.471 217.693 263.26 217.516C263.048 217.338 262.733 217.366 262.555 217.578L259.984 220.642L256.92 218.071C256.708 217.893 256.393 217.921 256.216 218.132C256.038 218.344 256.066 218.659 256.277 218.837L259.724 221.729ZM257.456 197.481L259.548 221.39L260.544 221.303L258.452 197.394L257.456 197.481Z" fill="#8446FF"/>
</svg>
