<svg width="236" height="98" viewBox="0 0 236 98" fill="none" xmlns="http://www.w3.org/2000/svg">
<rect x="217" y="9" width="12" height="88" rx="2.5" fill="#8446FF"/>
<rect x="236" y="97" width="1.00001" height="236" rx="0.500005" transform="rotate(90 236 97)" fill="#979797"/>
<rect x="197" y="17" width="12" height="80" rx="2.5" fill="#8446FF"/>
<rect x="177" y="28" width="12" height="69" rx="2.5" fill="#8446FF"/>
<rect x="126.103" y="37" width="12" height="58" rx="2.5" transform="rotate(8.03019 126.103 37)" fill="#8446FF"/>
<rect x="114.351" y="41" width="12" height="54.8185" rx="2.5" transform="rotate(24.0625 114.351 41)" fill="#8446FF"/>
<rect x="98.563" y="48" width="12" height="55.0034" rx="2.5" transform="rotate(43.0724 98.563 48)" fill="#8446FF"/>
<rect x="68.939" y="63" width="12" height="45.6918" rx="2.5" transform="rotate(60.9381 68.939 63)" fill="#8446FF"/>
<rect x="28.8916" y="68" width="12" height="28.7439" rx="2.5" transform="rotate(46.6201 28.8916 68)" fill="#8446FF"/>
<path d="M92.032 13V8.056H90.032V7.36H94.856V8.056H92.856V13H92.032ZM95.3866 8.192V7.352H96.3306V8.192H95.3866ZM95.4586 13V9.096H96.2666V13H95.4586ZM99.2359 13.072C98.5959 13.072 98.0919 12.8933 97.7239 12.536C97.3559 12.1733 97.1719 11.68 97.1719 11.056C97.1719 10.656 97.2519 10.304 97.4119 10C97.5773 9.69067 97.8039 9.45067 98.0919 9.28C98.3799 9.10933 98.7106 9.024 99.0839 9.024C99.6226 9.024 100.047 9.19733 100.356 9.544C100.665 9.88533 100.82 10.3573 100.82 10.96V11.232H97.9559C98.0146 12.0427 98.4439 12.448 99.2439 12.448C99.4679 12.448 99.6866 12.4133 99.8999 12.344C100.119 12.2747 100.324 12.16 100.516 12L100.756 12.56C100.58 12.72 100.353 12.8453 100.076 12.936C99.7986 13.0267 99.5186 13.072 99.2359 13.072ZM99.1159 9.592C98.7799 9.592 98.5133 9.696 98.3159 9.904C98.1186 10.112 97.9986 10.3893 97.9559 10.736H100.14C100.124 10.3733 100.028 10.0933 99.8519 9.896C99.6759 9.69333 99.4306 9.592 99.1159 9.592ZM101.717 13V9.096H102.501V9.728C102.618 9.504 102.781 9.33067 102.989 9.208C103.197 9.08533 103.439 9.024 103.717 9.024C104.314 9.024 104.701 9.28533 104.877 9.808C104.999 9.56267 105.175 9.37067 105.405 9.232C105.634 9.09333 105.895 9.024 106.189 9.024C107.063 9.024 107.501 9.54667 107.501 10.592V13H106.693V10.632C106.693 10.3013 106.634 10.0587 106.517 9.904C106.405 9.74933 106.218 9.672 105.957 9.672C105.663 9.672 105.431 9.776 105.261 9.984C105.09 10.1867 105.005 10.464 105.005 10.816V13H104.197V10.632C104.197 10.3013 104.141 10.0587 104.029 9.904C103.917 9.74933 103.73 9.672 103.469 9.672C103.175 9.672 102.943 9.776 102.773 9.984C102.607 10.1867 102.525 10.464 102.525 10.816V13H101.717ZM108.631 14.44V9.096H109.423V9.76C109.535 9.536 109.705 9.35733 109.935 9.224C110.164 9.09067 110.428 9.024 110.727 9.024C111.073 9.024 111.375 9.10667 111.631 9.272C111.892 9.43733 112.092 9.672 112.231 9.976C112.375 10.2747 112.447 10.632 112.447 11.048C112.447 11.464 112.375 11.824 112.231 12.128C112.092 12.432 111.892 12.6667 111.631 12.832C111.375 12.992 111.073 13.072 110.727 13.072C110.439 13.072 110.18 13.0107 109.951 12.888C109.727 12.76 109.556 12.5867 109.439 12.368V14.44H108.631ZM110.527 12.448C110.863 12.448 111.129 12.328 111.327 12.088C111.529 11.848 111.631 11.5013 111.631 11.048C111.631 10.5947 111.529 10.2507 111.327 10.016C111.129 9.776 110.863 9.656 110.527 9.656C110.191 9.656 109.921 9.776 109.719 10.016C109.521 10.2507 109.423 10.5947 109.423 11.048C109.423 11.5013 109.521 11.848 109.719 12.088C109.921 12.328 110.191 12.448 110.527 12.448ZM115.053 13.072C114.658 13.072 114.317 12.9893 114.029 12.824C113.741 12.6587 113.517 12.4267 113.357 12.128C113.202 11.824 113.125 11.464 113.125 11.048C113.125 10.632 113.202 10.2747 113.357 9.976C113.517 9.672 113.741 9.43733 114.029 9.272C114.317 9.10667 114.658 9.024 115.053 9.024C115.437 9.024 115.773 9.10667 116.061 9.272C116.349 9.43733 116.573 9.672 116.733 9.976C116.893 10.2747 116.973 10.632 116.973 11.048C116.973 11.464 116.893 11.824 116.733 12.128C116.573 12.4267 116.349 12.6587 116.061 12.824C115.773 12.9893 115.437 13.072 115.053 13.072ZM115.053 12.448C115.384 12.448 115.65 12.328 115.853 12.088C116.056 11.848 116.157 11.5013 116.157 11.048C116.157 10.5947 116.056 10.2507 115.853 10.016C115.65 9.776 115.384 9.656 115.053 9.656C114.717 9.656 114.448 9.776 114.245 10.016C114.042 10.2507 113.941 10.5947 113.941 11.048C113.941 11.5013 114.042 11.848 114.245 12.088C114.448 12.328 114.717 12.448 115.053 12.448ZM121.814 13.072C121.174 13.072 120.67 12.8933 120.302 12.536C119.934 12.1733 119.75 11.68 119.75 11.056C119.75 10.656 119.83 10.304 119.99 10C120.155 9.69067 120.382 9.45067 120.67 9.28C120.958 9.10933 121.289 9.024 121.662 9.024C122.201 9.024 122.625 9.19733 122.934 9.544C123.243 9.88533 123.398 10.3573 123.398 10.96V11.232H120.534C120.593 12.0427 121.022 12.448 121.822 12.448C122.046 12.448 122.265 12.4133 122.478 12.344C122.697 12.2747 122.902 12.16 123.094 12L123.334 12.56C123.158 12.72 122.931 12.8453 122.654 12.936C122.377 13.0267 122.097 13.072 121.814 13.072ZM121.694 9.592C121.358 9.592 121.091 9.696 120.894 9.904C120.697 10.112 120.577 10.3893 120.534 10.736H122.718C122.702 10.3733 122.606 10.0933 122.43 9.896C122.254 9.69333 122.009 9.592 121.694 9.592ZM123.728 13L125.352 10.984L123.832 9.096H124.776L125.824 10.432L126.872 9.096H127.816L126.288 10.992L127.92 13H126.96L125.816 11.56L124.68 13H123.728ZM130.185 13.072C129.694 13.072 129.329 12.9467 129.089 12.696C128.849 12.4453 128.729 12.0827 128.729 11.608V9.72H127.969V9.096H128.729V7.92H129.537V9.096H130.745V9.72H129.537V11.544C129.537 11.8267 129.596 12.04 129.713 12.184C129.836 12.328 130.033 12.4 130.305 12.4C130.39 12.4 130.473 12.392 130.553 12.376C130.633 12.3547 130.713 12.3307 130.793 12.304L130.921 12.912C130.841 12.96 130.729 12.9973 130.585 13.024C130.446 13.056 130.313 13.072 130.185 13.072ZM131.443 13V9.096H132.227V9.792C132.43 9.328 132.851 9.06933 133.491 9.016L133.755 9L133.811 9.688L133.323 9.736C132.614 9.80533 132.259 10.1707 132.259 10.832V13H131.443ZM135.636 13.072C135.364 13.072 135.122 13.0187 134.908 12.912C134.695 12.8053 134.524 12.6613 134.396 12.48C134.274 12.2987 134.212 12.0933 134.212 11.864C134.212 11.576 134.284 11.3493 134.428 11.184C134.578 11.0187 134.82 10.8987 135.156 10.824C135.498 10.7493 135.956 10.712 136.532 10.712H136.804V10.504C136.804 10.2 136.74 9.98133 136.612 9.848C136.484 9.71467 136.274 9.648 135.98 9.648C135.756 9.648 135.532 9.68267 135.308 9.752C135.084 9.816 134.855 9.92 134.62 10.064L134.372 9.496C134.575 9.352 134.828 9.23733 135.132 9.152C135.436 9.06667 135.727 9.024 136.004 9.024C136.538 9.024 136.932 9.152 137.188 9.408C137.444 9.65867 137.572 10.0533 137.572 10.592V13H136.812V12.352C136.716 12.576 136.567 12.752 136.364 12.88C136.162 13.008 135.919 13.072 135.636 13.072ZM135.796 12.496C136.084 12.496 136.324 12.3947 136.516 12.192C136.708 11.9893 136.804 11.7333 136.804 11.424V11.208H136.54C136.151 11.208 135.844 11.2267 135.62 11.264C135.402 11.3013 135.244 11.3653 135.148 11.456C135.058 11.5413 135.012 11.6613 135.012 11.816C135.012 12.0187 135.082 12.184 135.22 12.312C135.359 12.4347 135.551 12.496 135.796 12.496Z" fill="#979797"/>
<mask id="mask0_1758_16" style="mask-type:luminance" maskUnits="userSpaceOnUse" x="119" y="0" width="67" height="79">
<path d="M147.407 9.41251e-05L119 60.7939L157.416 78.7448L185.824 17.9509L147.407 9.41251e-05Z" fill="white"/>
</mask>
<g mask="url(#mask0_1758_16)">
<path d="M142.905 17.4657C142.905 17.4657 161.409 28.0495 158.043 54.467" stroke="#363636" stroke-linecap="round" stroke-linejoin="round"/>
<path d="M152.645 51.754L158.112 56.4821L162.343 50.9254" stroke="#363636" stroke-linecap="round" stroke-linejoin="round"/>
</g>
</svg>
