<svg width="54" height="52" viewBox="0 0 54 52" fill="none" xmlns="http://www.w3.org/2000/svg">
<path d="M53.6377 48.7497C49.8106 42.0847 43.6848 37.0823 36.4347 34.7016C39.9099 32.6124 42.6104 29.4276 44.1215 25.6363C45.6326 21.845 45.8707 17.657 44.7991 13.7157C43.7275 9.77437 41.4056 6.29773 38.19 3.81987C34.9745 1.34201 31.0432 0 27 0C22.9568 0 19.0255 1.34201 15.8099 3.81987C12.5944 6.29773 10.2725 9.77437 9.20089 13.7157C8.12932 17.657 8.36737 21.845 9.87847 25.6363C11.3896 29.4276 14.0901 32.6124 17.5653 34.7016C10.3152 37.0823 4.18936 42.0847 0.362315 48.7497C0.201796 48.9851 0.091175 49.2516 0.037405 49.5323C-0.0163651 49.813 -0.0121226 50.1019 0.0498657 50.3809C0.111854 50.6599 0.230249 50.9229 0.39761 51.1534C0.56497 51.3839 0.77768 51.577 1.02237 51.7204C1.26707 51.8638 1.53845 51.9545 1.81948 51.9867C2.10051 52.019 2.38511 51.9922 2.65539 51.9079C2.92566 51.8237 3.17578 51.6838 3.39003 51.4972C3.60428 51.3105 3.77802 51.081 3.90033 50.8232C6.24461 46.728 9.61291 43.3279 13.6673 40.9642C17.7218 38.6005 22.3197 37.3563 27 37.3563C31.6803 37.3563 36.2782 38.6005 40.3327 40.9642C44.3871 43.3279 47.7554 46.728 50.0997 50.8232C50.222 51.081 50.3957 51.3105 50.61 51.4972C50.8242 51.6838 51.0743 51.8237 51.3446 51.9079C51.6149 51.9922 51.8995 52.019 52.1805 51.9867C52.4615 51.9545 52.7329 51.8638 52.9776 51.7204C53.2223 51.577 53.435 51.3839 53.6024 51.1534C53.7697 50.9229 53.8881 50.6599 53.9501 50.3809C54.0121 50.1019 54.0164 49.813 53.9626 49.5323C53.9088 49.2516 53.7982 48.9851 53.6377 48.7497ZM12.6428 18.6837C12.6428 15.813 13.4849 13.0067 15.0624 10.6198C16.64 8.23289 18.8823 6.37252 21.5057 5.27394C24.1292 4.17536 27.0159 3.88792 29.8009 4.44797C32.586 5.00802 35.1442 6.39041 37.1521 8.42031C39.1599 10.4502 40.5273 13.0365 41.0813 15.852C41.6353 18.6676 41.351 21.586 40.2643 24.2382C39.1776 26.8904 37.3374 29.1573 34.9764 30.7522C32.6154 32.347 29.8396 33.1983 27 33.1983C23.1922 33.1983 19.5404 31.6691 16.8479 28.9471C14.1555 26.2251 12.6428 22.5332 12.6428 18.6837Z" fill="#9A4FCB"/>
</svg>
