<svg width="149" height="166" viewBox="0 0 149 166" fill="none" xmlns="http://www.w3.org/2000/svg">
<g opacity="0.1" clip-path="url(#clip0_1135_1034)">
<mask id="mask0_1135_1034" style="mask-type:luminance" maskUnits="userSpaceOnUse" x="-32" y="-12" width="181" height="182">
<path d="M149 -12H-32V170H149V-12Z" fill="white"/>
</mask>
<g mask="url(#mask0_1135_1034)">
<path d="M120.951 126.617C119.256 136.124 107.973 155.743 87.8492 168.265C87.8492 168.265 46.5842 168.635 0.0520801 168.265C-27.6258 146.34 -20.6121 115.885 -20.6121 115.885C-20.235 102.053 -6.88927 92.9351 2.77311 92.7012C5.12612 92.6439 7.37353 92.3979 9.51536 91.9945C10.0312 91.9007 10.544 91.7943 11.0478 91.682C11.5365 91.5731 12.0192 91.4545 12.4988 91.3271C13.1987 91.1424 13.8835 90.9422 14.5592 90.7238C22.4146 88.2243 28.7134 83.7074 33.7965 79.2545C48.189 66.6482 66.9678 22.3525 94.6457 29.9843C95.2158 30.1421 95.7769 30.321 96.332 30.5273C96.878 30.7272 97.418 30.952 97.952 31.1943L98.7272 31.7707L106.908 37.8495C107.038 37.9863 107.165 38.1228 107.292 38.2623C107.91 38.9327 108.516 39.6394 109.108 40.3702C125.923 61.1882 124.487 106.779 120.951 126.617Z" fill="#B9E8FF"/>
<path d="M-11.3087 124.607C-11.3087 124.607 1.34141 121.511 0.856672 115.728C0.371937 109.945 -4.59675 112.552 -5.22446 114.77C-5.85186 116.987 -5.84841 120.939 -6.71096 121.229C-7.57352 121.519 -10.2609 117.913 -13.0404 118.419C-15.82 118.925 -18.0213 122.397 -16.0072 123.551C-13.993 124.706 -12.5033 124.94 -11.3087 124.607Z" fill="#8446FF"/>
<path d="M23.7486 165.696C23.6746 165.761 23.6003 165.829 23.5263 165.892H15.2432C4.21876 156.304 -12.1597 137.024 -17.3971 130.76C-17.4752 130.209 -17.5125 129.909 -17.5125 129.909C41.1386 125.597 23.7486 165.696 23.7486 165.696Z" fill="#CEB5FF"/>
<path d="M15.2432 165.892H-5.16396C-13.5666 154.844 -16.7791 135.083 -17.3971 130.76C-12.1597 137.024 4.21876 156.304 15.2432 165.892Z" fill="#6E9AF3"/>
<path d="M59.1202 165.589C59.192 165.69 59.2638 165.795 59.3356 165.892H67.3469C78.0098 151.066 93.8515 121.251 98.9167 111.566C98.9923 110.714 99.0283 110.249 99.0283 110.249C42.3006 103.581 59.1202 165.589 59.1202 165.589Z" fill="#CEB5FF"/>
<path d="M67.3469 165.892H87.0849C95.2119 148.808 98.3194 118.25 98.9167 111.566C93.8515 121.251 78.0098 151.065 67.3469 165.892Z" fill="#6E9AF3"/>
<path d="M45.1607 165.893H25.3226C25.1097 165.439 24.8965 164.985 24.6864 164.528C24.677 164.509 24.6676 164.487 24.6582 164.468C24.3666 163.835 24.075 163.198 23.7897 162.558C23.6361 162.211 23.4824 161.864 23.3319 161.517C23.31 161.47 23.288 161.42 23.2692 161.372C23.0717 160.921 22.8773 160.467 22.6829 160.016C22.476 159.531 22.2722 159.049 22.0684 158.56C21.8771 158.103 21.689 157.643 21.5009 157.182C21.4758 157.119 21.4476 157.05 21.4193 156.983C21.2626 156.593 21.1058 156.202 20.9522 155.811C20.9114 155.719 20.8769 155.631 20.8421 155.536C20.6574 155.076 20.4787 154.616 20.3 154.152C20.1087 153.661 19.9175 153.168 19.7325 152.673C19.6729 152.519 19.6133 152.365 19.5569 152.21C19.397 151.791 19.2434 151.371 19.0866 150.949C18.9518 150.577 18.8138 150.205 18.679 149.83C18.5442 149.458 18.4093 149.083 18.2776 148.711C18.1522 148.363 18.03 148.017 17.9108 147.67C17.776 147.285 17.6408 146.904 17.5095 146.523C17.3778 146.138 17.2461 145.754 17.1144 145.372C17.0987 145.318 17.0796 145.265 17.0611 145.211C16.8918 144.713 16.7256 144.212 16.5626 143.713C16.3964 143.212 16.2334 142.714 16.0703 142.213C15.948 141.838 15.8289 141.462 15.7097 141.087C15.5687 140.649 15.4307 140.214 15.2959 139.776C15.0795 139.088 14.8695 138.401 14.6622 137.714C14.512 137.216 14.3615 136.718 14.2142 136.22C14.0793 135.765 13.9442 135.311 13.8128 134.857C13.6561 134.318 13.4993 133.779 13.3488 133.24C13.2359 132.846 13.123 132.452 13.0161 132.061C12.8252 131.387 12.6402 130.715 12.4583 130.043C12.2106 129.135 11.9692 128.231 11.734 127.329C11.2198 125.377 10.7338 123.442 10.2726 121.531C10.0974 120.815 9.92804 120.103 9.765 119.394C9.65213 118.924 9.54239 118.451 9.43578 117.981C9.32918 117.518 9.22258 117.057 9.11911 116.6C9.06894 116.383 9.02191 116.168 8.97488 115.95C8.89336 115.588 8.81184 115.226 8.73345 114.866C8.65507 114.516 8.57982 114.166 8.50457 113.816C8.42618 113.459 8.34779 113.103 8.27255 112.747C7.95587 111.268 7.65487 109.816 7.36955 108.39C7.32878 108.186 7.28803 107.981 7.24727 107.779C7.16574 107.372 7.08736 106.971 7.00897 106.571C6.8522 105.773 6.7017 104.982 6.55434 104.204C6.48222 103.813 6.41011 103.428 6.338 103.043C6.30037 102.851 6.26588 102.659 6.23139 102.47C6.0903 101.707 5.95547 100.953 5.82379 100.215C5.72345 99.6508 5.62626 99.0893 5.52906 98.541C5.47262 98.2131 5.41932 97.8887 5.36288 97.5668C5.29077 97.1317 5.21552 96.6995 5.14654 96.2742C5.09637 95.9841 5.04934 95.6972 5.00231 95.41C4.97409 95.2398 4.94587 95.0733 4.92079 94.9031C4.89257 94.736 4.86404 94.5657 4.83927 94.3983C4.80164 94.1685 4.76402 93.9408 4.72953 93.7142C4.57276 92.74 4.42853 91.797 4.29057 90.8862C4.26862 90.7569 4.24981 90.6308 4.231 90.505C4.20591 90.3347 4.18083 90.1677 4.15575 89.9974V89.9876C4.13066 89.8209 4.10558 89.6566 4.08018 89.493C4.07109 89.4236 4.06168 89.3539 4.05228 89.288C3.9833 88.8246 3.91746 88.3703 3.85475 87.9292C3.83593 87.7873 3.81399 87.6483 3.79517 87.5099C3.77636 87.3709 3.75755 87.2356 3.73874 87.1C3.70425 86.8601 3.66976 86.6237 3.6384 86.3907C3.63527 86.3588 3.629 86.3276 3.62586 86.2958C3.56002 85.8169 3.49731 85.35 3.43774 84.9023C3.41265 84.7166 3.38757 84.5369 3.36562 84.3603C3.33113 84.1015 3.29633 83.8464 3.26529 83.6002C4.64487 84.1393 5.98056 84.7065 7.27548 85.2995C8.59863 85.9014 9.87474 86.5322 11.1132 87.188C54.4478 110.118 45.7658 162.538 45.1607 165.893Z" fill="#80B6FB"/>
<path d="M25.3226 165.893C25.1094 165.439 24.8962 164.985 24.6861 164.528C24.6767 164.509 24.6673 164.487 24.6579 164.468C24.3663 163.834 24.0747 163.197 23.7894 162.557C23.6357 162.21 23.4821 161.864 23.3316 161.517C23.3097 161.47 23.2877 161.419 23.2689 161.372C23.0714 160.921 22.877 160.467 22.6826 160.016C22.4756 159.53 22.2718 159.048 22.068 158.559C21.8768 158.103 21.6887 157.642 21.5005 157.182C21.4754 157.119 21.4472 157.049 21.419 156.983C21.2622 156.592 21.1055 156.201 20.9518 155.81C20.9111 155.719 20.8766 155.631 20.8421 155.536C20.6571 155.076 20.4784 154.615 20.2997 154.152C20.1084 153.66 19.9171 153.168 19.7322 152.673C19.6726 152.519 19.613 152.365 19.5566 152.21C19.3967 151.791 19.243 151.371 19.0863 150.949C18.9514 150.577 18.8135 150.205 18.6787 149.83C18.5438 149.458 18.409 149.083 18.2773 148.711C18.1519 148.363 18.0296 148.017 17.9105 147.67C17.7757 147.285 17.6408 146.904 17.5091 146.523C17.3775 146.138 17.2458 145.753 17.1141 145.372C17.0984 145.318 17.0796 145.264 17.0608 145.211C16.8915 144.713 16.7253 144.211 16.5622 143.713C16.3961 143.212 16.233 142.714 16.07 142.213C15.9477 141.838 15.8286 141.462 15.7094 141.087C15.5683 140.649 15.4304 140.214 15.2955 139.776C15.0792 139.088 14.8691 138.401 14.6622 137.714C14.5117 137.216 14.3612 136.717 14.2138 136.219C14.079 135.765 13.9442 135.311 13.8125 134.857C13.6557 134.318 13.499 133.779 13.3485 133.24C13.2356 132.846 13.1227 132.452 13.0161 132.061C12.8248 131.386 12.6398 130.715 12.458 130.043C12.2103 129.135 11.9689 128.23 11.7337 127.329C11.2195 125.377 10.7335 123.441 10.2726 121.531C10.097 120.815 9.92771 120.103 9.76467 119.393C9.6518 118.923 9.54206 118.451 9.43545 117.98C9.32885 117.517 9.22224 117.057 9.11878 116.6C9.06861 116.382 9.02158 116.168 8.97455 115.95C8.89303 115.588 8.81151 115.225 8.73312 114.866C8.65473 114.516 8.57949 114.166 8.50424 113.816C8.42585 113.459 8.34746 113.103 8.27221 112.747C7.95554 111.268 7.65454 109.815 7.36921 108.39C7.32845 108.185 7.28769 107.98 7.24693 107.779C7.16541 107.372 7.08703 106.971 7.00864 106.571C6.85187 105.773 6.70137 104.982 6.55401 104.203C6.48189 103.812 6.40978 103.428 6.33766 103.043C6.30004 102.851 6.26555 102.658 6.23106 102.469C6.08997 101.706 5.95514 100.953 5.82346 100.215C5.72312 99.6508 5.62593 99.0893 5.52873 98.541C5.47229 98.2131 5.41899 97.8884 5.36255 97.5665C5.29044 97.1314 5.21519 96.6995 5.14621 96.2742C5.09604 95.9841 5.04901 95.6972 5.00198 95.41C4.97376 95.2398 4.94554 95.073 4.92046 94.9027C4.89224 94.7357 4.86402 94.5654 4.83894 94.398C4.80131 94.1682 4.76369 93.938 4.7292 93.7142C4.57243 92.74 4.4282 91.797 4.29024 90.8862C4.24321 90.5866 4.19931 90.2903 4.15542 89.9971V89.9873C4.12093 89.7509 4.08644 89.5179 4.05195 89.2877C3.98297 88.8243 3.91712 88.37 3.85442 87.9289C3.8356 87.787 3.81366 87.648 3.79484 87.5096C3.77603 87.3705 3.75722 87.2353 3.73841 87.0997C3.70392 86.8598 3.66943 86.6233 3.63807 86.3904C3.63494 86.3585 3.62867 86.3273 3.62553 86.2955C3.55969 85.8166 3.49698 85.3496 3.43741 84.902C3.41232 84.7163 3.38724 84.5365 3.36529 84.36C3.3308 84.1012 3.29631 83.8461 3.26496 83.5999C3.02353 83.5025 2.77897 83.4079 2.53754 83.3164C2.53754 83.3164 2.3306 84.5113 2.03274 86.6205C1.95122 87.2164 1.86029 87.8816 1.76309 88.6162C-0.35331 104.73 -4.83382 152.85 14.8848 165.893H25.3226Z" fill="#6E9AF8"/>
<path d="M87.3695 167.412C87.3695 167.759 87.3092 168.107 87.1885 168.446H0.546816C0.426147 168.107 0.365814 167.759 0.365814 167.412C0.365814 161.202 19.8414 156.171 43.8661 156.171C67.8909 156.171 87.3695 161.202 87.3695 167.412Z" fill="#CEB5FF"/>
<path d="M69.1369 162.677C69.1369 162.677 75.2825 163.253 77.126 165.995C78.9697 168.737 71.1534 168.127 70.3468 167.934C69.5401 167.741 63.9516 165.561 63.9516 165.561L65.488 163.06L69.1369 162.677Z" fill="#F46E6E"/>
<path d="M59.5008 158.039C59.5008 158.039 58.8525 165.879 59.5008 166.188C60.1491 166.497 64.4894 164.643 64.4894 164.643C64.4894 164.643 69.5595 164.803 70.2893 162.676C70.2893 162.676 67.2165 162.171 66.8322 161.631C66.4482 161.09 65.3344 159.159 66.1024 157.768C66.8708 156.378 59.5008 158.039 59.5008 158.039Z" fill="#F68B8C"/>
<path d="M51.4686 162.789C51.4686 162.789 50.6236 163.871 50.5467 164.527C50.4698 165.184 49.734 167.694 50.3132 168.042C50.8924 168.39 67.3506 168.706 69.3096 168.475C71.2683 168.243 69.4823 167.694 68.7526 166.729C68.0228 165.763 62.2999 161.978 60.1874 162.789C58.0748 163.601 51.5838 163.214 51.4686 162.789Z" fill="#FF453D"/>
<path d="M51.6994 157.962C51.6994 157.962 50.4315 163.446 51.5069 163.909C52.5823 164.373 57.7297 165.88 60.3029 164.451C62.8764 163.022 61.4553 162.674 61.4553 162.674C61.4553 162.674 58.1903 162.635 57.9982 162.056C57.806 161.476 57.8446 157.383 57.8446 157.383L51.6994 157.962Z" fill="#FC958F"/>
<path d="M59.9314 117.572C59.9314 117.572 64.7158 108.739 69.709 113.683C74.7022 118.626 69.5596 160.047 69.5596 160.047C69.5596 160.047 63.5676 158.657 58.3439 158.116C53.1202 157.575 49.0489 158.58 49.0489 158.58C49.0489 158.58 46.4617 167.47 34.4177 163.917L43.4987 146.537L56.0969 132.17L59.9314 117.572Z" fill="#2038CC"/>
<path d="M20.7603 147.928C20.7603 147.928 20.5298 166.08 32.5135 165.23C44.4972 164.381 47.6661 150.469 47.6661 150.469C47.6661 150.469 47.1282 159.275 48.204 159.275C49.2794 159.275 62.2616 158.734 62.2616 158.734C62.2616 158.734 72.075 113.555 53.7922 109.925C35.5094 106.294 20.7603 147.928 20.7603 147.928Z" fill="#414FF0"/>
<path d="M41.2807 63.513C41.2807 63.513 49.5236 60.381 53.0485 69.1838C56.5734 77.9866 52.2112 75.6286 57.9442 83.6518C63.6772 91.675 55.8327 90.7316 55.1586 96.2583C54.485 101.785 54.7507 102.422 54.7507 102.422C54.7507 102.422 48.4867 109.548 41.8014 102.579C35.9646 96.4938 17.3054 117.382 17.3054 117.382C17.3054 117.382 9.45356 114.995 7.99084 111.491C6.52843 107.987 8.56288 107.505 10.5251 103.458C12.4872 99.4115 10.5851 95.5686 10.4721 92.6203C10.3593 89.6717 11.9226 84.6697 18.4146 84.3343C24.9062 83.9991 25.2541 85.7249 26.5213 82.8698C27.7885 80.0148 27.1225 71.4565 28.1549 69.8241C29.1873 68.191 32.039 64.6686 34.9834 64.4032C37.9275 64.138 38.6363 64.0309 41.2807 63.513Z" fill="#050257"/>
<path d="M42.5973 94.7689C42.5973 94.7689 57.2488 96.9385 58.8966 102.645C60.5448 108.353 60.9463 111.224 60.9463 111.224C60.9463 111.224 60.1994 113.304 59.6786 113.079C59.1575 112.853 56.9498 110.954 52.7779 112.676C48.6059 114.399 38.8164 125.256 32.7561 140.902C32.7561 140.902 32.2619 144.123 30.9518 144.586C29.6415 145.05 21.37 149.342 21.6584 151.796C21.9468 154.251 19.4799 131.552 18.5185 128.743C17.5567 125.934 16.183 121.921 16.183 121.921L15.1622 122.011C15.1622 122.011 14.2773 108.137 17.1283 105.407C19.9794 102.677 20.8648 96.2304 42.5973 94.7689Z" fill="#FFF2E8"/>
<path d="M44.7428 93.6675C44.7428 93.6675 43.3231 92.5887 42.9091 91.6123C42.9009 91.5921 42.8981 91.5833 42.8981 91.5833C42.8981 91.5833 42.7063 92.7074 42.3707 94.0012C41.9879 95.4652 41.4208 97.1458 40.729 97.6647C39.4262 98.6473 34.3644 96.7682 33.7285 93.7682C33.7285 93.7682 35.5513 90.6672 35.6323 89.7737C35.7147 88.8775 34.9443 82.9214 35.6677 81.5009C35.6677 81.5009 31.4741 79.1085 33.8154 77.2964C36.16 75.4861 36.9607 78.4015 36.9607 78.4015C36.9607 78.4015 40.9678 75.1625 43.495 75.0421C46.0235 74.9187 50.5807 71.6353 50.5807 71.6353C50.5807 71.6353 56.598 77.7466 55.357 81.8177C54.1148 85.8916 48.1535 96.0965 44.7428 93.6675Z" fill="#CEB5FF"/>
<path d="M27.1107 120.893C27.1107 120.893 27.6226 132.943 37.6603 133.561C47.6979 134.179 52.102 134.23 52.819 133.921C53.5361 133.612 54.7651 131.501 55.8405 130.935C56.916 130.368 58.3498 128.287 58.2475 127.5C58.1449 126.712 59.1691 126.403 59.5791 127.227C59.9887 128.051 58.1681 129.528 58.1681 129.528C58.1681 129.528 61.7528 129.733 63.6992 128.446C65.6452 127.159 64.5188 132.617 63.9043 133.287C63.2895 133.956 62.8826 136.492 54.2019 138.659C54.2019 138.659 52.0386 138.144 50.2778 139.483C48.517 140.822 35.7142 142.109 30.5928 139.946C25.4717 137.784 17.9177 131.347 17.4824 120.687L27.1107 120.893Z" fill="#CEB5FF"/>
<path d="M43.2291 92.8682C41.0348 91.7602 37.4902 87.3506 38.8806 88.4687C40.4185 89.7017 42.5289 90.4934 42.5289 90.4934C42.5289 90.4934 42.9009 91.5715 43.2291 92.8682Z" fill="#E8747D"/>
<path d="M71.4691 117.967C71.4691 117.967 70.0068 122.052 69.7766 123.017C69.5458 123.983 68.7395 125.875 69.7766 126.3C70.8134 126.725 71.8043 125.756 72.1117 125.292C72.4188 124.829 73.0544 116.976 71.4691 117.967Z" fill="#CEB5FF"/>
<path d="M71.6447 118.456C71.6447 118.456 70.3081 119.464 69.9238 120.198C69.5398 120.932 71.8828 121.782 71.8828 121.782C71.8828 121.782 71.9627 118.491 71.6447 118.456Z" fill="#CEB5FF"/>
<mask id="mask1_1135_1034" style="mask-type:alpha" maskUnits="userSpaceOnUse" x="-33" y="29" width="157" height="140">
<path d="M120.951 126.617C119.256 136.124 111.138 149.261 99.0108 168.265H-32.0754V81.6083C-18.3797 90.0016 -6.88926 92.9351 2.77313 92.7012C5.12613 92.6439 7.37354 92.3979 9.51537 91.9945C10.0312 91.9008 10.5441 91.7943 11.0478 91.682C11.5365 91.5732 12.0192 91.4545 12.4989 91.3271C13.1987 91.1424 13.8835 90.9422 14.5592 90.7238C22.4146 88.2243 28.7134 83.7074 33.7965 79.2545C48.189 66.6482 66.9678 22.3525 94.6457 29.9843C95.2159 30.1421 95.777 30.321 96.332 30.5273C96.878 30.7272 97.418 30.952 97.952 31.1943L98.7273 31.7707L106.908 37.8495C107.038 37.9863 107.165 38.1228 107.292 38.2623C107.91 38.9327 108.516 39.6394 109.108 40.3702C125.923 61.1882 124.487 106.779 120.951 126.617Z" fill="#B9E8FF"/>
</mask>
<g mask="url(#mask1_1135_1034)">
<path d="M135.556 2.63829C136.068 3.95627 135.556 7.62752 135.556 7.62752C130.626 29.0786 128.743 28.3664 127.612 28.5794C126.481 28.7877 126.634 26.4348 126.736 26.1988C126.838 25.9783 127.48 22.1223 127.562 21.6188C127.198 23.2516 123.969 31.1362 123.969 31.1362C121.692 33.2844 121.25 30.6208 121.25 30.6208C120.91 31.6515 120.142 32.911 120.142 32.911C116.809 35.071 116.981 31.0931 116.981 31.0931C116.723 30.1919 118.179 24.5696 117.791 26.0292C117.408 27.4849 114.375 33.4105 113.053 32.911C111.73 32.4114 111.644 29.8066 112.88 28.2606C114.121 26.7142 115.733 20.4464 115.862 18.9986C115.987 17.5465 115.764 14.9694 116.019 12.5891C116.277 10.2046 114.993 6.5337 110.896 8.72528C106.795 10.9129 104.62 9.8191 102.57 8.3358C100.519 6.85644 102.632 5.43988 104.362 4.92451C106.091 4.40915 110.446 2.73687 115.826 -0.35561C121.207 -3.44809 121.402 -2.03153 124.807 -3.57792C127.252 -4.68357 130.265 -13.8433 131.78 -18.9387L142.392 -11.0536C142.56 -10.8764 142.724 -10.6999 142.888 -10.5188C139.101 -4.43211 135.29 1.96155 135.556 2.63829Z" fill="#CEB5FF"/>
</g>
</g>
</g>
<defs>
<clipPath id="clip0_1135_1034">
<rect width="181" height="182" fill="white" transform="translate(-32 -12)"/>
</clipPath>
</defs>
</svg>
