<svg width="243" height="185" viewBox="0 0 243 185" fill="none" xmlns="http://www.w3.org/2000/svg">
<path d="M71.7124 48.0942C60.5433 63.7691 54.503 79.3965 54.0372 94.2093C53.5146 109.024 58.5519 123.069 65.2034 137.546C71.8563 151.977 80.1721 166.835 91.3382 168.802C102.504 170.719 116.522 159.789 131.821 153.607C147.175 147.469 163.799 146.126 174.165 136.876C184.517 127.576 188.557 110.366 186.465 93.5862C184.327 76.8093 175.963 60.4543 163.135 45.1216C150.257 29.734 132.82 15.352 115.999 16.0226C99.1315 16.6946 82.8335 32.4171 71.7124 48.0942Z" fill="#E1B0E0"/>
<mask id="mask0_1250_8" style="mask-type:luminance" maskUnits="userSpaceOnUse" x="-4" y="0" width="247" height="185">
<path d="M243 0H-4V185H243V0Z" fill="white"/>
</mask>
<g mask="url(#mask0_1250_8)">
<mask id="mask1_1250_8" style="mask-type:luminance" maskUnits="userSpaceOnUse" x="9" y="-18" width="221" height="221">
<path d="M9.12207 -17.7292H229.878V202.729H9.12207V-17.7292Z" fill="white"/>
</mask>
<g mask="url(#mask1_1250_8)">
<path d="M66.7395 8.94629C65.8779 11.0091 65.1348 13.3089 64.62 15.8169C64.105 18.3248 63.8182 21.0413 63.8697 23.9375C63.8801 24.5256 63.9364 25.1134 63.9893 25.7011C64.0423 26.2889 64.0922 26.8766 64.0904 27.4648C64.0862 28.7296 64.0196 29.9774 63.9871 31.2221C63.9547 32.4668 63.9569 33.7082 64.0904 34.9604C64.3191 37.1052 64.8189 38.9346 65.481 40.5532C66.143 42.1718 66.9669 43.5794 67.8433 44.881C68.0221 45.1464 68.1844 45.3594 68.3312 45.5373C68.478 45.7152 68.6095 45.8579 68.7263 45.9833C68.9184 46.1894 69.0784 46.4339 69.2208 46.67C69.3632 46.9061 69.4879 47.1339 69.6093 47.306C69.9339 47.7664 70.1899 48.2377 70.4299 48.7165C70.6699 49.1954 70.8942 49.6817 71.1546 50.172C71.3195 50.4822 71.5246 50.7635 71.724 51.0468C71.9233 51.3301 72.1169 51.6158 72.2584 51.9357C72.4077 52.2728 72.4973 52.6403 72.5876 53.0155C72.6779 53.3907 72.7688 53.7732 72.9207 54.1403C73.0454 54.4416 73.2373 54.726 73.3622 55.0221C73.8697 56.2245 74.319 56.8014 74.9075 57.888C75.6199 59.2033 76.2874 60.4789 76.8943 61.6358C77.712 63.1949 78.5076 65.0785 79.1019 66.4859C79.6937 67.888 81.2498 71.511 81.5302 71.5565C82.7702 71.7573 83.9075 67.7908 84.1793 67.1473C85.57 63.8532 87.5716 58.4879 87.4906 54.5812C87.437 51.9961 86.4115 49.0693 85.7246 47.306C85.3775 46.4149 85.0078 45.5618 84.6208 44.6605C82.6836 40.1497 81.4348 34.1795 78.8811 30.7717C78.4773 30.2329 78.195 29.6647 77.9981 29.2285C77.9648 29.1546 77.6104 29.0933 77.5566 29.008C77.4274 28.8036 77.4358 28.5192 77.3358 28.3466C76.9623 27.7024 76.5925 27.2324 76.232 26.583C75.5194 25.299 74.9479 24.0638 74.466 22.8352C73.9086 21.4143 73.2865 19.9992 72.6999 18.6465C71.1332 15.0329 69.0904 11.7618 66.9603 9.16675C66.8892 9.08011 66.9722 8.86913 66.7395 8.94629Z" fill="#FFCB6C"/>
<path d="M67.8433 16.2214C68.4243 20.096 69.5861 27.8453 71.3754 33.4172C73.0295 38.5684 76.7163 42.9597 78.1084 48.1879C80.1341 55.7959 81.0648 66.303 81.5301 71.5565" stroke="#252424" stroke-width="2.86"/>
<path d="M53.0525 51.2743C52.9613 51.3267 52.8084 51.3287 52.6717 51.3442C52.5353 51.3596 52.4152 51.3885 52.3902 51.4947C52.3052 51.8565 52.5066 52.2868 52.794 52.6872C53.0814 53.0875 53.4549 53.4577 53.7148 53.6993C53.798 53.7767 53.9185 53.7941 54.0408 53.8109C54.1631 53.8276 54.287 53.8439 54.377 53.9198C54.6201 54.1244 54.6631 54.2456 54.7066 54.3655C54.7501 54.4855 54.7941 54.6036 55.0393 54.8016C55.1667 54.9043 55.3287 54.9698 55.4881 55.032C55.6475 55.0942 55.8045 55.153 55.9223 55.2425C55.9755 55.2829 56.0025 55.3719 56.0301 55.4614C56.0577 55.5509 56.0864 55.6409 56.1431 55.6834C56.2442 55.7593 56.3658 55.7763 56.4842 55.7932C56.6025 55.8102 56.7173 55.8274 56.8054 55.9039C57.0862 56.1479 57.4098 56.5055 57.6948 56.8715C57.9798 57.2372 58.2257 57.6113 58.3507 57.888C58.3665 57.9229 58.4632 57.9581 58.5628 57.9947C58.6624 58.0313 58.7648 58.069 58.7922 58.1085C59.6147 59.2934 60.3123 60.5915 60.9523 61.9087C61.5922 63.226 62.1744 64.5624 62.7658 65.8245C63.2896 66.9427 63.9 67.9769 64.6261 68.8483C65.3522 69.7198 66.1941 70.4281 67.1809 70.8951C67.8125 71.1938 68.4134 71.3909 69.0253 71.5527C69.6373 71.7143 70.2598 71.8406 70.9338 71.9974C71.7671 72.1911 72.6863 72.3746 73.5722 72.6107C74.4581 72.8468 75.3109 73.1358 76.0112 73.5406C76.0551 73.5659 76.0871 73.659 76.1198 73.7542C76.1524 73.8494 76.1858 73.9469 76.2319 73.9815C76.3271 74.0527 76.45 74.0758 76.5705 74.0972C76.6911 74.1186 76.8092 74.138 76.8942 74.2019C77.3569 74.5498 77.752 74.9632 78.0823 75.4136C78.4125 75.864 78.6777 76.3516 78.881 76.8474C80.4689 80.7218 78.0719 88.6314 80.2055 92.0591C81.0921 93.4832 82.0866 94.2123 83.5169 94.925C84.0895 95.2103 85.1405 95.7365 85.9452 96.0273C86.4229 96.1999 88.7139 96.9204 88.815 96.9091C89.1702 96.8697 88.9722 96.5787 89.4773 96.2478C89.8479 96.005 90.3018 95.983 90.5811 95.8069C90.8363 95.6459 90.9363 95.3468 91.2433 95.1455C91.5793 94.9255 92.1495 94.8315 92.3471 94.7046C92.6005 94.5416 92.7924 94.1838 93.0094 94.0432C93.3215 93.8408 93.7619 93.8232 94.1132 93.6023C94.2076 93.5427 94.2346 93.2357 94.3339 93.1614C94.5072 93.0315 94.8397 93.0405 94.9962 92.9409C96.7084 91.851 98.6965 90.3664 100.294 89.4136C100.708 89.1667 100.94 88.9056 101.177 88.7522C101.575 88.4945 102.034 88.4859 102.281 88.3113C102.645 88.054 102.764 87.8208 102.943 87.4294C103.838 85.4828 103.184 80.0075 102.502 78.6111C99.9588 73.4072 91.2007 73.7981 86.6075 70.6746C85.7202 70.0712 84.952 69.2269 84.3999 68.47C83.2264 66.8611 82.595 64.8139 81.9716 62.9586C81.8491 62.5941 81.4552 62.2176 81.3093 61.8563C80.9972 61.0836 80.8453 60.2002 80.4263 59.4312C80.3022 59.2037 79.9283 59.0348 79.764 58.7699C79.5503 58.4246 79.5415 57.9515 79.3225 57.6676C79.0428 57.3051 78.4463 56.7767 77.998 56.3448C76.7068 55.1008 75.3928 54.4176 73.5828 53.9198C69.8501 52.8933 66.1389 53.6947 61.662 53.2584C58.359 52.9365 56.0742 51.5042 53.7148 51.0538C53.3532 50.9848 53.2154 51.1804 53.0525 51.2743Z" fill="#FFCB6C"/>
<path d="M96.2103 92.3897C92.2559 86.4374 84.3471 74.5328 76.7837 67.037C70.8686 61.1748 61.1251 55.5849 56.2534 52.7899" stroke="#CFA0E6" stroke-width="2.86"/>
</g>
<path d="M156.921 159.252L205.128 128.63L140.146 111.455L156.921 159.252Z" fill="#E2E9FF"/>
<path d="M159.616 46.6724L88.4966 30.0937C87.8957 29.9213 87.3546 30.1246 86.9782 30.5818L86.9769 30.5796L83.041 33.6394L86.4435 41.8625L86.4433 132.496C86.4433 134.034 87.3672 135.557 88.4963 135.882L150.568 153.695L156.699 159.252L160.696 156.214L160.679 156.186C161.271 155.863 161.669 155.092 161.669 154.085L161.67 50.0576C161.67 48.5196 160.745 46.9965 159.616 46.6724Z" fill="#CFA0E6"/>
<path d="M155.508 159.46L84.5954 140.5C83.4696 140.199 82.5483 138.695 82.5483 137.157L82.5486 35.3188C82.5486 33.7811 83.4696 32.769 84.5954 33.0699L155.509 49.8415C156.635 50.1425 157.556 51.6471 157.556 53.1848L157.555 157.212C157.555 158.749 156.634 159.761 155.508 159.46Z" fill="#E2E9FF"/>
<path d="M153.614 152.173L88.1367 134.666V41.0739L153.614 56.4817V152.173Z" fill="white"/>
<path d="M153.614 152.173L88.1367 134.666V41.0739L153.614 56.4817V152.173Z" stroke="#E2E9FF" stroke-width="1.63592" stroke-miterlimit="10"/>
<path d="M135.626 43.685L135.012 43.5373C134.521 40.4602 132.239 37.6328 129.577 36.9912L111.945 32.743C109.282 32.1015 107.114 33.8561 106.771 36.7324L106.157 36.5847C103.201 35.8724 100.852 38.114 100.938 41.5664C101.024 45.0186 103.513 48.426 106.47 49.1383L135.939 56.239C138.895 56.9515 141.244 54.7097 141.158 51.2573C141.072 47.8049 138.583 44.3973 135.626 43.685Z" fill="#CFA0E6"/>
<mask id="mask2_1250_8" style="mask-type:luminance" maskUnits="userSpaceOnUse" x="9" y="36" width="221" height="221">
<path d="M9.12207 36.5381H229.878V256.996H9.12207V36.5381Z" fill="white"/>
</mask>
<g mask="url(#mask2_1250_8)">
<path d="M116.275 132.389C116.275 132.389 119.047 133.115 122.959 134.139" stroke="#E2E9FF" stroke-width="7.09852" stroke-linecap="round" stroke-linejoin="round"/>
<path d="M116.428 124.805C116.428 124.805 126.288 127.407 131.82 128.867" stroke="#E2E9FF" stroke-width="7.09852" stroke-linecap="round" stroke-linejoin="round"/>
<path d="M106.187 133.8L93.8462 130.526L93.8394 116.698L106.18 119.972L106.187 133.8Z" fill="#BF4DE7"/>
</g>
<mask id="mask3_1250_8" style="mask-type:luminance" maskUnits="userSpaceOnUse" x="9" y="11" width="221" height="222">
<path d="M9.12207 11.957H229.878V232.415H9.12207V11.957Z" fill="white"/>
</mask>
<g mask="url(#mask3_1250_8)">
<path d="M116.275 107.808L148.256 116.179" stroke="#E2E9FF" stroke-width="7.09852" stroke-linecap="round" stroke-linejoin="round"/>
<path d="M116.428 100.223L135.478 105.251" stroke="#E2E9FF" stroke-width="7.09852" stroke-linecap="round" stroke-linejoin="round"/>
<path d="M106.187 109.219L93.8462 105.945L93.8394 92.1165L106.18 95.3905L106.187 109.219Z" fill="#BF4DE7"/>
</g>
<mask id="mask4_1250_8" style="mask-type:luminance" maskUnits="userSpaceOnUse" x="9" y="-13" width="221" height="222">
<path d="M9.12207 -12.4036H229.878V208.055H9.12207V-12.4036Z" fill="white"/>
</mask>
<g mask="url(#mask4_1250_8)">
<path d="M116.275 83.4473L148.256 91.819" stroke="#E2E9FF" stroke-width="7.09852" stroke-linecap="round" stroke-linejoin="round"/>
<path d="M116.428 75.8628L135.478 80.8901" stroke="#E2E9FF" stroke-width="7.09852" stroke-linecap="round" stroke-linejoin="round"/>
<path d="M106.187 84.8586L93.8462 81.5846L93.8394 67.7559L106.18 71.0299L106.187 84.8586Z" fill="#BF4DE7"/>
<path d="M96.4536 74.3928L99.2612 79.2874L102.921 74.5599" stroke="white" stroke-width="7.90933" stroke-linecap="round" stroke-linejoin="round"/>
</g>
<path d="M133.727 45.2518L133.113 45.1041C132.622 42.027 130.339 39.1996 127.677 38.558L110.045 34.3096C107.383 33.6683 105.214 35.4229 104.872 38.2992L104.258 38.1515C101.301 37.4392 98.9525 39.6808 99.0384 43.1332C99.1243 46.5854 101.614 49.9928 104.57 50.7051L134.039 57.8058C136.996 58.5183 139.344 56.2765 139.259 52.8241C139.173 49.3717 136.683 45.9641 133.727 45.2518Z" fill="#8446FF"/>
<path d="M106.36 41.1531L131.208 47.583" stroke="white" stroke-width="4.43872" stroke-linecap="round" stroke-linejoin="round"/>
<path d="M95.4398 94.8413L99.2091 83.378L87.8706 88.7063C86.1379 91.8204 93.4382 97.0056 95.4398 94.8413Z" fill="#FAE6C5"/>
<path d="M99.7516 82.6753L97.5464 88.1911C97.4362 86.4455 96.6075 85.3261 94.536 85.29L99.7516 82.6753Z" fill="#252424"/>
<path d="M58.0063 132.279C58.0306 132.256 58.0531 132.232 58.0766 132.209L58.0784 132.211L65.3406 125.35C67.3657 123.437 67.52 120.4 65.6852 118.568C63.8502 116.734 60.721 116.8 58.6957 118.713L51.4334 125.573L51.4352 125.575C51.4107 125.597 51.3859 125.618 51.3617 125.641C49.3363 127.554 50.7929 129.258 52.6279 131.091C54.4626 132.924 55.9812 134.192 58.0063 132.279Z" fill="#BF4DE7"/>
<path d="M54.8678 121.184L87.4674 90.4962C89.4326 89.8544 91.0021 90.6459 91.9774 93.5872L61.7966 121.342C59.8354 117.713 57.3462 119.504 54.8678 121.184Z" fill="#BF4DE7"/>
<path d="M91.8214 93.4976C92.5978 93.5683 94.4165 93.3344 94.9974 96.1855L63.3567 126.137C62.4891 123.038 60.6548 121.769 60.6548 121.769L91.8214 93.4976Z" fill="#CFA0E6"/>
<path d="M61.5394 128.982C61.5114 129 61.5858 128.936 61.6096 128.913L61.6113 128.914L64.8363 125.835C66.7144 123.682 60.7085 116.645 58.4369 118.705C58.4123 118.728 58.486 118.661 58.5106 118.639L58.5087 118.638L54.7954 122.139L54.7969 122.141C54.7725 122.163 54.6944 122.224 54.7232 122.207C56.8746 120.926 63.7917 127.523 61.5394 128.982Z" fill="#FBE7C6"/>
<path d="M83.2245 152.834C79.9003 151.784 74.3077 151.824 70.7334 152.923C70.1232 153.111 69.6137 153.317 69.2009 153.536C66.8726 153.116 63.7513 153.236 61.6341 153.887C59.1223 154.659 58.9797 155.883 61.3155 156.621C63.5602 157.329 67.2733 157.329 69.7888 156.643C69.9436 156.701 70.1056 156.759 70.2798 156.814C73.6039 157.863 79.1963 157.823 82.7708 156.724C86.3455 155.626 86.5486 153.884 83.2245 152.834Z" fill="#E2E9FF"/>
<path d="M77.6561 152.589L80.1983 153.015C82.0604 152.763 83.0487 151.993 83.6527 152.633L83.7686 153.255C83.9931 153.7 83.6401 154.414 82.956 154.68L80.2517 155.621L79.4325 155.468L79.417 156.256L77.8936 156.698C76.9048 156.932 75.8668 156.592 75.8613 155.709C75.8613 155.709 75.8666 153.238 76.3179 153.141C77.2243 152.944 76.8651 152.777 77.6561 152.589Z" fill="#8446FF"/>
<path d="M78.9768 153.798C78.9642 154.833 76.4425 154.802 76.4551 153.767L76.4957 150.403L79.0172 150.433L78.9768 153.798Z" fill="#DE8E68"/>
<path d="M80.1469 150.921C79.1492 152.004 76.8342 151.755 76.3784 150.909C76.344 146.181 74.9124 141.009 77.2096 134.742C77.2096 134.742 77.8135 133.152 79.8544 133.496C81.8874 133.838 82.3686 135.649 82.3686 135.649L80.1469 150.921Z" fill="#252424"/>
<path d="M76.465 135.243L71.4113 116.583C71.4113 116.583 71.9202 113.077 76.4555 112.847C81.1912 112.607 81.2814 116.256 81.2814 116.256L81.9536 134.586C81.9536 134.586 79.1704 139.153 76.465 135.243Z" fill="#252424"/>
<path d="M62.6649 149.438L62.7006 151.772C63.2304 153.39 64.4448 153.581 63.9729 154.223L63.5956 154.869C63.196 155.274 62.0757 154.527 61.7995 154.172L60.2697 151.67L59.8935 151.343L59.4723 151.273C59.2306 150.723 58.1957 150.25 58.4171 149.714C58.5354 149.428 59.5164 148.68 59.7341 148.481C59.7341 148.481 60.4291 147.792 60.7816 147.783C61.622 147.76 62.3682 148.764 62.6649 149.438Z" fill="#8446FF"/>
<path d="M62.3752 149.038C61.8938 149.869 59.539 149.067 60.0204 148.236L61.5852 145.534L63.9398 146.336L62.3752 149.038Z" fill="#DE8E68"/>
<path d="M64.2833 147.818C62.9437 148.354 61.3636 146.111 61.2483 145.273C63.1035 141.462 64.5656 135.79 68.7775 134.056C68.7775 134.056 70.0188 133.149 71.2969 133.863C73.1022 134.872 72.563 136.466 72.563 136.466C72.4338 136.746 71.5549 138.795 71.3605 139.037L64.2833 147.818Z" fill="#252424"/>
<path d="M67.5556 134.405L67.3603 123.327C66.908 121.737 67.0101 120.352 67.3284 117.77C67.3284 117.77 68.7998 115.276 71.9177 115.573C75.3118 115.896 74.8162 119.561 74.8162 119.561L72.0522 135.102C71.9958 135.42 67.8233 138.116 67.5556 134.405Z" fill="#252424"/>
<path d="M79.358 94.0215C78.8268 95.8657 76.6334 96.3347 75.2904 94.9635C73.9474 93.5923 73.2891 90.9859 73.8203 89.1417C74.3514 87.2975 75.8709 86.9141 77.2139 88.2853C78.5569 89.6565 79.8891 92.1773 79.358 94.0215Z" fill="#DE8E68"/>
<path d="M73.5924 99.2316L73.3838 99.1778C72.6789 98.9957 72.2513 98.2711 72.4337 97.5669L73.4622 93.598C73.6445 92.8941 74.3704 92.4673 75.0752 92.6496L75.2839 92.7034C75.9887 92.8855 76.4161 93.6106 76.2338 94.3143L75.8066 98.273C75.6245 98.977 74.2971 99.4137 73.5924 99.2316Z" fill="#DE8E68"/>
<path d="M71.8858 93.3179C71.8858 93.3179 71.9581 94.6994 74.588 95.2983C75.3864 95.4802 76.5172 94.5166 76.3956 93.6203C76.3113 92.9983 75.854 92.9905 75.8688 92.6602C75.8832 92.3404 77.4827 92.4395 77.7252 92.2755C77.91 92.1505 76.1755 90.9417 76.2084 90.9143C76.2593 90.8953 78.6523 91.8387 78.8557 91.7806C80.7216 91.2488 80.0321 89.5025 79.2319 88.5695C78.8282 88.0988 76.6213 85.871 77.9406 87.9588C78.5488 88.9215 76.8339 87.4069 75.862 87.3743C73.9759 87.3114 70.5358 87.768 71.8858 93.3179Z" fill="#8446FF"/>
<path d="M77.3619 93.1131C77.2344 93.5564 76.7259 93.7693 76.2256 93.5889C75.7256 93.4081 75.4236 92.9027 75.5509 92.4596C75.6781 92.0165 76.1868 91.8035 76.6869 91.984C77.1869 92.1646 77.489 92.67 77.3619 93.1131Z" fill="#DE8E68"/>
<path d="M75.9103 95.8213L75.6826 95.3504C75.6826 95.3504 76.0748 95.7335 76.7985 95.7157C76.7985 95.7157 76.3767 95.8996 75.9103 95.8213Z" fill="#B94141"/>
<path d="M66.3789 118.414C66.595 113.41 67.3482 110.14 67.1036 105.814C67.1984 97.5458 68.2326 97.1915 70.0589 96.6677L71.885 96.4644C72.4521 96.5722 72.9775 96.8328 73.5383 96.9699C75.886 97.5436 77.3911 97.6712 79.0775 98.5832C80.5791 99.3952 80.6665 101.566 80.6627 103.384C81.0685 108.713 81.1758 116.736 81.2513 119.366C80.3974 123.132 67.8076 120.964 66.3789 118.414Z" fill="#FFBC42"/>
<path d="M80.8441 104.006L79.4668 105.49C77.8497 112.007 78.599 118.614 75.9473 121.394C77.5696 121.389 79.0564 121.176 80.156 120.369C80.2149 120.376 80.722 119.925 80.796 119.113L80.8441 104.006Z" fill="#EEB040"/>
<path d="M71.5756 96.354C71.5756 96.354 70.9615 96.6392 73.3781 97.117C75.0688 97.4512 76.2996 97.6593 76.2996 97.6593C76.2996 97.6593 74.7446 96.0319 71.5756 96.354Z" fill="#FBE7C6"/>
<path d="M85.8113 106.168L85.8117 106.169C86.471 106.712 87.4461 106.672 87.9791 106.079L89.2683 104.646C89.8015 104.053 89.6984 103.124 89.0394 102.58L89.0387 102.58C88.3799 102.037 87.4045 102.077 86.8713 102.67L85.5823 104.103C85.0492 104.695 85.1521 105.625 85.8113 106.168Z" fill="#DE8E68"/>
<path d="M87.3098 107.132C87.3098 107.132 83.4836 112.459 81.6074 113.419C79.7312 114.38 77.7311 110.736 77.7311 110.736L85.0784 105.004L87.3098 107.132Z" fill="#DE8E68"/>
<path d="M75.134 103.058L77.7599 112.529C78.0847 114.855 84.0142 114.389 83.3454 111.646C83.3032 111.473 79.8553 99.7973 79.8553 99.7973C79.8553 99.7973 75.2129 96.4136 75.134 103.058Z" fill="#FFBC42"/>
<path d="M78.3922 111C79.2373 112.381 82.3244 112.238 83.0441 110.72" stroke="#FBE7C6" stroke-width="2.02631" stroke-linecap="round" stroke-linejoin="round"/>
</g>
</svg>
