<svg width="62" height="62" viewBox="0 0 62 62" fill="none" xmlns="http://www.w3.org/2000/svg">
<path d="M20.7529 30.0772C20.6782 30.0269 20.5901 30 20.5 30C20.4099 30 20.3218 30.0269 20.2471 30.0772C20.1116 30.1672 17 32.327 17 35.5128C17 36.4376 17.3687 37.3246 18.0251 37.9786C18.6815 38.6326 19.5717 39 20.5 39C21.4283 39 22.3185 38.6326 22.9749 37.9786C23.6313 37.3246 24 36.4376 24 35.5128C24 32.273 20.8839 30.1627 20.7529 30.0772ZM20.5 38.1001C19.8117 38.0989 19.1519 37.8259 18.6651 37.341C18.1784 36.856 17.9044 36.1986 17.9032 35.5128C17.9032 33.2629 19.8045 31.5666 20.5 31.0131C21.2 31.5576 23.0968 33.2629 23.0968 35.5128C23.0956 36.1986 22.8216 36.856 22.3349 37.341C21.8481 37.8259 21.1883 38.0989 20.5 38.1001Z" fill="#D700DB"/>
<path d="M42.3958 44.9484C42.4575 44.9798 42.5326 44.9978 42.6107 44.9998C42.6887 45.0018 42.7658 44.9878 42.8311 44.9597C42.8964 44.9316 42.9466 44.8909 42.9748 44.8432C43.003 44.7954 43.0077 44.7431 42.9882 44.6936C41.65 41.4233 36.7912 39 31.001 39C25.2108 39 20.3472 41.4255 19.0122 44.6978C18.9923 44.7475 18.9968 44.8001 19.025 44.8481C19.0532 44.896 19.1037 44.937 19.1693 44.9652C19.235 44.9933 19.3125 45.0073 19.3909 45.005C19.4693 45.0028 19.5446 44.9844 19.6062 44.9526C22.486 43.5401 26.528 42.6604 31.001 42.6604C35.474 42.6604 39.5128 43.5401 42.3958 44.9484Z" fill="#D700DB"/>
<path d="M42.3958 44.9484C42.4575 44.9798 42.5326 44.9978 42.6107 44.9998C42.6887 45.0018 42.7658 44.9878 42.8311 44.9597C42.8964 44.9316 42.9466 44.8909 42.9748 44.8432C43.003 44.7954 43.0077 44.7431 42.9882 44.6936C41.65 41.4233 36.7912 39 31.001 39C25.2108 39 20.3472 41.4255 19.0122 44.6978C18.9923 44.7475 18.9968 44.8001 19.025 44.8481C19.0532 44.896 19.1037 44.937 19.1693 44.9652C19.235 44.9933 19.3125 45.0073 19.3909 45.005C19.4693 45.0028 19.5446 44.9844 19.6062 44.9526C22.486 43.5401 26.528 42.6604 31.001 42.6604C35.474 42.6604 39.5128 43.5401 42.3958 44.9484Z" fill="#D700DB"/>
<circle cx="31" cy="31" r="29.5" stroke="#D700DB" stroke-width="3"/>
<ellipse cx="23" cy="25.5" rx="3" ry="3.5" fill="#D700DB"/>
<ellipse cx="39" cy="25.5" rx="3" ry="3.5" fill="#D700DB"/>
</svg>
