<svg width="79" height="78" viewBox="0 0 79 78" fill="none" xmlns="http://www.w3.org/2000/svg">
<path d="M2 39C2 43.9246 2.96997 48.8009 4.85452 53.3506C6.73907 57.9003 9.5013 62.0343 12.9835 65.5165C16.4657 68.9987 20.5997 71.7609 25.1494 73.6455C29.6991 75.53 34.5754 76.5 39.5 76.5C44.4246 76.5 49.3009 75.53 53.8506 73.6455C58.4003 71.7609 62.5343 68.9987 66.0165 65.5165C69.4987 62.0343 72.2609 57.9003 74.1455 53.3506C76.03 48.8009 77 43.9246 77 39C77 34.0754 76.03 29.1991 74.1455 24.6494C72.2609 20.0997 69.4987 15.9657 66.0165 12.4835C62.5343 9.0013 58.4003 6.23907 53.8506 4.35452C49.3009 2.46997 44.4246 1.5 39.5 1.5C34.5754 1.5 29.6991 2.46997 25.1494 4.35452C20.5997 6.23907 16.4657 9.0013 12.9835 12.4835C9.5013 15.9657 6.73907 20.0997 4.85452 24.6494C2.96997 29.1991 2 34.0754 2 39Z" stroke="#D78100" stroke-width="3" stroke-linecap="round" stroke-linejoin="round"/>
<path d="M49.9165 55.8748C48.5587 54.489 46.938 53.3881 45.1493 52.6365C43.3606 51.8848 41.44 51.4977 39.4998 51.4977C37.5597 51.4977 35.639 51.8848 33.8504 52.6365C32.0617 53.3881 30.441 54.489 29.0832 55.8748M31.1665 27.5415C29.0832 31.7082 20.7498 31.7082 18.6665 27.5415M60.3332 27.5415C58.2498 31.7082 49.9165 31.7082 47.8332 27.5415" stroke="#D78100" stroke-width="3" stroke-linecap="round" stroke-linejoin="round"/>
</svg>
