<svg width="124" height="154" viewBox="0 0 124 154" fill="none" xmlns="http://www.w3.org/2000/svg">
<g opacity="0.15" clip-path="url(#clip0_1135_2949)">
<mask id="mask0_1135_2949" style="mask-type:luminance" maskUnits="userSpaceOnUse" x="-9" y="0" width="133" height="166">
<path d="M124 0.92215H-9V165.928H124V0.92215Z" fill="white"/>
</mask>
<g mask="url(#mask0_1135_2949)">
<path d="M106.287 39.8243C117.456 55.4054 123.496 70.9392 123.962 85.6633C124.485 100.389 119.447 114.35 112.796 128.741C106.143 143.085 97.8273 157.854 86.6611 159.809C75.4957 161.715 61.4776 150.85 46.1783 144.705C30.8244 138.604 14.2001 137.269 3.83412 128.075C-6.51807 118.83 -10.5575 101.723 -8.46583 85.0439C-6.32766 68.3674 2.03608 52.1103 14.8644 36.8695C27.7421 21.5741 45.1797 7.27815 62.0002 7.94471C78.8679 8.61274 95.1659 24.2411 106.287 39.8243Z" fill="#C2C9EB"/>
<path d="M77.7509 105.004C81.1733 114.595 82.5774 158.482 82.5774 165.928H64.8688L57.4993 149.272L70.2913 102.636L77.7509 105.004Z" fill="#BD55D7"/>
<path d="M71.4824 106.225C70.5166 112.637 61.9152 160.841 59.9958 165.929H34.4103C33.3231 162.295 29.2161 119.54 34.4103 103.796C39.6046 88.0526 71.4824 106.225 71.4824 106.225Z" fill="#C477D7"/>
<path d="M75.9194 80.7407C77.5481 80.4194 99.7141 70.2792 104.735 65.9643C109.756 61.6487 103.758 58.3151 101.866 59.4266C99.9757 60.5373 80.2888 69.0376 76.245 70.2792C72.202 71.5214 75.9194 80.7407 75.9194 80.7407Z" fill="#DE8E68"/>
<path d="M109.861 34.7564L93.7407 36.0168L96.1703 67.2517L112.291 65.9905L109.861 34.7564Z" fill="#DEDEDE"/>
<path d="M85.5998 38.2493L95.3914 54.7049" stroke="black" stroke-width="8" stroke-linecap="round" stroke-linejoin="round"/>
<path d="M53.6168 34.832C58.2071 34.329 61.3388 28.5058 60.6106 21.8256C59.8824 15.1461 55.5704 10.1392 50.9801 10.643C46.3898 11.146 43.2581 16.9692 43.9863 23.6486C44.7145 30.3281 49.0265 35.335 53.6168 34.832Z" fill="#DE8E68"/>
<path d="M50.6421 36.7597C78.5758 36.7597 79.8781 104.994 78.6506 106.224C77.4245 107.454 49.0192 113.228 33.5425 106.792C29.7655 90.3256 32.3346 36.7597 50.6421 36.7597Z" fill="#EEB040"/>
<path d="M94.2048 46.5451C94.0759 44.9527 92.1141 41.7774 89.6763 42.567C87.9986 43.1098 85.9255 46.7388 85.0258 48.2818C81.7738 50.9401 61.4406 70.784 59.9059 72.6702C59.7182 71.2159 58.085 68.4064 56.1878 65.8392L42.7377 76.193C44.538 80.166 54.5717 90.236 58.1387 89.9471C67.5018 89.1887 84.3677 62.1435 88.6111 54.9128C90.7273 53.1669 94.4633 49.722 94.2048 46.5451Z" fill="#DE8E68"/>
<path d="M37.9519 16.8216C37.9519 13.2692 40.8263 11.1903 41.7609 10.2199C43.6484 8.25147 44.78 3.00253 48.7678 3.00253C49.9001 3.00253 51.6596 3.66328 52.7658 3.66328C54.1488 3.65747 56.9026 0.92215 59.6789 0.92215C64.3302 0.92215 65.3644 5.21521 65.3644 6.53453C65.3644 11.3648 59.3656 15.0102 58.5691 15.4456C58.2311 14.891 56.6816 12.8164 56.1664 12.5024C55.5493 13.7933 51.3834 15.9421 48.2358 17.8662C46.4726 18.9456 45.3628 27.3187 45.3897 27.9795C42.4485 27.9889 37.9519 23.5149 37.9519 16.8216Z" fill="#8446FF"/>
<path d="M44.9275 27.1748C46.2357 27.1748 47.2961 26.1114 47.2961 24.7993C47.2961 23.4873 46.2357 22.4238 44.9275 22.4238C43.6193 22.4238 42.559 23.4873 42.559 24.7993C42.559 26.1114 43.6193 27.1748 44.9275 27.1748Z" fill="#DE8E68"/>
<path d="M54.606 41.2854C54.795 42.4717 47.3746 42.1707 47.2881 40.9067L46.4705 29.0124L53.1895 28.2768C53.1895 28.2768 54.4287 40.1027 54.606 41.2854Z" fill="#DE8E68"/>
<path d="M35.1672 47.3109C27.2213 52.5255 36.5631 75.507 42.0091 77.4965C47.9406 77.0161 59.2148 67.4342 58.9795 64.5268C58.7442 61.62 45.4747 40.5516 35.1672 47.3109Z" fill="#F1BE61"/>
<path d="M105.541 48.7295C105.541 52.657 110.197 54.7294 110.876 54.7294C112.294 54.7294 112.294 50.4312 112.294 49.3183C112.294 46.7822 109.826 44.925 107.952 44.925C106.078 44.925 105.541 46.5038 105.541 48.7295Z" fill="#DE8E68"/>
</g>
</g>
<defs>
<clipPath id="clip0_1135_2949">
<rect width="133" height="165.006" fill="white" transform="translate(-9 0.92215)"/>
</clipPath>
</defs>
</svg>
