<svg width="50" height="50" viewBox="0 0 50 50" fill="none" xmlns="http://www.w3.org/2000/svg">
<g clip-path="url(#clip0_1135_4617)">
<path d="M7.29163 39.5833C8.12043 39.5833 8.91528 39.9126 9.50134 40.4986C10.0874 41.0847 10.4166 41.8795 10.4166 42.7083C10.4166 43.5371 10.0874 44.332 9.50134 44.918C8.91528 45.5041 8.12043 45.8333 7.29163 45.8333C6.46282 45.8333 5.66797 45.5041 5.08192 44.918C4.49587 44.332 4.16663 43.5371 4.16663 42.7083C4.16663 41.8795 4.49587 41.0847 5.08192 40.4986C5.66797 39.9126 6.46282 39.5833 7.29163 39.5833ZM17.7083 33.3333C19.0896 33.3333 20.4144 33.8821 21.3911 34.8588C22.3679 35.8356 22.9166 37.1603 22.9166 38.5417C22.9166 39.923 22.3679 41.2478 21.3911 42.2245C20.4144 43.2013 19.0896 43.75 17.7083 43.75C16.327 43.75 15.0022 43.2013 14.0254 42.2245C13.0487 41.2478 12.5 39.923 12.5 38.5417C12.5 37.1603 13.0487 35.8356 14.0254 34.8588C15.0022 33.8821 16.327 33.3333 17.7083 33.3333ZM30.2083 31.25C27.7291 31.25 25.4791 30.2083 23.9583 28.4375C22.4375 30.2083 20.1875 31.25 17.7083 31.25C13.625 31.25 10.2291 28.3125 9.52079 24.4583C7.94746 23.8499 6.59453 22.7805 5.63918 21.3902C4.68382 19.9999 4.17057 18.3536 4.16663 16.6667C4.16663 14.4565 5.0446 12.3369 6.6074 10.7741C8.17021 9.21131 10.2898 8.33333 12.5 8.33333L14.1041 8.47917C15.625 7.10417 17.6041 6.25 19.7916 6.25C22.2708 6.25 24.5208 7.29167 26.0416 9.0625C27.5625 7.29167 29.8125 6.25 32.2916 6.25C36.375 6.25 39.7708 9.1875 40.4791 13.0417C42.0525 13.6501 43.4054 14.7195 44.3607 16.1098C45.3161 17.5001 45.8294 19.1464 45.8333 20.8333C45.8333 23.0435 44.9553 25.1631 43.3925 26.7259C41.8297 28.2887 39.7101 29.1667 37.5 29.1667L35.8958 29.0208C34.375 30.3958 32.3958 31.25 30.2083 31.25ZM12.5 12.5C11.3949 12.5 10.3351 12.939 9.55368 13.7204C8.77228 14.5018 8.33329 15.5616 8.33329 16.6667C8.33329 17.7717 8.77228 18.8315 9.55368 19.6129C10.3351 20.3943 11.3949 20.8333 12.5 20.8333C13.1875 20.8333 13.8333 20.6667 14.4166 20.375C13.8522 21.1023 13.5445 21.996 13.5416 22.9167C13.5416 24.0217 13.9806 25.0815 14.762 25.8629C15.5434 26.6443 16.6032 27.0833 17.7083 27.0833C18.9583 27.0833 20.0833 26.5208 20.8333 25.6458L23.8958 22.1458L27.0833 25.7083C27.875 26.5417 28.9791 27.0833 30.2083 27.0833C32.2916 27.0833 34.0208 25.5417 34.375 23.5417C35.0833 24.4375 36.2291 25 37.5 25C38.605 25 39.6648 24.561 40.4462 23.7796C41.2276 22.9982 41.6666 21.9384 41.6666 20.8333C41.6666 19.7283 41.2276 18.6685 40.4462 17.8871C39.6648 17.1057 38.605 16.6667 37.5 16.6667C36.8125 16.6667 36.1666 16.8333 35.5833 17.125C36.1477 16.3977 36.4554 15.504 36.4583 14.5833C36.4583 13.4783 36.0193 12.4185 35.2379 11.6371C34.4565 10.8557 33.3967 10.4167 32.2916 10.4167C31.0625 10.4167 29.9583 10.9583 29.1666 11.7917L25.9791 15.3542L22.9166 11.8542C22.1666 10.9792 21.0416 10.4167 19.7916 10.4167C17.7083 10.4167 15.9791 11.9583 15.625 13.9583C14.9166 13.0625 13.7708 12.5 12.5 12.5ZM17.7083 36.4583C17.1558 36.4583 16.6259 36.6778 16.2352 37.0685C15.8445 37.4592 15.625 37.9891 15.625 38.5417C15.625 39.0942 15.8445 39.6241 16.2352 40.0148C16.6259 40.4055 17.1558 40.625 17.7083 40.625C18.2608 40.625 18.7907 40.4055 19.1814 40.0148C19.5721 39.6241 19.7916 39.0942 19.7916 38.5417C19.7916 37.9891 19.5721 37.4592 19.1814 37.0685C18.7907 36.6778 18.2608 36.4583 17.7083 36.4583Z" fill="#9A4FCB" fill-opacity="0.4"/>
<circle cx="39.9565" cy="38.0435" r="11.9565" fill="white"/>
<path d="M36.1699 31.1594C36.0483 31.1595 35.9289 31.1938 35.8242 31.2589C35.7195 31.3239 35.6334 31.4172 35.5749 31.5291L33.084 36.2807C33.0183 36.406 32.9901 36.5491 33.0031 36.6915C33.016 36.8339 33.0694 36.9689 33.1564 37.0789L39.7233 45.3942C39.787 45.4749 39.867 45.5399 39.9574 45.5845C40.0478 45.6291 40.1465 45.6522 40.2464 45.6522C40.3463 45.6522 40.445 45.6291 40.5354 45.5845C40.6258 45.5399 40.7057 45.4749 40.7695 45.3942L47.3363 37.0789C47.4233 36.9689 47.4768 36.8339 47.4897 36.6915C47.5026 36.5491 47.4744 36.406 47.4088 36.2807L44.9179 31.5291C44.8593 31.4171 44.773 31.3237 44.6682 31.2586C44.5633 31.1936 44.4437 31.1593 44.3219 31.1594H36.1699ZM34.9526 35.6734L36.5712 32.5849H37.9299L36.8991 35.6734H34.9526ZM36.7533 37.0989L38.5005 41.611L34.9363 37.0989H36.7533ZM40.236 42.3076L38.2197 37.0989H42.1924L40.236 42.3076ZM38.3393 35.6734L39.3691 32.5849H41.1309L42.2151 35.6734H38.3393ZM43.6634 35.6734L42.5792 32.5849H43.9197L45.5393 35.6734H43.6634ZM43.6525 37.0989H45.5547L41.927 41.6927L43.6525 37.0989Z" fill="#9A4FCB" fill-opacity="0.4"/>
</g>
<defs>
<clipPath id="clip0_1135_4617">
<rect width="50" height="50" fill="white"/>
</clipPath>
</defs>
</svg>
