<svg width="69" height="69" viewBox="0 0 69 69" fill="none" xmlns="http://www.w3.org/2000/svg">
<path d="M10.0625 54.625C11.2062 54.625 12.3031 55.0794 13.1119 55.8881C13.9206 56.6969 14.375 57.7938 14.375 58.9375C14.375 60.0812 13.9206 61.1781 13.1119 61.9869C12.3031 62.7956 11.2062 63.25 10.0625 63.25C8.91875 63.25 7.82185 62.7956 7.0131 61.9869C6.20435 61.1781 5.75 60.0812 5.75 58.9375C5.75 57.7938 6.20435 56.6969 7.0131 55.8881C7.82185 55.0794 8.91875 54.625 10.0625 54.625ZM24.4375 46C26.3437 46 28.1719 46.7573 29.5198 48.1052C30.8677 49.4531 31.625 51.2813 31.625 53.1875C31.625 55.0937 30.8677 56.9219 29.5198 58.2698C28.1719 59.6177 26.3437 60.375 24.4375 60.375C22.5313 60.375 20.7031 59.6177 19.3552 58.2698C18.0073 56.9219 17.25 55.0937 17.25 53.1875C17.25 51.2813 18.0073 49.4531 19.3552 48.1052C20.7031 46.7573 22.5313 46 24.4375 46ZM41.6875 43.125C38.2663 43.125 35.1612 41.6875 33.0625 39.2437C30.9638 41.6875 27.8587 43.125 24.4375 43.125C18.8025 43.125 14.1163 39.0712 13.1388 33.7525C10.9675 32.9128 9.10051 31.4371 7.78212 29.5185C6.46373 27.5999 5.75544 25.3279 5.75 23C5.75 19.95 6.9616 17.0249 9.11827 14.8683C11.2749 12.7116 14.2 11.5 17.25 11.5L19.4637 11.7013C21.5625 9.80375 24.2938 8.625 27.3125 8.625C30.7337 8.625 33.8388 10.0625 35.9375 12.5062C38.0363 10.0625 41.1413 8.625 44.5625 8.625C50.1975 8.625 54.8838 12.6788 55.8613 17.9975C58.0325 18.8372 59.8995 20.3129 61.2179 22.2315C62.5363 24.1501 63.2446 26.4221 63.25 28.75C63.25 31.8 62.0384 34.7251 59.8817 36.8817C57.7251 39.0384 54.8 40.25 51.75 40.25L49.5362 40.0488C47.4375 41.9463 44.7062 43.125 41.6875 43.125ZM17.25 17.25C15.725 17.25 14.2625 17.8558 13.1841 18.9341C12.1058 20.0125 11.5 21.475 11.5 23C11.5 24.525 12.1058 25.9875 13.1841 27.0659C14.2625 28.1442 15.725 28.75 17.25 28.75C18.1988 28.75 19.09 28.52 19.895 28.1175C19.1161 29.1212 18.6915 30.3545 18.6875 31.625C18.6875 33.15 19.2933 34.6125 20.3716 35.6909C21.45 36.7692 22.9125 37.375 24.4375 37.375C26.1625 37.375 27.715 36.5988 28.75 35.3913L32.9763 30.5613L37.375 35.4775C38.4675 36.6275 39.9912 37.375 41.6875 37.375C44.5625 37.375 46.9487 35.2475 47.4375 32.4875C48.415 33.7238 49.9963 34.5 51.75 34.5C53.275 34.5 54.7375 33.8942 55.8159 32.8159C56.8942 31.7375 57.5 30.275 57.5 28.75C57.5 27.225 56.8942 25.7625 55.8159 24.6841C54.7375 23.6058 53.275 23 51.75 23C50.8013 23 49.91 23.23 49.105 23.6325C49.8839 22.6288 50.3085 21.3955 50.3125 20.125C50.3125 18.6 49.7067 17.1375 48.6284 16.0591C47.55 14.9808 46.0875 14.375 44.5625 14.375C42.8662 14.375 41.3425 15.1225 40.25 16.2725L35.8513 21.1887L31.625 16.3588C30.59 15.1513 29.0375 14.375 27.3125 14.375C24.4375 14.375 22.0513 16.5025 21.5625 19.2625C20.585 18.0262 19.0037 17.25 17.25 17.25ZM24.4375 50.3125C23.675 50.3125 22.9437 50.6154 22.4046 51.1546C21.8654 51.6937 21.5625 52.425 21.5625 53.1875C21.5625 53.95 21.8654 54.6813 22.4046 55.2204C22.9437 55.7596 23.675 56.0625 24.4375 56.0625C25.2 56.0625 25.9313 55.7596 26.4704 55.2204C27.0096 54.6813 27.3125 53.95 27.3125 53.1875C27.3125 52.425 27.0096 51.6937 26.4704 51.1546C25.9313 50.6154 25.2 50.3125 24.4375 50.3125Z" fill="#9A4FCB"/>
</svg>
