<svg width="26" height="26" viewBox="0 0 26 26" fill="none" xmlns="http://www.w3.org/2000/svg">
<path d="M13 18.8094C12.7833 18.8094 12.5802 18.7752 12.3906 18.707C12.201 18.6398 12.025 18.525 11.8625 18.3625L6.0125 12.5125C5.71458 12.2146 5.56563 11.8354 5.56563 11.375C5.56563 10.9146 5.71458 10.5354 6.0125 10.2375C6.31042 9.93958 6.69608 9.78358 7.1695 9.7695C7.644 9.7565 8.03021 9.89896 8.32812 10.1969L11.375 13.2437V1.625C11.375 1.16458 11.531 0.778375 11.843 0.466375C12.1539 0.155459 12.5396 0 13 0C13.4604 0 13.8466 0.155459 14.1586 0.466375C14.4695 0.778375 14.625 1.16458 14.625 1.625V13.2437L17.6719 10.1969C17.9698 9.89896 18.356 9.7565 18.8305 9.7695C19.3039 9.78358 19.6896 9.93958 19.9875 10.2375C20.2854 10.5354 20.4344 10.9146 20.4344 11.375C20.4344 11.8354 20.2854 12.2146 19.9875 12.5125L14.1375 18.3625C13.975 18.525 13.799 18.6398 13.6094 18.707C13.4198 18.7752 13.2167 18.8094 13 18.8094ZM3.25 26C2.35625 26 1.59142 25.682 0.9555 25.0461C0.3185 24.4091 0 23.6437 0 22.75V19.5C0 19.0396 0.155459 18.6534 0.466375 18.3414C0.778375 18.0305 1.16458 17.875 1.625 17.875C2.08542 17.875 2.47162 18.0305 2.78362 18.3414C3.09454 18.6534 3.25 19.0396 3.25 19.5V22.75H22.75V19.5C22.75 19.0396 22.906 18.6534 23.218 18.3414C23.5289 18.0305 23.9146 17.875 24.375 17.875C24.8354 17.875 25.2211 18.0305 25.532 18.3414C25.844 18.6534 26 19.0396 26 19.5V22.75C26 23.6437 25.682 24.4091 25.0461 25.0461C24.4091 25.682 23.6437 26 22.75 26H3.25Z" fill="#8446FF"/>
</svg>
