<svg width="52" height="51" viewBox="0 0 52 51" fill="none" xmlns="http://www.w3.org/2000/svg">
<g style="mix-blend-mode:luminosity">
<path d="M26.4901 51.0003C12.4068 51.0003 0.989975 39.5835 0.989975 25.5001C0.989975 11.4168 12.4068 0 26.4901 0C40.5734 0 51.9902 11.4168 51.9902 25.5001C51.9902 39.5835 40.5734 51.0003 26.4901 51.0003Z" fill="#D70000"/>
<path d="M29.842 21.1166C29.9243 21.1713 30.0232 21.1955 30.1216 21.1849C30.2199 21.1743 30.3114 21.1295 30.3801 21.0584L30.4245 21.013C30.5186 20.9157 30.6148 20.8184 30.7121 20.7233L30.9934 20.4484C31.0843 20.3606 31.1773 20.275 31.2714 20.1893C31.3655 20.1037 31.4522 20.0254 31.5432 19.9451C31.6341 19.8647 31.7208 19.7907 31.8117 19.7156C31.9026 19.6406 31.9862 19.5708 32.0739 19.5042C32.1617 19.4376 32.2452 19.3688 32.333 19.3022C32.4207 19.2356 32.5011 19.1754 32.5857 19.113C32.6702 19.0506 32.7495 18.9956 32.8341 18.9385C32.9187 18.8814 32.9959 18.8328 33.0773 18.7757C33.1587 18.7186 33.2359 18.67 33.3163 18.6245C33.3966 18.579 33.4706 18.5315 33.5499 18.4849C33.6292 18.4384 33.7011 18.3982 33.7783 18.357C33.8555 18.3158 33.9274 18.2777 34.0014 18.2396L34.2213 18.1339C34.2922 18.1001 34.3641 18.0684 34.4328 18.0366C34.5015 18.0049 34.5723 17.9785 34.6442 17.9499C34.7161 17.9214 34.7785 17.8971 34.8472 17.8728C34.916 17.8484 34.9794 17.8262 35.046 17.804C35.1126 17.7818 35.1761 17.7617 35.2406 17.7427C35.3051 17.7237 35.3653 17.7068 35.4288 17.6909C35.4922 17.675 35.5504 17.6602 35.6127 17.6465C35.6751 17.6327 35.7312 17.6201 35.7904 17.6084C35.8496 17.5968 35.9067 17.5873 35.9638 17.5778C36.0209 17.5683 36.0769 17.5598 36.1329 17.5524L36.2958 17.5344C36.3476 17.5291 36.4015 17.526 36.4533 17.5217L36.6055 17.5133C36.6552 17.5133 36.7039 17.5133 36.7536 17.5133H36.8963H37.0327L37.1596 17.5207L37.2875 17.5323L37.408 17.5503L37.463 17.5587C38.1112 17.6497 38.3966 17.4128 38.5119 17.1104C38.6916 16.6378 38.3723 16.125 37.8775 16.0182C34.0437 15.1861 31.2165 18.2862 29.7235 20.5382C29.664 20.631 29.643 20.7434 29.6651 20.8515C29.6873 20.9595 29.7507 21.0546 29.842 21.1166V21.1166Z" fill="white"/>
<path d="M33.6435 27.722C31.9519 27.722 30.5805 25.9455 30.5805 23.754C30.5805 21.5625 31.9519 19.7859 33.6435 19.7859C35.3352 19.7859 36.7065 21.5625 36.7065 23.754C36.7065 25.9455 35.3352 27.722 33.6435 27.722Z" fill="white"/>
<path d="M33.6435 27.722C31.9519 27.722 30.5805 25.9455 30.5805 23.754C30.5805 21.5625 31.9519 19.7859 33.6435 19.7859C35.3352 19.7859 36.7065 21.5625 36.7065 23.754C36.7065 25.9455 35.3352 27.722 33.6435 27.722Z" fill="white"/>
<path d="M23.1567 21.1152C23.0742 21.1703 22.9751 21.1946 22.8765 21.184C22.778 21.1733 22.6863 21.1284 22.6174 21.0571L22.573 21.0116C22.4789 20.9143 22.3827 20.8171 22.2865 20.7219C22.1903 20.6268 22.0994 20.5379 22.0042 20.447C21.909 20.3561 21.8202 20.2736 21.7272 20.188C21.6341 20.1023 21.5464 20.0241 21.4544 19.9437C21.3624 19.8634 21.2768 19.7894 21.1859 19.7143C21.0949 19.6392 21.0114 19.5694 20.9236 19.5028C20.8359 19.4362 20.7524 19.3675 20.6657 19.3009L20.413 19.1116C20.3305 19.0535 20.248 18.9943 20.1634 18.9372C20.0789 18.8801 20.0027 18.8314 19.9203 18.7744C19.8378 18.7173 19.7617 18.6686 19.6813 18.6232C19.6009 18.5777 19.5269 18.5301 19.4476 18.4836C19.3683 18.4371 19.2964 18.3969 19.2193 18.3557C19.1421 18.3144 19.0702 18.2764 18.9962 18.2383L18.7773 18.1326C18.7065 18.0987 18.6346 18.067 18.5658 18.0353C18.4971 18.0036 18.4273 17.9771 18.3544 17.9486C18.2814 17.92 18.2201 17.8957 18.1514 17.8714C18.0827 17.8471 18.0192 17.8249 17.9526 17.8027C17.886 17.7805 17.8236 17.7604 17.7581 17.7414C17.6925 17.7223 17.6333 17.7054 17.5709 17.6896C17.5085 17.6737 17.4483 17.6589 17.3859 17.6451C17.3235 17.6314 17.2675 17.6187 17.2083 17.6071C17.1491 17.5955 17.092 17.5859 17.0349 17.5764L16.8668 17.551L16.7039 17.5331C16.6511 17.5278 16.5982 17.5246 16.5453 17.5204L16.3931 17.5119H16.2461H16.1034H15.9659L15.839 17.5193L15.7111 17.531L15.5874 17.5458L15.5335 17.5542C14.8854 17.6451 14.5988 17.4083 14.4836 17.1059C14.3038 16.6333 14.6231 16.1205 15.118 16.0137C18.9518 15.1816 21.779 18.2816 23.2719 20.5337C23.3328 20.6264 23.3548 20.7393 23.3332 20.848C23.3117 20.9568 23.2483 21.0528 23.1567 21.1152V21.1152Z" fill="white"/>
<path d="M19.3535 27.722C17.6618 27.722 16.2905 25.9455 16.2905 23.754C16.2905 21.5625 17.6618 19.7859 19.3535 19.7859C21.0451 19.7859 22.4165 21.5625 22.4165 23.754C22.4165 25.9455 21.0451 27.722 19.3535 27.722Z" fill="white"/>
<path d="M19.3535 27.722C17.6618 27.722 16.2905 25.9455 16.2905 23.754C16.2905 21.5625 17.6618 19.7859 19.3535 19.7859C21.0451 19.7859 22.4165 21.5625 22.4165 23.754C22.4165 25.9455 21.0451 27.722 19.3535 27.722Z" fill="white"/>
<path d="M33.9358 41.1453C33.9762 41.1767 34.0254 41.1947 34.0765 41.1967C34.1276 41.1987 34.1781 41.1847 34.2209 41.1566C34.2637 41.1285 34.2966 41.0878 34.315 41.0401C34.3335 40.9923 34.3366 40.94 34.3238 40.8905C33.4473 37.6202 30.2648 35.1969 26.4723 35.1969C22.6797 35.1969 19.494 37.6224 18.6196 40.8947C18.6066 40.9444 18.6096 40.997 18.628 41.045C18.6465 41.0929 18.6796 41.1339 18.7225 41.1621C18.7655 41.1902 18.8163 41.2042 18.8677 41.2019C18.919 41.1997 18.9684 41.1813 19.0087 41.1495C20.895 39.737 23.5425 38.8573 26.4723 38.8573C29.4021 38.8573 32.0474 39.737 33.9358 41.1453Z" fill="white"/>
<path d="M33.9358 41.1453C33.9762 41.1767 34.0254 41.1947 34.0765 41.1967C34.1276 41.1987 34.1781 41.1847 34.2209 41.1566C34.2637 41.1285 34.2966 41.0878 34.315 41.0401C34.3335 40.9923 34.3366 40.94 34.3238 40.8905C33.4473 37.6202 30.2648 35.1969 26.4723 35.1969C22.6797 35.1969 19.494 37.6224 18.6196 40.8947C18.6066 40.9444 18.6096 40.997 18.628 41.045C18.6465 41.0929 18.6796 41.1339 18.7225 41.1621C18.7655 41.1902 18.8163 41.2042 18.8677 41.2019C18.919 41.1997 18.9684 41.1813 19.0087 41.1495C20.895 39.737 23.5425 38.8573 26.4723 38.8573C29.4021 38.8573 32.0474 39.737 33.9358 41.1453Z" fill="white"/>
</g>
</svg>
