<svg width="52" height="51" viewBox="0 0 52 51" fill="none" xmlns="http://www.w3.org/2000/svg">
<g style="mix-blend-mode:luminosity">
<path d="M26.4066 51.0003C12.3233 51.0003 0.906479 39.5835 0.906479 25.5001C0.906479 11.4168 12.3233 0 26.4066 0C40.4899 0 51.9067 11.4168 51.9067 25.5001C51.9067 39.5835 40.4899 51.0003 26.4066 51.0003Z" fill="#D78100"/>
<path d="M30.0665 25.086C29.9702 25.183 29.9051 25.3067 29.8799 25.4411C29.8546 25.5755 29.8703 25.7144 29.9249 25.8398C31.1778 28.7189 34.1139 30.7394 37.5375 30.7394C40.961 30.7394 43.894 28.7189 45.1501 25.8409C45.2038 25.7145 45.2183 25.5749 45.1915 25.4403C45.1647 25.3056 45.0979 25.1821 44.9999 25.086V25.086C44.875 24.963 44.7075 24.8929 44.5322 24.8903C44.3569 24.8878 44.1874 24.9529 44.0589 25.0722C42.4962 26.4848 40.1532 27.3824 37.5332 27.3824C34.9132 27.3824 32.5639 26.4848 31.0054 25.0712C30.877 24.9513 30.7072 24.8858 30.5316 24.8884C30.356 24.8909 30.1882 24.9614 30.0634 25.0849L30.0665 25.086Z" fill="white"/>
<path d="M7.76461 25.086C7.66798 25.1828 7.60278 25.3066 7.57751 25.441C7.55224 25.5755 7.56807 25.7145 7.62293 25.8398C8.87478 28.7189 11.812 30.7394 15.2355 30.7394C18.6591 30.7394 21.5931 28.7189 22.8481 25.8409C22.9031 25.7153 22.9189 25.5761 22.8934 25.4414C22.868 25.3067 22.8024 25.1828 22.7054 25.086V25.086C22.5805 24.963 22.4129 24.8929 22.2377 24.8903C22.0624 24.8878 21.8929 24.9529 21.7644 25.0722C20.2028 26.4848 17.8598 27.3824 15.2387 27.3824C12.6176 27.3824 10.2694 26.4848 8.71195 25.0712C8.58356 24.9513 8.41377 24.8858 8.23815 24.8884C8.06254 24.8909 7.89474 24.9614 7.76989 25.0849L7.76461 25.086Z" fill="white"/>
<path d="M30.0665 25.086C29.9702 25.183 29.9051 25.3067 29.8799 25.4411C29.8546 25.5755 29.8703 25.7144 29.9249 25.8398C31.1778 28.7189 34.1139 30.7394 37.5375 30.7394C40.961 30.7394 43.894 28.7189 45.1501 25.8409C45.2038 25.7145 45.2183 25.5749 45.1915 25.4403C45.1647 25.3056 45.0979 25.1821 44.9999 25.086V25.086C44.875 24.963 44.7075 24.8929 44.5322 24.8903C44.3569 24.8878 44.1874 24.9529 44.0589 25.0722C42.4962 26.4848 40.1532 27.3824 37.5332 27.3824C34.9132 27.3824 32.5639 26.4848 31.0054 25.0712C30.877 24.9513 30.7072 24.8858 30.5316 24.8884C30.356 24.8909 30.1882 24.9614 30.0634 25.0849L30.0665 25.086Z" fill="white"/>
<path d="M7.76461 25.086C7.66798 25.1828 7.60278 25.3066 7.57751 25.441C7.55224 25.5755 7.56807 25.7145 7.62293 25.8398C8.87478 28.7189 11.812 30.7394 15.2355 30.7394C18.6591 30.7394 21.5931 28.7189 22.8481 25.8409C22.9031 25.7153 22.9189 25.5761 22.8934 25.4414C22.868 25.3067 22.8024 25.1828 22.7054 25.086V25.086C22.5805 24.963 22.4129 24.8929 22.2377 24.8903C22.0624 24.8878 21.8929 24.9529 21.7644 25.0722C20.2028 26.4848 17.8598 27.3824 15.2387 27.3824C12.6176 27.3824 10.2694 26.4848 8.71195 25.0712C8.58356 24.9513 8.41377 24.8858 8.23815 24.8884C8.06254 24.8909 7.89474 24.9614 7.76989 25.0849L7.76461 25.086Z" fill="white"/>
<path d="M14.6176 14.4293C14.1947 15.3015 11.4594 20.4739 6.53553 19.683C6.38132 19.6613 6.23912 19.5877 6.13242 19.4743C6.02573 19.3609 5.96093 19.2144 5.94872 19.0592C5.93921 18.8668 6.01428 18.6627 6.286 18.5189C7.4649 17.8972 10.253 18.2303 13.0686 14.8871C13.3102 14.5931 13.5368 14.2872 13.7474 13.9704C13.9018 13.7441 14.1703 13.4417 14.4537 13.5358C14.6958 13.6204 14.7381 13.853 14.7275 14.037C14.7176 14.1738 14.6802 14.3072 14.6176 14.4293Z" fill="white"/>
<path d="M38.1441 14.4461C38.567 15.3162 41.3245 20.4791 46.2452 19.6702C46.3993 19.648 46.5413 19.5739 46.6476 19.4601C46.7539 19.3463 46.8182 19.1996 46.8298 19.0443C46.8356 18.9304 46.8062 18.8175 46.7454 18.721C46.6847 18.6245 46.5956 18.5491 46.4905 18.5051C45.3105 17.8876 42.5224 18.2312 39.6962 14.8933C39.4539 14.5998 39.2267 14.2942 39.0153 13.9777C38.8599 13.7525 38.5924 13.449 38.3069 13.5474C38.0648 13.6319 38.0235 13.8646 38.0341 14.0496C38.0441 14.1877 38.0815 14.3225 38.1441 14.4461V14.4461Z" fill="white"/>
<path d="M22.8818 38.5138H29.9615C30.6354 38.5138 31.1816 39.0598 31.1816 39.7334C31.1816 40.407 30.6354 40.953 29.9615 40.953H22.8818C22.2079 40.953 21.6616 40.407 21.6616 39.7334C21.6616 39.0598 22.2079 38.5138 22.8818 38.5138Z" fill="white"/>
<path d="M22.8818 38.5138H29.9615C30.6354 38.5138 31.1816 39.0598 31.1816 39.7334C31.1816 40.407 30.6354 40.953 29.9615 40.953H22.8818C22.2079 40.953 21.6616 40.407 21.6616 39.7334C21.6616 39.0598 22.2079 38.5138 22.8818 38.5138Z" fill="white"/>
</g>
</svg>
