<svg width="52" height="51" viewBox="0 0 52 51" fill="none" xmlns="http://www.w3.org/2000/svg">
<path d="M26.1316 50.4877C12.1898 50.4877 0.887775 39.1857 0.887775 25.2439C0.887775 11.3021 12.1898 0 26.1316 0C40.0734 0 51.3755 11.3021 51.3755 25.2439C51.3755 39.1857 40.0734 50.4877 26.1316 50.4877Z" fill="#35CD00"/>
<path d="M16.0365 33.8984C16.0162 33.886 15.9923 33.8808 15.9687 33.8838C15.9451 33.8867 15.9232 33.8976 15.9066 33.9147C15.89 33.9318 15.8798 33.954 15.8775 33.9776C15.8752 34.0013 15.8811 34.0251 15.8941 34.045C16.0901 34.3249 16.3063 34.5901 16.541 34.8384C16.6268 34.9284 16.7127 35.0184 16.8006 35.1063C16.8885 35.1942 16.9827 35.2748 17.0738 35.3596C17.1648 35.4444 17.259 35.5292 17.3553 35.6077L17.6484 35.84C18.449 36.4481 19.3219 36.9544 20.2473 37.3473C24.0257 38.8552 28.2388 38.8552 32.0172 37.3473C32.9407 36.9548 33.812 36.4492 34.6109 35.8421L34.904 35.6098C35.0003 35.5302 35.0934 35.4454 35.1855 35.3617C35.2776 35.278 35.3697 35.1963 35.4587 35.1084C35.5477 35.0205 35.6325 34.9294 35.7183 34.8405C35.9534 34.5907 36.1699 34.3242 36.3662 34.0429C36.3792 34.023 36.3851 33.9992 36.3828 33.9755C36.3806 33.9519 36.3703 33.9297 36.3537 33.9126C36.3371 33.8955 36.3152 33.8846 36.2916 33.8817C36.268 33.8787 36.2441 33.8839 36.2238 33.8963C35.5427 34.3048 34.8297 34.6576 34.0917 34.9514C33.2452 35.2915 32.3757 35.5713 31.4897 35.7887C27.958 36.5828 24.294 36.5828 20.7623 35.7887C19.8761 35.5719 19.0065 35.2921 18.1602 34.9514C17.4251 34.6582 16.7149 34.3061 16.0365 33.8984Z" fill="white"/>
<path d="M16.059 33.8974C16.0387 33.8855 16.015 33.8807 15.9917 33.8839C15.9684 33.8871 15.9469 33.898 15.9306 33.915C15.9143 33.9319 15.9041 33.9538 15.9018 33.9772C15.8994 34.0006 15.905 34.0241 15.9177 34.0439C16.1136 34.3239 16.3298 34.589 16.5645 34.8373C16.6504 34.9273 16.7352 35.0174 16.8241 35.1053C16.9131 35.1932 17.0062 35.2738 17.0973 35.3586C17.1884 35.4434 17.2815 35.5281 17.3789 35.6066L17.6719 35.839C18.4727 36.4474 19.346 36.9537 20.2719 37.3462C24.0507 38.8541 28.2641 38.8541 32.0429 37.3462C32.9682 36.953 33.8412 36.4463 34.6418 35.838L34.9348 35.6056C35.0311 35.526 35.1232 35.4413 35.2154 35.3575C35.3075 35.2738 35.4006 35.1922 35.4885 35.1042C35.5765 35.0163 35.6623 34.9253 35.7481 34.8363C35.9816 34.5876 36.1964 34.3221 36.3908 34.0419C36.4034 34.022 36.409 33.9985 36.4067 33.9751C36.4044 33.9517 36.3942 33.9298 36.3779 33.9129C36.3616 33.8959 36.34 33.885 36.3167 33.8818C36.2934 33.8786 36.2697 33.8834 36.2495 33.8953C35.5679 34.3038 34.8546 34.6566 34.1163 34.9504C33.2702 35.2906 32.401 35.5704 31.5153 35.7877C27.9836 36.5818 24.3196 36.5818 20.7879 35.7877C19.9017 35.571 19.0321 35.2912 18.1859 34.9504C17.4497 34.6573 16.7384 34.3052 16.059 33.8974Z" fill="white"/>
<path d="M18.7135 24.6289C17.2047 24.6289 15.9816 22.7942 15.9816 20.5311C15.9816 18.268 17.2047 16.4333 18.7135 16.4333C20.2222 16.4333 21.4453 18.268 21.4453 20.5311C21.4453 22.7942 20.2222 24.6289 18.7135 24.6289Z" fill="white"/>
<path d="M18.7135 24.6289C17.2047 24.6289 15.9816 22.7942 15.9816 20.5311C15.9816 18.268 17.2047 16.4333 18.7135 16.4333C20.2222 16.4333 21.4453 18.268 21.4453 20.5311C21.4453 22.7942 20.2222 24.6289 18.7135 24.6289Z" fill="white"/>
<path d="M33.4659 24.6296C31.9572 24.6296 30.7341 22.795 30.7341 20.5318C30.7341 18.2687 31.9572 16.4341 33.4659 16.4341C34.9747 16.4341 36.1978 18.2687 36.1978 20.5318C36.1978 22.795 34.9747 24.6296 33.4659 24.6296Z" fill="white"/>
<path d="M33.4659 24.6296C31.9572 24.6296 30.7341 22.795 30.7341 20.5318C30.7341 18.2687 31.9572 16.4341 33.4659 16.4341C34.9747 16.4341 36.1978 18.2687 36.1978 20.5318C36.1978 22.795 34.9747 24.6296 33.4659 24.6296Z" fill="white"/>
</svg>
