<svg width="51" height="51" viewBox="0 0 51 51" fill="none" xmlns="http://www.w3.org/2000/svg">
<path d="M25.2955 50.5596C11.3339 50.5596 0.0158348 39.2415 0.0158348 25.2799C0.0158348 11.3183 11.3339 0.000244141 25.2955 0.000244141C39.2571 0.000244141 50.5752 11.3183 50.5752 25.2799C50.5752 39.2415 39.2571 50.5596 25.2955 50.5596Z" fill="url(#paint0_linear_756_149)"/>
<path d="M8.60013 32.0662C10.1231 35.1973 12.496 37.837 15.4478 39.6837C18.3997 41.5304 21.8113 42.5097 25.2932 42.5097C28.7751 42.5097 32.1868 41.5304 35.1386 39.6837C38.0904 37.837 40.4633 35.1973 41.9863 32.0662C37.1176 33.7663 31.3998 34.7453 25.2932 34.7453C19.1866 34.7453 13.4689 33.7663 8.60013 32.0662Z" fill="white"/>
<path d="M7.02259 27.2037C7.04146 27.3086 7.06138 27.4134 7.08234 27.5234C7.1033 27.6335 7.12007 27.7163 7.14104 27.8117C7.14104 27.8305 7.14837 27.8484 7.15257 27.8662C7.17248 27.9637 7.1945 28.0601 7.21651 28.1565C7.23852 28.2529 7.25843 28.3316 7.28044 28.4186C7.29302 28.471 7.3056 28.5234 7.32028 28.5758C7.32552 28.5988 7.3318 28.623 7.33809 28.646C7.35172 28.7005 7.36639 28.7508 7.38106 28.8085C7.38106 28.8294 7.39155 28.8504 7.39784 28.8714C7.4181 28.9454 7.43906 29.0199 7.46073 29.0946C7.48903 29.1994 7.51943 29.2959 7.54982 29.3965V29.4028C7.57917 29.4971 7.60852 29.5925 7.63997 29.6868C7.7081 29.8965 7.77937 30.1061 7.8496 30.3157C7.88628 30.4206 7.92402 30.5159 7.96175 30.6145C7.99949 30.713 8.02674 30.7822 8.06028 30.866C8.11059 30.9918 8.1651 31.1165 8.21541 31.2402C8.25 31.322 8.28563 31.4037 8.32022 31.4844L8.32546 31.4949C8.36005 31.5735 8.39569 31.6511 8.43028 31.7287L8.48689 31.8503C8.52147 31.9236 8.55606 31.997 8.5917 32.0693C13.4604 33.7694 19.1782 34.7484 25.2848 34.7484C31.3914 34.7484 37.1092 33.7694 41.9779 32.0693C42.0135 31.997 42.0481 31.9236 42.0827 31.8503L42.1393 31.7287C42.175 31.6511 42.2106 31.5735 42.2441 31.4949L42.2494 31.4844C42.285 31.4037 42.3207 31.322 42.3542 31.2402C42.4076 31.1165 42.459 30.9918 42.5093 30.866C42.5429 30.7822 42.5754 30.6983 42.6078 30.6145C42.6403 30.5306 42.6833 30.4164 42.72 30.3157C42.7955 30.1061 42.8667 29.9017 42.9349 29.6868C42.9663 29.5925 42.9957 29.4971 43.025 29.4028V29.3965C43.0554 29.2917 43.0858 29.1952 43.1141 29.0946C43.1365 29.0206 43.1574 28.9461 43.177 28.8714C43.1833 28.8504 43.1885 28.8294 43.1938 28.8085C43.2084 28.755 43.2231 28.7037 43.2367 28.646C43.243 28.623 43.2493 28.5988 43.2546 28.5758C43.2692 28.5234 43.2818 28.471 43.2944 28.4186C43.3164 28.3316 43.3374 28.2435 43.3583 28.1565C43.3793 28.0695 43.4024 27.9637 43.4223 27.8662C43.4223 27.8484 43.4307 27.8305 43.4338 27.8117C43.4548 27.7163 43.4736 27.6199 43.4925 27.5234C43.5114 27.427 43.5334 27.3138 43.5522 27.2037C38.3596 29.2634 32.0643 30.4698 25.2806 30.4698C18.4969 30.4698 12.2152 29.2634 7.02259 27.2037Z" fill="white"/>
<path d="M8.60013 32.0662C13.4689 33.7663 19.1866 34.7453 25.2932 34.7453C31.3998 34.7453 37.1176 33.7663 41.9863 32.0662" fill="white"/>
<mask id="mask0_756_149" style="mask-type:alpha" maskUnits="userSpaceOnUse" x="7" y="27" width="37" height="16">
<path d="M7.60226 27.3261C7.54441 27.3041 7.48171 27.2981 7.42072 27.3087C7.35973 27.3192 7.30272 27.346 7.25565 27.3862C7.20859 27.4264 7.17321 27.4786 7.15324 27.5371C7.13326 27.5957 7.12942 27.6586 7.14212 27.7192C8.02911 31.8752 10.3154 35.6009 13.6191 38.2739C16.9227 40.9469 21.0436 42.4052 25.2932 42.4052C29.5428 42.4052 33.6637 40.9469 36.9674 38.2739C40.271 35.6009 42.5573 31.8752 43.4443 27.7192C43.457 27.6586 43.4532 27.5957 43.4332 27.5371C43.4132 27.4786 43.3779 27.4264 43.3308 27.3862C43.2837 27.346 43.2267 27.3192 43.1657 27.3087C43.1047 27.2981 43.042 27.3041 42.9842 27.3261C37.9058 29.2485 31.8264 30.3658 25.2932 30.3658C18.76 30.3658 12.6806 29.2485 7.60226 27.3261Z" fill="white"/>
</mask>
<g mask="url(#mask0_756_149)">
<g filter="url(#filter0_f_756_149)">
<path d="M7.60226 27.3261C7.54441 27.3041 7.48171 27.2981 7.42072 27.3087C7.35973 27.3192 7.30272 27.346 7.25565 27.3862C7.20859 27.4264 7.17321 27.4786 7.15324 27.5371C7.13326 27.5957 7.12942 27.6586 7.14212 27.7192C8.02911 31.8752 10.3154 35.6009 13.6191 38.2739C16.9227 40.9469 21.0436 42.4052 25.2932 42.4052C29.5428 42.4052 33.6637 40.9469 36.9674 38.2739C40.271 35.6009 42.5573 31.8752 43.4443 27.7192C43.457 27.6586 43.4532 27.5957 43.4332 27.5371C43.4132 27.4786 43.3779 27.4264 43.3308 27.3862C43.2837 27.346 43.2267 27.3192 43.1657 27.3087C43.1047 27.2981 43.042 27.3041 42.9842 27.3261C37.9058 29.2485 31.8264 30.3658 25.2932 30.3658C18.76 30.3658 12.6806 29.2485 7.60226 27.3261Z" fill="white"/>
</g>
</g>
<path d="M7.60324 27.4306C7.54539 27.4086 7.48269 27.4026 7.4217 27.4132C7.36071 27.4237 7.30369 27.4505 7.25663 27.4907C7.20957 27.5309 7.17419 27.5831 7.15421 27.6416C7.13424 27.7002 7.1304 27.7631 7.1431 27.8237C8.03009 31.9797 10.3164 35.7054 13.6201 38.3784C16.9237 41.0514 21.0446 42.5097 25.2942 42.5097C29.5438 42.5097 33.6647 41.0514 36.9683 38.3784C40.272 35.7054 42.5583 31.9797 43.4453 27.8237C43.458 27.7631 43.4542 27.7002 43.4342 27.6416C43.4142 27.5831 43.3788 27.5309 43.3318 27.4907C43.2847 27.4505 43.2277 27.4237 43.1667 27.4132C43.1057 27.4026 43.043 27.4086 42.9852 27.4306C37.9068 29.353 31.8274 30.4703 25.2942 30.4703C18.761 30.4703 12.6816 29.353 7.60324 27.4306Z" fill="white"/>
<path d="M7.60324 27.4306C7.54539 27.4086 7.48269 27.4026 7.4217 27.4132C7.36071 27.4237 7.30369 27.4505 7.25663 27.4907C7.20957 27.5309 7.17419 27.5831 7.15421 27.6416C7.13424 27.7002 7.1304 27.7631 7.1431 27.8237C8.03009 31.9797 10.3164 35.7054 13.6201 38.3784C16.9237 41.0514 21.0446 42.5097 25.2942 42.5097C29.5438 42.5097 33.6647 41.0514 36.9683 38.3784C40.272 35.7054 42.5583 31.9797 43.4453 27.8237C43.458 27.7631 43.4542 27.7002 43.4342 27.6416C43.4142 27.5831 43.3788 27.5309 43.3318 27.4907C43.2847 27.4505 43.2277 27.4237 43.1667 27.4132C43.1057 27.4026 43.043 27.4086 42.9852 27.4306C37.9068 29.353 31.8274 30.4703 25.2942 30.4703C18.761 30.4703 12.6816 29.353 7.60324 27.4306Z" fill="white"/>
<path d="M17.9107 24.112C16.402 24.112 15.1789 22.2774 15.1789 20.0143C15.1789 17.7511 16.402 15.9165 17.9107 15.9165C19.4195 15.9165 20.6426 17.7511 20.6426 20.0143C20.6426 22.2774 19.4195 24.112 17.9107 24.112Z" fill="white"/>
<path d="M32.6632 24.1125C31.1544 24.1125 29.9313 22.2779 29.9313 20.0148C29.9313 17.7516 31.1544 15.917 32.6632 15.917C34.1719 15.917 35.395 17.7516 35.395 20.0148C35.395 22.2779 34.1719 24.1125 32.6632 24.1125Z" fill="white"/>
<defs>
<filter id="filter0_f_756_149" x="6.66663" y="26.8355" width="37.2532" height="16.0378" filterUnits="userSpaceOnUse" color-interpolation-filters="sRGB">
<feFlood flood-opacity="0" result="BackgroundImageFix"/>
<feBlend mode="normal" in="SourceGraphic" in2="BackgroundImageFix" result="shape"/>
<feGaussianBlur stdDeviation="0.234069" result="effect1_foregroundBlur_756_149"/>
</filter>
<linearGradient id="paint0_linear_756_149" x1="25.2955" y1="0.000244141" x2="25.2955" y2="50.5596" gradientUnits="userSpaceOnUse">
<stop stop-color="#0DA700"/>
</linearGradient>
</defs>
</svg>
