<svg width="52" height="52" viewBox="0 0 52 52" fill="none" xmlns="http://www.w3.org/2000/svg">
<path d="M18.4347 24.5337C16.8995 24.5337 15.655 22.667 15.655 20.3642C15.655 18.0615 16.8995 16.1947 18.4347 16.1947C19.9699 16.1947 21.2144 18.0615 21.2144 20.3642C21.2144 22.667 19.9699 24.5337 18.4347 24.5337Z" fill="white"/>
<path d="M33.4454 24.5343C31.9103 24.5343 30.6658 22.6676 30.6658 20.3648C30.6658 18.0621 31.9103 16.1953 33.4454 16.1953C34.9806 16.1953 36.2251 18.0621 36.2251 20.3648C36.2251 22.6676 34.9806 24.5343 33.4454 24.5343Z" fill="white"/>
<g style="mix-blend-mode:luminosity">
<path d="M25.686 51.3722C11.5 51.3722 -8.7738e-05 39.8721 -8.7738e-05 25.6861C-8.7738e-05 11.5 11.5 0 25.686 0C39.872 0 51.3721 11.5 51.3721 25.6861C51.3721 39.8721 39.872 51.3722 25.686 51.3722Z" fill="#DFE400"/>
<path d="M16.6731 35.2462H34.755C35.5208 35.2462 36.1416 35.867 36.1416 36.6329C36.1416 37.3987 35.5208 38.0195 34.755 38.0195H16.6731C15.9073 38.0195 15.2864 37.3987 15.2864 36.6329C15.2864 35.867 15.9073 35.2462 16.6731 35.2462Z" fill="white"/>
<path d="M16.6731 35.2462H34.755C35.5208 35.2462 36.1416 35.867 36.1416 36.6329C36.1416 37.3987 35.5208 38.0195 34.755 38.0195H16.6731C15.9073 38.0195 15.2864 37.3987 15.2864 36.6329C15.2864 35.867 15.9073 35.2462 16.6731 35.2462Z" fill="white"/>
</g>
<path d="M18.4347 24.5337C16.8995 24.5337 15.655 22.667 15.655 20.3642C15.655 18.0615 16.8995 16.1947 18.4347 16.1947C19.9699 16.1947 21.2144 18.0615 21.2144 20.3642C21.2144 22.667 19.9699 24.5337 18.4347 24.5337Z" fill="white"/>
<path d="M33.4454 24.5343C31.9103 24.5343 30.6658 22.6676 30.6658 20.3648C30.6658 18.0621 31.9103 16.1953 33.4454 16.1953C34.9806 16.1953 36.2251 18.0621 36.2251 20.3648C36.2251 22.6676 34.9806 24.5343 33.4454 24.5343Z" fill="white"/>
</svg>
