<svg width="270" height="230" viewBox="0 0 270 230" fill="none" xmlns="http://www.w3.org/2000/svg">
<path d="M234.042 53.4679C256.716 75.1862 268.979 96.8386 269.924 117.362C270.985 137.888 260.759 157.349 247.256 177.407C233.75 197.401 216.868 217.989 194.2 220.713C171.533 223.37 143.076 208.225 112.017 199.66C80.847 191.156 47.0984 189.296 26.0546 176.479C5.03876 163.593 -3.16159 139.748 1.08465 116.499C5.42532 93.2538 22.4044 70.5933 48.4469 49.3491C74.5898 28.0291 109.989 8.10214 144.136 9.03126C178.379 9.96241 211.465 31.7466 234.042 53.4679Z" fill="#DFF0FF"/>
<g clip-path="url(#clip0_1164_10)">
<mask id="mask0_1164_10" style="mask-type:luminance" maskUnits="userSpaceOnUse" x="38" y="0" width="185" height="230">
<path d="M223 0H38V230H223V0Z" fill="white"/>
</mask>
<g mask="url(#mask0_1164_10)">
<path d="M158.669 145.078C163.429 158.447 165.382 219.621 165.382 230H140.75L130.499 206.783L148.292 141.777L158.669 145.078Z" fill="#BD55D7"/>
<path d="M149.949 146.781C148.606 155.718 136.642 222.91 133.972 230.001H98.383C96.8706 224.936 91.1579 165.341 98.383 143.395C105.608 121.45 149.949 146.781 149.949 146.781Z" fill="#C477D7"/>
<path d="M156.121 111.258C158.387 110.81 189.219 96.676 196.202 90.6615C203.187 84.6461 194.844 79.9995 192.212 81.5487C189.583 83.0969 162.199 94.9454 156.574 96.676C150.95 98.4076 156.121 111.258 156.121 111.258Z" fill="#DE8E68"/>
<path d="M203.334 47.1611L180.91 48.9181L184.29 92.456L206.713 90.698L203.334 47.1611Z" fill="#DEDEDE"/>
<path d="M169.586 52.0333L183.206 74.9638" stroke="black" stroke-width="8" stroke-linecap="round" stroke-linejoin="round"/>
<path d="M125.099 47.2665C131.484 46.5654 135.84 38.4485 134.827 29.137C133.814 19.8266 127.816 12.8476 121.431 13.5497C115.046 14.2509 110.69 22.3678 111.703 31.6782C112.716 40.9886 118.714 47.9677 125.099 47.2665Z" fill="#DE8E68"/>
<path d="M120.961 49.9536C159.816 49.9536 161.628 145.065 159.92 146.78C158.215 148.494 118.704 156.542 97.1758 147.571C91.922 124.618 95.4957 49.9536 120.961 49.9536Z" fill="#EEB040"/>
<path d="M181.572 63.5913C181.393 61.3724 178.665 56.9486 175.273 58.0499C172.939 58.807 170.053 63.8647 168.801 66.0152C164.275 69.7208 135.977 97.381 133.841 100.01C133.581 97.9836 131.31 94.0694 128.671 90.4929L109.954 104.926C112.457 110.462 126.413 124.489 131.375 124.085C144.402 123.025 167.879 85.3312 173.786 75.2537C176.731 72.82 181.93 68.018 181.572 63.5913Z" fill="#DE8E68"/>
<path d="M103.309 22.1621C103.309 17.2105 107.307 14.3127 108.607 12.96C111.233 10.2163 112.807 2.89982 118.354 2.89982C119.929 2.89982 122.376 3.82084 123.915 3.82084C125.839 3.81273 129.669 0 133.531 0C140.001 0 141.439 5.98405 141.439 7.82304C141.439 14.5559 133.095 19.6371 131.987 20.2441C131.517 19.471 129.362 16.5793 128.645 16.1415C127.787 17.941 121.992 20.9361 117.614 23.6181C115.161 25.1227 113.618 36.7939 113.655 37.7149C109.564 37.7281 103.309 31.4918 103.309 22.1621Z" fill="#8446FF"/>
<path d="M113.012 36.5933C114.832 36.5933 116.307 35.111 116.307 33.2821C116.307 31.4533 114.832 29.9709 113.012 29.9709C111.192 29.9709 109.717 31.4533 109.717 33.2821C109.717 35.111 111.192 36.5933 113.012 36.5933Z" fill="#DE8E68"/>
<path d="M126.475 56.2619C126.737 57.9154 116.416 57.496 116.295 55.734L115.158 39.1547L124.504 38.1293C124.504 38.1293 126.228 54.6134 126.475 56.2619Z" fill="#DE8E68"/>
<path d="M99.4371 64.6693C88.3788 71.9397 101.367 103.963 108.944 106.733C117.198 106.061 132.889 92.7029 132.563 88.6512C132.236 84.6005 113.782 55.2452 99.4371 64.6693Z" fill="#F1BE61"/>
<path d="M197.323 66.6382C197.323 72.1126 203.801 75.0013 204.745 75.0013C206.717 75.0013 206.717 69.0101 206.717 67.4589C206.717 63.9238 203.285 61.335 200.678 61.335C198.072 61.335 197.323 63.5357 197.323 66.6382Z" fill="#DE8E68"/>
</g>
</g>
<defs>
<clipPath id="clip0_1164_10">
<rect width="185" height="230" fill="white" transform="translate(38)"/>
</clipPath>
</defs>
</svg>
