<svg width="341" height="286" viewBox="0 0 341 286" fill="none" xmlns="http://www.w3.org/2000/svg">
<path d="M290.284 116.866C307.341 144.466 313.677 168.656 308.669 188.149C303.778 207.682 287.555 222.587 267.778 236.998C248.016 251.347 224.598 265.165 200.42 260.421C176.263 255.613 151.323 232.298 121.781 214.298C92.107 196.32 57.8355 183.724 39.8642 164.971C21.9423 146.163 20.4356 121.23 31.5947 100.858C42.8501 80.5209 66.9723 64.7958 100.031 53.3107C133.216 41.7868 175.543 34.5433 210.497 46.3968C245.549 58.2831 273.328 89.2944 290.284 116.866Z" fill="#DFF0FF"/>
<mask id="mask0_1164_9" style="mask-type:luminance" maskUnits="userSpaceOnUse" x="46" y="18" width="248" height="248">
<path d="M293.108 18.9978H46.1372V265.969H293.108V18.9978Z" fill="white"/>
</mask>
<g mask="url(#mask0_1164_9)">
<path d="M227.282 124.987C227.401 124.459 227.809 124.075 228.3 123.953C227.907 123.634 227.701 123.113 227.82 122.585C227.986 121.841 228.724 121.372 229.468 121.539C229.542 121.555 229.686 121.587 229.686 121.587L232.946 122.393C232.946 122.393 232.906 119.325 233.511 117.817C234.115 116.308 236.381 116.089 236.027 117.844C235.673 119.6 235.761 120.231 236.766 122.061C237.424 123.258 237.725 124.146 237.855 124.618C237.92 124.853 237.922 125.1 237.869 125.338L236.39 131.954C236.309 132.316 235.951 132.544 235.589 132.463L227.652 130.689C227.652 130.689 227.508 130.657 227.433 130.64C226.689 130.474 226.145 129.78 226.37 129.052C226.554 128.456 227.35 128.392 227.35 128.392C227.35 128.392 226.463 128.085 226.659 127.205C226.843 126.386 227.397 126.3 227.763 126.356C227.37 126.037 227.164 125.516 227.282 124.987Z" fill="#8446FF"/>
<path d="M239.822 125.267L242.686 125.907C243.155 126.012 243.45 126.477 243.345 126.946L241.672 134.434C241.567 134.903 241.102 135.199 240.633 135.094L237.769 134.454C237.299 134.349 237.004 133.884 237.109 133.414L238.783 125.927C238.888 125.457 239.353 125.162 239.822 125.267Z" fill="#8446FF"/>
<path d="M221.673 211.037C223.036 205.783 227.62 201.884 232.606 199.737C237.592 197.592 243.052 196.878 248.369 195.782C253.686 194.685 259.103 193.091 263.227 189.561C265.031 188.016 266.59 186.025 266.998 183.686C267.408 181.347 266.391 178.658 264.229 177.677C260.806 176.125 257.227 179.27 254.631 181.986C248.277 188.635 240.979 194.381 233.025 198.996" fill="#8446FF"/>
<path d="M185.834 216.236C188.808 212.689 194.236 212.924 198.832 213.467C197.079 213.584 195.525 211.816 195.673 210.065C195.822 208.315 197.446 206.88 199.197 206.735C200.948 206.589 202.684 207.599 203.631 209.079C202.06 207.141 200.444 205.113 199.878 202.684C199.311 200.254 200.135 197.307 202.389 196.236C204.258 195.349 206.567 196.003 208.174 197.307C209.78 198.611 210.835 200.457 211.852 202.259C211.844 199.136 210.195 196.283 208.597 193.6C207 190.916 205.356 188.059 205.359 184.937C205.361 181.813 207.717 178.467 210.838 178.591C213.938 178.715 215.919 181.91 217.002 184.817C219.038 190.285 219.942 196.172 219.641 202C220.392 195.86 222.398 189.877 225.5 184.527C225.876 183.879 226.297 183.211 226.955 182.853C228.075 182.243 229.552 182.776 230.366 183.757C231.181 184.739 231.47 186.048 231.627 187.314C232.255 192.371 231.142 197.628 228.519 201.997C230.347 200.643 231.2 198.364 231.893 196.197C232.586 194.03 233.278 191.736 234.931 190.173C236.585 188.61 239.556 188.184 241.015 189.929C242.018 191.129 241.98 192.88 241.67 194.413C240.947 197.984 239.007 201.296 236.246 203.673C238.747 200.918 241.809 198.675 245.189 197.12C246.478 196.526 247.973 196.031 249.287 196.568C251.773 197.583 251.567 201.35 249.965 203.505C248.362 205.66 245.879 207.121 244.616 209.491C247.823 206.034 253.327 204.957 257.599 206.952C261.872 208.947 264.581 213.858 263.989 218.536L207.298 219.148C199.683 219.23 192.062 219.312 184.46 218.878" fill="#C477D7"/>
<path d="M133.457 233.932C131.981 228.242 127.017 224.019 121.617 221.695C116.217 219.371 110.304 218.598 104.547 217.411C98.7893 216.223 92.9225 214.497 88.4565 210.674C86.5032 209.002 84.8152 206.845 84.3721 204.312C83.9291 201.779 85.0303 198.867 87.3718 197.805C91.0779 196.124 94.9539 199.53 97.7654 202.471C104.646 209.672 112.549 215.894 121.164 220.892" fill="#8446FF"/>
<path d="M101.161 230.896C104.176 227.299 109.68 227.538 114.341 228.089C112.563 228.207 110.986 226.414 111.137 224.639C111.288 222.864 112.935 221.41 114.71 221.263C116.485 221.115 118.246 222.139 119.206 223.64C117.614 221.675 115.975 219.618 115.4 217.155C114.826 214.692 115.661 211.703 117.946 210.618C119.841 209.717 122.182 210.381 123.811 211.703C125.441 213.025 126.51 214.898 127.541 216.724C127.533 213.558 125.861 210.665 124.241 207.944C122.622 205.223 120.954 202.327 120.957 199.16C120.96 195.994 123.349 192.601 126.513 192.727C129.657 192.852 131.665 196.091 132.763 199.04C134.828 204.584 135.745 210.553 135.439 216.461C136.2 210.237 138.235 204.17 141.38 198.745C141.761 198.088 142.188 197.411 142.855 197.048C143.99 196.43 145.488 196.97 146.314 197.965C147.14 198.96 147.433 200.288 147.592 201.571C148.229 206.699 147.1 212.029 144.441 216.459C146.294 215.086 147.158 212.775 147.861 210.578C148.564 208.381 149.266 206.054 150.942 204.469C152.619 202.885 155.631 202.453 157.111 204.223C158.128 205.439 158.089 207.215 157.774 208.769C157.042 212.389 155.075 215.748 152.275 218.158C154.811 215.365 157.915 213.09 161.342 211.513C162.65 210.912 164.165 210.41 165.497 210.954C168.018 211.984 167.81 215.803 166.185 217.987C164.56 220.172 162.043 221.654 160.762 224.057C164.013 220.552 169.594 219.461 173.926 221.483C178.258 223.506 181.005 228.485 180.405 233.228C161.244 233.435 142.084 233.642 122.924 233.849C115.203 233.932 107.476 234.015 99.7676 233.576" fill="#C477D7"/>
<g opacity="0.6">
<path d="M241.932 231.098C242.579 235.165 219.943 242.146 191.374 246.69C162.805 251.233 139.121 251.62 138.474 247.553C137.827 243.486 160.463 236.506 189.032 231.962C217.601 227.418 241.285 227.031 241.932 231.098Z" fill="#8446FF"/>
</g>
<path d="M204.821 76.8575L229.538 221.549C229.68 222.378 229.735 223.207 229.71 224.016C229.698 224.42 229.662 224.818 229.61 225.213C229.579 225.414 229.548 225.615 229.516 225.811C229.303 226.984 228.913 228.105 228.379 229.148C228.11 229.672 227.804 230.176 227.467 230.653C227.129 231.129 226.755 231.579 226.355 232.006C226.087 232.285 225.802 232.557 225.51 232.819L225.504 232.82C225.211 233.077 224.904 233.32 224.584 233.548L224.579 233.549C224.099 233.892 223.587 234.203 223.057 234.473L223.052 234.473C222.696 234.654 222.333 234.819 221.955 234.965C221.195 235.259 220.396 235.482 219.566 235.623L160.216 245.762C159.339 245.912 158.467 245.963 157.612 245.924C157.469 245.916 157.332 245.912 157.189 245.899C157.034 245.887 156.874 245.871 156.718 245.854C156.064 245.776 155.427 245.645 154.804 245.469C154.489 245.376 154.184 245.276 153.887 245.163C153.748 245.111 153.609 245.058 153.473 245C153.181 244.881 152.897 244.745 152.617 244.603C151.747 244.158 150.935 243.607 150.196 242.972C149.902 242.717 149.617 242.45 149.346 242.165C148.941 241.739 148.565 241.287 148.221 240.802C147.757 240.158 147.362 239.469 147.036 238.737L147.035 238.732C146.623 237.813 146.319 236.831 146.142 235.795L121.425 91.1041C120.292 84.4729 124.756 78.164 131.397 77.0294L190.748 66.8907C197.389 65.7561 203.689 70.2266 204.821 76.8575Z" fill="#292929"/>
<path d="M202.179 77.3087L226.897 222C227.006 222.64 227.051 223.29 227.031 223.935C227.026 224.224 227 224.517 226.958 224.839L226.871 225.381C226.721 226.223 226.424 227.095 225.995 227.929C225.787 228.334 225.546 228.735 225.278 229.107C225.033 229.458 224.736 229.819 224.4 230.176C224.243 230.338 224.051 230.523 223.83 230.724L223.74 230.805C223.556 230.967 223.365 231.125 223.163 231.273L223.021 231.368C222.687 231.61 222.333 231.828 221.963 232.022L221.839 232.087C221.543 232.235 221.265 232.359 220.991 232.471C220.383 232.7 219.754 232.872 219.115 232.982L159.764 243.12C159.093 243.235 158.41 243.281 157.736 243.249C157.506 243.24 157.275 243.225 157.053 243.197C156.543 243.138 156.036 243.034 155.533 242.892C155.292 242.819 155.05 242.74 154.84 242.657C154.718 242.612 154.626 242.579 154.544 242.544L154.479 242.517C154.298 242.445 154.091 242.349 153.835 242.219C153.173 241.875 152.534 241.446 151.942 240.938C151.699 240.73 151.485 240.527 151.287 240.322C150.962 239.98 150.666 239.617 150.408 239.254C150.073 238.784 149.783 238.295 149.542 237.776L149.48 237.639C149.154 236.907 148.919 236.137 148.784 235.344L124.066 90.6527C123.183 85.4853 126.675 80.5549 131.848 79.6713L191.199 69.5326C195.146 68.8583 198.952 70.7366 200.922 73.9618C201.532 74.9558 201.971 76.0882 202.179 77.3087Z" fill="#DEDEDE"/>
<path d="M222.429 181.483C222.4 180.933 222.376 180.279 222.363 179.536L224.312 190.944C223.391 189.247 222.747 187.992 222.59 187.518C222.202 186.361 222.269 183.761 222.429 181.483Z" fill="#292929"/>
<path d="M211.081 113.497L208.163 96.4133C209.495 96.1858 210.759 97.0811 210.986 98.4128L213.081 110.674C213.308 112.006 212.413 113.269 211.081 113.497Z" fill="#292929"/>
<path d="M125.594 119.309L127.431 118.995L125.972 110.454L124.135 110.768C123.818 110.822 123.605 111.123 123.659 111.44L124.922 118.833C124.976 119.15 125.277 119.363 125.594 119.309Z" fill="#292929"/>
<path d="M127.354 129.612L129.191 129.298L127.732 120.757L125.895 121.071C125.578 121.125 125.365 121.426 125.419 121.743L126.682 129.136C126.736 129.453 127.037 129.666 127.354 129.612Z" fill="#292929"/>
<path d="M170.977 76.7093L153.329 79.7244C150.36 80.2314 147.542 78.2359 147.035 75.267L175.435 70.4155C175.942 73.3843 173.946 76.202 170.977 76.7093Z" fill="#292929"/>
<path d="M198.489 126.702L143.593 135.394L137.406 96.3239L192.302 87.6319L198.489 126.702Z" fill="white"/>
<path d="M192.271 87.527L193.593 95.7779L138.507 104.604L137.185 96.3531L192.271 87.527Z" fill="#8446FF"/>
<path d="M143.335 99.9527C143.402 100.344 143.138 100.715 142.747 100.782C142.355 100.848 141.984 100.584 141.918 100.193C141.852 99.8015 142.115 99.4306 142.506 99.3641C142.898 99.2979 143.269 99.5612 143.335 99.9527Z" fill="white"/>
<path d="M146.028 99.496C146.095 99.8874 145.831 100.258 145.44 100.325C145.048 100.391 144.677 100.128 144.611 99.7363C144.545 99.3451 144.808 98.9739 145.199 98.9077C145.591 98.8413 145.962 99.1048 146.028 99.496Z" fill="white"/>
<path d="M148.721 99.0394C148.788 99.4308 148.524 99.8018 148.133 99.8682C147.742 99.9346 147.37 99.6711 147.304 99.2797C147.238 98.8885 147.501 98.5173 147.893 98.4511C148.284 98.3846 148.655 98.6482 148.721 99.0394Z" fill="white"/>
<path d="M166.226 109.837L158.255 106.551L159.66 115.426L166.226 109.837Z" fill="#8446FF"/>
<path d="M200.148 136.279L206.535 174.059L152.904 183.125L146.517 145.345L200.148 136.279Z" fill="white"/>
<path d="M169.788 170.027L155.482 172.445L153.391 160.079L167.697 157.66L169.788 170.027Z" fill="#8446FF"/>
<path d="M200.148 136.279L201.546 144.546L147.915 153.613L146.517 145.345L200.148 136.279Z" fill="#BD55D7"/>
<path d="M152.799 148.706C152.875 149.153 152.574 149.576 152.128 149.651C151.681 149.726 151.258 149.426 151.183 148.979C151.107 148.533 151.408 148.11 151.854 148.034C152.301 147.959 152.724 148.26 152.799 148.706Z" fill="white"/>
<path d="M155.87 148.187C155.946 148.633 155.645 149.056 155.199 149.132C154.752 149.207 154.329 148.907 154.254 148.46C154.178 148.014 154.479 147.591 154.925 147.515C155.372 147.44 155.795 147.74 155.87 148.187Z" fill="white"/>
<path d="M158.942 147.667C159.018 148.114 158.717 148.537 158.271 148.613C157.824 148.688 157.401 148.387 157.325 147.941C157.25 147.495 157.551 147.072 157.997 146.996C158.443 146.921 158.867 147.221 158.942 147.667Z" fill="white"/>
<path d="M170.948 158.053L196.831 153.672" stroke="#788FEB" stroke-width="6.56" stroke-miterlimit="10"/>
<path d="M171.498 161.51L197.38 157.129" stroke="#788FEB" stroke-width="6.56" stroke-miterlimit="10"/>
<path d="M172.145 164.948L192.454 161.51" stroke="#788FEB" stroke-width="6.56" stroke-miterlimit="10"/>
<path d="M172.667 168.425L186.497 166.085" stroke="#BD55D7" stroke-width="6.56" stroke-miterlimit="10"/>
<path d="M207.416 183.806L208.814 192.045L155.372 201.115L153.974 192.877L207.416 183.806Z" fill="#BD55D7"/>
<path d="M160.121 196.219C160.187 196.611 159.924 196.982 159.532 197.048C159.141 197.115 158.77 196.852 158.703 196.46C158.637 196.069 158.9 195.698 159.292 195.631C159.683 195.565 160.054 195.828 160.121 196.219Z" fill="white"/>
<path d="M162.814 195.763C162.88 196.154 162.617 196.525 162.225 196.591C161.834 196.658 161.463 196.395 161.396 196.003C161.33 195.612 161.593 195.241 161.985 195.174C162.376 195.108 162.747 195.371 162.814 195.763Z" fill="white"/>
<path d="M165.507 195.306C165.573 195.697 165.31 196.068 164.918 196.134C164.527 196.201 164.156 195.938 164.089 195.546C164.023 195.155 164.286 194.784 164.678 194.717C165.069 194.651 165.44 194.914 165.507 195.306Z" fill="white"/>
<path d="M175.494 211.703C176.156 215.601 173.532 219.298 169.634 219.959C165.736 220.621 162.04 217.997 161.378 214.099C160.716 210.201 163.34 206.504 167.238 205.843C171.136 205.181 174.833 207.805 175.494 211.703Z" fill="#BD55D7"/>
<path d="M168.825 211.353C169.061 211.077 169.19 210.713 169.124 210.327C169.007 209.636 168.352 209.171 167.661 209.288C166.97 209.405 166.505 210.061 166.622 210.751C166.692 211.162 166.961 211.472 167.305 211.649C166.664 212.077 166.298 212.852 166.435 213.66L166.722 215.352L170.696 214.678L170.408 212.985C170.265 212.142 169.616 211.515 168.825 211.353Z" fill="white"/>
<path d="M178.249 205.524L204.131 201.143" stroke="#8446FF" stroke-width="6.56" stroke-miterlimit="10"/>
<path d="M178.832 208.955L204.714 204.574" stroke="#8446FF" stroke-width="6.56" stroke-miterlimit="10"/>
<path d="M179.419 212.414L205.301 208.033" stroke="#183862" stroke-width="6.56" stroke-miterlimit="10"/>
<path d="M180.004 215.859L205.886 211.478" stroke="#8446FF" stroke-width="6.56" stroke-miterlimit="10"/>
<path d="M249.505 238.198C249.765 238.319 250.032 238.421 250.299 238.508L251.178 237.294L252.653 237.47L253.224 238.855C253.803 238.81 254.371 238.696 254.918 238.52L254.914 237.02L256.211 236.293L257.489 237.079C257.909 236.719 258.294 236.309 258.631 235.851L257.751 234.635L258.383 233.289L259.882 233.183C260.02 232.613 260.09 232.038 260.093 231.467L258.667 231.001L258.386 229.54L259.532 228.574C259.314 228.042 259.034 227.535 258.695 227.063L257.269 227.523L256.183 226.51L256.541 225.053C256.288 224.898 256.024 224.754 255.746 224.625C255.491 224.51 255.235 224.41 254.977 224.324L254.093 225.536L252.618 225.355L252.053 223.965C251.474 224.011 250.902 224.122 250.353 224.297L250.352 225.798L249.054 226.521L247.778 225.729C247.343 226.1 246.946 226.522 246.6 226.994L247.485 228.209L246.858 229.557L245.361 229.666C245.224 230.236 245.157 230.812 245.155 231.383L246.583 231.846L246.87 233.305L245.727 234.274C245.948 234.807 246.229 235.314 246.568 235.784L247.993 235.317L249.086 236.327L248.729 237.786C248.978 237.936 249.236 238.075 249.505 238.198ZM249.389 232.266C248.918 230.481 249.978 228.646 251.772 228.173C253.561 227.706 255.391 228.77 255.86 230.558C256.337 232.344 255.271 234.177 253.484 234.649C251.691 235.125 249.86 234.054 249.389 232.266Z" fill="#8446FF"/>
<path d="M193.322 55.171C193.412 55.5568 193.527 55.9325 193.66 56.2961L195.724 56.221L196.785 57.9729L195.765 59.7691C196.305 60.3587 196.911 60.8789 197.567 61.3247L199.193 60.0472L201.083 60.8386L201.314 62.8946C202.061 63.0451 202.834 63.1151 203.616 63.0924L204.192 61.1041L206.19 60.649L207.576 62.1864C208.312 61.8538 208.997 61.4417 209.62 60.9606L208.916 59.0155L210.263 57.47L212.286 57.8947C212.677 57.2068 212.992 56.4722 213.216 55.7037L211.507 54.5453L211.686 52.5052L213.572 51.6583C213.526 51.2528 213.459 50.8426 213.362 50.4322C213.271 50.0576 213.162 49.6946 213.037 49.3402L210.97 49.4092L209.915 47.654L210.945 45.8596C210.403 45.27 209.799 44.7425 209.142 44.2954L207.511 45.5678L205.624 44.7709L205.401 42.7129C204.629 42.5568 203.834 42.4826 203.028 42.508L202.459 44.4995L200.462 44.9633L199.073 43.4285C198.338 43.7645 197.655 44.1803 197.033 44.6627L197.742 46.6058L196.402 48.157L194.378 47.7375C193.988 48.4297 193.674 49.1646 193.453 49.9316L195.169 51.0835L194.998 53.1277L193.112 53.9783C193.16 54.3759 193.227 54.7752 193.322 55.171ZM199.668 50.0112C201.206 47.9844 204.099 47.5792 206.135 49.1261C208.162 50.6729 208.559 53.5636 207.015 55.5899C205.479 57.6243 202.584 58.0218 200.555 56.4809C198.516 54.9376 198.125 52.0396 199.668 50.0112Z" fill="#8446FF"/>
<path d="M195.803 88.5254V97.6233C195.803 100.705 198.301 103.203 201.383 103.203H205.811V110.694L213.999 103.203H228.192C233.786 103.203 238.32 98.6682 238.32 93.0743C238.32 87.4807 233.786 82.9456 228.192 82.9456H201.383C198.301 82.9456 195.803 85.4437 195.803 88.5254Z" fill="#8446FF"/>
<path d="M210.123 92.7905C210.123 93.7379 209.355 94.506 208.408 94.506C207.46 94.506 206.692 93.7379 206.692 92.7905C206.692 91.8432 207.46 91.0751 208.408 91.0751C209.355 91.0751 210.123 91.8432 210.123 92.7905Z" fill="white"/>
<path d="M218.676 92.7905C218.676 93.7379 217.907 94.506 216.96 94.506C216.012 94.506 215.244 93.7379 215.244 92.7905C215.244 91.8432 216.012 91.0751 216.96 91.0751C217.907 91.0751 218.676 91.8432 218.676 92.7905Z" fill="white"/>
<path d="M227.228 92.7905C227.228 93.7379 226.46 94.506 225.512 94.506C224.565 94.506 223.797 93.7379 223.797 92.7905C223.797 91.8432 224.565 91.0751 225.512 91.0751C226.46 91.0751 227.228 91.8432 227.228 92.7905Z" fill="white"/>
<path d="M123.618 134.316C124.583 137.824 122.521 141.45 119.013 142.414C115.505 143.379 111.879 141.318 110.915 137.81C109.95 134.301 112.011 130.675 115.519 129.711C119.028 128.746 122.653 130.808 123.618 134.316Z" fill="#8446FF"/>
<path d="M123.835 115.061L120.301 123.79C120.136 124.198 119.671 124.395 119.263 124.23C118.855 124.064 118.658 123.599 118.823 123.191L122.356 114.463C122.521 114.055 122.987 113.857 123.395 114.023C123.803 114.188 124 114.653 123.835 115.061Z" fill="#8446FF"/>
<path d="M131.893 121.816L125.252 128.493C124.942 128.805 124.437 128.806 124.125 128.496C123.813 128.185 123.811 127.68 124.122 127.368L130.762 120.691C131.073 120.379 131.578 120.378 131.89 120.688V120.688C132.202 120.999 132.204 121.504 131.893 121.816Z" fill="#8446FF"/>
<path d="M136.81 130.733L127.896 133.767C127.479 133.909 127.026 133.686 126.884 133.269L126.884 133.269C126.742 132.853 126.965 132.4 127.382 132.258L136.297 129.224C136.714 129.082 137.167 129.305 137.308 129.722C137.45 130.138 137.227 130.591 136.81 130.733Z" fill="#8446FF"/>
<path d="M138.89 139.229L129.515 140.118C129.077 140.16 128.688 139.839 128.646 139.4V139.4C128.605 138.962 128.926 138.573 129.365 138.531L138.74 137.643C139.178 137.601 139.567 137.923 139.608 138.361C139.65 138.799 139.328 139.188 138.89 139.229Z" fill="#8446FF"/>
<path d="M91.3342 163.57L94.2653 166.071L93.4974 167.157L91.3342 163.57Z" fill="#AEAEAE"/>
<path d="M127.406 151.581C127.846 152.314 127.607 153.278 126.872 153.72L126.175 154.14C125.44 154.581 124.478 154.342 124.036 153.608L103.964 120.242C103.523 119.508 103.762 118.545 104.496 118.102L105.194 117.683C105.928 117.241 106.892 117.481 107.334 118.215L127.406 151.581Z" fill="#292929"/>
<path d="M94.6053 159.871L83.3731 166.628C82.4911 167.158 81.3348 166.87 80.8048 165.989L72.9571 152.944C72.4263 152.061 72.7138 150.907 73.596 150.376L83.2254 144.583C84.1073 144.053 85.2624 144.34 85.7931 145.222L94.6053 159.871Z" fill="#292929"/>
<path d="M73.1539 153.272C71.0215 155.398 70.5009 158.782 72.1181 161.469L73.043 163.005C74.6589 165.693 77.8928 166.819 80.769 165.931L73.1539 153.272Z" fill="#8446FF"/>
<path d="M85.7932 145.224L93.7575 158.462C107.097 151.774 119.435 152.398 123.599 152.88L104.419 120.997C102.903 125.104 97.7829 136.605 85.7932 145.224Z" fill="#8446FF"/>
<path d="M82.8696 166.93C82.9101 166.982 82.9405 167.043 82.9926 167.088L85.3761 169.119C85.7619 169.447 86.3428 169.403 86.6789 169.025L93.6818 181.086L93.9431 181.52L94.4099 182.295C94.6746 182.736 95.2528 182.879 95.6921 182.615L101.222 179.288C101.661 179.023 101.806 178.445 101.542 178.005L100.814 176.796C100.55 176.356 99.9502 176.225 99.5308 176.476C99.5308 176.476 97.2214 173.358 96.3431 171.897C95.2367 170.059 92.302 165.181 91.3341 163.57L92.6571 162.017C92.9127 161.718 92.9421 161.303 92.77 160.975L82.8696 166.93Z" fill="#8446FF"/>
<path d="M161.353 54.0107L145.665 57.4211C145.269 57.5073 144.877 57.2556 144.791 56.859L141.381 41.1711C141.294 40.7745 141.546 40.3828 141.943 40.2966L157.63 36.8867C158.027 36.8002 158.419 37.0519 158.505 37.4485L161.915 53.1364C162.001 53.533 161.749 53.9245 161.353 54.0107Z" fill="#8446FF"/>
<path d="M157.262 54.2361L154.059 58.8273L149.468 55.6239" fill="#8446FF"/>
<path d="M155.243 42.8737C153.807 42.0103 151.931 42.5411 151.024 43.9508L150.97 44.0357L150.885 43.9812C149.476 43.075 147.548 43.3711 146.6 44.7527C145.619 46.1827 146.019 48.1295 147.467 49.0606L151.977 51.8161C152.418 52.086 152.994 51.961 153.284 51.5323L156.243 47.153C157.173 45.705 156.729 43.7673 155.243 42.8737Z" fill="white"/>
</g>
</svg>
