<svg width="290" height="186" viewBox="0 0 290 186" fill="none" xmlns="http://www.w3.org/2000/svg">
<circle cx="77.5" cy="77.5" r="77.5" fill="#CFA0E6"/>
<circle cx="212.5" cy="77.5" r="77.5" fill="#CFA0E6"/>
<mask id="mask0_1566_14" style="mask-type:alpha" maskUnits="userSpaceOnUse" x="0" y="0" width="155" height="155">
<circle cx="77.5" cy="77.5" r="77.5" fill="#B17CF0"/>
</mask>
<g mask="url(#mask0_1566_14)">
<circle cx="212.5" cy="77.5" r="77.5" fill="#B17CF0"/>
</g>
<path d="M55.3943 75.11C54.6143 75.11 53.9443 74.96 53.3843 74.66C52.8243 74.36 52.3943 73.9367 52.0943 73.39C51.801 72.8433 51.6543 72.2033 51.6543 71.47C51.6543 70.7367 51.801 70.1 52.0943 69.56C52.3943 69.0133 52.8243 68.59 53.3843 68.29C53.9443 67.99 54.6143 67.84 55.3943 67.84C55.861 67.84 56.311 67.9133 56.7443 68.06C57.1777 68.2 57.5277 68.3867 57.7943 68.62L57.2443 70.07C56.951 69.8567 56.6577 69.7 56.3643 69.6C56.071 69.4933 55.771 69.44 55.4643 69.44C54.8443 69.44 54.3777 69.6167 54.0643 69.97C53.751 70.3167 53.5943 70.8167 53.5943 71.47C53.5943 72.13 53.751 72.6367 54.0643 72.99C54.3777 73.3367 54.8443 73.51 55.4643 73.51C55.771 73.51 56.071 73.46 56.3643 73.36C56.6577 73.2533 56.951 73.0933 57.2443 72.88L57.7943 74.33C57.5277 74.5633 57.1777 74.7533 56.7443 74.9C56.311 75.04 55.861 75.11 55.3943 75.11ZM60.718 75.11C60.1713 75.11 59.6947 75.0067 59.288 74.8C58.8813 74.5933 58.5647 74.2967 58.338 73.91C58.1113 73.5233 57.998 73.0667 57.998 72.54C57.998 72.0067 58.1113 71.55 58.338 71.17C58.5647 70.7833 58.8813 70.4867 59.288 70.28C59.6947 70.0733 60.1713 69.97 60.718 69.97C61.2647 69.97 61.7413 70.0733 62.148 70.28C62.5547 70.4867 62.868 70.7833 63.088 71.17C63.3147 71.55 63.428 72.0067 63.428 72.54C63.428 73.0667 63.3147 73.5233 63.088 73.91C62.868 74.2967 62.5547 74.5933 62.148 74.8C61.7413 75.0067 61.2647 75.11 60.718 75.11ZM60.718 73.8C60.9847 73.8 61.2047 73.7 61.378 73.5C61.5513 73.3 61.638 72.98 61.638 72.54C61.638 72.0933 61.5513 71.7733 61.378 71.58C61.2047 71.38 60.9847 71.28 60.718 71.28C60.4447 71.28 60.2213 71.38 60.048 71.58C59.8747 71.7733 59.788 72.0933 59.788 72.54C59.788 72.98 59.8747 73.3 60.048 73.5C60.2213 73.7 60.4447 73.8 60.718 73.8ZM66.2036 75.11C65.7503 75.11 65.3303 75.0633 64.9436 74.97C64.5636 74.8767 64.2403 74.7467 63.9736 74.58L64.3836 73.43C64.6303 73.57 64.917 73.6867 65.2436 73.78C65.5703 73.8667 65.8936 73.91 66.2136 73.91C66.4603 73.91 66.637 73.8767 66.7436 73.81C66.8503 73.7367 66.9036 73.6433 66.9036 73.53C66.9036 73.43 66.867 73.3567 66.7936 73.31C66.727 73.2567 66.6303 73.2167 66.5036 73.19L65.3936 73.01C64.9803 72.9433 64.6603 72.7933 64.4336 72.56C64.207 72.3267 64.0936 72.0233 64.0936 71.65C64.0936 71.3033 64.1903 71.0067 64.3836 70.76C64.577 70.5067 64.847 70.3133 65.1936 70.18C65.5403 70.04 65.937 69.97 66.3836 69.97C66.737 69.97 67.087 70.0133 67.4336 70.1C67.7803 70.18 68.0836 70.3133 68.3436 70.5L67.9036 71.63C67.7103 71.4967 67.4703 71.3867 67.1836 71.3C66.897 71.2067 66.6403 71.16 66.4136 71.16C66.1403 71.16 65.947 71.2 65.8336 71.28C65.7203 71.3533 65.6636 71.4433 65.6636 71.55C65.6636 71.73 65.787 71.84 66.0336 71.88L67.1436 72.07C67.5703 72.1367 67.897 72.2833 68.1236 72.51C68.357 72.73 68.4736 73.03 68.4736 73.41C68.4736 73.95 68.267 74.37 67.8536 74.67C67.4403 74.9633 66.8903 75.11 66.2036 75.11ZM70.9146 75.11C70.5346 75.11 70.1979 75.04 69.9046 74.9C69.6179 74.76 69.3912 74.57 69.2246 74.33C69.0646 74.0833 68.9846 73.8033 68.9846 73.49C68.9846 73.1367 69.0779 72.8567 69.2646 72.65C69.4512 72.4367 69.7512 72.2867 70.1646 72.2C70.5779 72.1067 71.1279 72.06 71.8146 72.06H72.1946V71.92C72.1946 71.68 72.1312 71.51 72.0046 71.41C71.8846 71.31 71.6746 71.26 71.3746 71.26C71.1212 71.26 70.8412 71.3 70.5346 71.38C70.2279 71.46 69.9279 71.5833 69.6346 71.75L69.1846 70.58C69.3512 70.46 69.5646 70.3533 69.8246 70.26C70.0846 70.1667 70.3579 70.0967 70.6446 70.05C70.9312 69.9967 71.2012 69.97 71.4546 69.97C72.2746 69.97 72.8812 70.1467 73.2746 70.5C73.6746 70.8533 73.8746 71.41 73.8746 72.17V75H72.2146V74.3C72.1279 74.5533 71.9712 74.7533 71.7446 74.9C71.5179 75.04 71.2412 75.11 70.9146 75.11ZM71.3146 73.95C71.5612 73.95 71.7679 73.87 71.9346 73.71C72.1079 73.55 72.1946 73.34 72.1946 73.08V72.9H71.8146C71.4212 72.9 71.1312 72.9433 70.9446 73.03C70.7646 73.11 70.6746 73.24 70.6746 73.42C70.6746 73.5733 70.7279 73.7 70.8346 73.8C70.9479 73.9 71.1079 73.95 71.3146 73.95ZM76.8482 75.11C76.3948 75.11 75.9748 75.0633 75.5882 74.97C75.2082 74.8767 74.8848 74.7467 74.6182 74.58L75.0282 73.43C75.2748 73.57 75.5615 73.6867 75.8882 73.78C76.2148 73.8667 76.5382 73.91 76.8582 73.91C77.1048 73.91 77.2815 73.8767 77.3882 73.81C77.4948 73.7367 77.5482 73.6433 77.5482 73.53C77.5482 73.43 77.5115 73.3567 77.4382 73.31C77.3715 73.2567 77.2748 73.2167 77.1482 73.19L76.0382 73.01C75.6248 72.9433 75.3048 72.7933 75.0782 72.56C74.8515 72.3267 74.7382 72.0233 74.7382 71.65C74.7382 71.3033 74.8348 71.0067 75.0282 70.76C75.2215 70.5067 75.4915 70.3133 75.8382 70.18C76.1848 70.04 76.5815 69.97 77.0282 69.97C77.3815 69.97 77.7315 70.0133 78.0782 70.1C78.4248 70.18 78.7282 70.3133 78.9882 70.5L78.5482 71.63C78.3548 71.4967 78.1148 71.3867 77.8282 71.3C77.5415 71.2067 77.2848 71.16 77.0582 71.16C76.7848 71.16 76.5915 71.2 76.4782 71.28C76.3648 71.3533 76.3082 71.4433 76.3082 71.55C76.3082 71.73 76.4315 71.84 76.6782 71.88L77.7882 72.07C78.2148 72.1367 78.5415 72.2833 78.7682 72.51C79.0015 72.73 79.1182 73.03 79.1182 73.41C79.1182 73.95 78.9115 74.37 78.4982 74.67C78.0848 74.9633 77.5348 75.11 76.8482 75.11ZM86.1004 76.8V74.4C85.9604 74.6133 85.7571 74.7867 85.4904 74.92C85.2304 75.0467 84.9438 75.11 84.6304 75.11C84.2104 75.11 83.8371 75.0067 83.5104 74.8C83.1904 74.5933 82.9371 74.2967 82.7504 73.91C82.5704 73.5233 82.4804 73.0667 82.4804 72.54C82.4804 72.0067 82.5704 71.55 82.7504 71.17C82.9371 70.7833 83.1904 70.4867 83.5104 70.28C83.8371 70.0733 84.2104 69.97 84.6304 69.97C84.9638 69.97 85.2671 70.0433 85.5404 70.19C85.8138 70.33 86.0138 70.52 86.1404 70.76V70.08H87.8804V76.8H86.1004ZM85.2004 73.8C85.4671 73.8 85.6871 73.7 85.8604 73.5C86.0338 73.3 86.1204 72.98 86.1204 72.54C86.1204 72.0933 86.0338 71.7733 85.8604 71.58C85.6871 71.38 85.4671 71.28 85.2004 71.28C84.9271 71.28 84.7038 71.38 84.5304 71.58C84.3571 71.7733 84.2704 72.0933 84.2704 72.54C84.2704 72.98 84.3571 73.3 84.5304 73.5C84.7038 73.7 84.9271 73.8 85.2004 73.8ZM90.7516 75.11C90.1116 75.11 89.6383 74.9367 89.3316 74.59C89.0316 74.2367 88.8816 73.7 88.8816 72.98V70.08H90.6616V73.03C90.6616 73.51 90.8683 73.75 91.2816 73.75C91.5216 73.75 91.7183 73.6633 91.8716 73.49C92.0249 73.3167 92.1016 73.0867 92.1016 72.8V70.08H93.8816V75H92.1416V74.39C91.8216 74.87 91.3583 75.11 90.7516 75.11ZM97.5975 75.11C96.9975 75.11 96.4775 75.0067 96.0375 74.8C95.6041 74.5867 95.2708 74.2867 95.0375 73.9C94.8041 73.5133 94.6875 73.0567 94.6875 72.53C94.6875 72.03 94.7975 71.5867 95.0175 71.2C95.2441 70.8133 95.5508 70.5133 95.9375 70.3C96.3308 70.08 96.7775 69.97 97.2775 69.97C97.7708 69.97 98.1975 70.0733 98.5575 70.28C98.9241 70.4867 99.2041 70.7833 99.3975 71.17C99.5975 71.55 99.6975 71.9967 99.6975 72.51V72.9H96.3875C96.4475 73.22 96.5808 73.45 96.7875 73.59C96.9941 73.73 97.2808 73.8 97.6475 73.8C97.9008 73.8 98.1641 73.7633 98.4375 73.69C98.7175 73.61 98.9641 73.4967 99.1775 73.35L99.6175 74.52C99.3641 74.7 99.0541 74.8433 98.6875 74.95C98.3208 75.0567 97.9575 75.11 97.5975 75.11ZM97.3575 71.12C97.0908 71.12 96.8708 71.2 96.6975 71.36C96.5308 71.52 96.4241 71.7533 96.3775 72.06H98.2375C98.2175 71.7467 98.1308 71.5133 97.9775 71.36C97.8308 71.2 97.6241 71.12 97.3575 71.12ZM55.1263 81.23V79.62H56.9963V81.23H55.1263ZM55.1763 87V82.08H56.9563V87H55.1763ZM58.0088 87V82.08H59.7388V82.74C59.8921 82.5067 60.0954 82.32 60.3488 82.18C60.6088 82.04 60.9054 81.97 61.2388 81.97C61.5721 81.97 61.8588 82.0433 62.0988 82.19C62.3454 82.3367 62.5321 82.5633 62.6588 82.87C62.8254 82.5833 63.0521 82.3633 63.3388 82.21C63.6254 82.05 63.9421 81.97 64.2888 81.97C64.8621 81.97 65.2854 82.1433 65.5588 82.49C65.8388 82.83 65.9788 83.3633 65.9788 84.09V87H64.1988V84.14C64.1988 83.8533 64.1554 83.6467 64.0688 83.52C63.9821 83.3933 63.8388 83.33 63.6388 83.33C63.3921 83.33 63.2021 83.4167 63.0688 83.59C62.9421 83.7633 62.8788 84.01 62.8788 84.33V87H61.0988V84.14C61.0988 83.8533 61.0554 83.6467 60.9688 83.52C60.8821 83.3933 60.7388 83.33 60.5388 83.33C60.2988 83.33 60.1121 83.4167 59.9788 83.59C59.8521 83.7633 59.7888 84.01 59.7888 84.33V87H58.0088ZM67.0122 88.8V82.08H68.7422V82.75C68.8755 82.51 69.0789 82.32 69.3522 82.18C69.6255 82.04 69.9255 81.97 70.2522 81.97C70.6722 81.97 71.0422 82.0733 71.3622 82.28C71.6889 82.4867 71.9422 82.7833 72.1222 83.17C72.3089 83.55 72.4022 84.0067 72.4022 84.54C72.4022 85.0667 72.3122 85.5233 72.1322 85.91C71.9522 86.2967 71.6989 86.5933 71.3722 86.8C71.0522 87.0067 70.6789 87.11 70.2522 87.11C69.9455 87.11 69.6589 87.0467 69.3922 86.92C69.1322 86.7933 68.9322 86.6233 68.7922 86.41V88.8H67.0122ZM69.6922 85.8C69.9589 85.8 70.1789 85.7 70.3522 85.5C70.5255 85.3 70.6122 84.98 70.6122 84.54C70.6122 84.0933 70.5255 83.7733 70.3522 83.58C70.1789 83.38 69.9589 83.28 69.6922 83.28C69.4189 83.28 69.1955 83.38 69.0222 83.58C68.8489 83.7733 68.7622 84.0933 68.7622 84.54C68.7622 84.98 68.8489 85.3 69.0222 85.5C69.1955 85.7 69.4189 85.8 69.6922 85.8ZM75.7034 87.11C75.1567 87.11 74.68 87.0067 74.2734 86.8C73.8667 86.5933 73.55 86.2967 73.3234 85.91C73.0967 85.5233 72.9834 85.0667 72.9834 84.54C72.9834 84.0067 73.0967 83.55 73.3234 83.17C73.55 82.7833 73.8667 82.4867 74.2734 82.28C74.68 82.0733 75.1567 81.97 75.7034 81.97C76.25 81.97 76.7267 82.0733 77.1334 82.28C77.54 82.4867 77.8534 82.7833 78.0734 83.17C78.3 83.55 78.4134 84.0067 78.4134 84.54C78.4134 85.0667 78.3 85.5233 78.0734 85.91C77.8534 86.2967 77.54 86.5933 77.1334 86.8C76.7267 87.0067 76.25 87.11 75.7034 87.11ZM75.7034 85.8C75.97 85.8 76.19 85.7 76.3634 85.5C76.5367 85.3 76.6234 84.98 76.6234 84.54C76.6234 84.0933 76.5367 83.7733 76.3634 83.58C76.19 83.38 75.97 83.28 75.7034 83.28C75.43 83.28 75.2067 83.38 75.0334 83.58C74.86 83.7733 74.7734 84.0933 74.7734 84.54C74.7734 84.98 74.86 85.3 75.0334 85.5C75.2067 85.7 75.43 85.8 75.7034 85.8ZM79.229 87V82.08H80.959V82.91C81.1857 82.3433 81.6757 82.0333 82.429 81.98L82.919 81.94L83.019 83.44L82.049 83.53C81.6957 83.5633 81.439 83.6633 81.279 83.83C81.119 83.99 81.039 84.23 81.039 84.55V87H79.229ZM86.4379 87.11C85.6912 87.11 85.1379 86.9367 84.7779 86.59C84.4179 86.2433 84.2379 85.72 84.2379 85.02V83.39H83.3179V82.08H84.2379V80.65H86.0179V82.08H87.4179V83.39H86.0179V84.96C86.0179 85.44 86.2612 85.68 86.7479 85.68C86.8279 85.68 86.9146 85.6733 87.0079 85.66C87.1079 85.64 87.2179 85.6133 87.3379 85.58L87.5779 86.86C87.4246 86.94 87.2446 87 87.0379 87.04C86.8312 87.0867 86.6312 87.11 86.4379 87.11ZM89.8257 87.11C89.4457 87.11 89.109 87.04 88.8157 86.9C88.529 86.76 88.3024 86.57 88.1357 86.33C87.9757 86.0833 87.8957 85.8033 87.8957 85.49C87.8957 85.1367 87.989 84.8567 88.1757 84.65C88.3624 84.4367 88.6624 84.2867 89.0757 84.2C89.489 84.1067 90.039 84.06 90.7257 84.06H91.1057V83.92C91.1057 83.68 91.0424 83.51 90.9157 83.41C90.7957 83.31 90.5857 83.26 90.2857 83.26C90.0324 83.26 89.7524 83.3 89.4457 83.38C89.139 83.46 88.839 83.5833 88.5457 83.75L88.0957 82.58C88.2624 82.46 88.4757 82.3533 88.7357 82.26C88.9957 82.1667 89.269 82.0967 89.5557 82.05C89.8424 81.9967 90.1124 81.97 90.3657 81.97C91.1857 81.97 91.7924 82.1467 92.1857 82.5C92.5857 82.8533 92.7857 83.41 92.7857 84.17V87H91.1257V86.3C91.039 86.5533 90.8824 86.7533 90.6557 86.9C90.429 87.04 90.1524 87.11 89.8257 87.11ZM90.2257 85.95C90.4724 85.95 90.679 85.87 90.8457 85.71C91.019 85.55 91.1057 85.34 91.1057 85.08V84.9H90.7257C90.3324 84.9 90.0424 84.9433 89.8557 85.03C89.6757 85.11 89.5857 85.24 89.5857 85.42C89.5857 85.5733 89.639 85.7 89.7457 85.8C89.859 85.9 90.019 85.95 90.2257 85.95ZM93.7993 87V82.08H95.5293V82.75C95.7026 82.4967 95.926 82.3033 96.1993 82.17C96.4726 82.0367 96.7793 81.97 97.1193 81.97C97.706 81.97 98.1393 82.1433 98.4193 82.49C98.706 82.8367 98.8493 83.37 98.8493 84.09V87H97.0693V84.16C97.0693 83.86 97.016 83.6467 96.9093 83.52C96.8093 83.3933 96.6593 83.33 96.4593 83.33C96.1926 83.33 95.9793 83.4167 95.8193 83.59C95.6593 83.7567 95.5793 83.9833 95.5793 84.27V87H93.7993Z" fill="white"/>
<path d="M60.0991 183.09C59.3858 183.09 58.7758 182.943 58.2691 182.65C57.7625 182.357 57.3725 181.94 57.0991 181.4C56.8325 180.853 56.6991 180.21 56.6991 179.47C56.6991 178.73 56.8325 178.09 57.0991 177.55C57.3725 177.01 57.7625 176.593 58.2691 176.3C58.7758 176.007 59.3858 175.86 60.0991 175.86C60.5791 175.86 61.0258 175.937 61.4391 176.09C61.8591 176.237 62.2091 176.45 62.4891 176.73L62.1291 177.56C61.8225 177.287 61.5058 177.09 61.1791 176.97C60.8591 176.843 60.5091 176.78 60.1291 176.78C59.3691 176.78 58.7891 177.013 58.3891 177.48C57.9891 177.947 57.7891 178.61 57.7891 179.47C57.7891 180.33 57.9891 180.997 58.3891 181.47C58.7891 181.937 59.3691 182.17 60.1291 182.17C60.5091 182.17 60.8591 182.11 61.1791 181.99C61.5058 181.863 61.8225 181.663 62.1291 181.39L62.4891 182.22C62.2091 182.493 61.8591 182.707 61.4391 182.86C61.0258 183.013 60.5791 183.09 60.0991 183.09ZM65.3554 183.09C64.8621 183.09 64.4354 182.987 64.0754 182.78C63.7154 182.573 63.4354 182.283 63.2354 181.91C63.0421 181.53 62.9454 181.08 62.9454 180.56C62.9454 180.04 63.0421 179.593 63.2354 179.22C63.4354 178.84 63.7154 178.547 64.0754 178.34C64.4354 178.133 64.8621 178.03 65.3554 178.03C65.8354 178.03 66.2554 178.133 66.6154 178.34C66.9754 178.547 67.2554 178.84 67.4554 179.22C67.6554 179.593 67.7554 180.04 67.7554 180.56C67.7554 181.08 67.6554 181.53 67.4554 181.91C67.2554 182.283 66.9754 182.573 66.6154 182.78C66.2554 182.987 65.8354 183.09 65.3554 183.09ZM65.3554 182.31C65.7687 182.31 66.1021 182.16 66.3554 181.86C66.6087 181.56 66.7354 181.127 66.7354 180.56C66.7354 179.993 66.6087 179.563 66.3554 179.27C66.1021 178.97 65.7687 178.82 65.3554 178.82C64.9354 178.82 64.5987 178.97 64.3454 179.27C64.0921 179.563 63.9654 179.993 63.9654 180.56C63.9654 181.127 64.0921 181.56 64.3454 181.86C64.5987 182.16 64.9354 182.31 65.3554 182.31ZM70.5997 183.09C70.1997 183.09 69.8264 183.04 69.4797 182.94C69.133 182.833 68.843 182.687 68.6097 182.5L68.8997 181.82C69.1464 181.993 69.4164 182.127 69.7097 182.22C70.0097 182.313 70.3097 182.36 70.6097 182.36C70.963 182.36 71.2297 182.297 71.4097 182.17C71.5897 182.043 71.6797 181.873 71.6797 181.66C71.6797 181.487 71.6197 181.353 71.4997 181.26C71.3797 181.16 71.1997 181.083 70.9597 181.03L70.0097 180.84C69.1697 180.667 68.7497 180.233 68.7497 179.54C68.7497 179.08 68.933 178.713 69.2997 178.44C69.6664 178.167 70.1464 178.03 70.7397 178.03C71.0797 178.03 71.403 178.08 71.7097 178.18C72.023 178.28 72.283 178.43 72.4897 178.63L72.1997 179.31C71.9997 179.137 71.7697 179.003 71.5097 178.91C71.2497 178.817 70.993 178.77 70.7397 178.77C70.393 178.77 70.1297 178.837 69.9497 178.97C69.7697 179.097 69.6797 179.27 69.6797 179.49C69.6797 179.823 69.8997 180.037 70.3397 180.13L71.2897 180.32C71.723 180.407 72.0497 180.553 72.2697 180.76C72.4964 180.967 72.6097 181.247 72.6097 181.6C72.6097 182.067 72.4264 182.433 72.0597 182.7C71.693 182.96 71.2064 183.09 70.5997 183.09ZM75.2934 183.09C74.9534 183.09 74.6501 183.023 74.3834 182.89C74.1168 182.757 73.9034 182.577 73.7434 182.35C73.5901 182.123 73.5134 181.867 73.5134 181.58C73.5134 181.22 73.6034 180.937 73.7834 180.73C73.9701 180.523 74.2734 180.373 74.6934 180.28C75.1201 180.187 75.6934 180.14 76.4134 180.14H76.7534V179.88C76.7534 179.5 76.6734 179.227 76.5134 179.06C76.3534 178.893 76.0901 178.81 75.7234 178.81C75.4434 178.81 75.1634 178.853 74.8834 178.94C74.6034 179.02 74.3168 179.15 74.0234 179.33L73.7134 178.62C73.9668 178.44 74.2834 178.297 74.6634 178.19C75.0434 178.083 75.4068 178.03 75.7534 178.03C76.4201 178.03 76.9134 178.19 77.2334 178.51C77.5534 178.823 77.7134 179.317 77.7134 179.99V183H76.7634V182.19C76.6434 182.47 76.4568 182.69 76.2034 182.85C75.9501 183.01 75.6468 183.09 75.2934 183.09ZM75.4934 182.37C75.8534 182.37 76.1534 182.243 76.3934 181.99C76.6334 181.737 76.7534 181.417 76.7534 181.03V180.76H76.4234C75.9368 180.76 75.5534 180.783 75.2734 180.83C75.0001 180.877 74.8034 180.957 74.6834 181.07C74.5701 181.177 74.5134 181.327 74.5134 181.52C74.5134 181.773 74.6001 181.98 74.7734 182.14C74.9468 182.293 75.1868 182.37 75.4934 182.37ZM80.8145 183.09C80.4145 183.09 80.0412 183.04 79.6945 182.94C79.3479 182.833 79.0579 182.687 78.8245 182.5L79.1145 181.82C79.3612 181.993 79.6312 182.127 79.9245 182.22C80.2245 182.313 80.5245 182.36 80.8245 182.36C81.1779 182.36 81.4445 182.297 81.6245 182.17C81.8045 182.043 81.8945 181.873 81.8945 181.66C81.8945 181.487 81.8345 181.353 81.7145 181.26C81.5945 181.16 81.4145 181.083 81.1745 181.03L80.2245 180.84C79.3845 180.667 78.9645 180.233 78.9645 179.54C78.9645 179.08 79.1479 178.713 79.5145 178.44C79.8812 178.167 80.3612 178.03 80.9545 178.03C81.2945 178.03 81.6179 178.08 81.9245 178.18C82.2379 178.28 82.4979 178.43 82.7045 178.63L82.4145 179.31C82.2145 179.137 81.9845 179.003 81.7245 178.91C81.4645 178.817 81.2079 178.77 80.9545 178.77C80.6079 178.77 80.3445 178.837 80.1645 178.97C79.9845 179.097 79.8945 179.27 79.8945 179.49C79.8945 179.823 80.1145 180.037 80.5545 180.13L81.5045 180.32C81.9379 180.407 82.2645 180.553 82.4845 180.76C82.7112 180.967 82.8245 181.247 82.8245 181.6C82.8245 182.067 82.6412 182.433 82.2745 182.7C81.9079 182.96 81.4212 183.09 80.8145 183.09ZM88.8652 183.09C88.0652 183.09 87.4352 182.867 86.9752 182.42C86.5152 181.967 86.2852 181.35 86.2852 180.57C86.2852 180.07 86.3852 179.63 86.5852 179.25C86.7919 178.863 87.0752 178.563 87.4352 178.35C87.7952 178.137 88.2086 178.03 88.6752 178.03C89.3486 178.03 89.8786 178.247 90.2652 178.68C90.6519 179.107 90.8452 179.697 90.8452 180.45V180.79H87.2652C87.3386 181.803 87.8752 182.31 88.8752 182.31C89.1552 182.31 89.4286 182.267 89.6952 182.18C89.9686 182.093 90.2252 181.95 90.4652 181.75L90.7652 182.45C90.5452 182.65 90.2619 182.807 89.9152 182.92C89.5686 183.033 89.2186 183.09 88.8652 183.09ZM88.7152 178.74C88.2952 178.74 87.9619 178.87 87.7152 179.13C87.4686 179.39 87.3186 179.737 87.2652 180.17H89.9952C89.9752 179.717 89.8552 179.367 89.6352 179.12C89.4152 178.867 89.1086 178.74 88.7152 178.74ZM91.9463 183V178.12H92.9263V178.93C93.093 178.637 93.3197 178.413 93.6063 178.26C93.8997 178.107 94.2263 178.03 94.5863 178.03C95.7397 178.03 96.3163 178.683 96.3163 179.99V183H95.3063V180.05C95.3063 179.63 95.223 179.323 95.0563 179.13C94.8963 178.937 94.643 178.84 94.2963 178.84C93.8897 178.84 93.563 178.97 93.3163 179.23C93.0763 179.483 92.9563 179.82 92.9563 180.24V183H91.9463ZM101.925 183.09C101.392 183.09 100.992 182.94 100.725 182.64C100.465 182.34 100.335 181.9 100.335 181.32V175.95H101.345V181.26C101.345 181.92 101.615 182.25 102.155 182.25C102.235 182.25 102.308 182.247 102.375 182.24C102.448 182.233 102.522 182.22 102.595 182.2L102.575 183.01C102.348 183.063 102.132 183.09 101.925 183.09ZM104.952 183.09C104.612 183.09 104.308 183.023 104.042 182.89C103.775 182.757 103.562 182.577 103.402 182.35C103.248 182.123 103.172 181.867 103.172 181.58C103.172 181.22 103.262 180.937 103.442 180.73C103.628 180.523 103.932 180.373 104.352 180.28C104.778 180.187 105.352 180.14 106.072 180.14H106.412V179.88C106.412 179.5 106.332 179.227 106.172 179.06C106.012 178.893 105.748 178.81 105.382 178.81C105.102 178.81 104.822 178.853 104.542 178.94C104.262 179.02 103.975 179.15 103.682 179.33L103.372 178.62C103.625 178.44 103.942 178.297 104.322 178.19C104.702 178.083 105.065 178.03 105.412 178.03C106.078 178.03 106.572 178.19 106.892 178.51C107.212 178.823 107.372 179.317 107.372 179.99V183H106.422V182.19C106.302 182.47 106.115 182.69 105.862 182.85C105.608 183.01 105.305 183.09 104.952 183.09ZM105.152 182.37C105.512 182.37 105.812 182.243 106.052 181.99C106.292 181.737 106.412 181.417 106.412 181.03V180.76H106.082C105.595 180.76 105.212 180.783 104.932 180.83C104.658 180.877 104.462 180.957 104.342 181.07C104.228 181.177 104.172 181.327 104.172 181.52C104.172 181.773 104.258 181.98 104.432 182.14C104.605 182.293 104.845 182.37 105.152 182.37ZM110.473 183.09C110.073 183.09 109.699 183.04 109.353 182.94C109.006 182.833 108.716 182.687 108.483 182.5L108.773 181.82C109.019 181.993 109.289 182.127 109.583 182.22C109.883 182.313 110.183 182.36 110.483 182.36C110.836 182.36 111.103 182.297 111.283 182.17C111.463 182.043 111.553 181.873 111.553 181.66C111.553 181.487 111.493 181.353 111.373 181.26C111.253 181.16 111.073 181.083 110.833 181.03L109.883 180.84C109.043 180.667 108.623 180.233 108.623 179.54C108.623 179.08 108.806 178.713 109.173 178.44C109.539 178.167 110.019 178.03 110.613 178.03C110.953 178.03 111.276 178.08 111.583 178.18C111.896 178.28 112.156 178.43 112.363 178.63L112.073 179.31C111.873 179.137 111.643 179.003 111.383 178.91C111.123 178.817 110.866 178.77 110.613 178.77C110.266 178.77 110.003 178.837 109.823 178.97C109.643 179.097 109.553 179.27 109.553 179.49C109.553 179.823 109.773 180.037 110.213 180.13L111.163 180.32C111.596 180.407 111.923 180.553 112.143 180.76C112.369 180.967 112.483 181.247 112.483 181.6C112.483 182.067 112.299 182.433 111.933 182.7C111.566 182.96 111.079 183.09 110.473 183.09ZM119.713 184.8V182.2C119.573 182.473 119.36 182.69 119.073 182.85C118.787 183.01 118.46 183.09 118.093 183.09C117.66 183.09 117.283 182.99 116.963 182.79C116.643 182.583 116.393 182.29 116.213 181.91C116.033 181.53 115.943 181.08 115.943 180.56C115.943 180.04 116.033 179.593 116.213 179.22C116.393 178.84 116.643 178.547 116.963 178.34C117.29 178.133 117.667 178.03 118.093 178.03C118.467 178.03 118.797 178.117 119.083 178.29C119.377 178.457 119.593 178.683 119.733 178.97V178.12H120.723V184.8H119.713ZM118.353 182.31C118.767 182.31 119.1 182.16 119.353 181.86C119.607 181.56 119.733 181.127 119.733 180.56C119.733 179.993 119.607 179.563 119.353 179.27C119.1 178.97 118.767 178.82 118.353 178.82C117.933 178.82 117.597 178.97 117.343 179.27C117.09 179.563 116.963 179.993 116.963 180.56C116.963 181.127 117.09 181.56 117.343 181.86C117.597 182.16 117.933 182.31 118.353 182.31ZM123.882 183.09C122.702 183.09 122.112 182.433 122.112 181.12V178.12H123.122V181.13C123.122 181.523 123.202 181.813 123.362 182C123.522 182.187 123.775 182.28 124.122 182.28C124.502 182.28 124.808 182.153 125.042 181.9C125.282 181.647 125.402 181.307 125.402 180.88V178.12H126.412V183H125.432V182.22C125.272 182.507 125.058 182.723 124.792 182.87C124.525 183.017 124.222 183.09 123.882 183.09ZM130.125 183.09C129.325 183.09 128.695 182.867 128.235 182.42C127.775 181.967 127.545 181.35 127.545 180.57C127.545 180.07 127.645 179.63 127.845 179.25C128.052 178.863 128.335 178.563 128.695 178.35C129.055 178.137 129.468 178.03 129.935 178.03C130.608 178.03 131.138 178.247 131.525 178.68C131.912 179.107 132.105 179.697 132.105 180.45V180.79H128.525C128.598 181.803 129.135 182.31 130.135 182.31C130.415 182.31 130.688 182.267 130.955 182.18C131.228 182.093 131.485 181.95 131.725 181.75L132.025 182.45C131.805 182.65 131.522 182.807 131.175 182.92C130.828 183.033 130.478 183.09 130.125 183.09ZM129.975 178.74C129.555 178.74 129.222 178.87 128.975 179.13C128.728 179.39 128.578 179.737 128.525 180.17H131.255C131.235 179.717 131.115 179.367 130.895 179.12C130.675 178.867 130.368 178.74 129.975 178.74ZM137.693 183.09C137.266 183.09 136.89 182.99 136.563 182.79C136.243 182.583 135.993 182.29 135.813 181.91C135.633 181.53 135.543 181.08 135.543 180.56C135.543 180.04 135.633 179.593 135.813 179.22C135.993 178.84 136.243 178.547 136.563 178.34C136.883 178.133 137.26 178.03 137.693 178.03C138.06 178.03 138.386 178.11 138.673 178.27C138.96 178.43 139.173 178.647 139.313 178.92V175.95H140.323V183H139.333V182.15C139.193 182.443 138.976 182.673 138.683 182.84C138.396 183.007 138.066 183.09 137.693 183.09ZM137.953 182.31C138.366 182.31 138.7 182.16 138.953 181.86C139.206 181.56 139.333 181.127 139.333 180.56C139.333 179.993 139.206 179.563 138.953 179.27C138.7 178.97 138.366 178.82 137.953 178.82C137.533 178.82 137.196 178.97 136.943 179.27C136.69 179.563 136.563 179.993 136.563 180.56C136.563 181.127 136.69 181.56 136.943 181.86C137.196 182.16 137.533 182.31 137.953 182.31ZM144.031 183.09C143.231 183.09 142.601 182.867 142.141 182.42C141.681 181.967 141.451 181.35 141.451 180.57C141.451 180.07 141.551 179.63 141.751 179.25C141.958 178.863 142.241 178.563 142.601 178.35C142.961 178.137 143.375 178.03 143.841 178.03C144.515 178.03 145.045 178.247 145.431 178.68C145.818 179.107 146.011 179.697 146.011 180.45V180.79H142.431C142.505 181.803 143.041 182.31 144.041 182.31C144.321 182.31 144.595 182.267 144.861 182.18C145.135 182.093 145.391 181.95 145.631 181.75L145.931 182.45C145.711 182.65 145.428 182.807 145.081 182.92C144.735 183.033 144.385 183.09 144.031 183.09ZM143.881 178.74C143.461 178.74 143.128 178.87 142.881 179.13C142.635 179.39 142.485 179.737 142.431 180.17H145.161C145.141 179.717 145.021 179.367 144.801 179.12C144.581 178.867 144.275 178.74 143.881 178.74ZM149.732 183.09C149.359 183.09 149.029 183.007 148.742 182.84C148.456 182.673 148.242 182.45 148.102 182.17V183H147.112V175.95H148.122V178.91C148.269 178.643 148.482 178.43 148.762 178.27C149.049 178.11 149.372 178.03 149.732 178.03C150.166 178.03 150.542 178.133 150.862 178.34C151.189 178.547 151.439 178.84 151.612 179.22C151.792 179.593 151.882 180.04 151.882 180.56C151.882 181.08 151.792 181.53 151.612 181.91C151.439 182.29 151.189 182.583 150.862 182.79C150.542 182.99 150.166 183.09 149.732 183.09ZM149.482 182.31C149.902 182.31 150.236 182.16 150.482 181.86C150.736 181.56 150.862 181.127 150.862 180.56C150.862 179.993 150.736 179.563 150.482 179.27C150.236 178.97 149.902 178.82 149.482 178.82C149.062 178.82 148.726 178.97 148.472 179.27C148.226 179.563 148.102 179.993 148.102 180.56C148.102 181.127 148.226 181.56 148.472 181.86C148.726 182.16 149.062 182.31 149.482 182.31ZM155.311 183.09C154.511 183.09 153.881 182.867 153.421 182.42C152.961 181.967 152.731 181.35 152.731 180.57C152.731 180.07 152.831 179.63 153.031 179.25C153.237 178.863 153.521 178.563 153.881 178.35C154.241 178.137 154.654 178.03 155.121 178.03C155.794 178.03 156.324 178.247 156.711 178.68C157.097 179.107 157.291 179.697 157.291 180.45V180.79H153.711C153.784 181.803 154.321 182.31 155.321 182.31C155.601 182.31 155.874 182.267 156.141 182.18C156.414 182.093 156.671 181.95 156.911 181.75L157.211 182.45C156.991 182.65 156.707 182.807 156.361 182.92C156.014 183.033 155.664 183.09 155.311 183.09ZM155.161 178.74C154.741 178.74 154.407 178.87 154.161 179.13C153.914 179.39 153.764 179.737 153.711 180.17H156.441C156.421 179.717 156.301 179.367 156.081 179.12C155.861 178.867 155.554 178.74 155.161 178.74ZM158.392 183V178.12H159.372V178.99C159.625 178.41 160.152 178.087 160.952 178.02L161.282 178L161.352 178.86L160.742 178.92C159.855 179.007 159.412 179.463 159.412 180.29V183H158.392ZM162.122 183V178.12H163.132V183H162.122ZM162.272 177.47L163.302 175.45H164.332L162.972 177.47H162.272ZM166.114 183.09C165.774 183.09 165.47 183.023 165.204 182.89C164.937 182.757 164.724 182.577 164.564 182.35C164.41 182.123 164.334 181.867 164.334 181.58C164.334 181.22 164.424 180.937 164.604 180.73C164.79 180.523 165.094 180.373 165.514 180.28C165.94 180.187 166.514 180.14 167.234 180.14H167.574V179.88C167.574 179.5 167.494 179.227 167.334 179.06C167.174 178.893 166.91 178.81 166.544 178.81C166.264 178.81 165.984 178.853 165.704 178.94C165.424 179.02 165.137 179.15 164.844 179.33L164.534 178.62C164.787 178.44 165.104 178.297 165.484 178.19C165.864 178.083 166.227 178.03 166.574 178.03C167.24 178.03 167.734 178.19 168.054 178.51C168.374 178.823 168.534 179.317 168.534 179.99V183H167.584V182.19C167.464 182.47 167.277 182.69 167.024 182.85C166.77 183.01 166.467 183.09 166.114 183.09ZM166.314 182.37C166.674 182.37 166.974 182.243 167.214 181.99C167.454 181.737 167.574 181.417 167.574 181.03V180.76H167.244C166.757 180.76 166.374 180.783 166.094 180.83C165.82 180.877 165.624 180.957 165.504 181.07C165.39 181.177 165.334 181.327 165.334 181.52C165.334 181.773 165.42 181.98 165.594 182.14C165.767 182.293 166.007 182.37 166.314 182.37ZM174.702 183.09C174.202 183.09 173.768 182.987 173.402 182.78C173.042 182.567 172.762 182.27 172.562 181.89C172.362 181.503 172.262 181.05 172.262 180.53C172.262 179.757 172.482 179.147 172.922 178.7C173.362 178.253 173.955 178.03 174.702 178.03C175.008 178.03 175.312 178.083 175.612 178.19C175.912 178.297 176.158 178.443 176.352 178.63L176.032 179.34C175.845 179.167 175.638 179.04 175.412 178.96C175.192 178.873 174.982 178.83 174.782 178.83C174.308 178.83 173.942 178.98 173.682 179.28C173.428 179.573 173.302 179.993 173.302 180.54C173.302 181.087 173.428 181.517 173.682 181.83C173.942 182.137 174.308 182.29 174.782 182.29C174.982 182.29 175.192 182.25 175.412 182.17C175.638 182.083 175.845 181.953 176.032 181.78L176.352 182.5C176.158 182.68 175.908 182.823 175.602 182.93C175.302 183.037 175.002 183.09 174.702 183.09ZM179.242 183.09C178.749 183.09 178.322 182.987 177.962 182.78C177.602 182.573 177.322 182.283 177.122 181.91C176.929 181.53 176.832 181.08 176.832 180.56C176.832 180.04 176.929 179.593 177.122 179.22C177.322 178.84 177.602 178.547 177.962 178.34C178.322 178.133 178.749 178.03 179.242 178.03C179.722 178.03 180.142 178.133 180.502 178.34C180.862 178.547 181.142 178.84 181.342 179.22C181.542 179.593 181.642 180.04 181.642 180.56C181.642 181.08 181.542 181.53 181.342 181.91C181.142 182.283 180.862 182.573 180.502 182.78C180.142 182.987 179.722 183.09 179.242 183.09ZM179.242 182.31C179.655 182.31 179.989 182.16 180.242 181.86C180.495 181.56 180.622 181.127 180.622 180.56C180.622 179.993 180.495 179.563 180.242 179.27C179.989 178.97 179.655 178.82 179.242 178.82C178.822 178.82 178.485 178.97 178.232 179.27C177.979 179.563 177.852 179.993 177.852 180.56C177.852 181.127 177.979 181.56 178.232 181.86C178.485 182.16 178.822 182.31 179.242 182.31ZM182.776 183V178.12H183.756V178.93C183.923 178.637 184.15 178.413 184.436 178.26C184.73 178.107 185.056 178.03 185.416 178.03C186.57 178.03 187.146 178.683 187.146 179.99V183H186.136V180.05C186.136 179.63 186.053 179.323 185.886 179.13C185.726 178.937 185.473 178.84 185.126 178.84C184.72 178.84 184.393 178.97 184.146 179.23C183.906 179.483 183.786 179.82 183.786 180.24V183H182.776ZM190.688 183.09C190.188 183.09 189.755 182.987 189.388 182.78C189.028 182.567 188.748 182.27 188.548 181.89C188.348 181.503 188.248 181.05 188.248 180.53C188.248 179.757 188.468 179.147 188.908 178.7C189.348 178.253 189.941 178.03 190.688 178.03C190.995 178.03 191.298 178.083 191.598 178.19C191.898 178.297 192.145 178.443 192.338 178.63L192.018 179.34C191.831 179.167 191.625 179.04 191.398 178.96C191.178 178.873 190.968 178.83 190.768 178.83C190.295 178.83 189.928 178.98 189.668 179.28C189.415 179.573 189.288 179.993 189.288 180.54C189.288 181.087 189.415 181.517 189.668 181.83C189.928 182.137 190.295 182.29 190.768 182.29C190.968 182.29 191.178 182.25 191.398 182.17C191.625 182.083 191.831 181.953 192.018 181.78L192.338 182.5C192.145 182.68 191.895 182.823 191.588 182.93C191.288 183.037 190.988 183.09 190.688 183.09ZM195.398 183.09C194.598 183.09 193.968 182.867 193.508 182.42C193.048 181.967 192.818 181.35 192.818 180.57C192.818 180.07 192.918 179.63 193.118 179.25C193.325 178.863 193.608 178.563 193.968 178.35C194.328 178.137 194.742 178.03 195.208 178.03C195.882 178.03 196.412 178.247 196.798 178.68C197.185 179.107 197.378 179.697 197.378 180.45V180.79H193.798C193.872 181.803 194.408 182.31 195.408 182.31C195.688 182.31 195.962 182.267 196.228 182.18C196.502 182.093 196.758 181.95 196.998 181.75L197.298 182.45C197.078 182.65 196.795 182.807 196.448 182.92C196.102 183.033 195.752 183.09 195.398 183.09ZM195.248 178.74C194.828 178.74 194.495 178.87 194.248 179.13C194.002 179.39 193.852 179.737 193.798 180.17H196.528C196.508 179.717 196.388 179.367 196.168 179.12C195.948 178.867 195.642 178.74 195.248 178.74ZM198.48 183V178.12H199.46V178.93C199.626 178.637 199.853 178.413 200.14 178.26C200.433 178.107 200.76 178.03 201.12 178.03C202.273 178.03 202.85 178.683 202.85 179.99V183H201.84V180.05C201.84 179.63 201.756 179.323 201.59 179.13C201.43 178.937 201.176 178.84 200.83 178.84C200.423 178.84 200.096 178.97 199.85 179.23C199.61 179.483 199.49 179.82 199.49 180.24V183H198.48ZM206.321 183.09C205.708 183.09 205.251 182.933 204.951 182.62C204.651 182.307 204.501 181.853 204.501 181.26V178.9H203.551V178.12H204.501V176.65H205.511V178.12H207.021V178.9H205.511V181.18C205.511 181.533 205.585 181.8 205.731 181.98C205.885 182.16 206.131 182.25 206.471 182.25C206.578 182.25 206.681 182.24 206.781 182.22C206.881 182.193 206.981 182.163 207.081 182.13L207.241 182.89C207.141 182.95 207.001 182.997 206.821 183.03C206.648 183.07 206.481 183.09 206.321 183.09ZM207.894 183V178.12H208.874V178.99C209.127 178.41 209.654 178.087 210.454 178.02L210.784 178L210.854 178.86L210.244 178.92C209.357 179.007 208.914 179.463 208.914 180.29V183H207.894ZM213.135 183.09C212.795 183.09 212.492 183.023 212.225 182.89C211.959 182.757 211.745 182.577 211.585 182.35C211.432 182.123 211.355 181.867 211.355 181.58C211.355 181.22 211.445 180.937 211.625 180.73C211.812 180.523 212.115 180.373 212.535 180.28C212.962 180.187 213.535 180.14 214.255 180.14H214.595V179.88C214.595 179.5 214.515 179.227 214.355 179.06C214.195 178.893 213.932 178.81 213.565 178.81C213.285 178.81 213.005 178.853 212.725 178.94C212.445 179.02 212.159 179.15 211.865 179.33L211.555 178.62C211.809 178.44 212.125 178.297 212.505 178.19C212.885 178.083 213.249 178.03 213.595 178.03C214.262 178.03 214.755 178.19 215.075 178.51C215.395 178.823 215.555 179.317 215.555 179.99V183H214.605V182.19C214.485 182.47 214.299 182.69 214.045 182.85C213.792 183.01 213.489 183.09 213.135 183.09ZM213.335 182.37C213.695 182.37 213.995 182.243 214.235 181.99C214.475 181.737 214.595 181.417 214.595 181.03V180.76H214.265C213.779 180.76 213.395 180.783 213.115 180.83C212.842 180.877 212.645 180.957 212.525 181.07C212.412 181.177 212.355 181.327 212.355 181.52C212.355 181.773 212.442 181.98 212.615 182.14C212.789 182.293 213.029 182.37 213.335 182.37ZM216.946 183V178.12H217.926V178.99C218.18 178.41 218.706 178.087 219.506 178.02L219.836 178L219.906 178.86L219.296 178.92C218.41 179.007 217.966 179.463 217.966 180.29V183H216.946ZM220.697 183V178.12H221.677V178.91C221.823 178.63 222.027 178.413 222.287 178.26C222.547 178.107 222.85 178.03 223.197 178.03C223.943 178.03 224.427 178.357 224.647 179.01C224.8 178.703 225.02 178.463 225.307 178.29C225.593 178.117 225.92 178.03 226.287 178.03C227.38 178.03 227.927 178.683 227.927 179.99V183H226.917V180.04C226.917 179.627 226.843 179.323 226.697 179.13C226.557 178.937 226.323 178.84 225.997 178.84C225.63 178.84 225.34 178.97 225.127 179.23C224.913 179.483 224.807 179.83 224.807 180.27V183H223.797V180.04C223.797 179.627 223.727 179.323 223.587 179.13C223.447 178.937 223.213 178.84 222.887 178.84C222.52 178.84 222.23 178.97 222.017 179.23C221.81 179.483 221.707 179.83 221.707 180.27V183H220.697ZM231.629 183.09C230.829 183.09 230.199 182.867 229.739 182.42C229.279 181.967 229.049 181.35 229.049 180.57C229.049 180.07 229.149 179.63 229.349 179.25C229.556 178.863 229.839 178.563 230.199 178.35C230.559 178.137 230.972 178.03 231.439 178.03C232.112 178.03 232.642 178.247 233.029 178.68C233.416 179.107 233.609 179.697 233.609 180.45V180.79H230.029C230.102 181.803 230.639 182.31 231.639 182.31C231.919 182.31 232.192 182.267 232.459 182.18C232.732 182.093 232.989 181.95 233.229 181.75L233.529 182.45C233.309 182.65 233.026 182.807 232.679 182.92C232.332 183.033 231.982 183.09 231.629 183.09ZM231.479 178.74C231.059 178.74 230.726 178.87 230.479 179.13C230.232 179.39 230.082 179.737 230.029 180.17H232.759C232.739 179.717 232.619 179.367 232.399 179.12C232.179 178.867 231.872 178.74 231.479 178.74Z" fill="#363636"/>
<path d="M190.394 75.11C189.614 75.11 188.944 74.96 188.384 74.66C187.824 74.36 187.394 73.9367 187.094 73.39C186.801 72.8433 186.654 72.2033 186.654 71.47C186.654 70.7367 186.801 70.1 187.094 69.56C187.394 69.0133 187.824 68.59 188.384 68.29C188.944 67.99 189.614 67.84 190.394 67.84C190.861 67.84 191.311 67.9133 191.744 68.06C192.178 68.2 192.528 68.3867 192.794 68.62L192.244 70.07C191.951 69.8567 191.658 69.7 191.364 69.6C191.071 69.4933 190.771 69.44 190.464 69.44C189.844 69.44 189.378 69.6167 189.064 69.97C188.751 70.3167 188.594 70.8167 188.594 71.47C188.594 72.13 188.751 72.6367 189.064 72.99C189.378 73.3367 189.844 73.51 190.464 73.51C190.771 73.51 191.071 73.46 191.364 73.36C191.658 73.2533 191.951 73.0933 192.244 72.88L192.794 74.33C192.528 74.5633 192.178 74.7533 191.744 74.9C191.311 75.04 190.861 75.11 190.394 75.11ZM195.718 75.11C195.171 75.11 194.695 75.0067 194.288 74.8C193.881 74.5933 193.565 74.2967 193.338 73.91C193.111 73.5233 192.998 73.0667 192.998 72.54C192.998 72.0067 193.111 71.55 193.338 71.17C193.565 70.7833 193.881 70.4867 194.288 70.28C194.695 70.0733 195.171 69.97 195.718 69.97C196.265 69.97 196.741 70.0733 197.148 70.28C197.555 70.4867 197.868 70.7833 198.088 71.17C198.315 71.55 198.428 72.0067 198.428 72.54C198.428 73.0667 198.315 73.5233 198.088 73.91C197.868 74.2967 197.555 74.5933 197.148 74.8C196.741 75.0067 196.265 75.11 195.718 75.11ZM195.718 73.8C195.985 73.8 196.205 73.7 196.378 73.5C196.551 73.3 196.638 72.98 196.638 72.54C196.638 72.0933 196.551 71.7733 196.378 71.58C196.205 71.38 195.985 71.28 195.718 71.28C195.445 71.28 195.221 71.38 195.048 71.58C194.875 71.7733 194.788 72.0933 194.788 72.54C194.788 72.98 194.875 73.3 195.048 73.5C195.221 73.7 195.445 73.8 195.718 73.8ZM201.204 75.11C200.75 75.11 200.33 75.0633 199.944 74.97C199.564 74.8767 199.24 74.7467 198.974 74.58L199.384 73.43C199.63 73.57 199.917 73.6867 200.244 73.78C200.57 73.8667 200.894 73.91 201.214 73.91C201.46 73.91 201.637 73.8767 201.744 73.81C201.85 73.7367 201.904 73.6433 201.904 73.53C201.904 73.43 201.867 73.3567 201.794 73.31C201.727 73.2567 201.63 73.2167 201.504 73.19L200.394 73.01C199.98 72.9433 199.66 72.7933 199.434 72.56C199.207 72.3267 199.094 72.0233 199.094 71.65C199.094 71.3033 199.19 71.0067 199.384 70.76C199.577 70.5067 199.847 70.3133 200.194 70.18C200.54 70.04 200.937 69.97 201.384 69.97C201.737 69.97 202.087 70.0133 202.434 70.1C202.78 70.18 203.084 70.3133 203.344 70.5L202.904 71.63C202.71 71.4967 202.47 71.3867 202.184 71.3C201.897 71.2067 201.64 71.16 201.414 71.16C201.14 71.16 200.947 71.2 200.834 71.28C200.72 71.3533 200.664 71.4433 200.664 71.55C200.664 71.73 200.787 71.84 201.034 71.88L202.144 72.07C202.57 72.1367 202.897 72.2833 203.124 72.51C203.357 72.73 203.474 73.03 203.474 73.41C203.474 73.95 203.267 74.37 202.854 74.67C202.44 74.9633 201.89 75.11 201.204 75.11ZM205.915 75.11C205.535 75.11 205.198 75.04 204.905 74.9C204.618 74.76 204.391 74.57 204.225 74.33C204.065 74.0833 203.985 73.8033 203.985 73.49C203.985 73.1367 204.078 72.8567 204.265 72.65C204.451 72.4367 204.751 72.2867 205.165 72.2C205.578 72.1067 206.128 72.06 206.815 72.06H207.195V71.92C207.195 71.68 207.131 71.51 207.005 71.41C206.885 71.31 206.675 71.26 206.375 71.26C206.121 71.26 205.841 71.3 205.535 71.38C205.228 71.46 204.928 71.5833 204.635 71.75L204.185 70.58C204.351 70.46 204.565 70.3533 204.825 70.26C205.085 70.1667 205.358 70.0967 205.645 70.05C205.931 69.9967 206.201 69.97 206.455 69.97C207.275 69.97 207.881 70.1467 208.275 70.5C208.675 70.8533 208.875 71.41 208.875 72.17V75H207.215V74.3C207.128 74.5533 206.971 74.7533 206.745 74.9C206.518 75.04 206.241 75.11 205.915 75.11ZM206.315 73.95C206.561 73.95 206.768 73.87 206.935 73.71C207.108 73.55 207.195 73.34 207.195 73.08V72.9H206.815C206.421 72.9 206.131 72.9433 205.945 73.03C205.765 73.11 205.675 73.24 205.675 73.42C205.675 73.5733 205.728 73.7 205.835 73.8C205.948 73.9 206.108 73.95 206.315 73.95ZM211.848 75.11C211.395 75.11 210.975 75.0633 210.588 74.97C210.208 74.8767 209.885 74.7467 209.618 74.58L210.028 73.43C210.275 73.57 210.561 73.6867 210.888 73.78C211.215 73.8667 211.538 73.91 211.858 73.91C212.105 73.91 212.281 73.8767 212.388 73.81C212.495 73.7367 212.548 73.6433 212.548 73.53C212.548 73.43 212.511 73.3567 212.438 73.31C212.371 73.2567 212.275 73.2167 212.148 73.19L211.038 73.01C210.625 72.9433 210.305 72.7933 210.078 72.56C209.851 72.3267 209.738 72.0233 209.738 71.65C209.738 71.3033 209.835 71.0067 210.028 70.76C210.221 70.5067 210.491 70.3133 210.838 70.18C211.185 70.04 211.581 69.97 212.028 69.97C212.381 69.97 212.731 70.0133 213.078 70.1C213.425 70.18 213.728 70.3133 213.988 70.5L213.548 71.63C213.355 71.4967 213.115 71.3867 212.828 71.3C212.541 71.2067 212.285 71.16 212.058 71.16C211.785 71.16 211.591 71.2 211.478 71.28C211.365 71.3533 211.308 71.4433 211.308 71.55C211.308 71.73 211.431 71.84 211.678 71.88L212.788 72.07C213.215 72.1367 213.541 72.2833 213.768 72.51C214.001 72.73 214.118 73.03 214.118 73.41C214.118 73.95 213.911 74.37 213.498 74.67C213.085 74.9633 212.535 75.11 211.848 75.11ZM221.1 76.8V74.4C220.96 74.6133 220.757 74.7867 220.49 74.92C220.23 75.0467 219.944 75.11 219.63 75.11C219.21 75.11 218.837 75.0067 218.51 74.8C218.19 74.5933 217.937 74.2967 217.75 73.91C217.57 73.5233 217.48 73.0667 217.48 72.54C217.48 72.0067 217.57 71.55 217.75 71.17C217.937 70.7833 218.19 70.4867 218.51 70.28C218.837 70.0733 219.21 69.97 219.63 69.97C219.964 69.97 220.267 70.0433 220.54 70.19C220.814 70.33 221.014 70.52 221.14 70.76V70.08H222.88V76.8H221.1ZM220.2 73.8C220.467 73.8 220.687 73.7 220.86 73.5C221.034 73.3 221.12 72.98 221.12 72.54C221.12 72.0933 221.034 71.7733 220.86 71.58C220.687 71.38 220.467 71.28 220.2 71.28C219.927 71.28 219.704 71.38 219.53 71.58C219.357 71.7733 219.27 72.0933 219.27 72.54C219.27 72.98 219.357 73.3 219.53 73.5C219.704 73.7 219.927 73.8 220.2 73.8ZM225.752 75.11C225.112 75.11 224.638 74.9367 224.332 74.59C224.032 74.2367 223.882 73.7 223.882 72.98V70.08H225.662V73.03C225.662 73.51 225.868 73.75 226.282 73.75C226.522 73.75 226.718 73.6633 226.872 73.49C227.025 73.3167 227.102 73.0867 227.102 72.8V70.08H228.882V75H227.142V74.39C226.822 74.87 226.358 75.11 225.752 75.11ZM232.597 75.11C231.997 75.11 231.477 75.0067 231.037 74.8C230.604 74.5867 230.271 74.2867 230.037 73.9C229.804 73.5133 229.687 73.0567 229.687 72.53C229.687 72.03 229.797 71.5867 230.017 71.2C230.244 70.8133 230.551 70.5133 230.937 70.3C231.331 70.08 231.777 69.97 232.277 69.97C232.771 69.97 233.197 70.0733 233.557 70.28C233.924 70.4867 234.204 70.7833 234.397 71.17C234.597 71.55 234.697 71.9967 234.697 72.51V72.9H231.387C231.447 73.22 231.581 73.45 231.787 73.59C231.994 73.73 232.281 73.8 232.647 73.8C232.901 73.8 233.164 73.7633 233.437 73.69C233.717 73.61 233.964 73.4967 234.177 73.35L234.617 74.52C234.364 74.7 234.054 74.8433 233.687 74.95C233.321 75.0567 232.957 75.11 232.597 75.11ZM232.357 71.12C232.091 71.12 231.871 71.2 231.697 71.36C231.531 71.52 231.424 71.7533 231.377 72.06H233.237C233.217 71.7467 233.131 71.5133 232.977 71.36C232.831 71.2 232.624 71.12 232.357 71.12ZM173.682 88.8V82.08H175.412V82.75C175.545 82.51 175.749 82.32 176.022 82.18C176.295 82.04 176.595 81.97 176.922 81.97C177.342 81.97 177.712 82.0733 178.032 82.28C178.359 82.4867 178.612 82.7833 178.792 83.17C178.979 83.55 179.072 84.0067 179.072 84.54C179.072 85.0667 178.982 85.5233 178.802 85.91C178.622 86.2967 178.369 86.5933 178.042 86.8C177.722 87.0067 177.349 87.11 176.922 87.11C176.615 87.11 176.329 87.0467 176.062 86.92C175.802 86.7933 175.602 86.6233 175.462 86.41V88.8H173.682ZM176.362 85.8C176.629 85.8 176.849 85.7 177.022 85.5C177.195 85.3 177.282 84.98 177.282 84.54C177.282 84.0933 177.195 83.7733 177.022 83.58C176.849 83.38 176.629 83.28 176.362 83.28C176.089 83.28 175.865 83.38 175.692 83.58C175.519 83.7733 175.432 84.0933 175.432 84.54C175.432 84.98 175.519 85.3 175.692 85.5C175.865 85.7 176.089 85.8 176.362 85.8ZM181.723 87.11C181.083 87.11 180.61 86.9367 180.303 86.59C180.003 86.2367 179.853 85.7 179.853 84.98V82.08H181.633V85.03C181.633 85.51 181.84 85.75 182.253 85.75C182.493 85.75 182.69 85.6633 182.843 85.49C182.997 85.3167 183.073 85.0867 183.073 84.8V82.08H184.853V87H183.113V86.39C182.793 86.87 182.33 87.11 181.723 87.11ZM188.569 87.11C187.969 87.11 187.449 87.0067 187.009 86.8C186.576 86.5867 186.242 86.2867 186.009 85.9C185.776 85.5133 185.659 85.0567 185.659 84.53C185.659 84.03 185.769 83.5867 185.989 83.2C186.216 82.8133 186.522 82.5133 186.909 82.3C187.302 82.08 187.749 81.97 188.249 81.97C188.742 81.97 189.169 82.0733 189.529 82.28C189.896 82.4867 190.176 82.7833 190.369 83.17C190.569 83.55 190.669 83.9967 190.669 84.51V84.9H187.359C187.419 85.22 187.552 85.45 187.759 85.59C187.966 85.73 188.252 85.8 188.619 85.8C188.872 85.8 189.136 85.7633 189.409 85.69C189.689 85.61 189.936 85.4967 190.149 85.35L190.589 86.52C190.336 86.7 190.026 86.8433 189.659 86.95C189.292 87.0567 188.929 87.11 188.569 87.11ZM188.329 83.12C188.062 83.12 187.842 83.2 187.669 83.36C187.502 83.52 187.396 83.7533 187.349 84.06H189.209C189.189 83.7467 189.102 83.5133 188.949 83.36C188.802 83.2 188.596 83.12 188.329 83.12ZM193.356 87.11C192.936 87.11 192.563 87.0067 192.236 86.8C191.916 86.5933 191.663 86.2967 191.476 85.91C191.296 85.5233 191.206 85.0667 191.206 84.54C191.206 84.0067 191.296 83.55 191.476 83.17C191.663 82.7833 191.916 82.4867 192.236 82.28C192.563 82.0733 192.936 81.97 193.356 81.97C193.669 81.97 193.956 82.0367 194.216 82.17C194.483 82.2967 194.686 82.4633 194.826 82.67V79.95H196.606V87H194.866V86.32C194.739 86.56 194.539 86.7533 194.266 86.9C193.993 87.04 193.689 87.11 193.356 87.11ZM193.926 85.8C194.193 85.8 194.413 85.7 194.586 85.5C194.759 85.3 194.846 84.98 194.846 84.54C194.846 84.0933 194.759 83.7733 194.586 83.58C194.413 83.38 194.193 83.28 193.926 83.28C193.653 83.28 193.429 83.38 193.256 83.58C193.083 83.7733 192.996 84.0933 192.996 84.54C192.996 84.98 193.083 85.3 193.256 85.5C193.429 85.7 193.653 85.8 193.926 85.8ZM200.127 87.11C199.581 87.11 199.104 87.0067 198.697 86.8C198.291 86.5933 197.974 86.2967 197.747 85.91C197.521 85.5233 197.407 85.0667 197.407 84.54C197.407 84.0067 197.521 83.55 197.747 83.17C197.974 82.7833 198.291 82.4867 198.697 82.28C199.104 82.0733 199.581 81.97 200.127 81.97C200.674 81.97 201.151 82.0733 201.557 82.28C201.964 82.4867 202.277 82.7833 202.497 83.17C202.724 83.55 202.837 84.0067 202.837 84.54C202.837 85.0667 202.724 85.5233 202.497 85.91C202.277 86.2967 201.964 86.5933 201.557 86.8C201.151 87.0067 200.674 87.11 200.127 87.11ZM200.127 85.8C200.394 85.8 200.614 85.7 200.787 85.5C200.961 85.3 201.047 84.98 201.047 84.54C201.047 84.0933 200.961 83.7733 200.787 83.58C200.614 83.38 200.394 83.28 200.127 83.28C199.854 83.28 199.631 83.38 199.457 83.58C199.284 83.7733 199.197 84.0933 199.197 84.54C199.197 84.98 199.284 85.3 199.457 85.5C199.631 85.7 199.854 85.8 200.127 85.8ZM209.024 87.11C208.471 87.11 207.987 87.0067 207.574 86.8C207.167 86.5933 206.851 86.2967 206.624 85.91C206.397 85.5233 206.284 85.0633 206.284 84.53C206.284 83.9967 206.397 83.54 206.624 83.16C206.851 82.7733 207.167 82.48 207.574 82.28C207.987 82.0733 208.471 81.97 209.024 81.97C209.351 81.97 209.674 82.0167 209.994 82.11C210.321 82.1967 210.587 82.32 210.794 82.48L210.324 83.7C210.171 83.58 209.991 83.4867 209.784 83.42C209.584 83.3467 209.394 83.31 209.214 83.31C208.861 83.31 208.587 83.4167 208.394 83.63C208.201 83.8433 208.104 84.1433 208.104 84.53C208.104 84.9233 208.201 85.23 208.394 85.45C208.587 85.6633 208.861 85.77 209.214 85.77C209.394 85.77 209.584 85.7367 209.784 85.67C209.991 85.5967 210.171 85.5 210.324 85.38L210.794 86.6C210.587 86.76 210.321 86.8867 209.994 86.98C209.667 87.0667 209.344 87.11 209.024 87.11ZM213.75 87.11C213.204 87.11 212.727 87.0067 212.32 86.8C211.914 86.5933 211.597 86.2967 211.37 85.91C211.144 85.5233 211.03 85.0667 211.03 84.54C211.03 84.0067 211.144 83.55 211.37 83.17C211.597 82.7833 211.914 82.4867 212.32 82.28C212.727 82.0733 213.204 81.97 213.75 81.97C214.297 81.97 214.774 82.0733 215.18 82.28C215.587 82.4867 215.9 82.7833 216.12 83.17C216.347 83.55 216.46 84.0067 216.46 84.54C216.46 85.0667 216.347 85.5233 216.12 85.91C215.9 86.2967 215.587 86.5933 215.18 86.8C214.774 87.0067 214.297 87.11 213.75 87.11ZM213.75 85.8C214.017 85.8 214.237 85.7 214.41 85.5C214.584 85.3 214.67 84.98 214.67 84.54C214.67 84.0933 214.584 83.7733 214.41 83.58C214.237 83.38 214.017 83.28 213.75 83.28C213.477 83.28 213.254 83.38 213.08 83.58C212.907 83.7733 212.82 84.0933 212.82 84.54C212.82 84.98 212.907 85.3 213.08 85.5C213.254 85.7 213.477 85.8 213.75 85.8ZM217.276 87V82.08H219.006V82.75C219.179 82.4967 219.403 82.3033 219.676 82.17C219.949 82.0367 220.256 81.97 220.596 81.97C221.183 81.97 221.616 82.1433 221.896 82.49C222.183 82.8367 222.326 83.37 222.326 84.09V87H220.546V84.16C220.546 83.86 220.493 83.6467 220.386 83.52C220.286 83.3933 220.136 83.33 219.936 83.33C219.669 83.33 219.456 83.4167 219.296 83.59C219.136 83.7567 219.056 83.9833 219.056 84.27V87H217.276ZM225.92 87.11C225.174 87.11 224.62 86.9367 224.26 86.59C223.9 86.2433 223.72 85.72 223.72 85.02V83.39H222.8V82.08H223.72V80.65H225.5V82.08H226.9V83.39H225.5V84.96C225.5 85.44 225.744 85.68 226.23 85.68C226.31 85.68 226.397 85.6733 226.49 85.66C226.59 85.64 226.7 85.6133 226.82 85.58L227.06 86.86C226.907 86.94 226.727 87 226.52 87.04C226.314 87.0867 226.114 87.11 225.92 87.11ZM227.598 87V82.08H229.328V82.91C229.555 82.3433 230.045 82.0333 230.798 81.98L231.288 81.94L231.388 83.44L230.418 83.53C230.065 83.5633 229.808 83.6633 229.648 83.83C229.488 83.99 229.408 84.23 229.408 84.55V87H227.598ZM234.336 87.11C233.79 87.11 233.313 87.0067 232.906 86.8C232.5 86.5933 232.183 86.2967 231.956 85.91C231.73 85.5233 231.616 85.0667 231.616 84.54C231.616 84.0067 231.73 83.55 231.956 83.17C232.183 82.7833 232.5 82.4867 232.906 82.28C233.313 82.0733 233.79 81.97 234.336 81.97C234.883 81.97 235.36 82.0733 235.766 82.28C236.173 82.4867 236.486 82.7833 236.706 83.17C236.933 83.55 237.046 84.0067 237.046 84.54C237.046 85.0667 236.933 85.5233 236.706 85.91C236.486 86.2967 236.173 86.5933 235.766 86.8C235.36 87.0067 234.883 87.11 234.336 87.11ZM234.336 85.8C234.603 85.8 234.823 85.7 234.996 85.5C235.17 85.3 235.256 84.98 235.256 84.54C235.256 84.0933 235.17 83.7733 234.996 83.58C234.823 83.38 234.603 83.28 234.336 83.28C234.063 83.28 233.84 83.38 233.666 83.58C233.493 83.7733 233.406 84.0933 233.406 84.54C233.406 84.98 233.493 85.3 233.666 85.5C233.84 85.7 234.063 85.8 234.336 85.8ZM239.802 87.11C239.122 87.11 238.628 86.94 238.322 86.6C238.015 86.2533 237.862 85.7333 237.862 85.04V79.95H239.642V84.98C239.642 85.4467 239.855 85.68 240.282 85.68C240.348 85.68 240.415 85.6767 240.482 85.67C240.555 85.6633 240.625 85.6533 240.692 85.64L240.672 87C240.405 87.0733 240.115 87.11 239.802 87.11ZM243.048 87.11C242.668 87.11 242.332 87.04 242.038 86.9C241.752 86.76 241.525 86.57 241.358 86.33C241.198 86.0833 241.118 85.8033 241.118 85.49C241.118 85.1367 241.212 84.8567 241.398 84.65C241.585 84.4367 241.885 84.2867 242.298 84.2C242.712 84.1067 243.262 84.06 243.948 84.06H244.328V83.92C244.328 83.68 244.265 83.51 244.138 83.41C244.018 83.31 243.808 83.26 243.508 83.26C243.255 83.26 242.975 83.3 242.668 83.38C242.362 83.46 242.062 83.5833 241.768 83.75L241.318 82.58C241.485 82.46 241.698 82.3533 241.958 82.26C242.218 82.1667 242.492 82.0967 242.778 82.05C243.065 81.9967 243.335 81.97 243.588 81.97C244.408 81.97 245.015 82.1467 245.408 82.5C245.808 82.8533 246.008 83.41 246.008 84.17V87H244.348V86.3C244.262 86.5533 244.105 86.7533 243.878 86.9C243.652 87.04 243.375 87.11 243.048 87.11ZM243.448 85.95C243.695 85.95 243.902 85.87 244.068 85.71C244.242 85.55 244.328 85.34 244.328 85.08V84.9H243.948C243.555 84.9 243.265 84.9433 243.078 85.03C242.898 85.11 242.808 85.24 242.808 85.42C242.808 85.5733 242.862 85.7 242.968 85.8C243.082 85.9 243.242 85.95 243.448 85.95ZM247.022 87V82.08H248.752V82.91C248.979 82.3433 249.469 82.0333 250.222 81.98L250.712 81.94L250.812 83.44L249.842 83.53C249.489 83.5633 249.232 83.6633 249.072 83.83C248.912 83.99 248.832 84.23 248.832 84.55V87H247.022Z" fill="white"/>
<mask id="mask1_1566_14" style="mask-type:luminance" maskUnits="userSpaceOnUse" x="96" y="83" width="99" height="101">
<path d="M137.44 183.216L194.209 120.525L152.77 82.9996L96 145.69L137.44 183.216Z" fill="white"/>
</mask>
<g mask="url(#mask1_1566_14)">
<path d="M149.197 163.716C149.197 163.716 129.92 143.275 143.425 112.386" stroke="#363636" stroke-width="3" stroke-linecap="round" stroke-linejoin="round"/>
<path d="M149.18 117.892L144.05 109.898L136.828 114.964" stroke="#363636" stroke-width="3" stroke-linecap="round" stroke-linejoin="round"/>
</g>
</svg>
