<svg width="155" height="166" viewBox="0 0 155 166" fill="none" xmlns="http://www.w3.org/2000/svg">
<g opacity="0.1" clip-path="url(#clip0_1580_1377)">
<mask id="mask0_1580_1377" style="mask-type:luminance" maskUnits="userSpaceOnUse" x="-45" y="-33" width="245" height="242">
<path d="M200 -33H-45V209H200V-33Z" fill="white"/>
</mask>
<g mask="url(#mask0_1580_1377)">
<path d="M145.068 124.951H8.16491C-8.89788 124.951 -16.7242 105.216 -3.65912 95.0599C-3.55067 94.9735 -3.43862 94.8931 -3.33017 94.8066C-0.352927 92.5241 1.59335 89.1887 1.59335 84.3119C2.75302 77.9144 -3.64899 76.2104 -5.36138 65.1229C-8.37586 45.6361 1.87788 32.8308 13.3426 26.3155C51.5613 4.58776 124.095 4.58776 155.322 25.6124C161.334 29.6648 164.515 41.1123 162.083 46.5157C147.116 79.7917 155.227 88.7802 161.497 100.515C167.512 111.769 158.635 124.951 145.068 124.951Z" fill="url(#paint0_linear_1580_1377)"/>
<path d="M106.247 114.62V34.76H62.4733V26.2093H34.7067" stroke="black" stroke-width="2" stroke-dasharray="8 8"/>
<path d="M162.757 140.445V140.847C162.703 149.272 149.126 153.468 101.41 153.264C95.1501 153.24 88.6125 153.133 81.973 152.959C78.4329 157.311 59.1151 160.565 35.8333 160.467C10.0593 160.354 -10.8046 156.171 -10.7674 151.122C-10.7641 150.524 -10.4691 149.939 -9.90627 149.376C-7.48175 146.956 -7.67481 143.604 -10.0382 141.148C-10.5367 140.63 -10.8013 140.118 -10.7981 139.616C-10.7981 139.47 -10.7948 139.32 -10.7879 139.165C-10.4828 131.181 -3.03614 124.913 5.85474 124.919L145.196 124.983C154.758 124.987 162.642 131.858 162.757 140.445Z" fill="url(#paint1_linear_1580_1377)"/>
<path d="M40.0375 43.4136H16.1196C14.8028 43.4136 13.7352 42.3591 13.7352 41.0585V21.8827C13.7352 20.582 14.8028 19.5279 16.1196 19.5279H40.0375C41.3542 19.5279 42.4215 20.582 42.4215 21.8827V41.0585C42.4215 42.3591 41.3542 43.4136 40.0375 43.4136Z" fill="url(#paint2_linear_1580_1377)"/>
<path d="M42.4215 23.2689V21.6113C42.4215 20.4607 41.4771 19.5279 40.3122 19.5279H15.8445C14.6796 19.5279 13.7352 20.4607 13.7352 21.6113V23.2689H42.4215Z" fill="url(#paint3_linear_1580_1377)"/>
<path d="M16.8053 21.6462C16.8053 21.9872 16.5247 22.2641 16.1764 22.2641C15.8282 22.2641 15.5447 21.9872 15.5447 21.6462C15.5447 21.3022 15.8282 21.0221 16.1764 21.0221C16.5247 21.0221 16.8053 21.3022 16.8053 21.6462Z" fill="white"/>
<path d="M18.3837 21.6462C18.3837 21.9872 18.0999 22.2641 17.7516 22.2641C17.4034 22.2641 17.1228 21.9872 17.1228 21.6462C17.1228 21.3022 17.4034 21.0221 17.7516 21.0221C18.0999 21.0221 18.3837 21.3022 18.3837 21.6462Z" fill="white"/>
<path d="M19.9586 21.6462C19.9586 21.9872 19.6751 22.2641 19.3298 22.2641C18.9815 22.2641 18.698 21.9872 18.698 21.6462C18.698 21.3022 18.9815 21.0221 19.3298 21.0221C19.6751 21.0221 19.9586 21.3022 19.9586 21.6462Z" fill="white"/>
<path d="M84.1831 16.2445V50.3619C84.1831 51.439 85.0654 52.3105 86.1558 52.3105H122.495C123.585 52.3105 124.47 51.439 124.47 50.3619V16.2445C124.47 15.1674 123.585 14.2939 122.495 14.2939H86.1558C85.0654 14.2939 84.1831 15.1674 84.1831 16.2445Z" fill="white"/>
<path d="M84.1823 16.2373V18.2369H124.468V16.2373C124.468 15.1635 123.589 14.2933 122.502 14.2933H86.1488C85.0633 14.2933 84.1823 15.1635 84.1823 16.2373Z" fill="url(#paint4_linear_1580_1377)"/>
<path d="M93.3844 32.7044V43.9064C93.3844 44.1994 93.1299 44.4371 92.8163 44.4371H89.7839C89.4703 44.4371 89.2158 44.1994 89.2158 43.9064V32.7044C89.2158 32.4115 89.4703 32.1737 89.7839 32.1737H92.8163C93.1299 32.1737 93.3844 32.4115 93.3844 32.7044Z" fill="#8446FF"/>
<path d="M99.8975 40.4743V43.769C99.8975 44.1378 99.643 44.4371 99.3294 44.4371H96.2973C95.9837 44.4371 95.7292 44.1378 95.7292 43.769V40.4743C95.7292 40.1055 95.9837 39.8063 96.2973 39.8063H99.3294C99.643 39.8063 99.8975 40.1055 99.8975 40.4743Z" fill="#657BFF"/>
<path d="M106.411 27.6637V43.8502C106.411 44.1742 106.156 44.4371 105.843 44.4371H102.811C102.497 44.4371 102.243 44.1742 102.243 43.8502V27.6637C102.243 27.3396 102.497 27.0767 102.811 27.0767H105.843C106.156 27.0767 106.411 27.3396 106.411 27.6637Z" fill="#8446FF"/>
<path d="M112.924 35.2537V43.9249C112.924 44.2077 112.67 44.4371 112.356 44.4371H109.324C109.01 44.4371 108.756 44.2077 108.756 43.9249V35.2537C108.756 34.971 109.01 34.7415 109.324 34.7415H112.356C112.67 34.7415 112.924 34.971 112.924 35.2537Z" fill="#657BFF"/>
<path d="M119.437 28.0559V43.95C119.437 44.2189 119.183 44.4371 118.869 44.4371H115.837C115.524 44.4371 115.269 44.2189 115.269 43.95V28.0559C115.269 27.787 115.524 27.5688 115.837 27.5688H118.869C119.183 27.5688 119.437 27.787 119.437 28.0559Z" fill="#8446FF"/>
<path d="M95.2827 43.0648V125.668C95.2827 127.071 94.1286 128.212 92.7076 128.212H42.5287C41.1077 128.212 39.9532 127.071 39.9532 125.668V43.0648C39.9532 41.6612 41.1077 40.527 42.5287 40.527H92.7076C94.1286 40.527 95.2827 41.6612 95.2827 43.0648Z" fill="#373A50"/>
<path d="M92.4365 60.4427H42.7959V47.8861H92.4365V60.4427Z" fill="white"/>
<path d="M84.018 50.9495V57.3831C84.018 57.5561 83.8491 57.6974 83.6479 57.6974H81.8296C81.6219 57.6974 81.4598 57.5561 81.4598 57.3831V50.9495C81.4598 50.7701 81.6219 50.6287 81.8296 50.6287H83.6479C83.8491 50.6287 84.018 50.7701 84.018 50.9495Z" fill="#8446FF"/>
<path d="M88.1601 50.9495V57.3831C88.1601 57.5561 87.9847 57.6974 87.7835 57.6974H85.9656C85.7578 57.6974 85.5955 57.5561 85.5955 57.3831V50.9495C85.5955 50.7701 85.7578 50.6287 85.9656 50.6287H87.7835C87.9847 50.6287 88.1601 50.7701 88.1601 50.9495Z" fill="#657BFF"/>
<path d="M79.8824 50.9495V57.3831C79.8824 57.5561 79.7135 57.6974 79.5123 57.6974H77.6944C77.4801 57.6974 77.3177 57.5561 77.3177 57.3831V50.9495C77.3177 50.7701 77.4801 50.6287 77.6944 50.6287H79.5123C79.7135 50.6287 79.8824 50.7701 79.8824 50.9495Z" fill="#3DCFA4"/>
<path d="M63.2521 50.5474V57.7787C63.2521 58.1056 62.9862 58.3686 62.6615 58.3686H46.6858C46.3611 58.3686 46.0952 58.1056 46.0952 57.7787V50.5474C46.0952 50.2267 46.3611 49.9637 46.6858 49.9637H62.6615C62.9862 49.9637 63.2521 50.2267 63.2521 50.5474Z" fill="url(#paint5_linear_1580_1377)"/>
<path d="M92.4365 76.9548H42.7959V64.3982H92.4365V76.9548Z" fill="white"/>
<path d="M84.018 67.4616V73.8953C84.018 74.0682 83.8491 74.2092 83.6479 74.2092H81.8296C81.6219 74.2092 81.4598 74.0682 81.4598 73.8953V67.4616C81.4598 67.2822 81.6219 67.1409 81.8296 67.1409H83.6479C83.8491 67.1409 84.018 67.2822 84.018 67.4616Z" fill="#8446FF"/>
<path d="M88.1601 67.4616V73.8953C88.1601 74.0682 87.9847 74.2092 87.7835 74.2092H85.9656C85.7578 74.2092 85.5955 74.0682 85.5955 73.8953V67.4616C85.5955 67.2822 85.7578 67.1409 85.9656 67.1409H87.7835C87.9847 67.1409 88.1601 67.2822 88.1601 67.4616Z" fill="#657BFF"/>
<path d="M79.8824 67.4616V73.8953C79.8824 74.0682 79.7135 74.2092 79.5123 74.2092H77.6944C77.4801 74.2092 77.3177 74.0682 77.3177 73.8953V67.4616C77.3177 67.2822 77.4801 67.1409 77.6944 67.1409H79.5123C79.7135 67.1409 79.8824 67.2822 79.8824 67.4616Z" fill="#3DCFA4"/>
<path d="M63.2521 67.0593V74.2909C63.2521 74.6177 62.9862 74.8807 62.6615 74.8807H46.6858C46.3611 74.8807 46.0952 74.6177 46.0952 74.2909V67.0593C46.0952 66.7385 46.3611 66.4759 46.6858 66.4759H62.6615C62.9862 66.4759 63.2521 66.7385 63.2521 67.0593Z" fill="url(#paint6_linear_1580_1377)"/>
<path d="M92.4365 93.4669H42.7959V80.91H92.4365V93.4669Z" fill="white"/>
<path d="M84.018 83.9734V90.4071C84.018 90.58 83.8491 90.7214 83.6479 90.7214H81.8296C81.6219 90.7214 81.4598 90.58 81.4598 90.4071V83.9734C81.4598 83.794 81.6219 83.653 81.8296 83.653H83.6479C83.8491 83.653 84.018 83.794 84.018 83.9734Z" fill="#8446FF"/>
<path d="M88.1601 83.9734V90.4071C88.1601 90.58 87.9847 90.7214 87.7835 90.7214H85.9656C85.7578 90.7214 85.5955 90.58 85.5955 90.4071V83.9734C85.5955 83.794 85.7578 83.653 85.9656 83.653H87.7835C87.9847 83.653 88.1601 83.794 88.1601 83.9734Z" fill="#657BFF"/>
<path d="M79.8824 83.9734V90.4071C79.8824 90.58 79.7135 90.7214 79.5123 90.7214H77.6944C77.4801 90.7214 77.3177 90.58 77.3177 90.4071V83.9734C77.3177 83.794 77.4801 83.653 77.6944 83.653H79.5123C79.7135 83.653 79.8824 83.794 79.8824 83.9734Z" fill="#3DCFA4"/>
<path d="M63.2521 83.5714V90.803C63.2521 91.1299 62.9862 91.3928 62.6615 91.3928H46.6858C46.3611 91.3928 46.0952 91.1299 46.0952 90.803V83.5714C46.0952 83.2507 46.3611 82.988 46.6858 82.988H62.6615C62.9862 82.988 63.2521 83.2507 63.2521 83.5714Z" fill="url(#paint7_linear_1580_1377)"/>
<path d="M83.0813 120.226V103.48C83.0813 102.345 82.1493 101.424 80.9998 101.424H54.2324C53.0829 101.424 52.1509 102.345 52.1509 103.48V120.226C52.1509 121.361 53.0829 122.282 54.2324 122.282H80.9998C82.1493 122.282 83.0813 121.361 83.0813 120.226Z" fill="white"/>
<path d="M83.0795 103.378C82.9606 103.355 82.8345 103.344 82.7041 103.344H55.9358C54.7862 103.344 53.8549 104.267 53.8549 105.403V122.146C53.8549 122.18 53.8549 122.215 53.8588 122.249C52.8857 122.075 52.15 121.238 52.15 120.228V103.48C52.15 102.344 53.081 101.425 54.2345 101.425H80.9989C82.1138 101.425 83.0259 102.291 83.0795 103.378Z" fill="#EBF2FF"/>
<g opacity="0.138488">
<path d="M68.9904 106.214V112.993C68.9904 113.741 68.373 114.351 67.6164 114.351C66.8595 114.351 66.2424 113.741 66.2424 112.993V106.214C66.2424 105.466 66.8595 104.857 67.6164 104.857C68.373 104.857 68.9904 105.466 68.9904 106.214Z" fill="#8446FF"/>
<path d="M69.319 117.588C69.319 118.517 68.5568 119.27 67.6164 119.27C66.6759 119.27 65.9135 118.517 65.9135 117.588C65.9135 116.659 66.6759 115.906 67.6164 115.906C68.5568 115.906 69.319 116.659 69.319 117.588Z" fill="#8446FF"/>
</g>
<path d="M110.838 136.004H81.3997C80.7346 136.004 80.1875 135.487 80.1581 134.831L79.0598 110.367C79.0324 109.756 79.525 109.245 80.1463 109.245H109.894C110.475 109.245 110.953 109.699 110.98 110.273L112.08 134.722C112.111 135.42 111.546 136.004 110.838 136.004Z" fill="#EAC250"/>
<path d="M112.713 113.728H81.7649V130.055H112.713V113.728Z" fill="#EBF2FF"/>
<path d="M111.618 114.763H80.6696V131.09H111.618V114.763Z" fill="white"/>
<path d="M117.908 113.835L115.939 134.889C115.88 135.521 115.344 136.004 114.702 136.004H81.5735C80.8421 136.004 80.2688 135.383 80.3361 134.664L82.0168 116.668C82.0687 116.115 82.5401 115.692 83.1033 115.692H103.556C104.119 115.692 104.589 115.268 104.641 114.715L104.742 113.638C104.794 113.085 105.264 112.662 105.827 112.662H116.824C117.464 112.662 117.966 113.206 117.908 113.835Z" fill="#FADF68"/>
<path d="M15.0263 86.6501C15.1565 87.008 15.2125 87.3723 15.201 87.7292C15.161 88.8896 14.4246 89.9651 13.2571 90.3902C12.1701 90.7858 11.003 90.5083 10.2243 89.7686C10.1472 89.6947 10.0747 89.6157 10.0045 89.5364C8.35088 87.6545 6.75473 82.492 6.75473 82.492L11.3087 80.0266L14.5992 85.8724C14.6 85.8752 14.6038 85.8765 14.6046 85.8793C14.7788 86.1074 14.9231 86.3669 15.0263 86.6501Z" fill="#DE8E68"/>
<path d="M7.46106 76.1605C9.97565 77.5846 10.7514 79.4743 12.5443 81.8831L8.20424 85.6395L7.46106 76.1605Z" fill="#9D4FCC"/>
<path d="M27.102 87.1007C27.2196 87.9195 26.6463 88.6853 25.8213 88.8074C25.8213 88.8074 21.5719 89.7799 13.0524 90.5819L13.0279 90.5855C11.4332 90.8076 9.9627 89.7136 9.7351 88.1301C9.50683 86.5412 10.6206 85.0566 12.2244 84.8192C12.2629 84.8134 12.2983 84.8081 12.3373 84.8053L12.335 84.7891L12.4727 84.7937C12.65 84.7811 12.8244 84.7861 12.9952 84.8054L25.5076 85.8252C26.289 85.7681 26.9897 86.3198 27.102 87.1007Z" fill="#DE8E68"/>
<path d="M31.6212 79.8974L12.2074 93.9685C11.0607 94.7566 10.7698 96.3116 11.5515 97.441C12.3332 98.5706 13.8948 98.8515 15.0415 98.0634L34.4553 83.9923L31.6212 79.8974Z" fill="#111228"/>
<path d="M28.8371 81.4758L32.0481 86.1155C32.209 86.348 32.5304 86.4051 32.7658 86.2433L35.5813 84.3078C35.8167 84.146 35.8772 83.8262 35.7163 83.5937L32.5054 78.954C32.3445 78.7215 32.0234 78.6644 31.788 78.8262L28.9721 80.7617C28.7367 80.9235 28.6763 81.2433 28.8371 81.4758Z" fill="#3A4AC3"/>
<path d="M62.884 61.3571C57.0332 53.0691 45.494 51.1291 37.1093 57.0088C28.7246 62.8886 26.6664 74.3677 32.5179 82.6526C38.3666 90.934 49.9107 92.8811 58.2954 87.0014C66.6801 81.1217 68.7365 69.6359 62.884 61.3571Z" fill="#59A8FF"/>
<path d="M62.9444 74.6897C62.2263 78.5386 60.1204 82.0179 56.5806 84.551C55.6038 85.2339 54.5786 85.7907 53.5223 86.2208L53.5217 86.2243C53.1956 86.3569 52.868 86.4783 52.5358 86.5845C51.6012 86.9 50.6448 87.1194 49.6841 87.2447C49.3925 87.2866 49.1002 87.3143 48.8083 87.3384C48.1449 87.3905 47.4792 87.3962 46.8169 87.363C45.6244 87.3016 44.4423 87.1063 43.2993 86.7751C42.562 86.5645 41.8412 86.3 41.145 85.9825C40.8832 85.8619 40.622 85.7379 40.3669 85.6008C39.5015 85.1466 38.6735 84.606 37.8998 83.9858C37.6337 83.7718 37.3701 83.5437 37.1154 83.3068C35.8576 82.1489 34.8047 80.77 34.0384 79.3548C30.5764 72.994 32.1124 64.9869 37.7631 60.2703C38.0779 60.0039 38.4082 59.7508 38.7545 59.5077C38.7756 59.49 38.8003 59.4726 38.825 59.4555C45.7965 54.5692 55.403 56.1635 60.3285 63.0077C60.4183 63.1206 60.6952 63.5377 60.8123 63.7201C60.8323 63.7486 60.8516 63.7805 60.8709 63.8125C61.1049 64.1816 61.3198 64.5583 61.5155 64.9421C63.1012 68.0134 63.5469 71.4427 62.9444 74.6897Z" fill="white"/>
<mask id="mask1_1580_1377" style="mask-type:alpha" maskUnits="userSpaceOnUse" x="32" y="56" width="31" height="32">
<mask id="mask2_1580_1377" style="mask-type:luminance" maskUnits="userSpaceOnUse" x="32" y="56" width="31" height="32">
<path d="M50.2431 56.9952C41.8538 55.5343 33.814 61.1067 32.2862 69.4412C30.7583 77.7757 36.3209 85.7167 44.7103 87.1776C53.0996 88.6385 61.1394 83.0662 62.6672 74.7317C64.1951 66.3972 58.6325 58.4562 50.2431 56.9952Z" fill="white"/>
</mask>
<g mask="url(#mask2_1580_1377)">
<path d="M31.6223 79.8922L12.212 93.977C11.0655 94.7659 10.7741 96.3217 11.555 97.4512C12.3358 98.5811 13.8966 98.8615 15.043 98.0726L34.4533 83.9879L31.6223 79.8922Z" fill="#111228"/>
<path d="M28.8396 81.4775L32.0471 86.118C32.2078 86.3506 32.5291 86.4076 32.7645 86.2456L35.5795 84.3082C35.8148 84.1462 35.8754 83.8263 35.7147 83.5937L32.5071 78.9532C32.3464 78.7206 32.0255 78.6637 31.7901 78.8256L28.9748 80.763C28.7394 80.925 28.6788 81.2449 28.8396 81.4775Z" fill="#3A4AC3"/>
<path d="M62.884 61.3503C57.0393 53.0608 45.5063 51.1243 37.1231 57.0099C28.7398 62.8955 26.6778 74.3805 32.5231 82.6668C38.3657 90.9497 49.9037 92.8933 58.287 87.0077C66.6702 81.1221 68.7304 69.6305 62.884 61.3503Z" fill="#59A8FF"/>
<path d="M62.933 74.6787C62.212 78.5304 60.1044 82.0136 56.5645 84.551C55.5877 85.2352 54.5626 85.7932 53.5066 86.2244L53.506 86.2279C53.18 86.3608 52.8524 86.4826 52.5204 86.5891C51.586 86.9056 50.63 87.1259 49.6698 87.252C49.3784 87.2942 49.0863 87.3222 48.7945 87.3465C48.1315 87.3992 47.4661 87.4055 46.8043 87.3728C45.6126 87.3124 44.4313 87.1179 43.2893 86.7875C42.5526 86.5774 41.8325 86.3133 41.137 85.9962C40.8755 85.8758 40.6146 85.7519 40.3598 85.6149C39.4953 85.1612 38.6683 84.621 37.8956 84.001C37.6298 83.7871 37.3665 83.5591 37.1122 83.3222C35.8561 82.1647 34.8051 80.7859 34.0405 79.3705C30.5862 73.0089 32.1281 64.9958 37.7795 60.2717C38.0943 60.0049 38.4246 59.7514 38.771 59.5078C38.7921 59.4901 38.8168 59.4727 38.8414 59.4556C45.813 54.5605 55.4122 56.1479 60.3288 62.9919C60.4185 63.1049 60.6949 63.5219 60.8117 63.7044C60.8316 63.7329 60.8509 63.7648 60.8701 63.7968C61.1037 64.166 61.3181 64.5427 61.5133 64.9266C63.0954 67.9983 63.5379 71.4292 62.933 74.6787Z" fill="white"/>
</g>
</mask>
<g mask="url(#mask1_1580_1377)">
<mask id="mask3_1580_1377" style="mask-type:luminance" maskUnits="userSpaceOnUse" x="21" y="36" width="87" height="57">
<path d="M21.6772 36.747H107.591V92.2456H21.6772V36.747Z" fill="white"/>
</mask>
<g mask="url(#mask3_1580_1377)">
<path d="M49.1038 57.6929C47.3036 57.6929 46.5924 59.1878 46.5924 60.9763C46.5924 62.7529 47.2974 64.2627 49.1038 64.2627C50.8949 64.2627 51.612 62.7436 51.612 60.9763C51.612 59.2185 50.9054 57.6929 49.1038 57.6929ZM49.1038 57.6929C47.3036 57.6929 46.5924 59.1878 46.5924 60.9763C46.5924 62.7529 47.2974 64.2627 49.1038 64.2627C50.8949 64.2627 51.612 62.7436 51.612 60.9763C51.612 59.2185 50.9054 57.6929 49.1038 57.6929ZM49.1038 57.6929C47.3036 57.6929 46.5924 59.1878 46.5924 60.9763C46.5924 62.7529 47.2974 64.2627 49.1038 64.2627C50.8949 64.2627 51.612 62.7436 51.612 60.9763C51.612 59.2185 50.9054 57.6929 49.1038 57.6929ZM49.1038 57.6929C47.3036 57.6929 46.5924 59.1878 46.5924 60.9763C46.5924 62.7529 47.2974 64.2627 49.1038 64.2627C50.8949 64.2627 51.612 62.7436 51.612 60.9763C51.612 59.2185 50.9054 57.6929 49.1038 57.6929ZM49.1038 57.6929C47.3036 57.6929 46.5924 59.1878 46.5924 60.9763C46.5924 62.7529 47.2974 64.2627 49.1038 64.2627C50.8949 64.2627 51.612 62.7436 51.612 60.9763C51.612 59.2185 50.9054 57.6929 49.1038 57.6929ZM49.1038 63.4919C47.8308 63.4919 47.4365 62.2351 47.4365 60.9763C47.4365 59.7199 47.837 58.4708 49.1038 58.4708C50.3631 58.4708 50.7711 59.7225 50.7711 60.9763C50.7711 62.2296 50.371 63.4919 49.1038 63.4919ZM49.1038 63.4919C47.8308 63.4919 47.4365 62.2351 47.4365 60.9763C47.4365 59.7199 47.837 58.4708 49.1038 58.4708C50.3631 58.4708 50.7711 59.7225 50.7711 60.9763C50.7711 62.2296 50.371 63.4919 49.1038 63.4919ZM49.1038 63.4919C47.8308 63.4919 47.4365 62.2351 47.4365 60.9763C47.4365 59.7199 47.837 58.4708 49.1038 58.4708C50.3631 58.4708 50.7711 59.7225 50.7711 60.9763C50.7711 62.2296 50.371 63.4919 49.1038 63.4919ZM49.1038 63.4919C47.8308 63.4919 47.4365 62.2351 47.4365 60.9763C47.4365 59.7199 47.837 58.4708 49.1038 58.4708C50.3631 58.4708 50.7711 59.7225 50.7711 60.9763C50.7711 62.2296 50.371 63.4919 49.1038 63.4919ZM49.1038 63.4919C47.8308 63.4919 47.4365 62.2351 47.4365 60.9763C47.4365 59.7199 47.837 58.4708 49.1038 58.4708C50.3631 58.4708 50.7711 59.7225 50.7711 60.9763C50.7711 62.2296 50.371 63.4919 49.1038 63.4919Z" fill="#CEB5FF"/>
<path d="M56.5604 63.3938H55.6418V58.2221C55.6418 57.9794 55.4536 57.7842 55.1982 57.7842H55.0032C54.9146 57.7842 54.8294 57.8052 54.7441 57.8471L53.4848 58.4954C53.18 58.646 53.1938 58.9997 53.3538 59.1578C53.4721 59.2691 53.6423 59.3065 53.854 59.2104L54.801 58.7548V63.3938H53.6978C53.4577 63.3938 53.3074 63.5757 53.3074 63.7864C53.3074 63.992 53.4567 64.1685 53.6978 64.1685H56.5604C56.7953 64.1685 56.9576 63.9936 56.9576 63.7864C56.9576 63.5796 56.7995 63.3938 56.5604 63.3938ZM56.5604 63.3938H55.6418V58.2221C55.6418 57.9794 55.4536 57.7842 55.1982 57.7842H55.0032C54.9146 57.7842 54.8294 57.8052 54.7441 57.8471L53.4848 58.4954C53.18 58.646 53.1938 58.9997 53.3538 59.1578C53.4721 59.2691 53.6423 59.3065 53.854 59.2104L54.801 58.7548V63.3938H53.6978C53.4577 63.3938 53.3074 63.5757 53.3074 63.7864C53.3074 63.992 53.4567 64.1685 53.6978 64.1685H56.5604C56.7953 64.1685 56.9576 63.9936 56.9576 63.7864C56.9576 63.5796 56.7995 63.3938 56.5604 63.3938ZM56.5604 63.3938H55.6418V58.2221C55.6418 57.9794 55.4536 57.7842 55.1982 57.7842H55.0032C54.9146 57.7842 54.8294 57.8052 54.7441 57.8471L53.4848 58.4954C53.18 58.646 53.1938 58.9997 53.3538 59.1578C53.4721 59.2691 53.6423 59.3065 53.854 59.2104L54.801 58.7548V63.3938H53.6978C53.4577 63.3938 53.3074 63.5757 53.3074 63.7864C53.3074 63.992 53.4567 64.1685 53.6978 64.1685H56.5604C56.7953 64.1685 56.9576 63.9936 56.9576 63.7864C56.9576 63.5796 56.7995 63.3938 56.5604 63.3938ZM56.5604 63.3938H55.6418V58.2221C55.6418 57.9794 55.4536 57.7842 55.1982 57.7842H55.0032C54.9146 57.7842 54.8294 57.8052 54.7441 57.8471L53.4848 58.4954C53.18 58.646 53.1938 58.9997 53.3538 59.1578C53.4721 59.2691 53.6423 59.3065 53.854 59.2104L54.801 58.7548V63.3938H53.6978C53.4577 63.3938 53.3074 63.5757 53.3074 63.7864C53.3074 63.992 53.4567 64.1685 53.6978 64.1685H56.5604C56.7953 64.1685 56.9576 63.9936 56.9576 63.7864C56.9576 63.5796 56.7995 63.3938 56.5604 63.3938ZM56.5604 63.3938H55.6418V58.2221C55.6418 57.9794 55.4536 57.7842 55.1982 57.7842H55.0032C54.9146 57.7842 54.8294 57.8052 54.7441 57.8471L53.4848 58.4954C53.18 58.646 53.1938 58.9997 53.3538 59.1578C53.4721 59.2691 53.6423 59.3065 53.854 59.2104L54.801 58.7548V63.3938H53.6978C53.4577 63.3938 53.3074 63.5757 53.3074 63.7864C53.3074 63.992 53.4567 64.1685 53.6978 64.1685H56.5604C56.7953 64.1685 56.9576 63.9936 56.9576 63.7864C56.9576 63.5796 56.7995 63.3938 56.5604 63.3938Z" fill="#CEB5FF"/>
<path d="M60.8638 57.6929C59.0636 57.6929 58.3524 59.1878 58.3524 60.9763C58.3524 62.7529 59.0574 64.2627 60.8638 64.2627C62.6549 64.2627 63.372 62.7436 63.372 60.9763C63.372 59.2185 62.6654 57.6929 60.8638 57.6929ZM60.8638 57.6929C59.0636 57.6929 58.3524 59.1878 58.3524 60.9763C58.3524 62.7529 59.0574 64.2627 60.8638 64.2627C62.6549 64.2627 63.372 62.7436 63.372 60.9763C63.372 59.2185 62.6654 57.6929 60.8638 57.6929ZM60.8638 57.6929C59.0636 57.6929 58.3524 59.1878 58.3524 60.9763C58.3524 62.7529 59.0574 64.2627 60.8638 64.2627C62.6549 64.2627 63.372 62.7436 63.372 60.9763C63.372 59.2185 62.6654 57.6929 60.8638 57.6929ZM60.8638 57.6929C59.0636 57.6929 58.3524 59.1878 58.3524 60.9763C58.3524 62.7529 59.0574 64.2627 60.8638 64.2627C62.6549 64.2627 63.372 62.7436 63.372 60.9763C63.372 59.2185 62.6654 57.6929 60.8638 57.6929ZM60.8638 57.6929C59.0636 57.6929 58.3524 59.1878 58.3524 60.9763C58.3524 62.7529 59.0574 64.2627 60.8638 64.2627C62.6549 64.2627 63.372 62.7436 63.372 60.9763C63.372 59.2185 62.6654 57.6929 60.8638 57.6929ZM60.8638 63.4919C59.5908 63.4919 59.1965 62.2351 59.1965 60.9763C59.1965 59.7199 59.597 58.4708 60.8638 58.4708C62.1231 58.4708 62.5311 59.7225 62.5311 60.9763C62.5311 62.2296 62.131 63.4919 60.8638 63.4919ZM60.8638 63.4919C59.5908 63.4919 59.1965 62.2351 59.1965 60.9763C59.1965 59.7199 59.597 58.4708 60.8638 58.4708C62.1231 58.4708 62.5311 59.7225 62.5311 60.9763C62.5311 62.2296 62.131 63.4919 60.8638 63.4919ZM60.8638 63.4919C59.5908 63.4919 59.1965 62.2351 59.1965 60.9763C59.1965 59.7199 59.597 58.4708 60.8638 58.4708C62.1231 58.4708 62.5311 59.7225 62.5311 60.9763C62.5311 62.2296 62.131 63.4919 60.8638 63.4919ZM60.8638 63.4919C59.5908 63.4919 59.1965 62.2351 59.1965 60.9763C59.1965 59.7199 59.597 58.4708 60.8638 58.4708C62.1231 58.4708 62.5311 59.7225 62.5311 60.9763C62.5311 62.2296 62.131 63.4919 60.8638 63.4919ZM60.8638 63.4919C59.5908 63.4919 59.1965 62.2351 59.1965 60.9763C59.1965 59.7199 59.597 58.4708 60.8638 58.4708C62.1231 58.4708 62.5311 59.7225 62.5311 60.9763C62.5311 62.2296 62.131 63.4919 60.8638 63.4919Z" fill="#CEB5FF"/>
<path d="M32.1171 57.6929C30.3169 57.6929 29.6057 59.1878 29.6057 60.9763C29.6057 62.7529 30.3107 64.2627 32.1171 64.2627C33.9082 64.2627 34.6253 62.7436 34.6253 60.9763C34.6253 59.2185 33.9187 57.6929 32.1171 57.6929ZM32.1171 57.6929C30.3169 57.6929 29.6057 59.1878 29.6057 60.9763C29.6057 62.7529 30.3107 64.2627 32.1171 64.2627C33.9082 64.2627 34.6253 62.7436 34.6253 60.9763C34.6253 59.2185 33.9187 57.6929 32.1171 57.6929ZM32.1171 57.6929C30.3169 57.6929 29.6057 59.1878 29.6057 60.9763C29.6057 62.7529 30.3107 64.2627 32.1171 64.2627C33.9082 64.2627 34.6253 62.7436 34.6253 60.9763C34.6253 59.2185 33.9187 57.6929 32.1171 57.6929ZM32.1171 57.6929C30.3169 57.6929 29.6057 59.1878 29.6057 60.9763C29.6057 62.7529 30.3107 64.2627 32.1171 64.2627C33.9082 64.2627 34.6253 62.7436 34.6253 60.9763C34.6253 59.2185 33.9187 57.6929 32.1171 57.6929ZM32.1171 57.6929C30.3169 57.6929 29.6057 59.1878 29.6057 60.9763C29.6057 62.7529 30.3107 64.2627 32.1171 64.2627C33.9082 64.2627 34.6253 62.7436 34.6253 60.9763C34.6253 59.2185 33.9187 57.6929 32.1171 57.6929ZM32.1171 63.4919C30.8441 63.4919 30.4498 62.2351 30.4498 60.9763C30.4498 59.7199 30.8503 58.4708 32.1171 58.4708C33.3764 58.4708 33.7844 59.7225 33.7844 60.9763C33.7844 62.2296 33.3843 63.4919 32.1171 63.4919ZM32.1171 63.4919C30.8441 63.4919 30.4498 62.2351 30.4498 60.9763C30.4498 59.7199 30.8503 58.4708 32.1171 58.4708C33.3764 58.4708 33.7844 59.7225 33.7844 60.9763C33.7844 62.2296 33.3843 63.4919 32.1171 63.4919ZM32.1171 63.4919C30.8441 63.4919 30.4498 62.2351 30.4498 60.9763C30.4498 59.7199 30.8503 58.4708 32.1171 58.4708C33.3764 58.4708 33.7844 59.7225 33.7844 60.9763C33.7844 62.2296 33.3843 63.4919 32.1171 63.4919ZM32.1171 63.4919C30.8441 63.4919 30.4498 62.2351 30.4498 60.9763C30.4498 59.7199 30.8503 58.4708 32.1171 58.4708C33.3764 58.4708 33.7844 59.7225 33.7844 60.9763C33.7844 62.2296 33.3843 63.4919 32.1171 63.4919ZM32.1171 63.4919C30.8441 63.4919 30.4498 62.2351 30.4498 60.9763C30.4498 59.7199 30.8503 58.4708 32.1171 58.4708C33.3764 58.4708 33.7844 59.7225 33.7844 60.9763C33.7844 62.2296 33.3843 63.4919 32.1171 63.4919Z" fill="#CEB5FF"/>
<path d="M43.4868 67.1415H43.2918C43.2065 67.1415 43.1183 67.1625 43.033 67.2044L41.7737 67.8527C41.4752 68.0034 41.4784 68.3451 41.6424 68.5151C41.7607 68.6264 41.9309 68.6639 42.1426 68.5677L43.0896 68.1121V72.7511H41.9864C41.7505 72.7511 41.5964 72.9363 41.5964 73.1438C41.5964 73.35 41.7535 73.5258 41.9864 73.5258H44.849C45.0786 73.5258 45.2465 73.3606 45.2465 73.1438C45.2465 72.9315 45.0878 72.7511 44.849 72.7511H43.9304V67.5794C43.9304 67.3371 43.7429 67.1415 43.4868 67.1415ZM43.4868 67.1415H43.2918C43.2065 67.1415 43.1183 67.1625 43.033 67.2044L41.7737 67.8527C41.4752 68.0034 41.4784 68.3451 41.6424 68.5151C41.7607 68.6264 41.9309 68.6639 42.1426 68.5677L43.0896 68.1121V72.7511H41.9864C41.7505 72.7511 41.5964 72.9363 41.5964 73.1438C41.5964 73.35 41.7535 73.5258 41.9864 73.5258H44.849C45.0786 73.5258 45.2465 73.3606 45.2465 73.1438C45.2465 72.9315 45.0878 72.7511 44.849 72.7511H43.9304V67.5794C43.9304 67.3371 43.7429 67.1415 43.4868 67.1415Z" fill="#CEB5FF"/>
<path d="M49.1365 66.9866C47.3408 66.9866 46.6248 68.4822 46.6248 70.2698C46.6248 72.0525 47.3375 73.5529 49.1365 73.5529C50.9387 73.5529 51.6443 72.0328 51.6443 70.2698C51.6443 68.5077 50.941 66.9866 49.1365 66.9866ZM49.1365 66.9866C47.3408 66.9866 46.6248 68.4822 46.6248 70.2698C46.6248 72.0525 47.3375 73.5529 49.1365 73.5529C50.9387 73.5529 51.6443 72.0328 51.6443 70.2698C51.6443 68.5077 50.941 66.9866 49.1365 66.9866ZM49.1365 72.7856C47.8645 72.7856 47.4692 71.5227 47.4692 70.2698C47.4692 69.0136 47.8697 67.7646 49.1365 67.7646C50.3958 67.7646 50.8035 69.0159 50.8035 70.2698C50.8035 71.5162 50.4036 72.7856 49.1365 72.7856ZM49.1365 72.7856C47.8645 72.7856 47.4692 71.5227 47.4692 70.2698C47.4692 69.0136 47.8697 67.7646 49.1365 67.7646C50.3958 67.7646 50.8035 69.0159 50.8035 70.2698C50.8035 71.5162 50.4036 72.7856 49.1365 72.7856Z" fill="#CEB5FF"/>
<path d="M53.5237 68.3596L54.5484 67.863V72.8811H53.3548C53.1052 72.8811 52.9327 73.076 52.9327 73.3096C52.9327 73.5355 53.0977 73.7226 53.3548 73.7226H56.4516C56.7061 73.7226 56.8812 73.5332 56.8812 73.3096C56.8812 73.0786 56.6989 72.8811 56.4516 72.8811H55.4575V67.2906C55.4575 67.027 55.2534 66.8169 54.978 66.8169H54.767C54.6748 66.8169 54.5788 66.8395 54.4867 66.885L53.1245 67.5865C52.7942 67.7533 52.8099 68.1282 52.9827 68.2989C53.1376 68.4519 53.3228 68.4422 53.5237 68.3596ZM53.5237 68.3596L54.5484 67.863V72.8811H53.3548C53.1052 72.8811 52.9327 73.076 52.9327 73.3096C52.9327 73.5355 53.0977 73.7226 53.3548 73.7226H56.4516C56.7061 73.7226 56.8812 73.5332 56.8812 73.3096C56.8812 73.0786 56.6989 72.8811 56.4516 72.8811H55.4575V67.2906C55.4575 67.027 55.2534 66.8169 54.978 66.8169H54.767C54.6748 66.8169 54.5788 66.8395 54.4867 66.885L53.1245 67.5865C52.7942 67.7533 52.8099 68.1282 52.9827 68.2989C53.1376 68.4519 53.3228 68.4422 53.5237 68.3596Z" fill="#8446FF"/>
<path d="M61.0716 66.7185C59.1247 66.7185 58.3547 68.3344 58.3547 70.2698C58.3547 72.2064 59.125 73.8214 61.0716 73.8214C63.0055 73.8214 63.7843 72.1935 63.7843 70.2698C63.7843 68.346 63.0058 66.7185 61.0716 66.7185ZM61.0716 66.7185C59.1247 66.7185 58.3547 68.3344 58.3547 70.2698C58.3547 72.2064 59.125 73.8214 61.0716 73.8214C63.0055 73.8214 63.7843 72.1935 63.7843 70.2698C63.7843 68.346 63.0058 66.7185 61.0716 66.7185ZM61.0716 72.9912C59.6957 72.9912 59.2681 71.625 59.2681 70.2698C59.2681 68.911 59.7013 67.5597 61.0716 67.5597C62.4338 67.5597 62.8748 68.9136 62.8748 70.2698C62.8748 71.6182 62.4423 72.9912 61.0716 72.9912ZM61.0716 72.9912C59.6957 72.9912 59.2681 71.625 59.2681 70.2698C59.2681 68.911 59.7013 67.5597 61.0716 67.5597C62.4338 67.5597 62.8748 68.9136 62.8748 70.2698C62.8748 71.6182 62.4423 72.9912 61.0716 72.9912Z" fill="#8446FF"/>
<path d="M43.2725 77.3755C41.4732 77.3755 40.7611 78.8821 40.7611 80.659C40.7611 82.4395 41.4778 83.9454 43.2725 83.9454C45.0636 83.9454 45.7807 82.4346 45.7807 80.659C45.7807 78.8969 45.0767 77.3755 43.2725 77.3755ZM43.2725 77.3755C41.4732 77.3755 40.7611 78.8821 40.7611 80.659C40.7611 82.4395 41.4778 83.9454 43.2725 83.9454C45.0636 83.9454 45.7807 82.4346 45.7807 80.659C45.7807 78.8969 45.0767 77.3755 43.2725 77.3755ZM43.2725 83.1745C41.9982 83.1745 41.6055 81.9155 41.6055 80.659C41.6055 79.4025 42.0057 78.1535 43.2725 78.1535C44.5367 78.1535 44.9398 79.4103 44.9398 80.659C44.9398 81.9145 44.5397 83.1745 43.2725 83.1745ZM43.2725 83.1745C41.9982 83.1745 41.6055 81.9155 41.6055 80.659C41.6055 79.4025 42.0057 78.1535 43.2725 78.1535C44.5367 78.1535 44.9398 79.4103 44.9398 80.659C44.9398 81.9145 44.5397 83.1745 43.2725 83.1745Z" fill="#CEB5FF"/>
<path d="M49.3668 77.4669H49.1718C49.0865 77.4669 48.9983 77.4878 48.913 77.5298L47.6537 78.178C47.3552 78.3287 47.3584 78.6704 47.5224 78.8405C47.6407 78.9518 47.8109 78.9892 48.0226 78.893L48.9696 78.4374V83.0764H47.8664C47.6306 83.0764 47.4764 83.2616 47.4764 83.4691C47.4764 83.6753 47.6335 83.8511 47.8664 83.8511H50.729C50.9586 83.8511 51.1265 83.6859 51.1265 83.4691C51.1265 83.2568 50.9678 83.0764 50.729 83.0764H49.8104V77.9047C49.8104 77.6624 49.6229 77.4669 49.3668 77.4669ZM49.3668 77.4669H49.1718C49.0865 77.4669 48.9983 77.4878 48.913 77.5298L47.6537 78.178C47.3552 78.3287 47.3584 78.6704 47.5224 78.8405C47.6407 78.9518 47.8109 78.9892 48.0226 78.893L48.9696 78.4374V83.0764H47.8664C47.6306 83.0764 47.4764 83.2616 47.4764 83.4691C47.4764 83.6753 47.6335 83.8511 47.8664 83.8511H50.729C50.9586 83.8511 51.1265 83.6859 51.1265 83.4691C51.1265 83.2568 50.9678 83.0764 50.729 83.0764H49.8104V77.9047C49.8104 77.6624 49.6229 77.4669 49.3668 77.4669Z" fill="#CEB5FF"/>
<path d="M55.0002 77.3755C53.1999 77.3755 52.4888 78.8705 52.4888 80.659C52.4888 82.4356 53.1937 83.9454 55.0002 83.9454C56.7913 83.9454 57.508 82.4266 57.508 80.659C57.508 78.9011 56.8018 77.3755 55.0002 77.3755ZM55.0002 77.3755C53.1999 77.3755 52.4888 78.8705 52.4888 80.659C52.4888 82.4356 53.1937 83.9454 55.0002 83.9454C56.7913 83.9454 57.508 82.4266 57.508 80.659C57.508 78.9011 56.8018 77.3755 55.0002 77.3755ZM55.0002 83.1745C53.7259 83.1745 53.3329 81.9155 53.3329 80.659C53.3329 79.4025 53.7334 78.1535 55.0002 78.1535C56.2592 78.1535 56.6675 79.4042 56.6675 80.659C56.6675 81.9122 56.2673 83.1745 55.0002 83.1745ZM55.0002 83.1745C53.7259 83.1745 53.3329 81.9155 53.3329 80.659C53.3329 79.4025 53.7334 78.1535 55.0002 78.1535C56.2592 78.1535 56.6675 79.4042 56.6675 80.659C56.6675 81.9122 56.2673 83.1745 55.0002 83.1745Z" fill="#CEB5FF"/>
<path d="M60.8638 77.3755C59.0636 77.3755 58.3524 78.8705 58.3524 80.659C58.3524 82.4356 59.0574 83.9454 60.8638 83.9454C62.6549 83.9454 63.372 82.4263 63.372 80.659C63.372 78.9011 62.6654 77.3755 60.8638 77.3755ZM60.8638 77.3755C59.0636 77.3755 58.3524 78.8705 58.3524 80.659C58.3524 82.4356 59.0574 83.9454 60.8638 83.9454C62.6549 83.9454 63.372 82.4263 63.372 80.659C63.372 78.9011 62.6654 77.3755 60.8638 77.3755ZM60.8638 83.1745C59.5908 83.1745 59.1965 81.9177 59.1965 80.659C59.1965 79.4025 59.597 78.1535 60.8638 78.1535C62.1231 78.1535 62.5311 79.4051 62.5311 80.659C62.5311 81.9122 62.131 83.1745 60.8638 83.1745ZM60.8638 83.1745C59.5908 83.1745 59.1965 81.9177 59.1965 80.659C59.1965 79.4025 59.597 78.1535 60.8638 78.1535C62.1231 78.1535 62.5311 79.4051 62.5311 80.659C62.5311 81.9122 62.131 83.1745 60.8638 83.1745Z" fill="#CEB5FF"/>
<path d="M32.3249 66.7185C30.378 66.7185 29.608 68.3344 29.608 70.2698C29.608 72.2064 30.3783 73.8214 32.3249 73.8214C34.2588 73.8214 35.0376 72.1935 35.0376 70.2698C35.0376 68.346 34.2591 66.7185 32.3249 66.7185ZM32.3249 66.7185C30.378 66.7185 29.608 68.3344 29.608 70.2698C29.608 72.2064 30.3783 73.8214 32.3249 73.8214C34.2588 73.8214 35.0376 72.1935 35.0376 70.2698C35.0376 68.346 34.2591 66.7185 32.3249 66.7185ZM32.3249 72.9912C30.949 72.9912 30.5214 71.625 30.5214 70.2698C30.5214 68.911 30.9546 67.5597 32.3249 67.5597C33.6871 67.5597 34.1281 68.9136 34.1281 70.2698C34.1281 71.6182 33.6956 72.9912 32.3249 72.9912ZM32.3249 72.9912C30.949 72.9912 30.5214 71.625 30.5214 70.2698C30.5214 68.911 30.9546 67.5597 32.3249 67.5597C33.6871 67.5597 34.1281 68.9136 34.1281 70.2698C34.1281 71.6182 33.6956 72.9912 32.3249 72.9912Z" fill="#8446FF"/>
<path d="M38.2601 67.1415H38.0651C37.9798 67.1415 37.8916 67.1625 37.8064 67.2045L36.5471 67.8527C36.2485 68.0034 36.2518 68.3451 36.4157 68.5151C36.534 68.6264 36.7042 68.6639 36.9159 68.5677L37.8629 68.1121V72.7511H36.7597C36.5239 72.7511 36.3697 72.9363 36.3697 73.1438C36.3697 73.35 36.5268 73.5258 36.7597 73.5258H39.6223C39.8519 73.5258 40.0199 73.3606 40.0199 73.1438C40.0199 72.9315 39.8611 72.7511 39.6223 72.7511H38.7037V67.5794C38.7037 67.3371 38.5162 67.1415 38.2601 67.1415ZM38.2601 67.1415H38.0651C37.9798 67.1415 37.8916 67.1625 37.8064 67.2045L36.5471 67.8527C36.2485 68.0034 36.2518 68.3451 36.4157 68.5151C36.534 68.6264 36.7042 68.6639 36.9159 68.5677L37.8629 68.1121V72.7511H36.7597C36.5239 72.7511 36.3697 72.9363 36.3697 73.1438C36.3697 73.35 36.5268 73.5258 36.7597 73.5258H39.6223C39.8519 73.5258 40.0199 73.3606 40.0199 73.1438C40.0199 72.9315 39.8611 72.7511 39.6223 72.7511H38.7037V67.5794C38.7037 67.3371 38.5162 67.1415 38.2601 67.1415Z" fill="#CEB5FF"/>
<path d="M32.1171 77.3755C30.3169 77.3755 29.6057 78.8705 29.6057 80.659C29.6057 82.4356 30.3107 83.9454 32.1171 83.9454C33.9082 83.9454 34.6253 82.4263 34.6253 80.659C34.6253 78.9011 33.9187 77.3755 32.1171 77.3755ZM32.1171 77.3755C30.3169 77.3755 29.6057 78.8705 29.6057 80.659C29.6057 82.4356 30.3107 83.9454 32.1171 83.9454C33.9082 83.9454 34.6253 82.4263 34.6253 80.659C34.6253 78.9011 33.9187 77.3755 32.1171 77.3755ZM32.1171 83.1745C30.8441 83.1745 30.4498 81.9177 30.4498 80.659C30.4498 79.4025 30.8503 78.1535 32.1171 78.1535C33.3764 78.1535 33.7844 79.4051 33.7844 80.659C33.7844 81.9122 33.3843 83.1745 32.1171 83.1745ZM32.1171 83.1745C30.8441 83.1745 30.4498 81.9177 30.4498 80.659C30.4498 79.4025 30.8503 78.1535 32.1171 78.1535C33.3764 78.1535 33.7844 79.4051 33.7844 80.659C33.7844 81.9122 33.3843 83.1745 32.1171 83.1745Z" fill="#CEB5FF"/>
<path d="M39.5737 83.0764H38.6551V77.9047C38.6551 77.6621 38.4669 77.4669 38.2115 77.4669H38.0165C37.9279 77.4669 37.8427 77.4878 37.7574 77.5298L36.4981 78.178C36.1933 78.3287 36.2071 78.6824 36.3671 78.8405C36.4854 78.9518 36.6556 78.9892 36.8673 78.8931L37.8143 78.4374V83.0764H36.7111C36.471 83.0764 36.3207 83.2584 36.3207 83.4691C36.3207 83.6747 36.47 83.8511 36.7111 83.8511H39.5737C39.8086 83.8511 39.9709 83.6763 39.9709 83.4691C39.9709 83.2623 39.8128 83.0764 39.5737 83.0764ZM39.5737 83.0764H38.6551V77.9047C38.6551 77.6621 38.4669 77.4669 38.2115 77.4669H38.0165C37.9279 77.4669 37.8427 77.4878 37.7574 77.5298L36.4981 78.178C36.1933 78.3287 36.2071 78.6824 36.3671 78.8405C36.4854 78.9518 36.6556 78.9892 36.8673 78.8931L37.8143 78.4374V83.0764H36.7111C36.471 83.0764 36.3207 83.2584 36.3207 83.4691C36.3207 83.6747 36.47 83.8511 36.7111 83.8511H39.5737C39.8086 83.8511 39.9709 83.6763 39.9709 83.4691C39.9709 83.2623 39.8128 83.0764 39.5737 83.0764Z" fill="#CEB5FF"/>
<path d="M49.1038 57.6929C47.3036 57.6929 46.5924 59.1878 46.5924 60.9763C46.5924 62.7529 47.2974 64.2627 49.1038 64.2627C50.8949 64.2627 51.612 62.7436 51.612 60.9763C51.612 59.2185 50.9054 57.6929 49.1038 57.6929ZM49.1038 57.6929C47.3036 57.6929 46.5924 59.1878 46.5924 60.9763C46.5924 62.7529 47.2974 64.2627 49.1038 64.2627C50.8949 64.2627 51.612 62.7436 51.612 60.9763C51.612 59.2185 50.9054 57.6929 49.1038 57.6929ZM49.1038 57.6929C47.3036 57.6929 46.5924 59.1878 46.5924 60.9763C46.5924 62.7529 47.2974 64.2627 49.1038 64.2627C50.8949 64.2627 51.612 62.7436 51.612 60.9763C51.612 59.2185 50.9054 57.6929 49.1038 57.6929ZM49.1038 63.4919C47.8308 63.4919 47.4365 62.2351 47.4365 60.9763C47.4365 59.7199 47.837 58.4708 49.1038 58.4708C50.3631 58.4708 50.7711 59.7225 50.7711 60.9763C50.7711 62.2296 50.371 63.4919 49.1038 63.4919ZM49.1038 63.4919C47.8308 63.4919 47.4365 62.2351 47.4365 60.9763C47.4365 59.7199 47.837 58.4708 49.1038 58.4708C50.3631 58.4708 50.7711 59.7225 50.7711 60.9763C50.7711 62.2296 50.371 63.4919 49.1038 63.4919ZM49.1038 63.4919C47.8308 63.4919 47.4365 62.2351 47.4365 60.9763C47.4365 59.7199 47.837 58.4708 49.1038 58.4708C50.3631 58.4708 50.7711 59.7225 50.7711 60.9763C50.7711 62.2296 50.371 63.4919 49.1038 63.4919Z" fill="#CEB5FF"/>
<path d="M56.5604 63.3938H55.6418V58.2221C55.6418 57.9794 55.4536 57.7842 55.1982 57.7842H55.0032C54.9146 57.7842 54.8294 57.8052 54.7441 57.8471L53.4848 58.4954C53.18 58.646 53.1938 58.9997 53.3538 59.1578C53.4721 59.2691 53.6423 59.3065 53.854 59.2104L54.801 58.7548V63.3938H53.6978C53.4577 63.3938 53.3074 63.5757 53.3074 63.7864C53.3074 63.992 53.4567 64.1685 53.6978 64.1685H56.5604C56.7953 64.1685 56.9576 63.9936 56.9576 63.7864C56.9576 63.5796 56.7995 63.3938 56.5604 63.3938ZM56.5604 63.3938H55.6418V58.2221C55.6418 57.9794 55.4536 57.7842 55.1982 57.7842H55.0032C54.9146 57.7842 54.8294 57.8052 54.7441 57.8471L53.4848 58.4954C53.18 58.646 53.1938 58.9997 53.3538 59.1578C53.4721 59.2691 53.6423 59.3065 53.854 59.2104L54.801 58.7548V63.3938H53.6978C53.4577 63.3938 53.3074 63.5757 53.3074 63.7864C53.3074 63.992 53.4567 64.1685 53.6978 64.1685H56.5604C56.7953 64.1685 56.9576 63.9936 56.9576 63.7864C56.9576 63.5796 56.7995 63.3938 56.5604 63.3938ZM56.5604 63.3938H55.6418V58.2221C55.6418 57.9794 55.4536 57.7842 55.1982 57.7842H55.0032C54.9146 57.7842 54.8294 57.8052 54.7441 57.8471L53.4848 58.4954C53.18 58.646 53.1938 58.9997 53.3538 59.1578C53.4721 59.2691 53.6423 59.3065 53.854 59.2104L54.801 58.7548V63.3938H53.6978C53.4577 63.3938 53.3074 63.5757 53.3074 63.7864C53.3074 63.992 53.4567 64.1685 53.6978 64.1685H56.5604C56.7953 64.1685 56.9576 63.9936 56.9576 63.7864C56.9576 63.5796 56.7995 63.3938 56.5604 63.3938Z" fill="#CEB5FF"/>
<path d="M60.8638 57.6929C59.0636 57.6929 58.3524 59.1878 58.3524 60.9763C58.3524 62.7529 59.0574 64.2627 60.8638 64.2627C62.6549 64.2627 63.372 62.7436 63.372 60.9763C63.372 59.2185 62.6654 57.6929 60.8638 57.6929ZM60.8638 57.6929C59.0636 57.6929 58.3524 59.1878 58.3524 60.9763C58.3524 62.7529 59.0574 64.2627 60.8638 64.2627C62.6549 64.2627 63.372 62.7436 63.372 60.9763C63.372 59.2185 62.6654 57.6929 60.8638 57.6929ZM60.8638 57.6929C59.0636 57.6929 58.3524 59.1878 58.3524 60.9763C58.3524 62.7529 59.0574 64.2627 60.8638 64.2627C62.6549 64.2627 63.372 62.7436 63.372 60.9763C63.372 59.2185 62.6654 57.6929 60.8638 57.6929ZM60.8638 63.4919C59.5908 63.4919 59.1965 62.2351 59.1965 60.9763C59.1965 59.7199 59.597 58.4708 60.8638 58.4708C62.1231 58.4708 62.5311 59.7225 62.5311 60.9763C62.5311 62.2296 62.131 63.4919 60.8638 63.4919ZM60.8638 63.4919C59.5908 63.4919 59.1965 62.2351 59.1965 60.9763C59.1965 59.7199 59.597 58.4708 60.8638 58.4708C62.1231 58.4708 62.5311 59.7225 62.5311 60.9763C62.5311 62.2296 62.131 63.4919 60.8638 63.4919ZM60.8638 63.4919C59.5908 63.4919 59.1965 62.2351 59.1965 60.9763C59.1965 59.7199 59.597 58.4708 60.8638 58.4708C62.1231 58.4708 62.5311 59.7225 62.5311 60.9763C62.5311 62.2296 62.131 63.4919 60.8638 63.4919Z" fill="#CEB5FF"/>
<path d="M32.1171 57.6929C30.3169 57.6929 29.6057 59.1878 29.6057 60.9763C29.6057 62.7529 30.3107 64.2627 32.1171 64.2627C33.9082 64.2627 34.6253 62.7436 34.6253 60.9763C34.6253 59.2185 33.9187 57.6929 32.1171 57.6929ZM32.1171 57.6929C30.3169 57.6929 29.6057 59.1878 29.6057 60.9763C29.6057 62.7529 30.3107 64.2627 32.1171 64.2627C33.9082 64.2627 34.6253 62.7436 34.6253 60.9763C34.6253 59.2185 33.9187 57.6929 32.1171 57.6929ZM32.1171 57.6929C30.3169 57.6929 29.6057 59.1878 29.6057 60.9763C29.6057 62.7529 30.3107 64.2627 32.1171 64.2627C33.9082 64.2627 34.6253 62.7436 34.6253 60.9763C34.6253 59.2185 33.9187 57.6929 32.1171 57.6929ZM32.1171 63.4919C30.8441 63.4919 30.4498 62.2351 30.4498 60.9763C30.4498 59.7199 30.8503 58.4708 32.1171 58.4708C33.3764 58.4708 33.7844 59.7225 33.7844 60.9763C33.7844 62.2296 33.3843 63.4919 32.1171 63.4919ZM32.1171 63.4919C30.8441 63.4919 30.4498 62.2351 30.4498 60.9763C30.4498 59.7199 30.8503 58.4708 32.1171 58.4708C33.3764 58.4708 33.7844 59.7225 33.7844 60.9763C33.7844 62.2296 33.3843 63.4919 32.1171 63.4919ZM32.1171 63.4919C30.8441 63.4919 30.4498 62.2351 30.4498 60.9763C30.4498 59.7199 30.8503 58.4708 32.1171 58.4708C33.3764 58.4708 33.7844 59.7225 33.7844 60.9763C33.7844 62.2296 33.3843 63.4919 32.1171 63.4919Z" fill="#CEB5FF"/>
</g>
</g>
<path d="M23.6363 86.83C22.9428 86.9195 22.3482 86.7315 22.308 86.4101C22.2678 86.0886 22.7977 85.7549 23.4912 85.6654C24.1847 85.5759 24.7794 85.7638 24.8195 86.0853C24.8597 86.4067 24.3299 86.7405 23.6363 86.83Z" fill="#DE8E68"/>
<path d="M-10.1663 147.803L-11.1022 151.664C-11.2629 152.479 -10.6487 153.243 -9.80889 153.27C-6.35962 153.385 0.420026 153.271 1.67181 153.26C1.77177 153.259 1.85115 153.182 1.85573 153.083C1.91158 151.902 1.11713 151.151 -0.0529861 150.57L-4.56523 147.568C-4.57373 147.564 -4.5832 147.561 -4.593 147.562L-10.1663 147.803Z" fill="#373A50"/>
<path d="M13.8865 123.312C13.8865 125.793 11.8376 127.807 9.31153 127.807C7.10261 127.807 5.25825 126.264 4.83227 124.217C4.81855 124.143 4.80484 124.073 4.79111 123.995L2.18693 109.459L-0.288227 123.655C-0.305214 123.928 -0.352906 124.194 -0.424449 124.45C-0.932414 126.295 -2.64382 127.655 -4.67895 127.655C-7.11295 127.655 -9.08667 125.709 -9.08667 123.312C-9.08667 123.265 -9.08667 123.217 -9.0834 123.17L-9.06282 122.867C-9.06282 122.864 -9.06282 122.857 -9.05955 122.853L-7.25962 96.1041L12.3149 94.8986L13.8626 122.847C13.8626 122.85 13.8626 122.85 13.8626 122.85L13.8829 123.251C13.8862 123.271 13.8865 123.291 13.8865 123.312Z" fill="#323649"/>
<path d="M-6.91328 73.761C-5.96137 71.9599 -2.40985 71.3385 -0.489379 71.1594C0.752933 71.0435 3.657 71.0255 4.8869 71.2329C6.49116 71.5037 9.28155 72.7543 10.0473 74.2089C11.4441 76.8625 13.7353 100.429 13.7353 100.429C13.2613 103.42 -9.22412 102.366 -8.81906 99.1901C-8.81906 99.1901 -8.462 76.6918 -6.91328 73.761Z" fill="#8446FF"/>
<path d="M14.3287 148.017L8.92468 147.96L9.2605 142.88L14.4816 143.04L14.3781 147.974C14.3748 147.999 14.3539 148.017 14.3287 148.017Z" fill="#E2E9FF"/>
<path d="M8.797 147.803L7.8611 151.664C7.70038 152.479 8.31451 153.243 9.15437 153.27C12.6036 153.385 19.3833 153.271 20.6351 153.26C20.735 153.259 20.8147 153.182 20.8193 153.083C20.8752 151.902 20.0804 151.151 18.9103 150.57L14.3984 147.568C14.3899 147.564 14.3804 147.561 14.3706 147.562L8.797 147.803Z" fill="#373A50"/>
<path d="M15.0854 144.896C15.0854 145.633 8.53671 145.633 8.53671 144.896L4.87216 124.436C4.81761 124.221 4.77645 123.998 4.75261 123.773C4.75261 123.77 4.75261 123.77 4.75261 123.77C4.73562 123.618 4.72876 123.467 4.72876 123.312C4.72876 120.827 6.78121 118.813 9.31059 118.813C11.6629 118.813 13.6027 120.554 13.8617 122.796L13.8921 123.312V123.335L15.0854 144.896Z" fill="#323649"/>
<path d="M14.9726 94.9506C14.7494 95.9469 13.7561 96.5836 12.7549 96.3678C12.7549 96.3678 2.82988 94.8372 -7.30554 92.0814L-7.33557 92.0752C-9.26419 91.6423 -10.4743 89.7435 -10.0429 87.8166C-9.60995 85.883 -7.68123 84.6502 -5.7355 85.0692C-5.68894 85.0793 -5.64592 85.0888 -5.59995 85.1021L-5.59563 85.0821L-5.43908 85.1471C-5.22999 85.2093 -5.03197 85.2904 -4.84432 85.3865L13.6996 92.7883C14.6219 93.06 15.1854 94.0003 14.9726 94.9506Z" fill="#DE8E68"/>
<path d="M18.6948 96.9616C16.0858 100.176 12.5893 96.476 12.3623 96.2292C12.3597 96.2254 12.3562 96.2245 12.3507 96.2166C11.8706 95.8079 11.6191 95.1584 11.7439 94.4935C11.9292 93.5058 12.8773 92.8402 13.8743 93.0011C13.8781 92.9985 13.8816 92.9991 13.8848 92.9996C14.0843 92.9321 16.2151 92.2267 16.4803 93.0438C16.6543 93.5904 16.0398 93.6768 15.586 93.6816C16.949 93.7532 20.9528 94.1797 18.6948 96.9616Z" fill="#DE8E68"/>
<path d="M0.214966 63.3618L-0.0431305 71.0065C-0.0431305 71.0065 3.15774 76.5394 5.6455 75.6347C7.92492 74.8056 4.67869 71.1678 4.67869 71.1678C4.63854 64.7376 4.65239 66.9553 4.64928 66.4756C4.19421 66.1561 6.29188 67.6289 0.214966 63.3618Z" fill="#DE8E68"/>
<path d="M2.39833 66.8431C2.91434 68.1352 4.66983 70.1055 4.66983 70.1055L4.65223 67.3908L2.50223 65.881C2.3223 66.1403 2.24632 66.4631 2.39833 66.8431Z" fill="#DE8E68"/>
<path d="M6.68011 68.4068C3.87243 69.34 -0.00712368 65.8722 -0.568768 63.7555C-0.594278 63.7264 -0.60717 63.7157 -0.60717 63.7157C-0.60717 63.7157 -2.70306 63.1915 -2.44028 61.4353C-2.06746 58.9854 -0.444749 60.764 -0.444749 60.764L-2.29488 56.5055L-0.250432 53.9951L8.22835 55.6204C8.22835 55.6204 8.44757 57.6049 8.49715 59.9804C8.56791 63.2063 8.71058 67.7319 6.68011 68.4068Z" fill="#DE8E68"/>
<path d="M9.34223 59.2726C9.00822 59.3397 1.45961 58.1138 0.914969 58.1472C0.281781 58.1877 0.610599 61.1201 0.193802 61.2959C-0.0362291 61.3927 -0.208286 61.2218 -0.316396 61.0489C-0.496277 60.761 -0.856921 60.609 -1.18089 60.719C-1.46183 60.8143 -2.06703 61.1982 -1.69946 61.812C-1.30066 62.478 -0.134321 64.0213 0.167013 65.3621L0.0576439 66.8094C-4.27288 63.2086 -6.41408 57.9287 -4.08449 54.9797C-1.75526 52.0352 1.76772 52.235 4.41421 52.6826C7.0607 53.1302 8.22661 51.2915 10.1761 52.4173C12.126 53.5387 11.7325 58.797 9.34223 59.2726Z" fill="#111228"/>
<path d="M7.56304 60.4221C7.18343 60.3126 7.04579 60.1938 6.74857 60.386C6.67386 60.4538 6.58714 60.5204 6.47883 60.5825C6.50392 60.4672 6.54382 60.3508 6.60832 60.2462C6.83025 59.9413 7.3147 59.9369 7.56304 60.4221Z" fill="#111228"/>
<path d="M4.18524 60.4197C3.80625 60.3106 3.66901 60.1908 3.37076 60.3836C3.29606 60.4514 3.20933 60.518 3.10103 60.5801C3.12611 60.4648 3.16569 60.3483 3.23019 60.2437C3.45724 59.9321 3.94082 59.9428 4.18524 60.4197Z" fill="#111228"/>
<path d="M132.219 148.415L133.185 152.401C133.35 153.242 132.717 154.03 131.85 154.059C128.289 154.177 121.291 154.06 119.999 154.049C119.895 154.048 119.813 153.967 119.809 153.866C119.751 152.646 120.571 151.871 121.779 151.271L126.437 148.173C126.445 148.168 126.455 148.166 126.465 148.166L132.219 148.415Z" fill="#373A50"/>
<path d="M132.219 148.414C132.167 149.595 126.413 149.347 126.465 148.166L126.352 143.498L131.739 143.333L132.219 148.414Z" fill="#E2E9FF"/>
<path d="M136.693 124.682C136.693 124.857 136.683 125.032 136.659 125.204C136.642 125.356 136.618 125.507 136.58 125.652L132.943 146.529C132.923 147.051 126.411 146.792 126.432 146.267L127.901 124.457C128.017 122.16 129.94 120.335 132.292 120.335C134.723 120.335 136.693 122.281 136.693 124.682Z" fill="#373A50"/>
<path d="M151.57 148.415L152.536 152.401C152.702 153.242 152.068 154.03 151.202 154.059C147.641 154.177 140.643 154.06 139.35 154.049C139.247 154.048 139.165 153.967 139.161 153.866C139.103 152.646 139.923 151.871 141.131 151.271L145.789 148.173C145.797 148.168 145.807 148.166 145.817 148.166L151.57 148.415Z" fill="#373A50"/>
<path d="M151.571 148.414C151.519 149.595 145.765 149.347 145.817 148.166L145.703 143.498L151.091 143.333L151.571 148.414Z" fill="#E2E9FF"/>
<path d="M152.061 146.266C152.061 147.004 145.512 147.004 145.512 146.266L141.848 125.807C141.793 125.592 141.752 125.369 141.728 125.143C141.728 125.14 141.728 125.14 141.728 125.14C141.711 124.989 141.704 124.837 141.704 124.682C141.704 122.197 143.757 120.184 146.286 120.184C148.638 120.184 150.578 121.925 150.837 124.167L150.868 124.682V124.706L152.061 146.266Z" fill="#373A50"/>
<path d="M150.862 124.682C150.862 127.164 148.813 129.177 146.287 129.177C144.078 129.177 142.234 127.635 141.808 125.588C141.794 125.514 141.78 125.443 141.767 125.366L139.163 110.829L136.687 125.026C136.67 125.298 136.623 125.565 136.551 125.82C136.043 127.666 134.332 129.026 132.297 129.026C129.863 129.026 127.889 127.08 127.889 124.682C127.889 124.635 127.889 124.588 127.892 124.541L127.913 124.238C127.913 124.234 127.913 124.228 127.916 124.224L129.54 95.4078L149.29 96.2693L150.838 124.218C150.838 124.221 150.838 124.221 150.838 124.221L150.858 124.622C150.862 124.642 150.862 124.662 150.862 124.682Z" fill="#373A50"/>
<path d="M126.829 84.1822C126.573 84.5236 126.265 84.8004 125.923 85.0105C124.81 85.6904 123.348 85.6749 122.231 84.8588C121.192 84.0993 120.735 82.8493 120.951 81.6728C120.973 81.556 121.002 81.4402 121.034 81.3263C121.783 78.6356 125.647 73.9711 125.647 73.9711L130.759 76.6547L127.296 83.3068C127.294 83.3094 127.294 83.3136 127.292 83.3162C127.186 83.6182 127.031 83.9121 126.829 84.1822Z" fill="#DE8E68"/>
<path d="M152.777 84.8292C153.016 85.2328 153.321 85.5719 153.671 85.8414C154.81 86.7151 156.414 86.8668 157.734 86.1014C158.963 85.389 159.612 84.0722 159.515 82.758C159.504 82.6273 159.486 82.4972 159.465 82.3688C158.962 79.3338 155.28 73.7762 155.28 73.7762L149.36 76.1268L152.369 83.8163C152.37 83.8192 152.369 83.824 152.371 83.827C152.452 84.1703 152.587 84.5097 152.777 84.8292Z" fill="#DE8E68"/>
<path d="M156.855 75.6206C156.855 75.6206 153.027 68.6719 151.111 66.8182C150.303 66.0364 145.76 64.0998 139.499 64.022C135.591 63.9736 131.888 65.2859 129.7 67.0831C128.457 68.1041 123.565 75.7551 123.565 75.7551L128.841 80.2599L129.431 79.0854L129.315 96.6804C129.372 97.8988 149.798 98.1759 149.741 96.9576L148.548 76.6525L150.08 78.9682C150.334 79.4703 157.11 76.1226 156.855 75.6206Z" fill="#657BFF"/>
<path d="M143.424 93.7261L134.542 95.6263C134.195 95.7006 133.846 95.5402 133.674 95.2281L127.551 84.061C127.301 83.6005 127.562 83.0304 128.08 82.9196L136.963 81.0194C137.304 80.9464 137.659 81.1058 137.831 81.4179L143.947 92.5861C144.203 93.0452 143.942 93.6154 143.424 93.7261Z" fill="#111228"/>
<path d="M130.647 90.3735C130.021 91.0606 128.955 91.1213 128.267 90.5061C128.267 90.5061 126.313 88.9988 121.992 85.1733L121.971 85.1549C120.655 83.9562 120.565 81.9206 121.775 80.5921C122.989 79.2592 125.06 79.1435 126.396 80.339C126.428 80.3676 126.457 80.3941 126.487 80.4252L126.5 80.4113L126.593 80.5321C126.729 80.6742 126.848 80.8263 126.951 80.9854L130.627 88.1018C131.228 88.7261 131.244 89.7185 130.647 90.3735Z" fill="#DE8E68"/>
<path d="M134.334 93.391C131.46 95.822 128.981 91.9332 128.821 91.6749C128.82 91.6709 128.817 91.6699 128.813 91.6619C128.456 91.2168 128.344 90.5947 128.569 90.0221C128.903 89.1717 129.862 88.7366 130.721 89.0475C130.726 89.0458 130.728 89.047 130.731 89.0479C130.92 89.021 132.939 88.7494 133.035 89.5231C133.096 90.0402 132.534 90.0138 132.129 89.9419C133.33 90.2345 136.822 91.287 134.334 93.391Z" fill="#DE8E68"/>
<path d="M142.049 89.5501C142.41 90.5057 143.482 90.9992 144.442 90.6484C144.442 90.6484 147.277 90.775 156.914 86.6565L156.942 86.646C158.789 85.953 159.719 83.9077 159.021 82.0595C158.32 80.2051 156.24 79.2496 154.374 79.9313C154.329 79.9475 154.288 79.9627 154.245 79.9823L154.237 79.9632L154.092 80.0489C153.894 80.1394 153.709 80.2466 153.537 80.3674L143.004 87.2353C142.13 87.6305 141.705 88.6387 142.049 89.5501Z" fill="#DE8E68"/>
<path d="M138.641 92.051C141.674 94.8784 144.613 90.7299 144.803 90.4542C144.805 90.4501 144.808 90.4488 144.812 90.4402C145.229 89.9692 145.387 89.2907 145.17 88.6486C144.848 87.6951 143.816 87.1659 142.853 87.4623C142.849 87.4602 142.845 87.4613 142.842 87.4623C142.635 87.4226 140.428 87.0168 140.28 87.8632C140.185 88.4288 140.805 88.4298 141.255 88.372C139.917 88.6305 136.015 89.6036 138.641 92.051Z" fill="#DE8E68"/>
<path d="M142.045 58.0286L142.548 64.0403C142.548 64.0403 142.154 67.0035 139.748 67.4795C137.346 67.9556 137.731 64.2544 137.731 64.2544C137.766 64.0553 137.788 63.8604 137.795 63.673C137.891 61.9304 137.04 60.7595 137.04 60.7595L137.734 59.8512L139.022 58.1656L142.045 58.0286Z" fill="#DE8E68"/>
<path d="M140.873 59.7988C139.98 61.8836 137.795 63.6774 137.795 63.6774C137.892 61.9339 137.039 60.7623 137.039 60.7623L137.734 59.8536L138.601 58.8561C138.601 58.8561 141.77 57.7138 140.873 59.7988Z" fill="#DE8E68"/>
<path d="M142.905 55.6833C143.24 56.9641 141.92 57.6092 141.621 57.7344C141.597 57.7451 141.585 57.7473 141.574 57.7556C141.568 57.7568 141.568 57.7568 141.562 57.7579C141.562 57.7579 138.909 64.0395 135.532 63.0443C133.786 62.5261 133.099 57.7848 132.858 55.4074C132.781 54.5955 132.751 54.0586 132.751 54.0586C132.751 54.0586 134.102 51.125 137.377 50.7325C140.652 50.346 141.322 55.5132 141.322 55.5132C141.322 55.5132 142.591 54.5121 142.905 55.6833Z" fill="#DE8E68"/>
<path d="M142.917 55.6922C142.603 54.5203 141.333 55.522 141.333 55.522C141.333 55.522 141.731 56.3182 141.315 56.4595C140.905 56.6055 139.948 53.6855 139.948 53.6855C139.948 53.6855 135.836 55.8317 132.864 55.4163C131.904 55.2868 131.063 54.8886 130.519 54.0627C128.29 50.6805 131.841 47.9136 133.79 48.0031C135.739 48.0927 135.871 48.6357 138.038 48.4129C138.038 48.4129 141.746 47.2077 143.552 50.7638C145.359 54.3199 141.959 59.7254 141.959 59.7254L141.573 57.7681C141.579 57.767 141.579 57.767 141.585 57.7658C141.597 57.7635 141.615 57.754 141.632 57.7446C141.931 57.6193 143.252 56.9738 142.917 55.6922Z" fill="#111228"/>
<path d="M133.929 56.3269C134.06 56.0324 134.243 55.9393 134.439 55.9472C134.696 55.9686 134.822 56.1635 134.876 56.415C134.679 56.3282 134.575 56.2031 134.423 56.1999C134.25 56.1829 134.198 56.2704 133.929 56.3269Z" fill="#111228"/>
<path d="M136.858 56.1594C136.99 55.8649 137.173 55.7718 137.368 55.7798C137.625 55.8013 137.751 55.9961 137.806 56.2475C137.608 56.1608 137.505 56.0356 137.353 56.0325C137.178 56.0153 137.13 56.1032 136.858 56.1594Z" fill="#111228"/>
<mask id="mask4_1580_1377" style="mask-type:alpha" maskUnits="userSpaceOnUse" x="20" y="24" width="18" height="18">
<mask id="mask5_1580_1377" style="mask-type:luminance" maskUnits="userSpaceOnUse" x="20" y="24" width="18" height="18">
<path d="M20.0066 24.112H37.3199V41.2133H20.0066V24.112Z" fill="white"/>
</mask>
<g mask="url(#mask5_1580_1377)">
<path d="M31.0903 27.5937C33.9533 28.88 35.2088 32.2322 33.8921 35.0745C32.5754 37.9168 29.1818 39.1802 26.3188 37.8939C24.0681 36.8826 22.8106 34.5944 23.016 32.2811" stroke="#FF0000" stroke-width="17"/>
</g>
</mask>
<g mask="url(#mask4_1580_1377)">
<path d="M30.1643 36.2852L32.372 39.7165C31.2178 40.3621 29.8841 40.7274 28.4572 40.7274C24.0269 40.7274 20.4336 37.1781 20.4336 32.8021C20.4336 28.426 24.0269 24.8767 28.4572 24.8767C29.6152 24.8767 30.7174 25.12 31.7072 25.5556L29.8318 29.1824C27.2322 28.2447 24.5424 30.1301 24.5424 32.8021C24.5424 35.6341 27.5272 37.5207 30.1643 36.2852Z" fill="white"/>
<path d="M33.1227 39.2441L30.915 35.8054C31.8686 35.0465 32.4536 33.8617 32.3569 32.4775L36.3949 31.6769C36.8398 34.397 35.6814 37.4404 33.1227 39.2441Z" fill="#FADF68"/>
<path d="M30.6276 29.5809L32.499 25.9577C34.3218 27.0053 35.6853 28.7432 36.227 30.8096L32.1815 31.614C31.9087 30.7728 31.3485 30.0642 30.6276 29.5809Z" fill="#8446FF"/>
</g>
</g>
</g>
<defs>
<linearGradient id="paint0_linear_1580_1377" x1="72.9266" y1="13.7867" x2="74.9716" y2="52.7988" gradientUnits="userSpaceOnUse">
<stop stop-color="#D1DEFF"/>
<stop offset="0.5" stop-color="#C2D2FF"/>
<stop offset="1" stop-color="#B2C7FF"/>
</linearGradient>
<linearGradient id="paint1_linear_1580_1377" x1="75.8666" y1="153.179" x2="75.4035" y2="133.646" gradientUnits="userSpaceOnUse">
<stop stop-color="#D1DEFF"/>
<stop offset="0.5" stop-color="#C2D2FF"/>
<stop offset="1" stop-color="#B2C7FF"/>
</linearGradient>
<linearGradient id="paint2_linear_1580_1377" x1="13.4732" y1="31.2107" x2="42.1595" y2="31.2107" gradientUnits="userSpaceOnUse">
<stop stop-color="#D1DEFF"/>
<stop offset="0.5" stop-color="#C2D2FF"/>
<stop offset="1" stop-color="#B2C7FF"/>
</linearGradient>
<linearGradient id="paint3_linear_1580_1377" x1="13.4732" y1="21.208" x2="42.1595" y2="21.208" gradientUnits="userSpaceOnUse">
<stop stop-color="#D1DEFF"/>
<stop offset="0.5" stop-color="#C2D2FF"/>
<stop offset="1" stop-color="#B2C7FF"/>
</linearGradient>
<linearGradient id="paint4_linear_1580_1377" x1="-203.356" y1="16.0453" x2="-243.642" y2="16.0453" gradientUnits="userSpaceOnUse">
<stop stop-color="#D1DEFF"/>
<stop offset="0.5" stop-color="#C2D2FF"/>
<stop offset="1" stop-color="#B2C7FF"/>
</linearGradient>
<linearGradient id="paint5_linear_1580_1377" x1="54.6333" y1="54.4427" x2="54.4883" y2="56.941" gradientUnits="userSpaceOnUse">
<stop stop-color="#D1DEFF"/>
<stop offset="0.5" stop-color="#C2D2FF"/>
<stop offset="1" stop-color="#B2C7FF"/>
</linearGradient>
<linearGradient id="paint6_linear_1580_1377" x1="54.6333" y1="68.64" x2="54.5606" y2="73.4894" gradientUnits="userSpaceOnUse">
<stop stop-color="#D1DEFF"/>
<stop offset="0.5" stop-color="#C2D2FF"/>
<stop offset="1" stop-color="#B2C7FF"/>
</linearGradient>
<linearGradient id="paint7_linear_1580_1377" x1="54.6333" y1="85.4187" x2="54.5606" y2="90.3413" gradientUnits="userSpaceOnUse">
<stop stop-color="#D1DEFF"/>
<stop offset="0.5" stop-color="#C2D2FF"/>
<stop offset="1" stop-color="#B2C7FF"/>
</linearGradient>
<clipPath id="clip0_1580_1377">
<rect width="245" height="242" fill="white" transform="translate(-45 -33)"/>
</clipPath>
</defs>
</svg>
