<svg width="43" height="39" viewBox="0 0 43 39" fill="none" xmlns="http://www.w3.org/2000/svg">
<path d="M10.1129 24.3073L15.9996 20.8217L21.8864 24.3531L20.3447 17.7489L25.5306 13.3461L18.7094 12.7499L15.9996 6.51252L13.2899 12.704L6.46865 13.3002L11.6546 17.7489L10.1129 24.3073ZM15.9996 25.1328L8.24403 29.7191C7.90141 29.9331 7.54322 30.0248 7.16946 29.9943C6.79569 29.9637 6.46865 29.8414 6.18833 29.6274C5.908 29.4133 5.68997 29.1461 5.53424 28.8257C5.3785 28.504 5.34736 28.1445 5.4408 27.747L7.4965 19.0789L0.628578 13.2543C0.317108 12.9792 0.12275 12.6655 0.0455053 12.3132C-0.0329853 11.9622 -0.00993656 11.6186 0.114652 11.2822C0.23924 10.9459 0.426122 10.6707 0.675298 10.4567C0.924475 10.2427 1.26709 10.1051 1.70315 10.044L10.7669 9.26429L14.271 1.10071C14.4267 0.733805 14.6684 0.458628 14.9961 0.275177C15.3225 0.0917258 15.657 0 15.9996 0C16.3423 0 16.6774 0.0917258 17.0051 0.275177C17.3315 0.458628 17.5726 0.733805 17.7283 1.10071L21.2324 9.26429L30.2961 10.044C30.7322 10.1051 31.0748 10.2427 31.324 10.4567C31.5732 10.6707 31.7601 10.9459 31.8846 11.2822C32.0092 11.6186 32.0329 11.9622 31.9557 12.3132C31.8772 12.6655 31.6822 12.9792 31.3707 13.2543L24.5028 19.0789L26.5585 27.747C26.6519 28.1445 26.6208 28.504 26.4651 28.8257C26.3093 29.1461 26.0913 29.4133 25.811 29.6274C25.5306 29.8414 25.2036 29.9637 24.8298 29.9943C24.4561 30.0248 24.0979 29.9331 23.7553 29.7191L15.9996 25.1328Z" fill="#9D4FCC" fill-opacity="0.4"/>
<circle cx="30.9565" cy="26.9565" r="11.9565" fill="white"/>
<path opacity="0.4" d="M27.1699 20.0725C27.0483 20.0725 26.9289 20.1069 26.8242 20.1719C26.7195 20.2369 26.6334 20.3303 26.5749 20.4421L24.084 25.1937C24.0183 25.319 23.9901 25.4622 24.0031 25.6046C24.016 25.7469 24.0694 25.8819 24.1564 25.992L30.7233 34.3072C30.787 34.3879 30.867 34.4529 30.9574 34.4975C31.0478 34.5421 31.1465 34.5652 31.2464 34.5652C31.3463 34.5652 31.445 34.5421 31.5354 34.4975C31.6258 34.4529 31.7057 34.3879 31.7695 34.3072L38.3363 25.992C38.4233 25.8819 38.4768 25.7469 38.4897 25.6046C38.5026 25.4622 38.4744 25.319 38.4088 25.1937L35.9179 20.4421C35.8593 20.3301 35.773 20.2367 35.6682 20.1717C35.5633 20.1066 35.4437 20.0724 35.3219 20.0725H27.1699ZM25.9526 24.5865L27.5712 21.4979H28.9299L27.8991 24.5865H25.9526ZM27.7533 26.0119L29.5005 30.524L25.9363 26.0119H27.7533ZM31.236 31.2206L29.2197 26.0119H33.1924L31.236 31.2206ZM29.3393 24.5865L30.3691 21.4979H32.1309L33.2151 24.5865H29.3393ZM34.6634 24.5865L33.5792 21.4979H34.9197L36.5393 24.5865H34.6634ZM34.6525 26.0119H36.5547L32.927 30.6058L34.6525 26.0119Z" fill="#9A4FCB"/>
</svg>
