<svg width="32" height="30" viewBox="0 0 32 30" fill="none" xmlns="http://www.w3.org/2000/svg">
<path d="M10.1129 24.3073L15.9996 20.8217L21.8864 24.3531L20.3447 17.7489L25.5306 13.3461L18.7094 12.7499L15.9996 6.51252L13.2899 12.704L6.46865 13.3002L11.6546 17.7489L10.1129 24.3073ZM15.9996 25.1328L8.24403 29.7191C7.90141 29.9331 7.54322 30.0248 7.16946 29.9943C6.79569 29.9637 6.46865 29.8414 6.18833 29.6274C5.908 29.4133 5.68997 29.1461 5.53424 28.8257C5.3785 28.504 5.34736 28.1445 5.4408 27.747L7.4965 19.0789L0.628578 13.2543C0.317108 12.9792 0.12275 12.6655 0.0455053 12.3132C-0.0329853 11.9622 -0.00993656 11.6186 0.114652 11.2822C0.23924 10.9459 0.426122 10.6707 0.675298 10.4567C0.924475 10.2427 1.26709 10.1051 1.70315 10.044L10.7669 9.26429L14.271 1.10071C14.4267 0.733805 14.6684 0.458628 14.9961 0.275177C15.3225 0.0917258 15.657 0 15.9996 0C16.3423 0 16.6774 0.0917258 17.0051 0.275177C17.3315 0.458628 17.5726 0.733805 17.7283 1.10071L21.2324 9.26429L30.2961 10.044C30.7322 10.1051 31.0748 10.2427 31.324 10.4567C31.5732 10.6707 31.7601 10.9459 31.8846 11.2822C32.0092 11.6186 32.0329 11.9622 31.9557 12.3132C31.8772 12.6655 31.6822 12.9792 31.3707 13.2543L24.5028 19.0789L26.5585 27.747C26.6519 28.1445 26.6208 28.504 26.4651 28.8257C26.3093 29.1461 26.0913 29.4133 25.811 29.6274C25.5306 29.8414 25.2036 29.9637 24.8298 29.9943C24.4561 30.0248 24.0979 29.9331 23.7553 29.7191L15.9996 25.1328Z" fill="#9D4FCC"/>
</svg>
