<svg width="20" height="18" viewBox="0 0 20 18" fill="none" xmlns="http://www.w3.org/2000/svg">
<path d="M6.32053 14.5844L9.99978 12.493L13.679 14.6119L12.7154 10.6493L15.9567 8.00764L11.6934 7.64991L9.99978 3.90751L8.30616 7.6224L4.04291 7.98013L7.28415 10.6493L6.32053 14.5844ZM9.99978 15.0797L5.15252 17.8315C4.93838 17.9599 4.71451 18.0149 4.48091 17.9966C4.24731 17.9782 4.04291 17.9048 3.8677 17.7764C3.6925 17.648 3.55623 17.4877 3.4589 17.2954C3.36156 17.1024 3.3421 16.8867 3.4005 16.6482L4.68531 11.4474L0.392861 7.95261C0.198192 7.7875 0.0767187 7.59928 0.0284408 7.38795C-0.0206158 7.17734 -0.00621035 6.97115 0.0716573 6.76935C0.149525 6.56755 0.266326 6.40245 0.422062 6.27403C0.577797 6.14561 0.791933 6.06306 1.06447 6.02637L6.72934 5.55857L8.91937 0.660425C9.0167 0.440283 9.16776 0.275177 9.37256 0.165106C9.57657 0.0550355 9.78564 0 9.99978 0C10.2139 0 10.4234 0.0550355 10.6282 0.165106C10.8322 0.275177 10.9829 0.440283 11.0802 0.660425L13.2702 5.55857L18.9351 6.02637C19.2076 6.06306 19.4218 6.14561 19.5775 6.27403C19.7332 6.40245 19.85 6.56755 19.9279 6.76935C20.0058 6.97115 20.0206 7.17734 19.9723 7.38795C19.9232 7.59928 19.8014 7.7875 19.6067 7.95261L15.3142 11.4474L16.5991 16.6482C16.6575 16.8867 16.638 17.1024 16.5407 17.2954C16.4433 17.4877 16.3071 17.648 16.1319 17.7764C15.9567 17.9048 15.7522 17.9782 15.5186 17.9966C15.285 18.0149 15.0612 17.9599 14.847 17.8315L9.99978 15.0797Z" fill="#9D4FCC"/>
</svg>
