<svg width="390" height="483" viewBox="0 0 390 483" fill="none" xmlns="http://www.w3.org/2000/svg">
<g opacity="0.15">
<mask id="mask0_1763_1436" style="mask-type:luminance" maskUnits="userSpaceOnUse" x="-153" y="0" width="651" height="483">
<path d="M497.019 0H-153V483H497.019V0Z" fill="white"/>
</mask>
<g mask="url(#mask0_1763_1436)">
<path d="M70.6787 385.285C73.0141 385.162 -4.0807 402.772 -41.4048 317.691C-66.1693 261.238 -37.8751 198.163 17.841 175.061C75.0993 151.32 86.8586 105.746 114.796 78.7915C158.012 37.3086 248.744 34.3855 290.447 83.0094C332.149 131.633 392.065 308.548 286.255 352.065C187.971 392.489 68.3434 385.408 70.6787 385.285Z" fill="#9C73F8"/>
<path d="M173.074 383.349C173.074 385.561 163.755 387.355 152.258 387.355C140.761 387.355 131.441 385.561 131.441 383.349C131.441 381.137 140.761 379.344 152.258 379.344C163.755 379.344 173.074 381.137 173.074 383.349Z" fill="#9C73F8"/>
<path d="M139.263 365.923C141.176 352.721 146.394 335.77 131.814 327.575" stroke="#9C73F8" stroke-width="0.616248" stroke-miterlimit="10"/>
<path d="M135.864 330.142C135.864 330.142 129.275 332.716 125.843 324.062C125.843 324.062 134.453 322.74 135.864 330.142Z" fill="#9C73F8"/>
<path d="M138.606 333.484C138.606 333.484 133.06 327.578 140.847 320.276C140.847 320.276 145.914 328.859 138.606 333.484Z" fill="#9C73F8"/>
<path d="M138.249 333.865C138.249 333.865 133.451 339.003 126.635 332.707C126.635 332.707 133.789 327.824 138.249 333.865Z" fill="#9C73F8"/>
<path d="M141.448 343.258C141.448 343.258 139.672 335.423 130.023 337.05C130.023 337.05 134.127 346.126 141.448 343.258Z" fill="#9C73F8"/>
<path d="M141.957 343.289C141.957 343.289 148.43 343.179 147.719 334.039C147.719 334.039 140.093 336.04 141.957 343.289Z" fill="#9C73F8"/>
<path d="M152.099 383.159L168.852 350.961C168.852 350.961 153.725 361.017 152.099 383.159Z" fill="#3D3E00"/>
<path d="M152.099 383.159L168.852 350.961C168.852 350.961 168.467 369.212 152.099 383.159Z" fill="#3D3E00"/>
<path d="M152.52 382.856L151.224 325.574C151.224 325.574 137.481 347.229 152.52 382.856Z" fill="#3D3E00"/>
<path d="M152.522 382.857L151.227 325.574C151.227 325.574 164.546 351.13 152.522 382.857Z" fill="#3D3E00"/>
<path d="M152.461 382.835L129.821 346.057C129.821 346.057 127.984 369.864 152.461 382.835Z" fill="#3D3E00"/>
<path d="M152.46 382.835L129.82 346.057C129.82 346.057 148.246 357.643 152.46 382.835Z" fill="#3D3E00"/>
<path d="M115.591 131.581C115.591 131.581 122.544 127.499 125.488 124.139" stroke="#3D3E00" stroke-width="0.327" stroke-miterlimit="10"/>
<path d="M120.793 128.608C120.793 128.608 123.101 141.507 117.217 145.822C117.217 145.822 114.893 140.677 116.212 135.381C116.212 135.381 109.193 143.2 100.939 140.296L120.793 128.608Z" fill="#9C73F8"/>
<path d="M106.052 123.241C107.732 129.613 115.143 130.623 115.143 130.623C105.136 132.194 100.937 140.298 100.937 140.298C100.937 140.298 113.917 133.365 120.704 128.524C113.235 120.894 106.052 123.241 106.052 123.241Z" fill="#3D3E00"/>
<path d="M89.8181 183.235C89.8181 183.235 90.1341 178.211 89.4209 175.511" stroke="#3D3E00" stroke-width="0.204599" stroke-miterlimit="10"/>
<path d="M90.0951 179.507C90.0951 179.507 97.6115 182.845 97.7901 187.398C97.7901 187.398 94.2981 186.791 92.0091 184.251C92.0091 184.251 93.6094 190.621 89.2027 193.864L90.0951 179.507Z" fill="#9C73F8"/>
<path d="M82.1315 185.234C86.0345 186.604 89.1603 183.131 89.1603 183.131C86.4652 188.851 89.2045 193.865 89.2045 193.865C89.2045 193.865 90.1556 184.728 90.0207 179.523C83.4323 180.701 82.1315 185.234 82.1315 185.234Z" fill="#3D3E00"/>
<path d="M336.599 413.132C336.599 416.622 261.272 419.45 168.353 419.45C75.433 419.45 0.106445 416.622 0.106445 413.132C0.106445 409.644 75.433 406.816 168.353 406.816C261.272 406.816 336.599 409.644 336.599 413.132Z" fill="#9C73F8"/>
<path d="M195.529 331.223C248.812 341.946 189.909 341.372 188.536 341.492C188.233 341.519 186.094 338.052 184.965 334.888C183.836 331.725 195.529 331.223 195.529 331.223Z" fill="#ED509E"/>
<path d="M200.34 332.224C200.788 337.536 189.145 335.968 185.165 335.775C186.965 339.358 188.148 341.527 188.536 341.493C189.866 341.377 245.065 341.914 200.34 332.224Z" fill="#FF8E3A"/>
<path d="M217.342 337.517C214.454 340.136 192.688 340.246 187.565 340.301C188.028 341.072 188.36 341.504 188.531 341.489C189.545 341.4 221.925 341.683 217.342 337.517Z" fill="#9C73F8"/>
<path d="M201.429 332.009C201.612 333.021 201.275 334.077 200.93 335.05" stroke="#9C73F8" stroke-width="0.657088" stroke-miterlimit="10" stroke-linecap="round"/>
<path d="M204.033 332.722C204.042 333.749 203.893 334.959 203.453 335.855" stroke="#9C73F8" stroke-width="0.657088" stroke-miterlimit="10" stroke-linecap="round"/>
<path d="M206.439 333.194C206.551 334.384 206.637 335.318 206.128 336.39" stroke="#9C73F8" stroke-width="0.657088" stroke-miterlimit="10" stroke-linecap="round"/>
<path d="M192.433 305.709C194.25 320.797 195.77 331.872 195.77 331.872C195.385 336.603 185.933 337.802 184.61 333.486C182.045 325.115 178.671 312.714 178.679 312.03C178.692 310.992 182.186 300.631 192.433 305.709Z" fill="#ED509E"/>
<path d="M168.222 290.24C172.465 299.167 176.156 309.094 179.144 317.792C184.273 316.901 189.143 315.446 193.256 312.69C191.036 294.799 190.979 268.347 190.753 248.135C190.717 244.973 188.441 237.958 183.915 236.383C176.564 233.825 165.623 239.24 166.175 251.308C166.175 251.308 157.643 267.981 168.222 290.24Z" fill="#3D3E00"/>
<path d="M190.166 239.213C185.537 232.581 181.458 226.82 178.331 222.812C172.117 214.851 166.795 206.021 161.15 198.583C160.944 191.449 156.233 181.558 151.618 177.595C150.288 177.305 137.24 181.68 135.809 181.626C116.839 180.902 105.079 188.734 105.445 189.345C90.6969 210.154 112.764 229.796 107.199 223.926C107.199 223.926 121.582 239.922 169.735 257.149C169.735 257.149 201.798 255.876 190.166 239.213Z" fill="#3D3E00"/>
<path d="M221.265 338.053L191.157 335.371L190.681 340.758L220.788 343.44L221.265 338.053Z" fill="#3D3E00"/>
<path d="M181.1 352.484L204.056 340.778" stroke="#9C73F8" stroke-width="4.165" stroke-miterlimit="10" stroke-linecap="round"/>
<path d="M88.7529 342.747L60.3242 394.211L88.7529 342.747Z" fill="#9C73F8"/>
<path d="M88.7529 342.747L60.3242 394.211" stroke="#9C73F8"/>
<path d="M88.7891 342.715L72.0089 399.038L88.7891 342.715Z" fill="#9C73F8"/>
<path d="M88.7891 342.715L72.0089 399.038" stroke="#9C73F8"/>
<path d="M88.7988 342.696L77.8133 400.423L88.7988 342.696Z" fill="#9C73F8"/>
<path d="M88.7988 342.696L77.8133 400.423" stroke="#9C73F8"/>
<path d="M88.8213 342.639L95.2606 401.048L88.8213 342.639Z" fill="#9C73F8"/>
<path d="M88.8213 342.639L95.2606 401.048" stroke="#9C73F8"/>
<path d="M88.8408 342.578L109.915 397.464L88.8408 342.578Z" fill="#9C73F8"/>
<path d="M88.8408 342.578L109.915 397.464" stroke="#9C73F8"/>
<path d="M88.8359 342.522L122.94 390.462L88.8359 342.522Z" fill="#9C73F8"/>
<path d="M88.8359 342.522L122.94 390.462" stroke="#9C73F8"/>
<path d="M88.8232 342.48L131.827 382.684L88.8232 342.48Z" fill="#9C73F8"/>
<path d="M88.8232 342.48L131.827 382.684" stroke="#9C73F8"/>
<path d="M88.7949 342.435L140.023 371.523L88.7949 342.435Z" fill="#9C73F8"/>
<path d="M88.7949 342.435L140.023 371.523" stroke="#9C73F8"/>
<path d="M88.7656 342.406L144.78 360.726L88.7656 342.406Z" fill="#9C73F8"/>
<path d="M88.7656 342.406L144.78 360.726" stroke="#9C73F8"/>
<path d="M88.7236 342.379L147.46 347.362L88.7236 342.379Z" fill="#9C73F8"/>
<path d="M88.7236 342.379L147.46 347.362" stroke="#9C73F8"/>
<path d="M88.6973 342.365L147.587 339.771L88.6973 342.365Z" fill="#9C73F8"/>
<path d="M88.6973 342.365L147.587 339.771" stroke="#9C73F8"/>
<path d="M88.6689 342.344L146.64 331.73L88.6689 342.344Z" fill="#9C73F8"/>
<path d="M88.6689 342.344L146.64 331.73" stroke="#9C73F8"/>
<path d="M88.6465 342.362L144.808 324.548L88.6465 342.362Z" fill="#9C73F8"/>
<path d="M88.6465 342.362L144.808 324.548" stroke="#9C73F8"/>
<path d="M88.6094 342.363L140.671 314.824L88.6094 342.363Z" fill="#9C73F8"/>
<path d="M88.6094 342.363L140.671 314.824" stroke="#9C73F8"/>
<path d="M88.5879 342.366L137.533 309.639L88.5879 342.366Z" fill="#9C73F8"/>
<path d="M88.5879 342.366L137.533 309.639" stroke="#9C73F8"/>
<path d="M88.5479 342.379L129.961 300.58L88.5479 342.379Z" fill="#9C73F8"/>
<path d="M88.5479 342.379L129.961 300.58" stroke="#9C73F8"/>
<path d="M88.5059 342.403L119.597 292.493L88.5059 342.403Z" fill="#9C73F8"/>
<path d="M88.5059 342.403L119.597 292.493" stroke="#9C73F8"/>
<path d="M88.457 342.447L103.753 285.705L88.457 342.447Z" fill="#9C73F8"/>
<path d="M88.457 342.447L103.753 285.705" stroke="#9C73F8"/>
<path d="M88.4287 342.498L87.9539 283.741L88.4287 342.498Z" fill="#9C73F8"/>
<path d="M88.4287 342.498L87.9539 283.741" stroke="#9C73F8"/>
<path d="M88.4385 342.542L75.5738 285.187L88.4385 342.542Z" fill="#9C73F8"/>
<path d="M88.4385 342.542L75.5738 285.187" stroke="#9C73F8"/>
<path d="M88.4092 342.604L61.1473 290.496L88.4092 342.604Z" fill="#9C73F8"/>
<path d="M88.4092 342.604L61.1473 290.496" stroke="#9C73F8"/>
<path d="M88.4141 342.643L52.5717 295.98L88.4141 342.643Z" fill="#9C73F8"/>
<path d="M88.4141 342.643L52.5717 295.98" stroke="#9C73F8"/>
<path d="M88.4316 342.686L43.6431 304.467L88.4316 342.686Z" fill="#9C73F8"/>
<path d="M88.4316 342.686L43.6431 304.467" stroke="#9C73F8"/>
<path d="M88.46 342.73L35.6841 316.539L88.46 342.73Z" fill="#9C73F8"/>
<path d="M88.46 342.73L35.6841 316.539" stroke="#9C73F8"/>
<path d="M88.5107 342.77L30.3625 333.108L88.5107 342.77Z" fill="#9C73F8"/>
<path d="M88.5107 342.77L30.3625 333.108" stroke="#9C73F8"/>
<path d="M88.5723 342.806L30.264 351.405L88.5723 342.806Z" fill="#9C73F8"/>
<path d="M88.5723 342.806L30.264 351.405" stroke="#9C73F8"/>
<path d="M88.6289 342.795L35.2358 367.672L88.6289 342.795Z" fill="#9C73F8"/>
<path d="M88.6289 342.795L35.2358 367.672" stroke="#9C73F8"/>
<path d="M88.6689 342.79L40.8404 377.117L88.6689 342.79Z" fill="#9C73F8"/>
<path d="M88.6689 342.79L40.8404 377.117" stroke="#9C73F8"/>
<path d="M88.7061 342.776L48.4807 385.712L88.7061 342.776Z" fill="#9C73F8"/>
<path d="M88.7061 342.776L48.4807 385.712" stroke="#9C73F8"/>
<path d="M134.763 311.459C135.127 312.003 135.474 312.539 135.821 313.096C152.34 339.589 144.387 374.387 118.094 390.664C105.654 398.365 90.8883 400.853 76.5158 397.674C62.1472 394.496 49.7147 386.007 41.5068 373.772C41.142 373.229 40.7952 372.693 40.4467 372.135C23.9289 345.641 31.8816 310.845 58.177 294.568C70.6153 286.867 85.3814 284.377 99.7529 287.557C114.121 290.736 126.555 299.224 134.763 311.459ZM142.884 306.049C123.034 276.462 83.2897 267.547 53.0143 286.288C22.0953 305.429 12.7547 346.164 32.1505 377.274C32.5545 377.92 32.9644 378.555 33.3858 379.183C53.2356 408.771 92.9787 417.685 123.254 398.942C154.173 379.802 163.516 339.067 144.12 307.959C143.716 307.312 143.306 306.678 142.884 306.049Z" fill="#9C73F8"/>
<path d="M30.2652 378.441C10.2527 346.344 19.933 304.161 51.841 284.408C66.9564 275.051 84.8905 272.024 102.338 275.883C119.739 279.733 134.793 290.009 144.728 304.819C145.164 305.469 145.589 306.123 146.005 306.792C155.698 322.337 158.793 340.677 154.721 358.435C150.647 376.2 139.891 391.253 124.428 400.824C109.314 410.18 91.3815 413.208 73.9338 409.348C56.5327 405.498 41.4784 395.221 31.5403 380.412L31.537 380.407C31.1025 379.759 30.6808 379.107 30.2652 378.441ZM54.1889 288.17C24.359 306.637 15.3185 346.084 34.0377 376.105C34.4263 376.731 34.8214 377.341 35.2283 377.948L35.2316 377.953C54.6051 406.824 92.7527 415.218 122.081 397.061C136.53 388.117 146.583 374.047 150.39 357.443C154.199 340.831 151.302 323.672 142.233 309.127C141.843 308.501 141.446 307.886 141.038 307.278C121.669 278.406 83.5202 270.013 54.1889 288.17Z" fill="#3D3E00"/>
<path d="M304.667 344.687L246.14 337.698L304.667 344.687Z" fill="#9C73F8"/>
<path d="M304.667 344.687L246.14 337.698" stroke="#9C73F8"/>
<path d="M304.709 344.701L246.027 350.309L304.709 344.701Z" fill="#9C73F8"/>
<path d="M304.709 344.701L246.027 350.309" stroke="#9C73F8"/>
<path d="M304.731 344.697L246.916 356.206L304.731 344.697Z" fill="#9C73F8"/>
<path d="M304.731 344.697L246.916 356.206" stroke="#9C73F8"/>
<path d="M304.797 344.724L252.863 372.532L304.797 344.724Z" fill="#9C73F8"/>
<path d="M304.797 344.724L252.863 372.532" stroke="#9C73F8"/>
<path d="M304.854 344.711L261.695 384.744L304.854 344.711Z" fill="#9C73F8"/>
<path d="M304.854 344.711L261.695 384.744" stroke="#9C73F8"/>
<path d="M304.906 344.686L273.084 394.157L304.906 344.686Z" fill="#9C73F8"/>
<path d="M304.906 344.686L273.084 394.157" stroke="#9C73F8"/>
<path d="M304.939 344.657L283.647 399.456L304.939 344.657Z" fill="#9C73F8"/>
<path d="M304.939 344.657L283.647 399.456" stroke="#9C73F8"/>
<path d="M304.972 344.616L297.1 402.851L304.972 344.616Z" fill="#9C73F8"/>
<path d="M304.972 344.616L297.1 402.851" stroke="#9C73F8"/>
<path d="M304.992 344.576L308.921 403.203L304.992 344.576Z" fill="#9C73F8"/>
<path d="M304.992 344.576L308.921 403.203" stroke="#9C73F8"/>
<path d="M304.989 344.533L322.371 400.669L304.989 344.533Z" fill="#9C73F8"/>
<path d="M304.989 344.533L322.371 400.669" stroke="#9C73F8"/>
<path d="M304.989 344.503L329.482 397.944L304.989 344.503Z" fill="#9C73F8"/>
<path d="M304.989 344.503L329.482 397.944" stroke="#9C73F8"/>
<path d="M304.987 344.473L336.616 394.051L304.987 344.473Z" fill="#9C73F8"/>
<path d="M304.987 344.473L336.616 394.051" stroke="#9C73F8"/>
<path d="M304.98 344.448L342.593 389.682L304.98 344.448Z" fill="#9C73F8"/>
<path d="M304.98 344.448L342.593 389.682" stroke="#9C73F8"/>
<path d="M304.965 344.414L350.086 382.211L304.965 344.414Z" fill="#9C73F8"/>
<path d="M304.965 344.414L350.086 382.211" stroke="#9C73F8"/>
<path d="M304.954 344.396L353.736 377.367L304.954 344.396Z" fill="#9C73F8"/>
<path d="M304.954 344.396L353.736 377.367" stroke="#9C73F8"/>
<path d="M304.925 344.364L359.325 366.975L304.925 344.364Z" fill="#9C73F8"/>
<path d="M304.925 344.364L359.325 366.975" stroke="#9C73F8"/>
<path d="M304.889 344.335L362.967 354.368L304.889 344.335Z" fill="#9C73F8"/>
<path d="M304.889 344.335L362.967 354.368" stroke="#9C73F8"/>
<path d="M304.831 344.316L363.346 337.175L304.831 344.316Z" fill="#9C73F8"/>
<path d="M304.831 344.316L363.346 337.175" stroke="#9C73F8"/>
<path d="M304.768 344.291L359.256 321.856L304.768 344.291Z" fill="#9C73F8"/>
<path d="M304.768 344.291L359.256 321.856" stroke="#9C73F8"/>
<path d="M304.723 344.296L353.283 310.975L304.723 344.296Z" fill="#9C73F8"/>
<path d="M304.723 344.296L353.283 310.975" stroke="#9C73F8"/>
<path d="M304.666 344.315L342.926 299.604L304.666 344.315Z" fill="#9C73F8"/>
<path d="M304.666 344.315L342.926 299.604" stroke="#9C73F8"/>
<path d="M304.632 344.335L334.615 293.735L304.632 344.335Z" fill="#9C73F8"/>
<path d="M304.632 344.335L334.615 293.735" stroke="#9C73F8"/>
<path d="M304.598 344.366L323.375 288.662L304.598 344.366Z" fill="#9C73F8"/>
<path d="M304.598 344.366L323.375 288.662" stroke="#9C73F8"/>
<path d="M304.566 344.411L309.165 285.83L304.566 344.411Z" fill="#9C73F8"/>
<path d="M304.566 344.411L309.165 285.83" stroke="#9C73F8"/>
<path d="M304.529 344.472L291.781 287.117L304.529 344.472Z" fill="#9C73F8"/>
<path d="M304.529 344.472L291.781 287.117" stroke="#9C73F8"/>
<path d="M304.555 344.536L274.681 293.887L304.555 344.536Z" fill="#9C73F8"/>
<path d="M304.555 344.536L274.681 293.887" stroke="#9C73F8"/>
<path d="M304.575 344.594L261.43 304.568L304.575 344.594Z" fill="#9C73F8"/>
<path d="M304.575 344.594L261.43 304.568" stroke="#9C73F8"/>
<path d="M304.595 344.626L254.743 313.286L304.595 344.626Z" fill="#9C73F8"/>
<path d="M304.595 344.626L254.743 313.286" stroke="#9C73F8"/>
<path d="M304.624 344.656L249.611 323.569L304.624 344.656Z" fill="#9C73F8"/>
<path d="M304.624 344.656L249.611 323.569" stroke="#9C73F8"/>
<path d="M259.529 313.867C259.899 313.327 260.267 312.806 260.655 312.277C279.117 287.09 314.473 281.404 339.468 299.602C351.293 308.211 359.141 320.92 361.567 335.391C363.992 349.857 360.752 364.523 352.444 376.69C352.074 377.232 351.705 377.753 351.318 378.283C332.856 403.471 297.501 409.156 272.505 390.957C260.68 382.349 252.832 369.637 250.406 355.168C247.982 340.701 251.221 326.034 259.529 313.867ZM251.453 308.39C231.361 337.813 237.957 377.875 266.736 398.829C296.129 420.228 337.527 413.6 359.205 384.025C359.656 383.409 360.093 382.793 360.52 382.167C380.612 352.744 374.018 312.683 345.237 291.73C315.846 270.331 274.445 276.958 252.768 306.532C252.317 307.149 251.88 307.765 251.453 308.39Z" fill="#9C73F8"/>
<path d="M360.998 385.33C338.632 415.844 295.757 422.7 265.425 400.618C251.057 390.157 241.522 374.722 238.577 357.153C235.639 339.634 239.561 321.875 249.618 307.147C250.059 306.501 250.508 305.865 250.975 305.229C261.807 290.45 277.711 280.72 295.76 277.831C313.814 274.941 331.851 279.241 346.547 289.942C360.916 300.403 370.449 315.838 373.394 333.405C376.331 350.925 372.411 368.684 362.355 383.413L362.351 383.418C361.911 384.062 361.462 384.696 360.998 385.33ZM268.046 397.039C296.403 417.684 336.493 411.26 357.412 382.72C357.849 382.126 358.268 381.532 358.68 380.929L358.684 380.923C378.288 352.209 371.806 313.818 343.925 293.52C330.191 283.521 313.334 279.502 296.459 282.204C279.576 284.907 264.697 294.011 254.561 307.84C254.123 308.435 253.701 309.031 253.288 309.636C233.681 338.347 240.164 376.739 268.046 397.039Z" fill="#3D3E00"/>
<path d="M96.6036 341.949C96.4547 346.417 92.6987 349.918 88.216 349.769C83.7332 349.62 80.2208 345.876 80.3708 341.408C80.5209 336.94 84.2757 333.439 88.7585 333.588C93.2412 333.737 96.7537 337.48 96.6036 341.949Z" fill="#9C73F8"/>
<path d="M92.7033 341.821C92.6253 344.142 90.674 345.96 88.3458 345.881C86.0175 345.805 84.1939 343.86 84.2719 341.54C84.3499 339.22 86.3012 337.401 88.6294 337.478C90.9565 337.556 92.7813 339.5 92.7033 341.821Z" fill="#9C73F8"/>
<path d="M296.973 345.105C297.123 340.636 300.879 337.137 305.362 337.286C309.844 337.435 313.356 341.178 313.206 345.647C313.056 350.115 309.302 353.615 304.82 353.465C300.337 353.317 296.824 349.573 296.973 345.105Z" fill="#9C73F8"/>
<path d="M300.874 345.236C300.952 342.915 302.902 341.096 305.232 341.175C307.559 341.251 309.383 343.196 309.306 345.516C309.228 347.837 307.278 349.656 304.949 349.578C302.622 349.5 300.798 347.556 300.874 345.236Z" fill="#9C73F8"/>
<path d="M88.2557 346.433C118.532 348.327 149.225 351.787 178.73 358.912C178.835 358.936 178.936 358.933 179.039 358.945C179.056 358.947 179.075 358.948 179.093 358.951C179.239 358.965 179.382 358.973 179.522 358.961C180.276 358.923 181.01 358.559 181.419 357.82C187.737 346.413 195.469 335.628 203.427 325.324C220.721 302.939 240.735 282.459 263.606 265.708C266.076 274.687 268.904 283.581 272.008 292.331C275.806 303.039 280.02 313.695 285.341 323.752C289.851 332.276 295.118 340.903 302.575 347.196C304.903 349.162 308.291 345.82 305.943 343.84C298.527 337.582 293.338 328.961 288.969 320.424C283.805 310.331 279.593 299.781 275.903 289.075C271.575 276.512 267.702 263.712 264.736 250.756C264.384 249.218 262.536 248.631 261.238 249.338C260.858 249.544 260.479 249.752 260.101 249.961C234.27 264.208 208.351 279.451 185.242 297.832C180.092 301.929 174.902 306.219 170.532 311.176C167.571 299.254 157.439 248.106 154.478 236.184C153.741 233.214 149.121 236.78 149.859 239.751C150.523 242.426 158.386 282.023 159.05 284.698C148.73 292.454 138.47 300.292 128.269 308.201C114.175 319.128 99.2564 329.8 86.5716 342.381C85.0269 343.912 86.2419 346.307 88.2557 346.433ZM160.287 289.68C162.598 298.988 164.91 308.294 167.221 317.602C167.702 319.545 168.186 321.486 168.668 323.429C171.151 333.428 173.634 343.429 176.117 353.428C149.211 347.238 121.363 343.95 93.8034 342.05C105.598 331.044 118.941 321.391 131.637 311.558C141.135 304.2 150.686 296.906 160.287 289.68ZM200.005 322.036C193.008 331.092 186.158 340.473 180.255 350.332C177.722 340.132 175.188 329.933 172.655 319.734C172.33 318.426 172.007 317.116 171.68 315.807C172.148 317.688 172.561 316.026 173.668 314.794C174.707 313.637 175.772 312.502 176.882 311.412C182.649 305.751 189.01 300.701 195.528 295.928C216.217 280.779 238.35 267.33 260.848 254.978C261.313 256.924 261.795 258.869 262.298 260.808C238.593 277.967 217.859 298.924 200.005 322.036Z" fill="#FF8E3A"/>
<path d="M196.868 353.535C196.868 362.404 189.653 369.594 180.757 369.594C171.858 369.594 164.646 362.404 164.646 353.535C164.646 344.666 171.858 337.476 180.757 337.476C189.653 337.476 196.868 344.666 196.868 353.535Z" fill="#9C73F8"/>
<path d="M193.79 353.754C193.79 361.049 187.855 366.964 180.536 366.964C173.216 366.964 167.283 361.049 167.283 353.754C167.283 346.459 173.216 340.544 180.536 340.544C187.855 340.544 193.79 346.459 193.79 353.754Z" fill="#9C73F8"/>
<path d="M265.033 249.04L258.925 250.609L256.783 243.63L263.476 242.233L265.033 249.04Z" fill="#9C73F8"/>
<path d="M262.544 244.095L257.718 227.186L253.517 228.426L259.897 245.181L262.544 244.095Z" fill="#9C73F8"/>
<path d="M270.169 222.221L259.586 237.425L258.029 232.305L266.279 220.979L270.169 222.221Z" fill="#9C73F8"/>
<path d="M274.743 218.807C274.743 221.325 272.695 223.364 270.169 223.364C267.645 223.364 265.598 221.325 265.598 218.807C265.598 216.29 267.645 214.251 270.169 214.251C272.695 214.251 274.743 216.29 274.743 218.807Z" fill="#3D3E00"/>
<path d="M168.413 227.198C168.413 227.198 168.917 221.522 161.375 221.744C153.833 221.969 144.998 229.977 130.378 225.932C130.378 225.932 117.942 220.656 120.816 234.333C120.816 234.333 136.946 241.095 151.811 238.744C151.811 238.744 165.663 231.139 168.413 227.198Z" fill="#9C73F8"/>
<path d="M181.114 353.71L158.894 364.925" stroke="#9C73F8" stroke-width="4.165" stroke-miterlimit="10" stroke-linecap="round"/>
<path d="M141.683 367.651L171.791 370.333L172.268 364.946L142.161 362.264L141.683 367.651Z" fill="#3D3E00"/>
<path d="M147.73 355.658C202.082 369.48 141.486 365.833 140.068 365.886C139.755 365.897 137.711 362.211 136.692 358.89C135.672 355.569 147.73 355.658 147.73 355.658Z" fill="#ED509E"/>
<path d="M152.636 356.94C152.858 362.44 140.946 360.219 136.859 359.813C138.549 363.602 139.669 365.9 140.069 365.885C141.443 365.835 198.229 369.253 152.636 356.94Z" fill="#FF8E3A"/>
<path d="M169.895 363.286C166.805 365.838 144.401 364.815 139.126 364.605C139.568 365.425 139.89 365.888 140.067 365.881C141.114 365.842 174.424 367.823 169.895 363.286Z" fill="#9C73F8"/>
<path d="M153.767 356.772C153.909 357.826 153.514 358.898 153.115 359.884" stroke="#9C73F8" stroke-width="0.677921" stroke-miterlimit="10" stroke-linecap="round"/>
<path d="M156.413 357.644C156.377 358.703 156.168 359.945 155.674 360.846" stroke="#9C73F8" stroke-width="0.677921" stroke-miterlimit="10" stroke-linecap="round"/>
<path d="M158.869 358.256C158.931 359.489 158.978 360.458 158.404 361.537" stroke="#9C73F8" stroke-width="0.677921" stroke-miterlimit="10" stroke-linecap="round"/>
<path d="M151.834 330.435C149.569 345.956 148.093 357.399 148.093 357.399C146.432 362.011 136.702 360.678 136.55 356.025C136.257 346.997 136.247 333.737 136.44 333.057C136.733 332.027 143.007 322.634 151.834 330.435Z" fill="#ED509E"/>
<path d="M131.893 308.562C133.707 318.592 134.701 329.47 135.328 338.936C140.673 339.419 145.911 339.272 150.749 337.626C153.367 319.205 160.448 292.832 165.677 272.631C166.495 269.47 166.123 261.872 162.044 259.093C155.418 254.578 143.069 257.048 140.361 269.221C140.361 269.221 127.37 283.554 131.893 308.562Z" fill="#3D3E00"/>
<path d="M167.514 265.956C165.958 257.768 164.555 250.631 163.314 245.544C160.846 235.439 159.546 224.892 157.388 215.517C160.086 208.723 159.776 197.437 157.154 191.764C156.054 190.931 142.337 189.539 141.048 188.885C123.972 180.203 110.035 182.606 110.123 183.335C88.1984 196.677 100.454 224.453 97.7343 216.586C97.7343 216.586 104.43 237.692 141.548 274.201C141.548 274.201 171.42 286.529 167.514 265.956Z" fill="#3D3E00"/>
<path d="M149.352 218.276C156.669 215.878 161.287 201.761 159.364 195.315C158.371 194.276 144.907 191.015 143.705 190.144C127.781 178.599 113.642 179.397 113.642 180.193C90.2501 191.746 103.735 222.293 112.99 227.372C122.1 232.37 142.035 220.675 149.352 218.276Z" fill="#3D3E00"/>
<path d="M240.091 160.975C240.091 160.975 244.366 151.478 255.875 156.725C260.568 158.865 274.128 164.166 280.002 160.402C285.624 156.799 288.039 124.827 283.434 120.37C278.828 115.914 253.97 107.549 251.996 136.645C251.996 136.645 253.016 147.604 234.407 145.314C215.798 143.025 240.091 160.975 240.091 160.975Z" fill="#ED509E"/>
<path d="M285.208 137.28L288.237 145.831L283.97 149.05L285.208 137.28Z" fill="#ED509E"/>
<path d="M114.906 177.006C114.906 177.006 201.292 138.195 228.249 143.883C255.205 149.571 241.981 175.339 226.655 183.16C211.33 190.979 199.492 182.876 181.052 189.288C162.611 195.7 160.889 200.394 160.889 200.394C160.889 200.394 125.01 194.699 114.906 177.006Z" fill="#FF8E3A"/>
<path d="M211.534 162.367C211.534 162.367 188.799 205.742 193.652 209.26C198.505 212.779 217.395 198.363 217.395 198.363L232.611 172.572C232.611 172.572 221.005 167.228 211.534 162.367Z" fill="#ED509E"/>
<path d="M194.656 212.977C200.453 214.541 249.749 212.522 249.749 212.522C249.749 212.522 255.022 219.544 257.302 219.576C259.584 219.608 265.189 218.21 265.189 218.21L270.112 207.583L255.592 201.225L212.906 194.347C212.906 194.347 190.392 190.894 194.656 212.977Z" fill="#ED509E"/>
<path d="M281.615 126.124C276.187 129.253 267.127 117.788 262.507 130.978C257.888 144.167 248.969 150.216 229.335 145.8C208.871 141.174 195.358 159.544 178.342 165.82C154.542 174.61 96.5809 155.832 130.716 107.002C151.513 77.2507 171.843 119.858 183.808 95.9905C196.107 71.4943 221.867 74.6402 237.707 96.9298C248.533 112.512 265.917 82.075 286.678 112.89C288.621 115.775 287.043 122.996 281.615 126.124Z" fill="#3D3E00"/>
<path d="M132.925 310.165C132.925 310.165 145.646 309.398 152.21 306.781" stroke="#3D3E00" stroke-width="0.517" stroke-miterlimit="10"/>
<path d="M142.378 309.701C142.378 309.701 136.317 329.503 124.931 331.36C124.931 331.36 125.377 322.455 131.051 315.95C131.051 315.95 115.541 321.924 106.027 311.925L142.378 309.701Z" fill="#9C73F8"/>
<path d="M125.522 291.591C123.286 301.761 132.98 308.49 132.98 308.49C117.775 303.532 106.024 311.928 106.024 311.928C106.024 311.928 129.276 311.47 142.312 309.518C137.314 293.433 125.522 291.591 125.522 291.591Z" fill="#3D3E00"/>
<path d="M279.745 273.908C279.745 273.908 285.82 267.833 292.555 275.365C292.555 275.365 283.836 280.531 279.745 273.908Z" fill="#3D3E00"/>
<path d="M178.455 433.748C178.455 437.238 163.755 440.067 145.622 440.067C127.488 440.067 112.788 437.238 112.788 433.748C112.788 430.26 127.488 427.432 145.622 427.432C163.755 427.432 178.455 430.26 178.455 433.748Z" fill="#9C73F8"/>
<path d="M151.41 395.33C134.318 382.975 109.34 370.222 116.032 344.776" stroke="#9C73F8" stroke-width="0.972" stroke-miterlimit="10"/>
<path d="M114.515 352.174C114.515 352.174 124.667 347.576 118.606 334.193C118.606 334.193 107.657 342.446 114.515 352.174Z" fill="#9C73F8"/>
<path d="M115.294 358.948C115.294 358.948 114.672 346.2 97.8286 346.951C97.8286 346.951 102.018 362.102 115.294 358.948Z" fill="#9C73F8"/>
<path d="M116.118 358.954C116.118 358.954 127.223 359.193 127.552 344.585C127.552 344.585 114.152 347.282 116.118 358.954Z" fill="#9C73F8"/>
<path d="M123.274 372.883C123.274 372.883 116.323 362.267 128.759 353.179C128.759 353.179 134.562 367.783 123.274 372.883Z" fill="#9C73F8"/>
<path d="M122.739 373.5C122.739 373.5 115.509 380.68 105.904 369.827C105.904 369.827 116.549 363.424 122.739 373.5Z" fill="#9C73F8"/>
<path d="M145.647 433.249L160.642 364.922C160.642 364.922 137.544 391.171 145.647 433.249Z" fill="#3D3E00"/>
<path d="M145.647 433.249L160.642 364.922C160.642 364.922 169.098 399.134 145.647 433.249Z" fill="#3D3E00"/>
<path d="M146.084 432.917L141.491 342.658C141.491 342.658 120.796 377.401 146.084 432.917Z" fill="#3D3E00"/>
<path d="M146.085 432.917L141.498 342.658C141.498 342.658 163.625 382.367 146.085 432.917Z" fill="#3D3E00"/>
<path d="M145.941 432.94L110.303 374.887C110.303 374.887 107.36 412.435 145.941 432.94Z" fill="#3D3E00"/>
<path d="M145.941 432.94L110.303 374.888C110.303 374.888 139.343 393.197 145.941 432.94Z" fill="#3D3E00"/>
</g>
</g>
</svg>
