<svg width="329" height="101" viewBox="0 0 329 101" fill="none" xmlns="http://www.w3.org/2000/svg">
<g opacity="0.2">
<mask id="mask0_1191_5451" style="mask-type:luminance" maskUnits="userSpaceOnUse" x="0" y="-154" width="331" height="331">
<path d="M331 -154H0V177H331V-154Z" fill="white"/>
</mask>
<g mask="url(#mask0_1191_5451)">
<path d="M367.611 -172.536V151.926H-35.749V-172.536H367.611Z" fill="#FFFCF4"/>
<path d="M367.611 -172.536V151.926H-35.749V-172.536H367.611Z" stroke="#747474"/>
<path d="M207.729 56.9744C166.685 49.0304 142.191 84.7784 122.993 89.4124C103.795 94.0464 97.8374 82.1304 72.6814 76.1724C47.5254 70.2144 21.0454 107.948 -43.8306 78.1584C-108.707 48.3684 -173.583 76.1724 -173.583 76.1724L-176.893 191.36L-35.2246 209.234L427.513 187.388C427.513 187.388 506.292 58.9604 431.485 76.1724C395.996 84.3382 342.777 70.2144 318.283 63.5944C293.789 56.9744 277.182 94.1365 253.407 78.8204C218.983 56.6434 208.391 57.6364 207.729 56.9744Z" fill="#9D4FCC"/>
<mask id="mask1_1191_5451" style="mask-type:luminance" maskUnits="userSpaceOnUse" x="-13" y="-167" width="357" height="357">
<path d="M-12.1133 -140.928L317.927 -166.113L343.112 163.928L13.0713 189.113L-12.1133 -140.928Z" fill="white"/>
</mask>
<g mask="url(#mask1_1191_5451)">
<path d="M264.466 -5.34693C163.447 45.5167 70.6486 21.3934 70.6486 21.3934L60.2384 24.1796L75.7172 35.613L131.466 35.3425L214.485 27.0157L260.601 4.90687L264.466 -5.34693Z" fill="#B19878"/>
<path d="M176.731 -6.61905L114.326 2.1265L116.945 36.4507L179.244 35.0164L176.731 -6.61905Z" fill="#8446FF"/>
<path d="M179.522 -4.84049L117.117 3.90507L119.736 38.2293L182.035 36.795L179.522 -4.84049Z" fill="#D6C2A3"/>
<path d="M163.819 8.30817L165.925 35.9029L152.171 36.9524L150.065 9.35767L163.819 8.30817Z" fill="white"/>
<path d="M265.176 -4.73718C178.679 45.0183 90.1886 33.8448 60.8985 24.1292C53.7277 43.2663 73.912 81.5616 87.2144 81.8743C100.517 82.1871 169.915 95.4814 216.439 70.0218C262.963 44.5621 266.446 -5.498 265.176 -4.73718Z" fill="#CDB599"/>
<path d="M184.045 -10.8289L103.817 -0.723352L109.246 5.16965L191.099 -5.39183L184.045 -10.8289Z" fill="#E4CFA9"/>
<path d="M107.466 -0.763048L106.78 -9.74634" stroke="#D3C6B4" stroke-width="1.80278" stroke-linecap="round"/>
<path d="M103.64 -0.875681L103.671 0.615798L109.481 6.06477L190.41 -4.63406L190.224 -5.98885L109.374 4.6621L103.64 -0.875681Z" fill="#BFA577"/>
<path d="M94.7272 30.7394L104.955 1.19936" stroke="#B3B3B3" stroke-width="2"/>
<path d="M98.8466 32.0223L107.698 4.45797" stroke="#C9C9C9" stroke-width="2"/>
<path d="M103.121 6.46704L105.69 9.67366" stroke="#C9C9C9" stroke-width="2"/>
<path d="M101.125 11.8477L103.693 15.0543" stroke="#C9C9C9" stroke-width="2"/>
<path d="M99.1729 17.8059L101.741 21.0125" stroke="#C9C9C9" stroke-width="2"/>
<path d="M97.6504 22.3206L100.219 25.5272" stroke="#C9C9C9" stroke-width="2"/>
<path d="M96.2383 26.6609L98.8067 29.8675" stroke="#C9C9C9" stroke-width="2"/>
<path d="M110.676 2.14564L109.99 -6.83765" stroke="#C0AB91" stroke-width="1.80278" stroke-linecap="round"/>
<path d="M121.186 0.679579L120.501 -8.30371" stroke="#C0AB91" stroke-width="1.80278" stroke-linecap="round"/>
<path d="M131.545 -0.608751L130.859 -9.59204" stroke="#C0AB91" stroke-width="1.80278" stroke-linecap="round"/>
<path d="M264.416 3.78591C264.416 3.78591 156.654 69.6044 59.649 33.8515C59.6741 34.1816 59.5933 41.8229 60.7093 43.3975C61.8254 44.9722 164.394 75.3211 263.493 8.00586C263.925 7.14298 264.416 3.78591 264.416 3.78591Z" fill="#F88A8A"/>
<path d="M264.547 7.67644C264.547 7.67644 158.138 77.0845 61.1325 41.3316C61.1577 41.6616 62.0009 48.3614 63.1169 49.936C64.233 51.5107 164.207 79.4018 263.307 12.0866C263.739 11.2237 264.547 7.67644 264.547 7.67644Z" fill="#F8E38A"/>
<g opacity="0.18">
<path d="M264.212 -4.33172C247.044 5.6093 233.661 12.9378 211.19 18.636C232.277 33.957 224.796 62.0807 226.751 61.5996C264.009 36.5151 264.872 -4.38209 264.212 -4.33172Z" fill="white"/>
</g>
<path d="M163.754 8.47907L165.423 30.3535L151.417 31.4223L149.748 9.54785L163.754 8.47907Z" fill="#AC8C64"/>
<path d="M161.134 8.67927L150.078 9.52295L150.582 16.1238L161.638 15.2801L161.134 8.67927Z" fill="#BC9F7A"/>
<path d="M161.714 16.2703L150.657 17.114L151.161 23.7148L162.217 22.8711L161.714 16.2703Z" fill="#BC9F7A"/>
<path d="M162.293 23.8612L151.236 24.7048L151.74 31.3056L162.796 30.462L162.293 23.8612Z" fill="#BC9F7A"/>
<path d="M71.4978 14.0255C60.861 13.8413 69.3397 24.8959 69.3397 24.8959L75.0372 27.7808C75.0372 27.7808 79.8221 28.4946 79.8983 28.4057C79.0079 21.0875 76.1495 14.1061 71.4978 14.0255Z" fill="#BFBFBF"/>
<path d="M67.4669 14.4991C62.8779 15.2642 64.211 25.1213 64.211 25.1213L74.6689 27.311C74.6689 27.311 74.764 27.4697 74.8402 27.3809C73.9498 20.0627 72.056 13.7339 67.4669 14.4991Z" fill="#A7A7A7"/>
<path d="M68.5557 17.2529C69.6881 17.1664 70.6776 18.0157 70.764 19.1481C70.8504 20.2804 70.0012 21.27 68.8688 21.3564C67.7364 21.4428 66.7469 20.5936 66.6605 19.4612C66.5741 18.3288 67.4233 17.3393 68.5557 17.2529Z" fill="#CDCDCD"/>
<path d="M77.3264 42.9308C77.3264 42.9308 77.1647 50.9114 75.2684 51.2085C73.3722 51.5055 72.1077 52.7812 70.41 50.5194C68.7124 48.2575 66.9374 46.3205 66.9374 46.3205C66.9374 46.3205 69.273 55.4663 74.7194 54.0426C80.1658 52.6188 77.3264 42.9308 77.3264 42.9308Z" fill="#7E7E7E"/>
<path d="M72.2298 44.8123C71.5034 43.2447 71.658 45.0668 71.658 45.0668C71.658 45.0668 72.0551 47.4505 71.3354 47.7911C71.3469 47.8305 72.7891 48.486 73.1732 49.7966C73.5571 51.1066 73.9133 52.4681 73.9133 52.4681L75.0877 52.2101L73.9838 49.4721C73.9838 49.4721 73.6845 48.0084 74.1898 47.0842C73.7719 46.6893 72.9335 46.3307 72.2298 44.8123Z" fill="#7E7E7E"/>
<path d="M67.5741 26.1287C67.1711 27.8417 66.8115 27.6456 67.3153 28.1878C67.8191 28.73 68.6775 29.5994 69.5141 28.9231C70.3506 28.2468 70.3945 26.3368 70.1987 25.9631C70.0029 25.5893 67.9771 24.4156 67.5741 26.1287Z" stroke="#747474"/>
<path d="M67.0214 21.8918C66.6183 23.6049 66.2587 23.4088 66.7625 23.951C67.2664 24.4932 68.1248 25.3626 68.9613 24.6863C69.7979 24.0099 69.8417 22.1 69.646 21.7262C69.4502 21.3525 67.4244 20.1788 67.0214 21.8918Z" stroke="#747474"/>
<path d="M67.4725 18.8713C67.0695 20.5844 66.7099 20.3883 67.2137 20.9305C67.7175 21.4727 68.576 22.3421 69.4125 21.6658C70.2491 20.9894 70.2929 19.0795 70.0971 18.7057C69.9014 18.332 67.8755 17.1583 67.4725 18.8713Z" stroke="#747474"/>
<path d="M68.2606 30.2388C67.8576 31.9518 67.498 31.7557 68.0018 32.2979C68.5056 32.8401 69.364 33.7095 70.2006 33.0332C71.0372 32.3569 71.081 30.4469 70.8852 30.0732C70.6895 29.6994 68.6636 28.5257 68.2606 30.2388Z" stroke="#747474"/>
<path d="M69.089 34.8005C69.1738 36.5583 68.7741 36.469 69.4078 36.8513C70.0416 37.2336 71.1064 37.8327 71.7241 36.952C72.3418 36.0713 71.8575 34.2232 71.5663 33.9179C71.2751 33.6126 69.0042 33.0428 69.089 34.8005Z" stroke="#747474"/>
<path d="M69.7921 38.0864C69.8769 39.8442 69.4772 39.7548 70.1109 40.1372C70.7447 40.5195 71.8095 41.1186 72.4272 40.2379C73.0449 39.3572 72.5607 37.5091 72.2694 37.2038C71.9782 36.8985 69.7074 36.3287 69.7921 38.0864Z" stroke="#747474"/>
<path d="M70.0207 41.512C70.1054 43.2697 69.7057 43.1804 70.3394 43.5627C70.9732 43.945 72.038 44.5441 72.6557 43.6634C73.2735 42.7827 72.7892 40.9347 72.4979 40.6293C72.2067 40.324 69.9359 39.7542 70.0207 41.512Z" stroke="#747474"/>
</g>
<path d="M274.835 40.8951C233.791 32.9511 209.297 68.6991 190.099 73.3331C170.901 77.9671 164.943 66.0511 139.787 60.0931C114.631 54.1351 88.1509 91.8691 23.2749 62.0791C-41.6011 32.2891 -106.477 60.0931 -106.477 60.0931L-109.787 175.281L31.8809 193.155L494.619 171.309C494.619 171.309 573.397 42.8811 498.591 60.0931C463.102 68.2589 409.883 54.1351 385.389 47.5151C360.895 40.8951 344.287 78.0571 320.513 62.7411C286.089 40.5641 275.497 41.5571 274.835 40.8951Z" fill="#CEB5FF"/>
<path d="M202.51 63.6606C161.466 55.7166 134.324 78.8866 115.126 83.5206C95.9277 88.1546 76.7297 86.8306 51.5737 80.8726C37.7743 77.6043 19.7977 70.9426 -0.0583038 72.9485C-15.0731 74.4651 -25.7201 91.6732 -55.0083 78.2246C-119.884 48.4346 -178.802 82.8586 -178.802 82.8586L-182.112 198.047L-40.4443 215.921L422.294 194.075C422.294 194.075 501.072 65.6466 426.266 82.8586C390.777 91.0244 339.305 70.2806 313.064 70.2806C287.691 70.2806 271.962 100.823 248.188 85.5066C213.764 63.3296 203.172 64.3226 202.51 63.6606Z" fill="#9D4FCC"/>
</g>
</g>
</svg>
