<svg width="329" height="101" viewBox="0 0 329 101" fill="none" xmlns="http://www.w3.org/2000/svg">
<g opacity="0.2">
<path d="M0 240H329V82.48H0V240Z" fill="#CEB5FF"/>
<path d="M0 82.48H329V-24H0V82.48Z" fill="#FAF1F3"/>
<path d="M104.237 40.211C111.059 40.211 116.589 34.6635 116.589 27.8206C116.589 20.9777 111.059 15.4302 104.237 15.4302C97.4145 15.4302 91.8838 20.9777 91.8838 27.8206C91.8838 34.6635 97.4145 40.211 104.237 40.211Z" fill="white"/>
<path d="M335.143 22.5221C335.143 22.5221 224.473 11.098 134.233 76.7249V81.8025L335.143 86.8801V22.5221Z" fill="#F6E6E8"/>
<path d="M-48.3828 82.6058C-48.3828 82.6058 48.7011 43.3869 73.5095 44.7174C98.317 46.0489 188.156 76.8709 188.156 76.8709L184.787 82.6058H-48.3828Z" fill="#F7E8EA"/>
<path d="M216.625 99.501H129.032C129.032 99.501 128.522 94.5853 134.545 94.1761C134.545 94.1761 134.341 88.0319 141.079 87.5198C147.817 87.0076 148.735 91.8212 148.735 91.8212C148.735 91.8212 150.165 86.4963 157.311 87.4177C157.311 87.4177 156.393 75.4356 169.459 75.0264C182.528 74.6163 180.077 87.2126 180.077 87.2126C180.077 87.2126 185.386 83.6284 189.47 92.8446C189.47 92.8446 191.512 88.237 198.351 92.1283C198.351 92.1283 203.965 90.5918 206.824 94.5853C206.824 94.5853 210.092 93.6639 211.725 97.0431C211.623 97.2482 215.911 95.4046 216.625 99.501Z" fill="#CFA0E6"/>
<path d="M89.319 92.1275H-6.64551C-6.64551 92.1275 -5.62429 86.1893 2.23662 87.8269C2.23662 87.8269 4.27817 84.2436 8.36216 83.7314C8.36216 83.7314 11.424 81.8878 13.1603 83.7314C13.1603 83.7314 12.1391 75.7437 22.8583 73.2867C31.3316 71.2381 33.782 78.6116 33.782 78.6116C33.782 78.6116 35.5174 70.9301 43.4801 74.0021C43.4801 74.0021 45.726 62.0227 58.2833 64.9918C70.8406 67.9618 62.8779 81.6837 62.8779 81.6837C62.8779 81.6837 69.0034 77.0751 72.3724 84.5507C72.3724 84.5507 77.9865 81.4786 79.8245 86.8035C79.8245 86.8035 87.481 86.2905 89.319 92.1275Z" fill="#CFA0E6"/>
<mask id="mask0_1191_6447" style="mask-type:luminance" maskUnits="userSpaceOnUse" x="0" y="-24" width="329" height="264">
<path d="M0 -24H329V240H0V-24Z" fill="white"/>
</mask>
<g mask="url(#mask0_1191_6447)">
<mask id="mask1_1191_6447" style="mask-type:luminance" maskUnits="userSpaceOnUse" x="25" y="-89" width="330" height="394">
<path d="M25.4424 -88.6802H354.442V304.68H25.4424V-88.6802Z" fill="white"/>
</mask>
<g mask="url(#mask1_1191_6447)">
<path d="M41.6836 -0.733338C42.8703 -1.1246 44.2677 -1.23837 45.5431 -1.1721C46.182 -1.13778 46.8499 -0.951551 47.5178 -0.766298C47.8505 -0.672063 48.2136 -0.426344 48.5758 -0.1816C48.9398 0.0641189 49.3332 0.39729 49.6563 1.04682H48.0381C48.3626 0.0718288 49.1328 -0.30806 49.6804 -0.632694C50.2265 -0.957749 51.0452 -1.14018 51.5404 -1.28717C52.1957 -1.42994 52.7407 -1.39212 53.3576 -1.38876C53.9754 -1.38497 54.4668 -1.30763 55.0215 -1.22635C54.5212 -1.12197 54.0018 -0.937984 53.4926 -0.758084C52.9835 -0.578185 52.4807 -0.373101 51.9715 -0.194176C51.4623 -0.0142765 50.9528 0.16702 50.5513 0.529204C50.1865 0.746233 49.748 1.25218 49.5663 1.3602L47.9325 1.36906C47.9325 1.36906 47.9021 1.21673 47.7492 1.24669C47.7198 1.09478 47.5689 1.12432 47.5395 0.972412C47.3582 0.848643 47.1749 0.727246 46.8109 0.481527C46.2954 0.265343 45.7814 0.0501329 45.1144 -0.136518C44.2989 -0.318949 42.9889 -0.513762 41.6836 -0.733338Z" fill="#8446FF"/>
</g>
<mask id="mask2_1191_6447" style="mask-type:luminance" maskUnits="userSpaceOnUse" x="-11" y="-86" width="330" height="394">
<path d="M-10.5283 -85.8201H318.472V307.54H-10.5283V-85.8201Z" fill="white"/>
</mask>
<g mask="url(#mask2_1191_6447)">
<path d="M6.97754 10.3602C7.81136 9.80863 8.86649 9.42716 9.86429 9.20999C10.3645 9.10213 10.9184 9.10512 11.4722 9.10778C11.7484 9.11061 12.0806 9.22351 12.4112 9.33608C12.7437 9.44898 13.2999 9.8918 13.5582 10.4111H12.2643C12.5238 9.63157 13.4389 9.27078 13.9398 9.18188C14.4395 9.09221 15.2748 9.09624 15.6805 9.16574C16.2111 9.24304 16.7073 9.48419 17.1683 9.66021C17.6297 9.837 17.8603 9.97843 18.2051 10.2999C17.7901 10.1516 17.5106 10.152 17.0792 10.1433C16.6479 10.1346 16.2282 10.1738 15.7968 10.1648C15.3655 10.1561 14.9334 10.1485 14.5317 10.3068C14.1977 10.3667 13.7276 10.6222 13.5611 10.652L12.2385 10.6684C12.2385 10.6684 12.1838 10.5567 12.0721 10.6121C12.0177 10.5012 11.9068 10.5558 11.8524 10.4449C11.6867 10.3875 11.5203 10.3316 11.1878 10.2187C10.7448 10.1604 10.3029 10.1024 9.74942 10.0986C9.09204 10.1026 8.03052 10.255 6.97754 10.3602Z" fill="#8446FF"/>
</g>
<mask id="mask3_1191_6447" style="mask-type:luminance" maskUnits="userSpaceOnUse" x="10" y="-89" width="330" height="432">
<path d="M10.9668 -88.02H339.967V342.3H10.9668V-88.02Z" fill="white"/>
</mask>
<g mask="url(#mask3_1191_6447)">
<path d="M31.459 32.8417C31.8441 32.4952 32.3558 32.2191 32.8504 32.0314C33.0985 31.9379 33.3823 31.8969 33.6662 31.8559C33.8078 31.8362 33.9868 31.8685 34.1647 31.9008C34.3437 31.9332 34.6933 32.2069 34.823 32.4677H34.1734C34.3036 32.0762 34.8503 31.8785 35.1201 31.8835C35.3894 31.8881 35.8614 31.9337 36.0679 32.0231C36.3362 32.1176 36.6029 32.3001 36.8251 32.439C37.0472 32.5783 37.1158 32.6725 37.2602 32.9086C37.0474 32.7667 36.9466 32.7241 36.723 32.6753C36.4993 32.6265 36.2835 32.61 36.0598 32.5611C35.8362 32.5124 35.612 32.4641 35.3869 32.5054C35.2068 32.5024 34.9361 32.5873 34.8463 32.5858L34.1775 32.5967C34.1775 32.5967 34.1411 32.5436 34.0882 32.5805C34.0519 32.5279 33.999 32.5644 33.9627 32.5118C33.8735 32.4951 33.7842 32.479 33.6052 32.4466C33.3737 32.4506 33.1429 32.4547 32.8591 32.4952C32.5275 32.5409 31.9904 32.7071 31.459 32.8417Z" fill="#8446FF"/>
</g>
<mask id="mask4_1191_6447" style="mask-type:luminance" maskUnits="userSpaceOnUse" x="31" y="-93" width="330" height="431">
<path d="M31.8027 -92.8601H360.803V337.46H31.8027V-92.8601Z" fill="white"/>
</mask>
<g mask="url(#mask4_1191_6447)">
<path d="M51.5469 20.7186C52.1677 20.5139 52.8986 20.4544 53.5659 20.4891C53.9 20.507 54.2494 20.6044 54.5988 20.7013C54.7729 20.7506 54.9628 20.8792 55.1523 21.0072C55.3427 21.1357 55.5485 21.31 55.7175 21.6498H54.871C55.0407 21.1398 55.4437 20.9411 55.7301 20.7712C56.0158 20.6012 56.444 20.5058 56.7031 20.4289C57.0459 20.3542 57.331 20.374 57.6537 20.3757C57.9769 20.3777 58.2339 20.4182 58.5241 20.4607C58.2624 20.5153 57.9907 20.6115 57.7243 20.7056C57.458 20.7998 57.195 20.907 56.9286 21.0006C56.6623 21.0947 56.3957 21.1896 56.1857 21.379C55.9948 21.4926 55.7655 21.7572 55.6704 21.8137L54.8158 21.8184C54.8158 21.8184 54.7999 21.7387 54.7199 21.7544C54.7045 21.6749 54.6256 21.6904 54.6102 21.6109C54.5153 21.5461 54.4194 21.4826 54.229 21.3541C53.9594 21.241 53.6905 21.1284 53.3416 21.0308C52.915 20.9354 52.2297 20.8335 51.5469 20.7186Z" fill="#8446FF"/>
</g>
</g>
<path d="M334.389 2.12458V24.6526L221.783 51.9933C221.783 51.9933 219.334 53.0176 215.556 54.4503C200.14 59.9802 162.674 70.2199 183.704 28.646C188.196 19.7369 194.219 12.0571 201.059 5.50378C204.837 1.81746 213.004 -4.42878 213.004 -4.42878C245.06 -27.4689 285.692 -32.6917 285.692 -32.6917C358.175 -39.0401 334.389 2.12458 334.389 2.12458Z" fill="#FAD0A0"/>
<path d="M212.393 51.4803C212.393 51.4803 213.822 55.2695 215.556 54.4503C221.172 51.5832 236.486 46.3613 265.887 52.0954C304.578 59.571 322.139 61.8238 332.96 58.7517L334.287 18.5084C334.287 18.5084 319.994 5.91211 318.973 5.91211C317.952 5.91211 234.239 12.3643 234.239 12.3643L212.393 51.4803Z" fill="#FAD0A0"/>
<path d="M332.96 36.2237C332.96 36.2237 327.55 44.4156 314.584 52.9147C314.584 52.9147 313.257 64.1796 314.584 70.6308C315.91 77.0812 324.792 80.8696 325.508 91.8274C326.222 102.784 329.591 139.955 329.591 139.955H315.102C313.136 139.955 311.549 138.349 311.552 136.377C311.578 124.57 311.018 87.1115 303.048 78.5156C303.048 78.5156 277.832 70.0148 272.728 62.8472C267.623 55.6796 267.623 51.2761 259.149 47.1806C250.676 43.0842 234.342 40.3193 234.342 40.3193L237.405 36.2237L264.969 43.6984L261.192 18.4055L268.031 16.6648C268.031 16.6648 272.114 38.8857 273.851 47.3856C275.586 55.8847 284.059 64.4867 305.498 68.8893C305.498 68.8893 304.478 47.0776 299.066 37.1451C293.656 27.2125 286.101 12.2622 286.101 12.2622H291.205C291.205 12.2622 305.192 36.5308 309.888 44.7228C309.888 44.7228 324.181 39.91 333.063 26.2903C341.842 12.6714 332.96 36.2237 332.96 36.2237Z" fill="#8446FF"/>
<path d="M334.389 18.5085C334.389 18.5085 291 -2.89308 241.793 35.6096C231.687 43.4944 223.009 49.8427 215.556 54.5533C200.14 60.0832 162.674 70.3229 183.704 28.7491C188.196 19.84 194.219 12.1602 201.059 5.60596C190.34 17.7922 184.214 35.7116 200.957 37.9644C219.334 40.3202 243.835 22.2978 274.156 14.413C304.476 6.5282 333.062 15.4364 333.062 15.4364L334.389 18.5085Z" fill="#F8E2CA"/>
</g>
</svg>
