<svg width="329" height="101" viewBox="0 0 329 101" fill="none" xmlns="http://www.w3.org/2000/svg">
<g opacity="0.2">
<mask id="mask0_1191_4924" style="mask-type:luminance" maskUnits="userSpaceOnUse" x="0" y="-55" width="334" height="188">
<path d="M334 -55H0V133H334V-55Z" fill="white"/>
</mask>
<g mask="url(#mask0_1191_4924)">
<path d="M38.8288 112.407H314.207C337.033 99.1511 325.286 59.2622 306.221 51.1761C285.699 42.4719 318.287 12.3694 286.674 2.59863C266.033 -3.78084 238.058 3.34593 224.394 -10.3882C208.339 -26.5245 181.669 -46.1653 131.998 -30.9028C93.689 -19.1314 114.496 3.56195 51.8075 10.3945C19.5721 13.9079 25.8014 43.9673 28.8071 50.179C31.425 55.5892 48.7444 64.1707 24.6742 75.9883C-10.6213 93.3168 37.9968 112.088 38.8288 112.407Z" fill="#FAF1F3"/>
<path d="M228.553 67.8488C228.553 67.8488 256.767 32.0844 273.546 32.1993C290.326 32.3141 309.306 54.9474 332.484 75.777C356.45 97.3148 356.658 111.34 354.641 111.525C352.625 111.709 250.005 111.954 240.486 111.869C238.397 111.85 196.22 112.031 196.22 112.031L228.553 67.8488Z" fill="#BD9BF2"/>
<path d="M-20.9489 67.8488C-20.9489 67.8488 7.26466 32.0844 24.0443 32.1993C40.824 32.3141 59.8039 54.9474 82.9819 75.777C106.948 97.3148 107.156 111.34 105.14 111.525C103.123 111.709 0.503426 111.954 -9.01627 111.869C-11.1045 111.85 -53.2822 112.031 -53.2822 112.031L-20.9489 67.8488Z" fill="#BD9BF2"/>
<g opacity="0.5">
<path d="M321.5 5.18223C321.099 3.4354 319.537 2.13211 317.669 2.13211C317.326 2.13211 316.994 2.17615 316.677 2.25866C315.755 0.2864 313.755 -1.08008 311.436 -1.08008C310.836 -1.08008 310.258 -0.988692 309.714 -0.819144C308.465 -2.88819 306.197 -4.27173 303.605 -4.27173C300.522 -4.27173 297.896 -2.3134 296.9 0.427923C296.196 0.035038 295.385 -0.189692 294.522 -0.189692C291.819 -0.189692 289.628 2.0026 289.628 4.70701C289.628 4.86733 289.636 5.02592 289.651 5.18223H321.5Z" fill="white"/>
</g>
<g opacity="0.5">
<path d="M193.02 26.5172C193.219 25.6465 193.998 24.9969 194.929 24.9969C195.1 24.9969 195.266 25.019 195.424 25.06C195.883 24.0769 196.88 23.3956 198.036 23.3956C198.335 23.3956 198.623 23.4412 198.895 23.5256C199.517 22.4942 200.648 21.8047 201.94 21.8047C203.477 21.8047 204.786 22.7809 205.282 24.1474C205.633 23.9515 206.037 23.8394 206.468 23.8394C207.815 23.8394 208.907 24.9321 208.907 26.2803C208.907 26.3602 208.903 26.4392 208.896 26.5172H193.02Z" fill="white"/>
</g>
<g opacity="0.5">
<path d="M275.559 20.3752C275.262 19.0817 274.106 18.1168 272.723 18.1168C272.469 18.1168 272.223 18.1495 271.988 18.2106C271.306 16.7503 269.825 15.7382 268.107 15.7382C267.663 15.7382 267.235 15.8059 266.832 15.9315C265.907 14.3994 264.228 13.375 262.309 13.375C260.026 13.375 258.081 14.825 257.344 16.8549C256.823 16.5639 256.222 16.3974 255.583 16.3974C253.581 16.3974 251.959 18.0209 251.959 20.0234C251.959 20.1421 251.965 20.2595 251.976 20.3752H275.559Z" fill="white"/>
</g>
<g opacity="0.5">
<path d="M309.252 34.066C309.494 33.0136 310.435 32.2282 311.56 32.2282C311.767 32.2282 311.967 32.2548 312.158 32.3046C312.713 31.1162 313.918 30.2928 315.316 30.2928C315.677 30.2928 316.026 30.3478 316.353 30.45C317.106 29.2033 318.473 28.3696 320.034 28.3696C321.892 28.3696 323.474 29.5495 324.074 31.2013C324.498 30.9646 324.987 30.8291 325.507 30.8291C327.136 30.8291 328.456 32.1502 328.456 33.7797C328.456 33.8763 328.451 33.9719 328.442 34.066H309.252Z" fill="white"/>
</g>
<g opacity="0.5">
<path d="M118.837 4.43516C118.436 2.68833 116.874 1.38504 115.006 1.38504C114.663 1.38504 114.331 1.42908 114.014 1.51159C113.092 -0.46067 111.092 -1.82715 108.772 -1.82715C108.173 -1.82715 107.595 -1.73576 107.051 -1.56621C105.802 -3.63526 103.534 -5.0188 100.942 -5.0188C97.8586 -5.0188 95.2326 -3.06047 94.2373 -0.319147C93.533 -0.712032 92.7222 -0.936762 91.8585 -0.936762C89.1558 -0.936762 86.9648 1.25553 86.9648 3.95994C86.9648 4.12026 86.9732 4.27884 86.9882 4.43516H118.837Z" fill="white"/>
</g>
<g opacity="0.5">
<path d="M-9.64355 25.7702C-9.44368 24.8994 -8.66504 24.2498 -7.73419 24.2498C-7.56336 24.2498 -7.3974 24.2719 -7.23945 24.313C-6.78003 23.3298 -5.78307 22.6485 -4.62677 22.6485C-4.32791 22.6485 -4.03966 22.6941 -3.76846 22.7785C-3.14604 21.7471 -2.01513 21.0576 -0.723319 21.0576C0.813602 21.0576 2.12299 22.0338 2.61894 23.4003C2.96999 23.2045 3.37409 23.0924 3.80464 23.0924C5.15195 23.0924 6.24406 24.185 6.24406 25.5332C6.24406 25.6131 6.24006 25.6922 6.23258 25.7702H-9.64355Z" fill="white"/>
</g>
<g opacity="0.5">
<path d="M72.8961 19.6281C72.5992 18.3346 71.4425 17.3697 70.0597 17.3697C69.8059 17.3697 69.5596 17.4024 69.3249 17.4635C68.6425 16.0032 67.1614 14.9912 65.4439 14.9912C65 14.9912 64.5717 15.0589 64.169 15.1844C63.2444 13.6524 61.5645 12.6279 59.6455 12.6279C57.3625 12.6279 55.4178 14.078 54.681 16.1078C54.1594 15.8168 53.5591 15.6504 52.9195 15.6504C50.9182 15.6504 49.2959 17.2738 49.2959 19.2763C49.2959 19.3951 49.3022 19.5124 49.3133 19.6281H72.8961Z" fill="white"/>
</g>
<g opacity="0.5">
<path d="M106.589 33.319C106.83 32.2665 107.772 31.4811 108.897 31.4811C109.104 31.4811 109.304 31.5077 109.495 31.5575C110.05 30.3691 111.255 29.5457 112.653 29.5457C113.014 29.5457 113.363 29.6007 113.69 29.7029C114.443 28.4562 115.81 27.6226 117.371 27.6226C119.229 27.6226 120.811 28.8024 121.411 30.4542C121.835 30.2175 122.324 30.0821 122.844 30.0821C124.473 30.0821 125.793 31.4031 125.793 33.0326C125.793 33.1292 125.788 33.2248 125.779 33.319H106.589Z" fill="white"/>
</g>
<mask id="mask1_1191_4924" style="mask-type:luminance" maskUnits="userSpaceOnUse" x="-94" y="25" width="261" height="88">
<path d="M-93.7227 25.7703H166.867V112.111H-93.7227V25.7703Z" fill="white"/>
</mask>
<g mask="url(#mask1_1191_4924)">
<path d="M123.896 69.2534L125.088 69.293L125.525 56.0752L124.333 56.0356L123.896 69.2534Z" fill="#355389"/>
<path d="M125.777 30.4138L128.627 61.999L120.846 61.7407L125.777 30.4138Z" fill="#8446FF"/>
<path d="M127.593 50.5434L121.888 55.1186L122.159 53.4011L127.466 49.144L127.593 50.5434Z" fill="#9A4FCB"/>
<path d="M126.968 43.6199L123.534 44.669L123.736 43.3831L126.861 42.4288L126.968 43.6199Z" fill="#9A4FCB"/>
<path d="M-31.8425 61.0016C-1.70244 66.02 43.5217 111.119 77.9673 111.119C112.413 111.119 119.83 100.332 132.747 102.613C145.664 104.894 163.005 111.119 163.005 111.119L-92.9629 111.876C-92.9629 111.876 -61.9825 55.9834 -31.8425 61.0016Z" fill="#BA83D1"/>
<path d="M77.8151 47.8631L80.7321 76.0256L73.7836 75.8873L77.8151 47.8631Z" fill="#8446FF"/>
<path d="M85.1066 56.1341L88.1778 77.4776L82.8865 77.5829L85.1066 56.1341Z" fill="#8446FF"/>
<path d="M65.1868 67.5597L67.3284 89.0164L62.0368 88.8913L65.1868 67.5597Z" fill="#8446FF"/>
<path d="M69.6591 54.1542L74.23 82.095L67.2849 82.3677L69.6591 54.1542Z" fill="#8446FF"/>
<path d="M104.77 61.0016C74.6303 66.02 29.4061 111.119 -5.03954 111.119C-39.4852 111.119 -46.9023 100.332 -59.8194 102.613C-72.7365 104.894 -90.0771 111.119 -90.0771 111.119L165.891 111.876C165.891 111.876 134.91 55.9834 104.77 61.0016Z" fill="#BA83D1"/>
</g>
<mask id="mask2_1191_4924" style="mask-type:luminance" maskUnits="userSpaceOnUse" x="171" y="25" width="262" height="88">
<path d="M171.804 25.7703H432.393V112.111H171.804V25.7703Z" fill="white"/>
</mask>
<g mask="url(#mask2_1191_4924)">
<path d="M225.869 46.0125L230.519 73.9401L223.575 74.2326L225.869 46.0125Z" fill="#8446FF"/>
<path d="M233.977 50.1299L235.813 71.6149L230.524 71.4143L233.977 50.1299Z" fill="#8446FF"/>
<path d="M238.972 56.4934L241.107 77.9509L235.815 77.824L238.972 56.4934Z" fill="#8446FF"/>
<path d="M221.191 52.2701L224.021 80.4411L217.073 80.2813L221.191 52.2701Z" fill="#8446FF"/>
<path d="M233.684 61.0016C263.824 66.02 309.048 111.119 343.494 111.119C377.939 111.119 385.356 100.332 398.274 102.613C411.191 104.894 428.531 111.119 428.531 111.119L172.563 111.876C172.563 111.876 203.544 55.9834 233.684 61.0016Z" fill="#BA83D1"/>
<path d="M330.713 67.5597L332.855 89.0164L327.563 88.8913L330.713 67.5597Z" fill="#8446FF"/>
<path d="M370.297 61.0016C340.157 66.02 294.932 111.119 260.487 111.119C226.041 111.119 218.624 100.332 205.707 102.613C192.79 104.894 175.449 111.119 175.449 111.119L431.417 111.876C431.417 111.876 400.437 55.9834 370.297 61.0016Z" fill="#BA83D1"/>
</g>
<mask id="mask3_1191_4924" style="mask-type:luminance" maskUnits="userSpaceOnUse" x="145" y="3" width="306" height="110">
<path d="M145.155 3.14062H450.626V112.111H145.155V3.14062Z" fill="white"/>
</mask>
<g mask="url(#mask3_1191_4924)">
<path d="M169.572 111.876C169.572 111.876 202.617 83.1519 245.226 81.3875C259.534 80.7951 318.121 92.6743 367.456 102.007C369.53 102.4 374.014 106.241 376.114 106.636C399.47 111.029 421.236 111.957 428.276 112.241L169.572 111.876Z" fill="#CEB5FF"/>
<path d="M220.264 106.955C220.378 106.565 220.47 106.166 220.539 105.76C221.31 101.231 218.927 97.5593 215.216 97.5593C211.505 97.5593 207.872 101.231 207.101 105.76C207.032 106.166 206.988 106.565 206.968 106.955H220.264Z" fill="#9A4FCB"/>
<path d="M183.616 94.7214C181.911 91.4703 181.865 87.7187 182.126 85.1441C182.41 82.349 183.108 80.2986 183.115 80.278L182.976 80.2155C182.969 80.2361 182.266 82.3015 181.98 85.115C181.716 87.7148 181.763 91.505 183.489 94.7965L183.616 94.7214Z" fill="#8446FF"/>
<path d="M183.644 79.8083C183.541 80.4374 183.215 80.9442 182.783 81.2352C182.476 80.7643 182.335 80.1437 182.438 79.5146C182.541 78.8855 182.867 78.3786 183.299 78.0876C183.606 78.5585 183.747 79.1791 183.644 79.8083Z" fill="#8446FF"/>
<path d="M182.186 81.155C182.473 81.732 182.522 82.3649 182.369 82.8972C181.867 82.7307 181.403 82.3292 181.116 81.7523C180.829 81.1753 180.779 80.5424 180.933 80.0101C181.434 80.1766 181.899 80.578 182.186 81.155Z" fill="#8446FF"/>
<path d="M181.283 82.8099C181.773 83.1929 182.079 83.745 182.167 84.3066C181.662 84.4042 181.091 84.2696 180.601 83.8866C180.111 83.5036 179.804 82.9515 179.716 82.3899C180.221 82.2923 180.793 82.4268 181.283 82.8099Z" fill="#8446FF"/>
<path d="M181.308 85.2256C181.696 85.5297 181.911 86.011 181.937 86.5246C181.493 86.6696 181.013 86.6058 180.625 86.3015C180.237 85.9972 180.022 85.5161 179.997 85.0025C180.441 84.8573 180.92 84.9213 181.308 85.2256Z" fill="#8446FF"/>
<path d="M183.251 82.5342C183.734 82.3272 184.253 82.3584 184.68 82.5753C184.522 83.0429 184.174 83.445 183.69 83.652C183.207 83.8589 182.689 83.8277 182.262 83.6109C182.42 83.1435 182.768 82.7412 183.251 82.5342Z" fill="#8446FF"/>
<path d="M183.057 84.1846C183.54 83.9776 184.059 84.0089 184.486 84.2257C184.328 84.6933 183.979 85.0952 183.496 85.3022C183.013 85.5091 182.495 85.4781 182.067 85.2612C182.226 84.7939 182.574 84.3916 183.057 84.1846Z" fill="#8446FF"/>
<path d="M181.378 87.8834C181.617 87.9618 181.806 88.1443 181.909 88.3694C181.723 88.4996 181.483 88.5417 181.243 88.4634C181.004 88.385 180.815 88.2025 180.712 87.9774C180.898 87.8472 181.139 87.8051 181.378 87.8834Z" fill="#8446FF"/>
<path d="M182.807 96.8858C178.266 95.8684 174.766 92.5687 172.63 89.9799C170.311 87.1695 169.053 84.5658 169.041 84.5398L168.858 84.637C168.87 84.6631 170.137 87.2861 172.471 90.1156C174.628 92.7304 178.164 96.0636 182.762 97.0936L182.807 96.8858Z" fill="#8446FF"/>
<path d="M169.088 83.5339C169.575 84.2101 169.746 85.0238 169.624 85.7617C168.912 85.6804 168.212 85.2822 167.725 84.606C167.239 83.9298 167.067 83.1161 167.19 82.3783C167.902 82.4595 168.602 82.8577 169.088 83.5339Z" fill="#8446FF"/>
<path d="M169.007 86.3506C169.799 86.5486 170.427 87.0591 170.779 87.7051C170.171 88.1113 169.38 88.2669 168.588 88.0689C167.797 87.8706 167.168 87.3604 166.817 86.7143C167.424 86.3081 168.215 86.1525 169.007 86.3506Z" fill="#8446FF"/>
<path d="M169.715 88.8284C170.512 88.6285 171.298 88.7822 171.896 89.1869C171.528 89.8338 170.886 90.3458 170.089 90.5459C169.292 90.7458 168.506 90.5921 167.908 90.1874C168.276 89.5405 168.918 89.0284 169.715 88.8284Z" fill="#8446FF"/>
<path d="M171.55 91.0645C172.347 90.8646 173.133 91.0183 173.731 91.423C173.363 92.0699 172.721 92.5821 171.924 92.782C171.127 92.9819 170.34 92.8282 169.743 92.4235C170.111 91.7766 170.753 91.2646 171.55 91.0645Z" fill="#8446FF"/>
<path d="M170.956 87.312C170.905 86.543 171.147 85.8144 171.572 85.2866C172.058 85.6899 172.393 86.3399 172.444 87.1088C172.496 87.8777 172.253 88.6063 171.829 89.1342C171.342 88.7308 171.008 88.0809 170.956 87.312Z" fill="#8446FF"/>
<path d="M172.871 89.6247C172.808 88.8567 173.04 88.1237 173.456 87.588C173.949 87.9823 174.293 88.6258 174.356 89.3939C174.419 90.1618 174.188 90.8947 173.771 91.4305C173.278 91.0361 172.934 90.3928 172.871 89.6247Z" fill="#8446FF"/>
<path d="M174.477 93.2542C174.767 93.0592 175.105 93.0138 175.407 93.1001C175.358 93.4226 175.179 93.7267 174.89 93.9216C174.601 94.1166 174.262 94.162 173.961 94.0757C174.009 93.7533 174.188 93.4492 174.477 93.2542Z" fill="#8446FF"/>
<path d="M194.768 103.277L194.964 103.29C195.353 98.1167 197.866 93.5296 199.907 90.5926C202.121 87.4052 204.271 85.4186 204.293 85.3989L204.169 85.2338C204.148 85.2536 201.983 87.2535 199.755 90.4594C197.697 93.4211 195.161 98.0491 194.768 103.277Z" fill="#8446FF"/>
<path d="M205.175 85.2132C204.634 85.9021 203.937 86.2824 203.275 86.3251C203.267 85.5337 203.539 84.6793 204.079 83.9903C204.62 83.3016 205.316 82.9211 205.979 82.8784C205.987 83.6698 205.715 84.5244 205.175 85.2132Z" fill="#8446FF"/>
<path d="M202.688 85.7987C202.603 86.7048 202.224 87.5083 201.695 88.0435C201.27 87.481 201.045 86.6605 201.13 85.7543C201.216 84.8482 201.595 84.0447 202.124 83.5095C202.549 84.072 202.774 84.8927 202.688 85.7987Z" fill="#8446FF"/>
<path d="M200.588 87.1574C200.853 87.9741 200.806 88.864 200.517 89.6084C199.907 89.3638 199.385 88.79 199.12 87.9732C198.855 87.1565 198.902 86.2666 199.191 85.5222C199.801 85.767 200.323 86.3406 200.588 87.1574Z" fill="#8446FF"/>
<path d="M198.774 90.9339C198.909 91.2662 198.914 91.6399 198.814 91.9612C198.551 91.88 198.316 91.6583 198.181 91.3258C198.047 90.9935 198.041 90.6198 198.141 90.2985C198.404 90.3797 198.64 90.6015 198.774 90.9339Z" fill="#8446FF"/>
<path d="M198.03 92.2772C198.165 92.6096 198.17 92.9835 198.07 93.3048C197.807 93.2236 197.572 93.0017 197.437 92.6694C197.302 92.337 197.297 91.9631 197.397 91.6418C197.66 91.723 197.896 91.9449 198.03 92.2772Z" fill="#8446FF"/>
<path d="M202.892 88.2383C203.552 88.3345 204.088 88.7445 204.399 89.3144C203.91 89.7679 203.261 90.0055 202.601 89.9092C201.94 89.8131 201.404 89.403 201.093 88.8332C201.582 88.3797 202.231 88.1421 202.892 88.2383Z" fill="#8446FF"/>
<path d="M201.555 90.1009C202.216 90.1972 202.752 90.6072 203.063 91.1771C202.574 91.6305 201.925 91.868 201.265 91.7718C200.604 91.6755 200.068 91.2654 199.757 90.6955C200.246 90.2421 200.895 90.0046 201.555 90.1009Z" fill="#8446FF"/>
<path d="M199.422 92.5976C199.852 92.6602 200.2 92.927 200.403 93.2979C200.085 93.5931 199.663 93.7477 199.233 93.685C198.802 93.6224 198.454 93.3556 198.251 92.9847C198.57 92.6895 198.992 92.5349 199.422 92.5976Z" fill="#8446FF"/>
<path d="M177.938 111.007C177.975 110.146 183.121 111.537 183.604 110.394C184.086 109.251 179.212 108.831 179.28 107.243C179.349 105.655 181.786 106.948 183.244 107.053C184.701 107.158 180.396 106.165 180.42 105.603C180.444 105.041 181.953 105.446 181.978 104.849C182.004 104.252 174.037 103.225 175.034 101.831C176.032 100.438 180.245 102.635 181.456 101.964C182.668 101.293 175.226 99.9284 175.089 98.7909C174.952 97.6535 180.558 100.152 181.399 99.4016C182.24 98.6512 172.554 95.037 173.057 92.9308C173.56 90.8246 180.376 96.203 182.155 95.8053C183.934 95.4076 173.644 87.1442 176.237 84.4011C178.829 81.6579 182.995 94.5881 184.621 94.2544C186.248 93.9207 182.952 86.1536 184.65 84.9664C186.348 83.7794 190.547 95.9929 190.739 98.4524C190.932 100.912 191.861 93.2725 194.479 92.5599C197.096 91.8475 194.348 97.3247 194.722 99.0808C195.096 100.837 197.454 94.8427 200.256 95.4962C203.058 96.1494 194.893 101.198 195.607 102.903C196.32 104.609 202.747 97.8976 204.581 99.9582C206.415 102.019 196.899 106.683 197.344 108.18C197.788 109.677 203.468 107.577 205.002 109.301C206.537 111.025 198.904 111.499 197.898 111.426C196.891 111.353 192.991 112.344 196.758 112.366C200.524 112.388 177.9 111.869 177.938 111.007Z" fill="#8446FF"/>
<path d="M192.785 112.846C192.785 112.846 199.054 112.549 200.754 111.222C202.454 109.894 200.931 109.149 200.931 109.149C200.931 109.149 206.685 108.44 206.532 107.075C206.38 105.709 204.99 105.93 204.99 105.93C204.99 105.93 207.7 103.656 207.033 102.478C206.008 100.667 201.601 104.447 201.601 104.447C201.601 104.447 202.968 102.443 201.669 102.139C198.103 101.304 192.785 112.846 192.785 112.846Z" fill="#9A4FCB"/>
<path d="M168.749 57.3573C168.77 57.0187 169.246 56.7697 169.484 57.078C169.722 57.3852 169.718 57.1825 169.939 57.8379C170.573 59.7194 171.533 61.5503 172.667 63.1595C174.84 66.2427 177.036 67.8321 179.536 69.4166C178.559 67.0191 177.934 64.4731 177.923 61.9237C177.918 60.9946 177.966 60.0327 178.389 59.1934C178.507 58.959 178.931 59.0209 178.966 59.2873C179.14 60.608 178.795 61.5892 179.147 63.954C179.99 69.5971 183.822 75.6732 187.567 79.9606C187.04 72.8813 186.926 64.8506 188.473 57.7739C188.726 56.6132 189.107 55.5134 189.464 54.3828C189.548 54.1169 189.925 54.244 189.87 54.5089C189.792 54.8863 189.009 59.7646 188.96 60.101C188.18 65.5027 188.119 71.5112 188.428 77.0018C191.557 73.0238 193.714 68.325 194.807 63.3826C195.13 61.9217 195.25 60.4067 195.684 58.9764C195.744 58.7793 196.073 58.768 196.107 58.9894C196.441 61.1625 195.522 64.9603 194.875 67.0193C193.562 71.1916 191.553 74.9063 188.861 78.1969C188.756 78.3249 192.004 111.39 191.877 111.804C191.662 112.501 190.423 112.957 190.271 111.704C190.209 111.193 188.484 91.0956 187.712 81.7869C187.32 81.5547 187.075 81.1555 186.085 79.9699C183.791 77.2253 181.545 73.8295 180.071 70.6464C179.131 70.5639 172.43 67.0428 169.287 59.3981C169.197 59.1778 168.79 58.1433 168.734 57.9138C168.686 57.7171 168.738 57.5498 168.749 57.3573Z" fill="#184655"/>
<path d="M190.923 47.3496C190.877 46.3335 190.868 45.2957 190.901 44.241C191.261 32.4776 196.543 23.0952 202.699 23.2847C208.854 23.4742 213.551 33.1637 213.19 44.9271C213.158 45.9818 213.086 47.0172 212.977 48.0284L190.923 47.3496Z" fill="#9A4FCB"/>
<path d="M178.471 41.7269C178.438 40.2951 178.442 38.8317 178.488 37.3442C178.997 20.7547 184.399 7.45975 190.554 7.64921C196.709 7.83868 201.287 21.4408 200.778 38.0303C200.733 39.5178 200.647 40.9787 200.526 42.4058L178.471 41.7269Z" fill="#CEB5FF"/>
<path d="M181.987 60.2607C182.096 59.2495 182.168 58.2137 182.2 57.159C182.561 45.3957 177.863 35.7061 171.708 35.5166C165.553 35.3272 160.271 44.7096 159.91 56.4729C159.878 57.5276 159.887 58.5658 159.933 59.5818L181.987 60.2607Z" fill="#CEB5FF"/>
<path d="M199.824 60.809C199.966 59.3825 200.062 57.9219 200.107 56.4345C200.616 39.8451 194.703 26.2019 186.9 25.9617C179.097 25.7216 172.359 38.9753 171.85 55.5647C171.805 57.0521 171.811 58.5159 171.865 59.9484L199.824 60.809Z" fill="#9A4FCB"/>
<path d="M190.031 26.058C193.931 26.1781 197.283 30.5516 199.377 37.3134C200.567 36.7351 201.821 36.4427 203.111 36.4824C210.035 36.6955 215.355 46.4042 214.994 58.1674C214.962 59.2221 214.885 60.2575 214.767 61.2685L176.571 60.0928C176.528 58.6606 176.527 57.1971 176.573 55.7097C177.082 39.1204 183.107 25.8449 190.031 26.058Z" fill="#CEB5FF"/>
<path d="M169.848 107.015C169.97 106.632 170.076 106.24 170.163 105.841C171.133 101.394 169.39 97.7881 166.271 97.7881C163.152 97.7881 159.837 101.394 158.867 105.841C158.78 106.24 158.715 106.632 158.671 107.015H169.848Z" fill="#8446FF"/>
<path d="M176.67 105.036C176.827 104.495 176.968 103.942 177.091 103.38C178.458 97.108 177.038 92.0234 173.919 92.0234C170.799 92.0234 167.162 97.108 165.794 103.38C165.672 103.942 165.572 104.495 165.493 105.036H176.67Z" fill="#9A4FCB"/>
<path d="M164.044 111.995C164.113 111.455 164.207 110.902 164.33 110.339C165.697 104.067 170.011 98.9827 173.966 98.9827C177.92 98.9827 180.017 104.067 178.65 110.339C178.527 110.902 178.381 111.455 178.213 111.995H164.044Z" fill="#8446FF"/>
<path d="M172.379 98.9827C170.403 98.9827 168.286 100.596 166.569 103.125C166.027 102.893 165.423 102.768 164.77 102.768C161.261 102.768 157.631 106.374 156.661 110.821C156.574 111.22 156.512 111.612 156.473 111.995H175.828C175.99 111.455 176.134 110.902 176.256 110.339C177.624 104.067 175.888 98.9827 172.379 98.9827Z" fill="#9A4FCB"/>
</g>
<mask id="mask4_1191_4924" style="mask-type:luminance" maskUnits="userSpaceOnUse" x="-169" y="3" width="306" height="110">
<path d="M-168.805 3.14062H136.666V112.111H-168.805V3.14062Z" fill="white"/>
</mask>
<g mask="url(#mask4_1191_4924)">
<path d="M43.0298 103.078L44.3895 103.131L44.9818 88.0553L43.6221 88.0017L43.0298 103.078Z" fill="#355389"/>
<path d="M45.4511 58.7818L48.4793 94.8355L39.6044 94.4857L45.4511 58.7818Z" fill="#8446FF"/>
<path d="M47.3806 81.7594L40.8406 86.9382L41.1612 84.9808L47.2464 80.1621L47.3806 81.7594Z" fill="#9A4FCB"/>
<path d="M46.7173 73.8564L42.7913 75.0288L43.0313 73.5632L46.6031 72.4965L46.7173 73.8564Z" fill="#9A4FCB"/>
<path d="M-144.388 111.876C-144.388 111.876 -111.343 83.1519 -68.7341 81.3875C-54.4262 80.7951 4.16071 92.6743 53.496 102.007C55.5701 102.4 60.054 106.241 62.1541 106.636C85.5097 111.029 107.276 111.957 114.316 112.241L-144.388 111.876Z" fill="#CEB5FF"/>
<path d="M118.249 79.9345L118.048 77.4688C117.864 75.6438 116.322 74.3055 114.605 74.4795C110.277 74.9178 107.146 79.0013 107.61 83.6005L107.949 86.9628C108.098 88.4358 107.445 89.7941 106.363 90.5521C105.381 91.2403 104.861 92.4696 104.988 93.7205L105.167 95.4932C105.36 97.4124 106.389 99.1181 107.919 100.177C108.813 100.796 109.45 101.821 109.572 103.031L109.825 105.541C110.105 108.316 112.449 110.351 115.06 110.086L116.55 109.935C119.161 109.671 121.05 107.207 120.77 104.432C119.988 100.971 120.822 98.8428 121.904 97.565C123.494 95.6865 124.284 93.1909 124.029 90.6616L123.993 90.3069C123.724 87.6374 122.312 85.2558 120.204 83.7524C119.273 83.0888 118.451 81.9344 118.249 79.9345Z" fill="#4E9B87"/>
<path d="M126.05 112.891C126.05 112.891 117.957 96.7667 110.943 94.2938C103.928 91.8209 108.663 101.643 108.663 101.643C108.663 101.643 98.831 86.8248 93.5266 88.1606C88.6642 89.3851 90.9194 98.5699 90.9194 98.5699C90.9194 98.5699 87.0623 93.484 80.84 93.484C74.6176 93.484 80.8792 112.529 80.8792 112.529L126.05 112.891Z" fill="#CEB5FF"/>
<path d="M58.4015 109.555L59.6983 109.484L58.452 86.7608L57.1553 86.832L58.4015 109.555Z" fill="#355389"/>
<path d="M55.2415 46.3031L64.1425 91.8169L51.3684 92.5194L55.2415 46.3031Z" fill="#8446FF"/>
<path d="M63.5782 88.929L51.9217 85.945L52.0265 84.6919L63.3146 87.5814L63.5782 88.929Z" fill="#9A4FCB"/>
<path d="M60.7657 74.5505L53.0408 72.573L53.146 71.3198L60.5021 73.2029L60.7657 74.5505Z" fill="#9A4FCB"/>
<path d="M87.4623 112.528C87.4623 112.528 75.389 90.3379 65.556 92.9041C57.5874 94.9837 65.4069 106.149 64.8129 105.641C64.2191 105.134 58.4642 97.5553 51.2417 97.5553C44.0192 97.5553 55.2011 107.783 55.2011 107.783C55.2011 107.783 38.9935 102.975 38.6488 108.024C38.3627 112.215 44.009 112.528 44.009 112.528H87.4623Z" fill="#8446FF"/>
</g>
<mask id="mask5_1191_4924" style="mask-type:luminance" maskUnits="userSpaceOnUse" x="110" y="54" width="114" height="60">
<path d="M223.711 54.3184H110.29V113.504H223.711V54.3184Z" fill="white"/>
</mask>
<g mask="url(#mask5_1191_4924)">
<path d="M214.355 101.744C214.355 101.744 192.25 105.415 191.985 105.256C191.72 105.097 188.858 92.7373 188.858 92.7373C188.858 92.7373 207.137 89.4485 207.433 89.4485C207.729 89.4485 211.705 92.6313 211.758 92.8433C211.811 93.0555 214.355 101.744 214.355 101.744Z" fill="#183658"/>
<path d="M146.927 104.885C146.397 104.938 119.627 104.364 119.627 104.364L121.641 98.2012C121.641 98.2012 125.352 92.5861 127.313 92.6883C129.274 92.7905 140.939 90.8979 142.952 92.2951C144.965 93.6923 146.768 92.5783 147.722 95.9201C148.676 99.262 149.42 99.6363 148.677 101.65C147.934 103.665 146.927 104.885 146.927 104.885Z" fill="#183658"/>
<path d="M212.305 103.945C212.305 108.982 208.225 113.065 203.193 113.065C198.161 113.065 194.082 108.982 194.082 103.945C194.082 98.9074 198.161 94.824 203.193 94.824C208.225 94.824 212.305 98.9074 212.305 103.945Z" fill="#1A1A1A"/>
<path d="M209.532 103.945C209.532 107.449 206.694 110.29 203.193 110.29C199.692 110.29 196.853 107.449 196.853 103.945C196.853 100.44 199.692 97.5986 203.193 97.5986C206.694 97.5986 209.532 100.44 209.532 103.945Z" fill="#9E9DA2"/>
<path d="M207.433 103.945C207.433 106.288 205.534 108.189 203.193 108.189C200.851 108.189 198.953 106.288 198.953 103.945C198.953 101.601 200.851 99.7007 203.193 99.7007C205.534 99.7007 207.433 101.601 207.433 103.945Z" fill="#D8D9DD"/>
<path d="M142.152 103.945C142.152 108.982 138.073 113.065 133.041 113.065C128.009 113.065 123.93 108.982 123.93 103.945C123.93 98.9074 128.009 94.824 133.041 94.824C138.073 94.824 142.152 98.9074 142.152 103.945Z" fill="#1A1A1A"/>
<path d="M139.38 103.945C139.38 107.449 136.542 110.29 133.04 110.29C129.539 110.29 126.701 107.449 126.701 103.945C126.701 100.44 129.539 97.5986 133.04 97.5986C136.542 97.5986 139.38 100.44 139.38 103.945Z" fill="#9E9DA2"/>
<path d="M137.28 103.945C137.28 106.288 135.382 108.189 133.041 108.189C130.699 108.189 128.801 106.288 128.801 103.945C128.801 101.601 130.699 99.7007 133.041 99.7007C135.382 99.7007 137.28 101.601 137.28 103.945Z" fill="#D8D9DD"/>
<path d="M176.154 58.2321V57.7976H174.678V58.2321H176.154Z" fill="#F7CC7F"/>
<path d="M173.041 67.1004V58.7292C173.041 57.5092 174.03 56.5205 175.249 56.5205H175.449C176.668 56.5205 177.656 57.5092 177.656 58.7292V67.1004C177.656 68.3203 176.668 69.309 175.449 69.309H175.249C174.03 69.309 173.041 68.3201 173.041 67.1004Z" fill="#F47458"/>
<path d="M175.35 69.309H174.111C173.521 69.309 173.042 69.0481 173.042 68.7264V57.1031C173.042 56.7814 173.378 56.5205 173.969 56.5205H175.35V69.309Z" fill="#B75742"/>
<path d="M175.689 64.2309V61.2515H175.144V64.2309H175.689Z" fill="#1A1A1A"/>
<path d="M168.646 67.0683V61.5358C168.646 60.2984 169.648 59.2952 170.885 59.2952H171.022C172.258 59.2952 173.261 60.2984 173.261 61.5358V67.0681C173.261 68.3058 172.258 69.309 171.021 69.309H170.885C169.648 69.309 168.646 68.3058 168.646 67.0683Z" fill="#355389"/>
<path d="M170.953 69.309H169.715C169.124 69.309 168.646 69.1046 168.646 68.8527V59.7514C168.646 59.4994 169.124 59.2952 169.715 59.2952H170.953V69.309Z" fill="#5184CE"/>
<path d="M171.759 60.6353V60.2952H170.283V60.6353H171.759Z" fill="#F7CC7F"/>
<path d="M171.293 65.3327V62.9998H170.747V65.3327H171.293Z" fill="#1A1A1A"/>
<path d="M192.789 71.7196H193.011V69.4734H192.789V71.7196Z" fill="#13375B"/>
<path d="M166.055 71.7196H166.276V69.4734H166.055V71.7196Z" fill="#13375B"/>
<path d="M176.657 64.689H189.991C191.266 64.689 192.299 65.7228 192.299 66.9979C192.299 68.2731 191.266 69.3068 189.991 69.3068H176.657C175.383 69.3068 174.349 68.2731 174.349 66.9979C174.349 65.7228 175.382 64.689 176.657 64.689Z" fill="#B75742"/>
<path d="M174.349 66.9979V65.759C174.349 65.168 174.716 64.689 175.167 64.689H191.481C191.933 64.689 192.299 65.168 192.299 65.759V66.9979H174.349Z" fill="#91342A"/>
<path d="M189.409 67.8033H190.019V66.3264H189.409V67.8033Z" fill="#F7CC7F"/>
<path d="M176.629 67.8033H177.238V66.3264H176.629V67.8033Z" fill="#F7CC7F"/>
<path d="M181.476 67.3379H185.658V66.792H181.476V67.3379Z" fill="#1A1A1A"/>
<path d="M179.241 60.071H187.406C188.681 60.071 189.714 61.1047 189.714 62.38C189.714 63.6552 188.681 64.6889 187.406 64.6889H179.241C177.967 64.6889 176.934 63.6552 176.934 62.38C176.934 61.1047 177.967 60.071 179.241 60.071Z" fill="#4E9B87"/>
<path d="M176.934 62.38V61.1411C176.934 60.5501 177.194 60.071 177.516 60.071H189.132C189.453 60.071 189.714 60.5501 189.714 61.1411V62.38H176.934Z" fill="#8446FF"/>
<path d="M188.003 63.1853H188.438V61.7085H188.003V63.1853Z" fill="#F7CC7F"/>
<path d="M167.032 69.3026L177.605 69.2962L177.775 64.5828H167.032C165.73 64.5828 164.674 65.6394 164.674 66.9427C164.674 68.246 165.73 69.3026 167.032 69.3026Z" fill="#FAE0B2"/>
<path d="M175.349 66.9427C175.349 68.246 176.322 69.3026 177.522 69.3026C178.722 69.3026 179.694 68.246 179.694 66.9427C179.694 65.6394 178.722 64.5828 177.522 64.5828C176.322 64.5828 175.349 65.6394 175.349 66.9427Z" fill="#F7CC7F"/>
<path d="M173.109 69.5232L173.111 69.5216C173.208 69.4463 173.227 69.3077 173.156 69.2069C172.44 68.195 172.241 67.1179 172.564 66.0024C172.744 65.3822 173.046 64.9087 173.216 64.6747C173.285 64.5799 173.27 64.4481 173.183 64.3701L173.18 64.3678C173.079 64.2782 172.924 64.2949 172.844 64.4039C172.652 64.6665 172.327 65.1776 172.128 65.8558C171.869 66.7347 171.784 68.0601 172.781 69.4727C172.857 69.5796 173.005 69.6033 173.109 69.5232Z" fill="#F47458"/>
<path d="M169.244 69.5232L169.246 69.5216C169.344 69.4463 169.363 69.3077 169.292 69.2069C168.576 68.195 168.377 67.1179 168.7 66.0024C168.879 65.3822 169.182 64.9087 169.352 64.6747C169.421 64.5799 169.406 64.4481 169.319 64.3701L169.316 64.3678C169.215 64.2782 169.059 64.2949 168.98 64.4039C168.788 64.6665 168.463 65.1776 168.264 65.8558C168.005 66.7347 167.919 68.0601 168.917 69.4727C168.992 69.5796 169.141 69.6033 169.244 69.5232Z" fill="#F47458"/>
<g style="mix-blend-mode:multiply">
<path d="M175.725 66.521C175.841 65.7773 176.242 65.4026 176.558 65.2193C177.029 64.9465 177.634 64.9082 178.177 65.1167C178.693 65.3148 179.106 65.7669 179.253 66.2963C179.385 66.7671 179.288 67.2458 178.979 67.6443C178.461 68.3136 177.666 68.2079 177.278 68.0401C176.927 67.888 176.663 67.5275 176.606 67.1217C176.56 66.7934 176.708 66.4764 176.993 66.2943C177.279 66.1112 177.631 66.1098 177.911 66.2909C178.115 66.4226 178.318 66.6827 178.126 67.1748L177.97 67.1141C178.093 66.7992 178.044 66.5756 177.821 66.4313C177.596 66.2862 177.313 66.2879 177.083 66.4353C176.854 66.5817 176.734 66.8357 176.771 67.0984C176.82 67.4476 177.045 67.7569 177.345 67.8866C177.688 68.0353 178.391 68.1301 178.847 67.5419C179.2 67.086 179.175 66.6373 179.093 66.3412C178.961 65.8689 178.578 65.4497 178.117 65.2729C177.621 65.0823 177.07 65.1164 176.642 65.3639C176.234 65.6007 175.974 66.0097 175.89 66.5467C175.781 67.2465 175.912 67.8044 176.279 68.205C176.969 68.9573 178.43 68.9464 178.681 68.9385C178.59 69.001 178.494 69.0562 178.395 69.1037C178.391 69.1037 178.386 69.1037 178.382 69.1037C177.938 69.1037 176.809 69.0292 176.157 68.3185C175.753 67.8786 175.608 67.2737 175.725 66.521Z" fill="#F47458"/>
</g>
<path d="M178.557 63.1853H178.991V61.7085H178.557V63.1853Z" fill="#F7CC7F"/>
<path d="M182.009 62.7197H184.986V62.1738H182.009V62.7197Z" fill="#1A1A1A"/>
<path d="M190.817 69.4866L190.961 69.4108L185.934 59.8752L185.79 59.951L190.817 69.4866Z" fill="black"/>
<path d="M175.286 69.6604L180.442 59.8797L180.299 59.804L175.143 69.5845L175.286 69.6604Z" fill="black"/>
<path d="M165.655 69.4795L169.833 59.2209L169.683 59.1597L165.505 69.4182L165.655 69.4795Z" fill="black"/>
<path d="M170.249 69.4758L174.83 56.4824L174.677 56.4282L170.095 69.4216L170.249 69.4758Z" fill="black"/>
<path d="M165.026 69.6014H193.995V69.2964H165.026V69.6014Z" fill="#13375B"/>
<path d="M112.123 95.2646C112.893 90.1816 115.383 89.114 122.75 87.6398C130.878 86.013 141.197 80.7087 141.197 80.7087C141.197 80.7087 158.796 72.0798 163.108 71.0897C167.419 70.0995 178.021 70.3826 186.927 70.4533C195.832 70.5241 201.062 72.9994 205.586 76.5358C210.109 80.0721 217.955 82.7596 217.955 82.7596L219.38 83.0144C220.846 83.2763 221.913 84.5517 221.913 86.0414V98.6548C221.913 100.083 220.952 101.332 219.572 101.697L214.421 103.058C214.001 103.131 213.611 102.832 213.565 102.409C213.001 97.2485 208.543 93.3269 203.228 93.3334C197.575 93.3402 192.94 97.9878 192.943 103.644C192.944 104.287 193.003 104.916 193.116 105.526C193.233 106.155 192.75 106.736 192.11 106.736H144.706C143.784 106.736 143.069 105.926 143.191 105.012C143.25 104.573 143.281 104.124 143.282 103.669C143.299 98.0821 138.784 93.4507 133.202 93.3355C127.416 93.2162 122.688 97.8743 122.688 103.637C122.688 104.019 122.709 104.395 122.749 104.766C122.864 105.816 122.052 106.736 120.996 106.736H114.18C112.941 106.736 111.936 105.731 111.936 104.49V97.8835C111.936 97.0072 111.992 96.1311 112.123 95.2646Z" fill="#F7CC7F"/>
<path d="M221.612 87.5337H215.998C215.517 87.5337 215.191 88.0235 215.377 88.4674L216.008 89.9733C216.609 91.4089 218.013 92.343 219.568 92.343H221.612C222.012 92.343 222.337 92.0184 222.337 91.618V88.2585C222.337 87.8582 222.012 87.5337 221.612 87.5337Z" fill="#CF283C"/>
<path d="M121.053 89.8678C117.961 90.3416 114.401 93.2713 114.401 93.2713C113.55 94.1866 114.253 95.6725 115.5 95.5936L121.528 95.2124C122.78 95.1332 123.848 94.2762 124.197 93.0702C124.783 91.0445 124.284 89.3727 121.053 89.8678Z" fill="#EAFCFC"/>
<path d="M221.88 99.1242C222.267 99.1148 222.541 99.5035 222.398 99.863C221.995 100.88 221.13 101.679 220.025 101.971L214.253 103.497C213.783 103.578 213.346 103.243 213.294 102.769C213.187 101.791 212.954 100.854 212.613 99.9702C212.498 99.6708 212.716 99.348 213.036 99.3402L221.88 99.1242Z" fill="#EAB054"/>
<g style="mix-blend-mode:multiply" opacity="0.5">
<path d="M141.185 83.6289C141.285 83.5738 151.305 78.0728 157.95 74.9929C164.529 71.9439 171.873 72.2671 172.19 72.2831C173.034 72.2638 190.604 71.8824 196.006 73.5671C201.447 75.2643 208.534 82.9955 208.833 83.3238L208.916 83.4143L207.01 92.3629L206.806 92.3516C201.264 92.0383 197.021 93.5144 194.537 96.6197C192.66 98.9671 192.429 101.446 192.427 101.471L192.408 101.684L172.425 102.198V102.2L172.194 102.204L171.948 102.21V102.209L144.104 102.752L144.1 102.513C143.961 93.4582 141.1 84.0025 141.071 83.908L141.015 83.7224L141.185 83.6289ZM191.977 101.218C192.073 100.546 192.494 98.4214 194.149 96.3417C195.932 94.1004 199.542 91.5169 206.629 91.8642L208.398 83.5556C207.578 82.6734 200.874 75.5855 195.864 74.0228C190.851 72.4596 174.572 72.7147 172.425 72.7557V101.72L191.977 101.218ZM144.573 102.266L171.948 101.731V72.7517C170.66 72.7147 164.085 72.6758 158.151 75.426C151.995 78.2791 142.929 83.2188 141.583 83.955C141.982 85.3202 144.401 93.9214 144.573 102.266Z" fill="#FEB546"/>
</g>
<g style="mix-blend-mode:multiply" opacity="0.5">
<path d="M222.398 99.8628C221.995 100.88 221.13 101.679 220.025 101.971L214.253 103.497C213.783 103.578 213.346 103.243 213.294 102.769C213.253 102.391 213.192 102.02 213.115 101.655L222.398 99.8628Z" fill="#FEB546"/>
</g>
<path d="M142.835 104.324C142.837 103.808 142.8 103.299 142.728 102.802C142.641 102.204 143.086 101.662 143.689 101.647L192.994 100.443C193.532 100.43 193.92 100.944 193.773 101.462C193.518 102.365 193.381 103.317 193.381 104.299C193.382 104.949 193.442 105.586 193.555 106.204C193.674 106.849 193.188 107.446 192.533 107.446H144.284C143.338 107.446 142.622 106.608 142.746 105.669C142.803 105.229 142.834 104.78 142.835 104.324Z" fill="#EAB054"/>
<path d="M203.001 84.4749L175.752 84.7325C175.752 84.7325 174.085 84.6878 173.858 83.1173C173.631 81.547 173.65 74.8208 173.65 74.8208C173.65 74.8208 173.848 73.4703 175.14 73.4531C175.926 73.4424 182.509 72.9717 188.912 73.7523C194.135 74.3889 198.967 76.7761 202.63 80.443L204.564 82.3791C204.564 82.3791 205.869 84.4477 203.001 84.4749Z" fill="#EAFCFC"/>
<path d="M170.617 75.674V82.726C170.617 83.6424 169.915 84.3947 169.026 84.4306L147.615 85.2922C147.124 85.3121 146.642 85.0896 146.361 84.6741C145.976 84.1073 145.932 83.1748 147.85 81.9248C151.187 79.7506 159.675 75.0485 162.816 74.5935C164.814 74.3038 167.429 74.1781 169.067 74.125C169.915 74.0975 170.617 74.7989 170.617 75.674Z" fill="#EAFCFC"/>
<path d="M198.964 81.1852C198.964 81.1852 181.209 79.1619 180.828 79.5125C180.448 79.8631 177.98 85.6409 177.532 87.2207L198.444 87.0229L199.917 84.8007L198.964 81.1852Z" fill="#B75742"/>
<path d="M161.32 82.7734C161.32 82.7734 159.687 84.7083 159.223 86.7966L159.737 87.6325L160.769 86.5388L161.32 82.7734Z" fill="#263D60"/>
<path d="M159.576 77.698C159.889 75.6554 161.734 74.1868 163.664 75.1779C164.098 75.4007 164.686 75.8532 164.986 76.2384C165.796 77.28 166.004 78.5666 166.841 79.578C166.533 79.8116 166.161 80.0567 165.718 80.2921L165.197 79.5959L165.377 80.4646C164.081 81.0855 162.251 81.5974 159.748 81.583C159.434 80.1641 159.409 78.7875 159.576 77.698Z" fill="#1A1A1A"/>
<path d="M163.905 82.1917C163.905 82.1917 165.762 82.0735 166.497 82.8735C167.231 83.6736 164.867 90.0022 164.734 91.0204C164.6 92.0385 165.829 94.0688 165.829 94.0688C165.829 94.0688 160.72 96.4612 159.473 95.637C159.473 95.637 159.673 87.4769 159.807 86.7495C159.94 86.0222 161.053 83.0643 161.32 82.7735C161.587 82.4826 163.905 82.1917 163.905 82.1917Z" fill="#355389"/>
<path d="M163.287 79.7126C163.287 79.7126 163.296 79.7672 163.314 79.8602C163.396 80.3062 163.715 81.786 163.931 82.1928C164.191 82.6844 163.04 84.2523 161.932 84.0609C161.602 84.004 162.21 82.6203 162.181 82.4737C162.125 82.1931 162.049 81.8103 161.971 81.418C161.928 81.1966 161.883 80.972 161.841 80.761C161.723 80.1615 161.626 79.6711 161.626 79.6711L163.287 79.7126Z" fill="#F7A491"/>
<path d="M198.832 81.5265C198.85 81.4045 198.896 81.2901 198.963 81.1853L201.602 83.8271C201.602 83.8271 203.587 86.9743 199.223 87.0156L198.023 87.0269L198.832 81.5265Z" fill="#B75742"/>
<g opacity="0.3">
<path d="M163.314 79.8599C163.297 79.767 163.287 79.7123 163.287 79.7123L161.627 79.6709C161.627 79.6709 161.723 80.1614 161.842 80.761C161.884 80.9707 161.928 81.1939 161.971 81.4141C162.227 81.3763 162.495 81.2517 162.764 81.0168C163.057 80.7606 163.248 80.453 163.364 80.1244C163.344 80.0194 163.327 79.9291 163.314 79.8599Z" fill="#F47458"/>
</g>
<path d="M161.85 75.9718C161.85 75.9718 162.624 75.8245 163.159 76.4208C163.695 77.0172 164.365 78.9337 163.227 80.086C162.09 81.2383 160.801 80.123 160.53 78.8603C160.258 77.5974 160.076 76.0557 161.85 75.9718Z" fill="#F7A491"/>
<path d="M160.169 78.8678C160.335 79.1389 160.59 79.277 160.739 79.1764C160.887 79.0756 160.874 78.7743 160.708 78.5032C160.542 78.2321 160.287 78.0937 160.138 78.1945C159.99 78.2951 160.003 78.5967 160.169 78.8678Z" fill="#F7A491"/>
<path d="M161.748 75.7693C161.748 75.7693 162.926 77.5522 163.679 77.5834C164.431 77.6146 164.601 78.5954 164.601 78.5954C164.601 78.5954 164.168 76.3382 163.397 75.9534C162.626 75.5685 161.748 75.7693 161.748 75.7693Z" fill="#1A1A1A"/>
<path d="M163.517 78.0649C163.48 78.3996 163.624 78.6935 163.839 78.7213C164.053 78.7492 164.257 78.5004 164.293 78.1658C164.33 77.8312 164.185 77.5374 163.971 77.5094C163.757 77.4817 163.553 77.7303 163.517 78.0649Z" fill="#F7A491"/>
<path d="M161.516 79.4091L162.71 79.2593C162.71 79.2593 162.739 79.7166 162.216 79.7977C161.579 79.8965 161.516 79.4091 161.516 79.4091Z" fill="white"/>
<path d="M166.31 91.245C166.314 91.2276 165.61 88.2367 165.326 87.5754C165.042 86.9141 163.937 83.8424 163.937 83.8424L165.367 83.5295C165.367 83.5295 166.289 85.9333 166.71 87.0201C167.13 88.1066 166.951 90.1102 166.969 90.6756C166.97 90.6838 167.031 91.1538 167.032 91.1618C167.046 91.2243 167.059 91.2767 167.065 91.2868C167.082 91.3145 167.131 91.504 167.134 91.5204C167.136 91.5368 167.178 91.601 167.195 91.6285C167.212 91.6562 167.251 92.0404 167.259 92.1023C167.268 92.1645 167.24 92.3046 167.24 92.3046L167.255 92.5622C167.266 92.7513 167.07 92.7013 167.07 92.7013C167.075 92.7906 167.044 92.8371 166.994 92.854C166.944 92.8709 166.885 92.8564 166.875 92.8603C166.866 92.8641 166.862 92.8919 166.862 92.8919C166.867 92.9487 166.803 92.9924 166.762 93.0004C166.721 93.0086 166.647 92.9811 166.626 92.9565C166.606 92.932 166.591 92.9355 166.591 92.9355C166.55 92.9711 166.39 92.9696 166.353 92.9181C166.316 92.8665 166.282 92.5948 166.266 92.5704C166.249 92.5461 166.214 92.5043 166.208 92.4651C166.203 92.4259 166.072 92.1474 166.065 92.0919C166.057 92.0364 166.138 91.8489 166.156 91.7366C166.174 91.6243 166.283 91.4497 166.31 91.3996C166.32 91.3799 166.317 91.3159 166.31 91.245Z" fill="#F48C7F"/>
<path d="M168.164 80.2631L168.599 83.1403C168.599 83.1403 167.011 86.5661 166.063 86.269C165.268 86.0197 165.757 82.9885 165.757 82.9885C165.757 82.9885 166.191 81.3606 166.061 80.5459C165.931 79.7313 168.164 80.2631 168.164 80.2631Z" fill="#F7A491"/>
<path d="M166.061 80.5462C165.931 79.7315 168.164 80.2633 168.164 80.2633L168.2 80.5018C168.135 80.6614 168.055 80.7981 167.958 80.9028C167.459 81.442 166.679 81.7657 166.005 81.7903C166.073 81.3511 166.114 80.8802 166.061 80.5462Z" fill="#F47458"/>
<path d="M168.146 76.1172C168.207 76.0891 168.922 79.3406 168.159 80.3151C167.396 81.2897 165.789 81.7218 165.145 81.058C164.432 80.3238 164.171 76.787 165.396 75.7477C166.621 74.7083 168.146 76.1172 168.146 76.1172Z" fill="#F7A491"/>
<path d="M165.745 73.9474C166.769 74.0696 167.472 74.6326 167.733 74.8758C168.195 74.8918 168.837 75.0936 169.567 76.1064C170.465 77.3515 170.003 78.8526 169.144 79.6417C168.285 80.4308 168.366 81.253 168.366 81.253L168.185 80.8392C168.051 80.5257 167.979 80.1873 167.987 79.846C167.992 79.6413 168.017 79.4181 168.086 79.2307C168.267 78.7364 167.545 78.4781 167.318 78.0983C167.142 77.8059 167.077 77.1093 166.799 76.625L166.484 76.2638C166.484 76.2638 165.791 75.8091 165.165 76.0059C164.539 76.2026 164.432 73.7907 165.745 73.9474Z" fill="#13375B"/>
<path d="M167.409 78.6804C167.436 79.0821 167.645 79.3953 167.876 79.3801C168.107 79.3647 168.273 79.0267 168.246 78.625C168.22 78.2232 168.011 77.91 167.78 77.9252C167.549 77.9404 167.383 78.2786 167.409 78.6804Z" fill="#F7A491"/>
<path d="M166.127 79.7203L164.859 79.7598C164.859 79.7598 164.903 80.2423 165.461 80.2411C166.142 80.2397 166.127 79.7203 166.127 79.7203Z" fill="white"/>
<path d="M168.957 83.0253C168.841 82.8081 168.624 82.6624 168.379 82.6405C167.315 82.5451 164.39 82.543 162.897 85.1299C162.662 85.5378 162.492 85.9802 162.371 86.4353L162.057 87.7311L169.754 87.4806L169.741 86.625C169.819 85.3757 169.548 84.1291 168.957 83.0253Z" fill="#8446FF"/>
<path d="M150.674 88.2038L149.557 83.6623C149.482 83.3581 149.668 83.0508 149.972 82.9758C150.276 82.9009 150.583 83.0869 150.657 83.391L151.829 88.1512L150.674 88.2038Z" fill="#1A1A1A"/>
<path d="M153.562 88.0729C153.246 87.8751 152.989 87.7124 152.817 87.6077C152.803 87.5997 151.998 87.2133 151.985 87.2056C151.872 87.164 151.775 87.1311 151.753 87.1306C151.692 87.1292 151.342 87.0114 151.314 86.9981C151.286 86.9849 151.141 86.9851 151.08 86.9837C151.019 86.9821 150.373 86.6482 150.266 86.5978C150.159 86.5473 149.966 86.3593 149.966 86.3593L149.544 86.118C149.234 85.9408 149.515 85.6825 149.515 85.6825C149.369 85.598 149.327 85.5009 149.352 85.4043C149.378 85.3077 149.462 85.2287 149.465 85.2099C149.469 85.1909 149.429 85.1564 149.429 85.1564C149.334 85.1063 149.331 84.9602 149.36 84.8866C149.39 84.8128 149.509 84.7249 149.57 84.7172C149.63 84.7097 149.639 84.6831 149.639 84.6831C149.626 84.5804 149.793 84.3292 149.912 84.3238C150.032 84.3184 150.495 84.5451 150.551 84.5439C150.606 84.5426 150.709 84.5292 150.776 84.5613C150.844 84.5931 151.418 84.6725 151.513 84.7178C151.609 84.763 151.821 85.084 151.98 85.2281C152.139 85.3723 152.302 85.7248 152.354 85.8183C152.374 85.8548 152.478 85.9163 152.598 85.9777C152.616 85.9972 156.126 87.266 158.203 87.8861L153.562 88.0729Z" fill="#F7A491"/>
<path d="M164.503 87.6325C164.72 86.326 164.989 84.9528 165.276 84.3186C165.908 82.9285 168.037 82.1004 169.081 82.9645C169.639 83.4256 169.398 85.621 168.924 87.516L164.503 87.6325Z" fill="#9A4FCB"/>
<path d="M195.437 80.0688C195.437 80.0688 198.045 80.0044 198.931 80.591C199.817 81.1775 199.709 87.0137 199.709 87.0137L198.849 87.1771C198.849 87.1771 198.536 91.1928 197.87 91.4024C197.204 91.612 192.824 90.2675 191.914 89.1372C191.004 88.0071 193.841 79.6812 193.841 79.6812L195.437 80.0688Z" fill="#8446FF"/>
<path d="M202.678 79.5954C202.678 79.5954 202.511 79.2944 202.597 78.7039C202.653 78.3252 202.469 77.6614 202.698 77.7353C202.927 77.8092 202.864 78.471 203.017 78.3762C203.17 78.2813 203.391 76.9077 203.598 76.9746C203.806 77.0415 203.515 78.3241 203.652 78.2392C203.788 78.1543 203.93 76.9546 204.223 77.0492C204.516 77.1438 203.931 78.4434 204.088 78.4941C204.245 78.5448 204.594 77.7155 204.83 77.7918C205.066 77.8679 204.302 78.9005 204.383 78.8506C204.463 78.8007 205.028 78.4127 205.102 78.5262C205.185 78.6545 204.033 79.5394 203.99 79.8826C203.948 80.2257 202.759 83.9277 202.12 84.1621C201.482 84.3964 197.903 83.4985 197.465 82.9424C197.027 82.3862 197.043 81.6211 197.43 81.3813C197.816 81.1416 201.195 82.0944 201.316 82.0191C201.437 81.9437 202.678 79.5954 202.678 79.5954Z" fill="#F7A491"/>
<path d="M204.121 80.4668C204.188 80.5587 204.228 80.664 204.253 80.7726C204.252 80.7911 204.358 81.1377 204.099 81.4566C204.181 81.2181 204.272 80.9533 204.121 80.4668Z" fill="#F48C7F"/>
<path d="M196.977 85.4536C196.977 85.4536 194.234 87.6363 193.931 88.0816C193.704 88.4144 194.458 92.168 194.458 92.168C194.458 92.168 195.542 92.2019 196.039 91.8162C196.039 91.8162 195.742 89.222 195.873 89.1207C196.003 89.0193 199.013 87.6798 199.013 87.6798L198.822 86.1409L196.977 85.4536Z" fill="#B75742"/>
<path d="M189.228 76.107C188.799 75.5036 188.01 73.5199 187.744 72.8455C187.762 72.7852 187.85 72.4315 187.647 71.86C187.504 71.4562 187.575 70.6898 187.328 70.8185C187.081 70.9474 187.292 71.6604 187.096 71.5883C186.9 71.5162 186.359 70.0557 186.135 70.1723C185.911 70.289 186.514 71.6348 186.339 71.5703C186.164 71.5057 185.75 70.2194 185.433 70.3844C185.116 70.5494 186.061 71.8526 185.891 71.9411C185.721 72.0296 185.147 71.1928 184.892 71.3256C184.637 71.4584 185.731 72.4316 185.628 72.3936C185.525 72.3556 184.795 72.0482 184.734 72.188C184.665 72.3462 186.44 73.3262 186.561 73.6937C186.747 74.664 187.063 76.4273 187.701 77.3958C188.482 78.5808 190.345 81.1742 190.345 81.1742L192.208 80.0555C192.208 80.0555 189.737 76.8225 189.228 76.107Z" fill="#F7A491"/>
<path d="M186.961 71.9326C186.876 72.0087 186.815 72.1033 186.768 72.2045C186.765 72.2228 186.589 72.54 186.775 72.9058C186.745 72.6553 186.712 72.3774 186.961 71.9326Z" fill="#F48C7F"/>
<path d="M190.752 77.8896C190.752 77.8896 190.327 78.1175 189.315 80.2983L192.273 83.3869L192.73 83.5936L193.163 80.235L192.971 79.8167L190.752 77.8896Z" fill="#9BC1F9"/>
<path d="M194.774 80.3071C194.774 80.3071 193.534 80.03 193.1 79.8173C192.666 79.6044 188.648 89.0766 189.661 89.411C191.777 90.1096 197.27 91.9558 197.27 91.9558C197.27 91.9558 197.428 91.4068 197.229 90.4077C196.883 88.6778 196.997 84.8165 197.07 84.1416C197.113 83.7449 199.457 84.8927 199.457 84.8927L200.38 81.8995C200.38 81.8995 197.705 80.9874 196.807 80.6991C196.556 80.6187 194.774 80.3071 194.774 80.3071Z" fill="#9BC1F9"/>
<path d="M190.19 86.1714C190.691 84.6088 194.014 80.1154 194.043 80.0728L193.5 79.7021C193.379 79.8797 190.672 83.6895 190.141 85.3423L190.19 86.1714Z" fill="#8446FF"/>
<path d="M197.396 89.0718L197.74 88.635C197.717 88.6168 195.405 86.7634 195.342 84.7097C195.279 82.6345 196.951 80.641 196.968 80.6212L196.544 80.2605C196.47 80.3482 194.717 82.4343 194.787 84.7265C194.857 87.041 197.292 88.99 197.396 89.0718Z" fill="#8446FF"/>
<path d="M195.8 74.0427C195.8 74.0427 194.864 73.2562 193.865 74.3818C193.069 75.2795 193.184 74.9889 192.791 75.4356C192.397 75.8823 191.843 75.8896 191.713 76.6638C191.583 77.438 191.923 77.6194 191.923 77.6194C191.923 77.6194 191.495 78.1664 191.752 78.8466C192.009 79.5269 192.82 80.2122 193.588 80.2531C193.588 80.2531 194.615 81.0648 195.8 80.963C196.984 80.8611 196.588 80.7945 197.053 80.8729C197.517 80.9511 198.879 80.5262 198.829 79.5624C198.829 79.5624 199.747 78.7824 199.13 77.9147C198.513 77.0471 198.186 76.4484 197.924 75.378C197.662 74.3076 196.356 73.8888 195.8 74.0427Z" fill="#1A1A1A"/>
<path d="M194.167 79.3438C194.167 79.3438 193.977 80.7211 193.827 80.828C193.677 80.935 193.461 81.1183 193.595 81.477C193.73 81.8358 194.586 81.7657 195 81.643C195.397 81.5254 195.69 81.2312 195.69 81.2312L195.864 79.0286L194.167 79.3438Z" fill="#F7A491"/>
<path d="M194.617 80.0038C194.896 79.9558 195.387 79.8554 195.84 79.3371L195.864 79.0286L194.167 79.3441C194.167 79.3441 194.12 79.6801 194.056 80.033C194.281 80.0615 194.484 80.0267 194.617 80.0038Z" fill="#F48C7F"/>
<path d="M196.609 77.8594C196.609 77.8594 196.783 77.0604 197.251 77.3001C197.72 77.54 197.138 78.6922 196.735 78.5831C196.332 78.4741 196.609 77.8594 196.609 77.8594Z" fill="#F7A491"/>
<path d="M195.296 74.6327C195.296 74.6327 194.526 74.485 194.029 75.0204C193.532 75.556 192.813 77.204 193.266 78.5013C193.72 79.7986 194.603 79.6468 194.967 79.5844C195.331 79.5218 196.056 79.3699 196.586 78.3181C197.117 77.2664 197.287 74.7295 195.296 74.6327Z" fill="#F7A491"/>
<path d="M193.875 78.0701L194.818 78.3108C194.818 78.3108 194.705 78.6636 194.287 78.5697C193.778 78.4552 193.875 78.0701 193.875 78.0701Z" fill="white"/>
<path d="M196.885 77.3323C196.885 77.3323 194.791 76.2161 194.67 74.6577C194.548 73.0992 196.443 74.6943 196.443 74.6943L197.199 75.5122L196.885 77.3323Z" fill="#1A1A1A"/>
<path d="M178.992 87.5132L177.558 94.3661L180.032 94.1263L181.223 87.8584L178.992 87.5132Z" fill="#F7A491"/>
<path d="M178.568 87.7147L181.223 87.8585C181.223 87.8585 181.421 86.0241 181.466 85.1464C181.521 84.0818 181.502 82.7057 181.372 82.7286C181.007 82.7928 180.511 82.9669 180.201 83.3495C179.129 84.6735 178.568 87.7147 178.568 87.7147Z" fill="#5184CE"/>
<path d="M180.313 84.906C180.25 85.2283 178.567 94.1842 178.567 94.1842C182.549 96.3688 185.588 94.5048 185.588 94.5048C185.588 94.5048 185.437 88.4841 185.64 87.6489C185.775 87.0962 186.265 83.4572 185.909 83.3347C185.452 83.1775 184.761 82.9458 184.185 82.8556C183.693 82.7787 181.772 82.6495 181.422 82.7473C181.422 82.7473 180.581 83.5512 180.313 84.906Z" fill="#EAFCFC"/>
<path d="M181.351 76.4526C181.351 76.4526 179.742 76.5194 179.95 77.8442C179.95 77.8442 178.78 78.3777 179.639 79.411C179.639 79.411 178.854 80.6191 180.398 81.649C180.398 81.649 180.879 83.1848 182.514 82.3446C182.514 82.3446 183.031 82.6866 183.689 82.1523C184.347 81.6181 184.42 81.3197 184.42 81.3197C184.42 81.3197 185.921 80.9457 185.633 79.5614C185.633 79.5614 186.391 78.8361 185.14 78.0503C185.14 78.0503 185.053 76.1338 183.442 76.4842C183.442 76.4842 182.409 75.0764 181.351 76.4526Z" fill="#13375B"/>
<path d="M184.048 79.4458C184.111 79.783 184.346 80.022 184.574 79.9796C184.802 79.937 184.936 79.6292 184.873 79.2919C184.81 78.9546 184.575 78.7157 184.347 78.7581C184.119 78.8007 183.985 79.1085 184.048 79.4458Z" fill="#F7A491"/>
<path d="M180.332 80.698C180.491 81.0021 180.786 81.162 180.991 81.0546C181.197 80.9473 181.235 80.6137 181.076 80.3094C180.917 80.0053 180.622 79.8456 180.417 79.953C180.211 80.0603 180.173 80.3939 180.332 80.698Z" fill="#F7A491"/>
<path d="M182.328 81.6247C182.331 81.6487 182.244 82.5316 182.198 82.9984C182.18 83.1725 182.289 83.334 182.456 83.3854C182.903 83.5225 183.767 83.6825 184.272 83.0875C184.318 83.0333 184.337 82.9613 184.325 82.8912L183.987 80.8557L182.328 81.6247Z" fill="#F7A491"/>
<path d="M182.245 82.5136C182.721 82.6799 184.054 82.4366 184.108 81.5847L183.987 80.8554L182.327 81.6245C182.329 81.6361 182.271 82.2442 182.245 82.5136Z" fill="#F48C7F"/>
<path d="M181.657 77.4775C181.657 77.4775 182.356 77.2841 183.056 77.6656C183.755 78.0473 184.946 79.6363 184.11 81.1236C183.274 82.6112 181.676 81.9969 181.063 80.8911C180.45 79.7852 180.121 78.1061 181.657 77.4775Z" fill="#F7A491"/>
<path d="M182.296 81.0046L183.234 80.897C183.234 80.897 183.254 81.256 182.842 81.3153C182.341 81.3875 182.296 81.0046 182.296 81.0046Z" fill="white"/>
<path d="M180.494 78.351C180.494 78.351 181.159 77.9447 181.673 77.9639C182.186 77.9832 183.919 79.0994 184.15 78.8828C184.38 78.6665 184.007 77.6136 183.806 77.4693C183.604 77.3251 182.806 76.9015 182.739 76.8965C182.673 76.8916 181.974 76.9443 181.856 76.9817C181.738 77.0193 180.896 77.4819 180.896 77.4819L180.494 78.351Z" fill="#13375B"/>
<path d="M190.755 94.9969C190.74 94.9559 190.705 94.9539 190.669 94.9517C190.317 94.9298 189.966 94.9029 189.619 94.8398C189.561 94.8291 189.504 94.8145 189.451 94.7914C189.355 94.7496 189.259 94.7473 189.161 94.7713C189.107 94.7844 189.053 94.7854 188.999 94.7835C188.822 94.7771 188.322 94.5894 188.065 94.536C188.006 94.5238 187.96 94.4775 187.947 94.4188C187.724 93.4014 187.248 91.1194 187.2 90.3727C187.14 89.4175 186.617 85.1033 186.617 85.1033L184.844 85.5385C184.844 85.5385 185.468 88.7306 185.619 90.2738C185.737 91.4653 186.843 94.0206 187.191 94.7564C187.356 95.3011 187.763 95.3287 187.857 95.3434C187.911 95.3515 187.96 95.3799 187.994 95.4224C188.056 95.4993 188.127 95.5669 188.21 95.6226C188.271 95.6638 188.317 95.7166 188.356 95.778C188.428 95.8894 188.491 96.0057 188.554 96.1222C188.595 96.1995 188.64 96.2249 188.706 96.209C188.776 96.1921 188.811 96.1415 188.812 96.0564C188.814 95.9307 188.778 95.8156 188.718 95.7065C188.662 95.6041 188.668 95.546 188.74 95.4556C188.781 95.4038 188.824 95.3536 188.877 95.3129C188.931 95.2716 188.987 95.2408 189.059 95.253C189.184 95.2885 189.311 95.3183 189.44 95.3367L189.545 95.3618C189.549 95.3625 189.603 95.3759 189.603 95.3759C189.612 95.3785 189.799 95.405 189.863 95.4071C189.914 95.4088 189.997 95.4147 190.068 95.4205C190.132 95.4255 190.269 95.3963 190.273 95.3963C190.336 95.3968 190.392 95.3759 190.44 95.3355C190.459 95.319 190.478 95.3004 190.47 95.2709C190.461 95.244 190.441 95.2319 190.414 95.2262C190.372 95.2173 190.154 95.1837 190.157 95.1747C190.222 95.1768 190.425 95.1782 190.49 95.1785C190.577 95.1789 190.654 95.15 190.716 95.0873C190.741 95.0626 190.769 95.038 190.755 94.9969Z" fill="#F7A491"/>
<path d="M187.801 87.6996L185.231 88.9426C185.231 88.9426 184.828 87.0541 184.527 85.8869C184.268 84.8832 185.548 83.0974 185.975 83.3418C186.929 83.8886 187.801 87.6996 187.801 87.6996Z" fill="#5184CE"/>
<path d="M167.751 74.1767L165.051 74.3476C165.051 74.3476 165.494 73.6155 165.681 73.6155C165.868 73.6155 167.103 73.6155 167.103 73.6155L167.751 74.1767Z" fill="#F7CC7F"/>
<path d="M170.435 84.3723L147.584 85.3454C147.584 85.3454 149.577 92.0176 149.626 92.3508C149.675 92.684 157.174 96.7784 159.058 96.7293C160.942 96.6802 165.337 95.1022 166.282 94.8239C167.228 94.5454 169.684 92.6281 169.537 91.4484C169.389 90.2687 170.435 84.3723 170.435 84.3723Z" fill="#F7CC7F"/>
<path d="M164.075 87.7573H169.773C170.044 87.7573 170.264 87.5376 170.264 87.2666V87.1694C170.264 86.8984 170.044 86.6787 169.773 86.6787H164.075C163.804 86.6787 163.584 86.8982 163.584 87.1693V87.2666C163.584 87.5376 163.804 87.7573 164.075 87.7573Z" fill="#EAB054"/>
<path d="M161.205 75.0176L158.109 76.2923L158.286 75.6549L159.441 75.0176C159.441 75.0176 160.386 74.8334 160.478 74.7843C160.571 74.7351 161.205 75.0176 161.205 75.0176Z" fill="#F7CC7F"/>
<g opacity="0.6">
<path d="M146.446 83.1781L170.617 81.1077V82.726C170.617 83.6424 169.915 84.3949 169.026 84.4307L147.615 85.2922C147.124 85.3121 146.642 85.0898 146.361 84.6743C146.118 84.3169 146.012 83.814 146.446 83.1781Z" fill="#BD9BF2"/>
</g>
<g opacity="0.7">
<path d="M170.617 81.1076V80.875L146.533 83.0588L146.446 83.178L170.617 81.1076Z" fill="#BD9BF2"/>
</g>
<g opacity="0.2">
<path d="M165.051 84.5906L162.848 84.6792L161.04 81.9279L163.18 81.7446L165.051 84.5906Z" fill="white"/>
</g>
<g opacity="0.2">
<path d="M161.143 84.7478L159.383 82.0699L160.197 82.0002L161.98 84.7141L161.143 84.7478Z" fill="white"/>
</g>
<path d="M203.361 84.4595L175.752 84.7328L175.505 93.4887C175.505 93.4887 178.73 98.1831 179.119 98.1339C179.509 98.0848 187.754 96.7576 188.495 96.8067C189.235 96.856 195.699 93.6817 196.004 93.7449C196.309 93.8083 198.323 92.7266 198.323 92.7266L201.606 90.4062L204.86 87.0542L203.361 84.4595Z" fill="#F7CC7F"/>
<path d="M197.988 87.218H203.686C203.957 87.218 204.177 86.9983 204.177 86.7273V86.6299C204.177 86.3589 203.957 86.1394 203.687 86.1394H197.988C197.717 86.1394 197.497 86.3589 197.497 86.6299V86.7273C197.497 86.9983 197.717 87.218 197.988 87.218Z" fill="#EAB054"/>
<path d="M169.833 84.177C169.833 84.177 169.432 84.4538 168.924 84.4348C168.924 84.4348 169.599 84.6411 169.619 84.6249C169.639 84.6087 169.979 84.3347 169.974 84.3293C169.968 84.3239 169.833 84.177 169.833 84.177Z" fill="#F7CC7F"/>
</g>
</g>
</g>
</svg>
