<svg width="63" height="63" viewBox="0 0 63 63" fill="none" xmlns="http://www.w3.org/2000/svg">
<g clip-path="url(#clip0_15_323)">
<path d="M19.343 20.5537C18.7169 19.0181 17.3545 17.9569 15.75 17.9569C14.1494 17.9569 12.787 19.0141 12.161 20.5498C12.0684 20.7368 11.8283 20.6955 11.8105 20.4887V20.1777C11.8105 17.6459 13.7064 15.5905 15.9902 15.7578C17.9412 15.8819 19.5241 17.6459 19.6717 19.8233C19.6914 20.0517 19.6914 20.2604 19.6717 20.4887C19.6521 20.6955 19.4158 20.7368 19.341 20.5498L19.343 20.5537ZM20.6719 28.7654C16.571 28.7654 13.0056 26.8163 11.1687 23.9537C10.8262 23.4064 9.84375 23.6072 9.84375 24.2274C9.84375 24.5365 9.86344 24.8476 9.90872 25.1744C10.4206 29.6415 14.7341 33.1773 19.9887 33.451C26.269 33.7798 31.5 29.5312 31.5 24.2274V24.2077C31.5 23.5895 30.5176 23.4064 30.175 23.936C28.3402 26.8163 24.7728 28.7654 20.6719 28.7654ZM25.5859 17.9589C27.1845 17.9589 28.5429 19.0161 29.169 20.5517C29.2418 20.7388 29.4998 20.6974 29.5175 20.4907C29.5372 20.282 29.5372 20.0536 29.5175 19.8253C29.3698 17.6478 27.7909 15.8838 25.8438 15.7598C23.5482 15.5925 21.6562 17.6478 21.6562 20.1796V20.4907C21.6759 20.6974 21.9122 20.7388 22.0047 20.5517C22.6308 19.0161 23.9892 17.9589 25.5878 17.9589H25.5859ZM42.3281 46.5215C46.055 46.5215 49.2975 48.6675 50.969 51.8155C51.2781 52.416 52.1719 52.1955 52.1719 51.5143C52.1719 51.1737 52.1522 50.8331 52.1128 50.4708C51.6482 45.5588 47.7264 41.6705 42.9502 41.3673C37.2409 41.0071 32.4844 45.6789 32.4844 51.5143V51.534C32.4844 52.2152 33.3782 52.416 33.6873 51.8352C35.3587 48.6655 38.5993 46.5196 42.3281 46.5196V46.5215ZM40.9795 40.2412C40.3535 38.7056 38.9911 37.6464 37.3905 37.6464C35.7879 37.6464 34.4256 38.7056 33.8192 40.2392C33.7267 40.4263 33.4865 40.3849 33.4688 40.1782V39.8671C33.4688 37.3353 35.3647 35.28 37.6484 35.4473C39.5994 35.5713 41.1823 37.3353 41.33 39.5147C41.3497 39.7411 41.3497 39.9695 41.33 40.1782C41.3103 40.3849 41.0543 40.4263 40.9795 40.2392V40.2412ZM47.2756 37.6464C48.8762 37.6464 50.2386 38.7056 50.8646 40.2392C50.9394 40.4263 51.1954 40.3849 51.2151 40.1782C51.2337 39.9568 51.2337 39.7342 51.2151 39.5128C51.0674 37.3353 49.4826 35.5713 47.5335 35.4473C45.2497 35.28 43.3538 37.3353 43.3538 39.8671V40.1782C43.3735 40.3849 43.6098 40.4263 43.7023 40.2392C44.3107 38.7036 45.673 37.6464 47.2756 37.6464Z" fill="#9A4FCB"/>
<path d="M30.3601 0.63391L26.901 2.10063C24.9361 2.93365 22.8237 3.36293 20.6896 3.36293C18.5554 3.36293 16.443 2.93365 14.4782 2.10063L14.4703 2.09669L10.9994 0.63391L10.9954 0.629973C5.21125 -1.81521 -0.946999 3.12438 0.118094 9.27279L3.57719 28.978V28.9839C3.98217 31.2737 4.84321 33.4588 6.10914 35.4094C7.37508 37.3599 9.02011 39.0362 10.9465 40.3386C12.8729 41.6409 15.0414 42.5429 17.3232 42.9909C19.605 43.4388 21.9536 43.4237 24.2294 42.9463L25.2334 48.6655L25.2354 48.6714C25.9466 52.6876 28.0495 56.3249 31.1752 58.9451C34.3008 61.5653 38.2495 63.0009 42.3281 63C46.4067 63.0009 50.3554 61.5653 53.481 58.9451C56.6067 56.3249 58.7096 52.6876 59.4208 48.6714L62.8799 28.9682V28.9603C63.9489 22.8119 57.7848 17.8723 52.0006 20.3214L48.5415 21.7901C45.4879 23.0844 42.1063 23.3927 38.869 22.6721L41.2157 9.29641L41.2177 9.28657C42.3202 3.11257 36.1324 -1.81128 30.3601 0.63391ZM3.9985 8.59947C3.46103 5.50853 6.56181 3.02988 9.46375 4.25838L12.9406 5.7251C15.3917 6.76475 18.027 7.30053 20.6896 7.30053C23.3521 7.30053 25.9874 6.76475 28.4386 5.7251L31.8957 4.25838C34.7976 3.02988 37.8964 5.50657 37.3412 8.59947L33.8822 28.2948V28.2968C33.3333 31.4018 31.708 34.2142 29.2919 36.2401C26.8757 38.266 23.823 39.3759 20.6699 39.375C17.5166 39.3756 14.4639 38.2656 12.0475 36.2398C9.63102 34.214 8.00531 31.4018 7.45563 28.2968L3.9985 8.59947ZM27.653 39.6703C29.7758 38.5895 31.6186 37.0306 33.0364 35.1164C34.4542 33.2022 35.4082 30.985 35.8233 28.6394V28.6374L36.2762 26.0465C37.5306 26.4477 38.8219 26.7228 40.131 26.8675C43.4857 27.2416 46.9173 26.7573 50.0791 25.4146L53.5362 23.9478C56.4381 22.7193 59.5389 25.196 59.0014 28.287L55.5443 47.9843C54.9946 51.0896 53.3686 53.9021 50.9517 55.9279C48.5349 57.9538 45.4817 59.0636 42.3281 59.0625C39.1745 59.0636 36.1213 57.9538 33.7045 55.9279C31.2876 53.9021 29.6616 51.0896 29.1119 47.9843L27.653 39.6703Z" fill="#9A4FCB"/>
</g>
<defs>
<clipPath id="clip0_15_323">
<rect width="63" height="63" fill="white"/>
</clipPath>
</defs>
</svg>
