<svg width="155" height="142" viewBox="0 0 155 142" fill="none" xmlns="http://www.w3.org/2000/svg">
<g opacity="0.1" clip-path="url(#clip0_1135_1750)">
<mask id="mask0_1135_1750" style="mask-type:luminance" maskUnits="userSpaceOnUse" x="-32" y="0" width="217" height="217">
<path d="M185 0.850311H-32V216.551H185V0.850311Z" fill="white"/>
</mask>
<g mask="url(#mask0_1135_1750)">
<path d="M70.5588 154.023H-18.5575C-20.0099 154.023 -21.1916 152.848 -21.1916 151.405V26.8869C-21.1916 25.4431 -20.0099 24.2686 -18.5575 24.2686H70.5588C72.0108 24.2686 73.1924 25.4431 73.1924 26.8869V151.405C73.1924 152.848 72.0108 154.023 70.5588 154.023ZM-18.5575 24.3827C-19.9464 24.3827 -21.0763 25.5063 -21.0763 26.8869V151.405C-21.0763 152.786 -19.9464 153.908 -18.5575 153.908H70.5588C71.9472 153.908 73.0776 152.786 73.0776 151.405V26.8869C73.0776 25.5063 71.9472 24.3827 70.5588 24.3827H-18.5575Z" fill="#ECECEC"/>
<path d="M170.383 154.023H81.2655C79.8135 154.023 78.6314 152.848 78.6314 151.405V26.8869C78.6314 25.4431 79.8135 24.2686 81.2655 24.2686H170.383C171.835 24.2686 173.016 25.4431 173.016 26.8869V151.405C173.016 152.848 171.835 154.023 170.383 154.023ZM81.2655 24.3827C79.877 24.3827 78.7475 25.5063 78.7475 26.8869V151.405C78.7475 152.786 79.877 153.908 81.2655 153.908H170.383C171.771 153.908 172.901 152.786 172.901 151.405V26.8869C172.901 25.5063 171.771 24.3827 170.383 24.3827H81.2655Z" fill="#ECECEC"/>
<path d="M112.233 169.74H77.2476V132.309H112.233V169.74Z" fill="#E8E8E8"/>
<path d="M117.574 174.597H113.177V129.524H117.574V174.597Z" fill="#E8E8E8"/>
<path d="M85.6831 149.243H82.8163V135.255H85.6831V149.243Z" fill="#FAFAFA"/>
<path d="M97.5689 149.243H94.7021V135.255H97.5689V149.243Z" fill="#F5F5F5"/>
<path d="M88.5498 149.243H85.6831V136.238H88.5498V149.243Z" fill="#F5F5F5"/>
<path d="M94.7021 149.243H91.8354V136.238H94.7021V149.243Z" fill="#FAFAFA"/>
<path d="M91.8358 149.243H89.9828V135.255H91.8358V149.243Z" fill="#ECECEC"/>
<path d="M89.9828 149.243H88.5494V136.238H89.9828V149.243Z" fill="#FAFAFA"/>
<path d="M100.436 149.243H97.5689V135.255H100.436V149.243Z" fill="#ECECEC"/>
<path d="M103.302 149.243H100.435V136.238H103.302V149.243Z" fill="#E8E8E8"/>
<path d="M109.454 149.243H106.588V136.238H109.454V149.243Z" fill="#E8E8E8"/>
<path d="M106.588 149.243H104.735V135.255H106.588V149.243Z" fill="#FAFAFA"/>
<path d="M104.735 149.243H103.302V136.238H104.735V149.243Z" fill="#ECECEC"/>
<path d="M110.888 149.243H109.454V135.586H110.888V149.243Z" fill="#FAFAFA"/>
<path d="M112.057 129.524H110.884H76.1393V172.071H110.884V174.597H113.229V129.524H112.057ZM110.884 167.991H78.3517V151.59H110.884V167.991ZM110.884 149.259H78.3517V133.604H110.884V149.259Z" fill="#F1F1F1"/>
<path d="M42.2051 169.74H77.1904V132.309H42.2051V169.74Z" fill="#E8E8E8"/>
<path d="M73.145 149.243H76.0117V135.255H73.145V149.243Z" fill="#FAFAFA"/>
<path d="M61.2596 149.243H64.1263V135.255H61.2596V149.243Z" fill="#F5F5F5"/>
<path d="M70.2786 149.243H73.1454V136.238H70.2786V149.243Z" fill="#F5F5F5"/>
<path d="M64.1263 149.243H66.9931V136.238H64.1263V149.243Z" fill="#FAFAFA"/>
<path d="M66.9922 149.243H68.8452V135.255H66.9922V149.243Z" fill="#ECECEC"/>
<path d="M68.8452 149.243H70.2786V136.238H68.8452V149.243Z" fill="#FAFAFA"/>
<path d="M60.2826 149.243H63.1494V135.255H60.2826V149.243Z" fill="#ECECEC"/>
<path d="M57.4163 149.243H60.2831V136.238H57.4163V149.243Z" fill="#E8E8E8"/>
<path d="M51.264 149.243H54.1308V136.238H51.264V149.243Z" fill="#E8E8E8"/>
<path d="M54.1299 149.243H55.9829V135.255H54.1299V149.243Z" fill="#FAFAFA"/>
<path d="M55.9829 149.243H57.4163V136.238H55.9829V149.243Z" fill="#ECECEC"/>
<path d="M49.8306 149.243H51.264V135.586H49.8306V149.243Z" fill="#F5F5F5"/>
<path d="M41.2083 129.524V174.597H43.5537V172.071H78.2983V129.524H43.5537H42.3814H41.2083ZM43.5537 151.59H76.0868V167.991H43.5537V151.59ZM43.5537 133.603H76.0868V149.258H43.5537V133.603Z" fill="#F1F1F1"/>
<path d="M150.378 174.596H147.525V84.6264H150.378V174.596Z" fill="#ECECEC"/>
<path d="M140.689 174.596H138.641L142.215 86.9207H144.263L140.689 174.596Z" fill="#ECECEC"/>
<path d="M158.021 174.597H160.069L156.495 86.9203H154.447L158.021 174.597Z" fill="#ECECEC"/>
<path d="M162.441 126.094H135.709L138.283 89.5079H165.014L162.441 126.094Z" fill="#F1F1F1"/>
<path d="M138.028 93.1348L141.931 89.5083H138.283L138.028 93.1348Z" fill="#E8E8E8"/>
<path d="M135.709 126.094H139.358L135.964 122.467L135.709 126.094Z" fill="#E8E8E8"/>
<path d="M145.773 117.406C145.773 117.406 137.958 109.42 140.727 106.635C143.495 103.849 145.773 117.406 145.773 117.406Z" fill="#F5F5F5"/>
<path d="M147.718 113.805C147.718 113.805 146.198 96.0505 150.319 96.5093C154.44 96.9681 147.718 113.805 147.718 113.805Z" fill="#FAFAFA"/>
<path d="M150.512 115.734C150.512 115.734 155.452 105.942 159.525 107.801C163.597 109.66 150.512 115.734 150.512 115.734Z" fill="#FAFAFA"/>
<path d="M166.325 130.488H132.158V125.666H166.325V130.488Z" fill="#E8E8E8"/>
<path d="M159.946 144.253H138.687V141.953H159.946V144.253Z" fill="#F1F1F1"/>
<path d="M4.7319 159.687C4.7319 159.687 1.37264 143.908 7.49017 135.361C13.6077 126.814 1.96091 135.262 0.621191 143.263C0.621191 143.263 -1.38606 128.958 4.54796 118.892C10.482 108.827 -0.620203 117.092 -1.56364 127.462C-1.56364 127.462 -3.38144 114.7 -0.654532 107.527C2.07195 100.355 -2.67195 104.967 -4.49569 109.463C-6.31942 113.959 -3.92649 125.092 -3.92649 125.092C-3.92649 125.092 -8.68438 104.506 -13.1888 106.145C-17.6937 107.783 -6.45504 121.27 -4.89578 128.286C-4.89578 128.286 -10.208 118.844 -14.2374 120.81C-18.2667 122.775 -7.99651 123.753 -3.29371 137.832L-1.6412 144.433C-1.6412 144.433 -6.52921 135.115 -9.72488 138.054C-12.921 140.994 -0.249353 146.068 2.69498 160.19L4.7319 159.687Z" fill="#ECECEC"/>
<path d="M4.07411 160.595C4.07411 160.595 3.36759 140.702 -6.52159 132.276C-16.4104 123.851 0.0714798 130.52 4.07411 139.707C4.07411 139.707 2.1902 121.978 -7.93463 111.68C-18.059 101.382 -2.28331 107.992 1.95497 120.134C1.95497 120.134 0.306704 104.309 -5.10855 96.527C-10.5242 88.7441 -3.46028 92.863 0.0714788 97.7074C3.60324 102.552 4.07411 116.595 4.07411 116.595C4.07411 116.595 3.60282 90.5295 9.48894 91.1581C15.3755 91.7862 5.95761 111.269 6.19325 120.134C6.19325 120.134 9.72501 107.252 15.1403 108.413C20.5559 109.574 8.54762 113.787 7.135 132.043V140.437C7.135 140.437 10.1955 127.83 14.9046 130.404C19.6138 132.978 5.95761 142.808 6.66413 160.595H4.07411Z" fill="#F5F5F5"/>
<path d="M19.8694 134.425L13.5429 119.834L33.1203 111.448L19.8694 134.425Z" fill="#935DFF"/>
<path d="M49.0177 133.585C47.2504 137.626 42.5221 139.478 38.4568 137.721C34.3914 135.964 32.5283 131.264 34.2956 127.223L49.0177 133.585Z" fill="#8446FF"/>
<path d="M44.306 129.088H43.1985V124.552C43.1985 124.159 42.8769 123.84 42.4818 123.84H39.2069C38.2012 123.84 37.3836 123.026 37.3836 122.027V118.772C37.3836 118.379 37.0624 118.059 36.6669 118.059H33.3912C32.3858 118.059 31.5674 117.247 31.5674 116.247V112.991C31.5674 112.598 31.2462 112.279 30.8512 112.279H27.5758C26.5705 112.279 25.7525 111.466 25.7525 110.466V107.21C25.7525 106.818 25.4308 106.498 25.0358 106.498H20.4733V105.398H25.0358C26.0411 105.398 26.8595 106.211 26.8595 107.21V110.466C26.8595 110.859 27.1808 111.179 27.5758 111.179H30.8512C31.8565 111.179 32.6753 111.992 32.6753 112.991V116.247C32.6753 116.64 32.9961 116.959 33.3912 116.959H36.6669C37.6727 116.959 38.4907 117.773 38.4907 118.772V122.027C38.4907 122.42 38.8115 122.74 39.2069 122.74H42.4818C43.4872 122.74 44.306 123.553 44.306 124.552V129.088Z" fill="#CEB5FF"/>
<path d="M52.4533 125.131L44.7053 117.429L52.4533 109.727L60.2021 117.429L52.4533 125.131Z" fill="#CEB5FF"/>
<path d="M59.6838 63.7172C58.4975 53.7326 49.3932 46.5947 39.3485 47.7739C29.3038 48.9531 22.1224 58.0028 23.3087 67.9874C24.1695 75.2302 30.5498 79.4524 34.8966 84.7556C36.2427 86.3982 36.9068 93.0542 36.9068 93.0542L52.3346 91.243C52.3346 91.243 51.4204 84.6166 52.3447 82.7073C55.3289 76.5434 60.5441 70.96 59.6838 63.7172Z" fill="#8446FF"/>
<path d="M49.9743 97.0185L40.5551 98.1244C38.8958 98.319 37.3921 97.1398 37.1963 95.4905L37.0293 94.0829L52.4562 92.2718L52.6241 93.6794C52.8199 95.3287 51.6336 96.8239 49.9743 97.0185Z" fill="#F1DBC1"/>
<path d="M46.4141 102.114L45.2117 102.255C43.5525 102.45 42.0487 101.271 41.8525 99.6212L41.7813 99.0239L48.9927 98.1771L49.0639 98.7749C49.2597 100.424 48.0739 101.919 46.4141 102.114Z" fill="#F1DBC1"/>
<path d="M59.6838 63.7172C58.7946 56.2334 53.4565 50.3492 46.6087 48.3671C42.3128 47.9571 35.779 47.7688 36.1007 50.476C36.5779 54.4926 45.5851 51.7268 47.8755 53.7124C50.1654 55.6975 41.8181 60.8777 44.7383 62.8257C47.6585 64.7738 52.6478 59.3518 52.6478 59.3518C52.6478 59.3518 51.3738 66.9468 53.5836 67.2282C55.7939 67.5096 54.8254 61.5143 56.2143 61.3512C57.6036 61.1882 59.4846 64.1364 58.589 71.1209C59.4964 68.8022 59.9991 66.3713 59.6838 63.7172Z" fill="#8446FF"/>
<path d="M59.6838 63.7172C58.7946 56.2334 53.4565 50.3492 46.6087 48.3671C42.3128 47.9571 35.779 47.7688 36.1007 50.476C36.5779 54.4926 45.5851 51.7268 47.8755 53.7124C50.1654 55.6975 41.8181 60.8777 44.7383 62.8257C47.6585 64.7738 52.6478 59.3518 52.6478 59.3518C52.6478 59.3518 51.3738 66.9468 53.5836 67.2282C55.7939 67.5096 54.8254 61.5143 56.2143 61.3512C57.6036 61.1882 59.4846 64.1364 58.589 71.1209C59.4964 68.8022 59.9991 66.3713 59.6838 63.7172Z" fill="#CEB5FF"/>
<path d="M49.2135 64.9735C49.2135 64.9735 42.4153 68.0624 44.3704 70.5059C46.3251 72.9489 49.2135 64.9735 49.2135 64.9735Z" fill="#8446FF"/>
<path d="M49.2135 64.9735C49.2135 64.9735 42.4153 68.0624 44.3704 70.5059C46.3251 72.9489 49.2135 64.9735 49.2135 64.9735Z" fill="#A1D7FF"/>
<path d="M29.375 45.6475C28.3739 46.3822 27.4376 47.1903 26.5684 48.0758C26.4128 48.2342 26.6569 48.4777 26.8133 48.3189C27.6618 47.4553 28.5722 46.6616 29.5496 45.9445C29.7272 45.8143 29.5547 45.5161 29.375 45.6475Z" fill="#8446FF"/>
<path d="M23.9788 53.0021C21.2193 57.3464 20.0719 62.222 20.5848 67.3348C20.6064 67.553 20.9527 67.5551 20.9306 67.3348C20.4246 62.2873 21.552 57.4677 24.2776 53.1761C24.3967 52.9882 24.0975 52.815 23.9788 53.0021Z" fill="#8446FF"/>
<path d="M64.7981 54.7061C64.7981 54.7061 65.4478 35.8141 72.6415 37.0376C79.8355 38.2606 64.7981 54.7061 64.7981 54.7061Z" fill="#8446FF"/>
<path d="M59.5634 49.0651C59.5634 49.0651 48.4108 40.4224 51.7768 37.3596C55.1433 34.2972 59.5634 49.0651 59.5634 49.0651Z" fill="#CEB5FF"/>
<path d="M54.733 88.0699C54.733 88.0699 59.5808 77.2175 63.616 79.7945C67.6513 82.3715 54.733 88.0699 54.733 88.0699Z" fill="#935DFF"/>
<path d="M33.5425 87.2148C33.5425 87.2148 28.4998 81.0066 26.3306 83.376C24.1615 85.7453 33.5425 87.2148 33.5425 87.2148Z" fill="#8446FF"/>
<path d="M88.0154 68.9836C86.273 62.9136 84.7604 55.3894 78.4026 56.8445C74.9204 57.6412 75.8596 52.7849 76.0774 51.1061C76.2957 49.4277 78.1911 47.9233 79.6995 48.709C80.3602 49.0523 80.7781 49.7268 81.3795 50.1654C82.8689 51.2514 85.1067 50.5593 86.3269 49.1795C87.5467 47.7998 88.0196 45.9411 88.5147 44.1712C89.0093 42.4018 89.6238 40.5532 91.0165 39.3462C92.758 37.8371 95.5837 37.7537 97.4125 39.1575C99.2413 40.5612 99.8745 43.2996 98.8468 45.3563C101.383 45.112 103.393 43.1391 104.888 41.0874C106.382 39.0357 107.649 36.7325 109.703 35.2336C111.757 33.7346 114.964 33.3622 116.673 35.2416C118.494 37.2444 117.585 40.5549 115.786 42.5779C113.989 44.601 111.497 45.9141 109.679 47.919C107.861 49.924 106.885 53.1982 108.644 55.2545C109.987 56.8243 112.294 57.0193 114.3 57.5426C116.364 58.0814 118.44 59.2235 119.293 61.1678C120.147 63.112 119.152 65.8685 117.046 66.2165C114.643 66.613 112.938 64.0465 111.787 61.9126C110.636 59.7788 108.496 57.3795 106.238 58.2857C103.886 59.2294 104.169 62.6301 105.104 64.9733C106.168 67.6384 107.535 70.1834 109.171 72.5447C110.263 74.1216 111.498 76.2285 110.357 77.7708C109.089 79.4838 106.156 78.4306 105.08 76.5925C103.482 73.8617 103.69 67.3047 98.9735 67.7947C97.7414 67.9227 96.7098 69.2229 95.5057 69.5519C93.3645 70.1366 88.6058 71.0395 88.0154 68.9836Z" fill="#8446FF"/>
<path d="M126.686 55.5146C126.597 55.9081 126.726 56.3306 126.97 56.6525C127.203 56.96 127.56 57.193 127.947 57.2035C128.372 57.2149 128.764 56.9613 129.056 56.6537C129.323 56.374 129.54 56.018 129.538 55.6329C129.536 55.2361 129.291 54.8633 128.954 54.6522C128.143 54.1445 126.908 54.5342 126.686 55.5146Z" fill="#8446FF"/>
<path d="M118.523 80.2306C118.458 80.5217 118.553 80.8343 118.734 81.0724C118.906 81.2999 119.17 81.473 119.457 81.4806C119.772 81.489 120.061 81.3011 120.278 81.0736C120.475 80.8668 120.636 80.6035 120.634 80.3182C120.634 80.0246 120.452 79.7482 120.202 79.5919C119.602 79.2161 118.688 79.5047 118.523 80.2306Z" fill="#8446FF"/>
<path d="M96.4899 38.3807C96.3606 39.0687 96.5475 39.8072 96.9022 40.3701C97.2413 40.908 97.7592 41.3167 98.3221 41.3348C98.94 41.3546 99.5084 40.911 99.9335 40.3734C100.321 39.8839 100.637 39.2616 100.634 38.5876C100.631 37.8937 100.275 37.2411 99.7834 36.8712C98.606 35.984 96.812 36.6661 96.4899 38.3807Z" fill="#8446FF"/>
<path d="M119.238 44.1217C119.06 44.9083 119.317 45.7534 119.806 46.3967C120.272 47.0118 120.985 47.479 121.76 47.4996C122.611 47.5224 123.393 47.0151 123.978 46.4005C124.511 45.841 124.947 45.129 124.943 44.3581C124.939 43.5648 124.448 42.8182 123.773 42.3957C122.151 41.3808 119.681 42.161 119.238 44.1217Z" fill="#935DFF"/>
<path d="M118.656 146.539L116.45 142.145C116.367 141.979 116.41 141.778 116.554 141.662L119.753 139.083C120.034 138.852 120.451 138.893 120.683 139.173C120.713 139.209 120.738 139.247 120.76 139.289C121.528 140.887 122.148 142.338 123.141 144.309C124.31 146.636 124.293 145.907 125.706 148.623C126.556 150.261 124.823 151.498 124.379 150.845C122.367 147.847 121.228 147.997 119.457 147.334C119.101 147.176 118.817 146.893 118.656 146.539Z" fill="#F1DBC1"/>
<path d="M68.5613 110.488C68.5613 110.488 64.4599 117.674 59.3833 134.648C54.3067 151.622 57.6909 157.432 73.69 161.255L89.0737 163.549L90.3041 158.044C90.3041 158.044 77.329 151.859 69.8031 149.255C68.9381 148.956 68.527 147.98 68.93 147.162C71.4399 142.071 79.3214 125.464 82.1509 112.17L68.5613 110.488Z" fill="#935DFF"/>
<path d="M72.6131 115.839C73.2035 124.046 75.9974 139.235 78.3051 148.257C80.6124 157.279 86.766 159.115 93.2272 157.891C99.6885 156.668 110.149 150.551 114.61 149.175L112.764 143.211C112.764 143.211 98.2788 146.018 92.1172 148.796C91.2768 149.176 90.3274 148.554 90.3287 147.637C90.338 141.026 89.8654 120.92 83.9967 112.169L72.6131 110.989C72.6131 110.989 72.5258 114.63 72.6131 115.839Z" fill="#8446FF"/>
<path d="M111.573 142.829L113.918 149.94C113.918 149.94 115.034 150.169 115.764 149.366L113.418 142.332C113.418 142.332 112.419 141.758 111.573 142.829Z" fill="#8446FF"/>
<path d="M111.573 142.829L113.918 149.94C113.918 149.94 115.034 150.169 115.764 149.366L113.418 142.332C113.418 142.332 112.419 141.759 111.573 142.829Z" fill="white"/>
<path d="M74.8437 82.733L73.4667 75.601C73.4111 75.3128 73.4171 75.0162 73.4849 74.7306L77.1518 60.7134L78.9599 58.794C79.2074 58.5033 79.3435 58.1343 79.3435 57.7534V56.5439C79.3435 56.3687 79.3723 56.1942 79.4287 56.0283L79.7736 55.0121C80.0652 54.1552 79.5901 53.2279 78.7213 52.9579L78.4988 52.8888C78.0796 52.7586 77.6257 52.8029 77.2404 53.011L75.109 54.1624C74.6102 54.432 74.2893 54.9413 74.2635 55.5054L74.0744 59.6433C74.0744 59.6433 67.6132 71.5701 67.998 75.6225C68.3824 79.6748 70.3053 85.7507 70.3053 85.7507C70.3053 85.7507 73.228 85.7149 74.8437 82.733Z" fill="#FFB877"/>
<path d="M94.2271 86.7858L101.073 82.3513L106.305 69.0478L105.789 66.6818C105.723 66.3827 105.767 66.0705 105.912 65.8001L106.628 64.4595C106.854 64.0365 107.297 63.7724 107.779 63.7724H107.925C108.172 63.7724 108.414 63.7025 108.622 63.571L109.421 63.0684C110.063 62.6644 110.914 62.8894 111.269 63.5563L112.425 66.5942C112.713 67.1334 112.583 67.7991 112.112 68.1913L109.534 70.73C109.534 70.73 106.918 84.2572 105.534 85.7507C104.149 87.2446 96.6115 90.9911 96.6115 90.9911L94.2271 86.7858Z" fill="#FFB877"/>
<path d="M77.1514 86.1741L76.0745 82.5805C76.0745 82.5805 76.8437 80.9749 75.4595 80.9749C75.4595 80.9749 71.4598 81.9692 68.7677 85.7507C68.7677 85.7507 68.0751 87.2446 69.2292 87.3208L70.3829 92.5967C70.3829 92.5967 77.2286 89.7677 77.1514 86.1741Z" fill="#F1DBC1"/>
<path d="M97.7643 91.2957C97.7643 91.2957 97.7643 92.98 96.3797 92.1358C96.3797 92.1358 95.3548 92.8642 93.4124 93.7636C91.3293 94.728 89.665 96.4051 88.7809 98.5133C86.9554 102.865 85.1393 108.79 85.414 114.71C85.414 114.71 76.1749 114.376 67.9828 111.853C67.9828 111.853 69.8154 108.925 69.5615 105.714C69.1691 100.732 68.9063 97.0628 69.3072 93.957C69.9213 89.2638 73.9596 85.7364 78.7179 85.7545H78.8607C78.801 86.686 79.1146 88.2502 81.708 88.7456C84.2696 89.2318 86.3235 88.0438 87.3894 87.2227C87.7446 87.3739 88.0773 87.5298 88.3863 87.6949C89.8218 87.2728 92.6275 86.397 93.3056 85.7499C93.3056 85.7499 93.8041 84.438 94.7276 84.5892C95.6507 84.7455 97.7643 88.0063 97.7643 91.2957Z" fill="#F1DBC1"/>
<path d="M80.9871 88.682C83.0104 88.958 85.0266 88.3197 86.3362 87.7544C86.5113 87.4818 86.5443 87.3158 86.5443 87.3158C85.0885 85.4335 86.1167 81.9515 86.9703 79.6024L81.6771 82.8451C81.8555 84.8057 81.7589 85.9188 78.9252 86.145C78.9252 86.145 78.6378 86.3249 78.3708 86.7458C78.6416 87.5829 79.3278 88.4558 80.9871 88.682Z" fill="#FFB877"/>
<path d="M84.8248 80.9063L81.708 82.8497C81.758 83.3059 81.7661 83.7656 81.7334 84.2231C82.8036 84.237 84.5777 83.608 84.9761 82.516C85.0609 81.9755 85.0092 81.4219 84.8248 80.9063Z" fill="black"/>
<path d="M84.4815 68.3063C84.4815 68.3063 79.0947 67.559 79.7465 70.0568C80.3984 72.5546 84.4815 68.3063 84.4815 68.3063Z" fill="#F1DBC1"/>
<path d="M84.4815 68.3063C84.4815 68.3063 79.0947 67.559 79.7465 70.0568C80.3984 72.5546 84.4815 68.3063 84.4815 68.3063Z" fill="black"/>
<path d="M91.2479 69.0044C90.9775 68.0578 90.3113 65.3977 91.7205 65.1336C94.149 64.6782 94.639 67.3841 94.639 67.3841C94.639 67.3841 98.0699 67.3272 95.919 70.4823C95.919 70.4823 97.276 73.0597 94.383 72.7602C92.6648 72.5824 91.5645 70.1145 91.2479 69.0044Z" fill="#F1DBC1"/>
<path d="M91.2479 69.0048C90.9775 68.0582 90.3113 65.3981 91.7205 65.134C94.149 64.6786 94.639 67.3841 94.639 67.3841C94.639 67.3841 98.0699 67.3272 95.919 70.4823C95.919 70.4823 97.276 73.0601 94.383 72.7606C92.6648 72.5828 91.5645 70.1149 91.2479 69.0048Z" fill="black"/>
<path d="M90.391 68.9336C90.391 68.9336 91.8587 67.7039 92.9594 69.3014C94.0596 70.899 92.0401 72.0626 92.0401 72.0626C92.0401 72.0626 91.4946 69.7063 90.391 68.9336Z" fill="#8446FF"/>
<path d="M87.3564 81.0116C87.3564 81.0116 88.1888 83.1614 87.1394 83.2251C86.0904 83.2891 87.5132 82.4305 87.3564 81.0116Z" fill="#F1DBC1"/>
<path d="M90.8093 75.9283C89.0945 79.7393 88.4486 81.3827 85.7111 82.6399C81.591 84.5361 77.2604 81.6035 77.7944 77.3649C78.2818 73.5472 81.0146 67.939 85.4364 67.8488C88.5969 67.7519 91.2386 70.2202 91.3357 73.3618C91.3637 74.2465 91.1835 75.1249 90.8093 75.9283Z" fill="#FFB877"/>
<path d="M80.5628 73.2678C80.4386 73.5897 80.1725 73.7784 79.9661 73.7039C79.7592 73.6289 79.6851 73.3015 79.802 72.9847C79.9194 72.6679 80.1924 72.4741 80.3984 72.5554C80.6044 72.6363 80.6802 72.951 80.5628 73.2678Z" fill="#F1DBC1"/>
<path d="M80.4844 72.6052L79.8012 72.0984C79.8012 72.0984 79.9678 72.8424 80.4844 72.6052Z" fill="#F1DBC1"/>
<path d="M80.9057 74.7529C80.3454 75.3705 79.7025 75.9089 78.9951 76.353C79.2392 76.7085 79.6262 76.9415 80.0564 76.9916L80.9057 74.7529Z" fill="#FF8F3F"/>
<path d="M86.0925 74.0106C86.0048 74.0123 85.9255 73.9567 85.8997 73.8732C85.617 73.2809 85.0991 72.8327 84.4701 72.6359C84.3629 72.6043 84.3014 72.4923 84.3332 72.3857C84.3641 72.2816 84.4735 72.2226 84.5778 72.2534C84.5803 72.2542 84.5828 72.2551 84.585 72.2555C85.3432 72.4864 85.9633 73.0336 86.2824 73.7553C86.315 73.8585 86.2574 73.9685 86.1536 74.0013C86.1341 74.0102 86.1133 74.0131 86.0925 74.0106Z" fill="#F1DBC1"/>
<path d="M80.0902 71.099C80.0212 71.075 79.9699 71.0169 79.9546 70.9461C79.9334 70.8378 80.0034 70.7334 80.1114 70.7106C80.7485 70.5581 81.4198 70.7304 81.9017 71.1711C81.9788 71.2427 81.9822 71.3632 81.9097 71.4394C81.9059 71.4432 81.9021 71.447 81.8987 71.4504C81.8212 71.5271 81.6966 71.5267 81.6194 71.4496C81.6186 71.4491 81.6181 71.4487 81.6173 71.4479C81.2291 71.1176 80.7061 70.9912 80.2089 71.1075C80.1691 71.1167 80.128 71.1138 80.0902 71.099Z" fill="#F1DBC1"/>
<path d="M84.1726 74.6097C84.0488 74.9256 83.7818 75.1203 83.575 75.0457C83.3686 74.9707 83.2944 74.6434 83.4118 74.3266C83.5288 74.0098 83.8021 73.816 84.0085 73.8905C84.2158 73.9655 84.2696 74.3021 84.1726 74.6097Z" fill="#F1DBC1"/>
<path d="M84.0891 73.9769L83.4059 73.4705C83.4059 73.4705 83.5762 74.1901 84.0891 73.9769Z" fill="#F1DBC1"/>
<path d="M89.3607 78.146C89.3607 78.146 88.0587 75.004 88.7736 71.4091C88.7736 71.4091 81.8135 71.3527 84.0573 69.6195C84.0573 69.6195 78.1928 68.0877 80.4844 65.4622C82.7756 62.8367 86.7927 64.6415 88.3884 66.9392C88.3884 66.9392 91.9384 68.3645 92.4059 72.0988C92.9556 76.4975 87.5301 83.1943 87.1779 81.4704C86.9703 80.4542 89.3607 78.146 89.3607 78.146Z" fill="#F1DBC1"/>
<path d="M90.7415 79.3264C90.2308 79.9322 89.4997 80.3135 88.708 80.3872C87.6543 80.4685 87.3254 79.4827 87.787 78.5921C88.2087 77.795 89.2615 76.7898 90.2414 77.1062C90.9458 77.3586 91.3115 78.1304 91.0577 78.831C90.9903 79.0172 90.8822 79.1861 90.7415 79.3264Z" fill="#FFB877"/>
<path d="M77.9749 85.5813L79.3282 85.5624C79.3282 85.5624 78.9976 87.5306 81.4783 87.9894C83.9585 88.4482 87.1508 86.8583 87.1508 86.8583L88.5155 87.4919C88.5155 87.4919 84.9863 90.1692 80.9824 89.2516C76.9781 88.334 77.9749 85.5813 77.9749 85.5813Z" fill="#F1DBC1"/>
<path d="M77.9745 85.5813L79.3278 85.562C79.3278 85.562 78.9972 87.5306 81.4779 87.9894C83.9581 88.4482 87.1508 86.8583 87.1508 86.8583L88.5155 87.4915C88.5155 87.4915 84.9859 90.1688 80.982 89.2512C76.9777 88.3336 77.9745 85.5813 77.9745 85.5813Z" fill="white"/>
<path d="M83.8776 52.8631C83.8335 52.7932 83.3686 51.2993 85.4046 50.3716C87.4411 49.4443 87.823 50.3202 89.025 49.743C89.025 49.743 88.5604 51.3835 86.8499 52.7198C85.1393 54.0566 84.0496 53.1365 83.8776 52.8631Z" fill="#F1DBC1"/>
<path d="M79.0345 57.5832C76.55 59.1294 69.0156 63.0907 68.61 62.4462C68.2044 61.802 75.0806 56.7962 77.5651 55.2501C80.05 53.704 82.3925 52.973 82.7981 53.6172C83.2037 54.2618 81.519 56.0371 79.0345 57.5832Z" fill="#8446FF"/>
<path d="M79.0345 57.5832C76.55 59.1294 69.0152 63.0907 68.6096 62.4462C68.204 61.802 75.0802 56.7962 77.5646 55.2501C80.0496 53.704 82.3925 52.973 82.7981 53.6172C83.2037 54.2618 81.519 56.0371 79.0345 57.5832Z" fill="white"/>
<path d="M82.1361 54.619L81.6025 53.7718C81.502 53.6122 81.5504 53.4015 81.7114 53.3017L83.8488 51.9716L84.7469 53.3973L82.6091 54.7273C82.4484 54.8272 82.2365 54.7787 82.1361 54.619Z" fill="#F1DBC1"/>
<path d="M82.1357 54.6195L81.6021 53.7722C81.5016 53.6126 81.5499 53.4019 81.711 53.3021L83.8483 51.9716L84.7464 53.3973L82.6087 54.7277C82.448 54.8276 82.2361 54.7791 82.1357 54.6195Z" fill="white"/>
<path d="M89.0245 49.743C87.8226 50.3202 87.4415 49.4443 85.4051 50.3716C85.1834 50.4727 84.9961 50.5814 84.8299 50.693C84.7299 50.8207 84.6968 50.9487 84.7854 51.0633C85.1482 51.5314 86.5108 50.4798 86.7698 50.8093C87.0283 51.1387 86.1595 51.4084 86.4795 51.8351C86.7982 52.2606 86.1069 52.6659 86.4087 53.0198C86.5511 52.9347 86.6973 52.8391 86.8499 52.7198C88.5605 51.3835 89.0245 49.743 89.0245 49.743Z" fill="#8446FF"/>
<path d="M114.885 58.6937C109.562 57.8899 104.939 59.2566 104.558 61.7456C104.342 63.1628 107.58 63.5529 109.64 64.7093C111.2 65.5844 111.215 67.3614 113.508 67.7077C118.832 68.5115 123.455 67.1452 123.836 64.6562C124.216 62.1668 120.209 59.4976 114.885 58.6937ZM113.992 63.7787C112.764 63.5933 111.829 63.0368 111.906 62.5359C111.982 62.035 113.041 61.7793 114.269 61.9646C115.498 62.15 116.431 62.7065 116.355 63.2074C116.278 63.7083 115.221 63.9641 113.992 63.7787Z" fill="#8446FF"/>
<path d="M114.885 58.6937C109.562 57.8899 104.939 59.2566 104.558 61.7456C104.342 63.1628 107.58 63.5529 109.64 64.7093C111.2 65.5844 111.215 67.3614 113.508 67.7077C118.832 68.5115 123.455 67.1452 123.836 64.6562C124.216 62.1668 120.209 59.4976 114.885 58.6937ZM113.992 63.7787C112.764 63.5933 111.829 63.0368 111.906 62.5359C111.982 62.035 113.041 61.7793 114.269 61.9646C115.498 62.15 116.431 62.7065 116.355 63.2074C116.278 63.7083 115.221 63.9641 113.992 63.7787Z" fill="#F1DBC1"/>
<path d="M110.986 60.9754C110.986 61.366 110.306 61.6828 109.467 61.6828C108.628 61.6828 107.948 61.366 107.948 60.9754C107.948 60.5849 108.628 60.2681 109.467 60.2681C110.306 60.2681 110.986 60.5849 110.986 60.9754Z" fill="#8446FF"/>
<path d="M110.986 60.9754C110.986 61.366 110.306 61.6828 109.467 61.6828C108.628 61.6828 107.948 61.366 107.948 60.9754C107.948 60.5849 108.628 60.2681 109.467 60.2681C110.306 60.2681 110.986 60.5849 110.986 60.9754Z" fill="white"/>
<path d="M115.458 59.5325C115.458 59.8333 114.842 60.0772 114.083 60.0772C113.324 60.0772 112.709 59.8333 112.709 59.5325C112.709 59.2317 113.324 58.9878 114.083 58.9878C114.842 58.9878 115.458 59.2317 115.458 59.5325Z" fill="#8446FF"/>
<path d="M115.457 59.5325C115.457 59.8333 114.842 60.0772 114.083 60.0772C113.323 60.0772 112.708 59.8333 112.708 59.5325C112.708 59.2317 113.323 58.9878 114.083 58.9878C114.842 58.9878 115.457 59.2317 115.457 59.5325Z" fill="white"/>
<path d="M120.582 61.5105C120.582 61.9263 119.78 62.2633 118.793 62.2633C117.805 62.2633 117.004 61.9263 117.004 61.5105C117.004 61.0947 117.805 60.7576 118.793 60.7576C119.78 60.7576 120.582 61.0947 120.582 61.5105Z" fill="#8446FF"/>
<path d="M120.581 61.5105C120.581 61.9263 119.78 62.2633 118.793 62.2633C117.805 62.2633 117.004 61.9263 117.004 61.5105C117.004 61.0947 117.805 60.7576 118.793 60.7576C119.78 60.7576 120.581 61.0947 120.581 61.5105Z" fill="white"/>
<path d="M122.062 64.9895C122.062 65.3695 121.33 65.6775 120.427 65.6775C119.524 65.6775 118.793 65.3695 118.793 64.9895C118.793 64.6095 119.524 64.3015 120.427 64.3015C121.33 64.3015 122.062 64.6095 122.062 64.9895Z" fill="#8446FF"/>
<path d="M122.062 64.9895C122.062 65.3695 121.33 65.6775 120.427 65.6775C119.524 65.6775 118.793 65.3695 118.793 64.9895C118.793 64.6095 119.524 64.3015 120.427 64.3015C121.33 64.3015 122.062 64.6095 122.062 64.9895Z" fill="white"/>
<path d="M116.994 65.7735C116.994 66.2062 116.208 66.5571 115.239 66.5571C114.271 66.5571 113.485 66.2062 113.485 65.7735C113.485 65.3409 114.271 64.9899 115.239 64.9899C116.208 64.9899 116.994 65.3409 116.994 65.7735Z" fill="#8446FF"/>
<path d="M116.994 65.7731C116.994 66.2058 116.208 66.5567 115.239 66.5567C114.271 66.5567 113.485 66.2058 113.485 65.7731C113.485 65.3404 114.271 64.9895 115.239 64.9895C116.208 64.9895 116.994 65.3404 116.994 65.7731Z" fill="white"/>
<path d="M107.184 64.3011C107.184 64.3011 108.94 62.8982 110.095 62.8637C110.348 62.8561 110.555 63.0726 110.556 63.325C110.557 63.6957 110.5 64.211 110.184 64.3011C109.681 64.4444 108.569 65.2254 108.569 65.2254L107.184 64.3011Z" fill="#FFB877"/>
<path d="M70.5257 93.3158C70.7207 92.4661 71.0822 90.9157 73.3094 92.8073C75.5362 94.6993 75.0382 91.84 76.7717 91.9323C78.5056 92.0245 76.2783 95.437 76.2783 95.437C76.2783 95.437 79.0218 95.1606 78.9955 96.8205C78.9692 98.4808 75.4417 97.832 75.4417 97.832C75.4417 97.832 73.7731 102.724 72.2889 100.971C70.8042 99.2185 73.2734 97.2818 72.8742 95.7138C72.4741 94.1457 70.0693 95.3022 70.5257 93.3158Z" fill="#CEB5FF"/>
<path d="M79.7046 109.661C79.9076 108.578 79.0095 106.156 80.506 105.328C82.0026 104.501 81.9136 108.271 83.3427 107.494C84.7714 106.718 85.233 108.169 84.618 109.661C84.0026 111.152 82.9134 111.382 83.3427 112.758C83.7716 114.135 82.4709 112.911 80.506 111.994C78.5412 111.076 79.4969 110.77 79.7046 109.661Z" fill="#8446FF"/>
<path d="M79.6634 78.0904C79.6634 78.0904 80.6912 77.8713 83.5622 78.0301C83.2232 79.021 82.5912 79.7991 81.1184 79.7178C80.3827 79.7591 79.7338 79.0943 79.6685 78.2328C79.6651 78.1851 79.663 78.1375 79.6634 78.0904Z" fill="#F1DBC1"/>
<path d="M81.8013 78.9494C81.2359 78.882 80.6734 79.0239 80.1945 79.3547C80.4666 79.5775 80.787 79.7001 81.113 79.7056C81.6775 79.7747 82.2391 79.6331 82.7163 79.3003C82.4467 79.0745 82.1268 78.9515 81.8013 78.9494Z" fill="#BD2D2A"/>
<path d="M79.7944 78.0706C79.8521 78.325 80.0241 78.5268 80.242 78.5942C81.0943 78.6364 81.9454 78.5967 82.7871 78.475C83.0592 78.4594 83.3012 78.2863 83.4334 78.0128C82.217 77.9227 81.0011 77.9416 79.7944 78.0706Z" fill="white"/>
<path d="M108.469 94.5972L102.338 96.2533L102.802 105.051C102.406 105.022 101.946 105.065 101.457 105.198C100.052 105.577 98.9468 106.525 98.9883 107.315C99.0299 108.105 100.203 108.438 101.608 108.059C103.012 107.679 104.117 106.731 104.076 105.941C103.962 103.795 103.641 97.7004 103.641 97.7004L107.54 96.6472L108.469 94.5972Z" fill="#8446FF"/>
<path d="M130.431 95.2896L126.827 96.2636L127.1 101.436C126.868 101.418 126.597 101.444 126.309 101.522C125.483 101.745 124.833 102.302 124.858 102.767C124.883 103.232 125.572 103.427 126.398 103.204C127.224 102.981 127.873 102.424 127.849 101.959C127.782 100.697 127.594 97.1146 127.594 97.1146L129.886 96.4953L130.431 95.2896Z" fill="#8446FF"/>
<path d="M70.7639 100.262L66.2188 101.49L66.5629 108.013C66.2696 107.99 65.9289 108.023 65.5652 108.121C64.5239 108.402 63.7046 109.106 63.7356 109.691C63.7665 110.277 64.6358 110.524 65.6775 110.243C66.7189 109.961 67.5381 109.259 67.5072 108.673C67.4233 107.082 67.1851 102.563 67.1851 102.563L70.0756 101.782L70.7639 100.262Z" fill="#CEB5FF"/>
<path d="M108.121 105.275L108.677 115.82C108.203 115.784 107.652 115.836 107.065 115.995C105.381 116.45 104.056 117.587 104.106 118.534C104.156 119.481 105.562 119.879 107.246 119.424C108.929 118.97 110.254 117.834 110.204 116.887C110.068 114.314 109.683 107.01 109.683 107.01L117.213 104.975L117.658 113.394C117.184 113.359 116.631 113.411 116.044 113.569C114.361 114.025 113.037 115.161 113.087 116.108C113.137 117.055 114.542 117.454 116.225 116.999C117.909 116.544 119.234 115.408 119.184 114.461C119.048 111.889 118.551 102.458 118.551 102.458L108.121 105.275Z" fill="#8446FF"/>
<path d="M110.438 82.4547L110.715 87.7065C110.48 87.6888 110.205 87.7149 109.912 87.7937C109.073 88.0204 108.414 88.5866 108.439 89.058C108.464 89.5299 109.164 89.7291 110.002 89.5025C110.841 89.2758 111.501 88.71 111.476 88.2382C111.408 86.957 111.217 83.3188 111.217 83.3188L114.967 82.306L115.188 86.4991C114.952 86.481 114.678 86.5067 114.385 86.5859C113.546 86.8121 112.886 87.3783 112.911 87.8498C112.937 88.3216 113.637 88.5204 114.475 88.2942C115.314 88.0676 115.974 87.5013 115.949 87.0295C115.881 85.7484 115.633 81.0514 115.633 81.0514L110.438 82.4547Z" fill="#935DFF"/>
<path d="M120.492 127.073C121.109 130.255 116.707 133.772 110.662 134.929C104.616 136.087 99.2159 134.446 98.5992 131.264C97.983 128.083 102.384 124.565 108.43 123.408C114.475 122.251 119.876 123.892 120.492 127.073Z" fill="#8446FF"/>
<path d="M113.604 133.633L109.546 129.168L107.446 134.812C108.449 134.79 109.5 134.683 110.575 134.478C111.648 134.272 112.664 133.984 113.604 133.633Z" fill="white"/>
<path d="M111.646 123.526C110.642 123.547 109.591 123.654 108.517 123.86C107.444 124.066 106.427 124.354 105.488 124.704L109.546 129.169L111.646 123.526Z" fill="white"/>
<path d="M105.847 134.771L109.546 129.168L101.049 133.313C101.608 133.701 102.303 134.033 103.14 134.288C103.977 134.542 104.892 134.699 105.847 134.771Z" fill="#F1DBC1"/>
<path d="M118.042 125.025C117.484 124.636 116.787 124.304 115.951 124.05C115.114 123.796 114.2 123.638 113.245 123.566L109.545 129.169L118.042 125.025Z" fill="#F1DBC1"/>
<path d="M112.924 128.522C113.114 129.504 111.756 130.589 109.89 130.947C108.025 131.304 106.358 130.797 106.168 129.815C105.978 128.833 107.336 127.748 109.202 127.39C111.067 127.034 112.734 127.54 112.924 128.522Z" fill="#8446FF"/>
<path d="M112.924 128.522C113.114 129.504 111.755 130.589 109.89 130.947C108.024 131.304 106.358 130.797 106.168 129.815C105.977 128.833 107.336 127.748 109.202 127.391C111.067 127.034 112.734 127.54 112.924 128.522Z" fill="black"/>
<path d="M110.191 129.045C110.227 129.232 109.968 129.44 109.612 129.508C109.255 129.577 108.937 129.48 108.901 129.292C108.864 129.105 109.124 128.897 109.48 128.829C109.837 128.761 110.154 128.858 110.191 129.045Z" fill="white"/>
<path d="M138.432 120.886C137.863 122.675 134.645 123.259 131.246 122.189C127.846 121.12 125.552 118.803 126.122 117.014C126.691 115.225 129.909 114.642 133.308 115.711C136.708 116.78 139.002 119.097 138.432 120.886Z" fill="#8446FF"/>
<path d="M133.104 122.336L132.277 118.95L129.641 121.247C130.158 121.511 130.723 121.745 131.327 121.935C131.93 122.125 132.528 122.256 133.104 122.336Z" fill="white"/>
<path d="M134.913 116.652C134.396 116.388 133.831 116.154 133.227 115.964C132.624 115.775 132.026 115.643 131.451 115.563L132.277 118.95L134.913 116.652Z" fill="white"/>
<path d="M128.839 120.787L132.277 118.95L126.8 118.729C126.977 119.08 127.239 119.44 127.595 119.799C127.95 120.158 128.372 120.489 128.839 120.787Z" fill="#F1DBC1"/>
<path d="M137.754 119.17C137.577 118.819 137.315 118.46 136.96 118.101C136.604 117.741 136.182 117.41 135.716 117.112L132.277 118.95L137.754 119.17Z" fill="#F1DBC1"/>
<path d="M134.177 119.547C134.001 120.099 133.008 120.279 131.959 119.949C130.91 119.619 130.202 118.904 130.377 118.352C130.553 117.8 131.546 117.621 132.595 117.95C133.644 118.28 134.352 118.995 134.177 119.547Z" fill="#8446FF"/>
<path d="M134.177 119.547C134.001 120.1 133.008 120.279 131.959 119.949C130.91 119.62 130.202 118.905 130.377 118.352C130.553 117.801 131.546 117.621 132.595 117.95C133.644 118.28 134.352 118.995 134.177 119.547Z" fill="black"/>
<path d="M132.64 119.063C132.606 119.169 132.417 119.203 132.216 119.14C132.016 119.077 131.881 118.941 131.914 118.836C131.948 118.73 132.137 118.696 132.338 118.758C132.538 118.822 132.673 118.958 132.64 119.063Z" fill="white"/>
</g>
</g>
<defs>
<clipPath id="clip0_1135_1750">
<rect width="217" height="215.701" fill="white" transform="translate(-32 0.850311)"/>
</clipPath>
</defs>
</svg>
