<svg width="74" height="74" viewBox="0 0 74 74" fill="none" xmlns="http://www.w3.org/2000/svg">
<g filter="url(#filter0_d_790_30)">
<path d="M15.5664 40.0254C15.4963 40.0006 15.4203 39.9938 15.3464 40.0057C15.2725 40.0176 15.2035 40.0478 15.1464 40.093C15.0894 40.1383 15.0466 40.197 15.0224 40.2629C14.9982 40.3289 14.9935 40.3997 15.0089 40.4678C16.0835 45.1463 18.8535 49.3404 22.8561 52.3494C26.8587 55.3584 31.8514 57 37 57C42.1486 57 47.1413 55.3584 51.1439 52.3494C55.1465 49.3404 57.9165 45.1463 58.9911 40.4678C59.0065 40.3997 59.0018 40.3289 58.9776 40.2629C58.9534 40.197 58.9106 40.1383 58.8536 40.093C58.7965 40.0478 58.7275 40.0176 58.6536 40.0057C58.5797 39.9938 58.5037 40.0006 58.4336 40.0254C52.2809 42.1894 44.9154 43.4472 37 43.4472C29.0846 43.4472 21.7191 42.1894 15.5664 40.0254Z" stroke="#006E75" stroke-width="3" stroke-miterlimit="10"/>
<path d="M37 64C54.1213 64 68 50.1213 68 33C68 15.8787 54.1213 2 37 2C19.8787 2 6 15.8787 6 33C6 50.1213 19.8787 64 37 64Z" stroke="#006E75" stroke-width="3" stroke-linejoin="round"/>
<path d="M24 15.2361L25.7431 20.6008C25.877 21.0128 26.2609 21.2918 26.6942 21.2918H32.335L27.7715 24.6074C27.421 24.862 27.2743 25.3134 27.4082 25.7254L29.1513 31.0902L24.5878 27.7746C24.2373 27.5199 23.7627 27.5199 23.4122 27.7746L18.8487 31.0902L20.5918 25.7254C20.7257 25.3134 20.579 24.862 20.2285 24.6074L15.665 21.2918H21.3058C21.7391 21.2918 22.123 21.0128 22.2569 20.6008L24 15.2361Z" stroke="#006E75" stroke-width="2" stroke-linejoin="round"/>
<path d="M50 15.2361L51.7431 20.6008C51.877 21.0128 52.2609 21.2918 52.6942 21.2918H58.335L53.7715 24.6074C53.421 24.862 53.2743 25.3134 53.4082 25.7254L55.1513 31.0902L50.5878 27.7746C50.2373 27.5199 49.7627 27.5199 49.4122 27.7746L44.8487 31.0902L46.5918 25.7254C46.7257 25.3134 46.579 24.862 46.2285 24.6074L41.665 21.2918H47.3058C47.7391 21.2918 48.123 21.0128 48.2569 20.6008L50 15.2361Z" stroke="#006E75" stroke-width="2" stroke-linejoin="round"/>
</g>
<defs>
<filter id="filter0_d_790_30" x="0.5" y="0.5" width="73" height="73" filterUnits="userSpaceOnUse" color-interpolation-filters="sRGB">
<feFlood flood-opacity="0" result="BackgroundImageFix"/>
<feColorMatrix in="SourceAlpha" type="matrix" values="0 0 0 0 0 0 0 0 0 0 0 0 0 0 0 0 0 0 127 0" result="hardAlpha"/>
<feOffset dy="4"/>
<feGaussianBlur stdDeviation="2"/>
<feComposite in2="hardAlpha" operator="out"/>
<feColorMatrix type="matrix" values="0 0 0 0 0 0 0 0 0 0 0 0 0 0 0 0 0 0 0.25 0"/>
<feBlend mode="normal" in2="BackgroundImageFix" result="effect1_dropShadow_790_30"/>
<feBlend mode="normal" in="SourceGraphic" in2="effect1_dropShadow_790_30" result="shape"/>
</filter>
</defs>
</svg>
