<svg width="208" height="53" viewBox="0 0 208 53" fill="none" xmlns="http://www.w3.org/2000/svg">
<path d="M40.572 16V4.876H36.072V3.31H46.926V4.876H42.426V16H40.572ZM51.0152 16.162C49.5752 16.162 48.4412 15.76 47.6132 14.956C46.7852 14.14 46.3712 13.03 46.3712 11.626C46.3712 10.726 46.5512 9.934 46.9112 9.25C47.2832 8.554 47.7932 8.014 48.4412 7.63C49.0892 7.246 49.8332 7.054 50.6732 7.054C51.8852 7.054 52.8392 7.444 53.5352 8.224C54.2312 8.992 54.5792 10.054 54.5792 11.41V12.022H48.1352C48.2672 13.846 49.2332 14.758 51.0332 14.758C51.5372 14.758 52.0292 14.68 52.5092 14.524C53.0012 14.368 53.4632 14.11 53.8952 13.75L54.4352 15.01C54.0392 15.37 53.5292 15.652 52.9052 15.856C52.2812 16.06 51.6512 16.162 51.0152 16.162ZM50.7452 8.332C49.9892 8.332 49.3892 8.566 48.9452 9.034C48.5012 9.502 48.2312 10.126 48.1352 10.906H53.0492C53.0132 10.09 52.7972 9.46 52.4012 9.016C52.0052 8.56 51.4532 8.332 50.7452 8.332ZM59.6392 16.162C58.9192 16.162 58.2472 16.072 57.6232 15.892C56.9992 15.7 56.4772 15.436 56.0572 15.1L56.5792 13.876C57.0232 14.188 57.5092 14.428 58.0372 14.596C58.5772 14.764 59.1172 14.848 59.6572 14.848C60.2932 14.848 60.7732 14.734 61.0972 14.506C61.4212 14.278 61.5832 13.972 61.5832 13.588C61.5832 13.276 61.4752 13.036 61.2592 12.868C61.0432 12.688 60.7192 12.55 60.2872 12.454L58.5772 12.112C57.0652 11.8 56.3092 11.02 56.3092 9.772C56.3092 8.944 56.6392 8.284 57.2992 7.792C57.9592 7.3 58.8232 7.054 59.8912 7.054C60.5032 7.054 61.0852 7.144 61.6372 7.324C62.2012 7.504 62.6692 7.774 63.0412 8.134L62.5192 9.358C62.1592 9.046 61.7452 8.806 61.2772 8.638C60.8092 8.47 60.3472 8.386 59.8912 8.386C59.2672 8.386 58.7932 8.506 58.4692 8.746C58.1452 8.974 57.9832 9.286 57.9832 9.682C57.9832 10.282 58.3792 10.666 59.1712 10.834L60.8812 11.176C61.6612 11.332 62.2492 11.596 62.6452 11.968C63.0532 12.34 63.2572 12.844 63.2572 13.48C63.2572 14.32 62.9272 14.98 62.2672 15.46C61.6072 15.928 60.7312 16.162 59.6392 16.162ZM68.9361 16.162C67.8321 16.162 67.0101 15.88 66.4701 15.316C65.9301 14.752 65.6601 13.936 65.6601 12.868V8.62H63.9501V7.216H65.6601V4.57H67.4781V7.216H70.1961V8.62H67.4781V12.724C67.4781 13.36 67.6101 13.84 67.8741 14.164C68.1501 14.488 68.5941 14.65 69.2061 14.65C69.3981 14.65 69.5841 14.632 69.7641 14.596C69.9441 14.548 70.1241 14.494 70.3041 14.434L70.5921 15.802C70.4121 15.91 70.1601 15.994 69.8361 16.054C69.5241 16.126 69.2241 16.162 68.9361 16.162ZM79.8428 16.162C79.0748 16.162 78.3968 15.982 77.8088 15.622C77.2328 15.25 76.7828 14.722 76.4588 14.038C76.1348 13.354 75.9728 12.544 75.9728 11.608C75.9728 10.672 76.1348 9.868 76.4588 9.196C76.7828 8.512 77.2328 7.984 77.8088 7.612C78.3848 7.24 79.0628 7.054 79.8428 7.054C80.5028 7.054 81.0908 7.198 81.6068 7.486C82.1228 7.774 82.5068 8.164 82.7588 8.656V3.31H84.5768V16H82.7948V14.47C82.5428 14.998 82.1528 15.412 81.6248 15.712C81.1088 16.012 80.5148 16.162 79.8428 16.162ZM80.3108 14.758C81.0548 14.758 81.6548 14.488 82.1108 13.948C82.5668 13.408 82.7948 12.628 82.7948 11.608C82.7948 10.588 82.5668 9.814 82.1108 9.286C81.6548 8.746 81.0548 8.476 80.3108 8.476C79.5548 8.476 78.9488 8.746 78.4928 9.286C78.0368 9.814 77.8088 10.588 77.8088 11.608C77.8088 12.628 78.0368 13.408 78.4928 13.948C78.9488 14.488 79.5548 14.758 80.3108 14.758ZM91.2516 16.162C89.8116 16.162 88.6776 15.76 87.8496 14.956C87.0216 14.14 86.6076 13.03 86.6076 11.626C86.6076 10.726 86.7876 9.934 87.1476 9.25C87.5196 8.554 88.0296 8.014 88.6776 7.63C89.3256 7.246 90.0696 7.054 90.9096 7.054C92.1216 7.054 93.0756 7.444 93.7716 8.224C94.4676 8.992 94.8156 10.054 94.8156 11.41V12.022H88.3716C88.5036 13.846 89.4696 14.758 91.2696 14.758C91.7736 14.758 92.2656 14.68 92.7456 14.524C93.2376 14.368 93.6996 14.11 94.1316 13.75L94.6716 15.01C94.2756 15.37 93.7656 15.652 93.1416 15.856C92.5176 16.06 91.8876 16.162 91.2516 16.162ZM90.9816 8.332C90.2256 8.332 89.6256 8.566 89.1816 9.034C88.7376 9.502 88.4676 10.126 88.3716 10.906H93.2856C93.2496 10.09 93.0336 9.46 92.6376 9.016C92.2416 8.56 91.6896 8.332 90.9816 8.332ZM101.526 19.24V7.216H103.308V8.71C103.56 8.206 103.944 7.804 104.46 7.504C104.976 7.204 105.57 7.054 106.242 7.054C107.022 7.054 107.7 7.24 108.276 7.612C108.864 7.984 109.314 8.512 109.626 9.196C109.95 9.868 110.112 10.672 110.112 11.608C110.112 12.544 109.95 13.354 109.626 14.038C109.314 14.722 108.864 15.25 108.276 15.622C107.7 15.982 107.022 16.162 106.242 16.162C105.594 16.162 105.012 16.024 104.496 15.748C103.992 15.46 103.608 15.07 103.344 14.578V19.24H101.526ZM105.792 14.758C106.548 14.758 107.148 14.488 107.592 13.948C108.048 13.408 108.276 12.628 108.276 11.608C108.276 10.588 108.048 9.814 107.592 9.286C107.148 8.746 106.548 8.476 105.792 8.476C105.036 8.476 104.43 8.746 103.974 9.286C103.53 9.814 103.308 10.588 103.308 11.608C103.308 12.628 103.53 13.408 103.974 13.948C104.43 14.488 105.036 14.758 105.792 14.758ZM116.283 16.162C114.843 16.162 113.709 15.76 112.881 14.956C112.053 14.14 111.639 13.03 111.639 11.626C111.639 10.726 111.819 9.934 112.179 9.25C112.551 8.554 113.061 8.014 113.709 7.63C114.357 7.246 115.101 7.054 115.941 7.054C117.153 7.054 118.107 7.444 118.803 8.224C119.499 8.992 119.847 10.054 119.847 11.41V12.022H113.403C113.535 13.846 114.501 14.758 116.301 14.758C116.805 14.758 117.297 14.68 117.777 14.524C118.269 14.368 118.731 14.11 119.163 13.75L119.703 15.01C119.307 15.37 118.797 15.652 118.173 15.856C117.549 16.06 116.919 16.162 116.283 16.162ZM116.013 8.332C115.257 8.332 114.657 8.566 114.213 9.034C113.769 9.502 113.499 10.126 113.403 10.906H118.317C118.281 10.09 118.065 9.46 117.669 9.016C117.273 8.56 116.721 8.332 116.013 8.332ZM121.829 16V7.216H123.593V8.782C124.049 7.738 124.997 7.156 126.437 7.036L127.031 7L127.157 8.548L126.059 8.656C124.463 8.812 123.665 9.634 123.665 11.122V16H121.829ZM131.534 16.162C130.814 16.162 130.142 16.072 129.518 15.892C128.894 15.7 128.372 15.436 127.952 15.1L128.474 13.876C128.918 14.188 129.404 14.428 129.932 14.596C130.472 14.764 131.012 14.848 131.552 14.848C132.188 14.848 132.668 14.734 132.992 14.506C133.316 14.278 133.478 13.972 133.478 13.588C133.478 13.276 133.37 13.036 133.154 12.868C132.938 12.688 132.614 12.55 132.182 12.454L130.472 12.112C128.96 11.8 128.204 11.02 128.204 9.772C128.204 8.944 128.534 8.284 129.194 7.792C129.854 7.3 130.718 7.054 131.786 7.054C132.398 7.054 132.98 7.144 133.532 7.324C134.096 7.504 134.564 7.774 134.936 8.134L134.414 9.358C134.054 9.046 133.64 8.806 133.172 8.638C132.704 8.47 132.242 8.386 131.786 8.386C131.162 8.386 130.688 8.506 130.364 8.746C130.04 8.974 129.878 9.286 129.878 9.682C129.878 10.282 130.274 10.666 131.066 10.834L132.776 11.176C133.556 11.332 134.144 11.596 134.54 11.968C134.948 12.34 135.152 12.844 135.152 13.48C135.152 14.32 134.822 14.98 134.162 15.46C133.502 15.928 132.626 16.162 131.534 16.162ZM140.99 16.162C140.102 16.162 139.334 15.976 138.686 15.604C138.038 15.232 137.534 14.71 137.174 14.038C136.826 13.354 136.652 12.544 136.652 11.608C136.652 10.672 136.826 9.868 137.174 9.196C137.534 8.512 138.038 7.984 138.686 7.612C139.334 7.24 140.102 7.054 140.99 7.054C141.854 7.054 142.61 7.24 143.258 7.612C143.906 7.984 144.41 8.512 144.77 9.196C145.13 9.868 145.31 10.672 145.31 11.608C145.31 12.544 145.13 13.354 144.77 14.038C144.41 14.71 143.906 15.232 143.258 15.604C142.61 15.976 141.854 16.162 140.99 16.162ZM140.99 14.758C141.734 14.758 142.334 14.488 142.79 13.948C143.246 13.408 143.474 12.628 143.474 11.608C143.474 10.588 143.246 9.814 142.79 9.286C142.334 8.746 141.734 8.476 140.99 8.476C140.234 8.476 139.628 8.746 139.172 9.286C138.716 9.814 138.488 10.588 138.488 11.608C138.488 12.628 138.716 13.408 139.172 13.948C139.628 14.488 140.234 14.758 140.99 14.758ZM147.352 16V7.216H149.116V8.674C149.416 8.146 149.824 7.744 150.34 7.468C150.868 7.192 151.456 7.054 152.104 7.054C154.18 7.054 155.218 8.23 155.218 10.582V16H153.4V10.69C153.4 9.934 153.25 9.382 152.95 9.034C152.662 8.686 152.206 8.512 151.582 8.512C150.85 8.512 150.262 8.746 149.818 9.214C149.386 9.67 149.17 10.276 149.17 11.032V16H147.352ZM160.531 16.162C159.919 16.162 159.373 16.042 158.893 15.802C158.413 15.562 158.029 15.238 157.741 14.83C157.465 14.422 157.327 13.96 157.327 13.444C157.327 12.796 157.489 12.286 157.813 11.914C158.149 11.542 158.695 11.272 159.451 11.104C160.219 10.936 161.251 10.852 162.547 10.852H163.159V10.384C163.159 9.7 163.015 9.208 162.727 8.908C162.439 8.608 161.965 8.458 161.305 8.458C160.801 8.458 160.297 8.536 159.793 8.692C159.289 8.836 158.773 9.07 158.245 9.394L157.687 8.116C158.143 7.792 158.713 7.534 159.397 7.342C160.081 7.15 160.735 7.054 161.359 7.054C162.559 7.054 163.447 7.342 164.023 7.918C164.599 8.482 164.887 9.37 164.887 10.582V16H163.177V14.542C162.961 15.046 162.625 15.442 162.169 15.73C161.713 16.018 161.167 16.162 160.531 16.162ZM160.891 14.866C161.539 14.866 162.079 14.638 162.511 14.182C162.943 13.726 163.159 13.15 163.159 12.454V11.968H162.565C161.689 11.968 160.999 12.01 160.495 12.094C160.003 12.178 159.649 12.322 159.433 12.526C159.229 12.718 159.127 12.988 159.127 13.336C159.127 13.792 159.283 14.164 159.595 14.452C159.907 14.728 160.339 14.866 160.891 14.866ZM170.253 16.162C169.293 16.162 168.573 15.892 168.093 15.352C167.625 14.812 167.391 14.02 167.391 12.976V3.31H169.209V12.868C169.209 14.056 169.695 14.65 170.667 14.65C170.811 14.65 170.943 14.644 171.063 14.632C171.195 14.62 171.327 14.596 171.459 14.56L171.423 16.018C171.015 16.114 170.625 16.162 170.253 16.162ZM172.731 5.182V3.292H174.855V5.182H172.731ZM172.893 16V7.216H174.711V16H172.893ZM180.618 16.162C179.85 16.162 179.172 15.982 178.584 15.622C178.008 15.25 177.558 14.722 177.234 14.038C176.91 13.354 176.748 12.544 176.748 11.608C176.748 10.672 176.91 9.868 177.234 9.196C177.558 8.512 178.008 7.984 178.584 7.612C179.16 7.24 179.838 7.054 180.618 7.054C181.278 7.054 181.866 7.198 182.382 7.486C182.898 7.774 183.282 8.164 183.534 8.656V3.31H185.352V16H183.57V14.47C183.318 14.998 182.928 15.412 182.4 15.712C181.884 16.012 181.29 16.162 180.618 16.162ZM181.086 14.758C181.83 14.758 182.43 14.488 182.886 13.948C183.342 13.408 183.57 12.628 183.57 11.608C183.57 10.588 183.342 9.814 182.886 9.286C182.43 8.746 181.83 8.476 181.086 8.476C180.33 8.476 179.724 8.746 179.268 9.286C178.812 9.814 178.584 10.588 178.584 11.608C178.584 12.628 178.812 13.408 179.268 13.948C179.724 14.488 180.33 14.758 181.086 14.758ZM190.713 16.162C190.101 16.162 189.555 16.042 189.075 15.802C188.595 15.562 188.211 15.238 187.923 14.83C187.647 14.422 187.509 13.96 187.509 13.444C187.509 12.796 187.671 12.286 187.995 11.914C188.331 11.542 188.877 11.272 189.633 11.104C190.401 10.936 191.433 10.852 192.729 10.852H193.341V10.384C193.341 9.7 193.197 9.208 192.909 8.908C192.621 8.608 192.147 8.458 191.487 8.458C190.983 8.458 190.479 8.536 189.975 8.692C189.471 8.836 188.955 9.07 188.427 9.394L187.869 8.116C188.325 7.792 188.895 7.534 189.579 7.342C190.263 7.15 190.917 7.054 191.541 7.054C192.741 7.054 193.629 7.342 194.205 7.918C194.781 8.482 195.069 9.37 195.069 10.582V16H193.359V14.542C193.143 15.046 192.807 15.442 192.351 15.73C191.895 16.018 191.349 16.162 190.713 16.162ZM191.073 14.866C191.721 14.866 192.261 14.638 192.693 14.182C193.125 13.726 193.341 13.15 193.341 12.454V11.968H192.747C191.871 11.968 191.181 12.01 190.677 12.094C190.185 12.178 189.831 12.322 189.615 12.526C189.411 12.718 189.309 12.988 189.309 13.336C189.309 13.792 189.465 14.164 189.777 14.452C190.089 14.728 190.521 14.866 191.073 14.866ZM200.921 16.162C200.153 16.162 199.475 15.982 198.887 15.622C198.311 15.25 197.861 14.722 197.537 14.038C197.213 13.354 197.051 12.544 197.051 11.608C197.051 10.672 197.213 9.868 197.537 9.196C197.861 8.512 198.311 7.984 198.887 7.612C199.463 7.24 200.141 7.054 200.921 7.054C201.581 7.054 202.169 7.198 202.685 7.486C203.201 7.774 203.585 8.164 203.837 8.656V3.31H205.655V16H203.873V14.47C203.621 14.998 203.231 15.412 202.703 15.712C202.187 16.012 201.593 16.162 200.921 16.162ZM201.389 14.758C202.133 14.758 202.733 14.488 203.189 13.948C203.645 13.408 203.873 12.628 203.873 11.608C203.873 10.588 203.645 9.814 203.189 9.286C202.733 8.746 202.133 8.476 201.389 8.476C200.633 8.476 200.027 8.746 199.571 9.286C199.115 9.814 198.887 10.588 198.887 11.608C198.887 12.628 199.115 13.408 199.571 13.948C200.027 14.488 200.633 14.758 201.389 14.758Z" fill="#363636"/>
<path d="M36.198 50L41.85 37.31H43.398L49.068 50H47.16L45.828 46.904H39.402L38.088 50H36.198ZM42.606 39.38L40.068 45.392H45.198L42.642 39.38H42.606ZM50.5319 50V41.216H52.2959V42.674C52.5959 42.146 53.0039 41.744 53.5199 41.468C54.0479 41.192 54.6359 41.054 55.2839 41.054C57.3599 41.054 58.3979 42.23 58.3979 44.582V50H56.5799V44.69C56.5799 43.934 56.4299 43.382 56.1299 43.034C55.8419 42.686 55.3859 42.512 54.7619 42.512C54.0299 42.512 53.4419 42.746 52.9979 43.214C52.5659 43.67 52.3499 44.276 52.3499 45.032V50H50.5319ZM64.719 50.162C63.831 50.162 63.063 49.976 62.415 49.604C61.767 49.232 61.263 48.71 60.903 48.038C60.555 47.354 60.381 46.544 60.381 45.608C60.381 44.672 60.555 43.868 60.903 43.196C61.263 42.512 61.767 41.984 62.415 41.612C63.063 41.24 63.831 41.054 64.719 41.054C65.583 41.054 66.339 41.24 66.987 41.612C67.635 41.984 68.139 42.512 68.499 43.196C68.859 43.868 69.039 44.672 69.039 45.608C69.039 46.544 68.859 47.354 68.499 48.038C68.139 48.71 67.635 49.232 66.987 49.604C66.339 49.976 65.583 50.162 64.719 50.162ZM64.719 48.758C65.463 48.758 66.063 48.488 66.519 47.948C66.975 47.408 67.203 46.628 67.203 45.608C67.203 44.588 66.975 43.814 66.519 43.286C66.063 42.746 65.463 42.476 64.719 42.476C63.963 42.476 63.357 42.746 62.901 43.286C62.445 43.814 62.217 44.588 62.217 45.608C62.217 46.628 62.445 47.408 62.901 47.948C63.357 48.488 63.963 48.758 64.719 48.758ZM74.7368 50.162C73.6328 50.162 72.8108 49.88 72.2708 49.316C71.7308 48.752 71.4608 47.936 71.4608 46.868V42.62H69.7508V41.216H71.4608V38.57H73.2788V41.216H75.9968V42.62H73.2788V46.724C73.2788 47.36 73.4108 47.84 73.6748 48.164C73.9508 48.488 74.3948 48.65 75.0068 48.65C75.1988 48.65 75.3848 48.632 75.5648 48.596C75.7448 48.548 75.9248 48.494 76.1048 48.434L76.3928 49.802C76.2128 49.91 75.9608 49.994 75.6368 50.054C75.3248 50.126 75.0248 50.162 74.7368 50.162ZM80.3751 50.162C79.7631 50.162 79.2171 50.042 78.7371 49.802C78.2571 49.562 77.8731 49.238 77.5851 48.83C77.3091 48.422 77.1711 47.96 77.1711 47.444C77.1711 46.796 77.3331 46.286 77.6571 45.914C77.9931 45.542 78.5391 45.272 79.2951 45.104C80.0631 44.936 81.0951 44.852 82.3911 44.852H83.0031V44.384C83.0031 43.7 82.8591 43.208 82.5711 42.908C82.2831 42.608 81.8091 42.458 81.1491 42.458C80.6451 42.458 80.1411 42.536 79.6371 42.692C79.1331 42.836 78.6171 43.07 78.0891 43.394L77.5311 42.116C77.9871 41.792 78.5571 41.534 79.2411 41.342C79.9251 41.15 80.5791 41.054 81.2031 41.054C82.4031 41.054 83.2911 41.342 83.8671 41.918C84.4431 42.482 84.7311 43.37 84.7311 44.582V50H83.0211V48.542C82.8051 49.046 82.4691 49.442 82.0131 49.73C81.5571 50.018 81.0111 50.162 80.3751 50.162ZM80.7351 48.866C81.3831 48.866 81.9231 48.638 82.3551 48.182C82.7871 47.726 83.0031 47.15 83.0031 46.454V45.968H82.4091C81.5331 45.968 80.8431 46.01 80.3391 46.094C79.8471 46.178 79.4931 46.322 79.2771 46.526C79.0731 46.718 78.9711 46.988 78.9711 47.336C78.9711 47.792 79.1271 48.164 79.4391 48.452C79.7511 48.728 80.1831 48.866 80.7351 48.866ZM90.583 50.162C89.815 50.162 89.137 49.982 88.549 49.622C87.973 49.25 87.523 48.722 87.199 48.038C86.875 47.354 86.713 46.544 86.713 45.608C86.713 44.672 86.875 43.868 87.199 43.196C87.523 42.512 87.973 41.984 88.549 41.612C89.125 41.24 89.803 41.054 90.583 41.054C91.243 41.054 91.831 41.198 92.347 41.486C92.863 41.774 93.247 42.164 93.499 42.656V37.31H95.317V50H93.535V48.47C93.283 48.998 92.893 49.412 92.365 49.712C91.849 50.012 91.255 50.162 90.583 50.162ZM91.051 48.758C91.795 48.758 92.395 48.488 92.851 47.948C93.307 47.408 93.535 46.628 93.535 45.608C93.535 44.588 93.307 43.814 92.851 43.286C92.395 42.746 91.795 42.476 91.051 42.476C90.295 42.476 89.689 42.746 89.233 43.286C88.777 43.814 88.549 44.588 88.549 45.608C88.549 46.628 88.777 47.408 89.233 47.948C89.689 48.488 90.295 48.758 91.051 48.758ZM101.686 50.162C100.798 50.162 100.03 49.976 99.3818 49.604C98.7338 49.232 98.2298 48.71 97.8698 48.038C97.5218 47.354 97.3478 46.544 97.3478 45.608C97.3478 44.672 97.5218 43.868 97.8698 43.196C98.2298 42.512 98.7338 41.984 99.3818 41.612C100.03 41.24 100.798 41.054 101.686 41.054C102.55 41.054 103.306 41.24 103.954 41.612C104.602 41.984 105.106 42.512 105.466 43.196C105.826 43.868 106.006 44.672 106.006 45.608C106.006 46.544 105.826 47.354 105.466 48.038C105.106 48.71 104.602 49.232 103.954 49.604C103.306 49.976 102.55 50.162 101.686 50.162ZM101.686 48.758C102.43 48.758 103.03 48.488 103.486 47.948C103.942 47.408 104.17 46.628 104.17 45.608C104.17 44.588 103.942 43.814 103.486 43.286C103.03 42.746 102.43 42.476 101.686 42.476C100.93 42.476 100.324 42.746 99.8678 43.286C99.4118 43.814 99.1838 44.588 99.1838 45.608C99.1838 46.628 99.4118 47.408 99.8678 47.948C100.324 48.488 100.93 48.758 101.686 48.758ZM108.048 50V41.216H109.812V42.782C110.268 41.738 111.216 41.156 112.656 41.036L113.25 41L113.376 42.548L112.278 42.656C110.682 42.812 109.884 43.634 109.884 45.122V50H108.048ZM122.065 50L118.285 41.216H120.247L122.929 47.894L125.683 41.216H127.537L123.703 50H122.065ZM128.68 39.182V37.292H130.804V39.182H128.68ZM128.842 50V41.216H130.66V50H128.842ZM133.219 50V41.216H134.983V42.782C135.439 41.738 136.387 41.156 137.827 41.036L138.421 41L138.547 42.548L137.449 42.656C135.853 42.812 135.055 43.634 135.055 45.122V50H133.219ZM144.17 50.162C143.066 50.162 142.244 49.88 141.704 49.316C141.164 48.752 140.894 47.936 140.894 46.868V42.62H139.184V41.216H140.894V38.57H142.712V41.216H145.43V42.62H142.712V46.724C142.712 47.36 142.844 47.84 143.108 48.164C143.384 48.488 143.828 48.65 144.44 48.65C144.632 48.65 144.818 48.632 144.998 48.596C145.178 48.548 145.358 48.494 145.538 48.434L145.826 49.802C145.646 49.91 145.394 49.994 145.07 50.054C144.758 50.126 144.458 50.162 144.17 50.162ZM150.133 50.162C148.009 50.162 146.947 48.98 146.947 46.616V41.216H148.765V46.634C148.765 47.342 148.909 47.864 149.197 48.2C149.485 48.536 149.941 48.704 150.565 48.704C151.249 48.704 151.801 48.476 152.221 48.02C152.653 47.564 152.869 46.952 152.869 46.184V41.216H154.687V50H152.923V48.596C152.635 49.112 152.251 49.502 151.771 49.766C151.291 50.03 150.745 50.162 150.133 50.162ZM160.057 50.162C159.445 50.162 158.899 50.042 158.419 49.802C157.939 49.562 157.555 49.238 157.267 48.83C156.991 48.422 156.853 47.96 156.853 47.444C156.853 46.796 157.015 46.286 157.339 45.914C157.675 45.542 158.221 45.272 158.977 45.104C159.745 44.936 160.777 44.852 162.073 44.852H162.685V44.384C162.685 43.7 162.541 43.208 162.253 42.908C161.965 42.608 161.491 42.458 160.831 42.458C160.327 42.458 159.823 42.536 159.319 42.692C158.815 42.836 158.299 43.07 157.771 43.394L157.213 42.116C157.669 41.792 158.239 41.534 158.923 41.342C159.607 41.15 160.261 41.054 160.885 41.054C162.085 41.054 162.973 41.342 163.549 41.918C164.125 42.482 164.413 43.37 164.413 44.582V50H162.703V48.542C162.487 49.046 162.151 49.442 161.695 49.73C161.239 50.018 160.693 50.162 160.057 50.162ZM160.417 48.866C161.065 48.866 161.605 48.638 162.037 48.182C162.469 47.726 162.685 47.15 162.685 46.454V45.968H162.091C161.215 45.968 160.525 46.01 160.021 46.094C159.529 46.178 159.175 46.322 158.959 46.526C158.755 46.718 158.653 46.988 158.653 47.336C158.653 47.792 158.809 48.164 159.121 48.452C159.433 48.728 159.865 48.866 160.417 48.866ZM169.779 50.162C168.819 50.162 168.099 49.892 167.619 49.352C167.151 48.812 166.917 48.02 166.917 46.976V37.31H168.735V46.868C168.735 48.056 169.221 48.65 170.193 48.65C170.337 48.65 170.469 48.644 170.589 48.632C170.721 48.62 170.853 48.596 170.985 48.56L170.949 50.018C170.541 50.114 170.151 50.162 169.779 50.162Z" fill="#363636"/>
<rect width="19" height="19" rx="5" fill="#8446FF"/>
<path d="M4.30502 14L8.77102 4.13H10.241L14.707 14H12.887L11.907 11.718H7.09102L6.12502 14H4.30502ZM9.48502 6.076L7.70702 10.29H11.291L9.51302 6.076H9.48502Z" fill="white"/>
<rect y="34" width="19" height="19" rx="5" fill="#8446FF"/>
<path d="M5.75866 48V38.13H10.0707C11.1067 38.13 11.9093 38.3587 12.4787 38.816C13.048 39.264 13.3327 39.8893 13.3327 40.692C13.3327 41.224 13.1973 41.6813 12.9267 42.064C12.656 42.4467 12.2827 42.7267 11.8067 42.904C12.3667 43.0627 12.8007 43.3427 13.1087 43.744C13.426 44.136 13.5847 44.6353 13.5847 45.242C13.5847 46.1193 13.286 46.8007 12.6887 47.286C12.1007 47.762 11.2793 48 10.2247 48H5.75866ZM7.48066 42.316H9.76266C10.9853 42.316 11.5967 41.8447 11.5967 40.902C11.5967 39.9593 10.9853 39.488 9.76266 39.488H7.48066V42.316ZM7.48066 46.642H10.0007C11.2327 46.642 11.8487 46.1473 11.8487 45.158C11.8487 44.1687 11.2327 43.674 10.0007 43.674H7.48066V46.642Z" fill="white"/>
</svg>
