<svg width="30" height="37" viewBox="0 0 30 37" fill="none" xmlns="http://www.w3.org/2000/svg">
<path d="M14.5833 0C12.6682 0 10.7719 0.377209 9.00253 1.11009C7.2332 1.84297 5.62555 2.91717 4.27136 4.27136C1.53645 7.00627 0 10.7156 0 14.5833C0 18.4511 1.53645 22.1604 4.27136 24.8953C5.62555 26.2495 7.2332 27.3237 9.00253 28.0566C10.7719 28.7895 12.6682 29.1667 14.5833 29.1667C18.4511 29.1667 22.1604 27.6302 24.8953 24.8953C27.6302 22.1604 29.1667 18.4511 29.1667 14.5833C29.1667 12.8917 28.8604 11.2146 28.2771 9.63958L25.9438 11.9729C26.1479 12.8333 26.25 13.7083 26.25 14.5833C26.25 17.6775 25.0208 20.645 22.8329 22.8329C20.645 25.0208 17.6775 26.25 14.5833 26.25C11.4891 26.25 8.52168 25.0208 6.33375 22.8329C4.14583 20.645 2.91667 17.6775 2.91667 14.5833C2.91667 11.4891 4.14583 8.52168 6.33375 6.33375C8.52168 4.14583 11.4891 2.91667 14.5833 2.91667C15.4583 2.91667 16.3333 3.01875 17.1938 3.22292L19.5417 0.875C17.9521 0.30625 16.275 0 14.5833 0ZM24.7917 0L18.9583 5.83333V8.02083L15.2396 11.7396C15.0208 11.6667 14.8021 11.6667 14.5833 11.6667C13.8098 11.6667 13.0679 11.974 12.5209 12.5209C11.974 13.0679 11.6667 13.8098 11.6667 14.5833C11.6667 15.3569 11.974 16.0987 12.5209 16.6457C13.0679 17.1927 13.8098 17.5 14.5833 17.5C15.3569 17.5 16.0987 17.1927 16.6457 16.6457C17.1927 16.0987 17.5 15.3569 17.5 14.5833C17.5 14.3646 17.5 14.1458 17.4271 13.9271L21.1458 10.2083H23.3333L29.1667 4.375H24.7917V0ZM14.5833 5.83333C12.2627 5.83333 10.0371 6.75521 8.39615 8.39615C6.75521 10.0371 5.83333 12.2627 5.83333 14.5833C5.83333 16.904 6.75521 19.1296 8.39615 20.7705C10.0371 22.4115 12.2627 23.3333 14.5833 23.3333C16.904 23.3333 19.1296 22.4115 20.7705 20.7705C22.4115 19.1296 23.3333 16.904 23.3333 14.5833H20.4167C20.4167 16.1304 19.8021 17.6142 18.7081 18.7081C17.6142 19.8021 16.1304 20.4167 14.5833 20.4167C13.0362 20.4167 11.5525 19.8021 10.4585 18.7081C9.36458 17.6142 8.75 16.1304 8.75 14.5833C8.75 13.0362 9.36458 11.5525 10.4585 10.4585C11.5525 9.36458 13.0362 8.75 14.5833 8.75V5.83333Z" fill="#FF5C5C"/>
<circle cx="15" cy="28" r="9" fill="#E7A3A6"/>
<path d="M15.0144 33.7896C13.7116 32.4771 12.6739 31.4174 11.9012 30.6104C11.1281 29.8035 10.5399 29.1326 10.1366 28.5979C9.73292 28.0632 9.47023 27.6063 9.3485 27.2271C9.22717 26.8479 9.1665 26.425 9.1665 25.9583C9.1665 25.0639 9.47761 24.3056 10.0998 23.6833C10.7221 23.0611 11.4804 22.75 12.3748 22.75C12.8123 22.75 13.2353 22.8301 13.6436 22.9903C14.0519 23.1509 14.4165 23.3819 14.7373 23.6833L13.8332 26.8333H15.5832L15.0873 31.7188L16.7498 26.25H14.9998L16.0353 23.1583C16.2783 23.0222 16.5336 22.9201 16.8012 22.8521C17.0683 22.784 17.3429 22.75 17.6248 22.75C18.5193 22.75 19.2776 23.0611 19.8998 23.6833C20.5221 24.3056 20.8332 25.0639 20.8332 25.9583C20.8332 26.425 20.77 26.8528 20.6436 27.2417C20.5172 27.6306 20.2498 28.0947 19.8415 28.6341C19.4332 29.1739 18.845 29.8449 18.0769 30.6472C17.3089 31.4491 16.288 32.4965 15.0144 33.7896Z" fill="#F20000"/>
</svg>
