<svg width="35" height="35" viewBox="0 0 35 35" fill="none" xmlns="http://www.w3.org/2000/svg">
<path d="M11.7157 16.9791C11.6736 16.9507 11.6239 16.9355 11.573 16.9355C11.5221 16.9355 11.4724 16.9507 11.4302 16.9791C11.3537 17.0299 9.59717 18.2492 9.59717 20.0476C9.59717 20.5697 9.80533 21.0704 10.1759 21.4396C10.5464 21.8088 11.049 22.0162 11.573 22.0162C12.097 22.0162 12.5995 21.8088 12.9701 21.4396C13.3406 21.0704 13.5488 20.5697 13.5488 20.0476C13.5488 18.2187 11.7897 17.0274 11.7157 16.9791ZM11.573 21.5082C11.1844 21.5075 10.8119 21.3534 10.5372 21.0796C10.2624 20.8059 10.1077 20.4348 10.1071 20.0476C10.1071 18.7775 11.1804 17.8199 11.573 17.5075C11.9681 17.8148 13.0389 18.7775 13.0389 20.0476C13.0382 20.4348 12.8836 20.8059 12.6088 21.0796C12.334 21.3534 11.9616 21.5075 11.573 21.5082Z" fill="#D78100"/>
<circle cx="17.5" cy="17.5" r="16" stroke="#D78100" stroke-width="3"/>
<ellipse cx="12.9841" cy="14.395" rx="1.69355" ry="1.97581" fill="#D78100"/>
<ellipse cx="22.0158" cy="14.395" rx="1.69355" ry="1.97581" fill="#D78100"/>
<line x1="12.853" y1="24.5" x2="22.1471" y2="24.5" stroke="#D78100" stroke-linecap="round"/>
<line x1="13.8823" y1="23.5" x2="13.8823" y2="25.5" stroke="#D78100" stroke-linecap="round"/>
<line x1="15.9414" y1="23.5" x2="15.9414" y2="25.5" stroke="#D78100" stroke-linecap="round"/>
<line x1="19.0293" y1="23.5" x2="19.0293" y2="25.5" stroke="#D78100" stroke-linecap="round"/>
<line x1="21.0884" y1="23.5" x2="21.0884" y2="25.5" stroke="#D78100" stroke-linecap="round"/>
</svg>
