<svg width="35" height="35" viewBox="0 0 35 35" fill="none" xmlns="http://www.w3.org/2000/svg">
<path d="M6.67554 15.8596C6.62134 15.8249 6.55741 15.8064 6.49198 15.8064C6.42656 15.8064 6.36263 15.8249 6.30842 15.8596C6.21009 15.9217 3.95166 17.4119 3.95166 19.61C3.95166 20.2481 4.2193 20.8601 4.6957 21.3114C5.17211 21.7626 5.81825 22.0161 6.49198 22.0161C7.16572 22.0161 7.81186 21.7626 8.28826 21.3114C8.76467 20.8601 9.03231 20.2481 9.03231 19.61C9.03231 17.3747 6.7706 15.9186 6.67554 15.8596ZM6.49198 21.3952C5.99238 21.3943 5.51349 21.206 5.16022 20.8714C4.80694 20.5368 4.60809 20.0832 4.60723 19.61C4.60723 18.0577 5.9872 16.8873 6.49198 16.5054C7.00005 16.8811 8.37674 18.0577 8.37674 19.61C8.37587 20.0832 8.17702 20.5368 7.82375 20.8714C7.47048 21.206 6.99158 21.3943 6.49198 21.3952Z" fill="#844D4D"/>
<path d="M23.9333 25.3741C23.9682 25.3918 24.0106 25.4019 24.0546 25.4031C24.0987 25.4042 24.1422 25.3963 24.179 25.3805C24.2159 25.3646 24.2443 25.3416 24.2602 25.3147C24.2761 25.2877 24.2787 25.2582 24.2678 25.2302C23.5123 23.3841 20.7695 22.0161 17.5008 22.0161C14.2321 22.0161 11.4865 23.3853 10.7329 25.2326C10.7217 25.2607 10.7242 25.2904 10.7401 25.3174C10.7561 25.3445 10.7846 25.3676 10.8216 25.3835C10.8587 25.3994 10.9024 25.4073 10.9467 25.406C10.9909 25.4048 11.0335 25.3944 11.0683 25.3765C12.6939 24.5791 14.9757 24.0825 17.5008 24.0825C20.0259 24.0825 22.3058 24.5791 23.9333 25.3741Z" fill="#844D4D"/>
<path d="M23.9333 25.3741C23.9682 25.3918 24.0106 25.4019 24.0546 25.4031C24.0987 25.4042 24.1422 25.3963 24.179 25.3805C24.2159 25.3646 24.2443 25.3416 24.2602 25.3147C24.2761 25.2877 24.2787 25.2582 24.2678 25.2302C23.5123 23.3841 20.7695 22.0161 17.5008 22.0161C14.2321 22.0161 11.4865 23.3853 10.7329 25.2326C10.7217 25.2607 10.7242 25.2904 10.7401 25.3174C10.7561 25.3445 10.7846 25.3676 10.8216 25.3835C10.8587 25.3994 10.9024 25.4073 10.9467 25.406C10.9909 25.4048 11.0335 25.3944 11.0683 25.3765C12.6939 24.5791 14.9757 24.0825 17.5008 24.0825C20.0259 24.0825 22.3058 24.5791 23.9333 25.3741Z" fill="#844D4D"/>
<circle cx="17.5" cy="17.5" r="16" stroke="#844D4D" stroke-width="3"/>
<path d="M8.89788 10.4684C9.27755 10.6429 9.66268 10.7334 10.0307 10.7344C10.3987 10.7354 10.7423 10.6471 11.0412 10.4745C11.3401 10.3019 11.5884 10.0486 11.7715 9.72938C11.9546 9.41013 12.0688 9.03139 12.1075 8.61533" stroke="#844D4D" stroke-linecap="round" stroke-linejoin="round"/>
<path d="M26.0811 10.4684C25.7014 10.6429 25.3163 10.7334 24.9483 10.7344C24.5803 10.7354 24.2367 10.6471 23.9378 10.4745C23.6389 10.3019 23.3906 10.0486 23.2075 9.72938C23.0244 9.41013 22.9102 9.03139 22.8715 8.61533" stroke="#844D4D" stroke-linecap="round" stroke-linejoin="round"/>
<ellipse cx="12.9841" cy="14.3952" rx="1.69355" ry="1.97581" fill="#844D4D"/>
<ellipse cx="22.0163" cy="14.3952" rx="1.69355" ry="1.97581" fill="#844D4D"/>
</svg>
