<svg width="35" height="31" viewBox="0 0 35 31" fill="none" xmlns="http://www.w3.org/2000/svg">
<path d="M8.66667 31H4.33333C3.7587 31 3.2076 30.7748 2.80127 30.3738C2.39494 29.9729 2.16667 29.4291 2.16667 28.8621V21.3793C1.59203 21.3793 1.04093 21.1541 0.634602 20.7531C0.228274 20.3522 0 19.8084 0 19.2414V12.8276C0 11.9771 0.342409 11.1614 0.951903 10.56C1.5614 9.95856 2.38805 9.62069 3.25 9.62069H9.75C10.612 9.62069 11.4386 9.95856 12.0481 10.56C12.6576 11.1614 13 11.9771 13 12.8276V19.2414C13 19.8084 12.7717 20.3522 12.3654 20.7531C11.9591 21.1541 11.408 21.3793 10.8333 21.3793V28.8621C10.8333 29.4291 10.6051 29.9729 10.1987 30.3738C9.7924 30.7748 9.2413 31 8.66667 31ZM3.25 11.7586C3.10526 11.7492 2.96014 11.7703 2.82436 11.8207C2.68858 11.8711 2.56528 11.9495 2.46271 12.0507C2.36014 12.1519 2.28066 12.2736 2.22961 12.4076C2.17855 12.5416 2.15709 12.6848 2.16667 12.8276V19.2414H4.33333V28.8621H8.66667V19.2414H10.8333V12.8276C10.8429 12.6848 10.8215 12.5416 10.7704 12.4076C10.7193 12.2736 10.6399 12.1519 10.5373 12.0507C10.4347 11.9495 10.3114 11.8711 10.1756 11.8207C10.0399 11.7703 9.89474 11.7492 9.75 11.7586H3.25ZM6.5 8.55173C5.64295 8.55173 4.80514 8.30095 4.09253 7.83111C3.37992 7.36127 2.8245 6.69348 2.49652 5.91217C2.16854 5.13085 2.08273 4.27112 2.24993 3.44168C2.41713 2.61225 2.82984 1.85036 3.43587 1.25237C4.0419 0.654383 4.81402 0.247146 5.65461 0.0821614C6.49519 -0.0828237 7.36648 0.00185265 8.15829 0.325482C8.95011 0.649112 9.62688 1.19716 10.103 1.90032C10.5792 2.60348 10.8333 3.43018 10.8333 4.27586C10.8333 5.40989 10.3768 6.49748 9.56413 7.29936C8.75147 8.10123 7.64927 8.55173 6.5 8.55173ZM6.5 2.13793C6.07147 2.13793 5.65257 2.26332 5.29627 2.49824C4.93996 2.73316 4.66225 3.06706 4.49826 3.45771C4.33427 3.84837 4.29136 4.27824 4.37497 4.69295C4.45857 5.10767 4.66492 5.48861 4.96794 5.78761C5.27095 6.0866 5.65701 6.29022 6.0773 6.37271C6.4976 6.45521 6.93324 6.41287 7.32915 6.25105C7.72506 6.08924 8.06344 5.81522 8.30152 5.46363C8.53959 5.11205 8.66667 4.69871 8.66667 4.27586C8.66667 3.70885 8.43839 3.16506 8.03206 2.76412C7.62574 2.36318 7.07464 2.13793 6.5 2.13793Z" fill="black"/>
<path d="M22 20H19C18.6022 20 18.2206 19.8547 17.9393 19.596C17.658 19.3373 17.5 18.9865 17.5 18.6207V13.7931C17.1022 13.7931 16.7206 13.6478 16.4393 13.3891C16.158 13.1304 16 12.7796 16 12.4138V8.27586C16 7.72714 16.2371 7.20089 16.659 6.81288C17.081 6.42488 17.6533 6.2069 18.25 6.2069H22.75C23.3467 6.2069 23.919 6.42488 24.341 6.81288C24.7629 7.20089 25 7.72714 25 8.27586V12.4138C25 12.7796 24.842 13.1304 24.5607 13.3891C24.2794 13.6478 23.8978 13.7931 23.5 13.7931V18.6207C23.5 18.9865 23.342 19.3373 23.0607 19.596C22.7794 19.8547 22.3978 20 22 20ZM18.25 7.58621C18.1498 7.58011 18.0493 7.59377 17.9553 7.62628C17.8613 7.65878 17.776 7.70937 17.705 7.77467C17.6339 7.83997 17.5789 7.91846 17.5436 8.0049C17.5082 8.09134 17.4934 8.18372 17.5 8.27586V12.4138H19V18.6207H22V12.4138H23.5V8.27586C23.5066 8.18372 23.4918 8.09134 23.4564 8.0049C23.4211 7.91846 23.3661 7.83997 23.295 7.77467C23.224 7.70937 23.1387 7.65878 23.0447 7.62628C22.9507 7.59377 22.8502 7.58011 22.75 7.58621H18.25ZM20.5 5.51724C19.9067 5.51724 19.3266 5.35545 18.8333 5.05233C18.3399 4.74921 17.9554 4.31837 17.7284 3.8143C17.5013 3.31023 17.4419 2.75556 17.5576 2.22044C17.6734 1.68532 17.9591 1.19378 18.3787 0.807983C18.7982 0.422183 19.3328 0.159449 19.9147 0.0530074C20.4967 -0.0534346 21.0999 0.00119526 21.648 0.209989C22.1962 0.418782 22.6648 0.772361 22.9944 1.22601C23.3241 1.67967 23.5 2.21302 23.5 2.75862C23.5 3.49025 23.1839 4.19192 22.6213 4.70926C22.0587 5.2266 21.2956 5.51724 20.5 5.51724ZM20.5 1.37931C20.2033 1.37931 19.9133 1.46021 19.6666 1.61177C19.42 1.76333 19.2277 1.97875 19.1142 2.23078C19.0006 2.48282 18.9709 2.76015 19.0288 3.02771C19.0867 3.29527 19.2296 3.54104 19.4393 3.73394C19.6491 3.92684 19.9164 4.05821 20.2074 4.11143C20.4983 4.16465 20.7999 4.13734 21.074 4.03294C21.3481 3.92854 21.5824 3.75175 21.7472 3.52493C21.912 3.2981 22 3.03142 22 2.75862C22 2.39281 21.842 2.04197 21.5607 1.7833C21.2794 1.52463 20.8978 1.37931 20.5 1.37931Z" fill="#FF6E1E"/>
<path d="M32 20H29C28.6022 20 28.2206 19.8547 27.9393 19.596C27.658 19.3373 27.5 18.9865 27.5 18.6207V13.7931C27.1022 13.7931 26.7206 13.6478 26.4393 13.3891C26.158 13.1304 26 12.7796 26 12.4138V8.27586C26 7.72714 26.2371 7.20089 26.659 6.81288C27.081 6.42488 27.6533 6.2069 28.25 6.2069H32.75C33.3467 6.2069 33.919 6.42488 34.341 6.81288C34.7629 7.20089 35 7.72714 35 8.27586V12.4138C35 12.7796 34.842 13.1304 34.5607 13.3891C34.2794 13.6478 33.8978 13.7931 33.5 13.7931V18.6207C33.5 18.9865 33.342 19.3373 33.0607 19.596C32.7794 19.8547 32.3978 20 32 20ZM28.25 7.58621C28.1498 7.58011 28.0493 7.59377 27.9553 7.62628C27.8613 7.65878 27.776 7.70937 27.705 7.77467C27.6339 7.83997 27.5789 7.91846 27.5436 8.0049C27.5082 8.09134 27.4934 8.18372 27.5 8.27586V12.4138H29V18.6207H32V12.4138H33.5V8.27586C33.5066 8.18372 33.4918 8.09134 33.4564 8.0049C33.4211 7.91846 33.3661 7.83997 33.295 7.77467C33.224 7.70937 33.1387 7.65878 33.0447 7.62628C32.9507 7.59377 32.8502 7.58011 32.75 7.58621H28.25ZM30.5 5.51724C29.9067 5.51724 29.3266 5.35545 28.8333 5.05233C28.3399 4.74921 27.9554 4.31837 27.7284 3.8143C27.5013 3.31023 27.4419 2.75556 27.5576 2.22044C27.6734 1.68532 27.9591 1.19378 28.3787 0.807983C28.7982 0.422183 29.3328 0.159449 29.9147 0.0530074C30.4967 -0.0534346 31.0999 0.00119526 31.648 0.209989C32.1962 0.418782 32.6648 0.772361 32.9944 1.22601C33.3241 1.67967 33.5 2.21302 33.5 2.75862C33.5 3.49025 33.1839 4.19192 32.6213 4.70926C32.0587 5.2266 31.2956 5.51724 30.5 5.51724ZM30.5 1.37931C30.2033 1.37931 29.9133 1.46021 29.6666 1.61177C29.42 1.76333 29.2277 1.97875 29.1142 2.23078C29.0006 2.48282 28.9709 2.76015 29.0288 3.02771C29.0867 3.29527 29.2296 3.54104 29.4393 3.73394C29.6491 3.92684 29.9164 4.05821 30.2074 4.11143C30.4983 4.16465 30.7999 4.13734 31.074 4.03294C31.3481 3.92854 31.5824 3.75175 31.7472 3.52493C31.912 3.2981 32 3.03142 32 2.75862C32 2.39281 31.842 2.04197 31.5607 1.7833C31.2794 1.52463 30.8978 1.37931 30.5 1.37931Z" fill="#FF6E1E"/>
</svg>
