<svg width="158" height="118" viewBox="0 0 158 118" fill="none" xmlns="http://www.w3.org/2000/svg">
<path d="M48.2922 30.6762C41.1681 40.6743 37.3154 50.642 37.0183 60.0902C36.685 69.5392 39.8979 78.4981 44.1405 87.7321C48.3839 96.9363 53.6881 106.414 60.8103 107.668C67.932 108.891 76.8733 101.919 86.6318 97.976C96.4251 94.0612 107.029 93.2048 113.64 87.3049C120.244 81.3727 122.82 70.3956 121.486 59.6928C120.122 48.9918 114.787 38.5599 106.605 28.7802C98.3911 18.9654 87.2687 9.79199 76.54 10.2197C65.7811 10.6484 55.3856 20.6768 48.2922 30.6762Z" fill="#E1B0E0"/>
<mask id="mask0_1183_2123" style="mask-type:luminance" maskUnits="userSpaceOnUse" x="0" y="0" width="158" height="118">
<path d="M157.546 0H0V118H157.546V0Z" fill="white"/>
</mask>
<g mask="url(#mask0_1183_2123)">
<mask id="mask1_1183_2123" style="mask-type:luminance" maskUnits="userSpaceOnUse" x="8" y="-12" width="142" height="142">
<path d="M8.36963 -11.3083H149.176V129.308H8.36963V-11.3083Z" fill="white"/>
</mask>
<g mask="url(#mask1_1183_2123)">
<path d="M45.1199 5.70619C44.5703 7.02194 44.0964 8.48885 43.768 10.0885C43.4395 11.6882 43.2566 13.4208 43.2894 15.2681C43.296 15.6433 43.3319 16.0182 43.3657 16.3931C43.3995 16.7679 43.4314 17.1428 43.4302 17.518C43.4276 18.3247 43.385 19.1206 43.3643 19.9145C43.3436 20.7084 43.345 21.5003 43.4302 22.299C43.5761 23.667 43.8949 24.8338 44.3172 25.8663C44.7394 26.8987 45.2649 27.7965 45.8239 28.6267C45.938 28.796 46.0415 28.9318 46.1351 29.0453C46.2288 29.1588 46.3127 29.2498 46.3872 29.3298C46.5097 29.4613 46.6118 29.6172 46.7026 29.7678C46.7934 29.9184 46.8729 30.0637 46.9504 30.1735C47.1574 30.4671 47.3207 30.7677 47.4738 31.0732C47.6268 31.3786 47.7699 31.6888 47.936 32.0015C48.0412 32.1994 48.172 32.3788 48.2992 32.5595C48.4263 32.7402 48.5498 32.9224 48.6401 33.1264C48.7353 33.3414 48.7924 33.5758 48.85 33.8152C48.9076 34.0545 48.9656 34.2985 49.0625 34.5326C49.142 34.7248 49.2644 34.9062 49.3441 35.0951C49.6678 35.862 49.9544 36.23 50.3298 36.9231C50.7841 37.762 51.2099 38.5756 51.597 39.3136C52.1186 40.308 52.626 41.5094 53.0051 42.4071C53.3826 43.3015 54.3751 45.6124 54.554 45.6413C55.3449 45.7694 56.0703 43.2394 56.2436 42.829C57.1307 40.7279 58.4074 37.3057 58.3557 34.8138C58.3215 33.165 57.6675 31.2981 57.2293 30.1735C57.0079 29.6051 56.7721 29.0609 56.5252 28.4861C55.2897 25.6089 54.4931 21.8009 52.8643 19.6272C52.6067 19.2836 52.4266 18.9212 52.301 18.6429C52.2798 18.5958 52.0538 18.5567 52.0194 18.5023C51.9371 18.372 51.9424 18.1906 51.8786 18.0805C51.6404 17.6696 51.4045 17.3698 51.1746 16.9555C50.7201 16.1366 50.3555 15.3487 50.0481 14.565C49.6926 13.6588 49.2958 12.7561 48.9217 11.8933C47.9224 9.58847 46.6194 7.502 45.2607 5.8468C45.2154 5.79154 45.2683 5.65697 45.1199 5.70619Z" fill="#FFCB6C"/>
<path d="M45.8247 10.3467C46.1953 12.818 46.9364 17.7608 48.0776 21.3148C49.1327 24.6004 51.4843 27.4014 52.3722 30.7361C53.6643 35.5888 54.2579 42.2906 54.5547 45.6415" stroke="#252424" stroke-width="2.86"/>
<path d="M36.39 32.7045C36.3319 32.738 36.2343 32.7393 36.1471 32.7491C36.0601 32.7589 35.9835 32.7774 35.9676 32.8451C35.9134 33.0759 36.0418 33.3504 36.2251 33.6057C36.4085 33.8611 36.6467 34.0972 36.8124 34.2513C36.8655 34.3007 36.9424 34.3118 37.0204 34.3225C37.0984 34.3331 37.1774 34.3435 37.2349 34.3919C37.3899 34.5224 37.4173 34.5997 37.4451 34.6762C37.4728 34.7527 37.5008 34.8281 37.6573 34.9544C37.7385 35.0199 37.8419 35.0617 37.9435 35.1013C38.0452 35.141 38.1453 35.1785 38.2205 35.2356C38.2544 35.2614 38.2716 35.3182 38.2892 35.3753C38.3068 35.4323 38.3251 35.4897 38.3613 35.5169C38.4258 35.5652 38.5034 35.5761 38.5789 35.5869C38.6543 35.5977 38.7276 35.6087 38.7837 35.6575C38.9628 35.8131 39.1693 36.0412 39.351 36.2746C39.5328 36.5079 39.6897 36.7465 39.7694 36.923C39.7795 36.9452 39.8412 36.9677 39.9047 36.9911C39.9682 37.0144 40.0335 37.0385 40.051 37.0636C40.5756 37.8194 41.0206 38.6474 41.4288 39.4876C41.837 40.3278 42.2083 41.1802 42.5855 41.9852C42.9196 42.6984 43.309 43.3581 43.7721 43.9139C44.2352 44.4698 44.7722 44.9216 45.4016 45.2194C45.8045 45.4099 46.1878 45.5356 46.5781 45.6389C46.9684 45.7419 47.3655 45.8225 47.7954 45.9225C48.3269 46.0461 48.9132 46.1631 49.4783 46.3137C50.0433 46.4643 50.5873 46.6486 51.0339 46.9068C51.0619 46.923 51.0823 46.9823 51.1032 47.0431C51.124 47.1038 51.1453 47.166 51.1747 47.188C51.2354 47.2335 51.3138 47.2482 51.3907 47.2619C51.4676 47.2755 51.5429 47.2879 51.5971 47.3287C51.8923 47.5505 52.1443 47.8142 52.355 48.1015C52.5656 48.3888 52.7347 48.6998 52.8644 49.0161C53.8772 51.4872 52.3483 56.5323 53.7092 58.7186C54.2747 59.627 54.9091 60.092 55.8213 60.5466C56.1866 60.7286 56.857 61.0642 57.3702 61.2497C57.6749 61.3598 59.1362 61.8193 59.2007 61.8122C59.4273 61.787 59.301 61.6014 59.6231 61.3903C59.8595 61.2355 60.149 61.2214 60.3272 61.1091C60.4899 61.0064 60.5537 60.8156 60.7496 60.6872C60.9639 60.5469 61.3276 60.487 61.4536 60.406C61.6153 60.3021 61.7376 60.0739 61.876 59.9841C62.0751 59.8551 62.356 59.8438 62.5801 59.7029C62.6403 59.665 62.6575 59.4691 62.7209 59.4217C62.8314 59.3389 63.0435 59.3446 63.1433 59.2811C64.2354 58.5859 65.5035 57.6389 66.5226 57.0312C66.7867 56.8737 66.9348 56.7072 67.0859 56.6094C67.3395 56.445 67.6322 56.4395 67.7899 56.3281C68.0221 56.164 68.0977 56.0152 68.2123 55.7657C68.7827 54.524 68.3659 51.0317 67.9307 50.141C66.3086 46.8217 60.7224 47.071 57.7926 45.0788C57.2267 44.6939 56.7367 44.1554 56.3846 43.6726C55.636 42.6464 55.2333 41.3406 54.8357 40.1572C54.7575 39.9248 54.5063 39.6846 54.4133 39.4541C54.2142 38.9613 54.1173 38.3978 53.85 37.9073C53.7709 37.7622 53.5324 37.6545 53.4276 37.4855C53.2913 37.2653 53.2857 36.9635 53.146 36.7824C52.9676 36.5512 52.5872 36.2142 52.3012 35.9387C51.4776 35.1452 50.6395 34.7094 49.485 34.3919C47.1041 33.7372 44.737 34.2483 41.8815 33.9701C39.7747 33.7648 38.3174 32.8512 36.8124 32.5639C36.5818 32.5199 36.4939 32.6446 36.39 32.7045Z" fill="#FFCB6C"/>
<path d="M63.9176 58.9294C61.3954 55.1328 56.3508 47.5396 51.5267 42.7585C47.7537 39.0194 41.539 35.4539 38.4316 33.6711" stroke="#CFA0E6" stroke-width="2.86"/>
</g>
<path d="M102.641 101.577L133.39 82.0454L91.9414 71.0903L102.641 101.577Z" fill="#E2E9FF"/>
<path d="M104.361 29.7694L58.9978 19.1948C58.6145 19.0849 58.2694 19.2145 58.0294 19.5062L58.0285 19.5048L55.5181 21.4564L57.6883 26.7014L57.6882 84.5111C57.6882 85.4921 58.2775 86.4636 58.9977 86.6703L98.5896 98.0324L102.5 101.577L105.049 99.6391L105.039 99.6211C105.416 99.4155 105.67 98.9238 105.67 98.2809L105.67 31.9285C105.67 30.9476 105.081 29.9761 104.361 29.7694Z" fill="#CFA0E6"/>
<path d="M101.741 101.71L56.5098 89.6163C55.7917 89.4244 55.2041 88.4648 55.2041 87.4839L55.2042 22.5275C55.2042 21.5467 55.7917 20.9012 56.5098 21.0931L101.741 31.7907C102.459 31.9826 103.047 32.9423 103.047 33.9231L103.046 100.275C103.046 101.256 102.459 101.902 101.741 101.71Z" fill="#E2E9FF"/>
<path d="M100.532 97.0617L58.7681 85.8953V26.1985L100.532 36.0262V97.0617Z" fill="white"/>
<path d="M100.532 97.0617L58.7681 85.8953V26.1985L100.532 36.0262V97.0617Z" stroke="#E2E9FF" stroke-width="1.63592" stroke-miterlimit="10"/>
<path d="M89.0586 27.864L88.667 27.7698C88.3539 25.8071 86.8981 24.0036 85.1999 23.5944L73.9536 20.8848C72.2554 20.4756 70.8723 21.5947 70.6538 23.4294L70.2622 23.3352C68.3764 22.8808 66.8783 24.3106 66.9331 26.5127C66.9879 28.7146 68.5756 30.888 70.4614 31.3423L89.2579 35.8714C91.1438 36.3259 92.6417 34.896 92.5869 32.6939C92.5322 30.4918 90.9444 28.3183 89.0586 27.864Z" fill="#CFA0E6"/>
<mask id="mask2_1183_2123" style="mask-type:luminance" maskUnits="userSpaceOnUse" x="8" y="23" width="142" height="141">
<path d="M8.36963 23.3054H149.176V163.922H8.36963V23.3054Z" fill="white"/>
</mask>
<g mask="url(#mask2_1183_2123)">
<path d="M76.7158 84.4426C76.7158 84.4426 78.4839 84.9054 80.979 85.5586" stroke="#E2E9FF" stroke-width="7.09852" stroke-linecap="round" stroke-linejoin="round"/>
<path d="M76.8135 79.605C76.8135 79.605 83.1025 81.2647 86.6314 82.196" stroke="#E2E9FF" stroke-width="7.09852" stroke-linecap="round" stroke-linejoin="round"/>
<path d="M70.2816 85.3428L62.4101 83.2545L62.4058 74.4341L70.2773 76.5224L70.2816 85.3428Z" fill="#BF4DE7"/>
</g>
<mask id="mask3_1183_2123" style="mask-type:luminance" maskUnits="userSpaceOnUse" x="8" y="7" width="142" height="142">
<path d="M8.36963 7.62646H149.176V148.243H8.36963V7.62646Z" fill="white"/>
</mask>
<g mask="url(#mask3_1183_2123)">
<path d="M76.7158 68.7637L97.1145 74.1034" stroke="#E2E9FF" stroke-width="7.09852" stroke-linecap="round" stroke-linejoin="round"/>
<path d="M76.8135 63.926L88.9643 67.1326" stroke="#E2E9FF" stroke-width="7.09852" stroke-linecap="round" stroke-linejoin="round"/>
<path d="M70.2816 69.6639L62.4101 67.5756L62.4058 58.7551L70.2773 60.8434L70.2816 69.6639Z" fill="#BF4DE7"/>
</g>
<mask id="mask4_1183_2123" style="mask-type:luminance" maskUnits="userSpaceOnUse" x="8" y="-8" width="142" height="141">
<path d="M8.36963 -7.91162H149.176V132.705H8.36963V-7.91162Z" fill="white"/>
</mask>
<g mask="url(#mask4_1183_2123)">
<path d="M76.7158 53.2258L97.1145 58.5656" stroke="#E2E9FF" stroke-width="7.09852" stroke-linecap="round" stroke-linejoin="round"/>
<path d="M76.8135 48.3882L88.9643 51.5948" stroke="#E2E9FF" stroke-width="7.09852" stroke-linecap="round" stroke-linejoin="round"/>
<path d="M70.2816 54.126L62.4101 52.0377L62.4058 43.2173L70.2773 45.3056L70.2816 54.126Z" fill="#BF4DE7"/>
<path d="M64.0728 47.4504L65.8635 50.5724L68.1978 47.557" stroke="white" stroke-width="7.90933" stroke-linecap="round" stroke-linejoin="round"/>
</g>
<path d="M87.8472 28.8634L87.4556 28.7691C87.1426 26.8064 85.6866 25.003 83.9885 24.5938L72.7423 21.884C71.044 21.4749 69.6609 22.5941 69.4423 24.4287L69.0508 24.3345C67.1649 23.8802 65.6669 25.31 65.7217 27.512C65.7764 29.7139 67.3643 31.8873 69.2501 32.3416L88.0464 36.8708C89.9324 37.3252 91.4303 35.8953 91.3757 33.6933C91.3207 31.4912 89.733 29.3177 87.8472 28.8634Z" fill="#8446FF"/>
<path d="M70.3921 26.249L86.241 30.3502" stroke="white" stroke-width="4.43872" stroke-linecap="round" stroke-linejoin="round"/>
<path d="M63.4265 60.4934L65.8307 53.1817L58.5986 56.5803C57.4934 58.5666 62.1498 61.8739 63.4265 60.4934Z" fill="#FAE6C5"/>
<path d="M66.1769 52.7336L64.7703 56.2517C64.7001 55.1384 64.1715 54.4243 62.8502 54.4013L66.1769 52.7336Z" fill="#252424"/>
<path d="M39.5503 84.3723C39.5658 84.3579 39.5801 84.3427 39.5952 84.328L39.5963 84.329L44.2284 79.9532C45.5201 78.733 45.6185 76.7959 44.4482 75.6269C43.2778 74.4577 41.2819 74.4992 39.99 75.7195L35.3579 80.0952L35.359 80.0963C35.3434 80.1104 35.3276 80.1241 35.3121 80.1385C34.0203 81.3589 34.9493 82.4459 36.1197 83.6151C37.29 84.7842 38.2586 85.5927 39.5503 84.3723Z" fill="#BF4DE7"/>
<path d="M37.5481 77.2955L58.3413 57.7218C59.5948 57.3123 60.5959 57.8172 61.218 59.6933L41.9676 77.3963C40.7166 75.0814 39.1289 76.2238 37.5481 77.2955Z" fill="#BF4DE7"/>
<path d="M61.1183 59.6363C61.6135 59.6814 62.7736 59.5322 63.144 61.3507L42.9624 80.4546C42.409 78.478 41.2391 77.6689 41.2391 77.6689L61.1183 59.6363Z" fill="#CFA0E6"/>
<path d="M41.8039 82.2696C41.786 82.2811 41.8335 82.2399 41.8487 82.2252L41.8498 82.2263L43.9068 80.2621C45.1047 78.8887 41.2739 74.4006 39.8251 75.7146C39.8094 75.7288 39.8563 75.6865 39.8721 75.6724L39.8708 75.6713L37.5024 77.9049L37.5033 77.9058C37.4877 77.9201 37.4379 77.9591 37.4563 77.948C38.8286 77.1311 43.2406 81.3386 41.8039 82.2696Z" fill="#FBE7C6"/>
<path d="M55.635 97.4833C53.5147 96.8137 49.9475 96.8393 47.6677 97.5401C47.2785 97.6598 46.9535 97.7914 46.6902 97.9307C45.2051 97.6631 43.2143 97.7395 41.8638 98.1547C40.2617 98.6472 40.1707 99.4279 41.6606 99.8984C43.0923 100.35 45.4607 100.35 47.0652 99.9124C47.1639 99.9498 47.2673 99.9864 47.3784 100.022C49.4986 100.691 53.0657 100.666 55.3456 99.9646C57.6257 99.2638 57.7552 98.1529 55.635 97.4833Z" fill="#E2E9FF"/>
<path d="M52.0837 97.3273L53.7053 97.5987C54.893 97.4378 55.5233 96.9472 55.9086 97.355L55.9825 97.7519C56.1257 98.0358 55.9006 98.4912 55.4642 98.6606L53.7393 99.261L53.2168 99.1634L53.2069 99.666L52.2352 99.9481C51.6046 100.097 50.9425 99.8803 50.939 99.3169C50.939 99.3169 50.9423 97.7414 51.2302 97.6791C51.8083 97.5537 51.5792 97.4468 52.0837 97.3273Z" fill="#8446FF"/>
<path d="M52.9258 98.0977C52.9178 98.7579 51.3094 98.7387 51.3174 98.0783L51.3433 95.9324L52.9516 95.9516L52.9258 98.0977Z" fill="#DE8E68"/>
<path d="M53.6719 96.2633C53.0355 96.9539 51.5589 96.7948 51.2682 96.2551C51.2463 93.2398 50.3332 89.9408 51.7984 85.9438C51.7984 85.9438 52.1836 84.9292 53.4853 85.1484C54.782 85.3668 55.089 86.5222 55.089 86.5222L53.6719 96.2633Z" fill="#252424"/>
<path d="M51.3233 86.2627L48.0999 74.3607C48.0999 74.3607 48.4244 72.1247 51.3172 71.978C54.3378 71.8248 54.3953 74.1521 54.3953 74.1521L54.8241 85.8436C54.8241 85.8436 53.0489 88.7569 51.3233 86.2627Z" fill="#252424"/>
<path d="M42.5216 95.3171L42.5444 96.806C42.8823 97.8377 43.6569 97.9596 43.3558 98.3693L43.1152 98.7809C42.8603 99.0394 42.1457 98.5633 41.9696 98.3367L40.9938 96.7406L40.7539 96.5323L40.4852 96.4873C40.331 96.1369 39.6709 95.835 39.8122 95.4932C39.8876 95.3107 40.5134 94.8338 40.6522 94.707C40.6522 94.707 41.0955 94.2673 41.3203 94.2612C41.8564 94.2466 42.3323 94.8873 42.5216 95.3171Z" fill="#8446FF"/>
<path d="M42.3371 95.062C42.03 95.5922 40.528 95.0807 40.8351 94.5504L41.8332 92.8271L43.335 93.3388L42.3371 95.062Z" fill="#DE8E68"/>
<path d="M43.5535 94.2837C42.6991 94.6255 41.6912 93.1949 41.6177 92.6603C42.801 90.2297 43.7336 86.612 46.4201 85.5057C46.4201 85.5057 47.2119 84.9269 48.0271 85.3826C49.1785 86.0261 48.8346 87.043 48.8346 87.043C48.7522 87.2215 48.1916 88.5287 48.0676 88.6825L43.5535 94.2837Z" fill="#252424"/>
<path d="M45.6402 85.7286L45.5156 78.6628C45.2271 77.6482 45.2922 76.7651 45.4952 75.1183C45.4952 75.1183 46.4337 73.5276 48.4225 73.7169C50.5874 73.923 50.2712 76.2607 50.2712 76.2607L48.5082 86.1732C48.4723 86.3758 45.8109 88.0958 45.6402 85.7286Z" fill="#252424"/>
<path d="M53.169 59.9704C52.8302 61.1467 51.4312 61.4458 50.5745 60.5712C49.7179 59.6966 49.2981 58.0341 49.6369 56.8578C49.9756 55.6815 50.9448 55.4369 51.8014 56.3115C52.6581 57.1861 53.5078 58.7941 53.169 59.9704Z" fill="#DE8E68"/>
<path d="M49.4915 63.2937L49.3585 63.2594C48.9089 63.1433 48.6361 62.6811 48.7524 62.2319L49.4084 59.7004C49.5247 59.2514 49.9877 58.9792 50.4373 59.0955L50.5704 59.1298C51.02 59.2459 51.2926 59.7084 51.1763 60.1573L50.9038 62.6823C50.7876 63.1313 49.941 63.4099 49.4915 63.2937Z" fill="#DE8E68"/>
<path d="M48.4027 59.5217C48.4027 59.5217 48.4488 60.4028 50.1263 60.7848C50.6355 60.9008 51.3568 60.2862 51.2792 59.7146C51.2255 59.3178 50.9338 59.3129 50.9433 59.1022C50.9524 58.8982 51.9726 58.9614 52.1273 58.8568C52.2452 58.777 51.1389 58.006 51.1598 57.9886C51.1923 57.9765 52.7186 58.5782 52.8484 58.5411C54.0385 58.2019 53.5987 57.0881 53.0883 56.493C52.8309 56.1927 51.4232 54.7717 52.2647 56.1035C52.6526 56.7174 51.5588 55.7514 50.9389 55.7306C49.7359 55.6905 47.5417 55.9817 48.4027 59.5217Z" fill="#8446FF"/>
<path d="M51.8953 59.3911C51.814 59.6738 51.4897 59.8096 51.1706 59.6945C50.8516 59.5792 50.659 59.2569 50.7402 58.9742C50.8213 58.6916 51.1458 58.5557 51.4648 58.6709C51.7837 58.786 51.9764 59.1084 51.8953 59.3911Z" fill="#DE8E68"/>
<path d="M50.9699 61.1185L50.8247 60.8181C50.8247 60.8181 51.0749 61.0625 51.5364 61.0511C51.5364 61.0511 51.2674 61.1684 50.9699 61.1185Z" fill="#B94141"/>
<path d="M44.8906 75.5289C45.0285 72.3369 45.5089 70.2514 45.3529 67.4918C45.4133 62.2183 46.073 61.9923 47.2379 61.6582L48.4026 61.5286C48.7644 61.5973 49.0995 61.7635 49.4571 61.851C50.9546 62.2169 51.9146 62.2983 52.9902 62.88C53.948 63.3979 54.0038 64.7824 54.0014 65.9421C54.2602 69.3412 54.3286 74.4583 54.3768 76.1361C53.8321 78.5381 45.8019 77.155 44.8906 75.5289Z" fill="#FFBC42"/>
<path d="M54.1165 66.3386L53.238 67.2853C52.2066 71.442 52.6845 75.6562 50.9932 77.4293C52.028 77.4265 52.9763 77.2906 53.6776 76.7755C53.7152 76.7801 54.0387 76.4928 54.0858 75.9744L54.1165 66.3386Z" fill="#EEB040"/>
<path d="M48.2051 61.4581C48.2051 61.4581 47.8134 61.64 49.3548 61.9447C50.4333 62.1579 51.2183 62.2907 51.2183 62.2907C51.2183 62.2907 50.2264 61.2526 48.2051 61.4581Z" fill="#FBE7C6"/>
<path d="M57.2852 67.718L57.2854 67.7182C57.7059 68.0647 58.3279 68.0392 58.6678 67.6612L59.4902 66.747C59.8302 66.3691 59.7645 65.7762 59.3441 65.4294L59.3437 65.4293C58.9235 65.0828 58.3013 65.1087 57.9613 65.4866L57.1391 66.4004C56.799 66.7785 56.8647 67.3714 57.2852 67.718Z" fill="#DE8E68"/>
<path d="M58.2411 68.3331C58.2411 68.3331 55.8006 71.7308 54.6039 72.3433C53.4071 72.9558 52.1314 70.632 52.1314 70.632L56.8178 66.9757L58.2411 68.3331Z" fill="#DE8E68"/>
<path d="M50.4744 65.7346L52.1493 71.7752C52.3564 73.2592 56.1385 72.9616 55.7119 71.2122C55.685 71.1019 53.4859 63.6545 53.4859 63.6545C53.4859 63.6545 50.5247 61.4963 50.4744 65.7346Z" fill="#FFBC42"/>
<path d="M52.5528 70.7996C53.0919 71.6805 55.061 71.5895 55.52 70.6211" stroke="#FBE7C6" stroke-width="2.02631" stroke-linecap="round" stroke-linejoin="round"/>
</g>
</svg>
