<svg width="243" height="243" viewBox="0 0 243 243" fill="none" xmlns="http://www.w3.org/2000/svg">
<g opacity="0.2">
<mask id="mask0_1629_2414" style="mask-type:luminance" maskUnits="userSpaceOnUse" x="0" y="0" width="243" height="243">
<path d="M243 0H0V243H243V0Z" fill="white"/>
</mask>
<g mask="url(#mask0_1629_2414)">
<path d="M120.839 16.3684C177.246 16.3684 222.972 62.0952 222.972 118.502C222.972 174.908 177.246 220.635 120.839 220.635C64.4324 220.635 18.7057 174.908 18.7057 118.502C18.7057 62.0952 64.4324 16.3684 120.839 16.3684Z" fill="#9C73F8"/>
<path d="M124.983 222.218C124.983 222.218 108.466 187.04 85.8018 171.788C63.129 156.536 49.1326 189.534 49.1326 189.534C49.1326 189.534 78.6688 223.143 124.983 222.218Z" fill="#9C73F8"/>
<path d="M151.667 70.902C151.667 70.902 159.489 85.866 161.696 103.821C172.701 113.64 171.898 118.245 171.898 118.245C171.898 118.245 169.361 121.898 160.387 125.291C160.152 132.86 156.315 151.164 147.429 157.155C142.214 160.678 132.822 162.248 124.834 159.082C120.745 157.461 108.379 184.773 107.699 195.603C107.019 206.443 104.821 214.91 88.3917 195.603C71.9713 176.296 59.606 162.919 67.5676 149.551C75.5293 136.174 97.9057 129.869 97.9057 129.869C97.9057 129.869 75.1628 127.645 84.8512 110.144C91.0516 98.9291 101.098 113.658 101.098 113.658C101.098 113.658 92.8046 81.6538 102.789 81.8283C112.783 81.9852 145.572 70.3873 151.667 70.902Z" fill="#ED509E"/>
<path d="M152.643 92.9557C152.643 92.9557 147.656 91.4034 142.214 96.6182" stroke="#FF8E3A" stroke-width="5.383" stroke-linecap="round" stroke-linejoin="round"/>
<path d="M145.772 106.437C145.772 106.437 147.646 108.679 151.379 108.042C153.89 107.615 154.562 104.632 154.562 104.632" stroke="#3D3E00" stroke-width="3" stroke-linecap="round" stroke-linejoin="round"/>
<path d="M145.327 134.264C145.327 134.264 152.923 144.145 158.87 135.381L145.327 134.264Z" fill="#FF8E3A"/>
<path d="M88.4787 114.992C88.4787 114.992 90.7813 109.76 95.1675 111.984C99.5366 114.199 99.2747 120.077 99.2747 120.077C99.2747 120.077 94.7398 114.338 92.6121 120.077" stroke="#3D3E00" stroke-width="2.691" stroke-linecap="round" stroke-linejoin="round"/>
<path d="M145.851 74.9047C145.851 74.9047 142.554 89.9736 114.876 101.72C101.76 107.283 102.266 115.69 102.266 115.69C102.266 115.69 93.24 99.3913 86.072 110.248C75.8432 125.727 97.9144 129.869 97.9144 129.869C97.9144 129.869 85.0782 154.338 88.0778 175.564C89.1941 183.491 92.4552 191.365 99.2834 198.054C123.988 222.226 133.171 221.808 133.171 221.808C133.171 221.808 89.6475 229.508 50.6762 191.156C34.1075 172.703 31.3256 163.085 31.3256 163.085C31.3256 163.085 56.0562 141.746 61.1927 120.085C66.3293 98.4232 70.5584 79.7963 75.3898 72.4975C80.2211 65.1988 136.964 64.7278 150.594 70.3961C155.897 73.0209 145.851 74.9047 145.851 74.9047Z" fill="#FF8E3A"/>
<path d="M114.561 66.4979C135.29 66.4979 152.094 68.9226 152.094 71.9134C152.094 74.9043 135.29 77.3289 114.561 77.3289C93.8325 77.3289 77.0286 74.9043 77.0286 71.9134C77.0286 68.9226 93.8325 66.4979 114.561 66.4979Z" fill="#FF8E3A"/>
<g opacity="0.59">
<path d="M114.561 66.4979C135.29 66.4979 152.094 68.9226 152.094 71.9134C152.094 74.9043 135.29 77.3289 114.561 77.3289C93.8325 77.3289 77.0286 74.9043 77.0286 71.9134C77.0286 68.9226 93.8325 66.4979 114.561 66.4979Z" fill="#FF8E3A"/>
</g>
<path d="M117.16 77.329C117.16 77.329 114.352 91.2383 96.9988 108.165" stroke="#FF8E3A" stroke-width="2.691" stroke-linecap="round" stroke-linejoin="round"/>
<path d="M91.7315 76.213C91.7315 76.213 82.7235 77.8353 77.0378 101.406C66.6345 144.52 39.0433 175.643 39.0433 175.643" stroke="#FF8E3A" stroke-width="2.691" stroke-linecap="round" stroke-linejoin="round"/>
<path d="M96.1177 130.428C59.4485 193.197 110.646 220.867 110.646 220.867" stroke="#FF8E3A" stroke-width="2.691" stroke-linecap="round" stroke-linejoin="round"/>
<path d="M75.782 209.146C75.782 209.146 70.8024 179.846 86.787 150.572" stroke="#FF8E3A" stroke-width="2.691" stroke-linecap="round" stroke-linejoin="round"/>
<path d="M66.8527 203.714C66.8527 203.714 68.7184 185.557 79.305 168.596" stroke="#FF8E3A" stroke-width="2.691" stroke-linecap="round" stroke-linejoin="round"/>
<path d="M123.988 158.699C112.8 152.184 108.684 144.493 108.684 144.493" stroke="#3D3E00" stroke-width="2.691" stroke-linecap="round" stroke-linejoin="round"/>
<path d="M108.187 143.046C108.187 143.046 102.815 162.736 115.66 171.256C119.872 162.3 124.067 159.013 124.067 159.013C124.067 159.013 114.919 156.03 108.187 143.046Z" fill="#ED509E"/>
<path d="M90.7901 44.5223C91.1041 44.8101 103.565 72.271 100.374 76.6051" stroke="#3D3E00" stroke-width="1.794" stroke-linecap="round" stroke-linejoin="round"/>
<path d="M88.104 43.2496C88.104 43.2496 89.4206 46.8859 91.7315 47.5313" stroke="#3D3E00" stroke-width="2.691" stroke-linecap="round" stroke-linejoin="round"/>
<path d="M87.5806 46.8864C87.5806 46.8864 91.2431 51.1418 93.3446 50.6883" stroke="#3D3E00" stroke-width="2.691" stroke-linecap="round" stroke-linejoin="round"/>
<path d="M90.4062 55.0137C90.4062 55.0137 94.2514 58.5887 96.4579 58.2835" stroke="#3D3E00" stroke-width="2.691" stroke-linecap="round" stroke-linejoin="round"/>
<path d="M93.2401 62.452C93.2401 62.452 95.4553 64.9287 98.7951 65.2514" stroke="#3D3E00" stroke-width="2.691" stroke-linecap="round" stroke-linejoin="round"/>
<path d="M94.2602 67.1783C94.2602 67.1783 97.6355 69.2103 99.5887 68.5299" stroke="#3D3E00" stroke-width="2.691" stroke-linecap="round" stroke-linejoin="round"/>
<path d="M92.2025 42.3165C92.2025 42.3165 93.1443 45.0022 92.2025 46.8859" stroke="#3D3E00" stroke-width="2.691" stroke-linecap="round" stroke-linejoin="round"/>
<path d="M94.7486 45.6826C94.7486 45.6826 94.7054 47.8278 93.6503 50.0255" stroke="#3D3E00" stroke-width="2.691" stroke-linecap="round" stroke-linejoin="round"/>
<path d="M95.795 49.537C95.795 49.537 97.1121 52.868 95.429 54.5248C93.8073 56.1208 88.9059 51.5077 88.9059 51.5077" stroke="#3D3E00" stroke-width="2.691" stroke-linecap="round" stroke-linejoin="round"/>
<path d="M98.0977 54.1764C98.0977 54.1764 98.3771 56.828 96.4584 58.2928" stroke="#3D3E00" stroke-width="2.691" stroke-linecap="round" stroke-linejoin="round"/>
<path d="M100.19 56.3566C100.19 56.3566 100.618 61.1267 97.6612 61.5888C95.7512 61.8853 92.2025 58.8332 92.2025 58.8332" stroke="#3D3E00" stroke-width="2.691" stroke-linecap="round" stroke-linejoin="round"/>
<path d="M101.629 60.2197C101.629 60.2197 101.908 63.4808 99.5887 65.9399" stroke="#3D3E00" stroke-width="2.691" stroke-linecap="round" stroke-linejoin="round"/>
<path d="M103.513 65.2512C103.513 65.2512 103.312 69.2272 100.888 70.361" stroke="#3D3E00" stroke-width="2.691" stroke-linecap="round" stroke-linejoin="round"/>
<path d="M103.957 70.6663C103.957 70.6663 103.958 74.1548 101.036 75.3756" stroke="#3D3E00" stroke-width="2.691" stroke-linecap="round" stroke-linejoin="round"/>
<path d="M42.2781 64.3182C42.2781 64.3182 55.2455 55.075 66.2243 60.7432C77.203 66.4114 80.0116 74.0242 80.0116 74.0242L82.34 74.6871C82.34 74.6871 78.4331 58.0921 65.1692 55.0138C51.9052 51.9355 42.2781 64.3182 42.2781 64.3182Z" fill="#9C73F8"/>
<path d="M68.2475 44.017C68.6227 43.3628 90.4412 57.054 83.6829 74.983C78.4418 67.2045 77.6307 54.4116 68.2475 44.017Z" fill="#FF8E3A"/>
<path d="M86.2811 27.928C86.2811 27.928 71.4741 47.2173 78.5376 61.1262C83.8569 71.6169 93.2401 75.3664 93.2401 75.3664C93.2401 75.3664 93.9025 68.7481 89.6558 61.2224C85.8884 54.5428 81.8599 44.1307 86.2811 27.928Z" fill="#3D3E00"/>
<path d="M84.9732 31.2941C84.9732 31.2941 77.43 43.6506 85.7231 58.2923C91.7922 69.0096 93.275 75.9166 93.275 75.9166" stroke="#3D3E00" stroke-width="1.794" stroke-linecap="round" stroke-linejoin="round"/>
<path d="M94.7486 33.9451C94.7486 33.9451 95.411 50.6013 99.9372 55.0137C104.463 59.426 105.972 58.1965 107.088 66.1144C108.693 48.5256 101.402 44.0432 94.7486 33.9451Z" fill="#FF8E3A"/>
<path d="M113.297 30.1338C113.297 30.1338 109.286 43.127 113.978 54.237C118.669 65.3469 112.041 75.2793 108.047 77.1893C113.506 70.9019 109.016 57.7862 108.047 53.6615C107.088 49.5369 106.792 45.7256 113.297 30.1338Z" fill="#9C73F8"/>
<path d="M132.717 76.2126C132.717 76.2126 134.427 72.2449 140.278 61.1175C146.129 49.99 141.717 37.0405 141.717 37.0405C141.717 37.0405 144.019 46.3805 137.304 56.6268C130.59 66.8731 129.002 73.492 130.973 75.7942C132.281 77.329 132.717 76.2126 132.717 76.2126Z" fill="#3D3E00"/>
<path d="M150.978 46.8864C150.978 46.8864 143.321 51.5077 143.574 62.452C143.879 75.3757 134.618 75.9074 134.618 75.9074" stroke="#3D3E00" stroke-width="1.794" stroke-linecap="round" stroke-linejoin="round"/>
<path d="M146.26 72.7595C150.995 55.5541 170.311 49.6852 170.311 49.6852C170.311 49.6852 159.846 46.3886 150.245 55.9813C141.882 64.3444 145.789 74.9742 145.789 74.9742L146.26 72.7595Z" fill="#9C73F8"/>
<path d="M136.956 25.8176C136.956 25.8176 119.001 37.5025 122.994 76.6746" stroke="#3D3E00" stroke-width="1.794" stroke-linecap="round" stroke-linejoin="round"/>
<path d="M134.801 24.7889C134.801 24.7889 132.029 27.5533 132.316 29.6635" stroke="#3D3E00" stroke-width="2.691" stroke-linecap="round" stroke-linejoin="round"/>
<path d="M130.607 26.8728C130.607 26.8728 128.802 29.8466 130.607 32.4365" stroke="#3D3E00" stroke-width="2.691" stroke-linecap="round" stroke-linejoin="round"/>
<path d="M127.825 30.1344C127.825 30.1344 125.758 33.0295 128.061 36.4825" stroke="#3D3E00" stroke-width="2.691" stroke-linecap="round" stroke-linejoin="round"/>
<path d="M124.904 33.3085C124.904 33.3085 123.919 37.5114 126.683 39.9706" stroke="#3D3E00" stroke-width="2.691" stroke-linecap="round" stroke-linejoin="round"/>
<path d="M122.462 36.4825C122.462 36.4825 122.297 41.1656 124.904 44.5229" stroke="#3D3E00" stroke-width="2.691" stroke-linecap="round" stroke-linejoin="round"/>
<path d="M121.276 41.8368C121.276 41.8368 121.52 47.3568 123.674 49.537" stroke="#3D3E00" stroke-width="2.691" stroke-linecap="round" stroke-linejoin="round"/>
<path d="M119.48 46.2498C119.48 46.2498 119.663 51.656 123.02 55.0133" stroke="#3D3E00" stroke-width="2.691" stroke-linecap="round" stroke-linejoin="round"/>
<path d="M118.503 52.2751C118.503 52.2751 119.637 56.2433 122.488 58.8332" stroke="#3D3E00" stroke-width="2.691" stroke-linecap="round" stroke-linejoin="round"/>
<path d="M117.919 57.8907C117.919 57.8907 119.401 61.9459 122.235 63.8297" stroke="#3D3E00" stroke-width="2.691" stroke-linecap="round" stroke-linejoin="round"/>
<path d="M117.919 62.452C117.919 62.452 118.468 68.1722 122.157 70.6664" stroke="#3D3E00" stroke-width="2.691" stroke-linecap="round" stroke-linejoin="round"/>
<path d="M136.738 27.928C136.738 27.928 135.055 30.0907 132.849 29.7942" stroke="#3D3E00" stroke-width="2.691" stroke-linecap="round" stroke-linejoin="round"/>
<path d="M136.145 30.1339C136.145 30.1339 134.183 32.6893 131.209 32.4973" stroke="#3D3E00" stroke-width="2.691" stroke-linecap="round" stroke-linejoin="round"/>
<path d="M135.412 33.3085C135.412 33.3085 133.929 36.0728 128.758 36.3168" stroke="#3D3E00" stroke-width="2.691" stroke-linecap="round" stroke-linejoin="round"/>
<path d="M132.857 37.8691C132.857 37.8691 130.607 40.4245 126.962 39.9711" stroke="#3D3E00" stroke-width="2.691" stroke-linecap="round" stroke-linejoin="round"/>
<path d="M132.281 40.8774C132.281 40.8774 129.238 44.1215 126.404 42.6737" stroke="#3D3E00" stroke-width="2.691" stroke-linecap="round" stroke-linejoin="round"/>
<path d="M131.985 43.6418C131.985 43.6418 128.636 47.3568 125.279 45.892" stroke="#3D3E00" stroke-width="2.691" stroke-linecap="round" stroke-linejoin="round"/>
<path d="M131.732 46.2498C131.732 46.2498 127.119 51.9792 123.988 50.3832" stroke="#3D3E00" stroke-width="2.691" stroke-linecap="round" stroke-linejoin="round"/>
<path d="M131.732 49.537C131.732 49.537 127.067 55.5449 123.683 54.9782" stroke="#3D3E00" stroke-width="2.691" stroke-linecap="round" stroke-linejoin="round"/>
<path d="M129.683 55.3014C129.683 55.3014 126.09 60.5074 122.942 60.4724" stroke="#3D3E00" stroke-width="2.691" stroke-linecap="round" stroke-linejoin="round"/>
<path d="M129.683 58.772C129.683 58.772 125.409 63.2981 123.125 62.9404" stroke="#3D3E00" stroke-width="2.691" stroke-linecap="round" stroke-linejoin="round"/>
<path d="M127.52 63.8297C127.52 63.8297 124.642 66.7943 122.619 66.6811" stroke="#3D3E00" stroke-width="2.691" stroke-linecap="round" stroke-linejoin="round"/>
<path d="M103.513 76.6747C103.513 76.6747 108.082 71.6087 106.643 61.1354" stroke="#9C73F8" stroke-width="1.794" stroke-linecap="round" stroke-linejoin="round"/>
</g>
</g>
</svg>
