<svg width="259" height="154" viewBox="0 0 259 154" fill="none" xmlns="http://www.w3.org/2000/svg">
<g opacity="0.2" clip-path="url(#clip0_1624_673)">
<mask id="mask0_1624_673" style="mask-type:luminance" maskUnits="userSpaceOnUse" x="0" y="0" width="259" height="154">
<path d="M259 0H0V154H259V0Z" fill="white"/>
</mask>
<g mask="url(#mask0_1624_673)">
<path d="M127.944 84.4076C123.392 85.0439 118.852 82.1292 114.436 82.5872C112.778 84.6013 109.418 89.2716 106.567 96.9594C105.13 100.838 104.838 106.293 104.943 111.853C105.551 114.857 105.939 117.903 106.083 120.966C106.232 124.434 107.46 128.131 107.508 131.827C107.555 135.623 105.565 139.128 106.744 140.206C110.477 143.627 149.147 141.349 153.17 140.206C154.707 139.767 151.861 136.366 151.515 130.765C151.317 127.503 151.305 124.233 151.482 120.97C151.69 117.329 152.107 113.702 152.731 110.109C152.777 110.104 152.825 110.098 152.872 110.092C149.818 99.7403 143.768 88.996 139.841 82.6585C136.405 83.3069 131.562 84.4214 127.944 84.4076Z" fill="#FFB887"/>
<path d="M172.574 121.701L162.263 98.9726L153.342 110.189L162.07 126.306C163.195 128.844 166.158 129.994 168.699 128.88L169.996 128.307C172.527 127.203 173.685 124.253 172.583 121.718L172.576 121.701L172.574 121.701Z" fill="#FFB887"/>
<path d="M162.312 123.258C162.334 123.19 162.358 123.122 162.383 123.053L173.435 94.3494C173.456 94.296 173.484 94.2507 173.506 94.1964L173.871 93.3707L173.871 93.3521C175.647 95.2822 178.665 95.9207 181.155 96.086L172.955 124.997C172.029 128.208 168.685 130.062 165.477 129.145C165.415 129.127 165.354 129.109 165.295 129.09C162.865 128.308 161.528 125.704 162.307 123.27L162.312 123.258Z" fill="#FED8BE"/>
<path d="M175.134 94.3906C176.97 95.44 179.037 96.0233 181.15 96.0904L180.047 99.9784C177.617 99.0018 175.794 96.9279 175.134 94.3906Z" fill="#FFB887"/>
<path d="M175.821 89.2736C176.821 91.3857 179.161 92.1909 181.046 91.0701C181.46 90.8246 181.829 90.497 182.138 90.1043L184.267 87.3847C184.72 86.8718 184.792 86.0732 184.439 85.4692C184.038 84.7868 183.233 84.571 182.6 84.9793L179.468 86.9855L175.822 89.2754L175.821 89.2736Z" fill="#FED8BE"/>
<path d="M173.769 93.9124C173.625 92.3335 174.12 90.7635 175.118 89.6353C175.163 89.5979 175.211 89.5641 175.259 89.5339L175.242 89.4759C177.223 87.9336 181.39 88.2775 184.173 88.7321C185.881 89.0132 187.576 88.1382 188.496 86.5019C189.185 85.2842 190.625 84.9214 191.712 85.6929C192.464 86.2269 192.88 87.1955 192.782 88.1876C192.739 88.6074 192.605 89.0101 192.392 89.3575L189.019 94.8657C188.511 95.6941 187.655 96.1655 186.76 96.1109L181.414 97.0419L181.4 97.099C178.79 96.9094 175.631 96.1682 173.769 93.9124Z" fill="#FED8BE"/>
<g opacity="0.3">
<path d="M188.305 89.3715C188.103 91.5017 184.246 93.235 182.588 92.5171" stroke="#FFB887" stroke-width="1.03984" stroke-miterlimit="10" stroke-linecap="round"/>
</g>
<path d="M86.3853 121.738L96.6462 98.9881L105.592 110.185L96.8988 126.319C95.7792 128.86 92.8194 130.017 90.2761 128.908L88.9774 128.338C86.4438 127.24 85.2786 124.292 86.3755 121.755L86.3836 121.738L86.3853 121.738Z" fill="#FFB887"/>
<path d="M96.6507 123.282C96.6285 123.214 96.6046 123.146 96.5791 123.077L85.4402 94.407C85.4181 94.3536 85.3895 94.3084 85.3673 94.2542L84.9998 93.4296L84.9997 93.411C83.2305 95.3465 80.2136 95.9941 77.7249 96.1669L86.0119 125.053C86.948 128.261 90.2977 130.105 93.5031 129.178C93.5645 129.16 93.6267 129.142 93.6857 129.123C96.1124 128.334 97.4422 125.725 96.6556 123.294L96.6507 123.282Z" fill="#FED8BE"/>
<path d="M83.7429 94.4599C81.9091 95.5143 79.8445 96.1031 77.7307 96.1759L78.8447 100.061C81.2721 99.0777 83.0896 96.9989 83.7429 94.4599Z" fill="#FFB887"/>
<path d="M82.9238 89.3768C81.9093 91.299 79.531 92.0342 77.6115 91.0183C77.1909 90.7957 76.8145 90.4993 76.5003 90.1427L74.3316 87.6726C73.8697 87.207 73.7957 86.481 74.1543 85.9312C74.5605 85.3101 75.3799 85.1133 76.0235 85.4835L79.2119 87.3024L82.923 89.3776L82.9238 89.3768Z" fill="#FED8BE"/>
<path d="M85.0172 93.5913C85.1621 92.1554 84.6571 90.7286 83.6401 89.7045C83.5939 89.6706 83.5461 89.6399 83.4958 89.6125L83.5143 89.5597C81.4966 88.1606 77.2581 88.4803 74.428 88.8982C72.6918 89.1567 70.9665 88.3639 70.0283 86.8775C69.3267 85.7714 67.8625 85.4439 66.7572 86.1473C65.9921 86.6341 65.5705 87.5155 65.6717 88.4174C65.7149 88.799 65.8527 89.165 66.0705 89.4805L69.5073 94.4835C70.0258 95.2359 70.8954 95.6631 71.8058 95.6119L77.2463 96.4496L77.2611 96.5015C79.9137 96.3256 83.1274 95.6456 85.0172 93.5913Z" fill="#FED8BE"/>
<g opacity="0.3">
<path d="M70.2266 89.4873C70.4351 91.4239 74.3593 92.9936 76.045 92.338" stroke="#FFB887" stroke-miterlimit="10" stroke-linecap="round"/>
</g>
<path d="M114.723 82.5287C114.091 82.5738 113.46 82.6822 112.832 82.8797C109.503 83.9158 105.569 84.3161 102.474 86.8553L102.474 86.8374C102.474 86.8374 102.259 87.0097 101.867 87.3584C101.293 87.8511 100.725 88.3608 100.165 88.9061L100.164 88.9418C98.261 90.8029 94.532 96.8692 95.0377 101.963C95.3227 104.866 99.6536 110.409 104.794 111.247C104.8 111.272 104.804 111.299 104.809 111.324C107.606 107.803 110.027 103.988 111.605 99.9984C114.054 93.8012 115.183 87.4355 114.723 82.5287Z" fill="#FFB887"/>
<path d="M152.871 110.056C155.838 109.733 160.2 108.951 161.746 107.815C167.554 103.562 161.817 92.8823 157.249 86.8357C153.532 84.1222 147.748 83.7099 143.461 82.1945C142.737 82.1284 141.42 82.3355 139.795 82.6445C140.199 86.5911 141.373 92.3772 144.53 99.2982C146.209 102.979 149.124 106.4 152.871 110.056Z" fill="#FFB887"/>
<g opacity="0.35">
<path d="M156.397 87.1963C156.397 87.1963 152.677 90.256 153.262 96.3925" stroke="#FFB887" stroke-linecap="round"/>
</g>
<g opacity="0.35">
<path d="M103.177 88.584C103.177 88.584 104.708 92.3789 104.122 95.5172" stroke="#FFB887" stroke-linecap="round"/>
</g>
<path d="M127.892 79.4604C127.892 79.4604 121.358 79.1062 112.832 82.8719C112.832 82.8719 112.654 90.2193 127.374 90.2193C142.093 90.2193 143.408 82.1675 143.408 82.1675C143.408 82.1675 134.06 78.8379 127.892 79.4604Z" fill="#FED8BE"/>
<path d="M134.611 85.3567L134.563 85.3713C133.343 85.6445 132.103 85.8236 130.855 85.9079H130.84C127.118 85.9792 123.457 84.9482 120.318 82.9446L120.467 75.2649L120.631 67.0234L122.523 67.5997L134.284 71.1928L134.51 80.7805L134.611 85.3567Z" fill="#FED8BE"/>
<g opacity="0.45">
<path d="M127.44 79.4487C130.84 79.4487 133.681 77.4232 134.374 74.7217L134.308 71.94C134.283 71.8541 134.26 71.7674 134.227 71.6814L123.534 68.4102C122.123 69.1575 121.056 70.4251 120.56 71.9457L120.506 74.7347C121.208 77.4321 124.041 79.4487 127.44 79.4487Z" fill="#FFB887"/>
</g>
<path d="M114.236 63.9709C111.271 66.164 106.14 56.1724 109.038 53.809C111.936 51.4456 113.749 55.8278 113.749 55.8278L113.907 59.4518L114.336 62.8955L114.497 63.9534L114.236 63.9709Z" fill="#FED8BE"/>
<path d="M109.838 56.8246C109.838 56.8246 111.988 56.1097 113.515 59.2791" stroke="#FFB887" stroke-width="0.674" stroke-linecap="round" stroke-linejoin="round"/>
<path d="M112.476 57.7281C112.476 57.7281 110.133 58.9768 111.677 60.8607" stroke="#FFB887" stroke-width="0.674" stroke-linecap="round" stroke-linejoin="round"/>
<path d="M127.523 27.8171C132.073 27.8224 135.756 31.508 135.751 36.0502C135.746 40.5916 132.054 44.2696 127.504 44.2643C122.954 44.2591 119.27 40.5726 119.275 36.0312C119.281 31.489 122.973 27.8119 127.523 27.8171Z" fill="#FFB887"/>
<g opacity="0.25">
<path d="M127.259 35.7259C131.61 35.7309 135.134 38.1455 135.131 41.1185C135.127 44.0915 131.597 46.4979 127.246 46.4929C122.895 46.4879 119.371 44.0733 119.374 41.1003C119.377 38.1273 122.907 35.7209 127.259 35.7259Z" fill="#F0F6FE"/>
</g>
<path d="M134.307 71.713L134.234 71.6895C134.265 71.7762 134.288 71.8646 134.316 71.9505L134.307 71.713Z" fill="#FFB887"/>
<path d="M140.188 63.9469C143.158 66.1476 148.302 56.1695 145.41 53.8027C142.517 51.4358 140.602 55.7659 140.602 55.7659L140.526 59.4326L140.09 62.8752L139.923 63.9336L140.188 63.9469Z" fill="#FED8BE"/>
<path d="M144.603 56.8113C144.603 56.8113 142.454 56.0915 140.92 59.2572" stroke="#FFB887" stroke-width="0.674" stroke-linecap="round" stroke-linejoin="round"/>
<path d="M141.969 57.708C141.969 57.708 144.31 58.9638 142.761 60.844" stroke="#FFB887" stroke-width="0.674" stroke-linecap="round" stroke-linejoin="round"/>
<path d="M141.328 59.864C141.375 64.1007 140.03 68.2352 137.5 71.6301C135.082 74.7794 131.302 76.5752 127.336 76.4588C122.866 76.5233 118.692 74.2264 116.349 70.4134C114.373 67.2403 113.343 63.5682 113.38 59.8285C113.391 50.3591 113.4 42.6826 127.376 42.6987C141.352 42.7149 141.339 50.3938 141.328 59.864Z" fill="#FED8BE"/>
<path d="M121.076 64.2398C121.165 65.4346 120.269 66.4759 119.076 66.5645C117.883 66.6531 116.843 65.7571 116.754 64.5623C116.666 63.3675 117.562 62.3253 118.755 62.2367L118.763 62.2368C118.815 62.2368 118.867 62.2312 118.924 62.2313C120.071 62.1937 121.033 63.0912 121.076 64.2398Z" fill="#FFB887"/>
<path d="M136.692 64.2574C136.781 65.4522 135.885 66.4927 134.692 66.5821C133.499 66.6707 132.459 65.7739 132.371 64.5791C132.282 63.3843 133.177 62.343 134.371 62.2544L134.377 62.2544C134.431 62.2544 134.482 62.248 134.539 62.2481C135.688 62.2072 136.652 63.1064 136.695 64.2566L136.692 64.2574Z" fill="#FFB887"/>
<path d="M126.631 60.6608L126.106 64.7598C126.104 65.4017 126.623 65.9235 127.265 65.9251C127.383 65.9252 127.501 65.9067 127.615 65.8712L128.84 65.5492" stroke="#FFB887" stroke-miterlimit="10" stroke-linecap="round"/>
<path d="M141.469 47.2229C141.469 47.2229 139.96 36.8926 127.121 37.5019C115.783 38.0376 112.755 45.1327 112.601 50.5347C112.516 53.5084 113.233 58.8336 113.382 60.6412C113.598 59.3317 113.734 56.4439 115.296 53.8075C117.269 50.4687 119.945 47.4364 127.256 47.4448C131.364 47.4496 135.765 49.1065 138.352 52.7204C140.362 55.5312 141.04 60.0563 141.126 62.4791C141.324 60.7772 141.654 55.8099 141.693 54.445C141.919 52.0372 141.844 49.6112 141.469 47.2229Z" fill="#FFB887"/>
<path d="M119.704 48.0256C119.704 48.0256 118.647 52.1978 119.456 52.2401C120.997 52.2986 122.54 52.229 124.07 52.0338C124.433 51.8397 124.599 48.9553 124.882 48.9224C125.166 48.8895 124.966 51.9871 125.486 52.0355C126.833 52.1173 128.185 52.1188 129.533 52.0401C129.979 51.9296 130.053 48.9615 130.24 48.9285C130.427 48.8955 130.828 51.9938 131.277 52.0422C131.726 52.0905 135.252 52.2899 135.737 52.2637C136.224 52.2375 134.934 46.7163 134.934 46.7163L125.679 44.2644L119.704 48.0256Z" fill="#FFB887"/>
<path d="M128.25 73.2028C128.762 73.102 129.254 72.917 129.707 72.6549C129.911 72.5303 129.976 72.2621 129.852 72.0569C129.724 71.8509 129.455 71.7865 129.248 71.9128C128.135 72.5477 126.781 72.5924 125.627 72.0342C125.416 71.9286 125.159 72.0102 125.048 72.2183L125.048 72.2281C124.939 72.4427 125.023 72.7054 125.238 72.8151C126.166 73.2895 127.231 73.4261 128.25 73.2028Z" fill="#FFB887"/>
<g opacity="0.5">
<path d="M132.005 69.599C129.303 68.0583 125.934 68.3264 123.508 70.275" stroke="#FFB887" stroke-width="0.9" stroke-linecap="round" stroke-linejoin="round"/>
</g>
<path d="M121.953 61.0361C121.972 61.9137 121.593 62.6457 121.112 62.6451C120.631 62.6446 120.227 61.939 120.221 61.0661C120.214 60.1932 120.583 59.4584 121.062 59.459C121.541 59.4595 121.945 60.1594 121.953 61.0361Z" fill="#FFB887"/>
<path d="M132.141 60.8954C132.121 61.772 132.499 62.5049 132.984 62.5054C133.47 62.506 133.871 61.8023 133.877 60.9294C133.884 60.0566 133.519 59.32 133.034 59.3194C132.55 59.3188 132.154 60.0178 132.141 60.8954Z" fill="#FFB887"/>
<path d="M121.155 57.2629C121.155 57.2629 122.016 56.6674 121.63 56.0809C121.243 55.4945 120.726 55.9543 120.308 56.2901C119.684 56.8049 118.959 57.1834 118.181 57.4021C117.614 57.5944 117.018 57.6861 116.42 57.6732C116.42 57.6732 117.503 59.5452 121.155 57.2629Z" fill="#FFB887"/>
<path d="M133.052 57.6222C133.052 57.6222 132.093 57.1988 132.362 56.5499C132.632 55.901 133.225 56.2551 133.702 56.5085C134.413 56.8959 135.194 57.1319 136.001 57.2017C136.594 57.2834 137.196 57.2615 137.782 57.1373C137.782 57.1373 137.079 59.179 133.052 57.6222Z" fill="#FFB887"/>
<path d="M133.917 55.4809C136.469 55.4839 138.536 57.622 138.533 60.257C138.53 62.892 136.458 65.0254 133.906 65.0224C131.353 65.0195 129.286 62.8813 129.289 60.2463C129.292 57.6113 131.364 55.478 133.917 55.4809Z" stroke="#F0F6FE" stroke-miterlimit="10"/>
<path d="M120.537 55.4653C123.09 55.4683 125.157 57.6064 125.154 60.2414C125.151 62.8764 123.079 65.0097 120.526 65.0068C117.973 65.0038 115.906 62.8657 115.909 60.2307C115.912 57.5957 117.984 55.4624 120.537 55.4653Z" stroke="#F0F6FE" stroke-miterlimit="10"/>
<path d="M125.009 59.6272C125.009 59.6272 127.173 57.6747 129.292 59.4157" stroke="#F0F6FE" stroke-miterlimit="10"/>
<path d="M138.043 57.7117C138.043 57.7117 140.44 55.0714 141.697 54.4544" stroke="#F0F6FE" stroke-miterlimit="10" stroke-linecap="round"/>
<path d="M116.399 57.5857C116.399 57.5857 114.124 55.2269 112.636 54.6797" stroke="#F0F6FE" stroke-miterlimit="10" stroke-linecap="round"/>
<g opacity="0.6">
<path d="M105.258 11.0109C102.555 10.6867 99.9262 11.4292 97.3848 12.3572C95.2545 13.1353 93.1307 13.958 91.0717 14.9314C87.2854 16.7195 83.2385 19.2742 81.2248 23.3682C80.6655 24.3546 80.4769 25.5096 80.6922 26.6233C80.986 27.6275 81.7072 28.4502 82.6639 28.8709C84.7998 29.9075 87.3639 29.482 89.5298 28.7955C92.0284 27.9428 94.4516 26.8835 96.7753 25.628C99.0869 24.4373 101.333 23.1234 103.504 21.6912C105.652 20.3198 107.698 18.7952 109.627 17.1296C110.593 16.2826 111.466 15.3359 112.234 14.3049C112.736 13.6168 113.448 12.5023 112.483 11.8498C112.055 11.6229 111.579 11.5021 111.094 11.4981C110.451 11.4275 109.805 11.3967 109.16 11.4048C107.929 11.4243 106.704 11.5653 105.5 11.8239C103.012 12.3945 100.607 13.2836 98.3455 14.4703C93.8559 16.6425 89.7435 19.5231 86.166 23.0019C84.3822 24.7283 82.8986 26.74 81.7768 28.9552C80.8946 30.804 79.8723 33.8418 81.5219 35.5399C82.2568 36.2175 83.1924 36.6365 84.1871 36.733C85.3599 36.9008 86.5497 36.9162 87.7265 36.7792C90.1951 36.4477 92.5901 35.7004 94.8102 34.5689C97.0546 33.4633 99.2205 32.2029 101.292 30.7975C103.243 29.5355 105.057 28.0717 106.704 26.4304C107.508 25.6134 108.243 24.7299 108.901 23.7897C109.249 23.2896 109.574 22.7692 109.873 22.2343C110.23 21.7391 110.446 21.1547 110.494 20.5451C110.438 19.3715 109.104 19.1211 108.256 19.0278C107.032 18.9298 105.801 19.0821 104.639 19.4777C102.355 20.2218 100.15 21.1919 98.059 22.3737C95.9554 23.5133 93.9765 24.8726 92.157 26.4263C91.219 27.2312 90.3351 28.0976 89.5112 29.02C88.6864 29.8176 88.064 30.8007 87.6941 31.8877C87.011 34.5259 89.8293 35.4953 91.686 35.685C94.1182 35.8098 96.5366 35.2513 98.6685 34.072C100.812 33.0078 102.834 31.7134 104.697 30.2099C106.55 28.7655 108.126 26.9961 109.347 24.9876C109.652 24.6253 109.805 24.1577 109.774 23.6843C109.634 23.2701 109.285 22.9613 108.857 22.8738C107.763 22.6298 106.617 22.8357 105.678 23.4468C104.611 24.0912 103.612 24.8426 102.698 25.6904C101.732 26.5358 100.817 27.4395 99.9578 28.3943C99.1055 29.3167 98.3463 30.3217 97.6915 31.3932C97.0246 32.3861 96.5957 33.5201 96.4386 34.7067C96.2954 37.4365 99.8534 36.9915 101.339 36.399C102.455 35.9111 103.502 35.2781 104.455 34.5178C105.399 33.824 106.285 33.0532 107.105 32.2143C107.908 31.3892 108.605 30.466 109.179 29.4666C109.654 28.6237 110.312 27.4273 109.86 26.4247C109.419 25.4472 108.281 25.4091 107.432 25.5874C106.246 25.8387 105.164 26.4409 104.324 27.3155C103.14 28.5467 102.27 30.9815 103.666 32.4218C105.117 33.9237 107.748 33.0702 109.13 31.8974C109.817 31.3138 110.776 30.2901 110.701 29.2543C110.567 28.4656 109.82 27.9339 109.033 28.0668C108.955 28.0806 108.879 28.0993 108.804 28.1252C107.844 28.4056 107.135 29.2202 106.99 30.2115C106.871 31.1347 107.196 32.0595 107.865 32.7063C109.308 34.1417 111.499 33.482 112.335 31.6575C112.49 31.3203 111.87 30.9539 111.695 31.3333C111.316 32.2419 110.432 32.836 109.449 32.8441C108.314 32.7225 107.493 31.7029 107.614 30.5673C107.714 29.6376 108.423 28.8911 109.345 28.7444C110.938 28.6699 109.177 30.8518 108.697 31.2692C107.988 31.9006 107.113 32.3132 106.175 32.4558C105.305 32.575 104.176 32.5045 103.798 31.4832C103.11 29.6271 104.722 27.7037 106.1 26.9005C106.812 26.4855 107.995 25.9522 108.816 26.2658C109.892 26.6792 108.816 28.498 108.457 29.1181C107.403 30.8388 106.03 32.3407 104.41 33.5419C102.768 34.8307 100.768 36.2977 98.6418 36.1275C98.1642 36.1486 97.7029 35.9597 97.3751 35.612C97.1476 35.0803 97.1622 34.4765 97.4147 33.9561C97.7701 32.9057 98.2767 31.912 98.9194 31.0082C100.191 29.2421 101.673 27.6381 103.332 26.2318C104.141 25.4926 105.011 24.8247 105.935 24.2363C106.36 23.968 106.82 23.7589 107.302 23.6146C107.57 23.5384 107.848 23.4987 108.127 23.4963C108.295 23.4963 108.811 23.4841 108.93 23.647C109.173 23.985 108.444 24.8912 108.272 25.1595C107.978 25.6077 107.662 26.0397 107.326 26.4563C106.691 27.2417 105.996 27.9777 105.247 28.6553C103.768 29.9724 102.164 31.1428 100.459 32.1495C98.6434 33.3296 96.6475 34.2033 94.5504 34.7367C93.4893 34.9855 92.3926 35.0406 91.3129 34.8988C90.3206 34.8631 89.3817 34.4432 88.6921 33.7276C87.992 32.7549 88.6638 31.4581 89.2587 30.6476C89.8697 29.8451 90.5415 29.0913 91.2683 28.391C92.7455 26.9313 94.3674 25.628 96.1108 24.5005C97.7692 23.4258 99.5062 22.4774 101.306 21.6637C103.249 20.7794 105.347 19.8051 107.479 19.7452C108.033 19.7184 108.587 19.7816 109.121 19.9316C109.351 20.0013 109.632 20.0864 109.696 20.3839C109.695 20.7478 109.582 21.1028 109.372 21.3994C108.904 22.2975 108.357 23.1518 107.738 23.9534C106.523 25.5129 105.119 26.9151 103.56 28.1284C101.981 29.358 100.33 30.4887 98.6134 31.5156C96.7608 32.6836 94.8215 33.7057 92.811 34.5729C90.8329 35.4378 88.7196 35.9508 86.5659 36.087C84.9609 36.1551 82.0504 36.2037 81.5558 34.0331C81.4053 32.9211 81.5486 31.788 81.9727 30.7489C82.328 29.7106 82.8047 28.7185 83.3939 27.7929C84.54 26.0178 85.8998 24.3895 87.4408 22.9443C90.5391 20.0775 94.0089 17.6402 97.7563 15.6982C101.599 13.6192 105.83 11.9576 110.186 12.1457C110.71 12.1562 111.232 12.2056 111.749 12.2932C112.521 12.4415 112.064 13.158 111.76 13.59C111.12 14.4889 110.391 15.3213 109.584 16.0735C107.997 17.5276 106.301 18.8576 104.511 20.0524C100.877 22.5812 97.0181 24.7688 92.9834 26.5876C90.9608 27.6186 88.7925 28.3294 86.5529 28.695C84.8646 28.8838 81.8254 28.7493 81.3729 26.4312C80.986 24.4373 82.6623 22.3121 83.8326 20.9772C85.0548 19.6074 86.4631 18.4159 88.0163 17.4384C89.7014 16.3839 91.4699 15.4696 93.3055 14.7069C95.2149 13.8859 97.1509 13.0997 99.1104 12.4375C101.09 11.6837 103.203 11.3432 105.32 11.4389C105.525 11.4559 105.44 11.0336 105.262 11.0109H105.258Z" fill="#FFB887"/>
</g>
<path d="M29.2516 139.815H229.745C230.958 139.815 232.114 140.339 232.915 141.253L240.816 150.28C241.365 150.907 241.301 151.861 240.675 152.409C240.401 152.651 240.048 152.784 239.683 152.784H19.3189C18.4869 152.784 17.8119 152.108 17.8119 151.275C17.8127 150.909 17.9454 150.555 18.1858 150.28L26.0861 141.253C26.8858 140.34 28.0392 139.816 29.2516 139.815Z" fill="#FFB887"/>
<g opacity="0.12">
<path d="M100.494 140.504L155.198 139.815L178.062 152.784H79.3179L100.494 140.504Z" fill="#FFB887"/>
</g>
<path d="M103.41 106.583H155.59C157.72 106.583 159.447 108.313 159.447 110.445V142.437C159.447 144.569 157.72 146.299 155.59 146.299H103.41C101.279 146.299 99.5531 144.569 99.5531 142.437V110.445C99.5531 108.313 101.279 106.583 103.41 106.583Z" fill="#8446FF"/>
<g opacity="0.4">
<path d="M129.501 122.794C131.736 122.794 133.548 124.608 133.548 126.847C133.548 129.085 131.736 130.899 129.501 130.899C127.266 130.899 125.454 129.085 125.454 126.847C125.454 124.608 127.266 122.794 129.501 122.794Z" fill="#F0F6FE"/>
</g>
</g>
</g>
<defs>
<clipPath id="clip0_1624_673">
<rect width="259" height="154" fill="white"/>
</clipPath>
</defs>
</svg>
