<svg width="212" height="169" viewBox="0 0 212 169" fill="none" xmlns="http://www.w3.org/2000/svg">
<g opacity="0.2">
<mask id="mask0_1624_308" style="mask-type:luminance" maskUnits="userSpaceOnUse" x="0" y="0" width="212" height="169">
<path d="M211.075 0H0V169H211.075V0Z" fill="white"/>
</mask>
<g mask="url(#mask0_1624_308)">
<path d="M129.742 47.99C129.742 49.4369 128.569 50.61 127.122 50.61C125.675 50.61 124.502 49.4369 124.502 47.99C124.502 46.5431 125.675 45.3701 127.122 45.3701C128.569 45.3701 129.742 46.5431 129.742 47.99Z" stroke="#9C73F8" stroke-miterlimit="10"/>
<path d="M145.959 54.4598C145.959 55.9068 144.786 57.0797 143.34 57.0797C141.893 57.0797 140.72 55.9068 140.72 54.4598C140.72 53.0129 141.893 51.8398 143.34 51.8398C144.786 51.8398 145.959 53.0129 145.959 54.4598Z" stroke="#9C73F8" stroke-miterlimit="10"/>
<path d="M149.193 83.2283C149.193 84.6753 148.02 85.8483 146.574 85.8483C145.127 85.8483 143.954 84.6753 143.954 83.2283C143.954 81.7814 145.127 80.6084 146.574 80.6084C148.02 80.6084 149.193 81.7814 149.193 83.2283Z" stroke="#9C73F8" stroke-miterlimit="10"/>
<path d="M168.813 85.5838C168.813 87.0307 167.64 88.2037 166.193 88.2037C164.746 88.2037 163.573 87.0307 163.573 85.5838C163.573 84.1369 164.746 82.9639 166.193 82.9639C167.64 82.9639 168.813 84.1369 168.813 85.5838Z" stroke="#9C73F8" stroke-miterlimit="10"/>
<path d="M180.428 74.9217C180.428 76.3686 179.255 77.5416 177.809 77.5416C176.362 77.5416 175.189 76.3686 175.189 74.9217C175.189 73.4748 176.362 72.3018 177.809 72.3018C179.255 72.3018 180.428 73.4748 180.428 74.9217Z" stroke="#9C73F8" stroke-miterlimit="10"/>
<path d="M190.796 86.2049C190.796 87.6518 189.623 88.8248 188.176 88.8248C186.729 88.8248 185.556 87.6518 185.556 86.2049C185.556 84.758 186.729 83.585 188.176 83.585C189.623 83.585 190.796 84.758 190.796 86.2049Z" stroke="#9C73F8" stroke-miterlimit="10"/>
<path d="M129.269 48.8574L140.564 53.8353" stroke="#9C73F8" stroke-miterlimit="10"/>
<path d="M143.84 57.134L145.851 80.3257" stroke="#9C73F8" stroke-miterlimit="10"/>
<path d="M148.376 83.6504L164.241 85.493" stroke="#9C73F8" stroke-miterlimit="10"/>
<path d="M168.437 84.3494L175.63 76.9827" stroke="#9C73F8" stroke-miterlimit="10"/>
<path d="M179.572 76.7891L186.573 84.2177" stroke="#9C73F8" stroke-miterlimit="10"/>
<path d="M170.062 149.59C170.062 149.59 200.361 150.559 194.889 120.428C194.889 120.428 165.626 118.065 170.062 149.59Z" fill="#FF8E3A"/>
<path d="M170.56 147.463C170.56 147.463 185.528 162.827 198.32 147.058C198.32 147.058 184.602 131.601 170.56 147.463Z" fill="#FF8E3A"/>
<path d="M40.2359 41.0384C40.2359 41.0384 27.3518 31.5854 20.4531 45.8194C20.4531 45.8194 32.4571 55.5459 40.2359 41.0384Z" fill="#FF8E3A"/>
<path d="M41.3116 40.2367C41.3116 40.2367 41.9943 22.2388 20.6009 24.3337C20.6009 24.3337 20.2739 45.9644 41.3116 40.2367Z" fill="#FF8E3A"/>
<mask id="mask1_1624_308" style="mask-type:luminance" maskUnits="userSpaceOnUse" x="0" y="0" width="212" height="169">
<path d="M0 0H211.075V169H0V0Z" fill="white"/>
</mask>
<g mask="url(#mask1_1624_308)">
<path d="M112.176 157.848H52.4837C50.1414 157.848 48.2251 155.931 48.2251 153.589V141.862C48.2251 139.52 50.1414 137.604 52.4837 137.604H112.176C114.518 137.604 116.434 139.52 116.434 141.862V153.589C116.434 155.931 114.518 157.848 112.176 157.848Z" fill="#FF8E3A"/>
<path d="M118.057 61.3089C118.057 85.8221 99.0425 105.694 75.5874 105.694C52.1323 105.694 33.1182 85.8221 33.1182 61.3089C33.1182 36.7956 52.1323 16.9238 75.5874 16.9238C99.0425 16.9238 118.057 36.7956 118.057 61.3089Z" fill="#FF8E3A"/>
<path d="M111.794 97.0497C102.45 109.622 104.528 133.661 105.115 138.919C105.176 139.47 104.744 139.953 104.19 139.953H62.7929C62.1851 139.953 61.7402 139.378 61.8922 138.789L62.1984 137.603L62.1992 137.6L66.0615 122.63C66.2126 122.044 65.7732 121.472 65.1678 121.467L47.3678 121.332C47.3172 121.331 47.2658 121.335 47.2151 121.344C40.1341 122.477 39.1827 115.968 39.1827 115.968L36.3637 97.7673C36.2936 97.3138 35.9033 96.9796 35.4443 96.9796H25.0262C24.4231 96.9796 23.9797 96.4155 24.1216 95.8295L36.049 46.6879C36.1596 46.2344 36.5889 45.9321 37.0525 45.9819L116.28 54.4966C116.695 54.541 117.03 54.8574 117.098 55.2695C117.831 59.7053 121.338 84.2083 111.794 97.0497Z" fill="#FF8E3A"/>
<path d="M78.6216 123.238L74.7718 136.56C74.5918 137.182 74.0635 137.604 73.4659 137.604H62.1985L62.1993 137.601L66.0616 122.63C66.2127 122.044 65.7733 121.472 65.1679 121.468H77.4319C78.2741 121.468 78.8749 122.361 78.6216 123.238Z" fill="#FF8E3A"/>
<path d="M57.6135 66.026C57.5278 66.1299 57.446 66.2348 57.3675 66.3429C55.8692 68.4058 44.7844 84.3729 54.1257 92.9481C62.1412 100.306 71.778 96.1246 75.1297 94.2846C76.5768 93.49 78.2783 93.1167 79.9773 93.2479C82.8246 93.4675 85.6059 95.0439 86.9578 100.816C88.8317 108.817 99.5924 106.099 98.769 98.9977C97.9754 92.1539 105.459 79.3992 106.892 77.7197C107.298 77.2433 115.923 67.4118 106.658 54.0582C105.815 52.8436 105.42 51.4305 105.507 50.0092C105.83 44.7608 104.725 31.7033 86.0197 30.3419C86.0197 30.3419 74.4881 28.9297 67.9726 26.696C67.7243 26.6108 67.4711 26.5375 67.2137 26.4765C60.1614 24.8055 44.3155 27.6703 54.5948 44.5511C63.1059 58.5282 58.3192 65.1711 57.6135 66.026Z" fill="#ED509E"/>
<path d="M95.6307 74.6702L83.0361 62.0062L95.6205 74.6803C95.6237 74.677 95.6275 74.6735 95.6307 74.6702ZM87.8843 79.1923C97.3842 76.545 102.94 66.6974 100.292 57.1975C97.645 47.6976 87.7974 42.1422 78.2975 44.7895C68.7969 47.437 63.2422 57.2844 65.8895 66.7843C66.2572 68.1038 66.7636 69.3466 67.389 70.5021L83.0361 62.0062L100.27 57.2038C102.07 63.6631 100.078 70.2829 95.6316 74.691L95.6205 74.6803C95.5585 74.7421 95.4962 74.8031 95.433 74.8636C95.3667 74.9274 95.2996 74.9914 95.232 75.0539C95.1692 75.1127 95.1061 75.1707 95.0422 75.2289C95.0291 75.2399 95.0162 75.2516 95.0034 75.264C94.9433 75.318 94.8823 75.3722 94.8204 75.4258C94.743 75.4935 94.6654 75.5604 94.5869 75.6268C94.5289 75.6769 94.4697 75.7258 94.4105 75.7746C94.4033 75.7807 94.3959 75.786 94.3894 75.7918C94.3387 75.8334 94.2886 75.8741 94.2377 75.915C94.0639 76.0548 93.8874 76.1905 93.7078 76.3239C93.6489 76.3678 93.5899 76.4117 93.5298 76.4544C93.3893 76.5566 93.2464 76.6563 93.1028 76.7537C93.0492 76.7905 92.9946 76.8268 92.94 76.863C92.8917 76.8959 92.8423 76.9274 92.7938 76.9595C92.7341 76.998 92.6745 77.0365 92.6146 77.0742C92.4345 77.1883 92.2518 77.299 92.0674 77.4063C91.9993 77.4463 91.9309 77.4855 91.8624 77.524C91.8588 77.5258 91.8555 77.5284 91.852 77.5302C91.7743 77.5737 91.6966 77.6171 91.6186 77.6591C91.4824 77.7335 91.3455 77.8056 91.2073 77.8756C91.1566 77.9027 91.1048 77.9285 91.0529 77.9542C90.9841 77.9888 90.915 78.0226 90.845 78.0558C90.7725 78.0914 90.6989 78.1265 90.6252 78.1608C90.5893 78.1773 90.5535 78.1937 90.5176 78.2102C90.4631 78.2351 90.4085 78.26 90.353 78.2844C90.3366 78.2922 90.3192 78.2994 90.3026 78.3065C90.2387 78.3356 90.1737 78.3635 90.1094 78.3911C90.0017 78.4372 89.8929 78.4821 89.7839 78.5263C89.7083 78.557 89.6318 78.5872 89.5553 78.6175C89.4831 78.6457 89.4092 78.6735 89.3358 78.7005C89.2905 78.7179 89.245 78.7347 89.1993 78.7506C89.1262 78.7783 89.0526 78.8045 88.9788 78.8299C88.8866 78.862 88.7943 78.8934 88.7017 78.9241C88.6269 78.949 88.5522 78.9738 88.4762 78.9974C88.4436 79.0081 88.4101 79.0183 88.3765 79.0285C88.3133 79.0485 88.2492 79.068 88.1851 79.0875C88.0769 79.12 87.9667 79.1515 87.8572 79.1821C84.2177 80.1963 80.5259 80.0069 77.2091 78.8524C80.5333 80.0161 84.2343 80.2094 87.8843 79.1923Z" fill="#9C73F8"/>
<path d="M95.686 74.6747L83.0902 61.99L100.324 57.1875C102.124 63.6468 100.133 70.2666 95.686 74.6747Z" fill="#FF8E3A"/>
<path d="M87.9119 79.1657C79.7382 81.4434 71.3075 77.6495 67.4266 70.4944L83.0908 61.9897L95.6854 74.6539C95.6203 74.7189 95.5541 74.7835 95.4878 74.8472C95.4214 74.911 95.3543 74.975 95.2868 75.0375C95.2239 75.0963 95.1608 75.1543 95.097 75.2126C95.0839 75.2235 95.0709 75.2352 95.0582 75.2476C94.998 75.3016 94.9371 75.3558 94.8752 75.4094C94.7978 75.4771 94.7202 75.544 94.6417 75.6104C94.5836 75.6605 94.5245 75.7094 94.4653 75.7582C94.4581 75.7643 94.4506 75.7696 94.4442 75.7754C94.3935 75.8171 94.3434 75.8577 94.2925 75.8986C94.1187 76.0384 93.9422 76.1742 93.7626 76.3075C93.7036 76.3514 93.6447 76.3954 93.5846 76.438C93.444 76.5403 93.3011 76.6399 93.1576 76.7374C93.104 76.7741 93.0494 76.8104 92.9948 76.8466C92.9465 76.8795 92.897 76.9111 92.8486 76.9432C92.7889 76.9816 92.7293 77.0201 92.6694 77.0578C92.4893 77.1719 92.3066 77.2827 92.1221 77.3899C92.054 77.4299 91.9857 77.4692 91.9172 77.5077C91.9136 77.5095 91.9103 77.512 91.9067 77.5138C91.8291 77.5573 91.7514 77.6008 91.6733 77.6428C91.5371 77.7171 91.4003 77.7892 91.2621 77.8593C91.2114 77.8863 91.1595 77.9121 91.1077 77.9379C91.0388 77.9724 90.9698 78.0062 90.8998 78.0395C90.8272 78.0751 90.7537 78.1101 90.6799 78.1444C90.6441 78.1609 90.6082 78.1774 90.5724 78.1938C90.5178 78.2187 90.4633 78.2436 90.4078 78.268C90.3914 78.2758 90.374 78.2831 90.3573 78.2901C90.2935 78.3193 90.2284 78.3471 90.1641 78.3747C90.0565 78.4209 89.9477 78.4658 89.8386 78.5099C89.7631 78.5407 89.6866 78.5709 89.6101 78.6011C89.5379 78.6293 89.4639 78.6572 89.3906 78.6841C89.3453 78.7016 89.2998 78.7183 89.2541 78.7343C89.1809 78.7619 89.1073 78.7881 89.0335 78.8135C88.9414 78.8457 88.849 78.8771 88.7564 78.9077C88.6817 78.9326 88.6069 78.9575 88.531 78.9811C88.4984 78.9918 88.4648 79.0019 88.4313 79.0121C88.3681 79.0321 88.304 79.0516 88.2398 79.0711C88.1316 79.1037 88.0215 79.1352 87.9119 79.1657Z" fill="#ED509E"/>
</g>
<path d="M119.546 96.6338C119.546 96.6338 113.966 105.299 101.196 102.18L101.569 106.809C101.569 106.809 116.286 110.78 123.248 102.577C130.152 94.4431 121.35 94.1679 119.546 96.6338Z" fill="#ED509E"/>
<path d="M106.848 102.854L107.413 107.697C107.413 107.697 101.595 107.136 101.569 106.809C101.543 106.482 101.196 102.18 101.196 102.18C101.196 102.18 106.315 102.87 106.848 102.854Z" fill="#ED509E"/>
<path d="M101.268 103.083L103.033 103.388" stroke="#FF8E3A" stroke-miterlimit="10"/>
<path d="M101.362 104.234L102.986 104.597" stroke="#FF8E3A" stroke-miterlimit="10"/>
<path d="M101.471 105.596L102.946 105.925" stroke="#FF8E3A" stroke-miterlimit="10"/>
<path d="M126.803 111.577C126.803 111.577 129.22 128.985 125.979 132.646L120.267 133.177C120.267 133.177 121.848 118.68 119.849 114.333L126.803 111.577Z" fill="#ED509E"/>
<path d="M130.555 108.242C130.555 108.242 136.163 118.202 143.282 108.704L147.237 112.554C147.237 112.554 138.458 124.547 126.46 117.978C126.46 117.978 119.769 109.842 130.555 108.242Z" fill="#ED509E"/>
<path d="M126.78 95.8617L131.692 110.102L120.058 114.849C120.058 114.849 117.124 108.812 119.539 95.2168L126.78 95.8617Z" fill="#ED509E"/>
<path d="M147.262 140.24L150.392 144.423L154.374 141.442C154.894 141.896 155.441 142.308 156.011 142.672L154.239 146.794L159.047 148.85L160.864 144.621C161.751 144.8 162.653 144.887 163.562 144.888L164.767 149.325L169.818 147.945L168.724 143.912C169.83 143.476 170.895 142.891 171.897 142.153L174.461 144.833L178.248 141.214L175.473 138.312C175.986 137.495 176.409 136.632 176.738 135.737L181.338 136.611L182.328 131.474L177.616 130.577C177.595 129.435 177.435 128.294 177.131 127.181L181.35 125.229L179.163 120.486L174.836 122.486C174.197 121.631 173.478 120.872 172.697 120.206L175.054 116.577L170.667 113.738L168.139 117.631C167.387 117.372 166.611 117.184 165.827 117.06L165.61 112.675L160.382 112.945L160.595 117.22C159.593 117.442 158.61 117.778 157.662 118.224L154.928 114.572L150.735 117.711L153.422 121.302C152.802 121.956 152.257 122.661 151.784 123.404L147.148 121.666L145.3 126.564L149.852 128.268C149.706 129.03 149.623 129.803 149.601 130.578L144.83 131.155L145.443 136.346L150.452 135.741C150.649 136.279 150.881 136.809 151.152 137.328L147.262 140.24ZM164.525 132.112C163.847 132.62 162.889 132.483 162.382 131.807C161.876 131.13 162.013 130.17 162.692 129.662C163.37 129.155 164.33 129.294 164.836 129.97C165.342 130.647 165.203 131.605 164.525 132.112Z" fill="#9C73F8"/>
<path d="M180.108 100.362L178.029 103.14L180.628 105.085C180.435 105.5 180.273 105.924 180.146 106.354L177.223 106.024L176.79 109.454L179.788 109.793C179.835 110.387 179.942 110.974 180.105 111.548L177.519 113.158L179.3 116.085L181.651 114.622C182.125 115.238 182.686 115.799 183.333 116.29L182.101 118.422L185.069 120.122L186.403 117.814C187.011 117.982 187.632 118.085 188.257 118.121L188.533 121.194L191.956 120.836L191.674 117.689C192.392 117.457 193.084 117.138 193.733 116.732L195.725 119.024L198.327 116.736L196.286 114.385C196.711 113.817 197.061 113.218 197.341 112.598L200.057 113.392L201.061 110.078L198.147 109.225C198.175 108.701 198.154 108.175 198.092 107.656L200.822 106.68L199.711 103.429L197.049 104.381C196.728 103.791 196.339 103.234 195.887 102.72L197.702 100.295L194.964 98.2464L193.18 100.631C192.655 100.365 192.111 100.155 191.557 99.9984L191.82 96.7376L188.394 96.5066L188.136 99.7085C187.629 99.7617 187.126 99.8573 186.632 99.9915L185.409 97.0883L182.24 98.4684L183.524 101.517C183.22 101.744 182.926 101.992 182.647 102.263L180.108 100.362ZM188.349 109.713C187.906 109.381 187.82 108.75 188.156 108.301C188.492 107.852 189.124 107.755 189.566 108.086C190.009 108.417 190.094 109.05 189.758 109.499C189.422 109.949 188.792 110.044 188.349 109.713Z" fill="#9C73F8"/>
<path d="M116.269 27.1143V46.9504" stroke="#ED509E" stroke-miterlimit="10"/>
<path d="M112.893 43.8574L116.508 47.5876" stroke="#ED509E" stroke-miterlimit="10"/>
<path d="M119.703 43.8574L115.757 47.9281" stroke="#ED509E" stroke-miterlimit="10"/>
<path d="M105.536 32.1116V12.2754" stroke="#3D3E00" stroke-miterlimit="10"/>
<path d="M102.16 15.3692L106.101 11.3037" stroke="#3D3E00" stroke-miterlimit="10"/>
<path d="M108.969 15.3706L105.354 11.6406" stroke="#3D3E00" stroke-miterlimit="10"/>
<path d="M180.384 19.4378V42.5704C180.384 44.2611 179 45.6449 177.309 45.6449H143.635C141.944 45.6449 140.56 44.2611 140.56 42.5704V19.4378C140.56 17.7471 141.944 16.3633 143.635 16.3633H177.309C179 16.3633 180.384 17.7471 180.384 19.4378Z" fill="#9C73F8"/>
<path d="M180.384 19.4379V21.9265H140.56V19.4379C140.56 17.7471 141.944 16.3633 143.635 16.3633H177.309C179 16.3633 180.384 17.7471 180.384 19.4379Z" fill="#9C73F8"/>
<path d="M176.876 42.7494H144.193V24.709H176.876V42.7494Z" stroke="#9C73F8" stroke-miterlimit="10"/>
<path d="M149.551 24.7529L149.383 42.7933" stroke="#9C73F8" stroke-miterlimit="10"/>
<path d="M155.037 24.6025L154.868 42.6429" stroke="#9C73F8" stroke-miterlimit="10"/>
<path d="M172.134 24.9258L171.968 42.7488" stroke="#9C73F8" stroke-miterlimit="10"/>
<path d="M166.418 24.709L166.25 42.7494" stroke="#9C73F8" stroke-miterlimit="10"/>
<path d="M160.703 24.7529L160.534 42.7933" stroke="#9C73F8" stroke-miterlimit="10"/>
<path d="M144.193 33.6221H176.876" stroke="#9C73F8" stroke-miterlimit="10"/>
<path d="M144.277 38.3232H176.96" stroke="#9C73F8" stroke-miterlimit="10"/>
<path d="M144.193 29.292H176.876" stroke="#9C73F8" stroke-miterlimit="10"/>
<path d="M144.371 42.7759L155.435 33.2518L158.776 37.5912L168.431 32.4482" stroke="#FF8E3A" stroke-miterlimit="10"/>
<path d="M167.874 32.0137L168.431 33.2868L169.294 32.0137H167.874Z" fill="#FF8E3A"/>
<path d="M155.434 54.1703V68.2255C155.434 69.4332 154.446 70.4219 153.238 70.4219H128.994C127.787 70.4219 126.798 69.4332 126.798 68.2255V54.1703C126.798 52.9626 127.787 51.9746 128.994 51.9746H153.238C154.446 51.9746 155.434 52.9626 155.434 54.1703Z" fill="#9C73F8"/>
<path d="M155.434 54.1703V56.3753H126.798V54.1703C126.798 52.9626 127.787 51.9746 128.994 51.9746H153.238C154.446 51.9746 155.434 52.9626 155.434 54.1703Z" fill="#ED509E"/>
<path d="M131.41 59.9551L136.542 63.6738" stroke="#ED509E" stroke-miterlimit="10"/>
<path d="M136.542 63.6738L130.619 68.0298" stroke="#ED509E" stroke-miterlimit="10"/>
<path d="M132.673 67.4483C132.673 68.1458 132.108 68.7111 131.41 68.7111C130.713 68.7111 130.147 68.1458 130.147 67.4483C130.147 66.7509 130.713 66.1855 131.41 66.1855C132.108 66.1855 132.673 66.7509 132.673 67.4483Z" fill="#ED509E"/>
<path d="M137.805 63.6749C137.805 64.3723 137.24 64.9377 136.542 64.9377C135.845 64.9377 135.28 64.3723 135.28 63.6749C135.28 62.9775 135.845 62.4121 136.542 62.4121C137.24 62.4121 137.805 62.9775 137.805 63.6749Z" fill="#ED509E"/>
<path d="M132.673 59.9561C132.673 60.6536 132.108 61.2189 131.41 61.2189C130.713 61.2189 130.147 60.6536 130.147 59.9561C130.147 59.2587 130.713 58.6934 131.41 58.6934C132.108 58.6934 132.673 59.2587 132.673 59.9561Z" fill="#ED509E"/>
<path d="M153.246 62.3071H139.728C139.568 62.3071 139.438 62.177 139.438 62.0179C139.438 61.8587 139.568 61.7285 139.728 61.7285H153.246C153.405 61.7285 153.535 61.8587 153.535 62.0179C153.535 62.177 153.405 62.3071 153.246 62.3071Z" fill="#3D3E00"/>
<path d="M149.839 60.1421H139.728C139.569 60.1421 139.439 60.012 139.439 59.8529C139.439 59.6937 139.569 59.5635 139.728 59.5635H149.839C149.998 59.5635 150.128 59.6937 150.128 59.8529C150.128 60.012 149.998 60.1421 149.839 60.1421Z" fill="#3D3E00"/>
<path d="M145.811 64.2524H139.728C139.569 64.2524 139.438 64.1223 139.438 63.9632C139.438 63.804 139.569 63.6738 139.728 63.6738H145.811C145.97 63.6738 146.1 63.804 146.1 63.9632C146.1 64.1223 145.97 64.2524 145.811 64.2524Z" fill="#3D3E00"/>
<path d="M9.41589 137.162L14.8021 139.624L11.4657 141.284L9.41589 137.162Z" fill="#9C73F8"/>
<path d="M7.06287 83.8816V78.7695L9.50335 82.063L7.06287 83.8816Z" fill="#ED509E"/>
<path d="M27.0507 147.608L30.5849 143.915L30.0711 147.982L27.0507 147.608Z" fill="#FF8E3A"/>
<path d="M189.815 37.4395L192.707 41.8085L189.465 41.7622L189.815 37.4395Z" fill="#FF8E3A"/>
<path d="M194.66 71.473L198.643 68.2686L197.606 72.2345L194.66 71.473Z" fill="#9C73F8"/>
<path d="M148.828 103.481L152.811 100.276L151.775 104.242L148.828 103.481Z" fill="#ED509E"/>
<mask id="mask2_1624_308" style="mask-type:alpha" maskUnits="userSpaceOnUse" x="51" y="30" width="49" height="49">
<path d="M51.2705 56.0519C52.1871 69.1482 63.6867 79.012 76.9555 78.0833C90.2243 77.1546 100.238 65.785 99.3211 52.6886C98.4044 39.5923 86.9048 29.7285 73.636 30.6573C60.3672 31.586 50.3538 42.9555 51.2705 56.0519Z" fill="#9C73F8"/>
</mask>
<g mask="url(#mask2_1624_308)">
<mask id="mask3_1624_308" style="mask-type:luminance" maskUnits="userSpaceOnUse" x="-15" y="-12" width="241" height="193">
<path d="M-14.7754 -11.8301H225.85V180.83H-14.7754V-11.8301Z" fill="white"/>
</mask>
<g mask="url(#mask3_1624_308)">
<path d="M119.809 58.0628C119.809 86.0079 98.1331 108.662 71.3943 108.662C44.6554 108.662 22.9794 86.0079 22.9794 58.0628C22.9794 30.1177 44.6554 7.46387 71.3943 7.46387C98.1331 7.46387 119.809 30.1177 119.809 58.0628Z" fill="#FF8E3A"/>
<path d="M112.67 98.8074C102.018 113.14 104.386 140.544 105.055 146.539C105.125 147.167 104.633 147.717 104.001 147.717H56.8086C56.1158 147.717 55.6086 147.062 55.7818 146.391L56.1309 145.039L56.1318 145.035L60.5348 127.968C60.7071 127.3 60.2061 126.648 59.516 126.643L39.224 126.489C39.1663 126.489 39.1077 126.493 39.0499 126.503C30.9776 127.794 29.893 120.375 29.893 120.375L26.6794 99.6254C26.5994 99.1085 26.1544 98.7274 25.6313 98.7274H13.7546C13.0671 98.7274 12.5616 98.0843 12.7233 97.4164L26.3205 41.3949C26.4467 40.8779 26.9361 40.5333 27.4646 40.5901L117.784 50.2968C118.257 50.3475 118.639 50.7081 118.716 51.178C119.552 56.2347 123.55 84.1682 112.67 98.8074Z" fill="#FF8E3A"/>
<path d="M50.9041 63.4394C50.8064 63.5578 50.7132 63.6774 50.6237 63.8007C48.9156 66.1524 36.279 84.3549 46.928 94.1305C56.0657 102.519 67.0516 97.7518 70.8726 95.6541C72.5222 94.7484 74.462 94.3228 76.3988 94.4723C79.6447 94.7227 82.8155 96.5198 84.3567 103.1C86.4929 112.221 98.7601 109.122 97.8214 101.027C96.9167 93.2252 105.448 78.6849 107.081 76.7703C107.544 76.2271 117.377 65.0191 106.815 49.7961C105.854 48.4114 105.403 46.8006 105.503 45.1802C105.871 39.197 104.611 24.3115 83.2872 22.7595C83.2872 22.7595 70.1411 21.1496 62.7135 18.6032C62.4304 18.5061 62.1418 18.4225 61.8484 18.353C53.8087 16.448 35.7443 19.7139 47.4628 38.958C57.1655 54.8918 51.7086 62.4647 50.9041 63.4394Z" fill="#ED509E"/>
<path d="M94.2437 73.2941L79.8859 58.8571L94.2322 73.3057C94.2357 73.3019 94.2401 73.2979 94.2437 73.2941ZM85.4128 78.4493C96.2427 75.4314 102.576 64.2051 99.558 53.3752C96.5401 42.5454 85.3138 36.2122 74.4839 39.2301C63.6532 42.2482 57.3209 53.4743 60.3388 64.3042C60.7579 65.8084 61.3353 67.2252 62.0482 68.5424L79.8859 58.8571L99.5323 53.3824C101.584 60.746 99.3138 68.2925 94.2448 73.3178L94.2322 73.3057C94.1614 73.3761 94.0904 73.4457 94.0184 73.5146C93.9427 73.5873 93.8663 73.6603 93.7893 73.7315C93.7176 73.7985 93.6457 73.8647 93.5729 73.9311C93.5579 73.9435 93.5432 73.9568 93.5287 73.971C93.4601 74.0326 93.3906 74.0943 93.3201 74.1555C93.2318 74.2326 93.1434 74.3089 93.0538 74.3846C92.9877 74.4418 92.9202 74.4974 92.8527 74.5531C92.8445 74.56 92.836 74.5661 92.8287 74.5727C92.7709 74.6202 92.7137 74.6665 92.6557 74.7131C92.4576 74.8725 92.2564 75.0273 92.0516 75.1793C91.9845 75.2294 91.9173 75.2795 91.8487 75.3281C91.6885 75.4446 91.5256 75.5583 91.362 75.6693C91.3008 75.7113 91.2386 75.7526 91.1763 75.7939C91.1213 75.8314 91.065 75.8674 91.0097 75.904C90.9417 75.9478 90.8737 75.9917 90.8054 76.0346C90.6001 76.1647 90.3919 76.291 90.1816 76.4132C90.1039 76.4588 90.026 76.5036 89.9479 76.5475C89.9438 76.5495 89.94 76.5524 89.936 76.5545C89.8475 76.604 89.7589 76.6536 89.6699 76.7015C89.5146 76.7862 89.3587 76.8684 89.2011 76.9483C89.1433 76.9791 89.0842 77.0085 89.0251 77.0379C88.9466 77.0773 88.8679 77.1158 88.7881 77.1537C88.7054 77.1943 88.6215 77.2343 88.5374 77.2734C88.4966 77.2922 88.4557 77.3109 88.4148 77.3297C88.3527 77.3581 88.2905 77.3865 88.2272 77.4142C88.2085 77.4231 88.1887 77.4314 88.1697 77.4395C88.0969 77.4727 88.0228 77.5044 87.9495 77.5359C87.8267 77.5885 87.7027 77.6397 87.5784 77.69C87.4923 77.7251 87.405 77.7595 87.3178 77.794C87.2355 77.8261 87.1512 77.8579 87.0676 77.8886C87.016 77.9085 86.9641 77.9276 86.912 77.9458C86.8286 77.9773 86.7447 78.0072 86.6606 78.0362C86.5555 78.0728 86.4502 78.1086 86.3447 78.1435C86.2595 78.1719 86.1742 78.2003 86.0877 78.2271C86.0505 78.2393 86.0122 78.2509 85.974 78.2625C85.902 78.2853 85.8289 78.3076 85.7557 78.3298C85.6324 78.3669 85.5069 78.4028 85.3819 78.4376C81.2329 79.5938 77.0243 79.3779 73.2431 78.0619C77.0328 79.3885 81.2519 79.6088 85.4128 78.4493Z" fill="#9C73F8"/>
<path d="M94.3071 73.2997L79.9479 58.8391L99.5946 53.3643C101.647 60.7279 99.3761 68.2744 94.3071 73.2997Z" fill="#FF8E3A"/>
<path d="M85.444 78.4191C76.1261 81.0156 66.515 76.6906 62.0908 68.5338L79.948 58.8384L94.3059 73.2755C94.2316 73.3497 94.1562 73.4233 94.0805 73.496C94.0049 73.5687 93.9284 73.6417 93.8514 73.7129C93.7798 73.7799 93.7078 73.8461 93.635 73.9124C93.6201 73.9249 93.6053 73.9382 93.5908 73.9524C93.5222 74.014 93.4528 74.0757 93.3822 74.1369C93.294 74.214 93.2055 74.2903 93.116 74.366C93.0498 74.4232 92.9823 74.4788 92.9149 74.5345C92.9067 74.5414 92.8982 74.5475 92.8908 74.5541C92.8331 74.6016 92.7759 74.6479 92.7179 74.6945C92.5198 74.8539 92.3186 75.0087 92.1138 75.1607C92.0466 75.2108 91.9794 75.2609 91.9109 75.3095C91.7507 75.426 91.5878 75.5397 91.4242 75.6507C91.363 75.6927 91.3007 75.734 91.2385 75.7753C91.1835 75.8128 91.1271 75.8488 91.0718 75.8854C91.0038 75.9292 90.9358 75.9731 90.8676 76.0161C90.6622 76.1461 90.454 76.2724 90.2437 76.3946C90.1661 76.4402 90.0882 76.485 90.01 76.5289C90.006 76.5309 90.0022 76.5338 89.9981 76.5359C89.9096 76.5854 89.8211 76.635 89.7321 76.6829C89.5768 76.7676 89.4208 76.8498 89.2633 76.9297C89.2055 76.9606 89.1463 76.9899 89.0872 77.0193C89.0087 77.0587 88.93 77.0972 88.8502 77.1352C88.7675 77.1757 88.6837 77.2157 88.5996 77.2548C88.5587 77.2736 88.5178 77.2923 88.477 77.3111C88.4148 77.3395 88.3526 77.3679 88.2894 77.3956C88.2706 77.4046 88.2508 77.4128 88.2318 77.4209C88.159 77.4541 88.0849 77.4858 88.0116 77.5173C87.8889 77.57 87.7648 77.6211 87.6405 77.6714C87.5544 77.7065 87.4672 77.7409 87.38 77.7754C87.2976 77.8076 87.2134 77.8393 87.1297 77.87C87.0781 77.8899 87.0262 77.909 86.9741 77.9272C86.8907 77.9588 86.8068 77.9886 86.7227 78.0176C86.6176 78.0542 86.5123 78.09 86.4068 78.1249C86.3216 78.1533 86.2364 78.1817 86.1498 78.2086C86.1126 78.2208 86.0744 78.2323 86.0361 78.2439C85.9641 78.2668 85.891 78.289 85.8179 78.3112C85.6945 78.3483 85.569 78.3842 85.444 78.4191Z" fill="#ED509E"/>
</g>
</g>
<path d="M8.36108 129.467H43.7232" stroke="#FF8E3A" stroke-miterlimit="10"/>
<path d="M167.587 28.1025H202.949" stroke="#ED509E" stroke-miterlimit="10"/>
<path d="M150.759 107.43H183.46" stroke="#FF8E3A" stroke-miterlimit="10"/>
<path d="M51.2704 56.0499C52.187 69.1463 63.6866 79.0101 76.9554 78.0813C90.2242 77.1526 100.238 65.783 99.321 52.6867C98.4043 39.5903 86.9047 29.7266 73.6359 30.6553C60.3671 31.584 50.3537 42.9536 51.2704 56.0499Z" fill="#9C73F8" fill-opacity="0.4"/>
<path d="M50.7396 56.9584C52.2759 70.0079 64.4715 79.3322 77.9792 77.7847C91.487 76.2374 101.192 64.4042 99.6554 51.3547C98.119 38.3052 85.9234 28.9809 72.4157 30.5283C58.908 32.0758 49.2032 43.9089 50.7396 56.9584Z" stroke="#3D3E00" stroke-miterlimit="10"/>
<path d="M87.141 74.9131L93.5394 85.7228" stroke="#3D3E00" stroke-miterlimit="10"/>
<path d="M90.7366 89.6456C90.7849 90.3369 90.9905 91.0267 91.3694 91.6635L108.089 119.792C109.428 122.043 112.434 122.819 114.771 121.514C117.106 120.209 117.923 117.299 116.584 115.047L99.8644 86.9194C98.5253 84.6671 95.519 83.8927 93.1824 85.1964C91.5065 86.1322 90.6139 87.8931 90.7366 89.6456Z" fill="#9C73F8"/>
<path d="M90.7366 89.6449C90.785 90.3362 90.9906 91.0259 91.3695 91.6628L108.089 119.791C109.428 122.042 112.434 122.818 114.771 121.513L93.1825 85.1956C91.5066 86.1315 90.6139 87.8924 90.7366 89.6449Z" fill="#9C73F8"/>
<path d="M55.9715 51.2906C55.2411 55.3868 55.729 58.8931 57.0612 59.1223C58.3934 59.3515 60.0656 56.2167 60.796 52.1206C61.5265 48.0245 61.0387 44.5181 59.7064 44.2889C58.3742 44.0598 56.702 47.1945 55.9715 51.2906Z" fill="#9C73F8"/>
<path d="M120.952 95.2973C120.952 95.2973 114.028 102.951 101.946 97.8115L101.555 102.442C101.555 102.442 115.418 108.736 123.629 101.761C131.77 94.8461 123.135 93.1538 120.952 95.2973Z" fill="#ED509E"/>
<path d="M107.41 99.389L107.173 104.261C107.173 104.261 101.528 102.769 101.555 102.441C101.583 102.114 101.946 97.8114 101.946 97.8114C101.946 97.8114 106.882 99.3186 107.41 99.389Z" fill="#ED509E"/>
<path d="M101.87 98.7158L103.56 99.3016" stroke="#FF8E3A" stroke-miterlimit="10"/>
<path d="M101.773 99.8672L103.315 100.488" stroke="#FF8E3A" stroke-miterlimit="10"/>
<path d="M101.657 101.229L103.058 101.792" stroke="#FF8E3A" stroke-miterlimit="10"/>
<path d="M109.911 85.4172C109.911 87.47 111.633 89.1342 113.757 89.1342C115.882 89.1342 117.604 87.47 117.604 85.4172C117.604 83.3643 115.882 81.7002 113.757 81.7002C111.633 81.7002 109.911 83.3643 109.911 85.4172Z" fill="#FF8E3A"/>
<path d="M111.643 87.3762C111.643 92.2936 115.768 96.2799 120.857 96.2799C125.946 96.2799 130.071 92.2936 130.071 87.3762C130.071 82.4589 125.946 78.4727 120.857 78.4727C115.768 78.4727 111.643 82.4589 111.643 87.3762Z" fill="#ED509E"/>
<path d="M116.704 86.802C116.376 87.8932 116.299 88.8311 116.533 88.8969C116.767 88.9625 117.223 88.1312 117.551 87.0399C117.879 85.9487 117.956 85.0108 117.722 84.945C117.489 84.8794 117.033 85.7108 116.704 86.802Z" fill="#3D3E00"/>
<path d="M131.053 97.2509C130.317 99.5697 130.708 102.142 130.925 103.194C130.98 103.458 130.802 103.714 130.538 103.749L121.797 104.93C121.482 104.972 121.216 104.682 121.291 104.367C121.461 103.651 121.272 102.505 120.664 100.778C119.945 98.7391 120.083 95.8219 120.326 94.5168C120.327 94.516 120.327 94.5152 120.327 94.5137L121.274 85.4894C121.329 84.9347 120.999 84.4111 120.463 84.203L114.576 81.9232C113.7 81.5835 113.476 80.4849 114.155 79.8522C115.903 78.2222 119.343 76.3958 124.832 77.8895C132.698 80.0299 135.153 90.7293 131.053 97.2509Z" fill="#3D3E00"/>
<path d="M119.538 89.8332C119.538 91.8861 121.261 93.5502 123.385 93.5502C125.509 93.5502 127.232 91.8861 127.232 89.8332C127.232 87.7803 125.509 86.1162 123.385 86.1162C121.261 86.1162 119.538 87.7803 119.538 89.8332Z" fill="#ED509E"/>
<path d="M112.622 85.2992C112.293 86.3904 112.152 87.3103 112.306 87.3537C112.461 87.397 112.852 86.5477 113.181 85.4565C113.509 84.3653 113.65 83.4455 113.496 83.402C113.342 83.3587 112.95 84.208 112.622 85.2992Z" fill="#3D3E00"/>
<path d="M46.528 64.492C46.528 65.8919 45.393 67.0269 43.993 67.0269C42.5931 67.0269 41.4581 65.8919 41.4581 64.492C41.4581 63.092 42.5931 61.957 43.993 61.957C45.393 61.957 46.528 63.092 46.528 64.492Z" fill="#3D3E00"/>
<path d="M178.279 157.654H153.564V143.619H178.279V157.654Z" fill="#9C73F8"/>
<path d="M159.43 157.654H133.543V137.604H159.43V157.654Z" fill="#9C73F8"/>
<path d="M139.741 157.654H113.854V131.767H139.741V157.654Z" fill="#3D3E00"/>
<path d="M16.519 62.0601C16.519 63.2615 15.545 64.2354 14.3436 64.2354C13.1422 64.2354 12.1683 63.2615 12.1683 62.0601C12.1683 60.8587 13.1422 59.8848 14.3436 59.8848C15.545 59.8848 16.519 60.8587 16.519 62.0601Z" stroke="#3D3E00" stroke-miterlimit="10"/>
<path d="M26.258 113.582C26.258 114.783 25.2841 115.757 24.0828 115.757C22.8813 115.757 21.9073 114.783 21.9073 113.582C21.9073 112.38 22.8813 111.406 24.0828 111.406C25.2841 111.406 26.258 112.38 26.258 113.582Z" stroke="#3D3E00" stroke-miterlimit="10"/>
<path d="M188.779 55.0455C188.779 56.2468 187.805 57.2208 186.604 57.2208C185.402 57.2208 184.428 56.2468 184.428 55.0455C184.428 53.8441 185.402 52.8701 186.604 52.8701C187.805 52.8701 188.779 53.8441 188.779 55.0455Z" stroke="#3D3E00" stroke-miterlimit="10"/>
</g>
</g>
</svg>
