<svg width="280" height="280" viewBox="0 0 280 280" fill="none" xmlns="http://www.w3.org/2000/svg">
<g opacity="0.2" clip-path="url(#clip0_1624_791)" filter="url(#filter0_d_1624_791)">
<mask id="mask0_1624_791" style="mask-type:luminance" maskUnits="userSpaceOnUse" x="0" y="0" width="280" height="280">
<path d="M280 0H0V280H280V0Z" fill="white"/>
</mask>
<g mask="url(#mask0_1624_791)">
<mask id="mask1_1624_791" style="mask-type:luminance" maskUnits="userSpaceOnUse" x="34" y="27" width="220" height="220">
<path d="M34.621 27.5869H253.371V246.337H34.621V27.5869Z" fill="white"/>
</mask>
<g mask="url(#mask1_1624_791)">
<path d="M179.408 219.113L176.851 219.587L175.606 216.766L172.953 217.603L172.03 215.244L171.548 215.954L172.532 218.479L175.217 217.63L176.429 220.383L179.073 219.894L180.27 221.726L180.858 221.341L179.408 219.113Z" fill="#FFB4B1"/>
<path d="M232.086 141.352L233.829 141.217L234.107 139.417L233.293 139.291L233.119 140.449L231.502 140.579L230.893 142.207L228.723 142.229L228.605 144.241L226.47 144.353L226.118 146.267L224.534 146.614L224.709 147.419L226.828 146.956L227.159 145.143L229.385 145.026L229.5 143.04L231.463 143.024L232.086 141.352Z" fill="#FFB4B1"/>
<path d="M149.009 43.9902L150.753 43.8551L151.03 42.0545L150.217 41.9291L150.042 43.0872L148.425 43.2166L147.816 44.845L145.647 44.867L145.528 46.8789L143.393 46.991L143.042 48.9051L141.457 49.2515L141.632 50.0565L143.751 49.5934L144.082 47.781L146.308 47.6639L146.423 45.6774L148.386 45.662L149.009 43.9902Z" fill="#FFB4B1"/>
<path d="M138.52 223.407L139.135 222.155L139.884 222.596L138.96 224.49L136.742 223.694L135.677 225.33L133.421 224.911L133.579 224.057L135.268 224.369L136.389 222.646L138.52 223.407Z" fill="#FFB4B1"/>
<path d="M55.4523 113.862L56.0674 112.61L56.8166 113.051L55.8926 114.945L53.6747 114.149L52.609 115.785L50.3534 115.366L50.5108 114.512L52.1998 114.824L53.3218 113.101L55.4523 113.862Z" fill="#FFB4B1"/>
<path d="M66.813 181.637L67.4278 180.379L68.1769 180.827L67.253 182.714L65.0386 181.922L63.9734 183.557L61.7177 183.138L61.875 182.284L63.5603 182.599L64.6861 180.873L66.813 181.637Z" fill="#FFB4B1"/>
<path d="M198.372 70.1424L199.108 71.6562L198.129 72.0403L197.019 69.7572L199.415 68.236L198.65 66.0091L200.723 64.1666L201.416 64.9528L199.868 66.3273L200.679 68.6767L198.372 70.1424Z" fill="#FFB4B1"/>
<path d="M226.199 110.142L227.269 109.245L227.769 109.958L226.159 111.308L224.457 109.679L222.818 110.743L220.926 109.443L221.419 108.729L222.835 109.696L224.56 108.58L226.199 110.142Z" fill="#8446FF"/>
<path d="M115.453 49.9385L116.522 49.0421L117.022 49.7553L115.413 51.1054L113.711 49.4759L112.072 50.5402L110.18 49.2395L110.672 48.5258L112.089 49.4933L113.814 48.3769L115.453 49.9385Z" fill="#8446FF"/>
<path d="M96.9913 215.371L95.8536 214.563L96.4175 213.899L98.1306 215.115L96.9839 217.174L98.428 218.491L97.6476 220.65L96.8325 220.354L97.4106 218.739L95.8945 217.352L96.9913 215.371Z" fill="#FF8E3A"/>
<path d="M194.837 206.427C192.793 207.84 192.85 209.31 192.691 209.72L195.308 210.453C195.451 210.125 195.452 208.957 197.101 207.907C198.084 207.282 199.288 206.555 199.703 205.054C200.158 203.415 199.375 201.643 196.768 200.921C195.907 200.685 195.088 200.614 194.391 200.649C193.756 200.68 193.259 201.213 193.28 201.853C193.3 202.478 193.812 202.985 194.442 202.98C195.656 202.975 196.875 203.533 196.553 204.69C196.368 205.361 195.677 205.853 194.837 206.427ZM193.679 210.99C192.65 210.709 191.713 211.257 191.421 212.302C191.134 213.331 191.631 214.299 192.681 214.586C193.746 214.878 194.668 214.304 194.955 213.28C195.226 212.23 194.745 211.287 193.679 210.99Z" fill="#FFB4B1"/>
<path d="M165.401 50.2412C163.357 51.6549 163.413 53.1246 163.255 53.5345L165.872 54.2671C166.015 53.9392 166.015 52.7714 167.665 51.7214C168.648 51.0966 169.852 50.3692 170.266 48.8686C170.722 47.2296 169.938 45.4575 167.332 44.7353C166.471 44.4996 165.652 44.428 164.955 44.4638C164.32 44.4944 163.823 45.0273 163.844 45.6675C163.864 46.2923 164.376 46.7995 165.006 46.7943C166.22 46.7891 167.439 47.3475 167.116 48.5049C166.932 49.1759 166.241 49.6676 165.401 50.2412ZM164.243 54.8049C163.214 54.5233 162.276 55.0712 161.984 56.1161C161.698 57.1455 162.194 58.1135 163.244 58.4003C164.31 58.6924 165.232 58.1184 165.518 57.0941C165.79 56.0441 165.308 55.1019 164.243 54.8049Z" fill="#FF8E3A"/>
<path d="M233.978 126.628C234.106 126.608 234.209 126.52 234.244 126.402L234.972 124.134L237.256 123.447C237.379 123.412 237.466 123.309 237.487 123.186C237.507 123.063 237.456 122.935 237.353 122.863L235.422 121.465L235.479 119.078C235.484 118.955 235.417 118.838 235.305 118.781C235.197 118.725 235.064 118.735 234.961 118.807L233.036 120.215L230.782 119.427C230.664 119.386 230.531 119.416 230.444 119.503C230.357 119.59 230.321 119.724 230.362 119.842L231.105 122.111L229.655 124.006C229.584 124.103 229.568 124.236 229.624 124.349C229.676 124.461 229.793 124.533 229.916 124.533L232.303 124.528L233.66 126.49C233.732 126.592 233.855 126.649 233.978 126.628Z" fill="#FF8E3A"/>
<path d="M130.713 49.6818C130.841 49.6612 130.944 49.574 130.979 49.4562L131.707 47.1875L133.991 46.5011C134.114 46.4653 134.201 46.3628 134.222 46.2397C134.242 46.1167 134.191 45.9887 134.088 45.9171L132.157 44.519L132.214 42.1321C132.219 42.0091 132.152 41.8912 132.04 41.8349C131.932 41.7786 131.799 41.789 131.696 41.8606L129.771 43.2691L127.517 42.4802C127.399 42.4392 127.266 42.4701 127.179 42.5571C127.092 42.644 127.056 42.7775 127.097 42.8953L127.84 45.1643L126.39 47.0592C126.319 47.1566 126.303 47.2897 126.359 47.4024C126.411 47.515 126.528 47.5869 126.651 47.5869L129.038 47.5818L130.395 49.5434C130.467 49.6459 130.59 49.7023 130.713 49.6818Z" fill="#FF8E3A"/>
<path d="M122.756 234.102L121.788 232.494L119.918 232.366C119.719 232.356 119.616 232.115 119.749 231.961L120.984 230.543L120.513 228.724C120.462 228.53 120.656 228.356 120.845 228.438L122.577 229.17L124.159 228.161C124.328 228.054 124.554 228.187 124.533 228.392L124.369 230.266L125.819 231.46C125.972 231.593 125.916 231.844 125.716 231.89L123.888 232.315L123.196 234.067C123.12 234.256 122.858 234.277 122.756 234.102Z" fill="#FFB4B1"/>
<path d="M80.9292 76.9442L79.9612 75.3359L78.0917 75.2079C77.8918 75.1978 77.7896 74.9569 77.9227 74.8032L79.157 73.3846L78.6859 71.5663C78.6347 71.3716 78.8292 71.1974 79.0187 71.2794L80.7498 72.012L82.3324 71.003C82.5014 70.8955 82.727 71.0287 82.7065 71.2335L82.5424 73.1079L83.9919 74.3015C84.1456 74.4346 84.0896 74.6854 83.8897 74.7316L82.0612 75.1568L81.3697 76.9084C81.2928 77.0979 81.0317 77.1184 80.9292 76.9442Z" fill="#FFB4B1"/>
<path d="M112.076 220.672L114.012 220.078C114.165 220.032 114.201 219.827 114.068 219.73L112.419 218.557L112.449 216.534C112.455 216.37 112.27 216.273 112.137 216.37L110.513 217.574L108.598 216.918C108.444 216.867 108.296 217.015 108.347 217.169L108.992 219.089L107.779 220.708C107.681 220.841 107.773 221.025 107.937 221.025L109.96 221.005L111.123 222.659C111.215 222.793 111.42 222.757 111.471 222.603L112.076 220.672Z" fill="#FF8E3A"/>
<path d="M58.8237 151.865L60.7596 151.27C60.9133 151.224 60.9491 151.019 60.816 150.922L59.1669 149.749L59.1975 147.726C59.2027 147.562 59.0184 147.465 58.8852 147.562L57.2616 148.766L55.3461 148.11C55.1925 148.059 55.044 148.208 55.0951 148.361L55.7404 150.282L54.5266 151.9C54.4293 152.033 54.5214 152.218 54.6852 152.218L56.7084 152.198L57.871 153.852C57.9632 153.985 58.1683 153.949 58.2194 153.796L58.8237 151.865Z" fill="#FF8E3A"/>
<path d="M187.221 65.9631L189.157 65.369C189.311 65.3228 189.347 65.1179 189.213 65.0206L187.564 63.8478L187.595 61.8247C187.6 61.6609 187.416 61.5635 187.283 61.6609L185.659 62.8645L183.744 62.2088C183.59 62.1577 183.442 62.3062 183.493 62.4599L184.138 64.3805L182.924 65.999C182.827 66.1321 182.919 66.3164 183.083 66.3164L185.106 66.2962L186.269 67.9505C186.361 68.0836 186.566 68.0478 186.617 67.8942L187.221 65.9631Z" fill="#FFB4B1"/>
<mask id="mask2_1624_791" style="mask-type:luminance" maskUnits="userSpaceOnUse" x="222" y="153" width="18" height="18">
<path d="M222.535 153.609H239.168V170.55H222.535V153.609Z" fill="white"/>
</mask>
<g mask="url(#mask2_1624_791)">
<path d="M229.229 166.428C226.033 165.568 225.462 161.224 228.335 159.597C231.202 157.97 234.641 160.693 233.735 163.878C233.424 164.968 233.879 165.591 234.751 167.461C234.987 167.968 234.791 168.58 234.301 168.857L233.21 169.474C232.72 169.751 232.096 169.607 231.779 169.14L230.631 167.443C230.297 166.953 229.806 166.584 229.229 166.428Z" fill="#FFB4B1"/>
<path d="M229.638 163.964C229.915 164.42 230.833 166.064 231.641 167.64L231.802 167.565C231.046 166.082 230.158 164.484 229.806 163.895C230.36 163.63 230.862 163.261 231.283 162.816C231.848 164.074 232.454 165.326 233.083 166.549L233.239 166.468C232.598 165.228 231.986 163.953 231.41 162.672C231.657 162.389 231.929 162.043 231.929 161.674C231.923 161.501 231.842 161.322 231.715 161.207C231.369 160.901 230.914 161.189 230.885 161.645C230.867 161.945 231.017 162.239 231.196 162.637C230.781 163.099 230.273 163.474 229.708 163.739C229.517 163.451 229.304 163.197 228.992 163.07C227.908 162.614 227.919 164.703 229.638 163.964ZM229.54 163.809C229.171 163.965 228.883 163.987 228.663 163.878C228.3 163.693 228.34 162.984 228.923 163.226C229.183 163.336 229.373 163.555 229.54 163.809ZM231.329 162.487C231.19 162.17 231.046 161.905 231.064 161.651C231.075 161.472 231.352 161.258 231.375 161.258C231.577 161.235 231.75 161.466 231.75 161.674C231.75 161.968 231.525 162.251 231.329 162.487Z" fill="#FFB4B1"/>
<path d="M230.631 167.443C230.625 167.432 230.613 167.414 230.602 167.403L233.867 165.557C234.058 166.047 234.364 166.63 234.75 167.46C234.987 167.968 234.791 168.58 234.3 168.857L233.21 169.474C232.719 169.751 232.096 169.607 231.779 169.139L230.631 167.443Z" fill="#FFB4B1"/>
<path d="M224.025 157.705L225.554 159.037C225.704 159.164 225.923 159.153 226.056 159.003C226.183 158.853 226.171 158.628 226.021 158.501L224.492 157.168C224.342 157.041 224.117 157.053 223.99 157.203C223.864 157.353 223.875 157.578 224.025 157.705Z" fill="#FFB4B1"/>
<path d="M222.986 164.369L225.04 163.809C225.23 163.757 225.34 163.561 225.288 163.37C225.236 163.18 225.04 163.07 224.85 163.122L222.796 163.682C222.606 163.734 222.496 163.93 222.548 164.121C222.6 164.311 222.796 164.421 222.986 164.369Z" fill="#FFB4B1"/>
<path d="M225.138 170.166C225.057 170.345 225.132 170.559 225.311 170.64C225.49 170.726 225.698 170.645 225.784 170.467C226.073 169.843 226.431 169.243 226.834 168.69C226.95 168.534 226.909 168.309 226.754 168.193C226.598 168.078 226.373 168.118 226.257 168.274C225.825 168.863 225.449 169.503 225.138 170.166Z" fill="#FFB4B1"/>
<path d="M230.054 156.81C230.071 157.006 230.244 157.15 230.441 157.133C230.637 157.116 230.781 156.949 230.764 156.747C230.671 155.771 230.481 154.796 230.192 153.862C230.135 153.671 229.938 153.568 229.748 153.625C229.558 153.683 229.454 153.885 229.512 154.07C229.788 154.958 229.967 155.881 230.054 156.81Z" fill="#FFB4B1"/>
<path d="M233.504 158.448C233.348 158.564 233.32 158.789 233.435 158.945C233.556 159.1 233.775 159.129 233.931 159.014L235.772 157.629C235.927 157.514 235.956 157.289 235.841 157.133C235.725 156.977 235.501 156.948 235.345 157.064L233.504 158.448Z" fill="#FFB4B1"/>
<path d="M238.772 163.226C238.801 163.22 238.835 163.214 238.864 163.203C239.008 163.151 239.106 163.006 239.095 162.845C239.083 162.649 238.91 162.499 238.714 162.516C237.975 162.574 237.226 162.557 236.487 162.453C236.297 162.43 236.118 162.562 236.089 162.758C236.066 162.949 236.199 163.128 236.395 163.157C237.179 163.266 237.981 163.289 238.772 163.226Z" fill="#FFB4B1"/>
</g>
<mask id="mask3_1624_791" style="mask-type:luminance" maskUnits="userSpaceOnUse" x="86" y="46" width="19" height="20">
<path d="M86.269 46.7979H104.705V65.5749H86.269V46.7979Z" fill="white"/>
</mask>
<g mask="url(#mask3_1624_791)">
<path d="M93.6887 61.0064C90.146 60.0536 89.513 55.2381 92.6976 53.4348C95.8757 51.6315 99.6872 54.6495 98.6831 58.1796C98.3379 59.3882 98.8432 60.0788 99.8087 62.1508C100.071 62.7134 99.8534 63.3914 99.3099 63.6984L98.101 64.3829C97.5575 64.6898 96.8668 64.5297 96.5152 64.0118L95.2428 62.1317C94.872 61.5882 94.3282 61.1792 93.6887 61.0064Z" fill="#FFB4B1"/>
<path d="M94.1424 58.275C94.4494 58.7803 95.4664 60.6027 96.3615 62.3486L96.5404 62.2657C95.7026 60.6222 94.718 58.8506 94.3278 58.1982C94.9417 57.9039 95.4981 57.4949 95.9648 57.0026C96.5917 58.3966 97.2628 59.7844 97.96 61.1401L98.1327 61.0506C97.423 59.6758 96.7449 58.2621 96.1055 56.8425C96.3803 56.5291 96.6811 56.1457 96.6811 55.7364C96.6746 55.5445 96.5852 55.3465 96.4445 55.2185C96.0608 54.8794 95.5558 55.199 95.5237 55.7043C95.5046 56.0368 95.6705 56.3632 95.8689 56.8043C95.4084 57.316 94.8461 57.7315 94.2193 58.0258C94.0083 57.7059 93.7713 57.4246 93.4262 57.2839C92.2241 56.7787 92.2367 59.0937 94.1424 58.275ZM94.0335 58.1026C93.6242 58.2754 93.3046 58.3006 93.0616 58.1791C92.6587 57.9746 92.7034 57.188 93.3494 57.4567C93.6372 57.5782 93.8481 57.8213 94.0335 58.1026ZM96.016 56.638C95.8624 56.2864 95.703 55.9921 95.7221 55.7108C95.7347 55.5124 96.0417 55.2758 96.0673 55.2758C96.2912 55.2502 96.4831 55.5063 96.4831 55.7364C96.4831 56.0624 96.2335 56.3758 96.016 56.638Z" fill="#FFB4B1"/>
<path d="M95.2421 62.1311C95.2356 62.1185 95.223 62.099 95.2104 62.0864L98.8299 60.04C99.0409 60.5836 99.3799 61.2295 99.8084 62.1502C100.071 62.7129 99.8531 63.3909 99.3096 63.6978L98.1007 64.3823C97.5572 64.6892 96.8665 64.5291 96.5149 64.0112L95.2421 62.1311Z" fill="#FFB4B1"/>
<path d="M87.9207 51.337L89.6151 52.8139C89.7814 52.9546 90.0245 52.9419 90.1716 52.7757C90.3123 52.6094 90.2996 52.3598 90.1334 52.2192L88.4387 50.7423C88.2724 50.6016 88.0228 50.6142 87.8822 50.7805C87.7415 50.9468 87.7545 51.1963 87.9207 51.337Z" fill="#FFB4B1"/>
<path d="M86.7692 58.7238L89.0457 58.1034C89.2566 58.0457 89.3785 57.8283 89.3208 57.6173C89.2631 57.4063 89.0457 57.2848 88.8347 57.3425L86.5582 57.9628C86.3472 58.0205 86.2253 58.238 86.283 58.4489C86.3407 58.6599 86.5582 58.7815 86.7692 58.7238Z" fill="#FFB4B1"/>
<path d="M89.1542 65.1503C89.0648 65.3486 89.1477 65.5852 89.3461 65.6747C89.5444 65.7706 89.7745 65.6812 89.8705 65.4828C90.1904 64.7922 90.5867 64.1271 91.0343 63.5133C91.1623 63.3405 91.1176 63.0913 90.9449 62.9633C90.7721 62.8352 90.5229 62.88 90.3949 63.0527C89.9152 63.7051 89.4994 64.4149 89.1542 65.1503Z" fill="#FFB4B1"/>
<path d="M94.603 50.3455C94.6221 50.563 94.814 50.7228 95.0315 50.7037C95.2489 50.6845 95.4087 50.4992 95.3896 50.2752C95.2872 49.1943 95.0762 48.1135 94.7563 47.0776C94.6924 46.8667 94.475 46.7516 94.264 46.8154C94.053 46.8793 93.9379 47.1036 94.0018 47.3081C94.3087 48.293 94.5071 49.3159 94.603 50.3455Z" fill="#FFB4B1"/>
<path d="M98.427 52.1618C98.2543 52.2899 98.2225 52.5391 98.3506 52.7118C98.4847 52.8846 98.7275 52.9167 98.9002 52.7886L100.94 51.2537C101.113 51.1257 101.145 50.8765 101.017 50.7037C100.889 50.531 100.64 50.4989 100.467 50.6269L98.427 52.1618Z" fill="#FFB4B1"/>
<path d="M104.266 57.4575C104.298 57.451 104.336 57.4445 104.368 57.4319C104.528 57.3742 104.636 57.2141 104.624 57.0352C104.611 56.8177 104.419 56.6518 104.202 56.6709C103.383 56.7347 102.552 56.7156 101.734 56.6006C101.523 56.5749 101.324 56.7217 101.292 56.9392C101.266 57.1502 101.414 57.3486 101.631 57.3807C102.501 57.5022 103.39 57.5278 104.266 57.4575Z" fill="#FFB4B1"/>
</g>
<mask id="mask4_1624_791" style="mask-type:luminance" maskUnits="userSpaceOnUse" x="148" y="218" width="12" height="12">
<path d="M148.493 218.249H159.105V229.525H148.493V218.249Z" fill="white"/>
</mask>
<g mask="url(#mask4_1624_791)">
<path d="M154.924 219.507L155.579 218.298L159.128 220.741L158.167 221.524C155.57 223.918 153.38 226.51 151.479 229.414C149.027 229.84 148.493 227.405 148.493 227.405L148.77 227.165C151.292 224.957 153.38 222.365 154.924 219.507Z" fill="#8446FF"/>
<path d="M157.099 219.83C158.076 220.505 158.987 220.911 159.132 220.737C159.277 220.563 158.602 219.871 157.625 219.196C156.647 218.521 155.728 218.115 155.583 218.289C155.438 218.463 156.121 219.155 157.099 219.83Z" fill="#8446FF"/>
<path d="M156.469 218.795C156.879 219.482 159.132 220.741 159.128 220.746C158.966 220.903 158.068 220.497 157.103 219.83C156.755 219.594 156.448 219.354 156.2 219.135L156.469 218.795Z" fill="#FF8E3A"/>
<path d="M152.361 223.392C153.491 225.11 154.767 224.808 155.053 224.713C154.842 224.949 154.639 225.189 154.436 225.425C154.34 225.425 154.216 225.413 154.125 225.4C153.537 225.326 152.688 225.007 151.918 223.938C152.067 223.756 152.216 223.574 152.361 223.392Z" fill="#FF8E3A"/>
<path d="M151.996 220.638L152.783 223.446L152.269 223.74L150.687 221.35L151.594 221.491L151.996 220.638Z" fill="#FF8E3A"/>
<path d="M149.954 223.549L152.154 223.926L152.087 224.431L149.954 224.609L150.468 224.149L149.954 223.549Z" fill="#FF8E3A"/>
<path d="M152.39 223.221C151.847 223.437 151.57 223.992 151.764 224.468C151.963 224.94 152.555 225.151 153.098 224.94C153.636 224.725 153.914 224.17 153.719 223.694C153.524 223.222 152.928 223.006 152.39 223.221Z" fill="#FF8E3A"/>
</g>
<mask id="mask5_1624_791" style="mask-type:luminance" maskUnits="userSpaceOnUse" x="44" y="127" width="14" height="15">
<path d="M44.4427 127.138H57.7175V141.242H44.4427V127.138Z" fill="white"/>
</mask>
<g mask="url(#mask5_1624_791)">
<path d="M52.4878 128.711L53.3061 127.198L57.7457 130.255L56.5437 131.234C53.2956 134.228 50.5555 137.471 48.1776 141.102C45.1109 141.636 44.4427 138.59 44.4427 138.59L44.7898 138.289C47.9445 135.528 50.5555 132.285 52.4878 128.711Z" fill="#8446FF"/>
<path d="M55.2074 129.115C56.4301 129.959 57.5695 130.467 57.7509 130.25C57.9323 130.032 57.088 129.167 55.8654 128.323C54.6427 127.478 53.4928 126.97 53.3114 127.188C53.1299 127.406 53.9848 128.271 55.2074 129.115Z" fill="#8446FF"/>
<path d="M54.4198 127.82C54.9325 128.68 57.7506 130.255 57.7454 130.26C57.5432 130.457 56.4193 129.95 55.2124 129.115C54.7774 128.82 54.3938 128.52 54.0829 128.245L54.4198 127.82Z" fill="#FF8E3A"/>
<path d="M49.2811 133.57C50.6954 135.72 52.2911 135.342 52.6484 135.223C52.3843 135.518 52.1304 135.819 51.8766 136.114C51.7574 136.114 51.6019 136.098 51.488 136.083C50.7524 135.99 49.6904 135.591 48.7269 134.254C48.9133 134.026 49.0997 133.798 49.2811 133.57Z" fill="#FF8E3A"/>
<path d="M48.825 130.125L49.8093 133.637L49.1669 134.005L47.1881 131.016L48.3225 131.192L48.825 130.125Z" fill="#FF8E3A"/>
<path d="M46.2713 133.767L49.022 134.238L48.939 134.87L46.2713 135.093L46.9138 134.518L46.2713 133.767Z" fill="#FF8E3A"/>
<path d="M49.3173 133.358C48.6387 133.627 48.2916 134.321 48.5349 134.917C48.7836 135.507 49.5245 135.772 50.2031 135.508C50.8765 135.238 51.2233 134.544 50.98 133.948C50.7366 133.358 49.9907 133.088 49.3173 133.358Z" fill="#FF8E3A"/>
</g>
<mask id="mask6_1624_791" style="mask-type:luminance" maskUnits="userSpaceOnUse" x="209" y="182" width="11" height="10">
<path d="M209.917 182.105H219.761V191.949H209.917V182.105Z" fill="white"/>
</mask>
<g mask="url(#mask6_1624_791)">
<path d="M213.914 191.977C216.613 192.52 219.241 190.779 219.789 188.079C220.337 185.385 218.59 182.753 215.891 182.205C213.192 181.662 210.565 183.403 210.017 186.102C209.474 188.802 211.215 191.429 213.914 191.977Z" fill="#FFB4B1"/>
<path d="M214.221 190.477C212.777 190.184 211.845 188.781 212.137 187.337L217.361 188.392C217.069 189.836 215.666 190.769 214.221 190.477Z" fill="#FFB4B1"/>
</g>
<mask id="mask7_1624_791" style="mask-type:luminance" maskUnits="userSpaceOnUse" x="51" y="160" width="11" height="11">
<path d="M51.4185 160.913H61.2622V170.757H51.4185V160.913Z" fill="white"/>
</mask>
<g mask="url(#mask7_1624_791)">
<path d="M55.4154 170.785C58.1145 171.328 60.7422 169.586 61.2902 166.887C61.8382 164.193 60.0915 161.56 57.3924 161.012C54.6933 160.469 52.0658 162.211 51.5178 164.91C50.9748 167.609 52.7163 170.237 55.4154 170.785Z" fill="#FFB4B1"/>
<path d="M55.7226 169.284C54.2783 168.992 53.3459 167.589 53.638 166.145L58.8623 167.2C58.5702 168.644 57.1669 169.576 55.7226 169.284Z" fill="#FFB4B1"/>
</g>
<mask id="mask8_1624_791" style="mask-type:luminance" maskUnits="userSpaceOnUse" x="207" y="75" width="20" height="22">
<path d="M207.626 75.2607H226.625V96.3999H207.626V75.2607Z" fill="white"/>
</mask>
<g mask="url(#mask8_1624_791)">
<path d="M217.236 75.2607C217.703 75.2607 218.144 75.5313 218.54 76.0576C220.575 78.7642 221.146 87.8864 219.607 93.1793C219.006 95.2544 218.169 96.3972 217.257 96.3972C216.394 96.3972 215.592 95.4048 214.986 93.6004C214.329 91.6406 213.983 88.9541 213.983 85.8266C213.983 83.0849 214.58 75.2607 217.236 75.2607ZM217.236 95.861C217.878 95.861 218.564 94.8383 219.076 93.1241C219.647 91.2096 219.963 88.6183 219.963 85.8266C219.963 83.0349 219.647 80.4433 219.076 78.5287C218.564 76.8095 217.878 75.7871 217.236 75.7871C216.595 75.7871 215.908 76.8146 215.397 78.5287C214.826 80.4433 214.51 83.0349 214.51 85.8266C214.51 88.6183 214.826 91.2096 215.397 93.1241C215.908 94.8383 216.595 95.861 217.236 95.861Z" fill="#FF8E3A"/>
<path d="M209.848 79.9766C214.324 79.9766 224.138 85.2244 226.263 88.748C226.724 89.5098 226.815 90.1614 226.534 90.6877C226.233 91.259 225.556 91.5448 224.514 91.5448C220.058 91.5448 210.254 86.2822 208.124 82.7485C207.663 81.9917 207.573 81.3399 207.849 80.8187C208.144 80.2573 208.816 79.9766 209.848 79.9766ZM224.534 90.9582C225.416 90.9582 225.968 90.7479 226.128 90.3519C226.293 89.9459 226.133 89.1138 224.439 87.4799C222.489 85.5902 219.753 83.811 216.745 82.4627C214.084 81.2698 211.507 80.558 209.858 80.558C208.976 80.558 208.425 80.7635 208.265 81.1596C208.099 81.5655 208.26 82.3926 209.954 84.0315C214.394 88.322 221.436 90.9582 224.534 90.9582Z" fill="#FF8E3A"/>
<path d="M224.364 79.8467C225.381 79.8467 226.053 80.1373 226.359 80.7038C226.639 81.225 226.549 81.8867 226.088 82.6536C223.948 86.2524 214.174 91.6054 209.748 91.6054C208.741 91.6054 208.079 91.3247 207.778 90.7684C207.508 90.2621 207.598 89.6205 208.049 88.8587C209.037 87.1945 211.844 84.9541 215.362 83.0044C218.886 81.0596 222.334 79.8467 224.364 79.8467ZM211.613 90.8083C214.61 90.1567 218.269 88.4626 221.402 86.2773C224.309 84.2525 226.108 82.2678 225.993 81.2151C225.938 80.6939 225.402 80.4281 224.394 80.4281C222.204 80.4281 218.815 81.6162 215.322 83.606C212.069 85.4606 209.388 87.6355 208.485 89.1492C208.144 89.7256 208.064 90.1869 208.245 90.5228C208.43 90.8637 208.946 91.044 209.738 91.044C210.265 91.044 210.896 90.9637 211.613 90.8083Z" fill="#FF8E3A"/>
<path d="M217.251 87.1993C218.184 87.1993 218.94 86.4426 218.94 85.5103C218.94 84.573 218.184 83.8162 217.251 83.8213C216.319 83.8213 215.562 84.578 215.562 85.5103C215.562 86.4426 216.319 87.1993 217.251 87.1993Z" fill="#FF8E3A"/>
<path d="M215.487 78.8496C216.189 78.8496 216.755 78.2832 216.755 77.5816C216.755 76.8848 216.189 76.3135 215.487 76.3135C214.786 76.3135 214.219 76.88 214.219 77.5816C214.219 78.2832 214.786 78.8496 215.487 78.8496Z" fill="#FF8E3A"/>
<path d="M219.607 93.6804C220.194 93.6804 220.664 93.2044 220.664 92.6229C220.664 92.0415 220.194 91.5654 219.607 91.5654C219.02 91.5654 218.549 92.0415 218.549 92.6229C218.549 93.2095 219.026 93.6804 219.607 93.6804Z" fill="#FF8E3A"/>
<path d="M209.322 88.6431C209.924 88.6431 210.415 88.1521 210.415 87.5506C210.415 86.949 209.928 86.458 209.322 86.458C208.721 86.458 208.23 86.949 208.23 87.5506C208.23 88.1521 208.721 88.6431 209.322 88.6431Z" fill="#FF8E3A"/>
<path d="M225.687 83.5708C226.183 83.5708 226.584 83.1697 226.584 82.6736C226.584 82.1775 226.183 81.7764 225.687 81.7764C225.191 81.7764 224.79 82.1775 224.79 82.6736C224.79 83.1697 225.191 83.5708 225.687 83.5708Z" fill="#FF8E3A"/>
<path d="M212.385 81.686C212.881 81.686 213.282 81.2849 213.282 80.7888C213.282 80.2927 212.881 79.8916 212.385 79.8916C211.889 79.8916 211.487 80.2927 211.487 80.7888C211.487 81.2849 211.889 81.686 212.385 81.686Z" fill="#FF8E3A"/>
</g>
<mask id="mask9_1624_791" style="mask-type:luminance" maskUnits="userSpaceOnUse" x="54" y="80" width="20" height="23">
<path d="M54.1694 80.791H73.5461V102.351H54.1694V80.791Z" fill="white"/>
</mask>
<g mask="url(#mask9_1624_791)">
<path d="M63.971 80.791C64.4464 80.791 64.8962 81.0669 65.3001 81.6037C67.3756 84.3642 67.9585 93.668 66.389 99.0662C65.7755 101.183 64.9218 102.348 63.9915 102.348C63.1122 102.348 62.294 101.336 61.6756 99.4958C61.0058 97.497 60.6532 94.7569 60.6532 91.5672C60.6532 88.7709 61.2615 80.791 63.971 80.791ZM63.971 101.801C64.6254 101.801 65.3255 100.758 65.847 99.01C66.4297 97.0573 66.752 94.4144 66.752 91.5672C66.752 88.7199 66.4297 86.0767 65.847 84.1241C65.3255 82.3706 64.6254 81.3278 63.971 81.3278C63.3166 81.3278 62.6163 82.3758 62.0947 84.1241C61.5121 86.0767 61.19 88.7199 61.19 91.5672C61.19 94.4144 61.5121 97.0573 62.0947 99.01C62.6163 100.758 63.3166 101.801 63.971 101.801Z" fill="#FF8E3A"/>
<path d="M56.4359 85.6006C61.0009 85.6006 71.0099 90.9529 73.1774 94.5466C73.6476 95.3236 73.7398 95.9881 73.4536 96.5249C73.1468 97.1076 72.4566 97.3991 71.3934 97.3991C66.8489 97.3991 56.85 92.0317 54.6773 88.4277C54.2071 87.6559 54.1151 86.9911 54.3962 86.4594C54.6978 85.8869 55.3828 85.6006 56.4359 85.6006ZM71.4138 96.8008C72.3136 96.8008 72.8761 96.5863 73.0396 96.1824C73.2082 95.7684 73.0445 94.9197 71.3167 93.2533C69.3282 91.326 66.5372 89.5114 63.4699 88.1362C60.7556 86.9196 58.128 86.1936 56.446 86.1936C55.5463 86.1936 54.9841 86.4032 54.8206 86.8071C54.6519 87.2211 54.8154 88.0647 56.5432 89.7363C61.0724 94.1121 68.2546 96.8008 71.4138 96.8008Z" fill="#FF8E3A"/>
<path d="M71.2403 85.4688C72.2779 85.4688 72.9629 85.7651 73.2748 86.3429C73.5611 86.8745 73.4691 87.5494 72.9989 88.3316C70.8161 92.002 60.8478 97.4615 56.3339 97.4615C55.3064 97.4615 54.6315 97.1752 54.3247 96.6079C54.0488 96.0915 54.1408 95.4371 54.6009 94.6601C55.6079 92.9629 58.4708 90.6778 62.0593 88.6894C65.653 86.7059 69.17 85.4688 71.2403 85.4688ZM58.2355 96.6485C61.2924 95.984 65.0242 94.2562 68.2191 92.0273C71.184 89.9622 73.0194 87.938 72.9017 86.8644C72.8455 86.3328 72.2986 86.0618 71.2711 86.0618C69.037 86.0618 65.5815 87.2735 62.0183 89.3029C58.7006 91.1944 55.966 93.4126 55.0457 94.9565C54.6981 95.5443 54.6162 96.0148 54.8001 96.3573C54.9892 96.705 55.5157 96.889 56.3235 96.889C56.8603 96.889 57.5044 96.8071 58.2355 96.6485Z" fill="#FF8E3A"/>
<path d="M63.9863 92.9677C64.9371 92.9677 65.7089 92.1959 65.7089 91.2451C65.7089 90.2891 64.9371 89.5173 63.9863 89.5225C63.0355 89.5225 62.2637 90.2943 62.2637 91.2451C62.2637 92.1959 63.0355 92.9677 63.9863 92.9677Z" fill="#FFB4B1"/>
<path d="M62.187 84.4509C62.9026 84.4509 63.4803 83.8732 63.4803 83.1576C63.4803 82.4469 62.9026 81.8643 62.187 81.8643C61.4714 81.8643 60.8937 82.442 60.8937 83.1576C60.8937 83.8732 61.4714 84.4509 62.187 84.4509Z" fill="#FFB4B1"/>
<path d="M66.3887 99.577C66.9869 99.577 67.4673 99.0915 67.4673 98.4985C67.4673 97.9054 66.9869 97.4199 66.3887 97.4199C65.7905 97.4199 65.3102 97.9054 65.3102 98.4985C65.3102 99.0967 65.7957 99.577 66.3887 99.577Z" fill="#FFB4B1"/>
<path d="M55.8991 94.4395C56.5126 94.4395 57.0134 93.9387 57.0134 93.3252C57.0134 92.7117 56.5176 92.2109 55.8991 92.2109C55.2856 92.2109 54.7849 92.7117 54.7849 93.3252C54.7849 93.9387 55.2856 94.4395 55.8991 94.4395Z" fill="#FFB4B1"/>
<path d="M72.5898 89.2667C73.0958 89.2667 73.5049 88.8576 73.5049 88.3516C73.5049 87.8456 73.0958 87.4365 72.5898 87.4365C72.0838 87.4365 71.6747 87.8456 71.6747 88.3516C71.6747 88.8576 72.0838 89.2667 72.5898 89.2667Z" fill="#FFB4B1"/>
<path d="M59.0226 87.3448C59.5286 87.3448 59.9377 86.9357 59.9377 86.4297C59.9377 85.9237 59.5286 85.5146 59.0226 85.5146C58.5166 85.5146 58.1075 85.9237 58.1075 86.4297C58.1075 86.9357 58.5166 87.3448 59.0226 87.3448Z" fill="#FFB4B1"/>
</g>
<mask id="mask10_1624_791" style="mask-type:luminance" maskUnits="userSpaceOnUse" x="62" y="188" width="21" height="22">
<path d="M62.726 188.332H82.1857V209.061H62.726V188.332Z" fill="white"/>
</mask>
<g mask="url(#mask10_1624_791)">
<path d="M76.4868 198.555L79.8347 197.457L79.6485 196.883L76.3006 197.976L76.4868 198.555Z" fill="#8446FF"/>
<path d="M71.8551 193.483L72.3901 193.769L74.1493 190.5L73.6143 190.215L71.8551 193.483Z" fill="#8446FF"/>
<path d="M74.379 204.51L76.895 207.458L77.3546 207.062L74.8386 204.118L74.379 204.51Z" fill="#8446FF"/>
<path d="M68.7135 206.008L74.8109 204.363L76.5542 198.084L72.2951 193.527L71.8513 193.939L75.8768 198.25L74.3198 203.868L68.86 205.342L64.5019 201.717L64.1136 202.184L68.7135 206.008Z" fill="#8446FF"/>
<path d="M64.68 203.318C65.4446 203.048 65.8448 202.212 65.5754 201.448C65.3059 200.683 64.47 200.287 63.7013 200.552C62.9407 200.822 62.5405 201.658 62.81 202.422C63.0794 203.187 63.9154 203.587 64.68 203.318Z" fill="#FFB4B1"/>
<path d="M69.2958 207.264C70.0604 206.994 70.4606 206.158 70.1911 205.394C69.9217 204.633 69.0817 204.233 68.3211 204.502C67.5565 204.771 67.1563 205.607 67.4257 206.372C67.6952 207.133 68.5311 207.533 69.2958 207.264Z" fill="#FFB4B1"/>
<path d="M75.0764 205.505C75.837 205.235 76.2374 204.399 75.9679 203.635C75.6984 202.874 74.8585 202.474 74.1017 202.739C73.337 203.009 72.9368 203.845 73.2063 204.609C73.4758 205.374 74.3117 205.774 75.0764 205.505Z" fill="#FFB4B1"/>
<path d="M78.0321 209.018C78.7968 208.749 79.197 207.913 78.9275 207.148C78.658 206.384 77.8181 205.983 77.0575 206.253C76.2928 206.522 75.8926 207.358 76.1621 208.123C76.4316 208.888 77.2675 209.288 78.0321 209.018Z" fill="#FFB4B1"/>
<path d="M81.1819 198.357C81.9465 198.088 82.3467 197.252 82.0772 196.487C81.8039 195.727 80.9678 195.326 80.2032 195.592C79.4425 195.861 79.0423 196.697 79.3118 197.462C79.5813 198.226 80.4172 198.627 81.1819 198.357Z" fill="#FFB4B1"/>
<path d="M74.9416 191.181C75.7063 190.912 76.1065 190.076 75.837 189.311C75.5637 188.547 74.7276 188.147 73.9629 188.416C73.2023 188.686 72.8021 189.521 73.0716 190.286C73.3411 191.051 74.177 191.451 74.9416 191.181Z" fill="#FFB4B1"/>
<path d="M76.9464 199.478C77.711 199.209 78.1112 198.373 77.8417 197.608C77.5723 196.848 76.7323 196.447 75.9677 196.713C75.2071 196.982 74.8069 197.818 75.0763 198.583C75.3458 199.348 76.1817 199.748 76.9464 199.478Z" fill="#FFB4B1"/>
<path d="M72.6119 195.009C73.3766 194.739 73.7768 193.903 73.5073 193.139C73.2378 192.374 72.3979 191.974 71.6332 192.243C70.8726 192.513 70.4724 193.349 70.7419 194.113C71.0114 194.878 71.8473 195.278 72.6119 195.009Z" fill="#FFB4B1"/>
</g>
</g>
<mask id="mask11_1624_791" style="mask-type:luminance" maskUnits="userSpaceOnUse" x="-6" y="160" width="281" height="111">
<path d="M-5.09277 160.993H274.907V270.368H-5.09277V160.993Z" fill="white"/>
</mask>
<g mask="url(#mask11_1624_791)">
<path d="M237.325 242.111C237.576 242.111 237.776 242.419 237.776 242.798C237.776 243.177 237.571 243.484 237.325 243.484H31.3302C31.0228 243.484 30.7721 243.177 30.7721 242.798C30.7721 242.419 31.0228 242.111 31.3302 242.111H237.325Z" fill="#FF8E3A"/>
<mask id="mask12_1624_791" style="mask-type:luminance" maskUnits="userSpaceOnUse" x="205" y="194" width="32" height="49">
<path d="M206.614 194.403L236.69 195.153L235.523 242.439L205.448 241.689L206.614 194.403Z" fill="white"/>
</mask>
<g mask="url(#mask12_1624_791)">
<path d="M229.587 227.392C226.024 232.446 205.787 241.804 205.787 241.804C205.787 241.804 204.645 213.537 210.373 210.657C213.569 209.052 214.031 214.242 214.031 214.242C214.031 214.242 214.144 200.736 219.385 200.574C222.862 200.466 221.194 206.398 221.194 206.398C221.194 206.398 228.6 192.838 233.58 195.355C236.253 196.707 230.137 209.47 230.137 209.47C230.137 209.47 234.909 206.1 236.074 209.782C237.238 213.468 228.103 221.919 228.103 221.919C228.103 221.919 233.15 222.337 229.587 227.392Z" fill="#FF8E3A"/>
<path d="M214.091 211.447C214.091 211.447 213.391 207.638 209.945 208.583C204.982 209.94 205.663 238.309 205.772 241.59L233.591 195.363C228.611 192.847 221.204 206.408 221.204 206.408C221.204 206.408 222.873 200.476 219.397 200.584C214.156 200.746 214.091 211.447 214.091 211.447Z" fill="#8446FF"/>
</g>
<mask id="mask13_1624_791" style="mask-type:luminance" maskUnits="userSpaceOnUse" x="204" y="217" width="38" height="26">
<path d="M204.426 220.984L240.113 217.895L242 239.689L206.313 242.778L204.426 220.984Z" fill="white"/>
</mask>
<g mask="url(#mask13_1624_791)">
<path d="M226.813 240.379C222.755 242.55 206.286 241.935 206.286 241.935C206.286 241.935 213.593 224.311 218.359 224.32C221.022 224.321 220.872 226.442 220.872 226.442C220.872 226.442 225.47 217.5 229.006 219.147C231.357 220.239 228.262 223.623 228.262 223.623C228.262 223.623 237.726 217.081 240.195 220.42C241.522 222.212 233.18 228.651 233.18 228.651C233.18 228.651 237.479 228.007 237.02 230.843C236.561 233.68 227.658 236.245 227.658 236.245C227.658 236.245 230.877 238.213 226.813 240.379Z" fill="#FF8E3A"/>
<path d="M220.877 226.442C220.877 226.442 220.745 223.785 218.087 223.783C213.629 223.778 207.259 239.635 206.233 241.852L240.2 220.42C237.731 217.081 228.267 223.622 228.267 223.622C228.267 223.622 231.357 220.239 229.011 219.147C225.475 217.499 220.877 226.442 220.877 226.442Z" fill="#FF8E3A"/>
</g>
<mask id="mask14_1624_791" style="mask-type:luminance" maskUnits="userSpaceOnUse" x="33" y="180" width="43" height="64">
<path d="M33.6977 181.824L72.4858 180.061L75.2924 241.794L36.5043 243.557L33.6977 181.824Z" fill="white"/>
</mask>
<g mask="url(#mask14_1624_791)">
<path d="M43.6537 223.656C48.4353 230.15 75.0569 241.804 75.0569 241.804C75.0569 241.804 75.7803 204.932 68.2284 201.333C64.0203 199.33 63.5593 206.109 63.5593 206.109C63.5593 206.109 63.0412 188.51 56.2087 188.441C51.6794 188.396 54.0128 196.078 54.0128 196.078C54.0128 196.078 43.9943 178.599 37.5767 182.013C34.1326 183.846 42.4492 200.316 42.4492 200.316C42.4492 200.316 36.1434 196.044 34.7224 200.877C33.3015 205.71 45.4351 216.484 45.4351 216.484C45.4351 216.484 38.8722 217.162 43.6537 223.656Z" fill="#FF8E3A"/>
<path d="M63.3381 202.596C63.3381 202.596 65.8533 197.472 69.5415 199.432C74.4434 202.035 75.1211 237.237 75.0799 241.52L37.5821 182.018C44 178.608 54.0182 196.083 54.0182 196.083C54.0182 196.083 51.6848 188.401 56.2142 188.446C63.0414 188.515 63.3381 202.596 63.3381 202.596Z" fill="#8446FF"/>
</g>
<mask id="mask15_1624_791" style="mask-type:luminance" maskUnits="userSpaceOnUse" x="26" y="214" width="49" height="32">
<path d="M26.4684 216.261L73.1831 214.252L74.4283 243.209L27.7137 245.218L26.4684 216.261Z" fill="white"/>
</mask>
<g mask="url(#mask15_1624_791)">
<path d="M47.4089 243.409C53.0265 245.531 74.2103 241.97 74.2103 241.97C74.2103 241.97 61.8052 220.418 55.6363 221.216C52.1951 221.666 52.7476 224.38 52.7476 224.38C52.7476 224.38 45.3014 213.596 41.0044 216.319C38.1546 218.123 42.7245 221.981 42.7245 221.981C42.7245 221.981 29.3923 215.116 26.7609 219.848C25.3477 222.39 37.211 229.314 37.211 229.314C37.211 229.314 31.5413 229.199 32.6135 232.793C33.6805 236.387 45.6216 238.206 45.6216 238.206C45.6216 238.206 41.7913 241.287 47.4089 243.409Z" fill="#FF8E3A"/>
<path d="M52.7478 224.386C52.7478 224.386 52.1006 219.831 55.5418 219.38C61.3022 218.625 72.5718 239.159 74.2716 241.85L26.7612 219.854C29.3876 215.122 42.3445 221.845 42.3445 221.845C42.3445 221.845 38.1545 218 40.9769 216.156C46.0682 212.831 52.7478 224.386 52.7478 224.386Z" fill="#FF8E3A"/>
</g>
<mask id="mask16_1624_791" style="mask-type:luminance" maskUnits="userSpaceOnUse" x="77" y="204" width="122" height="18">
<path d="M77.6609 204.32H198.247V221.82H77.6609V204.32Z" fill="white"/>
</mask>
<g mask="url(#mask16_1624_791)">
<path d="M85.4563 221.94H198.193L197.988 221.73C192.948 216.731 193.035 209.227 198.193 204.32H85.4563C81.1541 204.32 77.6609 207.363 77.6609 211.112V215.148C77.6609 218.902 81.1489 221.94 85.4563 221.94Z" fill="#FFB4B1"/>
<path d="M139.881 206.338H196.61C193.972 210.492 193.968 215.752 196.616 219.921H139.881C135.973 219.921 132.808 216.879 132.808 213.13C132.808 209.375 135.973 206.338 139.881 206.338Z" fill="#FFB4B1"/>
</g>
<mask id="mask17_1624_791" style="mask-type:luminance" maskUnits="userSpaceOnUse" x="58" y="203" width="165" height="66">
<path d="M58.0406 203.329H222.103V268.954H58.0406V203.329Z" fill="white"/>
</mask>
<g mask="url(#mask17_1624_791)">
<path d="M72.9982 220.966H215.016C208.901 226.882 208.87 236.296 214.945 242.242L215.022 242.314H72.9982C68.5882 242.314 65.0133 238.948 65.0133 234.8V228.48C65.0133 224.331 68.5882 220.966 72.9982 220.966Z" fill="#FF8E3A"/>
<path d="M136.58 224.126H212.501C209.715 228.777 209.71 234.503 212.501 239.154H136.58C132.17 239.154 128.595 235.788 128.595 231.64C128.595 227.491 132.17 224.126 136.58 224.126Z" fill="#FFB4B1"/>
<path d="M162.933 231.681H168.725V234.139H160.674V233.939C160.674 232.69 161.688 231.681 162.933 231.681Z" fill="#FF8E3A"/>
<path d="M167.788 232.597C166.62 232.095 164.551 231.687 163.168 231.687L170.441 231.686C172.264 231.686 174.994 232.223 176.531 232.885L189.602 238.517L181.53 238.519L167.788 232.597Z" fill="#FF8E3A"/>
</g>
</g>
<mask id="mask18_1624_791" style="mask-type:luminance" maskUnits="userSpaceOnUse" x="71" y="78" width="141" height="141">
<path d="M71.7284 78.4385H211.728V218.438H71.7284V78.4385Z" fill="white"/>
</mask>
<g mask="url(#mask18_1624_791)">
<path d="M142.467 191.418C132.423 191.418 127.804 190.812 125.511 183.816C124.027 179.29 127.313 171.699 127.313 171.699C127.313 171.699 129.238 167.44 143.118 167.44C155.387 167.44 157.311 171.407 157.311 171.407C157.311 171.407 160.866 176.364 160.539 181.092C159.977 189.23 152.485 191.418 142.467 191.418Z" fill="#FF8E3A"/>
<path d="M126.727 171.418C134.032 173.366 139.423 175.967 139.423 175.967C139.423 175.967 143.672 177.745 143.789 181.933C143.941 187.369 137.988 188.159 137.988 188.159C137.988 188.159 112.58 189.378 100.506 187.156C94.7873 186.103 92.7726 178.454 96.5595 173.665C103.81 167.273 116.94 168.812 126.727 171.418Z" fill="#FF8E3A"/>
<path d="M173.386 169.568C184.445 169.73 187.372 173.979 188.571 176.156C190.818 180.236 190.345 185.882 184.379 186.533C167.675 188.356 157.938 188.46 140.895 186.804C132.8 186.017 134.394 177.005 138.623 175.726C143.671 174.2 147.862 172.759 157.618 171.112C163.085 170.19 169.079 169.504 173.386 169.568Z" fill="#FF8E3A"/>
<path d="M109.014 185.909C111.717 186.568 113.93 187.629 113.93 187.629C113.93 187.629 119.396 186.5 126.555 185.101C135.371 183.378 138.404 192.317 131.784 193.475C122.601 193.586 117.475 195.007 117.199 195.044C115.667 195.238 110.427 196.567 108.61 200.25C106.794 203.933 105.957 208.222 103.956 208.052C103.129 207.981 101.187 201.305 102.603 198.326C104.019 195.347 105.141 193.332 105.772 190.277C106.402 187.221 106.311 185.251 109.014 185.909Z" fill="#FFB4B1"/>
<path d="M180.66 172.599C185.24 172.519 189.084 174.624 189.862 178.911C190.474 182.286 188.952 185.352 186.358 186.572C175.724 191.574 139.228 194.317 120.452 195.14C119.182 192.852 118.113 188.721 119.254 185.041C138.075 178.449 170.101 172.772 180.66 172.599Z" fill="#FF8E3A"/>
<path d="M174.792 190.712C175.369 193.78 176.729 195.754 178.089 198.758C179.454 201.763 177.435 208.25 176.29 208.517C174.337 208.981 173.526 204.343 171.775 200.63C170.025 196.913 164.005 195.704 163.114 195.62C162.908 195.596 158.868 195.075 153.321 194.558C147.748 193.476 150 183.541 155.931 184.439C158.28 185.359 160.352 186.18 162.023 186.846C164.568 187.867 167.4 187.825 169.951 186.813C174.396 185.05 174.108 187.087 174.792 190.712Z" fill="#FFB4B1"/>
<path d="M95.2213 175.425C96.8312 170.823 103.524 170.38 107.679 170.454C115.635 170.606 142.498 178.643 158.059 184.727C158.208 188.06 156.677 191.89 154.813 195.339C138.742 193.834 107.546 190.816 102.497 188.732C99.8485 187.625 97.1028 186.516 95.5794 183.487C94.056 180.459 94.2377 178.238 95.2213 175.425Z" fill="#8446FF"/>
<path d="M130.037 93.8724C128.026 98.7354 127.927 107.18 130.241 111.64C132.086 115.202 133.571 118.149 136.818 120.319C140.234 122.605 143.253 124.049 147.463 124.71C154.316 125.956 158.828 126.966 165.896 129.838C174.036 132.806 183.455 131.669 188.932 125.824C193.199 121.18 194.603 117.259 193.542 111.294C192.81 107.256 189.844 102.679 183.693 100.309C177.127 97.6703 170.068 97.7785 165.104 96.7349C159.653 95.5972 155.899 93.4042 151.689 90.8544C147.761 88.5013 144.479 87.3838 139.462 87.6312C135.139 87.8427 131.665 89.9357 130.037 93.8724Z" fill="#FF8E3A"/>
<path d="M140.754 118.805C148.314 119.046 155.991 119.814 155.991 119.814C158.563 120.326 160.811 138.888 159.423 142.022C158.03 145.162 155.397 153.895 155.151 159.022C154.906 164.149 157.338 170.659 157.338 170.659C153.169 173.742 146.444 174.71 141.584 174.746C133.481 174.802 127.069 171.135 127.069 171.135C127.069 171.135 128.953 163.816 129.865 158.566C130.777 153.321 125.85 145.275 124.794 142.176C123.739 139.077 124.42 122.283 126.31 120.326C126.781 119.84 134.004 118.59 140.754 118.805Z" fill="#FF8E3A"/>
<path d="M98.741 141.904C99.4371 143.861 105.526 165.056 112.611 167.454C115.631 166.501 117.152 160.677 112.404 153.978L100.238 136.625L100.243 136.609C100.243 136.609 95.8241 134.431 94.7229 134.236C93.7353 134.062 90.58 133.798 90.0923 134.334C90.0649 134.299 90.0329 134.27 89.9915 134.262C89.5716 134.163 88.8174 135.583 88.7154 135.926C88.6134 136.269 89.5054 138.248 89.5841 138.398C89.6681 138.548 89.3644 138.634 88.9836 138.493C88.6028 138.351 87.3907 136.988 87.3907 136.988C87.3907 136.988 87.2458 134.759 86.5292 134.782C85.8125 134.805 86.5006 137.583 86.5006 137.583L87.2051 138.509L86.1664 137.896C86.1664 137.896 85.4409 136.407 85.255 136.487C85.069 136.567 84.8277 137.333 85.2281 138.114C85.6338 138.895 86.4884 139.742 86.4884 139.742L88.0632 140.53C88.0632 140.53 86.2421 140.394 85.7003 139.994C85.1585 139.594 84.9441 140.168 85.3767 140.645C85.8041 141.122 88.2102 141.923 89.7296 142.068C91.249 142.212 95.9735 142.038 96.6491 141.904C97.2031 141.796 98.2252 141.621 98.741 141.904ZM90.1521 134.736C90.7132 135.336 93.0526 135.037 93.5861 135.371C94.1666 135.729 94.5959 137.457 94.0722 137.661C93.5484 137.865 91.6574 137.999 91.1622 137.822C90.6672 137.65 89.8913 135.743 89.8913 135.743C89.8913 135.743 90.1106 135.169 90.1521 134.736Z" fill="#FFB4B1"/>
<path d="M125.44 145.118C125.44 145.118 123.414 150.186 119.643 158.618C115.872 167.044 112.609 167.453 112.609 167.453C108.981 165.566 111.423 157.912 112.653 153.976L116.529 141.801L125.44 145.118Z" fill="#FFB4B1"/>
<path d="M126.436 120.172C128.238 119.853 129.274 120.683 130.117 121.629C133.855 125.825 130.076 135.897 130.076 135.897L126.13 147.219C123.354 147.455 114.519 144.289 114.519 144.289C114.519 144.289 120.275 125.847 121.617 123.795C123.248 121.301 124.59 120.499 126.436 120.172Z" fill="#FF8E3A"/>
<path d="M185.562 141.769C184.83 143.712 178.353 164.782 171.223 167.044C168.22 166.035 166.805 160.184 171.676 153.579L184.161 136.464L184.157 136.448C184.157 136.448 188.617 134.354 189.722 134.181C190.712 134.025 193.873 133.822 194.351 134.366C194.379 134.332 194.412 134.303 194.453 134.296C194.875 134.205 195.604 135.639 195.699 135.984C195.795 136.329 194.867 138.29 194.785 138.438C194.699 138.586 195.001 138.678 195.384 138.544C195.768 138.41 197.005 137.07 197.005 137.07C197.005 137.07 197.191 134.845 197.907 134.882C198.623 134.919 197.884 137.682 197.884 137.682L197.163 138.594L198.213 138.001C198.213 138.001 198.966 136.526 199.15 136.61C199.335 136.694 199.562 137.463 199.147 138.237C198.727 139.01 197.857 139.84 197.857 139.84L196.267 140.598C196.267 140.598 198.091 140.497 198.641 140.107C199.19 139.717 199.394 140.295 198.952 140.764C198.516 141.233 196.095 141.988 194.573 142.103C193.05 142.219 188.328 141.956 187.655 141.809C187.103 141.69 186.084 141.495 185.562 141.769ZM194.284 134.767C193.712 135.356 191.377 135.013 190.838 135.337C190.251 135.683 189.79 137.402 190.31 137.616C190.83 137.83 192.719 138 193.217 137.832C193.716 137.67 194.527 135.779 194.527 135.779C194.527 135.779 194.318 135.2 194.284 134.767Z" fill="#FFB4B1"/>
<path d="M164.117 158.28C160.265 149.884 158.192 144.835 158.192 144.835L167.072 141.437L171.064 153.575C172.331 157.498 174.846 165.13 171.235 167.05C171.235 167.05 167.968 166.671 164.117 158.28Z" fill="#FFB4B1"/>
<path d="M156.122 119.82C153.988 119.78 152.314 121.569 151.767 122.8C150.291 126.125 152.972 135.513 152.972 135.513L157.413 146.65C160.198 146.768 168.887 143.217 168.887 143.217C168.887 143.217 163.81 128.36 160.567 123.249C159.218 121.121 158.028 119.856 156.122 119.82Z" fill="#FF8E3A"/>
<path d="M145.143 119.004C144.667 116.612 144.139 109.114 144.139 109.114L135.873 107.767C135.873 107.767 137.046 116.341 137.174 118.845C137.302 121.35 136.037 135.517 141.164 134.17C146.296 132.823 145.635 121.473 145.143 119.004Z" fill="#FFB4B1"/>
<path d="M136.38 111.624C136.108 109.493 135.873 107.762 135.873 107.762L144.134 109.114C144.134 109.114 144.201 110.077 144.308 111.419C144.185 111.501 144.068 111.583 143.934 111.66C140.928 113.437 138.3 113.078 136.38 111.624Z" fill="#FF8E3A"/>
<mask id="mask19_1624_791" style="mask-type:luminance" maskUnits="userSpaceOnUse" x="130" y="91" width="21" height="21">
<path d="M130.128 91.6299L149.812 91.2633L150.188 111.494L130.504 111.861L130.128 91.6299Z" fill="white"/>
</mask>
<g mask="url(#mask19_1624_791)">
<path d="M146.246 95.1967C144.399 92.2906 141.352 91.5586 141.352 91.5586C133.239 90.4804 131.96 97.7527 131.964 103.214C131.969 108.674 136.721 114.344 142.996 110.472C149.265 106.6 148.093 98.1028 146.246 95.1967Z" fill="#FFB4B1"/>
<path d="M132.889 103.345C132.116 103.641 131.076 102.81 130.564 101.482C130.053 100.16 130.264 98.8445 131.037 98.5432C131.81 98.2472 132.85 99.078 133.362 100.406C133.873 101.733 133.662 103.048 132.889 103.345Z" fill="#FFB4B1"/>
<path d="M147.117 105.923C146.158 105.608 145.768 104.201 146.239 102.789C146.709 101.377 147.866 100.489 148.819 100.805C149.778 101.12 150.168 102.526 149.697 103.939C149.227 105.356 148.07 106.244 147.117 105.923Z" fill="#FFB4B1"/>
</g>
<path d="M148.21 100.555C144.758 99.9182 140.499 91.3447 140.499 91.3447C140.499 91.3447 144.694 91.058 147.995 93.2469C151.297 95.4407 151.795 105.589 151.795 105.589C151.795 105.589 151.663 101.192 148.21 100.555Z" fill="#FF8E3A"/>
</g>
</g>
</g>
<defs>
<filter id="filter0_d_1624_791" x="-4" y="0" width="288" height="288" filterUnits="userSpaceOnUse" color-interpolation-filters="sRGB">
<feFlood flood-opacity="0" result="BackgroundImageFix"/>
<feColorMatrix in="SourceAlpha" type="matrix" values="0 0 0 0 0 0 0 0 0 0 0 0 0 0 0 0 0 0 127 0" result="hardAlpha"/>
<feOffset dy="4"/>
<feGaussianBlur stdDeviation="2"/>
<feComposite in2="hardAlpha" operator="out"/>
<feColorMatrix type="matrix" values="0 0 0 0 0 0 0 0 0 0 0 0 0 0 0 0 0 0 0.25 0"/>
<feBlend mode="normal" in2="BackgroundImageFix" result="effect1_dropShadow_1624_791"/>
<feBlend mode="normal" in="SourceGraphic" in2="effect1_dropShadow_1624_791" result="shape"/>
</filter>
<clipPath id="clip0_1624_791">
<rect width="280" height="280" fill="white"/>
</clipPath>
</defs>
</svg>
