<svg width="230" height="230" viewBox="0 0 230 230" fill="none" xmlns="http://www.w3.org/2000/svg">
<g opacity="0.2" clip-path="url(#clip0_1629_2568)">
<mask id="mask0_1629_2568" style="mask-type:luminance" maskUnits="userSpaceOnUse" x="0" y="0" width="230" height="230">
<path d="M230 0H0V230H230V0Z" fill="white"/>
</mask>
<g mask="url(#mask0_1629_2568)">
<path d="M194.358 175.176C192.203 187.189 177.867 211.983 152.295 227.807C152.295 227.807 99.8584 228.275 40.7292 227.807C5.55835 200.1 14.4709 161.613 14.4709 161.613C14.95 144.133 31.9087 132.61 44.1869 132.315C47.1769 132.242 50.0327 131.931 52.7544 131.422C53.4099 131.303 54.0615 131.169 54.7017 131.027C55.3227 130.889 55.936 130.739 56.5455 130.578C57.4349 130.345 58.305 130.092 59.1637 129.816C69.1457 126.657 77.1497 120.949 83.6089 115.322C101.898 99.3907 125.76 43.4125 160.931 53.0572C161.656 53.2565 162.369 53.4827 163.074 53.7433C163.768 53.9959 164.454 54.28 165.132 54.5863L166.118 55.3146L176.514 62.9966C176.678 63.1695 176.839 63.342 177 63.5183C177.786 64.3655 178.557 65.2587 179.308 66.1821C200.675 92.4907 198.85 150.106 194.358 175.176Z" fill="#D0E0FE"/>
<path d="M38.2306 179.756C34.7952 173.67 31.9244 167.273 29.4427 160.738C26.9587 154.2 24.9734 147.473 23.498 140.633C22.7911 137.206 22.2399 133.748 21.8374 130.273C21.4517 126.795 21.2643 123.295 21.27 119.796C21.2946 116.296 21.574 112.802 22.052 109.338C22.5872 105.879 23.4037 102.473 24.4467 99.1388C23.4635 102.491 22.7098 105.907 22.2379 109.364C21.7998 112.825 21.5537 116.309 21.5648 119.797C21.6058 123.283 21.7818 126.769 22.1843 130.234C22.5964 133.697 23.1587 137.141 23.8729 140.555C25.3127 147.381 27.2976 154.089 29.7175 160.635C30.9208 163.911 32.2345 167.146 33.6471 170.339C35.062 173.53 36.5551 176.691 38.2306 179.756Z" fill="#FF8E3A"/>
<path d="M17.3079 135.02C17.3079 135.02 32.7773 131.27 32.1916 124.238C31.6055 117.206 25.5277 120.37 24.758 123.066C23.9883 125.761 23.9879 130.566 22.9329 130.918C21.878 131.27 18.5971 126.882 15.1984 127.494C11.7994 128.106 9.1042 132.325 11.5652 133.731C14.0262 135.138 15.847 135.424 17.3079 135.02Z" fill="#8446FF"/>
<path d="M19.2346 149.801C19.2346 149.801 35.1429 150.364 36.4757 143.435C37.8082 136.505 31.1018 137.913 29.6332 140.301C28.1647 142.688 26.8686 147.315 25.7581 147.369C24.6476 147.423 22.6715 142.312 19.2338 141.985C15.7957 141.657 12.062 144.992 14.0527 147.011C16.0429 149.028 17.7189 149.796 19.2346 149.801Z" fill="#8446FF"/>
<path d="M19.7609 118.934C19.7609 118.934 13.5325 114.322 12.3315 116.78C11.1305 119.238 12.2529 120.418 15.8072 121.205C19.3618 121.992 24.1508 120.208 25.4315 117.895C26.7126 115.582 27.3214 112.219 24.5659 112.885C21.8105 113.55 21.0822 118.585 19.7609 118.934Z" fill="#8446FF"/>
<path d="M26.7924 172.95C26.7924 172.95 42.2583 169.185 41.6657 162.153C41.0731 155.122 34.9984 158.293 34.2309 160.988C33.4639 163.685 33.4681 168.49 32.4136 168.843C31.359 169.195 28.0735 164.81 24.6752 165.425C21.277 166.04 18.5856 170.262 21.0481 171.666C23.5106 173.07 25.3319 173.355 26.7924 172.95Z" fill="#8446FF"/>
<path d="M22.494 107.648C22.494 107.648 18.8976 102.857 17.4547 104.464C16.0118 106.072 16.5819 107.199 19.0475 108.538C21.5134 109.876 25.4717 109.529 26.9414 108.048C28.4115 106.567 29.6163 104.152 27.4195 104.079C25.2226 104.006 23.5543 107.661 22.494 107.648Z" fill="#8446FF"/>
<path d="M23.5992 102.069C23.5992 102.069 19.8218 97.3809 23.5992 94.451C27.3765 91.5208 30.0721 96.4432 27.4938 99.1388C24.9155 101.834 23.5992 102.069 23.5992 102.069Z" fill="#8446FF"/>
<path d="M71.8164 224.651C71.7259 224.73 71.635 224.812 71.5446 224.889H61.4177C47.9393 213.231 27.9151 189.789 21.5119 182.173C21.4165 181.503 21.3708 181.138 21.3708 181.138C93.0772 175.896 71.8164 224.651 71.8164 224.651Z" fill="#8446FF"/>
<path d="M61.4177 224.889H36.468C26.1951 211.456 22.2675 187.429 21.5119 182.173C27.9151 189.789 47.9393 213.231 61.4177 224.889Z" fill="#8446FF"/>
<path d="M115.061 224.521C115.149 224.643 115.237 224.771 115.325 224.889H125.119C138.156 206.862 157.524 170.611 163.716 158.835C163.809 157.799 163.853 157.235 163.853 157.235C94.4978 149.127 115.061 224.521 115.061 224.521Z" fill="#8446FF"/>
<path d="M125.119 224.889H149.251C159.187 204.117 162.986 166.963 163.716 158.836C157.524 170.611 138.156 206.862 125.119 224.889Z" fill="#8446FF"/>
<path d="M97.9946 224.89H73.7407C73.4804 224.338 73.2197 223.787 72.9629 223.231C72.9514 223.207 72.9399 223.181 72.9284 223.158C72.5719 222.387 72.2154 221.613 71.8666 220.835C71.6787 220.413 71.4909 219.992 71.3069 219.57C71.2801 219.512 71.2532 219.451 71.2302 219.394C70.9887 218.845 70.7511 218.293 70.5134 217.745C70.2604 217.155 70.0112 216.568 69.7621 215.974C69.5282 215.418 69.2982 214.859 69.0682 214.299C69.0376 214.222 69.0031 214.138 68.9686 214.057C68.7769 213.582 68.5852 213.107 68.3974 212.632C68.3476 212.52 68.3054 212.413 68.2628 212.298C68.0371 211.738 67.8186 211.178 67.6001 210.615C67.3662 210.017 67.1324 209.419 66.9062 208.817C66.8334 208.629 66.7606 208.442 66.6916 208.254C66.4961 207.744 66.3082 207.234 66.1166 206.721C65.9517 206.268 65.7831 205.816 65.6182 205.36C65.4534 204.907 65.2886 204.451 65.1276 203.999C64.9742 203.576 64.8247 203.156 64.6791 202.734C64.5142 202.266 64.349 201.802 64.1884 201.339C64.0274 200.871 63.8664 200.403 63.7054 199.939C63.6862 199.874 63.6628 199.809 63.6402 199.744C63.4332 199.138 63.2301 198.528 63.0307 197.923C62.8276 197.314 62.6282 196.707 62.4289 196.098C62.2794 195.642 62.1337 195.186 61.9881 194.729C61.8156 194.197 61.6469 193.668 61.4821 193.135C61.2176 192.299 60.9607 191.464 60.7073 190.628C60.5237 190.023 60.3397 189.417 60.1596 188.811C59.9947 188.259 59.8295 187.707 59.6689 187.155C59.4772 186.499 59.2856 185.844 59.1016 185.189C58.9636 184.71 58.8256 184.23 58.6948 183.755C58.4614 182.935 58.2352 182.118 58.0129 181.302C57.7101 180.198 57.4149 179.098 57.1274 178.001C56.4987 175.628 55.9046 173.275 55.3407 170.952C55.1264 170.082 54.9194 169.215 54.7201 168.353C54.5821 167.782 54.4479 167.207 54.3176 166.635C54.1872 166.072 54.0569 165.512 53.9304 164.956C53.8691 164.692 53.8116 164.43 53.7541 164.166C53.6544 163.725 53.5547 163.285 53.4589 162.848C53.3631 162.423 53.2711 161.997 53.1791 161.571C53.0832 161.138 52.9874 160.705 52.8954 160.272C52.5082 158.473 52.1402 156.707 51.7914 154.974C51.7416 154.725 51.6917 154.476 51.6419 154.231C51.5422 153.736 51.4464 153.249 51.3506 152.762C51.1589 151.792 50.9749 150.831 50.7947 149.884C50.7066 149.408 50.6184 148.941 50.5302 148.473C50.4842 148.239 50.4421 148.005 50.3999 147.775C50.2274 146.848 50.0626 145.931 49.9016 145.034C49.7789 144.348 49.6601 143.665 49.5412 142.999C49.4722 142.6 49.4071 142.206 49.3381 141.814C49.2499 141.285 49.1579 140.76 49.0736 140.243C49.0122 139.89 48.9547 139.541 48.8972 139.192C48.8627 138.985 48.8282 138.782 48.7976 138.575C48.7631 138.372 48.7282 138.165 48.6979 137.962C48.6519 137.682 48.6059 137.405 48.5637 137.13C48.3721 135.945 48.1957 134.799 48.0271 133.691C48.0002 133.534 47.9772 133.381 47.9542 133.228C47.9236 133.021 47.8929 132.818 47.8622 132.611V132.599C47.8316 132.396 47.8009 132.196 47.7698 131.997C47.7587 131.913 47.7472 131.828 47.7357 131.748C47.6514 131.185 47.5709 130.632 47.4942 130.096C47.4712 129.924 47.4444 129.755 47.4214 129.586C47.3984 129.417 47.3754 129.253 47.3524 129.088C47.3102 128.796 47.2681 128.509 47.2297 128.225C47.2259 128.187 47.2182 128.149 47.2144 128.11C47.1339 127.528 47.0572 126.96 46.9844 126.416C46.9537 126.19 46.9231 125.971 46.8962 125.757C46.8541 125.442 46.8115 125.132 46.7736 124.833C48.4602 125.488 50.0932 126.178 51.6764 126.899C53.2941 127.63 54.8542 128.398 56.3684 129.195C109.349 157.075 98.7344 220.811 97.9946 224.89Z" fill="#8446FF"/>
<path d="M73.7407 224.89C73.48 224.338 73.2193 223.786 72.9625 223.23C72.951 223.207 72.9395 223.181 72.928 223.157C72.5715 222.387 72.215 221.613 71.8662 220.835C71.6783 220.412 71.4905 219.991 71.3065 219.57C71.2797 219.512 71.2528 219.451 71.2298 219.393C70.9883 218.845 70.7507 218.293 70.513 217.744C70.26 217.154 70.0108 216.568 69.7617 215.973C69.5278 215.418 69.2978 214.858 69.0678 214.299C69.0372 214.222 69.0027 214.138 68.9682 214.057C68.7765 213.582 68.5848 213.107 68.397 212.631C68.3472 212.52 68.305 212.413 68.2628 212.297C68.0367 211.738 67.8182 211.178 67.5997 210.615C67.3658 210.017 67.132 209.419 66.9058 208.817C66.833 208.629 66.7602 208.441 66.6912 208.254C66.4957 207.744 66.3078 207.233 66.1162 206.72C65.9513 206.268 65.7827 205.815 65.6178 205.359C65.453 204.907 65.2882 204.451 65.1272 203.999C64.9738 203.576 64.8243 203.155 64.6787 202.734C64.5138 202.266 64.349 201.802 64.188 201.338C64.027 200.871 63.866 200.403 63.705 199.939C63.6858 199.874 63.6628 199.808 63.6398 199.743C63.4328 199.137 63.2297 198.528 63.0303 197.922C62.8272 197.313 62.6278 196.707 62.4285 196.098C62.279 195.642 62.1333 195.186 61.9877 194.729C61.8152 194.197 61.6465 193.668 61.4817 193.135C61.2172 192.299 60.9603 191.464 60.7073 190.628C60.5233 190.022 60.3393 189.417 60.1592 188.811C59.9943 188.258 59.8295 187.707 59.6685 187.155C59.4768 186.499 59.2852 185.844 59.1012 185.188C58.9632 184.709 58.8252 184.23 58.6948 183.754C58.461 182.934 58.2348 182.118 58.0125 181.301C57.7097 180.197 57.4145 179.097 57.127 178.001C56.4983 175.628 55.9042 173.274 55.3407 170.951C55.126 170.081 54.919 169.215 54.7197 168.352C54.5817 167.781 54.4475 167.206 54.3172 166.635C54.1868 166.072 54.0565 165.512 53.93 164.956C53.8687 164.692 53.8112 164.431 53.7537 164.166C53.654 163.725 53.5543 163.285 53.4585 162.847C53.3627 162.422 53.2707 161.997 53.1787 161.571C53.0828 161.138 52.987 160.705 52.895 160.272C52.5078 158.473 52.1398 156.707 51.791 154.974C51.7412 154.725 51.6913 154.476 51.6415 154.23C51.5418 153.736 51.446 153.249 51.3502 152.762C51.1585 151.792 50.9745 150.83 50.7943 149.883C50.7062 149.408 50.618 148.94 50.5298 148.472C50.4838 148.239 50.4417 148.005 50.3995 147.775C50.227 146.847 50.0622 145.931 49.9012 145.034C49.7785 144.348 49.6597 143.665 49.5408 142.999C49.4718 142.6 49.4067 142.205 49.3377 141.814C49.2495 141.285 49.1575 140.76 49.0732 140.243C49.0118 139.89 48.9543 139.541 48.8968 139.192C48.8623 138.985 48.8278 138.782 48.7972 138.575C48.7627 138.372 48.7282 138.165 48.6975 137.961C48.6515 137.682 48.6055 137.402 48.5633 137.13C48.3717 135.945 48.1953 134.799 48.0267 133.691C47.9692 133.327 47.9155 132.967 47.8618 132.61V132.599C47.8197 132.311 47.7775 132.028 47.7353 131.748C47.651 131.184 47.5705 130.632 47.4938 130.096C47.4708 129.923 47.444 129.754 47.421 129.586C47.398 129.417 47.375 129.252 47.352 129.088C47.3098 128.796 47.2677 128.508 47.2293 128.225C47.2255 128.186 47.2178 128.148 47.214 128.11C47.1335 127.527 47.0568 126.96 46.984 126.415C46.9533 126.19 46.9227 125.971 46.8958 125.756C46.8537 125.442 46.8115 125.132 46.7732 124.832C46.478 124.714 46.179 124.599 45.8838 124.488C45.8838 124.488 45.6308 125.94 45.2667 128.505C45.167 129.229 45.0558 130.038 44.937 130.931C42.3495 150.524 36.8717 209.032 60.9795 224.89H73.7407Z" fill="#8446FF"/>
<path d="M151.685 226.729C151.685 227.168 151.608 227.607 151.455 228.036H41.3578C41.2045 227.607 41.1278 227.168 41.1278 226.729C41.1278 218.882 65.8758 212.524 96.4045 212.524C126.933 212.524 151.685 218.882 151.685 226.729Z" fill="#8446FF"/>
<path d="M133.247 220.367C133.247 220.367 141.057 221.095 143.399 224.56C145.742 228.026 131.079 227.633 130.054 227.389C129.029 227.145 126.658 224.011 126.658 224.011L128.611 220.851L133.247 220.367Z" fill="#FF8E3A"/>
<path d="M121.003 214.506C121.003 214.506 120.179 224.414 121.003 224.804C121.826 225.195 127.342 222.851 127.342 222.851C127.342 222.851 133.785 223.054 134.712 220.366C134.712 220.366 130.807 219.728 130.319 219.045C129.831 218.362 128.416 215.921 129.392 214.164C130.368 212.407 121.003 214.506 121.003 214.506Z" fill="#FF8E3A"/>
<path d="M110.796 220.509C110.796 220.509 109.722 221.876 109.625 222.705C109.527 223.536 108.592 226.708 109.328 227.147C110.064 227.586 126.247 228.365 128.736 228.072C131.225 227.78 133.686 226.708 132.759 225.488C131.832 224.268 124.56 219.484 121.875 220.509C119.191 221.534 110.942 221.046 110.796 220.509Z" fill="#FF8E3A"/>
<path d="M111.089 214.409C111.089 214.409 109.478 221.339 110.845 221.925C112.211 222.511 118.752 224.414 122.022 222.608C125.292 220.803 123.486 220.363 123.486 220.363C123.486 220.363 119.337 220.314 119.093 219.582C118.849 218.85 118.898 213.676 118.898 213.676L111.089 214.409Z" fill="#FF8E3A"/>
<path d="M116.819 163.744C116.819 163.744 123.655 155.042 130 161.29C136.345 167.537 133.784 217.044 133.784 217.044C133.784 217.044 126.17 215.287 119.533 214.603C112.895 213.92 107.721 215.189 107.721 215.189C107.721 215.189 99.7027 226.803 84.3981 222.313L95.9376 200.35L111.946 182.193L116.819 163.744Z" fill="#8446FF"/>
<path d="M67.0434 202.107C67.0434 202.107 66.7506 225.046 81.9785 223.972C97.2064 222.899 105.964 204.94 105.964 204.94C105.964 204.94 105.281 216.068 106.648 216.068C108.014 216.068 124.511 215.384 124.511 215.384C124.511 215.384 132.25 158.669 109.018 154.081C85.7854 149.493 67.0434 202.107 67.0434 202.107Z" fill="#8446FF"/>
<path d="M79.5144 95.354C79.5144 95.354 87.4973 87.5026 96.0798 95.8778C104.662 104.253 98.3911 103.763 109.142 110.103C119.894 116.444 110.297 119.377 112.33 126.116C114.363 132.855 114.997 133.455 114.997 133.455C114.997 133.455 111.349 144.913 100.028 140.28C90.1444 136.234 79.1055 169.97 79.1055 169.97C79.1055 169.97 68.7642 171.235 65.2787 167.932C61.7936 164.629 63.912 163.028 64.1301 157.34C64.3481 151.652 60.1792 148.182 58.5453 144.83C56.9116 141.477 56.1792 134.888 63.5526 131.17C70.9257 127.452 72.2095 129.27 72.2271 125.317C72.2448 121.365 67.1093 111.806 67.477 109.388C67.8445 106.969 69.3635 101.431 72.6499 99.6141C75.9361 97.7971 76.7052 97.3096 79.5144 95.354Z" fill="#8446FF"/>
<path d="M100.098 137.048C100.098 137.048 118.403 141.391 119.87 148.76C121.338 156.129 121.536 159.79 121.536 159.79C121.536 159.79 120.365 162.328 119.731 161.987C119.096 161.645 116.508 159.011 111.042 160.722C105.577 162.433 92.0147 175.032 82.6533 194.072C82.6533 194.072 81.6793 198.075 79.9714 198.514C78.2631 198.955 67.3323 203.451 67.4316 206.574C67.5309 209.698 66.8656 180.837 65.9529 177.193C65.0399 173.549 63.7359 168.344 63.7359 168.344L62.4345 168.344C62.4345 168.344 62.8159 150.773 66.719 147.648C70.622 144.522 72.44 136.501 100.098 137.048Z" fill="white"/>
<path d="M94.6664 129.345C94.6664 129.345 92.4321 129.019 91.3789 128.19C91.3575 128.173 91.3491 128.165 91.3491 128.165C91.3491 128.165 91.818 129.529 92.2301 131.169C92.6928 133.026 93.082 135.237 92.6274 136.236C91.7745 138.124 85.0028 139.142 82.4745 136.205C82.4745 136.205 82.6199 131.65 82.1677 130.61C81.7155 129.566 77.243 123.435 77.1856 121.417C77.1856 121.417 71.0682 121.334 72.5729 117.89C74.0823 114.447 76.7427 117.188 76.7427 117.188C76.7427 117.188 79.2345 111.142 81.9728 109.461C84.7107 107.775 87.7875 101.342 87.7875 101.342C87.7875 101.342 98.1909 104.431 99.2815 109.705C100.372 114.983 99.935 129.949 94.6664 129.345Z" fill="#FF8E3A"/>
<path d="M75.113 167.942C75.113 167.942 75.7635 183.17 88.5186 183.951C101.274 184.732 106.87 184.797 107.781 184.406C108.692 184.016 110.254 181.348 111.621 180.632C112.987 179.916 114.809 177.286 114.679 176.291C114.549 175.296 115.85 174.905 116.371 175.946C116.892 176.988 115.714 180.557 115.714 180.557C115.714 180.557 120.269 180.817 122.742 179.19C125.215 177.563 123.784 184.461 123.003 185.307C122.222 186.153 122.089 189.601 109.538 190.393C109.538 190.393 106.789 189.742 104.552 191.434C102.314 193.126 86.0457 194.753 79.5378 192.02C73.0304 189.287 63.4313 181.152 62.8782 167.682L75.113 167.942Z" fill="#FF8E3A"/>
<path d="M92.3779 130.255C89.5896 128.855 85.0854 123.282 86.8522 124.695C88.8064 126.253 91.4882 127.254 91.4882 127.254C91.4882 127.254 91.9609 128.616 92.3779 130.255Z" fill="#FF8E3A"/>
<path d="M132.994 165.947C132.994 165.947 129.622 169.406 129.329 170.626C129.036 171.846 128.011 174.238 129.329 174.775C130.647 175.311 133.42 175.79 133.811 175.204C134.201 174.618 135.008 164.695 132.994 165.947Z" fill="#FF8E3A"/>
<path d="M133.217 166.565C133.217 166.565 130.005 166.136 129.516 167.063C129.028 167.99 132.006 169.065 132.006 169.065C132.006 169.065 133.621 166.61 133.217 166.565Z" fill="#FF8E3A"/>
<mask id="mask1_1629_2568" style="mask-type:alpha" maskUnits="userSpaceOnUse" x="-1" y="51" width="199" height="177">
<path d="M194.358 175.176C192.203 187.189 181.888 203.791 166.478 227.807H-0.0958252V118.296C17.3075 128.903 31.9087 132.61 44.1868 132.315C47.1768 132.242 50.0327 131.931 52.7543 131.422C53.4098 131.303 54.0615 131.169 54.7017 131.027C55.3227 130.889 55.936 130.739 56.5455 130.578C57.4348 130.345 58.305 130.092 59.1637 129.816C69.1457 126.657 77.1497 120.949 83.6088 115.322C101.898 99.3907 125.76 43.4125 160.931 53.0572C161.656 53.2565 162.369 53.4827 163.074 53.7433C163.768 53.9959 164.454 54.28 165.132 54.5863L166.118 55.3146L176.514 62.9966C176.678 63.1695 176.839 63.342 177 63.5183C177.786 64.3655 178.557 65.2587 179.308 66.1821C200.675 92.4907 198.85 150.106 194.358 175.176Z" fill="#D0E0FE"/>
</mask>
<g mask="url(#mask1_1629_2568)">
<path d="M171.365 83.0517C172.016 84.7173 171.365 89.3568 171.365 89.3568C165.1 116.465 162.708 115.565 161.271 115.834C159.834 116.098 160.028 113.124 160.158 112.826C160.287 112.547 161.102 107.674 161.207 107.038C160.744 109.102 156.642 119.065 156.642 119.065C153.748 121.78 153.186 118.414 153.186 118.414C152.754 119.717 151.779 121.308 151.779 121.308C147.543 124.038 147.762 119.011 147.762 119.011C147.434 117.872 149.284 110.767 148.791 112.612C148.304 114.451 144.45 121.94 142.77 121.308C141.089 120.677 140.979 117.385 142.551 115.431C144.127 113.477 146.175 105.556 146.34 103.727C146.499 101.892 146.216 98.635 146.539 95.627C146.867 92.6136 145.236 87.9745 140.03 90.7441C134.819 93.5087 132.055 92.1264 129.449 90.2519C126.844 88.3823 129.529 86.5922 131.726 85.9409C133.924 85.2896 139.458 83.1763 146.295 79.2682C153.132 75.3601 153.38 77.1503 157.706 75.1961C160.814 73.7988 164.642 62.2233 166.566 55.7841L180.051 65.7488C180.265 65.9727 180.474 66.1958 180.683 66.4246C175.87 74.1166 171.027 82.1965 171.365 83.0517Z" fill="#FF8E3A"/>
</g>
</g>
</g>
<defs>
<clipPath id="clip0_1629_2568">
<rect width="230" height="230" fill="white"/>
</clipPath>
</defs>
</svg>
