<svg width="252" height="163" viewBox="0 0 252 163" fill="none" xmlns="http://www.w3.org/2000/svg">
<g opacity="0.2">
<g clip-path="url(#clip0_1629_3145)">
<mask id="mask0_1629_3145" style="mask-type:luminance" maskUnits="userSpaceOnUse" x="0" y="0" width="252" height="163">
<path d="M252 0H0V163H252V0Z" fill="white"/>
</mask>
<g mask="url(#mask0_1629_3145)">
<path d="M157.106 0.203735C154.366 9.56809 143.575 41.0352 120.06 50.0573C98.0337 58.517 83.7483 73.0484 83.3065 73.5048C83.4464 73.1544 92.6419 50.1877 116.336 38.3539C129.591 31.7361 136.202 11.7767 139.009 0.203735H157.106Z" fill="#D0E0FE"/>
<path d="M252 6.52V156.48C252 160.081 249.069 163 245.455 163H6.54545C2.93073 163 0 160.081 0 156.48V6.52C0 2.91933 2.93073 0 6.54545 0H245.455C249.069 0 252 2.91933 252 6.52Z" fill="#F0F6FE"/>
<path d="M65.4136 87.9304C65.4136 87.9304 76.8109 93.2369 77.1545 107.759C77.5064 122.283 84.6172 127.948 97.0617 131.843C109.498 135.738 103.099 152.74 112.345 155.567C116.779 156.928 118.841 160.091 119.79 163H146.2C141.349 161.06 136.204 158.062 132.251 153.449C121.632 141.044 131.187 134.32 109.145 124.411C99.6136 120.123 88.8791 116.261 90.6627 107.05C92.4382 97.849 72.0409 89.6501 72.0409 89.6501L65.4136 87.9304Z" fill="#F0F6FE"/>
<path d="M191.324 154.206L195.815 163H168.725C166.107 161.769 163.808 160.229 162.459 158.314C157.557 151.378 154.383 150.058 144.933 146.504C129.207 140.596 138.485 126.219 120.96 102.6C103.435 78.9817 156.273 120.571 157.042 120.832C157.819 121.085 181.53 140.596 182.561 142.136C183.592 143.676 191.324 154.206 191.324 154.206Z" fill="#F0F6FE"/>
<path d="M252 6.52V156.48C252 160.081 249.069 163 245.455 163H190.828C175.975 159.839 179.634 148.174 169.464 146.266C159.769 144.441 143.624 141.735 140.123 131.87C131.223 106.798 123.292 102.651 123.292 102.651L124.977 54.9962C124.977 54.9962 137.544 48.6474 142.102 38.8103C146.667 28.9651 149.531 24.7516 160.723 20.644C173.561 15.9251 164.512 11.031 175.148 0H245.455C249.069 0 252 2.91933 252 6.52Z" fill="#B2C6FE"/>
<path d="M189.785 0C184.549 1.81745 177.896 5.58356 176.063 13.049C173.036 25.3718 168.21 34.5356 155.839 35.0328C144.646 35.4892 141.766 51.9514 124.829 57.1185L124.977 54.997C124.977 54.997 135.603 47.9033 140.161 38.0662C144.727 28.221 147.337 24.7516 158.53 20.6439C171.367 15.9251 162.319 11.027 172.955 0H189.785Z" fill="#F0F6FE"/>
<path d="M151.871 0C146.926 13.7352 128.103 18.3212 126.368 29.6823C124.29 43.3498 115.977 52.0459 100.595 53.2847C85.2136 54.5316 77.31 66.1291 77.31 66.1291C77.31 66.1291 77.6545 55.1046 96.0218 46.6587C118.233 36.4452 101.467 30.8812 116.395 15.1834C120.989 10.3521 120.477 3.36595 123.153 0H151.871Z" fill="#F0F6FE"/>
<path d="M41.4926 131.611C41.4926 131.611 57.0795 146.746 64.5365 152.381C71.9934 158.016 79.9443 158.852 83.7536 151.646C87.3806 144.782 87.452 113.228 87.452 113.228L72.3794 112.088L70.2059 129.935L59.9687 119.353L41.4926 131.611Z" fill="#FFB887"/>
<path d="M87.4506 114.574L88.0319 104.558C88.2128 101.437 84.8892 99.3313 82.1299 100.819L81.0408 101.405L76.2565 102.568L76.4318 106.664L75.4259 113.339L77.5764 115.896L87.4506 114.574Z" fill="#FFB887"/>
<path d="M85.1185 95.6681C85.1185 95.6681 85.9944 92.0948 89.179 92.6954C92.1113 93.2491 87.2167 89.1152 87.2167 89.1152L81.9437 89.0806L82.5156 91.8326L83.3021 95.1734L85.1185 95.6681Z" fill="#FFB887"/>
<path d="M75.214 89.8793L79.3199 106.802C79.4629 107.392 79.97 107.823 80.5773 107.869L83.7981 108.112C84.6239 108.175 85.325 107.515 85.3108 106.689L85.0212 90.1662L75.214 89.8793Z" fill="#FFB887"/>
<path d="M127.398 59.3178L123.458 110.407C111.508 99.6215 94.0116 94.0469 84.9176 91.4253C70.0473 90.2129 73.9776 90.5983 73.9776 90.5983C73.9776 90.5983 65.9939 89.7871 65.6998 81.7958C65.682 81.3135 65.6871 80.8109 65.7282 80.2784C65.7668 79.7783 65.8354 79.3247 65.9219 78.9157C67.438 71.0613 75.4535 71.4594 75.4535 71.4594C75.4535 71.4594 71.5098 71.2488 86.3936 72.2864C95.7842 71.0621 113.932 68.1925 127.398 59.3178Z" fill="#FFB887"/>
<path d="M83.4292 92.735L76.7458 92.2296C75.9635 92.1704 75.3781 91.4909 75.4383 90.7106L76.915 71.5542C76.9751 70.7739 77.6578 70.1903 78.4402 70.2494L85.1236 70.7549C85.906 70.814 86.4921 71.4936 86.432 72.2739L84.9553 91.4303C84.8951 92.2106 84.2116 92.7942 83.4292 92.735Z" fill="#FFB887"/>
<path d="M73.427 78.6588L69.2635 78.343C68.9976 78.3228 68.7988 78.0916 68.8192 77.8262L68.8229 77.7781C68.8433 77.5127 69.0752 77.3133 69.3411 77.3335L73.5046 77.6493C73.7705 77.6695 73.9676 77.9014 73.9472 78.1668L73.9435 78.2148C73.9231 78.4803 73.6929 78.679 73.427 78.6588Z" fill="#FFB887"/>
<path d="M73.0828 83.1494L68.9194 82.8336C68.6534 82.8134 68.4546 82.5822 68.475 82.3176L68.4787 82.2687C68.4991 82.0033 68.731 81.8039 68.997 81.8241L73.1604 82.1399C73.4263 82.1601 73.6235 82.392 73.6031 82.6574L73.5993 82.7063C73.579 82.9709 73.3487 83.1696 73.0828 83.1494Z" fill="#FFB887"/>
<path d="M72.388 80.9624L68.2245 80.6466C67.9586 80.6264 67.7598 80.3952 67.7801 80.1306L67.7839 80.0817C67.8043 79.8163 68.0362 79.6169 68.3021 79.6371L72.4656 79.9529C72.7307 79.973 72.9286 80.205 72.9082 80.4704L72.9045 80.5193C72.8841 80.7838 72.6531 80.9825 72.388 80.9624Z" fill="#FFB887"/>
<path d="M125.139 112.175L124.86 112.154C123.907 112.082 123.194 111.252 123.267 110.3L127.141 59.8829C127.215 58.9312 128.047 58.2186 128.999 58.2909L129.278 58.3121C130.231 58.3843 130.943 59.2141 130.87 60.1657L126.995 110.583C126.922 111.535 126.091 112.247 125.139 112.175Z" fill="#FFB887"/>
<path d="M72.0906 115.783L73.3402 99.5719C73.3402 99.5719 73.7279 97.0422 77.0242 97.6553C80.4748 98.2973 82.3059 100.15 82.3059 100.15C82.3059 100.15 81.8056 101.249 80.4025 100.895C78.9664 100.532 77.6086 99.9846 78.4556 102.873C79.0391 104.864 80.2976 106.636 79.1563 109.149C78.0142 111.662 78.456 118.234 78.456 118.234L73.1824 117.994L72.0906 115.783Z" fill="#FFB887"/>
<path d="M89.0998 102.96C89.0752 102.363 88.4507 101.985 87.9044 102.23C86.212 102.988 83.1562 104.524 83.4183 105.614C83.5295 106.075 84.8627 106.082 86.164 105.971C87.7139 105.838 88.7401 105.283 89.0259 104.141C89.1058 103.817 89.117 103.375 89.0998 102.96Z" fill="#FFB887"/>
<path d="M88.3759 104.95C88.3584 104.953 84.157 106.282 84.5036 107.266C84.661 107.715 85.7746 107.782 87.0751 107.671C88.6249 107.54 88.565 107.593 88.85 106.45C89.053 105.637 88.3759 104.95 88.3759 104.95Z" fill="#FFB887"/>
<path d="M89.3156 100.429C89.3193 100.446 89.3237 100.463 89.3281 100.481C89.5468 101.378 89.0741 102.307 88.2114 102.645L82.6808 104.131C82.6808 104.131 81.479 102.103 86.8556 99.2731C87.8336 98.7581 89.042 99.3615 89.3156 100.429Z" fill="#FFB887"/>
<path d="M87.5789 97.3136C87.6997 97.5762 87.7976 97.8805 87.8438 98.2291C87.9163 98.7874 87.6475 99.3379 87.1676 99.6165C85.7939 100.412 82.6862 102.115 81.9043 101.704C81.0169 101.235 83.2443 98.3983 85.656 96.7561C86.3241 96.302 87.2373 96.5746 87.5789 97.3136Z" fill="#FFB887"/>
<path d="M227.521 91.808H155.579C154.546 91.808 153.708 90.9727 153.708 89.9425V66.834C153.708 65.8047 154.546 64.9701 155.579 64.9701H227.521C228.556 64.9701 229.393 65.8047 229.393 66.834V89.9425C229.393 90.9727 228.556 91.808 227.521 91.808Z" fill="#B2C6FE"/>
<path d="M230.604 87.438H158.662C157.629 87.438 156.79 86.6035 156.79 85.5741V62.4656C156.79 61.4355 157.629 60.6001 158.662 60.6001H230.604C231.638 60.6001 232.475 61.4355 232.475 62.4656V85.5741C232.475 86.6035 231.638 87.438 230.604 87.438Z" fill="#B2C6FE"/>
<path d="M178.232 74.0476C178.232 76.0688 177.494 77.9189 176.267 79.3451C174.77 81.1055 172.527 82.2221 170.024 82.2221C167.521 82.2221 165.279 81.1055 163.782 79.3451C162.554 77.9189 161.817 76.0688 161.817 74.0476C161.817 69.5325 165.492 65.8732 170.024 65.8732C174.557 65.8732 178.232 69.5325 178.232 74.0476Z" fill="#B2C6FE"/>
<path d="M173.212 71.2408C173.212 72.9954 171.785 74.4184 170.024 74.4184C168.262 74.4184 166.834 72.9954 166.834 71.2408C166.834 69.4869 168.262 68.0647 170.024 68.0647C171.785 68.0647 173.212 69.4869 173.212 71.2408Z" fill="#B2C6FE"/>
<path d="M176.267 79.3451C174.77 81.1055 172.528 82.2221 170.024 82.2221C167.522 82.2221 165.279 81.1055 163.782 79.3451C164.682 77.112 167.136 75.5065 170.024 75.5065C172.913 75.5065 175.367 77.112 176.267 79.3451Z" fill="#B2C6FE"/>
<path d="M210.596 70.3931H185.344V67.9448H210.596V70.3931Z" fill="#B2C6FE"/>
<path d="M227.026 75.5065H185.344V73.0582H227.026V75.5065Z" fill="#B2C6FE"/>
<path d="M227.026 80.6198H185.344V78.1715H227.026V80.6198Z" fill="#B2C6FE"/>
<path d="M126.321 130.647L113.965 119.322L116.481 116.598L128.837 127.923L126.321 130.647Z" fill="#FFB887"/>
<path d="M139.719 153.456L121.919 132.252L123.702 130.805L141.5 152.008L139.719 153.456Z" fill="#FFB887"/>
<path d="M193.103 152.581L167.251 137.785L167.826 136.797L193.678 151.592L193.103 152.581Z" fill="#B2C6FE"/>
<path d="M159.317 50.3193L139.612 55.2549L138.881 52.359L158.585 47.4233L159.317 50.3193Z" fill="#FFB887"/>
<path d="M186.787 31.1522L150.562 46.4752L149.674 44.4341L185.898 29.1111L186.787 31.1522Z" fill="#B2C6FE"/>
<path d="M82.2371 38.2439L70.3866 32.0744L76.5811 20.2699L82.2371 38.2439Z" fill="#FFB887"/>
<path d="M213.372 46.5153C213.372 49.0271 211.327 51.0638 208.806 51.0638C206.284 51.0638 204.24 49.0271 204.24 46.5153C204.24 44.0035 206.284 41.9668 208.806 41.9668C211.327 41.9668 213.372 44.0035 213.372 46.5153Z" fill="#B2C6FE"/>
<path d="M239.24 132.302C240.964 138.558 237.269 145.021 230.988 146.738C224.707 148.455 218.221 144.776 216.496 138.52L239.24 132.302Z" fill="#B2C6FE"/>
<path d="M141.833 110.667C141.833 112.372 140.446 113.754 138.735 113.754C137.023 113.754 135.636 112.372 135.636 110.667C135.636 108.963 137.023 107.581 138.735 107.581C140.446 107.581 141.833 108.963 141.833 110.667Z" fill="#B2C6FE"/>
<path d="M65.4947 122.512L64.341 124.304L52.7638 142.266L52.4856 142.699L47.1919 139.202C45.9728 138.42 44.3528 139.219 44.2383 140.662C43.7147 147.319 43.6492 159.341 43.6083 163.001H6.54466C2.92993 163.001 -0.000793457 160.081 -0.000793457 156.481V94.7364C10.071 92.5432 19.6028 93.0086 20.8547 93.0819C20.9447 93.0892 20.9938 93.0892 20.9938 93.0892L32.5874 97.0664L37.9056 99.659C37.9056 99.659 38.1019 99.8057 38.4538 100.057C40.581 101.639 48.3701 107.425 52.0438 110.637C56.9283 114.923 65.4947 122.512 65.4947 122.512Z" fill="#B2C6FE"/>
<path d="M1.17332 125.084C3.20241 124.468 5.16196 123.678 7.05032 122.718C6.8335 122.661 6.6175 122.604 6.4015 122.547C8.19495 124.889 9.86814 127.314 11.4194 129.821C11.5421 130.02 11.8604 130.149 12.069 129.991C14.6169 128.068 17.1647 126.146 19.7125 124.222C19.4801 124.128 19.247 124.034 19.0146 123.94C19.6798 126.564 20.3466 129.188 21.0118 131.813C21.0821 132.092 21.4577 132.269 21.7089 132.096C24.453 130.203 27.1972 128.311 29.9414 126.419C29.7246 126.362 29.5078 126.305 29.291 126.249C31.0361 128.716 32.7813 131.182 34.5265 133.65C34.713 133.914 35.0231 133.952 35.2719 133.745C36.9606 132.343 38.651 130.941 40.3397 129.539H39.668C40.842 130.859 42.017 132.179 43.191 133.499C43.5977 133.955 44.267 133.285 43.8628 132.83C42.6887 131.511 41.5146 130.19 40.3397 128.87C40.1589 128.666 39.8553 128.714 39.668 128.87C37.9784 130.272 36.2897 131.675 34.6001 133.077C34.8489 133.109 35.0976 133.141 35.3455 133.173C33.6011 130.706 31.856 128.239 30.1108 125.772C29.9717 125.576 29.6878 125.446 29.462 125.602C26.7178 127.494 23.9736 129.386 21.2294 131.279C21.4618 131.373 21.695 131.467 21.9273 131.561C21.2613 128.937 20.5953 126.313 19.9293 123.688C19.8614 123.419 19.4793 123.22 19.233 123.406C16.6852 125.329 14.1366 127.252 11.5888 129.175C11.8056 129.231 12.0224 129.287 12.2392 129.344C10.6871 126.837 9.01314 124.412 7.21968 122.071C7.05686 121.858 6.82286 121.772 6.57086 121.901C4.75286 122.825 2.87268 123.58 0.920501 124.172C0.337956 124.349 0.586682 125.262 1.17332 125.084Z" fill="#B2C6FE"/>
<path d="M0.79937 129.157C2.92092 128.596 4.95083 127.79 6.88173 126.75C6.66492 126.694 6.44892 126.636 6.2321 126.58C7.88564 128.834 9.41564 131.171 10.8229 133.585C10.9898 133.87 11.3351 133.868 11.5683 133.681C13.4329 132.183 15.2984 130.685 17.163 129.188C16.8987 129.118 16.6345 129.049 16.3702 128.979C17.1728 131.264 18.1342 133.482 19.2543 135.63C19.3672 135.847 19.6977 135.936 19.9039 135.8C22.2496 134.246 24.5954 132.691 26.9419 131.137L26.3667 131.063C28.4433 133.499 30.5198 135.937 32.5972 138.375C32.7706 138.579 33.0881 138.531 33.2681 138.375C34.9732 136.89 36.8681 135.205 38.9086 134.189C39.5337 133.877 39.5951 134.137 39.9486 134.684C40.2668 135.179 40.5859 135.673 40.905 136.169C41.5776 137.212 42.2501 138.256 42.9226 139.299C43.2524 139.81 44.0738 139.336 43.7425 138.822C42.8932 137.504 42.0431 136.185 41.193 134.867C40.761 134.197 40.2308 132.755 39.1966 132.98C38.6902 133.091 38.2214 133.497 37.7935 133.775C37.161 134.184 36.5392 134.609 35.9288 135.05C34.7768 135.884 33.6682 136.773 32.5972 137.706H33.2681C31.1916 135.269 29.1142 132.832 27.0376 130.395C26.9092 130.244 26.6261 130.213 26.4625 130.321L19.4245 134.984C19.6405 135.041 19.8573 135.097 20.0741 135.153C18.9908 133.078 18.0614 130.936 17.2849 128.728C17.1597 128.371 16.7768 128.292 16.4921 128.521C14.6266 130.018 12.762 131.515 10.8974 133.012L11.6427 133.107C10.2355 130.693 8.70546 128.358 7.05192 126.104C6.89646 125.892 6.64773 125.803 6.40228 125.934C4.54173 126.935 2.59037 127.705 0.546552 128.247C-0.0425384 128.402 0.207007 129.314 0.79937 129.157Z" fill="#B2C6FE"/>
<path d="M38.079 140.114C39.3955 140.114 39.3971 138.076 38.079 138.076C36.7634 138.076 36.7609 140.114 38.079 140.114Z" fill="#B2C6FE"/>
<path d="M35.8634 128.56C37.1798 128.56 37.1815 126.522 35.8634 126.522C34.5477 126.522 34.5453 128.56 35.8634 128.56Z" fill="#B2C6FE"/>
<path d="M25.4373 139.205C26.7529 139.205 26.7554 137.168 25.4373 137.168C24.1208 137.168 24.1192 139.205 25.4373 139.205Z" fill="#B2C6FE"/>
<path d="M23.2217 125.315C24.5373 125.315 24.5397 123.278 23.2217 123.278C21.9052 123.278 21.9036 125.315 23.2217 125.315Z" fill="#B2C6FE"/>
<path d="M14.229 138.037C15.5455 138.037 15.5471 135.999 14.229 135.999C12.9134 135.999 12.911 138.037 14.229 138.037Z" fill="#B2C6FE"/>
<path d="M12.7956 123.757C14.1112 123.757 14.1137 121.719 12.7956 121.719C11.4799 121.719 11.4775 123.757 12.7956 123.757Z" fill="#B2C6FE"/>
<path d="M4.58512 134.402C5.90158 134.402 5.90321 132.364 4.58512 132.364C3.26948 132.364 3.26703 134.402 4.58512 134.402Z" fill="#B2C6FE"/>
<path d="M41.391 61.072C39.6344 57.5822 47.2009 56.6865 48.8414 54.2341C50.5988 57.2358 50.7616 60.5683 49.3372 61.8682C49.068 62.1136 48.7661 62.5439 49.0459 62.7778C49.1482 62.8625 49.2922 62.8723 49.4256 62.8739C50.4761 62.8862 51.5291 62.6425 52.4667 62.1714C52.0028 65.2154 49.4362 67.8243 46.3901 68.3475C43.344 68.8715 40.0484 67.2701 38.5871 64.5577L41.391 61.072Z" fill="#FFB887"/>
<path d="M53.1646 77.2539C51.9946 77.9874 51.4955 78.9002 51.2419 80.0738C51.1846 80.359 51.1274 80.6524 51.0865 80.9703L45.8337 79.9841C45.8337 79.9841 46.4965 85.2246 49.9901 86.6671C49.3437 88.5172 48.3292 90.0657 46.8646 90.6606C44.2383 91.7201 39.7628 90.3591 39.7628 90.3591C39.7628 90.3591 36.2095 97.3355 39.0101 101.027C39.2719 101.372 39.1328 101.875 38.7319 102.038C37.1365 102.69 33.2828 103.847 28.1119 102.446C22.5646 100.962 20.4537 96.007 19.8483 94.157C19.7337 93.7984 19.9301 93.4072 20.2983 93.3012C21.7546 92.8774 24.2648 90.8595 26.5737 85.5098C26.5983 85.4446 26.6228 85.3713 26.6474 85.3061C26.6474 85.3061 25.7474 83.5864 22.3519 80.4894C18.5065 76.9849 14.6201 71.4592 22.2946 63.4641C27.9483 57.5716 36.1955 57.8243 41.2846 61.2065C42.2992 61.883 43.191 62.6817 43.9028 63.5782C44.4755 64.2872 44.9337 65.0533 45.261 65.8765C45.261 65.8765 45.6865 66.9115 46.4228 68.3378C46.7583 68.9898 47.1592 69.7151 47.6092 70.4649C49.3765 73.3908 54.2365 73.8472 54.5065 74.3362C54.7846 74.817 54.9319 76.1699 53.1646 77.2539Z" fill="#FFB887"/>
<path d="M27.2324 85.6157C25.6607 85.5399 13.7651 82.0591 13.937 72.7844C14.0188 68.3336 17.3921 67.3402 17.0919 65.8715C16.7908 64.4029 17.7071 57.3417 25.3391 55.367C33.4432 53.27 41.5416 53.8861 41.6357 48.8885C41.6357 48.8885 46.895 52.0711 45.3241 57.4379C45.3241 57.4379 46.0416 66.7387 35.6793 70.2293C33.0971 71.0989 35.9027 76.0639 33.0341 76.9645C31.2145 77.535 29.9471 78.9857 30.416 80.9694C30.9961 83.4225 28.2216 85.663 27.2324 85.6157Z" fill="#FFB887"/>
<path d="M19.3066 65.6971C19.0186 64.2831 18.7298 62.8691 18.4418 61.455C17.9755 59.1665 17.3438 56.6294 15.363 55.38C13.6432 54.2961 11.4087 54.5349 9.44427 55.0654C6.84491 55.7655 4.24146 57.0157 2.75155 59.2496C1.02355 61.8397 1.19946 65.5178 3.10009 67.984C5.00155 70.4502 8.46327 71.5708 11.4791 70.7721C13.5524 70.2228 15.4276 68.8617 17.5729 68.8169L19.3066 65.6971Z" fill="#FFB887"/>
<path d="M43.7376 78.4347C43.7376 80.2595 42.2542 81.7371 40.4223 81.7371C38.5904 81.7371 37.1054 80.2595 37.1054 78.4347C37.1054 76.61 38.5904 75.1307 40.4223 75.1307C42.2542 75.1307 43.7376 76.61 43.7376 78.4347Z" fill="#FFB887"/>
<path d="M38.795 73.2025C38.745 73.2025 38.6943 73.1903 38.6485 73.1634C38.5127 73.0827 38.4685 72.9075 38.5495 72.7722C40.7201 69.1503 43.7801 69.5847 43.9086 69.6051C44.064 69.6303 44.1704 69.7754 44.1467 69.9303C44.1221 70.0859 43.974 70.1927 43.8202 70.1691C43.7049 70.1511 41.004 69.7868 39.0404 73.0639C38.9864 73.1536 38.8923 73.2025 38.795 73.2025Z" fill="#FFB887"/>
<path d="M44.4551 73.4102C44.4551 73.9164 44.0436 74.3271 43.5355 74.3271C43.0274 74.3271 42.6158 73.9164 42.6158 73.4102C42.6158 72.9041 43.0274 72.495 43.5355 72.495C44.0436 72.495 44.4551 72.9041 44.4551 73.4102Z" fill="#FFB887"/>
<path d="M210.825 39.6633L203.219 33.964C202.313 33.2843 202.13 32.0007 202.813 31.0968L216.319 13.2133C217.002 12.3095 218.291 12.1277 219.198 12.8082L226.803 18.5075C227.711 19.1864 227.892 20.4709 227.209 21.3747L213.703 39.2582C213.021 40.1621 211.732 40.343 210.825 39.6633Z" fill="#F0F6FE"/>
<path d="M210.196 34.7203C210.196 35.4033 209.639 35.9575 208.953 35.9575C208.268 35.9575 207.712 35.4033 207.712 34.7203C207.712 34.0374 208.268 33.4832 208.953 33.4832C209.639 33.4832 210.196 34.0374 210.196 34.7203Z" fill="#B2C6FE"/>
<path d="M219.665 25.9729C219.665 28.303 217.767 30.1929 215.427 30.1929C213.088 30.1929 211.192 28.303 211.192 25.9729C211.192 23.642 213.088 21.7528 215.427 21.7528C217.767 21.7528 219.665 23.642 219.665 25.9729Z" fill="#D0E0FE"/>
<path d="M120.068 20.3995L110.262 27.7883L107.665 29.1265C107.148 29.393 106.566 29.5055 105.986 29.4517C103.99 29.265 99.3076 28.8184 99.1342 28.7157C87.9243 22.5054 83.5854 11.3114 83.5854 11.3114L101.217 1.05872C104.744 9.25762 120.068 20.3995 120.068 20.3995Z" fill="#B2C6FE"/>
<path d="M110.262 27.7882L109.355 28.4875C109.355 28.4875 107.768 29.4688 105.658 29.7312C102.656 30.1045 101.236 29.6489 100.037 29.2226C99.6799 29.0955 99.3706 28.873 99.045 28.6807C99.7953 28.6921 103.364 28.6807 104.708 27.4867C104.708 27.4867 107.261 29.1868 109.96 27.9211C110.068 27.873 110.166 27.8241 110.262 27.7882Z" fill="#F0F6FE"/>
<path d="M101.22 23.952C101.495 23.6806 101.777 23.4174 102.072 23.1672C102.198 23.0596 102.328 22.9537 102.458 22.851C102.56 22.7695 102.665 22.6904 102.77 22.6122C102.904 22.5714 102.916 22.4997 102.809 22.3946C102.907 22.6391 103.159 22.7768 103.41 22.6374C104.662 21.9431 105.881 21.2927 106.962 20.3449C108.035 19.4035 109.192 18.5779 110.435 17.8713C110.891 17.6113 110.479 16.9064 110.021 17.1672C108.817 17.8518 107.683 18.6488 106.634 19.551C106.083 20.0246 105.551 20.4883 104.923 20.8591C104.29 21.2324 103.64 21.5771 102.998 21.9333C103.198 22.0148 103.398 22.0963 103.597 22.177C103.035 20.7695 101.149 22.8754 100.64 23.3767C100.266 23.7467 100.845 24.3221 101.22 23.952Z" fill="#F0F6FE"/>
<path d="M97.1075 21.6431C97.6344 21.6431 97.6353 20.8281 97.1075 20.8281C96.5814 20.8281 96.5798 21.6431 97.1075 21.6431Z" fill="#F0F6FE"/>
<path d="M99.3698 20.3229C102.048 18.6105 104.56 16.6725 107.096 14.7613C107.511 14.4483 107.103 13.7409 106.683 14.058C104.146 15.9683 101.635 17.9072 98.9575 19.6203C98.5156 19.9023 98.9256 20.6073 99.3698 20.3229Z" fill="#F0F6FE"/>
<path d="M95.0482 19.393C95.5751 19.393 95.5759 18.578 95.0482 18.578C94.5213 18.578 94.5205 19.393 95.0482 19.393Z" fill="#F0F6FE"/>
<path d="M97.3841 18.2845C100.053 16.7646 102.62 15.0759 105.072 13.2283C105.487 12.9161 105.079 12.2079 104.659 12.5249C102.207 14.3725 99.6398 16.0612 96.9717 17.5812C96.5144 17.8412 96.9259 18.5453 97.3841 18.2845Z" fill="#F0F6FE"/>
</g>
</g>
</g>
<defs>
<clipPath id="clip0_1629_3145">
<rect width="252" height="163" rx="81.5" fill="white"/>
</clipPath>
</defs>
</svg>
