<svg width="244" height="244" viewBox="0 0 244 244" fill="none" xmlns="http://www.w3.org/2000/svg">
<g opacity="0.2" clip-path="url(#clip0_1624_1707)">
<mask id="mask0_1624_1707" style="mask-type:luminance" maskUnits="userSpaceOnUse" x="0" y="0" width="244" height="244">
<path d="M244 0H0V244H244V0Z" fill="white"/>
</mask>
<g mask="url(#mask0_1624_1707)">
<path d="M208.606 204.895H225.794V204.765H208.606V204.895Z" fill="#F0F6FE"/>
<path d="M159.696 206.302H164.207V206.173H159.696V206.302Z" fill="#F0F6FE"/>
<path d="M198.127 200.075H208.086V199.945H198.127V200.075Z" fill="#F0F6FE"/>
<path d="M19.5491 200.948H41.9632V200.817H19.5491V200.948Z" fill="#F0F6FE"/>
<path d="M46.583 200.948H49.8704V200.817H46.583V200.948Z" fill="#F0F6FE"/>
<path d="M60.5511 203.139H109.162V203.009H60.5511V203.139Z" fill="#F0F6FE"/>
<path d="M115.32 173.268H15.1151C13.4819 173.268 12.1533 171.939 12.1533 170.306V29.4521C12.1533 27.8189 13.4819 26.4902 15.1151 26.4902H115.32C116.952 26.4902 118.281 27.8189 118.281 29.4521V170.306C118.281 171.939 116.952 173.268 115.32 173.268ZM15.1151 26.6194C13.5534 26.6194 12.2829 27.8904 12.2829 29.4521V170.306C12.2829 171.868 13.5534 173.139 15.1151 173.139H115.32C116.881 173.139 118.152 171.868 118.152 170.306V29.4521C118.152 27.8904 116.881 26.6194 115.32 26.6194H15.1151Z" fill="#F0F6FE"/>
<path d="M227.564 173.268H127.358C125.726 173.268 124.397 171.939 124.397 170.306V29.4521C124.397 27.8189 125.726 26.4902 127.358 26.4902H227.564C229.197 26.4902 230.525 27.8189 230.525 29.4521V170.306C230.525 171.939 229.197 173.268 227.564 173.268ZM127.358 26.6194C125.797 26.6194 124.527 27.8904 124.527 29.4521V170.306C124.527 171.868 125.797 173.139 127.358 173.139H227.564C229.126 173.139 230.396 171.868 230.396 170.306V29.4521C230.396 27.8904 229.126 26.6194 227.564 26.6194H127.358Z" fill="#F0F6FE"/>
<path d="M251.792 196.542H-7.67361V196.412H251.792V196.542Z" fill="#F0F6FE"/>
<path d="M162.179 191.047H122.841V148.705H162.179V191.047Z" fill="#F0F6FE"/>
<path d="M168.185 196.541H163.24V145.555H168.185V196.541Z" fill="#F0F6FE"/>
<path d="M132.326 167.861H129.102V152.037H132.326V167.861Z" fill="#F0F6FE"/>
<path d="M145.69 167.861H142.467V152.037H145.69V167.861Z" fill="#F0F6FE"/>
<path d="M135.549 167.861H132.326V153.149H135.549V167.861Z" fill="#F0F6FE"/>
<path d="M142.467 167.861H139.243V153.149H142.467V167.861Z" fill="#F0F6FE"/>
<path d="M139.244 167.861H137.16V152.037H139.244V167.861Z" fill="#F0F6FE"/>
<path d="M137.16 167.861H135.549V153.149H137.16V167.861Z" fill="#F0F6FE"/>
<path d="M148.914 167.861H145.69V152.037H148.914V167.861Z" fill="#F0F6FE"/>
<path d="M152.137 167.861H148.913V153.149H152.137V167.861Z" fill="#F0F6FE"/>
<path d="M159.055 167.861H155.831V153.149H159.055V167.861Z" fill="#F0F6FE"/>
<path d="M155.831 167.861H153.749V152.037H155.831V167.861Z" fill="#F0F6FE"/>
<path d="M153.749 167.861H152.137V153.149H153.749V167.861Z" fill="#F0F6FE"/>
<path d="M160.666 167.861H159.055V152.412H160.666V167.861Z" fill="#F0F6FE"/>
<path d="M157.443 189.069H160.666V173.245H157.443V189.069Z" fill="#F0F6FE"/>
<path d="M144.079 189.069H147.302V173.245H144.079V189.069Z" fill="#F0F6FE"/>
<path d="M154.219 189.069H157.443V174.357H154.219V189.069Z" fill="#F0F6FE"/>
<path d="M147.302 189.069H150.526V174.357H147.302V189.069Z" fill="#F0F6FE"/>
<path d="M150.525 189.069H152.608V173.245H150.525V189.069Z" fill="#F0F6FE"/>
<path d="M152.608 189.069H154.22V174.357H152.608V189.069Z" fill="#F0F6FE"/>
<path d="M140.855 189.069H144.079V173.245H140.855V189.069Z" fill="#F0F6FE"/>
<path d="M137.632 189.069H140.856V174.357H137.632V189.069Z" fill="#F0F6FE"/>
<path d="M130.714 189.069H133.938V174.357H130.714V189.069Z" fill="#F0F6FE"/>
<path d="M133.937 189.069H136.021V173.245H133.937V189.069Z" fill="#F0F6FE"/>
<path d="M127.019 189.069H129.103V173.245H127.019V189.069Z" fill="#F0F6FE"/>
<path d="M136.021 189.069H137.632V174.357H136.021V189.069Z" fill="#F0F6FE"/>
<path d="M129.103 189.068H130.714V173.619H129.103V189.068Z" fill="#F0F6FE"/>
<path d="M161.981 145.555H160.662H121.594V193.684H160.662V196.541H163.299V145.555H161.981ZM160.662 189.069H124.082V170.516H160.662V189.069ZM160.662 167.879H124.082V150.17H160.662V167.879Z" fill="#F0F6FE"/>
<path d="M83.438 191.047H122.776V148.705H83.438V191.047Z" fill="#F0F6FE"/>
<path d="M84.9506 196.541H89.8954V193.166H84.9506V196.541Z" fill="#F0F6FE"/>
<path d="M118.228 167.861H121.451V152.037H118.228V167.861Z" fill="#F0F6FE"/>
<path d="M104.863 167.861H108.087V152.037H104.863V167.861Z" fill="#F0F6FE"/>
<path d="M115.005 167.861H118.228V153.149H115.005V167.861Z" fill="#F0F6FE"/>
<path d="M108.087 167.861H111.31V153.149H108.087V167.861Z" fill="#F0F6FE"/>
<path d="M111.309 167.861H113.393V152.037H111.309V167.861Z" fill="#F0F6FE"/>
<path d="M113.393 167.861H115.005V153.149H113.393V167.861Z" fill="#F0F6FE"/>
<path d="M103.765 167.861H106.988V152.037H103.765V167.861Z" fill="#F0F6FE"/>
<path d="M100.542 167.861H103.765V153.149H100.542V167.861Z" fill="#F0F6FE"/>
<path d="M93.6241 167.861H96.8476V153.149H93.6241V167.861Z" fill="#F0F6FE"/>
<path d="M96.8466 167.861H98.9301V152.037H96.8466V167.861Z" fill="#F0F6FE"/>
<path d="M98.9301 167.861H100.542V153.149H98.9301V167.861Z" fill="#F0F6FE"/>
<path d="M92.0123 167.861H93.6241V152.412H92.0123V167.861Z" fill="#F0F6FE"/>
<path d="M93.7218 189.069H90.4983V173.245H93.7218V189.069Z" fill="#F0F6FE"/>
<path d="M107.086 189.069H103.863V173.245H107.086V189.069Z" fill="#F0F6FE"/>
<path d="M96.9447 189.069H93.7213V174.357H96.9447V189.069Z" fill="#F0F6FE"/>
<path d="M103.863 189.069H100.639V174.357H103.863V189.069Z" fill="#F0F6FE"/>
<path d="M100.64 189.069H98.556V173.245H100.64V189.069Z" fill="#F0F6FE"/>
<path d="M98.5565 189.069H96.9448V174.357H98.5565V189.069Z" fill="#F0F6FE"/>
<path d="M108.184 189.069H104.961V173.245H108.184V189.069Z" fill="#F0F6FE"/>
<path d="M111.407 189.069H108.184V174.357H111.407V189.069Z" fill="#F0F6FE"/>
<path d="M118.325 189.069H115.102V174.357H118.325V189.069Z" fill="#F0F6FE"/>
<path d="M115.102 189.069H113.019V173.245H115.102V189.069Z" fill="#F0F6FE"/>
<path d="M121.595 189.069H119.511V173.245H121.595V189.069Z" fill="#F0F6FE"/>
<path d="M113.019 189.069H111.407V174.357H113.019V189.069Z" fill="#F0F6FE"/>
<path d="M119.937 189.068H118.325V173.619H119.937V189.068Z" fill="#F0F6FE"/>
<path d="M82.3171 145.555V196.541H84.9544V193.684H124.022V145.555H84.9544H83.6363H82.3171ZM84.9544 170.516H121.535V189.069H84.9544V170.516ZM84.9544 150.17H121.535V167.878H84.9544V150.17Z" fill="#F0F6FE"/>
<path d="M205.07 196.54H201.862V94.7666H205.07V196.54Z" fill="#F0F6FE"/>
<path d="M194.175 196.541H191.873L195.892 97.3623H198.194L194.175 196.541Z" fill="#F0F6FE"/>
<path d="M213.664 196.541H215.967L211.948 97.3613H209.646L213.664 196.541Z" fill="#F0F6FE"/>
<path d="M218.634 141.675H188.576L191.47 100.289H221.528L218.634 141.675Z" fill="#F0F6FE"/>
<path d="M191.184 104.391L195.573 100.289H191.47L191.184 104.391Z" fill="#F0F6FE"/>
<path d="M217.425 100.289L221.241 104.392L221.528 100.289H217.425Z" fill="#F0F6FE"/>
<path d="M188.576 141.675H192.679L188.863 137.572L188.576 141.675Z" fill="#F0F6FE"/>
<path d="M218.921 137.572L214.531 141.675H218.634L218.921 137.572Z" fill="#F0F6FE"/>
<path d="M199.892 131.847C199.892 131.847 191.105 122.813 194.218 119.663C197.331 116.512 199.892 131.847 199.892 131.847Z" fill="#F0F6FE"/>
<path d="M202.079 127.774C202.079 127.774 200.37 107.69 205.004 108.209C209.638 108.728 202.079 127.774 202.079 127.774Z" fill="#F0F6FE"/>
<path d="M205.221 129.956C205.221 129.956 210.775 118.878 215.355 120.981C219.934 123.084 205.221 129.956 205.221 129.956Z" fill="#F0F6FE"/>
<path d="M223.001 146.646H184.583V141.19H223.001V146.646Z" fill="#F0F6FE"/>
<path d="M215.828 162.216H191.925V159.614H215.828V162.216Z" fill="#F0F6FE"/>
<path d="M41.3022 179.675C41.3022 179.675 37.525 161.826 44.4037 152.157C51.2824 142.489 38.1865 152.046 36.6801 161.097C36.6801 161.097 34.4231 144.915 41.0954 133.529C47.7678 122.143 35.2842 131.492 34.2234 143.223C34.2234 143.223 32.1794 128.786 35.2456 120.672C38.3113 112.559 32.9772 117.776 30.9265 122.862C28.8759 127.948 31.5666 140.541 31.5666 140.541C31.5666 140.541 26.2167 117.255 21.1518 119.108C16.0864 120.962 28.7234 136.218 30.4767 144.155C30.4767 144.155 24.5034 133.474 19.9727 135.697C15.4421 137.921 26.9901 139.027 32.2781 154.953L34.1362 162.42C34.1362 162.42 28.64 151.879 25.0467 155.204C21.4529 158.53 35.7012 164.269 39.0119 180.245L41.3022 179.675Z" fill="#F0F6FE"/>
<path d="M52.9204 196.541H30.7063C27.8127 196.541 25.4675 194.194 25.4675 191.301V185.124H58.1602V191.301C58.1602 194.194 55.814 196.541 52.9204 196.541Z" fill="#F0F6FE"/>
<path d="M60.4343 188.756H23.1929C22.0844 188.756 21.1861 187.858 21.1861 186.75V180.541C21.1861 179.433 22.0844 178.534 23.1929 178.534H60.4343C61.5428 178.534 62.4411 179.433 62.4411 180.541V186.75C62.4411 187.858 61.5428 188.756 60.4343 188.756Z" fill="#F0F6FE"/>
<path d="M40.5626 180.702C40.5626 180.702 39.7682 158.199 28.6486 148.668C17.5294 139.137 36.062 146.682 40.5626 157.073C40.5626 157.073 38.4443 137.019 27.0597 125.37C15.6756 113.72 33.4142 121.198 38.1798 134.933C38.1798 134.933 36.3265 117.032 30.2374 108.229C24.1479 99.4245 32.0908 104.084 36.062 109.564C40.0332 115.044 40.5626 130.93 40.5626 130.93C40.5626 130.93 40.0327 101.444 46.6512 102.155C53.2702 102.866 42.6805 124.905 42.9454 134.933C42.9454 134.933 46.9166 120.36 53.0057 121.674C59.0952 122.987 45.5927 127.753 44.0044 148.404V157.9C44.0044 157.9 47.4456 143.638 52.7407 146.55C58.0358 149.462 42.6805 160.581 43.4749 180.702H40.5626Z" fill="#F0F6FE"/>
<path d="M220.172 211.977C220.172 215.222 175.125 217.853 119.557 217.853C63.9885 217.853 18.9415 215.222 18.9415 211.977C18.9415 208.732 63.9885 206.101 119.557 206.101C175.125 206.101 220.172 208.732 220.172 211.977Z" fill="#F0F6FE"/>
<path d="M58.3232 142.756L51.2095 126.251L73.2229 116.765L58.3232 142.756Z" fill="#8446FF"/>
<path d="M91.0983 147.772C89.111 152.343 83.7945 154.438 79.2233 152.451C74.6521 150.464 72.5571 145.147 74.5444 140.576L91.0983 147.772Z" fill="#8446FF"/>
<path d="M85.8003 138.988H84.5551V133.856C84.5551 133.412 84.1934 133.051 83.7492 133.051H80.0668C78.9359 133.051 78.0166 132.131 78.0166 131V127.318C78.0166 126.874 77.6554 126.512 77.2108 126.512H73.5274C72.397 126.512 71.4768 125.593 71.4768 124.462V120.779C71.4768 120.334 71.1155 119.973 70.6714 119.973H66.9885C65.8581 119.973 64.9383 119.053 64.9383 117.922V114.24C64.9383 113.795 64.5766 113.434 64.1325 113.434H59.0023V112.189H64.1325C65.2629 112.189 66.1831 113.109 66.1831 114.24V117.922C66.1831 118.367 66.5443 118.728 66.9885 118.728H70.6714C71.8018 118.728 72.7225 119.649 72.7225 120.779V124.462C72.7225 124.906 73.0833 125.267 73.5274 125.267H77.2108C78.3416 125.267 79.2614 126.188 79.2614 127.318V131C79.2614 131.445 79.6222 131.807 80.0668 131.807H83.7492C84.8796 131.807 85.8003 132.726 85.8003 133.856V138.988Z" fill="#8446FF"/>
<path d="M94.9613 132.054L86.2493 123.342L94.9613 114.63L103.674 123.342L94.9613 132.054Z" fill="#8446FF"/>
<path d="M103.091 67.5512C101.758 56.2567 91.5205 48.1823 80.226 49.5162C68.9314 50.8501 60.8565 61.0871 62.1904 72.3817C63.1583 80.5747 70.3325 85.3508 75.2201 91.3498C76.7337 93.2079 77.4805 100.737 77.4805 100.737L94.8278 98.6884C94.8278 98.6884 93.7999 91.1925 94.8393 89.0328C98.1947 82.0602 104.059 75.7443 103.091 67.5512Z" fill="#8446FF"/>
<path d="M92.1739 105.222L81.5827 106.473C79.717 106.693 78.0262 105.359 77.806 103.493L77.6182 101.901L94.9646 99.8525L95.1533 101.445C95.3735 103.31 94.0396 105.002 92.1739 105.222Z" fill="#FFB887"/>
<path d="M88.1707 110.986L86.8187 111.145C84.953 111.366 83.2621 110.032 83.0415 108.166L82.9614 107.49L91.0701 106.532L91.1502 107.208C91.3704 109.074 90.0369 110.766 88.1707 110.986Z" fill="#FFB887"/>
<path d="M103.091 67.5511C102.092 59.0854 96.0893 52.4292 88.3894 50.187C83.559 49.7233 76.2123 49.5103 76.574 52.5727C77.1106 57.1162 87.2385 53.9876 89.8139 56.2336C92.3887 58.4792 83.0028 64.339 86.2864 66.5426C89.5699 68.7463 95.18 62.6129 95.18 62.6129C95.18 62.6129 93.7474 71.2044 96.2322 71.5227C98.7175 71.8411 97.6286 65.0591 99.1902 64.8747C100.752 64.6902 102.867 68.0252 101.86 75.9262C102.881 73.3032 103.446 70.5534 103.091 67.5511Z" fill="#8446FF"/>
<path d="M103.091 67.5511C102.092 59.0854 96.0893 52.4292 88.3894 50.187C83.559 49.7233 76.2123 49.5103 76.574 52.5727C77.1106 57.1162 87.2385 53.9876 89.8139 56.2336C92.3887 58.4792 83.0028 64.339 86.2864 66.5426C89.5699 68.7463 95.18 62.6129 95.18 62.6129C95.18 62.6129 93.7474 71.2044 96.2322 71.5227C98.7175 71.8411 97.6286 65.0591 99.1902 64.8747C100.752 64.6902 102.867 68.0252 101.86 75.9262C102.881 73.3032 103.446 70.5534 103.091 67.5511Z" fill="#8446FF"/>
<path d="M91.3184 68.9727C91.3184 68.9727 83.6743 72.4668 85.8727 75.2309C88.0706 77.9945 91.3184 68.9727 91.3184 68.9727Z" fill="#8446FF"/>
<path d="M91.3184 68.9727C91.3184 68.9727 83.6743 72.4668 85.8727 75.2309C88.0706 77.9945 91.3184 68.9727 91.3184 68.9727Z" fill="#8446FF"/>
<path d="M69.0115 49.788C67.8859 50.6191 66.8331 51.5332 65.8557 52.5349C65.6808 52.7141 65.9553 52.9895 66.1312 52.8099C67.0852 51.8329 68.1089 50.9351 69.2078 50.124C69.4075 49.9767 69.2136 49.6393 69.0115 49.788Z" fill="#8446FF"/>
<path d="M62.9439 56.5724C59.841 61.4867 58.551 67.002 59.1276 72.7856C59.1519 73.0324 59.5413 73.0348 59.5165 72.7856C58.9475 67.0759 60.2151 61.624 63.2799 56.7693C63.4138 56.5567 63.0774 56.3608 62.9439 56.5724Z" fill="#8446FF"/>
<path d="M108.842 56.9533C108.842 56.9533 109.573 35.5828 117.661 36.9668C125.751 38.3502 108.842 56.9533 108.842 56.9533Z" fill="#8446FF"/>
<path d="M102.956 50.3382C102.956 50.3382 90.4158 40.5615 94.2007 37.0969C97.986 33.6327 102.956 50.3382 102.956 50.3382Z" fill="#8446FF"/>
<path d="M97.5247 93.756C97.5247 93.756 102.976 81.4798 107.513 84.3949C112.05 87.3101 97.5247 93.756 97.5247 93.756Z" fill="#8446FF"/>
<path d="M73.6975 98.878C73.6975 98.878 68.0274 91.8554 65.5883 94.5356C63.1493 97.2158 73.6975 98.878 73.6975 98.878Z" fill="#8446FF"/>
<path d="M134.948 75.0354C132.989 68.1691 131.288 59.6577 124.139 61.3037C120.224 62.2049 121.28 56.7116 121.525 54.8125C121.77 52.9138 123.901 51.212 125.598 52.1008C126.341 52.4892 126.81 53.2522 127.487 53.7483C129.161 54.9769 131.678 54.1939 133.05 52.6332C134.421 51.0724 134.953 48.9698 135.51 46.9678C136.066 44.9662 136.757 42.8751 138.323 41.5097C140.281 39.8027 143.458 39.7083 145.515 41.2962C147.571 42.8841 148.283 45.9818 147.127 48.3083C149.979 48.0319 152.239 45.8002 153.92 43.4793C155.6 41.1585 157.024 38.5531 159.334 36.8575C161.644 35.1619 165.25 34.7406 167.171 36.8666C169.219 39.1321 168.197 42.877 166.174 45.1654C164.153 47.4539 161.352 48.9393 159.308 51.2073C157.263 53.4752 156.165 57.1791 158.143 59.5052C159.654 61.2809 162.248 61.5015 164.503 62.0934C166.824 62.7029 169.158 63.9949 170.118 66.1942C171.078 68.3936 169.958 71.5117 167.591 71.9053C164.889 72.3538 162.972 69.4506 161.678 67.0368C160.384 64.623 157.978 61.909 155.438 62.9341C152.794 64.0016 153.111 67.8484 154.163 70.499C155.359 73.5137 156.897 76.3927 158.736 79.0638C159.964 80.8476 161.353 83.2308 160.07 84.9755C158.644 86.9132 155.346 85.7218 154.137 83.6426C152.339 80.5535 152.573 73.1363 147.27 73.6905C145.884 73.8354 144.724 75.3061 143.37 75.6783C140.963 76.3398 135.612 77.361 134.948 75.0354Z" fill="#8446FF"/>
<path d="M178.43 60.3448C178.33 60.79 178.475 61.268 178.75 61.632C179.012 61.9799 179.413 62.2435 179.849 62.2554C180.327 62.2683 180.766 61.9814 181.096 61.6335C181.395 61.317 181.639 60.9143 181.637 60.4788C181.635 60.0298 181.359 59.6081 180.98 59.3693C180.069 58.7951 178.68 59.2359 178.43 60.3448Z" fill="#8446FF"/>
<path d="M169.252 85.0165C169.178 85.3458 169.285 85.6994 169.489 85.9687C169.682 86.226 169.979 86.4219 170.302 86.4305C170.656 86.44 170.981 86.2274 171.225 85.9701C171.446 85.7361 171.628 85.4383 171.626 85.1156C171.625 84.7835 171.42 84.4708 171.139 84.294C170.465 83.8689 169.437 84.1954 169.252 85.0165Z" fill="#8446FF"/>
<path d="M144.477 37.4878C144.332 38.266 144.542 39.1014 144.941 39.7381C145.322 40.3467 145.904 40.8089 146.537 40.8294C147.232 40.8518 147.871 40.35 148.349 39.7419C148.785 39.1881 149.141 38.4842 149.137 37.7217C149.134 36.9368 148.733 36.1987 148.18 35.7802C146.857 34.7766 144.839 35.5481 144.477 37.4878Z" fill="#8446FF"/>
<path d="M170.055 45.718C169.855 46.6077 170.144 47.5637 170.694 48.2914C171.218 48.9872 172.02 49.5157 172.891 49.539C173.848 49.5648 174.727 48.991 175.385 48.2957C175.985 47.6628 176.475 46.8574 176.471 45.9853C176.466 45.0879 175.914 44.2435 175.154 43.7655C173.332 42.6174 170.554 43.5 170.055 45.718Z" fill="#8446FF"/>
<path d="M156.88 161.243L167.969 158.204L170.428 162.334L160.182 166.738L156.88 161.243Z" fill="#FFB887"/>
<path d="M171.096 164.251C171.379 164.817 171.567 165.454 171.417 165.763C171.323 165.931 171.134 166.022 170.944 165.989C170.781 165.975 170.629 165.899 170.522 165.775C169.934 165.119 170.048 163.078 170.053 162.987C170.056 162.937 170.091 162.893 170.139 162.88C170.188 162.866 170.24 162.883 170.271 162.923C170.585 163.341 170.86 163.785 171.096 164.251ZM170.572 165.417C170.605 165.487 170.649 165.552 170.701 165.61C170.761 165.692 170.856 165.743 170.958 165.747C171.132 165.76 171.183 165.699 171.204 165.65C171.395 165.291 170.829 164.139 170.301 163.344C170.26 164.046 170.352 164.75 170.572 165.417Z" fill="#8446FF"/>
<path d="M170.278 162.939C170.29 162.953 170.296 162.969 170.296 162.987C170.327 163.652 169.885 165.239 169.325 165.398C169.196 165.448 169 165.43 168.821 165.148C168.69 164.942 168.648 164.692 168.705 164.455C168.893 163.638 170.061 162.903 170.115 162.868C170.152 162.846 170.199 162.846 170.236 162.868C170.259 162.886 170.273 162.911 170.278 162.939ZM168.99 164.973L169.015 165.038C169.128 165.224 169.213 165.198 169.244 165.192C169.568 165.065 169.981 163.963 170.033 163.232C169.544 163.543 169.162 163.997 168.939 164.533C168.902 164.681 168.92 164.838 168.99 164.973Z" fill="#8446FF"/>
<path d="M169.402 162.776L166.921 157.805C166.827 157.618 166.876 157.39 167.038 157.258L170.634 154.341C170.951 154.08 171.419 154.126 171.68 154.443C171.714 154.483 171.743 154.527 171.767 154.574C172.63 156.382 173.328 158.024 174.444 160.253C175.759 162.885 175.74 162.06 177.329 165.133C178.284 166.986 176.335 168.385 175.836 167.647C173.574 164.255 172.294 164.425 170.302 163.675C169.902 163.496 169.582 163.175 169.402 162.776Z" fill="#FFB887"/>
<path d="M164.573 164.851L166.984 163.815L165.248 158.95L162.951 159.579L164.573 164.851Z" fill="#FFB887"/>
<path d="M133.331 174.677L144.237 178.315L143.986 183.115L133.021 181.081L133.331 174.677Z" fill="#FFB887"/>
<path d="M143.476 185.079C143.396 185.707 143.199 186.341 142.902 186.515C142.731 186.602 142.523 186.572 142.384 186.439C142.256 186.337 142.172 186.189 142.152 186.027C142.027 185.154 143.257 183.521 143.311 183.449C143.342 183.409 143.395 183.392 143.443 183.407C143.492 183.424 143.525 183.466 143.529 183.516C143.557 184.038 143.539 184.561 143.476 185.079ZM142.392 185.757C142.381 185.834 142.381 185.912 142.392 185.989C142.397 186.091 142.447 186.185 142.529 186.245C142.667 186.353 142.743 186.331 142.788 186.302C143.146 186.11 143.316 184.838 143.319 183.883C142.895 184.444 142.58 185.08 142.392 185.757Z" fill="#8446FF"/>
<path d="M143.525 183.535C143.528 183.552 143.524 183.569 143.514 183.584C143.17 184.153 141.921 185.228 141.367 185.048C141.232 185.018 141.078 184.895 141.087 184.56C141.092 184.317 141.196 184.086 141.376 183.921C141.986 183.345 143.365 183.383 143.429 183.385C143.472 183.387 143.512 183.413 143.531 183.452C143.539 183.48 143.537 183.509 143.525 183.535ZM141.324 184.509L141.309 184.577C141.3 184.795 141.385 184.819 141.414 184.833C141.753 184.907 142.71 184.221 143.16 183.642C142.58 183.629 142.009 183.794 141.527 184.115C141.413 184.218 141.341 184.358 141.324 184.509Z" fill="#8446FF"/>
<path d="M142.888 182.911L143.589 177.4C143.614 177.192 143.782 177.03 143.99 177.011L148.6 176.585C149.009 176.544 149.373 176.842 149.414 177.251C149.419 177.303 149.419 177.356 149.413 177.408C149.126 179.39 148.792 181.143 148.481 183.616C148.111 186.535 148.555 185.84 148.167 189.277C147.932 191.348 145.534 191.428 145.529 190.537C145.534 186.46 144.376 185.889 143.136 184.159C142.903 183.788 142.815 183.343 142.888 182.911Z" fill="#FFB887"/>
<path d="M136.747 181.771L139.366 182.257L140.412 177.038L138.371 176.357L136.747 181.771Z" fill="#FFB887"/>
<path d="M113.073 121.994C113.073 121.994 108.462 130.124 102.754 149.325C97.0453 168.525 100.851 175.098 118.84 179.422L136.138 182.017L137.522 175.79C137.522 175.79 122.932 168.793 114.47 165.848C113.497 165.509 113.035 164.405 113.488 163.48C116.31 157.722 125.172 138.935 128.354 123.897L113.073 121.994Z" fill="#8446FF"/>
<path d="M137.23 174.839L135.252 182.623C135.252 182.623 136.289 183.79 137.522 183.239L139.241 175.292C139.241 175.292 138.527 173.995 137.23 174.839Z" fill="#8446FF"/>
<path d="M137.23 174.839L135.252 182.622C135.252 182.622 136.289 183.79 137.522 183.239L139.241 175.292C139.241 175.292 138.527 173.995 137.23 174.839Z" fill="#F0F6FE"/>
<path d="M117.629 128.048C118.293 137.331 121.435 154.514 124.03 164.719C126.624 174.925 133.543 177.001 140.808 175.617C148.074 174.233 159.836 167.315 164.852 165.757L162.776 159.011C162.776 159.011 146.489 162.186 139.56 165.329C138.615 165.758 137.548 165.055 137.549 164.018C137.56 156.54 137.028 133.795 130.429 123.897L117.629 122.562C117.629 122.562 117.531 126.68 117.629 128.048Z" fill="#8446FF"/>
<path d="M161.436 158.578L164.074 166.622C164.074 166.622 165.328 166.882 166.15 165.974L163.511 158.017C163.511 158.017 162.388 157.367 161.436 158.578Z" fill="#8446FF"/>
<path d="M161.436 158.58L164.074 166.623C164.074 166.623 165.328 166.882 166.15 165.974L163.511 158.017C163.511 158.017 162.388 157.369 161.436 158.58Z" fill="#F0F6FE"/>
<path d="M120.138 90.5986L118.589 82.5309C118.527 82.2049 118.533 81.8694 118.61 81.5463L122.733 65.6901L124.766 63.5189C125.044 63.1901 125.197 62.7726 125.197 62.3418V60.9736C125.197 60.7753 125.23 60.578 125.293 60.3903L125.681 59.2408C126.009 58.2715 125.475 57.2226 124.498 56.9171L124.247 56.8389C123.776 56.6917 123.266 56.7417 122.833 56.9771L120.436 58.2796C119.875 58.5846 119.514 59.1607 119.485 59.7989L119.273 64.4796C119.273 64.4796 112.007 77.9711 112.44 82.5552C112.872 87.1392 115.035 94.0122 115.035 94.0122C115.035 94.0122 118.321 93.9717 120.138 90.5986Z" fill="#FFB887"/>
<path d="M141.933 95.1828L149.63 90.1665L155.513 75.1176L154.933 72.4412C154.859 72.1028 154.909 71.7497 155.071 71.4437L155.877 69.9273C156.131 69.4489 156.628 69.15 157.17 69.15H157.335C157.613 69.15 157.885 69.0709 158.119 68.9223L159.017 68.3537C159.738 67.8967 160.696 68.1512 161.095 68.9056L162.395 72.3421C162.718 72.9521 162.572 73.705 162.043 74.1487L159.144 77.0205C159.144 77.0205 156.203 92.3224 154.646 94.0118C153.089 95.7017 144.614 99.9398 144.614 99.9398L141.933 95.1828Z" fill="#FFB887"/>
<path d="M122.732 94.4906L121.521 90.4256C121.521 90.4256 122.386 88.6094 120.83 88.6094C120.83 88.6094 116.333 89.7341 113.306 94.0117C113.306 94.0117 112.527 95.7016 113.825 95.7878L115.122 101.756C115.122 101.756 122.819 98.5557 122.732 94.4906Z" fill="#FFB887"/>
<path d="M145.91 100.285C145.91 100.285 145.91 102.19 144.353 101.235C144.353 101.235 143.201 102.059 141.017 103.076C138.674 104.167 136.803 106.064 135.809 108.449C133.756 113.372 131.714 120.074 132.023 126.771C132.023 126.771 121.634 126.393 112.423 123.539C112.423 123.539 114.484 120.227 114.198 116.595C113.757 110.959 113.461 106.808 113.912 103.295C114.603 97.9862 119.143 93.996 124.494 94.0165H124.654C124.587 95.0702 124.94 96.8396 127.856 97.4001C130.736 97.95 133.046 96.6061 134.244 95.6773C134.644 95.8484 135.018 96.0247 135.365 96.2115C136.979 95.734 140.134 94.7432 140.897 94.0112C140.897 94.0112 141.457 92.5272 142.495 92.6983C143.533 92.8751 145.91 96.5637 145.91 100.285Z" fill="#FFB887"/>
<path d="M127.045 97.3275C129.32 97.6397 131.587 96.9177 133.06 96.2781C133.257 95.9698 133.294 95.782 133.294 95.782C131.657 93.6527 132.813 89.714 133.773 87.0566L127.821 90.7247C128.022 92.9427 127.913 94.2017 124.727 94.4577C124.727 94.4577 124.404 94.6611 124.104 95.1372C124.408 96.0842 125.18 97.0716 127.045 97.3275Z" fill="#FFB887"/>
<path d="M131.361 88.5322L127.856 90.7306C127.912 91.2467 127.921 91.7667 127.885 92.2842C129.088 92.2999 131.083 91.5884 131.531 90.3532C131.626 89.7417 131.568 89.1155 131.361 88.5322Z" fill="#FFB887"/>
<path d="M130.975 74.2787C130.975 74.2787 124.918 73.4332 125.65 76.2588C126.383 79.0843 130.975 74.2787 130.975 74.2787Z" fill="#FFB887"/>
<path d="M130.975 74.2787C130.975 74.2787 124.918 73.4332 125.65 76.2588C126.383 79.0843 130.975 74.2787 130.975 74.2787Z" fill="#FFB887"/>
<path d="M138.583 75.0689C138.279 73.9981 137.53 70.9891 139.114 70.6903C141.845 70.1751 142.396 73.2361 142.396 73.2361C142.396 73.2361 146.254 73.1717 143.835 76.7407C143.835 76.7407 145.361 79.6563 142.108 79.3175C140.176 79.1164 138.939 76.3247 138.583 75.0689Z" fill="#FFB887"/>
<path d="M138.583 75.0689C138.279 73.9981 137.53 70.9891 139.114 70.6903C141.845 70.1751 142.396 73.2356 142.396 73.2356C142.396 73.2356 146.254 73.1713 143.835 76.7402C143.835 76.7402 145.361 79.6563 142.108 79.3175C140.176 79.1164 138.939 76.3247 138.583 75.0689Z" fill="#FFB887"/>
<path d="M137.619 74.9888C137.619 74.9888 139.27 73.5977 140.507 75.4048C141.744 77.2119 139.474 78.5282 139.474 78.5282C139.474 78.5282 138.86 75.8628 137.619 74.9888Z" fill="#8446FF"/>
<path d="M134.207 88.6514C134.207 88.6514 135.143 91.0833 133.963 91.1552C132.784 91.2277 134.383 90.2564 134.207 88.6514Z" fill="#FFB887"/>
<path d="M138.09 82.9014C136.162 87.2124 135.435 89.0715 132.357 90.4935C127.724 92.6385 122.855 89.3212 123.455 84.5265C124.003 80.2079 127.076 73.8639 132.048 73.7619C135.602 73.6523 138.572 76.4445 138.682 79.9982C138.713 80.999 138.51 81.9926 138.09 82.9014Z" fill="#FFB887"/>
<path d="M126.568 79.8913C126.429 80.2554 126.129 80.4689 125.897 80.3845C125.665 80.2997 125.581 79.9294 125.713 79.5711C125.845 79.2127 126.152 78.9935 126.383 79.0854C126.615 79.1769 126.7 79.5329 126.568 79.8913Z" fill="#FFB887"/>
<path d="M126.48 79.1417L125.712 78.5684C125.712 78.5684 125.899 79.41 126.48 79.1417Z" fill="#FFB887"/>
<path d="M126.954 81.5713C126.324 82.2699 125.601 82.879 124.805 83.3813C125.08 83.7835 125.515 84.047 125.999 84.1037L126.954 81.5713Z" fill="#FFB887"/>
<path d="M132.786 80.7313C132.687 80.7332 132.598 80.6703 132.569 80.576C132.251 79.9059 131.669 79.3989 130.962 79.1763C130.841 79.1406 130.772 79.0138 130.808 78.8932C130.843 78.7755 130.966 78.7088 131.083 78.7436C131.086 78.7445 131.089 78.7455 131.091 78.746C131.943 79.0071 132.641 79.6262 133 80.4425C133.036 80.5593 132.971 80.6837 132.855 80.7208C132.833 80.7309 132.809 80.7342 132.786 80.7313Z" fill="#FFB887"/>
<path d="M126.037 77.4385C125.959 77.4113 125.902 77.3456 125.884 77.2655C125.861 77.143 125.939 77.0248 126.061 76.9991C126.777 76.8266 127.532 77.0215 128.074 77.52C128.161 77.601 128.164 77.7373 128.083 77.8236C128.079 77.8278 128.074 77.8321 128.07 77.8359C127.983 77.9227 127.843 77.9222 127.756 77.835C127.755 77.8345 127.755 77.834 127.754 77.8331C127.317 77.4595 126.729 77.3165 126.17 77.448C126.126 77.4585 126.079 77.4552 126.037 77.4385Z" fill="#FFB887"/>
<path d="M130.627 81.4097C130.488 81.7671 130.188 81.9873 129.955 81.9029C129.723 81.8181 129.64 81.4478 129.772 81.0894C129.903 80.731 130.211 80.5118 130.443 80.5962C130.676 80.681 130.736 81.0618 130.627 81.4097Z" fill="#FFB887"/>
<path d="M130.533 80.6939L129.765 80.1211C129.765 80.1211 129.957 80.9351 130.533 80.6939Z" fill="#FFB887"/>
<path d="M136.461 85.4093C136.461 85.4093 134.997 81.8551 135.801 77.7886C135.801 77.7886 127.975 77.7247 130.498 75.7641C130.498 75.7641 123.903 74.0314 126.48 71.0614C129.056 68.0915 133.573 70.1331 135.368 72.7323C135.368 72.7323 139.359 74.3445 139.885 78.5687C140.503 83.5445 134.403 91.1199 134.006 89.1698C133.773 88.0204 136.461 85.4093 136.461 85.4093Z" fill="#FFB887"/>
<path d="M138.013 86.7451C137.439 87.4304 136.617 87.8617 135.727 87.9451C134.542 88.037 134.172 86.9219 134.691 85.9144C135.165 85.0128 136.349 83.8757 137.451 84.2336C138.243 84.5191 138.654 85.3921 138.369 86.1847C138.293 86.3953 138.172 86.5864 138.013 86.7451Z" fill="#FFB887"/>
<path d="M123.658 93.8203L125.18 93.7988C125.18 93.7988 124.808 96.0253 127.598 96.5443C130.386 97.0633 133.976 95.2647 133.976 95.2647L135.51 95.9815C135.51 95.9815 131.542 99.01 127.04 97.9721C122.538 96.9341 123.658 93.8203 123.658 93.8203Z" fill="#FFB887"/>
<path d="M123.658 93.8208L125.18 93.7988C125.18 93.7988 124.808 96.0258 127.597 96.5448C130.386 97.0638 133.976 95.2652 133.976 95.2652L135.511 95.9815C135.511 95.9815 131.542 99.01 127.04 97.9721C122.537 96.9341 123.658 93.8208 123.658 93.8208Z" fill="#F0F6FE"/>
<path d="M130.296 56.8097C130.246 56.7306 129.723 55.0407 132.013 53.9913C134.302 52.9424 134.732 53.9332 136.083 53.2803C136.083 53.2803 135.561 55.136 133.638 56.6477C131.714 58.1598 130.489 57.119 130.296 56.8097Z" fill="#FFB887"/>
<path d="M124.85 62.1496C122.056 63.8986 113.584 68.3797 113.128 67.6505C112.672 66.9219 120.404 61.2594 123.198 59.5104C125.992 57.7614 128.626 56.9346 129.082 57.6632C129.538 58.3924 127.643 60.4006 124.85 62.1496Z" fill="#8446FF"/>
<path d="M124.85 62.1496C122.056 63.8986 113.584 68.3797 113.128 67.6505C112.672 66.9219 120.403 61.2594 123.197 59.5104C125.991 57.7614 128.626 56.9346 129.082 57.6632C129.538 58.3924 127.643 60.4006 124.85 62.1496Z" fill="#F0F6FE"/>
<path d="M128.337 58.7965L127.737 57.8381C127.624 57.6575 127.679 57.4192 127.86 57.3063L130.263 55.8018L131.273 57.4144L128.869 58.919C128.689 59.0319 128.45 58.9771 128.337 58.7965Z" fill="#FFB887"/>
<path d="M128.337 58.797L127.737 57.8386C127.624 57.658 127.678 57.4197 127.859 57.3067L130.263 55.8018L131.272 57.4144L128.869 58.9194C128.688 59.0324 128.45 58.9776 128.337 58.797Z" fill="#F0F6FE"/>
<path d="M136.083 53.2803C134.731 53.9332 134.303 52.9424 132.013 53.9913C131.764 54.1057 131.553 54.2286 131.366 54.3549C131.254 54.4993 131.217 54.6442 131.316 54.7738C131.724 55.3033 133.256 54.1138 133.548 54.4865C133.838 54.8591 132.861 55.1641 133.221 55.6469C133.579 56.1282 132.802 56.5867 133.142 56.987C133.302 56.8907 133.466 56.7825 133.638 56.6477C135.561 55.136 136.083 53.2803 136.083 53.2803Z" fill="#8446FF"/>
<path d="M165.161 63.4052C159.176 62.4959 153.977 64.0419 153.549 66.8574C153.306 68.4605 156.947 68.9018 159.264 70.21C161.018 71.1998 161.034 73.21 163.612 73.6017C169.599 74.511 174.797 72.9655 175.225 70.15C175.653 67.334 171.147 64.3145 165.161 63.4052ZM164.157 69.1573C162.776 68.9476 161.725 68.3181 161.811 67.7514C161.897 67.1848 163.087 66.8955 164.469 67.1052C165.85 67.3149 166.9 67.9444 166.814 68.5111C166.728 69.0777 165.538 69.367 164.157 69.1573Z" fill="#8446FF"/>
<path d="M165.161 63.4052C159.176 62.4959 153.977 64.0419 153.549 66.8574C153.306 68.4605 156.947 68.9018 159.264 70.21C161.018 71.1998 161.034 73.21 163.612 73.6017C169.599 74.511 174.797 72.9655 175.225 70.15C175.653 67.334 171.147 64.3145 165.161 63.4052ZM164.157 69.1573C162.776 68.9476 161.725 68.3181 161.811 67.7514C161.897 67.1848 163.087 66.8955 164.469 67.1052C165.85 67.3149 166.9 67.9444 166.814 68.5111C166.728 69.0777 165.538 69.367 164.157 69.1573Z" fill="#FFB887"/>
<path d="M160.776 65.9867C160.776 66.4284 160.012 66.7868 159.068 66.7868C158.125 66.7868 157.36 66.4284 157.36 65.9867C157.36 65.5449 158.125 65.1865 159.068 65.1865C160.012 65.1865 160.776 65.5449 160.776 65.9867Z" fill="#8446FF"/>
<path d="M160.776 65.9867C160.776 66.4284 160.012 66.7868 159.068 66.7868C158.125 66.7868 157.36 66.4284 157.36 65.9867C157.36 65.5449 158.125 65.1865 159.068 65.1865C160.012 65.1865 160.776 65.5449 160.776 65.9867Z" fill="#F0F6FE"/>
<path d="M165.805 64.3545C165.805 64.6947 165.113 64.9707 164.26 64.9707C163.406 64.9707 162.714 64.6947 162.714 64.3545C162.714 64.0142 163.406 63.7383 164.26 63.7383C165.113 63.7383 165.805 64.0142 165.805 64.3545Z" fill="#8446FF"/>
<path d="M165.805 64.3545C165.805 64.6947 165.113 64.9707 164.259 64.9707C163.405 64.9707 162.714 64.6947 162.714 64.3545C162.714 64.0142 163.405 63.7383 164.259 63.7383C165.113 63.7383 165.805 64.0142 165.805 64.3545Z" fill="#F0F6FE"/>
<path d="M171.566 66.5919C171.566 67.0622 170.666 67.4435 169.555 67.4435C168.445 67.4435 167.544 67.0622 167.544 66.5919C167.544 66.1215 168.445 65.7402 169.555 65.7402C170.666 65.7402 171.566 66.1215 171.566 66.5919Z" fill="#8446FF"/>
<path d="M171.566 66.5919C171.566 67.0622 170.665 67.4435 169.555 67.4435C168.444 67.4435 167.544 67.0622 167.544 66.5919C167.544 66.1215 168.444 65.7402 169.555 65.7402C170.665 65.7402 171.566 66.1215 171.566 66.5919Z" fill="#F0F6FE"/>
<path d="M173.231 70.5272C173.231 70.9571 172.407 71.3055 171.393 71.3055C170.378 71.3055 169.555 70.9571 169.555 70.5272C169.555 70.0974 170.378 69.749 171.393 69.749C172.407 69.749 173.231 70.0974 173.231 70.5272Z" fill="#8446FF"/>
<path d="M173.231 70.5272C173.231 70.9571 172.407 71.3055 171.393 71.3055C170.378 71.3055 169.555 70.9571 169.555 70.5272C169.555 70.0974 170.378 69.749 171.393 69.749C172.407 69.749 173.231 70.0974 173.231 70.5272Z" fill="#F0F6FE"/>
<path d="M167.532 71.4137C167.532 71.9032 166.649 72.3002 165.559 72.3002C164.47 72.3002 163.587 71.9032 163.587 71.4137C163.587 70.9243 164.47 70.5273 165.559 70.5273C166.649 70.5273 167.532 70.9243 167.532 71.4137Z" fill="#8446FF"/>
<path d="M167.532 71.4137C167.532 71.9032 166.649 72.3002 165.559 72.3002C164.47 72.3002 163.587 71.9032 163.587 71.4137C163.587 70.9243 164.47 70.5273 165.559 70.5273C166.649 70.5273 167.532 70.9243 167.532 71.4137Z" fill="#F0F6FE"/>
<path d="M156.502 69.7483C156.502 69.7483 158.477 68.1614 159.775 68.1223C160.06 68.1137 160.293 68.3587 160.294 68.6441C160.295 69.0635 160.23 69.6463 159.875 69.7483C159.31 69.9104 158.059 70.7939 158.059 70.7939L156.502 69.7483Z" fill="#FFB887"/>
<path d="M115.282 102.57C115.502 101.608 115.908 99.8546 118.412 101.994C120.916 104.135 120.356 100.9 122.305 101.005C124.255 101.109 121.751 104.969 121.751 104.969C121.751 104.969 124.836 104.656 124.806 106.534C124.776 108.412 120.81 107.678 120.81 107.678C120.81 107.678 118.934 113.212 117.265 111.229C115.595 109.247 118.372 107.056 117.923 105.282C117.473 103.508 114.769 104.817 115.282 102.57Z" fill="#8446FF"/>
<path d="M125.603 121.059C125.832 119.834 124.822 117.094 126.504 116.158C128.187 115.222 128.087 119.487 129.694 118.608C131.301 117.73 131.82 119.371 131.128 121.059C130.436 122.746 129.211 123.006 129.694 124.563C130.176 126.12 128.714 124.736 126.504 123.698C124.295 122.66 125.37 122.314 125.603 121.059Z" fill="#8446FF"/>
<path d="M111.02 196.095C109.853 201.788 110.595 207.404 113.178 212.61C113.288 212.833 113.653 212.697 113.542 212.473C110.992 207.332 110.251 201.785 111.403 196.16C111.454 195.914 111.07 195.85 111.02 196.095Z" fill="#8446FF"/>
<path d="M115.843 190.877C115.7 190.876 115.571 190.852 115.45 190.818C114.344 194.321 114.025 198.008 114.517 201.787C114.549 202.033 114.938 202.024 114.906 201.775C114.417 198.022 114.736 194.357 115.843 190.877Z" fill="#8446FF"/>
<path d="M117.842 185.467C117.324 186.344 116.866 187.24 116.461 188.149C116.588 188.205 116.693 188.284 116.789 188.372C117.196 187.449 117.659 186.543 118.184 185.653C118.311 185.437 117.969 185.252 117.842 185.467Z" fill="#8446FF"/>
<path d="M125.557 85.3464C125.557 85.3464 126.713 85.0986 129.941 85.2782C129.56 86.3991 128.849 87.2793 127.193 87.1873C126.366 87.234 125.636 86.482 125.563 85.5075C125.559 85.4536 125.557 85.3998 125.557 85.3464Z" fill="#FFB887"/>
<path d="M127.961 86.3183C127.325 86.2421 126.693 86.4027 126.154 86.7768C126.46 87.0289 126.82 87.1675 127.187 87.1737C127.822 87.2519 128.453 87.0918 128.99 86.7153C128.687 86.4599 128.327 86.3207 127.961 86.3183Z" fill="#FFB887"/>
<path d="M125.704 85.3247C125.769 85.6126 125.963 85.8408 126.208 85.9171C127.166 85.9647 128.123 85.9199 129.069 85.7822C129.375 85.7646 129.647 85.5687 129.796 85.2594C128.428 85.1574 127.061 85.1789 125.704 85.3247Z" fill="#F0F6FE"/>
<path d="M157.946 103.07L151.053 104.944L151.575 114.896C151.13 114.862 150.612 114.912 150.062 115.062C148.482 115.491 147.24 116.563 147.286 117.457C147.333 118.351 148.652 118.727 150.232 118.298C151.811 117.869 153.053 116.796 153.007 115.903C152.879 113.475 152.518 106.581 152.518 106.581L156.903 105.389L157.946 103.07Z" fill="#8446FF"/>
<path d="M182.642 106.654L178.589 107.756L178.896 113.607C178.635 113.587 178.33 113.616 178.007 113.704C177.078 113.957 176.347 114.587 176.375 115.113C176.402 115.638 177.177 115.86 178.106 115.607C179.035 115.355 179.766 114.724 179.738 114.199C179.663 112.771 179.451 108.719 179.451 108.719L182.028 108.018L182.642 106.654Z" fill="#8446FF"/>
<path d="M115.55 110.607L110.44 111.996L110.827 119.375C110.497 119.349 110.114 119.386 109.705 119.497C108.534 119.816 107.613 120.611 107.647 121.273C107.682 121.936 108.66 122.216 109.831 121.897C111.002 121.579 111.923 120.784 111.888 120.121C111.794 118.322 111.526 113.21 111.526 113.21L114.776 112.326L115.55 110.607Z" fill="#8446FF"/>
<path d="M157.556 117.497L158.181 129.426C157.647 129.385 157.028 129.444 156.368 129.623C154.474 130.138 152.985 131.424 153.041 132.495C153.097 133.567 154.678 134.017 156.571 133.503C158.464 132.988 159.953 131.703 159.897 130.632C159.745 127.722 159.312 119.459 159.312 119.459L167.779 117.158L168.279 126.681C167.746 126.641 167.125 126.701 166.465 126.879C164.572 127.395 163.083 128.68 163.139 129.751C163.195 130.822 164.775 131.273 166.668 130.759C168.562 130.244 170.051 128.959 169.995 127.888C169.842 124.978 169.283 114.311 169.283 114.311L157.556 117.497Z" fill="#8446FF"/>
<path d="M160.161 88.0406L160.472 93.9814C160.207 93.9614 159.898 93.9909 159.57 94.08C158.626 94.3364 157.885 94.9769 157.913 95.5102C157.941 96.0439 158.728 96.2694 159.671 96.013C160.613 95.7566 161.355 95.1166 161.327 94.5828C161.252 93.1336 161.036 89.018 161.036 89.018L165.253 87.8723L165.502 92.6156C165.236 92.5951 164.928 92.6241 164.599 92.7137C163.656 92.9696 162.914 93.6101 162.942 94.1434C162.97 94.6772 163.757 94.9021 164.7 94.6462C165.643 94.3898 166.385 93.7493 166.357 93.2155C166.281 91.7663 166.002 86.4531 166.002 86.4531L160.161 88.0406Z" fill="#8446FF"/>
<path d="M171.466 142.266C172.159 145.866 167.21 149.844 160.413 151.153C153.615 152.463 147.542 150.606 146.849 147.007C146.156 143.408 151.105 139.429 157.903 138.12C164.7 136.811 170.773 138.667 171.466 142.266Z" fill="#8446FF"/>
<path d="M163.72 149.686L159.158 144.636L156.797 151.02C157.925 150.995 159.106 150.874 160.314 150.642C161.521 150.409 162.664 150.083 163.72 149.686Z" fill="#F0F6FE"/>
<path d="M161.518 138.253C160.39 138.278 159.208 138.399 158.001 138.631C156.794 138.864 155.651 139.19 154.595 139.586L159.158 144.637L161.518 138.253Z" fill="#F0F6FE"/>
<path d="M154.999 150.973L159.158 144.636L149.603 149.324C150.232 149.763 151.014 150.139 151.955 150.427C152.896 150.714 153.924 150.892 154.999 150.973Z" fill="#FFB887"/>
<path d="M168.711 139.948C168.084 139.509 167.3 139.133 166.359 138.846C165.419 138.558 164.391 138.38 163.317 138.299L159.157 144.636L168.711 139.948Z" fill="#FFB887"/>
<path d="M162.956 143.905C163.17 145.016 161.642 146.244 159.545 146.648C157.447 147.052 155.573 146.478 155.36 145.368C155.145 144.257 156.673 143.03 158.771 142.625C160.868 142.222 162.742 142.795 162.956 143.905Z" fill="#8446FF"/>
<path d="M162.956 143.905C163.17 145.016 161.642 146.243 159.545 146.648C157.447 147.052 155.573 146.478 155.359 145.368C155.145 144.257 156.673 143.03 158.771 142.625C160.868 142.222 162.742 142.795 162.956 143.905Z" fill="#FFB887"/>
<path d="M159.883 144.496C159.924 144.708 159.632 144.943 159.231 145.02C158.831 145.098 158.473 144.988 158.432 144.776C158.391 144.564 158.683 144.329 159.084 144.252C159.484 144.175 159.842 144.284 159.883 144.496Z" fill="#F0F6FE"/>
<path d="M191.638 130.686C190.998 132.71 187.38 133.37 183.558 132.16C179.735 130.951 177.155 128.329 177.796 126.306C178.436 124.282 182.055 123.622 185.877 124.832C189.699 126.041 192.279 128.663 191.638 130.686Z" fill="#8446FF"/>
<path d="M185.647 132.326L184.717 128.496L181.753 131.094C182.335 131.393 182.97 131.658 183.649 131.872C184.327 132.087 185 132.236 185.647 132.326Z" fill="#F0F6FE"/>
<path d="M187.681 125.897C187.1 125.598 186.464 125.334 185.785 125.119C185.107 124.904 184.434 124.755 183.788 124.665L184.717 128.496L187.681 125.897Z" fill="#F0F6FE"/>
<path d="M180.851 130.575L184.718 128.496L178.558 128.246C178.757 128.643 179.053 129.051 179.452 129.457C179.852 129.863 180.326 130.237 180.851 130.575Z" fill="#FFB887"/>
<path d="M190.875 128.745C190.676 128.348 190.382 127.942 189.982 127.535C189.582 127.129 189.108 126.754 188.583 126.417L184.717 128.496L190.875 128.745Z" fill="#FFB887"/>
<path d="M186.853 129.172C186.655 129.796 185.539 129.999 184.36 129.626C183.18 129.253 182.384 128.444 182.581 127.82C182.779 127.196 183.895 126.992 185.075 127.365C186.254 127.739 187.05 128.547 186.853 129.172Z" fill="#8446FF"/>
<path d="M186.853 129.172C186.655 129.797 185.539 130 184.36 129.627C183.18 129.254 182.384 128.445 182.581 127.82C182.779 127.196 183.895 126.992 185.075 127.365C186.254 127.739 187.05 128.547 186.853 129.172Z" fill="#FFB887"/>
<path d="M185.125 128.625C185.087 128.744 184.874 128.783 184.649 128.711C184.424 128.64 184.271 128.486 184.309 128.367C184.347 128.248 184.56 128.209 184.785 128.28C185.011 128.351 185.163 128.505 185.125 128.625Z" fill="#F0F6FE"/>
</g>
</g>
<defs>
<clipPath id="clip0_1624_1707">
<rect width="244" height="244" fill="white"/>
</clipPath>
</defs>
</svg>
