<svg width="255" height="255" viewBox="0 0 255 255" fill="none" xmlns="http://www.w3.org/2000/svg">
<g opacity="0.2" clip-path="url(#clip0_1629_2420)">
<mask id="mask0_1629_2420" style="mask-type:luminance" maskUnits="userSpaceOnUse" x="0" y="0" width="255" height="255">
<path d="M255 0H0V255H255V0Z" fill="white"/>
</mask>
<g mask="url(#mask0_1629_2420)">
<mask id="mask1_1629_2420" style="mask-type:luminance" maskUnits="userSpaceOnUse" x="21" y="55" width="215" height="169">
<path d="M21.896 55.6091H235.37V223.838H21.896V55.6091Z" fill="white"/>
</mask>
<g mask="url(#mask1_1629_2420)">
<g opacity="0.18">
<path d="M153.009 78.4296C146.822 81.3935 141.841 86.3285 136.324 90.4047C125.392 98.4772 112.062 103.235 98.4886 103.904C92.5946 104.194 86.7056 103.734 80.8144 103.273C75.9013 102.889 70.9865 102.505 66.0662 102.557C55.2456 102.67 43.7245 105.316 36.4087 113.292C31.1523 119.024 28.6935 126.905 28.2244 134.684C27.0919 153.451 36.9162 171.725 50.9266 184.262C64.937 196.799 82.7314 204.28 100.714 209.666C118.07 214.865 136.633 218.312 154.209 214.019C182.569 207.094 218.617 174.371 228.181 140.79C232.844 124.394 231.199 107.795 219.26 93.893C208.583 81.464 191.761 75.7738 175.433 74.9266C174.108 74.8578 172.774 74.8189 171.439 74.8188C165.086 74.8188 158.707 75.6997 153.009 78.4296Z" fill="#FFB887"/>
</g>
<mask id="mask2_1629_2420" style="mask-type:alpha" maskUnits="userSpaceOnUse" x="28" y="74" width="203" height="142">
<path d="M228.181 140.79C232.844 124.394 231.199 107.795 219.26 93.8929C208.583 81.4638 191.761 75.7735 175.434 74.9264C167.798 74.5301 159.904 75.1262 153.009 78.4294C146.822 81.3933 141.841 86.3283 136.324 90.4045C125.392 98.477 112.062 103.235 98.4886 103.904C87.6794 104.437 76.8867 102.443 66.0662 102.557C55.2457 102.669 43.7245 105.316 36.4088 113.292C31.1523 119.023 28.6935 126.905 28.2243 134.684C27.092 153.451 36.9163 171.725 50.9266 184.262C64.937 196.798 82.7314 204.28 100.714 209.666C118.07 214.865 136.633 218.312 154.209 214.019C182.569 207.094 218.617 174.371 228.181 140.79Z" fill="#9C73F8"/>
</mask>
<g mask="url(#mask2_1629_2420)">
<path d="M286.668 158.998L223.077 163.863L223.053 163.544L230.423 162.981L230.404 162.722L230.345 162.648L230.335 162.519L230.44 162.511L230.434 162.434L230.375 162.36L230.366 162.23L230.281 162.159L230.261 161.9L230.157 161.908L230.064 160.692L230.014 160.722L230.01 160.671L229.957 160.674L229.932 160.338L229.879 160.342L229.87 160.213L229.765 160.221L229.74 159.885L229.836 159.773L229.808 159.411L229.88 159.328L229.841 158.811L229.763 158.816L229.759 158.764L229.781 158.71L229.68 157.391L229.785 157.383L229.769 157.177L229.873 157.169L229.855 156.936L229.908 156.932L229.894 156.751L229.841 156.755L229.822 156.496L229.77 156.5L229.765 156.448L229.687 156.454L229.679 156.351L229.601 156.357L229.595 156.279L229.464 156.289L229.456 156.186L229.325 156.196L229.302 155.885L229.432 155.875L229.423 155.746L229.501 155.74L229.491 155.611L229.386 155.619L229.381 155.541L229.459 155.535L229.447 155.38L229.343 155.388L229.337 155.31L229.232 155.318L229.179 154.62L229.257 154.614L229.238 154.355L229.159 154.361L229.141 154.128L229.089 154.132L229.081 154.029L229.003 154.035L228.997 153.958L229.049 153.953L229.043 153.876L228.965 153.881L228.959 153.804L228.88 153.81L228.859 153.525L228.806 153.53L228.778 153.168L228.726 153.171L228.712 152.991L228.66 152.994L228.548 152.899L228.53 152.666L228.478 152.67L228.472 152.592L228.288 152.606L228.285 152.555L228.233 152.559L228.212 152.3L228.291 152.294L228.283 152.19L228.204 152.197L228.193 152.042L228.114 152.048L228.087 151.686L228.135 151.63L228.113 151.345L228.061 151.349L228.057 151.298L228.005 151.301L227.979 150.965L227.9 150.971L227.878 150.687L227.853 150.689L227.847 150.611L227.716 150.621L227.698 150.389L227.62 150.394L227.61 150.264L227.479 150.275L227.455 149.964L227.351 149.972L227.347 149.921L227.268 149.926L227.265 149.875L227.186 149.881L227.178 149.778L227.257 149.771L227.252 149.72L227.305 149.716L227.293 149.561L227.214 149.567L227.211 149.515L227.08 149.525L227.056 149.214L227.105 149.159L227.089 148.951L227.063 148.954L227.035 148.592L226.957 148.597L226.941 148.391L226.862 148.396L226.806 148.349L226.702 148.357L226.723 148.642L226.645 148.648L226.635 148.518L226.609 148.52L226.601 148.417L226.549 148.421L226.542 148.343L226.49 148.347L226.439 147.675L226.361 147.681L226.343 147.448L226.264 147.454L226.24 147.143L226.136 147.151L226.128 147.048L226.1 147.024L226.08 146.765L226.052 146.741L226.042 146.612L225.964 146.618L225.954 146.489L225.901 146.493L225.898 146.441L225.845 146.445L225.831 146.264L225.753 146.27L225.747 146.192L225.643 146.201L225.582 145.398L225.32 145.419L225.33 145.548L225.278 145.552L225.329 146.224L225.25 146.231L225.263 146.386L225.21 146.39L225.222 146.545L225.118 146.553L225.126 146.656L225.073 146.66L225.103 147.049L224.998 147.057L225.024 147.392L224.894 147.403L224.911 147.636L224.839 147.719L224.852 147.9L224.804 147.955L224.833 148.344L224.729 148.352L224.724 148.274L224.645 148.28L224.675 148.668L224.596 148.674L224.614 148.907L224.536 148.913L224.528 148.81L224.449 148.815L224.465 149.022L224.416 149.078L224.429 149.233L224.377 149.237L224.426 149.884L224.269 149.896L224.287 150.129L224.235 150.133L224.243 150.236L224.164 150.242L224.168 150.294L224.09 150.3L224.115 150.636L223.854 150.656L223.901 151.277L224.058 151.265L224.094 151.731L223.99 151.739L224.006 151.946L223.848 151.957L223.866 152.19L223.971 152.182L223.992 152.467L223.757 152.485L223.777 152.744L223.516 152.763L223.535 153.023L223.222 153.046L223.232 153.176L223.075 153.187L223.096 153.472L223.09 153.395L222.993 153.506L222.987 153.428L222.778 153.444L222.785 153.522L222.732 153.526L222.754 153.811L222.676 153.817L222.677 153.842L222.73 153.838L222.736 153.916L222.684 153.92L222.692 154.023L222.744 154.02L222.754 154.149L222.597 154.16L222.605 154.264L222.526 154.27L222.595 155.176L222.543 155.18L222.563 155.438L222.433 155.448L221.501 143.265L221.463 142.071L219.972 142.185L219.915 141.435L219.027 141.503L218.952 140.52L218.194 140.578L218.122 139.647L217.364 139.705L217.308 138.98L213.989 139.234L213.888 137.915L213.835 137.919V137.919L208.529 138.325L208.63 139.644L205.991 139.846L206.046 140.571L205.288 140.629L205.36 141.56L204.575 141.62L204.65 142.603L203.761 142.671L203.819 143.421L202.354 143.533L200.978 127.585L201.065 128.782L200.784 125.517L200.794 125.518L199.688 112.775C199.688 112.775 199.687 112.775 199.687 112.774L199.685 112.75C199.685 112.75 199.614 112.521 199.566 112.577C199.518 112.632 199.247 112.523 199.269 112.808C199.29 113.092 199.503 115.886 199.503 115.886L199.242 115.906L199.28 116.397L199.071 116.413C199.071 116.413 198.987 119.099 195.643 121.437C192.301 123.8 190.487 125.526 190.689 128.164C190.734 128.753 190.901 130.939 191.134 133.984L189.514 134.108L190.743 150.171L185.647 150.561L186.876 166.633L146.466 169.724C146.453 169.547 146.401 168.869 146.378 168.578C146.353 168.241 145.911 167.963 145.911 167.963L144.868 167.392L144.825 166.823L145.399 166.779L145.332 165.899L144.757 165.943L144.461 162.064L145.01 162.022L144.942 161.142L142.799 161.306L142.704 160.064L141.894 160.126C142.036 158.893 140.926 158.821 140.926 158.821L140.874 158.826C140.76 158.823 140.645 158.821 140.529 158.82C140.809 158.818 140.954 158.819 140.954 158.819C141.154 157.998 140.084 157.768 140.084 157.768L139.98 157.775C139.518 157.753 139.029 157.743 138.523 157.744C139.542 157.736 140.057 157.769 140.057 157.769C140.415 157.299 140.082 157.064 140.082 157.064C139.987 157.061 139.892 157.057 139.797 157.054C139.822 157.054 139.846 157.054 139.871 157.055L140.082 157.064C140.396 156 139.578 155.62 138.189 154.66C136.8 153.673 136.856 152.004 136.591 150.255C136.385 148.898 135.423 148.413 135.002 148.264C135.008 148.265 135.014 148.267 135.019 148.268L134.912 146.871L133.368 146.989L132.74 142.9C132.74 142.9 132.694 142.644 132.405 142.64L132.326 142.646C132.041 142.694 132.034 142.954 132.034 142.954L132.036 147.091L130.599 147.201L130.699 148.495C130.699 148.495 130.758 148.479 130.866 148.454C130.693 148.498 130.596 148.528 130.596 148.528C130.596 148.528 129.163 149.054 129.141 150.825C129.146 152.594 129.429 154.237 128.231 155.422C127.962 155.676 127.717 155.899 127.501 156.102L123.164 156.434C123.159 156.425 123.154 156.417 123.148 156.409L127.387 156.084L127.355 155.671L122.742 156.024C122.742 156.024 122.742 156.024 122.742 156.024L127.121 155.689C127.169 155.295 126.799 155.271 126.799 155.271L126.773 155.273C126.723 155.272 126.673 155.271 126.622 155.271C126.739 155.27 126.799 155.271 126.799 155.271C126.858 155.006 126.511 154.929 126.511 154.929L126.484 154.931C124.874 154.846 122.25 155.255 122.25 155.255C122.25 155.255 122.032 155.34 122.002 155.507C121.174 154.894 121.198 153.89 121.037 152.798C121.007 152.6 120.951 152.432 120.88 152.29L120.893 152.289C120.888 152.288 120.884 152.288 120.879 152.287C120.654 151.837 120.275 151.644 120.074 151.57L120.007 150.691L118.896 150.776L119.067 150.763L118.664 148.244C118.664 148.244 118.626 148.091 118.441 148.079L118.389 148.083C118.208 148.123 118.22 148.279 118.22 148.279L118.205 150.829L117.341 150.895L117.402 151.697C117.391 151.698 117.677 151.623 118.094 151.56C117.628 151.635 117.327 151.729 117.327 151.729C117.327 151.729 116.804 151.922 116.56 152.5C116.53 152.267 116.5 152.032 116.464 151.794C116.256 150.428 115.282 149.946 114.866 149.801L114.759 148.413L110.446 148.743L110.546 150.036C110.546 150.036 110.687 149.999 110.924 149.948C110.636 150.016 110.469 150.068 110.469 150.068C110.469 150.068 110.438 150.08 110.386 150.104C110.197 149.888 109.976 149.777 109.838 149.725L109.777 148.924L108.915 148.99L108.556 146.702C108.556 146.702 108.52 146.574 108.361 146.561L108.309 146.564C108.126 146.578 108.138 146.733 108.138 146.733L108.131 149.05L108.373 149.031L107.346 149.11L107.402 149.834C107.402 149.84 107.469 149.826 107.584 149.803C107.436 149.838 107.352 149.864 107.352 149.864C107.352 149.864 107.294 149.886 107.211 149.934C107.012 149.797 106.795 149.649 106.56 149.483C105.198 148.519 105.227 146.826 104.961 145.078C104.754 143.71 103.778 143.228 103.362 143.083L103.256 141.696L98.9435 142.025L99.0424 143.319C99.0424 143.319 99.1762 143.284 99.4021 143.236C99.1257 143.301 98.9663 143.351 98.9663 143.351C98.9663 143.351 98.4044 143.557 97.979 144.147L97.913 143.671L97.9501 144.188C97.71 144.537 97.5199 145.011 97.512 145.647C97.5155 147.256 97.75 148.761 96.8909 149.912L96.8907 149.909L96.0543 149.973L95.6954 147.685C95.6954 147.685 95.6593 147.559 95.5006 147.544L95.4483 147.548C95.2654 147.562 95.2772 147.718 95.2772 147.718L95.2704 150.033L94.4599 150.095L94.5153 150.82C94.5157 150.826 94.589 150.81 94.7131 150.785C94.5559 150.822 94.4651 150.85 94.4651 150.85C94.4651 150.85 93.8011 151.093 93.668 151.866C93.3997 151.654 93.1335 151.536 92.9623 151.477L92.8561 150.088L90.4963 150.269L91.3133 150.206L90.6851 146.117C90.6851 146.117 90.6391 145.861 90.3496 145.857L90.2712 145.863C89.9857 145.911 89.9793 146.171 89.9793 146.171L89.9803 150.308L88.5433 150.419L88.6423 151.711C88.6423 151.711 88.7786 151.676 89.0084 151.627C88.7279 151.692 88.5657 151.743 88.5657 151.743C88.5657 151.743 87.1336 152.269 87.1113 154.04C87.1128 154.728 87.1563 155.397 87.1389 156.028C87.1136 155.822 87.0892 155.612 87.0575 155.397C86.9299 154.544 86.3203 154.247 86.0696 154.16L86.0032 153.293L83.3372 153.496L83.3985 154.299C83.3985 154.299 83.745 154.208 84.229 154.142C84.0729 154.164 83.9324 154.19 83.8119 154.215C83.5226 154.274 83.3476 154.329 83.3476 154.329C83.3476 154.329 82.7523 154.547 82.5353 155.221C82.5279 155.222 82.5228 155.224 82.5228 155.224L82.5346 155.223C82.486 155.375 82.4563 155.549 82.4572 155.75C82.4617 156.792 82.6286 157.774 81.9844 158.5C81.9008 158.391 81.7362 158.354 81.7362 158.354L81.7101 158.356C80.0999 158.271 77.4758 158.68 77.4758 158.68C77.4758 158.68 77.1439 158.81 77.2421 159.062L77.2689 159.06H77.2685C77.2685 159.06 76.9066 159.14 77.0148 159.522L81.2694 159.196C81.2694 159.196 81.2694 159.196 81.2693 159.196L76.7533 159.542L76.785 159.955L80.9372 159.638C80.9333 159.647 80.9292 159.656 80.9256 159.665L76.6231 159.994C76.3797 159.826 76.1031 159.643 75.7992 159.433C74.4091 158.447 74.4655 156.777 74.2002 155.028C73.9927 153.66 73.0162 153.178 72.6011 153.034L72.4948 151.646L70.9524 151.764L70.3242 147.676C70.3242 147.676 70.2782 147.419 69.9888 147.414L69.9104 147.421C69.6248 147.468 69.6185 147.73 69.6185 147.73L69.6195 151.866L68.182 151.976L68.2811 153.27C68.2811 153.27 68.407 153.237 68.6215 153.19C68.3573 153.253 68.2053 153.301 68.2053 153.301C68.2053 153.301 66.7732 153.827 66.751 155.597C66.7548 157.366 67.0382 159.01 65.8407 160.195C64.6149 161.355 63.8645 161.855 64.3356 162.859C64.3355 162.859 64.3349 162.86 64.3349 162.86C64.2661 163.332 64.5701 163.543 64.5712 163.544C64.5711 163.544 64.5708 163.544 64.5708 163.544C64.5708 163.544 63.549 163.934 63.8717 164.716L63.8742 164.716C63.8739 164.716 63.8728 164.716 63.8728 164.716C63.8728 164.716 62.7872 164.955 63.115 166.153L62.3566 166.211L62.4516 167.452L61.2488 167.544L61.3161 168.424L61.865 168.382L62.1618 172.262L61.5868 172.306L61.6541 173.185L62.2291 173.142L62.2727 173.71L61.3289 174.434C61.3289 174.434 60.9344 174.775 60.9601 175.112C60.9619 175.135 60.9639 175.162 60.9661 175.19L60.3091 174.85L60.2813 174.488L60.6473 174.459L60.6058 173.917L60.2398 173.944L60.0558 171.538L60.3956 171.513L60.354 170.969L32.2298 173.121L32.2714 173.664L32.6111 173.639L32.7952 176.043L32.4292 176.072L32.4708 176.615L32.8367 176.587L32.8644 176.949L32.2668 177.385C32.2668 177.385 32.0193 177.586 32.0351 177.793C32.0482 177.964 32.0774 178.346 32.0871 178.474L-32.7255 183.432L-8.27725 286.119L311.116 261.685L286.668 158.998ZM222.706 156.963L222.707 156.963L222.706 156.966L222.706 156.963ZM222.714 157.066H222.714L222.728 157.247L222.714 157.066ZM222.77 157.451L222.782 157.607L222.769 157.451L222.901 157.442L222.77 157.451ZM222.874 157.782L222.87 157.73H222.87L222.874 157.782ZM222.88 158.9L222.867 158.719L222.945 158.713L222.935 158.584L223.04 158.576L222.979 157.774L223.04 158.576L222.936 158.584L222.946 158.713L222.867 158.719L222.881 158.9L222.75 158.911L222.88 158.9ZM223.209 154.947L223.21 154.947L223.223 155.127L223.093 155.138L223.102 155.267L223.092 155.138L223.223 155.127L223.209 154.947ZM223.251 153.772L223.25 153.773L223.227 153.462L223.251 153.772ZM223.149 154.17L223.133 153.964L223.239 153.956L223.134 153.964L223.15 154.17L223.078 154.254L223.131 154.953L223.077 154.254L223.149 154.17ZM222.827 155.444L222.826 155.444L222.815 155.289L222.827 155.444ZM222.737 156.336L222.723 156.154L223.089 156.127L223.035 155.428H223.036L223.089 156.127L222.724 156.154L222.738 156.336L222.528 156.352L222.737 156.336ZM222.515 155.832L222.538 156.143L222.486 156.146L222.463 155.836L222.515 155.832ZM202.472 144.721L202.598 146.362L202.416 144.259L202.472 144.721ZM72.2155 158.641L72.3831 158.081L72.7403 158.626L72.6329 159.284L72.2155 158.641ZM73.6329 158.61L73.6698 158.061L74.0028 158.634L74.0443 159.177L73.6329 158.61ZM82.915 157.952L83.0702 157.575L83.1482 157.908L82.9668 158.286L82.915 157.952ZM83.7213 157.838L83.9027 157.46L84.0591 157.786L83.8555 158.218L83.7213 157.838ZM84.7106 157.71C84.7086 157.684 84.89 157.306 84.89 157.306L85.181 157.675L84.9735 158.054C84.9735 158.054 84.7126 157.737 84.7106 157.71ZM85.8103 157.652L85.9153 157.306L86.1521 157.652L86.0822 158.022L86.0605 158.023L85.8103 157.652ZM86.703 157.636L86.7296 157.296L86.8899 157.561C86.8642 157.631 86.8359 157.701 86.805 157.769L86.703 157.636ZM89.1539 157.37L89.424 156.778L89.6747 157.305L89.486 157.761L89.3027 157.775L89.1539 157.37ZM90.0684 155.921L90.2863 155.333L90.6957 155.874C90.6957 155.874 90.3813 156.574 90.3249 156.526C90.2708 156.504 90.0684 155.921 90.0684 155.921ZM90.7705 157.195C90.7665 157.143 91.0347 156.524 91.0347 156.524L91.5023 157.139L91.2719 157.625L91.1023 157.638C90.9741 157.488 90.7745 157.247 90.7705 157.195ZM92.7256 156.583L92.7259 156.582C92.7429 156.58 92.7602 156.577 92.7771 156.575L92.778 156.576C92.7598 156.579 92.7423 156.581 92.7256 156.583ZM94.8825 153.869L94.9703 153.673L95.0172 153.765C94.9727 153.795 94.927 153.83 94.8825 153.869ZM101.035 152.897C99.9509 153.001 98.9348 153.117 98.0686 153.223C98.0685 153.222 98.0681 153.221 98.0678 153.22C99.1381 153.088 100.127 152.982 101.035 152.897ZM99.5565 149.004L99.8528 148.409L100.103 148.935L99.7889 149.636L99.5565 149.004ZM100.471 147.554L100.689 146.965L101.098 147.506C101.096 147.481 100.782 148.181 100.728 148.159C100.673 148.138 100.471 147.554 100.471 147.554ZM100.108 154.163C99.6406 154.209 99.1889 154.255 98.7591 154.301C98.7573 154.299 98.7556 154.298 98.7539 154.297C99.2195 154.249 99.6709 154.204 100.108 154.163ZM98.0976 148.49L98.0018 147.925L98.1844 147.455L98.2305 148.097L98.0976 148.49ZM101.199 148.826C101.195 148.773 101.463 148.155 101.463 148.155L101.931 148.77L101.637 149.391C101.637 149.391 101.205 148.904 101.199 148.826ZM102.979 148.716L103.146 148.156L103.529 148.699L103.396 149.36L102.979 148.716ZM104.396 148.685L104.433 148.136L104.766 148.709L104.807 149.253L104.396 148.685ZM108.697 152.669C108.722 152.611 108.741 152.568 108.741 152.568L108.891 152.763C108.824 152.725 108.757 152.693 108.697 152.669ZM108.921 152.164L109.05 151.935C109.032 152.053 109.021 152.177 109.017 152.308C108.965 152.232 108.921 152.164 108.921 152.164ZM112.376 154.642C112.37 154.652 112.364 154.663 112.358 154.674C112.272 154.671 112.188 154.669 112.103 154.667C112.099 154.657 112.095 154.648 112.092 154.638C112.185 154.639 112.281 154.64 112.376 154.642ZM112.151 153.692L112.163 153.659L112.233 153.751C112.207 153.732 112.179 153.712 112.151 153.692ZM112.818 155.131C112.88 154.983 112.938 154.848 112.938 154.848L113.406 155.463L113.301 155.683C113.233 155.665 113.184 155.662 113.184 155.662L113.159 155.664C113.223 155.365 112.985 155.205 112.818 155.131ZM114.479 155.407L114.647 154.847L115.03 155.391L114.945 155.814L114.752 155.829L114.479 155.407ZM115.896 155.377L115.933 154.827L116.266 155.4L116.268 155.42C116.228 155.513 116.181 155.603 116.124 155.691L115.896 155.377ZM116.848 154.269L116.861 154.237L116.889 154.419C116.875 154.369 116.861 154.319 116.848 154.269ZM117.726 155.237L117.908 154.859L118.065 155.185L117.874 155.59L117.852 155.592L117.726 155.237ZM118.716 155.109C118.714 155.083 118.895 154.705 118.895 154.705L119.186 155.073L118.978 155.453C118.978 155.453 118.718 155.135 118.716 155.109ZM119.816 155.051L119.92 154.705L120.158 155.051L120.087 155.421L120.066 155.422L119.816 155.051ZM120.708 155.034L120.735 154.694L120.946 155.042L120.969 155.353L120.953 155.354L120.708 155.034ZM129.937 154.354L130.179 153.738L130.299 154.275L130.004 154.896L129.937 154.354ZM134.606 153.867L134.773 153.308L135.131 153.853L135.023 154.512L134.606 153.867ZM136.049 153.835L136.086 153.286L136.419 153.858L136.461 154.402L136.049 153.835ZM136.971 153.504C137.022 153.838 137.333 154.465 137.333 154.465C136.829 154.061 136.971 153.504 136.971 153.504ZM136.58 151.843L136.48 151.564L136.477 151.175C136.477 151.175 136.583 151.531 136.58 151.843ZM136.557 152.573L136.549 153.147L136.302 152.671L136.285 152.1L136.557 152.573ZM136.255 150.671L135.941 150.357L135.825 149.871C135.827 149.897 136.132 150.108 136.255 150.671ZM135.599 150.695L135.91 151.322L135.816 151.823L135.512 151.274L135.599 150.695ZM135.549 152.443L135.509 153.304L135.019 152.405L135.219 151.921L135.549 152.443ZM134.758 149.667L135.087 150.188L134.887 150.672L134.506 150.155L134.758 149.667ZM134.449 150.783L134.748 151.254L134.472 151.77L134.171 151.273L134.449 150.783ZM133.429 152.578L133.752 151.981L134.057 152.53C134.061 152.582 133.947 153.163 133.897 153.193C133.847 153.223 133.429 152.578 133.429 152.578ZM133.559 153.921L133.265 154.542C133.265 154.542 132.832 154.055 132.826 153.977C132.823 153.926 133.091 153.307 133.091 153.307L133.559 153.921ZM133.505 149.788L133.752 150.264C133.752 150.264 133.576 150.72 133.552 150.748C133.528 150.775 133.197 150.228 133.197 150.228L133.505 149.788ZM132.917 151.03L133.268 151.498L133.041 151.957C133.041 151.957 132.723 151.592 132.719 151.54C132.715 151.488 132.917 151.03 132.917 151.03ZM132.725 152.658C132.752 152.656 132.411 153.359 132.355 153.311C132.3 153.289 132.098 152.706 132.098 152.706L132.316 152.117L132.725 152.658ZM132.224 149.886L132.624 150.298C132.624 150.298 132.38 150.89 132.352 150.866C132.324 150.842 132.081 150.418 132.081 150.418L132.224 149.886ZM134.407 157.924C133.221 158.015 132.061 158.129 131.023 158.245L131.022 158.24C132.281 158.1 133.409 157.998 134.407 157.924ZM131.21 154.153L131.506 153.558L131.757 154.085L131.442 154.786L131.21 154.153ZM131.82 151.478L131.599 152.016L131.248 151.548L131.472 151.037L131.82 151.478ZM130.968 149.956L131.265 150.403L130.993 150.969L130.722 150.522L130.968 149.956ZM130.831 152.282L131.102 152.73L130.78 153.692L130.584 152.848L130.831 152.282ZM130.295 151.127L130.469 151.686L130.251 152.275L130.083 151.794L130.295 151.127ZM129.946 150.347L129.905 150.844L129.643 151.203C129.677 150.602 129.946 150.347 129.946 150.347ZM129.829 152.593L129.898 153.161L129.727 153.668L129.631 153.103L129.829 152.593ZM129.498 151.709L129.554 152.095L129.497 152.385C129.448 152.076 129.498 151.709 129.498 151.709ZM129.364 154.086C129.364 154.086 129.589 154.615 129.152 155.091C129.152 155.091 129.364 154.424 129.364 154.086ZM121.5 155.417C121.5 155.417 121.5 155.417 121.5 155.417V155.416L121.5 155.417ZM121.27 154.809C121.298 154.95 121.396 155.183 121.455 155.316L121.405 155.32C121.209 155.076 121.27 154.809 121.27 154.809ZM120.976 153.375C120.976 153.375 121.046 153.603 121.033 153.787L120.967 153.61L120.976 153.375ZM121.041 154.229L121.017 154.595L120.862 154.294L120.861 153.93L121.041 154.229ZM120.847 153.073L120.648 152.88L120.572 152.574C120.572 152.574 120.768 152.714 120.847 153.073ZM120.427 153.078L120.614 153.455L120.559 153.771L120.376 153.447L120.427 153.078ZM120.406 154.173L120.367 154.696L120.062 154.147L120.197 153.85L120.406 154.173ZM119.905 152.443L120.114 152.764L120.005 153.059L119.77 152.738L119.905 152.443ZM119.696 153.135L119.876 153.433L119.717 153.757L119.534 153.433L119.696 153.135ZM119.464 154.245C119.464 154.245 119.414 154.614 119.362 154.617C119.338 154.646 119.07 154.249 119.07 154.249L119.28 153.895L119.464 154.245ZM119.121 152.502L119.276 152.803C119.276 152.803 119.167 153.097 119.14 153.099C119.117 153.127 118.931 152.776 118.931 152.776L119.121 152.502ZM118.788 153.309L118.993 153.579L118.856 153.85C118.856 153.85 118.655 153.631 118.653 153.604C118.652 153.579 118.788 153.309 118.788 153.309ZM118.651 154.255C118.653 154.282 118.449 154.713 118.421 154.689C118.393 154.665 118.26 154.311 118.26 154.311L118.39 153.937L118.651 154.255ZM118.337 152.562L118.592 152.803L118.435 153.153C118.406 153.129 118.256 152.881 118.256 152.881L118.337 152.562ZM117.865 153.275L118.071 153.545L117.939 153.894L117.733 153.597L117.865 153.275ZM117.553 152.622L117.732 152.895L117.548 153.247L117.395 152.972L117.553 152.622ZM117.478 154.059L117.657 154.331L117.44 154.92L117.322 154.409L117.478 154.059ZM117.136 153.356L117.242 153.712L117.111 154.061L117.008 153.757L117.136 153.356ZM117.004 155.618L116.985 155.658L116.968 155.659L116.935 155.444C116.957 155.503 116.981 155.562 117.004 155.618ZM116.914 152.853L116.884 153.168L116.718 153.388C116.768 153.021 116.914 152.853 116.914 152.853ZM116.427 153.385L116.327 153.106L116.324 152.716C116.324 152.716 116.43 153.072 116.427 153.385ZM116.404 154.115L116.396 154.688L116.149 154.213L116.132 153.641L116.404 154.115ZM116.102 152.212L115.788 151.898L115.672 151.413C115.701 151.437 115.979 151.649 116.102 152.212ZM115.446 152.237L115.757 152.863L115.663 153.365L115.359 152.816L115.446 152.237ZM115.396 153.984L115.356 154.846L114.867 153.946L115.067 153.463L115.396 153.984ZM114.631 151.207L114.96 151.727L114.76 152.212L114.405 151.692L114.631 151.207ZM114.296 152.325L114.595 152.796L114.318 153.312L114.018 152.814L114.296 152.325ZM113.744 154.735C113.694 154.764 113.276 154.12 113.276 154.12L113.599 153.523L113.904 154.072C113.908 154.124 113.794 154.705 113.744 154.735ZM113.352 151.331L113.599 151.806C113.599 151.806 113.423 152.261 113.399 152.289C113.375 152.317 113.044 151.77 113.044 151.77L113.352 151.331ZM112.764 152.572L113.115 153.039L112.888 153.499C112.888 153.499 112.57 153.133 112.566 153.082C112.562 153.03 112.764 152.572 112.764 152.572ZM112.098 151.426L112.497 151.838C112.497 151.838 112.254 152.429 112.225 152.406C112.197 152.382 111.954 151.957 111.954 151.957L112.098 151.426ZM111.319 152.579L111.667 153.02L111.563 153.273C111.408 153.156 111.286 153.021 111.19 152.871L111.319 152.579ZM110.815 151.499L111.112 151.944L110.939 152.275C110.876 152.038 110.838 151.784 110.804 151.522L110.815 151.499ZM110.703 151.732C110.703 151.735 110.703 151.738 110.702 151.741L110.701 151.737L110.703 151.732ZM110.583 151.981L110.682 152.159L110.681 152.293L110.544 152.067L110.544 152.064L110.583 151.981ZM110.838 154.647L110.834 154.66C110.726 154.662 110.619 154.664 110.513 154.667L110.511 154.655C110.618 154.652 110.728 154.65 110.838 154.647ZM109.689 150.518L109.725 150.578C109.674 150.629 109.624 150.684 109.574 150.744L109.689 150.518ZM108.983 150.572L109.11 150.848L108.999 151.117C108.972 151.119 108.792 150.821 108.792 150.821L108.983 150.572ZM108.645 151.3L108.847 151.545L108.708 151.79C108.708 151.79 108.536 151.594 108.534 151.569C108.532 151.543 108.645 151.3 108.645 151.3ZM108.251 150.628L108.478 150.844C108.478 150.844 108.445 150.926 108.408 151.007C108.36 150.913 108.297 150.824 108.22 150.737L108.251 150.628ZM105.315 148.329C105.367 148.663 105.678 149.29 105.678 149.29C105.174 148.886 105.315 148.329 105.315 148.329ZM104.953 146.691L104.853 146.413L104.85 146.069C104.869 146.179 104.935 146.456 104.953 146.691ZM104.928 147.396L104.919 147.969L104.673 147.493L104.655 146.922L104.928 147.396ZM104.627 145.52L104.314 145.205L104.198 144.719C104.198 144.719 104.477 144.933 104.627 145.52ZM103.972 145.544L104.282 146.17L104.189 146.671L103.884 146.123L103.972 145.544ZM103.919 147.265L103.88 148.126L103.391 147.227L103.59 146.743L103.919 147.265ZM103.13 144.515L103.459 145.036L103.26 145.52L102.905 145.001L103.13 144.515ZM102.793 145.607L103.092 146.079L102.816 146.594L102.515 146.097L102.793 145.607ZM102.403 147.381C102.431 147.405 102.318 147.986 102.244 148.043C102.193 148.073 101.776 147.428 101.776 147.428L102.098 146.832L102.403 147.381ZM101.85 144.613L102.096 145.088C102.096 145.088 101.921 145.544 101.897 145.572C101.873 145.6 101.542 145.053 101.542 145.053L101.85 144.613ZM101.287 145.852L101.639 146.32L101.411 146.78C101.411 146.78 101.094 146.414 101.09 146.363C101.086 146.31 101.287 145.852 101.287 145.852ZM100.595 144.709L100.995 145.121C100.995 145.121 100.751 145.712 100.723 145.688C100.694 145.664 100.452 145.241 100.452 145.241L100.595 144.709ZM99.8418 145.86L100.191 146.301L99.9693 146.838L99.6179 146.371L99.8418 145.86ZM99.3143 144.807L99.6113 145.252L99.3131 145.822L99.0422 145.374L99.3143 144.807ZM99.201 147.105L99.4718 147.552L99.1249 148.516L98.955 147.67L99.201 147.105ZM98.6395 145.952L98.8136 146.51L98.5958 147.099L98.4276 146.618L98.6395 145.952ZM98.2906 145.172L98.2498 145.669L98.2004 145.737L98.1525 145.392C98.2243 145.241 98.2906 145.172 98.2906 145.172ZM98.0554 145.657L98.0736 145.91L97.988 146.027C98.002 145.884 98.0264 145.762 98.0554 145.657ZM97.8688 146.531L97.9246 146.917L97.8679 147.207C97.82 146.925 97.8688 146.531 97.8688 146.531ZM97.8208 153.254C97.7914 153.258 97.7614 153.261 97.7324 153.265L97.7312 153.263C97.7612 153.259 97.791 153.255 97.8209 153.251L97.8208 153.254ZM97.7352 148.909C97.7352 148.909 97.9597 149.438 97.5229 149.913C97.5229 149.913 97.7347 149.247 97.7352 148.909ZM97.2301 153.327L97.23 153.329C97.1887 153.335 97.148 153.34 97.1078 153.345L97.1069 153.344C97.1479 153.338 97.1892 153.333 97.2301 153.327ZM96.3426 153.448L96.3425 153.448C96.3209 153.451 96.2998 153.454 96.2788 153.457C96.2787 153.457 96.2786 153.457 96.2786 153.457C96.2999 153.454 96.3213 153.451 96.3426 153.448ZM95.834 152.754L95.8339 152.754C95.825 152.756 95.8163 152.758 95.8075 152.759C95.8075 152.759 95.8074 152.759 95.8073 152.759C95.8161 152.757 95.825 152.756 95.834 152.754ZM95.0449 152.787L95.0356 152.809L94.8309 152.539L94.9587 152.258C94.9446 152.423 94.9714 152.596 95.0449 152.787ZM94.6852 151.665L94.8618 151.912L94.7026 152.236L94.5522 151.988L94.6852 151.665ZM94.6013 152.973L94.7517 153.222L94.589 153.666C94.5799 153.601 94.5705 153.536 94.5606 153.471C94.5464 153.377 94.5278 153.288 94.5067 153.202L94.6013 152.973ZM94.2884 152.32L94.3905 152.625L94.3479 152.738C94.3101 152.654 94.2691 152.576 94.2254 152.503L94.2884 152.32ZM94.2149 153.854C94.218 153.865 94.2214 153.875 94.2243 153.887L94.2085 153.871L94.2149 153.854ZM94.0959 151.867L94.0915 152.153L94.0355 152.229C94.0133 152.202 93.9909 152.175 93.9682 152.15C94.008 151.953 94.0959 151.867 94.0959 151.867ZM93.9664 153.303C93.9996 153.352 94.0349 153.41 94.0699 153.478L94.014 153.676L93.9819 153.643L93.9251 153.415L93.9664 153.303ZM93.7501 154.276L93.7877 154.352C93.7654 154.417 93.7289 154.486 93.6705 154.554C93.6705 154.554 93.7159 154.421 93.7501 154.276ZM93.569 153.911L93.5809 153.935C93.571 153.975 93.5598 154.015 93.5474 154.054L93.569 153.911ZM93.4771 155.996L93.4759 156.022C93.3806 156.037 93.2905 156.052 93.206 156.067L93.1919 156.041C93.2802 156.026 93.3765 156.011 93.4771 155.996ZM92.7279 152.882L93.0569 153.403L92.8573 153.887L92.5021 153.368L92.7279 152.882ZM92.3928 154L92.6918 154.472L92.4157 154.987L92.1147 154.49L92.3928 154ZM91.841 156.41C91.7907 156.44 91.3733 155.796 91.3733 155.796L91.6957 155.199L92.0006 155.748C92.0046 155.799 91.8913 156.38 91.841 156.41ZM91.4491 153.006L91.6958 153.481C91.6958 153.481 91.5204 153.937 91.4962 153.965C91.472 153.993 91.141 153.446 91.141 153.446L91.4491 153.006ZM90.8605 154.248L91.2118 154.716L90.9841 155.175C90.9841 155.175 90.6668 154.809 90.6629 154.757C90.6589 154.706 90.8605 154.248 90.8605 154.248ZM90.1945 153.102L90.594 153.514C90.594 153.514 90.35 154.105 90.322 154.081C90.2938 154.057 90.0511 153.633 90.0511 153.633L90.1945 153.102ZM89.7643 154.696L89.5425 155.233L89.1913 154.766L89.415 154.254L89.7643 154.696ZM88.9118 153.174L89.2087 153.619L88.9105 154.189L88.6397 153.742L88.9118 153.174ZM88.8004 155.498L89.0712 155.945L88.7242 156.909L88.5544 156.063L88.8004 155.498ZM88.2388 154.344L88.4131 154.903L88.1953 155.492L88.0269 155.011L88.2388 154.344ZM88.1492 156.953L88.2692 157.49L88.09 157.868L87.9458 157.879L87.9072 157.57L88.1492 156.953ZM87.8899 153.565L87.8492 154.062L87.5873 154.42C87.6463 153.817 87.8899 153.565 87.8899 153.565ZM87.7727 155.811L87.8423 156.378L87.6708 156.886L87.575 156.321L87.7727 155.811ZM87.4682 154.924L87.5239 155.31L87.4673 155.6C87.4174 155.292 87.4682 154.924 87.4682 154.924ZM87.3076 157.563C87.3299 157.628 87.3567 157.697 87.3832 157.762C87.3786 157.797 87.3721 157.833 87.3627 157.87C87.3238 157.812 87.2985 157.753 87.2823 157.698C87.2918 157.652 87.3002 157.607 87.3076 157.563ZM86.9946 156.028C87.0067 156.107 87.0445 156.258 87.0543 156.386L86.9882 156.209L86.9946 156.028ZM87.0356 156.83L87.0154 157.133C87.0116 157.149 87.0073 157.165 87.0034 157.181L86.8567 156.895L86.8551 156.531L87.0356 156.83ZM86.8421 155.674L86.6433 155.481L86.5673 155.175C86.5673 155.175 86.7621 155.316 86.8421 155.674ZM86.4219 155.681L86.6084 156.056L86.5537 156.373L86.3711 156.048L86.4219 155.681ZM86.4266 156.772L86.3878 157.296L86.0828 156.747L86.2179 156.45L86.4266 156.772ZM85.9261 155.041L86.1348 155.364L86.0259 155.658L85.7911 155.338L85.9261 155.041ZM85.7162 155.734L85.8967 156.033L85.7375 156.357L85.555 156.033L85.7162 155.734ZM85.4856 156.845C85.4856 156.845 85.4088 157.215 85.3827 157.217C85.3585 157.244 85.0916 156.849 85.0916 156.849L85.3011 156.494L85.4856 156.845ZM85.1159 155.103L85.2703 155.404C85.2703 155.404 85.1614 155.698 85.1352 155.701C85.1111 155.728 84.9265 155.379 84.9265 155.379L85.1159 155.103ZM84.7831 155.91L84.9878 156.18L84.8508 156.451C84.8508 156.451 84.6501 156.232 84.6481 156.207C84.6461 156.18 84.7831 155.91 84.7831 155.91ZM84.3579 155.162L84.6129 155.403L84.4556 155.752C84.4275 155.728 84.277 155.48 84.277 155.48L84.3579 155.162ZM84.3843 156.539L84.6453 156.856C84.6734 156.88 84.4698 157.312 84.4156 157.29C84.3874 157.266 84.2552 156.913 84.2552 156.913L84.3843 156.539ZM83.8866 155.875L84.0913 156.145L83.9601 156.493L83.7535 156.197L83.8866 155.875ZM83.5475 155.224L83.7261 155.496L83.5428 155.848L83.3904 155.573L83.5475 155.224ZM83.4995 156.658L83.6781 156.931L83.4603 157.52L83.3423 157.009L83.4995 156.658ZM83.1305 155.958L83.2367 156.314L83.1055 156.663L83.0034 156.358L83.1305 155.958ZM82.9341 155.453L82.9056 155.767L82.7384 155.988C82.763 155.622 82.9341 155.453 82.9341 155.453ZM82.856 156.838L82.9099 157.197L82.8029 157.518L82.7229 157.16L82.856 156.838ZM82.6576 156.307L82.7016 156.537L82.6632 156.722C82.6232 156.543 82.6576 156.307 82.6576 156.307ZM82.5835 157.743C82.5854 157.769 82.7158 158.097 82.448 158.378C82.448 158.378 82.5752 157.978 82.5835 157.743ZM74.5541 158.279C74.606 158.613 74.9168 159.24 74.9168 159.24C74.4127 158.836 74.5541 158.279 74.5541 158.279ZM74.1903 156.616L74.09 156.338L74.087 156C74.1048 156.11 74.172 156.377 74.1903 156.616ZM74.1673 157.346L74.1585 157.919L73.9118 157.443L73.8944 156.872L74.1673 157.346ZM73.864 155.444L73.5507 155.13L73.4348 154.644C73.4367 154.67 73.7158 154.883 73.864 155.444ZM73.2085 155.468L73.5194 156.095L73.4263 156.596L73.1214 156.047L73.2085 155.468ZM73.1581 157.215L73.1189 158.077L72.6295 157.178L72.8291 156.694L73.1581 157.215ZM72.3675 154.439L72.6965 154.961L72.4969 155.444L72.1156 154.927L72.3675 154.439ZM72.0323 155.558L72.3313 156.03L72.0553 156.545L71.7543 156.048L72.0323 155.558ZM71.4806 157.968C71.4303 157.998 71.0129 157.353 71.0129 157.353L71.3353 156.756L71.6402 157.305C71.6703 157.355 71.5571 157.936 71.4806 157.968ZM71.1681 158.695L70.8738 159.315C70.8738 159.315 70.4421 158.828 70.4361 158.75C70.4322 158.698 70.7004 158.079 70.7004 158.079L71.1681 158.695ZM71.0887 154.563L71.3354 155.039C71.3354 155.039 71.1599 155.495 71.1358 155.522C71.1116 155.55 70.7805 155.003 70.7805 155.003L71.0887 154.563ZM70.5262 155.804L70.8775 156.271L70.6498 156.731C70.6498 156.731 70.3326 156.364 70.3286 156.313C70.3246 156.261 70.5262 155.804 70.5262 155.804ZM70.3353 157.431C70.3353 157.431 70.0208 158.131 69.9646 158.084C69.9103 158.062 69.7079 157.479 69.7079 157.479L69.9258 156.89L70.3353 157.431ZM69.834 154.66L70.2336 155.071C70.2336 155.071 69.9897 155.662 69.9615 155.638C69.9335 155.614 69.6907 155.191 69.6907 155.191L69.834 154.66ZM69.0807 155.81L69.43 156.252L69.2082 156.789L68.857 156.322L69.0807 155.81ZM69.3143 158.862L69.0259 159.56L68.7935 158.928L69.0636 158.335L69.3143 158.862ZM68.5513 154.731L68.8484 155.177L68.5762 155.744L68.3054 155.296L68.5513 154.731ZM68.4399 157.056L68.7108 157.504L68.39 158.464L68.194 157.621L68.4399 157.056ZM67.8784 155.902L68.0527 156.461L67.8348 157.05L67.6665 156.569L67.8784 155.902ZM67.7888 158.51L67.9088 159.048L67.6145 159.668L67.5468 159.128L67.7888 158.51ZM67.5296 155.122L67.4887 155.62L67.227 155.978C67.2861 155.375 67.5296 155.122 67.5296 155.122ZM67.508 157.933L67.3365 158.441L67.2407 157.876L67.4384 157.366L67.508 157.933ZM67.1077 156.481L67.1635 156.867L67.1069 157.158C67.057 156.849 67.1077 156.481 67.1077 156.481ZM66.9741 158.859C66.9741 158.859 67.1987 159.388 66.7618 159.864C66.7618 159.864 66.9738 159.197 66.9741 158.859ZM71.9928 162.699C69.2304 162.911 66.6124 163.253 65.3528 163.43C67.9801 163.057 70.1964 162.832 71.9928 162.699ZM64.3636 162.853C64.4454 162.833 64.7097 162.773 65.148 162.69C64.7154 162.773 64.4468 162.834 64.3636 162.853Z" fill="#D0E0FE"/>
<path d="M101.715 141.813L101.087 137.725C101.087 137.725 101.041 137.468 100.751 137.464L100.673 137.47C100.387 137.518 100.381 137.779 100.381 137.779L100.382 141.915L101.715 141.813Z" fill="#D0E0FE"/>
<path d="M77.4736 158.654C80.2826 158.257 81.736 158.354 81.7341 158.328C81.8336 158.19 81.7725 158.119 81.7499 158.099C81.8383 157.768 81.568 157.632 81.1329 157.334C80.6889 157.029 80.6996 156.482 80.602 155.891C80.5255 155.441 80.2052 155.29 80.0782 155.248C80.0874 155.25 80.0968 155.251 80.1058 155.253L80.0702 154.787L79.574 154.825L79.3665 153.488C79.3665 153.488 79.3587 153.385 79.2541 153.393L79.228 153.395C79.1254 153.428 79.1313 153.506 79.1313 153.506L79.1298 154.859L79.4478 154.835L78.6587 154.895L78.6903 155.309C78.691 155.317 78.7652 155.302 78.883 155.283C78.8811 155.285 78.8788 155.288 78.8764 155.29C78.7457 155.315 78.6664 155.337 78.6664 155.337C78.6664 155.337 78.3704 155.444 78.2487 155.782C78.2352 155.785 78.2274 155.787 78.2274 155.787L78.2474 155.785C78.2181 155.868 78.1989 155.964 78.1972 156.076C78.1884 156.649 78.2823 157.188 77.8918 157.582C77.5042 157.945 77.2568 158.121 77.4014 158.439C77.3712 158.588 77.4736 158.654 77.4736 158.654ZM78.9274 157.372L78.8593 157.169L78.95 156.981L79.0422 157.155L78.9274 157.372ZM79.2336 156.906C79.2074 156.909 79.1393 156.706 79.1393 156.706L79.2038 156.518L79.3484 156.689C79.3484 156.689 79.2597 156.904 79.2336 156.906ZM79.1322 155.926L79.1988 155.765L79.3132 155.886C79.3132 155.886 79.2486 156.073 79.2225 156.075L79.1322 155.926ZM79.5278 156.285L79.4592 156.421L79.3448 156.3L79.4113 156.138L79.5278 156.285ZM79.4962 155.872L79.5908 155.735L79.681 155.883L79.6145 156.045L79.4962 155.872ZM79.5266 157.3L79.382 157.129C79.38 157.104 79.4708 156.914 79.4708 156.914L79.6173 157.112L79.5266 157.3ZM79.7302 156.869C79.704 156.871 79.5837 156.672 79.5837 156.672L79.7004 156.48L79.7927 156.656C79.7927 156.656 79.7543 156.841 79.7302 156.869ZM79.8133 156.238L79.906 156.075L79.9963 156.223L79.9036 156.387L79.8133 156.238ZM80.1036 157.282L79.9812 157.058L80.0457 156.871L80.1642 157.043L80.1036 157.282ZM80.5741 157.246L80.4537 157.048L80.466 156.864L80.5864 157.063L80.5741 157.246ZM80.5044 156.679L80.4905 156.498L80.5808 156.648L80.5946 156.828L80.5044 156.679ZM80.7352 156.948C80.7432 157.051 80.8635 157.251 80.8635 157.251C80.6968 157.133 80.7352 156.948 80.7352 156.948ZM80.6152 156.41L80.5812 156.309L80.5713 156.18C80.5733 156.206 80.6074 156.307 80.6152 156.41ZM80.5072 156.029L80.3947 155.933L80.3567 155.78C80.3567 155.78 80.4672 155.85 80.5072 156.029ZM80.2981 156.045L80.3923 156.246L80.3519 156.405L80.2597 156.23L80.2981 156.045ZM80.2874 156.592L80.2568 156.88L80.1024 156.58L80.169 156.419L80.2874 156.592ZM80.1274 155.875L80.0609 156.037L79.9424 155.864L80.009 155.703L80.1274 155.875ZM80.0066 155.234L79.9995 155.234C79.9079 155.224 79.8171 155.219 79.7284 155.217C79.7225 155.213 79.7178 155.211 79.7144 155.209C79.8135 155.211 79.912 155.219 80.0066 155.234ZM78.8901 155.281C79.086 155.249 79.3993 155.202 79.7108 155.209L79.7177 155.216C79.3821 155.209 79.0801 155.252 78.8866 155.288L78.8901 155.281ZM78.9389 156.148L79.0553 156.296L78.9888 156.457L78.8724 156.309L78.9389 156.148ZM78.7805 155.797L78.8708 155.945L78.7801 156.135L78.6898 155.985L78.7805 155.797ZM78.7595 156.553L78.8498 156.702L78.7429 157.022L78.6688 156.742L78.7595 156.553ZM78.4569 157.408L78.4431 157.228L78.5318 157.012L78.5717 157.191L78.4569 157.408ZM78.5469 156.178L78.613 156.355L78.5484 156.543L78.4843 156.392L78.5469 156.178ZM78.4486 155.926L78.4344 156.083L78.3378 156.194C78.35 156.012 78.4486 155.926 78.4486 155.926ZM78.3996 156.658L78.4134 156.839L78.3468 157L78.3331 156.819L78.3996 156.658ZM78.2993 156.379L78.3092 156.509L78.291 156.615C78.2811 156.485 78.2993 156.379 78.2993 156.379ZM78.2741 157.157C78.2798 157.207 78.3148 157.341 78.1975 157.454C78.1975 157.454 78.2523 157.267 78.2741 157.157Z" fill="#D0E0FE"/>
<path d="M122.222 155.231C125.03 154.834 126.484 154.931 126.482 154.905C126.582 154.767 126.52 154.696 126.498 154.676C126.586 154.345 126.315 154.209 125.88 153.911C125.437 153.606 125.447 153.059 125.349 152.468C125.272 152.011 124.943 151.863 124.82 151.823C124.832 151.825 124.843 151.827 124.854 151.829L124.819 151.363L124.312 151.402L124.321 151.401L124.114 150.065C124.114 150.065 124.106 149.962 124.001 149.97L123.975 149.972C123.873 150.005 123.878 150.083 123.878 150.083L123.876 151.436L123.407 151.471L123.439 151.886C123.44 151.894 123.525 151.877 123.66 151.855C123.658 151.856 123.656 151.859 123.655 151.861C123.505 151.888 123.414 151.913 123.414 151.913C123.414 151.913 123.118 152.02 122.996 152.358C122.983 152.361 122.975 152.363 122.975 152.363L122.995 152.362C122.965 152.444 122.946 152.54 122.944 152.652C122.936 153.225 123.03 153.765 122.64 154.159C122.251 154.523 122.003 154.698 122.149 155.018C122.12 155.166 122.222 155.231 122.222 155.231ZM123.675 153.949L123.606 153.746L123.698 153.557L123.79 153.732L123.675 153.949ZM123.981 153.483C123.954 153.486 123.887 153.282 123.887 153.282L123.951 153.095L124.096 153.266C124.122 153.264 124.007 153.481 123.981 153.483ZM123.88 152.502L123.946 152.341L124.061 152.462C124.061 152.462 123.996 152.65 123.969 152.652L123.88 152.502ZM124.275 152.862L124.207 152.998L124.093 152.877L124.159 152.716L124.275 152.862ZM124.27 152.446L124.364 152.309L124.455 152.459L124.388 152.62L124.27 152.446ZM124.274 153.877L124.13 153.706C124.127 153.681 124.218 153.491 124.218 153.491L124.364 153.688L124.274 153.877ZM124.478 153.445C124.451 153.448 124.331 153.248 124.331 153.248L124.448 153.057L124.541 153.233C124.541 153.233 124.502 153.418 124.478 153.445ZM124.561 152.815L124.653 152.652L124.743 152.8L124.651 152.963L124.561 152.815ZM124.851 153.859L124.728 153.635L124.793 153.447L124.912 153.62L124.851 153.859ZM125.321 153.823L125.201 153.624L125.213 153.441L125.334 153.64L125.321 153.823ZM125.252 153.257L125.238 153.075L125.329 153.225L125.342 153.405L125.252 153.257ZM125.483 153.525C125.491 153.628 125.611 153.827 125.611 153.827C125.445 153.71 125.483 153.525 125.483 153.525ZM125.363 152.987L125.329 152.886L125.319 152.756C125.321 152.783 125.355 152.884 125.363 152.987ZM125.254 152.606L125.142 152.51L125.104 152.357C125.104 152.357 125.214 152.426 125.254 152.606ZM125.045 152.622L125.14 152.823L125.099 152.981L125.007 152.807L125.045 152.622ZM125.035 153.169L125.005 153.458L124.85 153.156L124.916 152.995L125.035 153.169ZM124.875 152.452L124.808 152.614L124.69 152.44L124.757 152.279L124.875 152.452ZM124.758 151.811L124.747 151.811C124.655 151.801 124.565 151.796 124.476 151.793C124.47 151.79 124.464 151.787 124.461 151.785C124.562 151.787 124.662 151.795 124.758 151.811ZM123.666 151.854C123.862 151.821 124.161 151.779 124.458 151.785L124.465 151.793C124.146 151.786 123.857 151.824 123.663 151.859L123.666 151.854ZM123.686 152.725L123.803 152.872L123.737 153.034L123.62 152.886L123.686 152.725ZM123.528 152.373L123.618 152.523L123.528 152.712L123.437 152.562L123.528 152.373ZM123.507 153.129L123.598 153.279L123.49 153.599L123.416 153.318L123.507 153.129ZM123.12 153.575L123.106 153.395L123.173 153.233L123.187 153.414L123.12 153.575ZM123.294 152.755L123.36 152.932L123.296 153.119L123.232 152.969L123.294 152.755ZM123.305 153.587L123.345 153.766L123.23 153.983L123.217 153.802L123.305 153.587ZM123.196 152.503L123.181 152.66L123.085 152.771C123.124 152.586 123.196 152.503 123.196 152.503ZM123.047 152.956L123.057 153.086L123.038 153.191C123.028 153.062 123.047 152.956 123.047 152.956ZM123.026 153.712C123.026 153.712 123.092 153.89 122.945 154.031C122.945 154.031 123.008 153.818 123.026 153.712Z" fill="#D0E0FE"/>
<path d="M84.2258 153.428L85.0621 153.364L84.6592 150.845C84.6592 150.845 84.6473 150.69 84.4623 150.679L84.41 150.682C84.2029 150.724 84.2148 150.88 84.2148 150.88L84.2258 153.428Z" fill="#D0E0FE"/>
<path d="M113.216 148.531L112.588 144.442C112.588 144.442 112.542 144.185 112.253 144.182L112.174 144.187C111.889 144.236 111.883 144.496 111.883 144.496L111.884 148.633L113.216 148.531Z" fill="#D0E0FE"/>
<path d="M32.8583 172.058L32.9314 173.015L59.5135 170.982L59.4403 170.024L59.415 170.026L58.6493 160.016L58.3158 161.499L57.9562 161.266L57.8646 162.132C57.4203 162.165 57.5723 162.779 57.5723 162.779C57.0875 162.972 57.3421 163.551 57.3421 163.551L56.8716 163.587L56.929 164.337C56.8443 164.604 56.5509 164.548 56.5509 164.548C56.1738 165.461 56.6874 166.333 56.6874 166.333C56.9 166.707 56.1683 166.763 56.1683 166.763L56.2335 167.616C56.2612 167.978 55.6443 167.817 55.6443 167.817L55.8437 169.051L55.4256 169.083L55.6682 170.313L51.9658 170.596L51.5806 165.561C53.0461 165.431 54.2124 165.612 54.2124 165.612L53.8699 164.571L53.8709 164.571C53.8709 164.571 55.2192 164.288 55.5683 163.192L55.7622 163.177L49.8254 159.807L48.5191 159.907L48.3739 158.009C49.1047 157.958 49.6604 157.998 49.6604 157.998L49.5019 157.646L48.3529 157.734V157.734L49.476 157.648C49.476 157.648 50.1998 157.489 50.3554 156.774L50.4602 156.766L47.3487 154.585L47.0868 154.605L47.1398 154.6L47.0335 153.209C47.7879 153.125 48.4502 153.173 48.4502 153.173L48.3323 152.896L48.4812 152.884C48.4812 152.884 49.0725 152.709 49.1961 151.919L44.3673 152.289L49.2741 151.913L46.6076 149.36L44.7841 149.499L45.8758 149.415L45.8442 149.002L45.5966 149.021L45.6356 149.018L45.6099 148.681L44.8772 148.738L44.7879 147.574C44.7722 147.367 44.6034 147.223 44.3943 147.239C44.1852 147.255 44.0403 147.422 44.0561 147.63L44.1451 148.794L43.5973 148.836L43.6231 149.172L43.3874 149.19L43.419 149.603L42.7914 149.651L40.5181 152.583L40.5969 152.577C40.5975 152.579 40.7899 153.107 41.4528 153.396L41.3953 153.401L41.2342 153.699C41.9671 153.532 42.5735 153.486 42.9791 153.479L43.0885 154.91L42.7746 154.934L39.9527 157.57L40.0312 157.564C40.0324 157.566 40.3076 158.064 41.1111 158.288L40.9811 158.298L40.7455 158.654C41.6566 158.443 42.409 158.39 42.9071 158.385L43.0554 160.325L41.0431 160.479L35.5817 164.695L35.7193 164.69C35.7838 164.753 36.2899 165.493 37.7961 165.8L52.5211 164.674L37.7951 165.801L37.4561 166.867C38.5056 166.529 39.4411 166.36 40.2248 166.283L40.6211 171.464L36.6326 171.77L36.6854 170.517L36.2671 170.549L36.2767 169.299C36.2767 169.299 35.6912 169.552 35.6635 169.19L35.5983 168.336C35.5983 168.336 34.8665 168.393 35.0197 167.991C35.0197 167.991 35.3949 167.051 34.8833 166.206C34.8833 166.206 34.6016 166.305 34.4774 166.054L34.42 165.304L33.9494 165.341C33.9494 165.341 34.113 164.73 33.6046 164.612C33.6046 164.612 33.6616 163.983 33.2174 164.018L32.9951 163.176L32.6752 163.461L32.12 162.046L32.8857 172.056L32.8583 172.058ZM46.695 153.256C46.7125 153.253 46.7298 153.25 46.7472 153.247L46.7535 153.33L45.1066 153.455L45.1036 153.415C45.9271 153.116 46.695 153.256 46.695 153.256ZM43.5323 153.497C44.0512 153.356 44.5362 153.372 44.8131 153.4L44.8191 153.477L43.2772 153.595L43.2685 153.481C43.439 153.486 43.5323 153.497 43.5323 153.497ZM43.3761 154.888V154.888L44.5759 154.797L43.2731 154.896L43.3761 154.888ZM43.2908 158.589L43.2755 158.391C43.4635 158.399 43.5663 158.412 43.5663 158.412C44.3931 158.2 45.1362 158.292 45.3743 158.331L45.3818 158.429L43.2908 158.589ZM45.064 154.759L45.2055 154.748L45.595 154.719L45.064 154.759ZM45.8784 160.109L45.7775 158.79L45.8039 158.788L45.9049 160.107L45.8784 160.109ZM48.0223 158.227V158.227L47.1839 158.292L45.7478 158.401L45.7359 158.247C46.6705 157.96 47.4868 158.112 47.4868 158.112C47.6635 158.082 47.8385 158.059 48.0083 158.041L48.0225 158.227H48.0223ZM48.1528 159.935L48.052 158.615H48.0522L48.1532 159.935H48.1528ZM48.1186 157.752L45.7123 157.936L48.2892 157.739L48.1186 157.752ZM50.1251 165.794C50.4937 165.705 50.8608 165.643 51.2155 165.6L51.5999 170.624L50.2307 170.729L50.509 170.109L49.6197 170.177L49.495 168.548L49.7562 168.528L49.6944 168.064L49.9296 168.046L49.8563 167.089L49.7518 167.097L49.5141 167.427L49.3797 165.668C49.839 165.711 50.1251 165.794 50.1251 165.794ZM48.6589 168.274L48.7723 168.378L48.9141 170.231L48.1129 170.293L48.3335 169.522L47.8893 169.555L47.7707 168.342L48.6589 168.274ZM40.5905 166.252C41.4592 166.195 42.1047 166.251 42.4618 166.301L42.7983 170.699L41.6221 170.789L41.9682 171.361L40.9871 171.436L40.5905 166.252Z" fill="#D0E0FE"/>
<path d="M150.485 98.1968L156.334 97.7494L150.538 98.1928L150.721 99.896C151.95 99.4637 152.667 100.58 152.667 100.58L152.675 100.579L158.541 168.792L164.632 168.326L155.953 100.293C156.481 99.2274 157.648 99.3661 157.648 99.3661L157.596 97.6529L157.595 97.653C158.481 95.842 157.433 95.5319 157.433 95.5319L157.303 93.8247L150.167 94.3706L150.297 96.0778L150.323 96.0759C149.436 96.5081 150.485 98.1968 150.485 98.1968Z" fill="#D0E0FE"/>
<path d="M155.183 93.9609C155.183 93.9609 155.745 93.0593 154.786 91.8579C153.828 90.6822 154.908 90.7037 154.123 89.3847C154.123 89.3847 154.283 88.3839 153.512 87.5843C153.512 87.5843 153.089 86.8621 153.424 86.4203L153.015 86.9198C153.015 86.9198 152.465 87.6383 152.689 88.5057C152.916 89.3991 152.104 89.097 152.544 90.3902C152.544 90.3902 152.58 90.8557 152.294 91.2418C152.008 91.628 151.782 93.4926 152.23 94.1868L155.183 93.9609Z" fill="#D0E0FE"/>
</g>
</g>
<path d="M159.968 140.801C159.968 140.801 166.843 133.908 167.349 136.94C167.942 140.477 169.867 159.095 169.663 164.9C169.66 164.971 169.682 165.04 169.726 165.095C169.769 165.151 169.831 165.191 169.9 165.206C169.97 165.22 170.042 165.21 170.104 165.177C170.167 165.144 170.216 165.09 170.243 165.024C172.376 159.815 179.26 143.166 181.652 138.961C184.473 134.004 186.897 129.746 191.714 129.233C196.532 128.721 204.442 124.529 206.143 125.92C207.845 127.312 203.598 130.171 198.439 131.215C198.439 131.215 206.146 132.187 209.131 131.644C209.131 131.644 210.572 129.988 212.827 130.105C212.827 130.105 216.683 125.304 218.091 126.568C219.499 127.832 217.908 128.491 217.908 128.491C217.908 128.491 218.456 129.801 216.741 130.898C215.026 131.995 213.492 135.285 210.262 136.606C207.115 137.894 202.312 139.652 198.87 140.35L198.602 140.403C197.086 140.689 194.787 140.79 192.488 141.55C189.547 142.523 186.607 144.575 185.314 149.48C183.009 158.216 177.433 175.07 169.221 175.984C166.746 176.259 165.157 177.597 163.809 176.569C163.809 176.569 160.785 174.675 160.531 171.675C160.277 168.675 159.968 140.801 159.968 140.801Z" fill="#FFB887"/>
<path d="M159.195 158.235C158.981 161.93 158.439 171.757 158.439 171.757C158.792 173.1 161.062 174.959 163.761 176.715C169.028 180.137 176.106 178.253 178.952 172.654C181.486 167.671 183.768 162.563 185.79 157.351C187.539 152.844 190.272 148.085 191.495 143.951C189.501 140.864 183.371 137.45 180.152 136.051C178.296 139.207 172.723 151.34 170.917 155.373L159.195 158.235Z" fill="#FFB887"/>
<path d="M188.65 151.19C188.743 151.191 188.833 151.158 188.904 151.098C188.941 151.067 188.973 151.027 188.995 150.983C189.017 150.939 189.03 150.891 189.034 150.842C189.037 150.792 189.031 150.743 189.015 150.696C188.999 150.649 188.974 150.606 188.941 150.569C187.446 148.885 185.776 147.363 183.959 146.031C182.07 144.644 180.035 143.466 177.891 142.519C177.799 142.478 177.694 142.475 177.6 142.511C177.506 142.546 177.429 142.617 177.386 142.709C177.365 142.753 177.354 142.802 177.353 142.852C177.352 142.901 177.36 142.951 177.378 142.997C177.396 143.043 177.422 143.085 177.457 143.12C177.491 143.156 177.532 143.185 177.578 143.205C179.673 144.128 181.661 145.276 183.507 146.629C185.279 147.93 186.909 149.415 188.369 151.06C188.404 151.099 188.447 151.132 188.496 151.154C188.545 151.177 188.598 151.189 188.65 151.19Z" fill="#8446FF"/>
<path d="M183.967 143.135C183.967 143.135 186.071 144.825 187.375 145.81C188.395 146.58 189.373 147.404 190.306 148.277C190.518 148.138 190.902 147.44 191.192 147.028C191.446 146.666 191.464 146.729 191.524 146.5C190.7 145.759 189.775 144.989 188.746 144.219C187.586 143.352 186.38 142.548 185.134 141.811C185.034 141.774 184.926 141.767 184.823 141.791C184.719 141.815 184.625 141.87 184.554 141.948C184.258 142.286 184.055 142.695 183.967 143.135Z" fill="#8446FF"/>
<path d="M107.05 142.292C107.05 142.292 100.902 134.746 100.092 137.711C99.1486 141.17 95.3646 159.503 94.9848 165.298C94.9798 165.368 94.9505 165.434 94.9018 165.485C94.853 165.535 94.7881 165.568 94.7182 165.575C94.6482 165.583 94.5778 165.566 94.5191 165.527C94.4604 165.489 94.417 165.43 94.3967 165.363C92.7904 159.966 87.6169 142.711 85.6585 138.287C83.3498 133.071 81.3655 128.596 76.6212 127.599C71.877 126.601 64.4299 121.641 62.5975 122.854C60.7651 124.068 64.7039 127.34 69.7304 128.896C69.7304 128.896 61.9654 129.089 59.0497 128.249C59.0497 128.249 57.7821 126.458 55.5265 126.347C55.5265 126.347 52.1721 121.184 50.6448 122.3C49.1176 123.416 50.6339 124.233 50.6339 124.233C50.6339 124.233 49.9561 125.481 51.5498 126.744C53.1433 128.006 54.3488 131.434 57.4301 133.073C60.4324 134.671 65.0338 136.906 68.3893 137.945L68.6506 138.024C70.1303 138.461 72.4078 138.793 74.6181 139.78C77.4468 141.043 80.1646 143.379 80.9617 148.389C82.3774 157.312 86.2342 174.642 94.3124 176.373C96.745 176.895 98.1949 178.386 99.6384 177.499C99.6384 177.499 102.836 175.916 103.391 172.957C103.947 169.998 107.05 142.292 107.05 142.292Z" fill="#FFB887"/>
<path d="M106.069 159.715L109.277 170.695C108.792 171.996 102.533 176.163 99.6708 177.639C94.0886 180.517 87.2356 177.931 84.9654 172.075C82.9439 166.864 81.1855 161.553 79.697 156.164C78.4101 151.504 76.1677 146.494 75.3651 142.259C77.6626 139.388 84.1004 136.606 87.4423 135.536C88.9763 138.863 94.3488 155.25 95.742 159.444L106.069 159.715Z" fill="#FFB887"/>
<path d="M77.4691 149.755C77.3766 149.746 77.2904 149.705 77.2265 149.637C77.1921 149.602 77.1651 149.56 77.1472 149.514C77.1294 149.468 77.121 149.419 77.1225 149.37C77.124 149.32 77.1353 149.272 77.1559 149.227C77.1765 149.182 77.2057 149.142 77.2421 149.108C78.8994 147.583 80.7133 146.237 82.6536 145.092C84.6729 143.903 86.8156 142.937 89.0438 142.211C89.1395 142.18 89.2441 142.187 89.3346 142.231C89.4251 142.276 89.4943 142.354 89.5274 142.45C89.5428 142.496 89.5489 142.546 89.545 142.594C89.5412 142.644 89.5276 142.692 89.5052 142.736C89.4827 142.779 89.4519 142.818 89.4143 142.85C89.3768 142.882 89.3332 142.906 89.2863 142.921C87.1106 143.629 85.0183 144.572 83.0464 145.734C81.152 146.85 79.3808 148.164 77.7623 149.653C77.7234 149.69 77.677 149.717 77.6265 149.735C77.576 149.753 77.5224 149.76 77.4691 149.755Z" fill="#8446FF"/>
<path d="M82.9382 142.208C82.9382 142.208 80.6745 143.678 79.2772 144.528C78.1856 145.191 77.1299 145.912 76.1151 146.688C75.9169 146.527 75.6044 145.795 75.3581 145.356C75.1412 144.971 75.1182 145.031 75.0791 144.797C75.9737 144.143 76.9727 143.47 78.0737 142.807C79.3147 142.06 80.5951 141.382 81.909 140.773C82.0115 140.746 82.1198 140.749 82.2201 140.784C82.3204 140.818 82.4082 140.882 82.472 140.967C82.7321 141.334 82.8928 141.761 82.9382 142.208Z" fill="#8446FF"/>
<path d="M114.355 172.21L104.365 167.377L103.105 173.235C99.2834 165.887 98.5207 168.725 94.6992 161.376C99.7991 126.321 106.078 128.589 111.91 126.524C116.69 124.833 129.86 127.328 131.185 127.763L131.111 129.991C136.476 132.121 139.125 138.254 136.995 143.62L127.984 166.326C125.855 171.692 119.722 174.339 114.355 172.21Z" fill="#FFB887"/>
<path d="M153.291 171.355L163.288 166.527L164.538 172.392C168.366 165.048 170.693 168.07 174.523 160.724C169.757 130.045 161.61 127.741 155.779 125.672C151.002 123.975 137.828 126.457 136.504 126.89L136.576 129.119C131.207 131.242 128.553 137.37 130.677 142.742L139.665 165.455C141.793 170.824 147.923 173.479 153.291 171.355Z" fill="#FFB887"/>
<path d="M163.84 137.406C162.748 131.637 156.755 128.404 151.513 127.186C147.473 126.247 143.261 126.276 139.14 126.361C137.063 126.404 134.996 126.498 132.916 126.495C130.568 126.495 128.124 126.606 125.816 127.215C123.316 127.874 121.199 129.192 119.159 130.741C116.676 132.611 114.57 134.937 112.956 137.594C111.891 139.372 111.059 141.28 110.481 143.27C104.847 162.553 110.303 205.926 110.303 205.926C118.405 208.069 135.408 206.516 145.413 205.142C156.914 203.564 156.036 203.851 158.552 203.413C158.552 203.413 167.136 154.835 163.84 137.406Z" fill="#FFB887"/>
<path d="M128.803 131.734C128.826 132.437 132.239 132.734 134.599 132.729C137.716 132.729 142.261 132.256 141.715 131.297L145.383 126.426C145.184 125.752 137.258 126.822 134.538 126.863L133.277 126.883C130.557 126.924 125.533 127.452 125.732 128.126L128.803 131.734Z" fill="#8446FF"/>
<path d="M108.27 187.571C108.548 196.208 108.826 204.845 109.104 213.482C121.886 216.862 153.633 214.576 161.729 212.389C162.494 197.123 163.259 181.858 164.024 166.595C164.062 165.968 164.05 165.198 163.734 165.082C161.734 164.35 155.778 192.746 140.902 198.545C134.815 200.913 124.925 200.406 108.27 187.571Z" fill="#8446FF"/>
<path d="M155.27 213.587C157.823 213.456 161.724 212.492 161.724 212.492C162.95 193.323 164.75 159.836 164.568 153.2L164.534 144.439L155.27 213.587Z" fill="#8446FF"/>
<path d="M115.257 214.712L109.022 213.617C105.883 167.827 109.209 148.817 109.209 148.817L115.257 214.712Z" fill="#8446FF"/>
<path d="M124.377 123.785C130.422 123.079 137.017 123.044 143.981 124.156C144.618 124.258 145.247 124.367 145.868 124.485C145.585 125.47 145.323 125.931 144.404 126.352L124.803 127.816L124.377 123.785Z" fill="#8446FF"/>
<path d="M128.803 129.199C128.826 131.692 132.242 132.739 134.599 132.729C137.716 132.715 142.261 131.051 141.715 127.654L139.85 116.01C139.651 113.62 137.261 111.784 134.539 111.932L133.279 112.001C130.559 112.149 128.496 114.226 128.695 116.616L128.803 129.199Z" fill="#8446FF"/>
<path d="M139.428 144.307C139.042 137.738 136.594 133.903 135.417 132.805C140.82 130.115 144.904 126.258 145.868 124.483C147.167 125.4 149.46 127.779 150.445 128.855C150.02 132.853 142.655 140.7 139.428 144.307Z" fill="#8446FF"/>
<path d="M119.245 127.489C120.368 126.558 122.966 124.514 124.377 123.786C125.09 125.676 128.606 130.057 133.59 133.461C132.275 134.386 129.324 137.849 128.04 144.304C125.338 140.288 119.119 131.505 119.245 127.489Z" fill="#8446FF"/>
<path d="M128.812 119.131H128.776C128.513 119.131 127.8 118.821 127.463 118.759C127.8 118.821 128.513 119.132 128.776 119.131H128.811C128.867 119.128 128.923 119.119 128.978 119.106C128.924 119.119 128.868 119.128 128.812 119.131ZM128.979 119.106C128.98 119.106 128.98 119.106 128.981 119.106C128.981 119.106 128.982 119.106 128.983 119.106C128.981 119.106 128.981 119.107 128.98 119.107C128.978 119.107 128.977 119.106 128.976 119.106H128.979Z" fill="#FFB887"/>
<path d="M134.768 137.88C134.867 137.875 134.966 137.889 135.059 137.922C135.153 137.955 135.239 138.007 135.312 138.073C135.386 138.14 135.445 138.22 135.487 138.31C135.529 138.399 135.554 138.496 135.558 138.595C136.391 155.404 137.225 191.003 135.558 210.491C135.549 210.59 135.522 210.686 135.476 210.774C135.431 210.861 135.368 210.939 135.293 211.003C135.217 211.067 135.13 211.114 135.035 211.145C134.941 211.175 134.842 211.185 134.743 211.177C134.644 211.168 134.549 211.141 134.461 211.095C134.374 211.05 134.296 210.987 134.232 210.912C134.104 210.759 134.041 210.561 134.057 210.362C135.86 189.332 134.807 153.815 134.057 138.67C134.052 138.572 134.066 138.473 134.099 138.38C134.132 138.287 134.183 138.201 134.249 138.128C134.315 138.055 134.395 137.995 134.483 137.952C134.573 137.91 134.669 137.885 134.768 137.88Z" fill="#8446FF"/>
<path d="M144.916 192.944C144.998 192.888 145.09 192.849 145.187 192.829C145.284 192.809 145.384 192.808 145.481 192.827C145.578 192.846 145.671 192.884 145.753 192.939C145.835 192.993 145.906 193.064 145.961 193.146C148.212 196.48 153.985 204.148 159.115 208.294C159.271 208.42 159.37 208.602 159.391 208.801C159.412 208.999 159.353 209.197 159.228 209.353C159.102 209.508 158.921 209.607 158.722 209.629C158.523 209.65 158.324 209.592 158.169 209.466C152.857 205.176 146.981 197.349 144.713 193.989C144.658 193.907 144.619 193.815 144.599 193.718C144.579 193.621 144.579 193.521 144.597 193.424C144.616 193.327 144.654 193.234 144.709 193.152C144.763 193.07 144.834 192.999 144.916 192.944Z" fill="#8446FF"/>
<path d="M123.671 187.61C123.765 187.642 123.85 187.692 123.926 187.757C124 187.823 124.06 187.901 124.105 187.991C124.148 188.079 124.174 188.176 124.18 188.275C124.185 188.373 124.172 188.472 124.14 188.566C123.046 191.764 120.046 199.491 116.788 204.783C116.737 204.867 116.669 204.94 116.588 204.998C116.509 205.056 116.418 205.098 116.322 205.121C116.225 205.144 116.126 205.148 116.028 205.132C115.93 205.117 115.837 205.081 115.752 205.03C115.668 204.978 115.595 204.91 115.537 204.83C115.479 204.75 115.437 204.659 115.414 204.562C115.392 204.467 115.388 204.367 115.404 204.269C115.42 204.172 115.454 204.078 115.505 203.994C118.673 198.843 121.632 191.241 122.714 188.074C122.746 187.981 122.797 187.895 122.862 187.821C122.928 187.747 123.008 187.687 123.096 187.644C123.185 187.6 123.281 187.576 123.38 187.569C123.479 187.564 123.577 187.577 123.671 187.61Z" fill="#8446FF"/>
<path d="M114.866 106.226C111.88 106.021 110.847 99.9754 112.295 98.7637C113.293 97.9286 115.172 97.9975 115.384 98.0126C116.409 98.1951 117.337 98.7333 118.004 99.5325C118.671 100.332 119.035 101.341 119.031 102.382L119.032 102.423C118.98 103.479 118.514 104.471 117.733 105.184C116.952 105.896 115.922 106.271 114.866 106.226Z" fill="#8446FF"/>
<path d="M134.261 79.8232L127.902 80.2505C119.709 78.3724 113.552 88.0938 113.902 98.8842L114.669 110.341C115.23 118.696 122.539 125.071 130.913 124.509L137.272 124.086C145.571 123.527 151.926 116.35 151.491 108.092C153.087 107.868 154.574 106.341 155.055 104.251C155.633 101.744 154.538 99.3822 152.608 98.9778C152.031 98.8626 151.434 98.9212 150.891 99.1462L150.711 96.4138C150.149 88.0597 142.634 79.262 134.261 79.8232Z" fill="#FFB887"/>
<path d="M113.685 106.189C113.685 106.189 113.685 106.181 113.679 106.178C113.706 106.133 113.737 106.091 113.771 106.051C113.741 106.096 113.711 106.142 113.685 106.189Z" fill="#8446FF"/>
<path d="M147.986 88.4129C145.547 79.6521 136.542 79.12 132.23 79.1114L131.794 79.1158L131.359 79.1184C127.056 79.1921 118.081 79.8606 115.759 88.6184C121.64 90.2841 127.694 91.2678 133.801 91.5503C133.184 90.5615 132.569 89.573 131.953 88.5848C137.401 90.9393 143.162 92.4942 149.055 93.2014C148.733 91.4292 148.373 89.8023 147.986 88.4129Z" fill="#8446FF"/>
<path d="M156.785 82.7423C156.525 81.402 155.881 80.1639 155.123 79.0297C152.7 75.4162 149.096 72.7737 145.403 70.4703C143.907 69.538 142.364 68.6412 140.67 68.137C138.523 67.495 136.234 67.5155 134.004 67.7347C130.132 68.1219 126.11 69.215 123.389 72.003C124.957 69.2772 126.946 66.8159 129.282 64.7098C125.363 65.0665 121.847 67.2383 118.759 69.676C117.583 70.6043 116.418 71.6124 115.702 72.9275C114.985 74.2427 114.802 75.9427 115.587 77.217C112.183 79.2299 109.294 82.0082 107.15 85.3315C106.942 85.6548 106.738 85.9906 106.659 86.3662C106.511 87.0515 106.801 87.7464 107.085 88.3866C108.287 91.0953 109.725 93.7151 110.889 96.4357C111.841 98.661 112.361 100.821 113.696 102.946C114.368 97.0239 114.331 89.8771 117.926 84.8483C120.984 86.3913 124.352 87.2219 127.777 87.2776C125.744 85.58 124.131 83.4359 123.063 81.0124C126.521 83.7949 130.839 85.1782 135.011 86.508C138.93 87.7616 142.943 88.7081 147.011 89.3391C148.388 94.0384 149.495 98.8128 150.327 103.639C150.305 103.333 150.286 103.026 150.262 102.724C150.719 101.537 151.335 100.461 152.159 100.004C152.563 99.7811 152.987 99.8045 153.41 100.011C155.689 95.8498 156.579 90.8538 156.884 86.0455C156.951 84.9422 156.996 83.8263 156.785 82.7423Z" fill="#8446FF"/>
<path d="M156.785 82.7424C156.525 81.4021 155.882 80.1639 155.123 79.0298C155.036 78.8929 154.927 78.7674 154.833 78.6341C143.706 84.3279 129.105 83.2561 119.369 75.2582C119.159 77.6077 119.462 79.9747 120.259 82.1952L116.635 79.0813C113.954 81.3044 111.14 83.5222 107.808 84.5365C107.763 84.5503 107.716 84.5607 107.672 84.5744C107.496 84.8294 107.318 85.0743 107.152 85.3315C106.944 85.6548 106.74 85.9906 106.661 86.3663C106.513 87.0514 106.803 87.7465 107.087 88.3866C108.289 91.0953 109.726 93.7151 110.891 96.4356C111.841 98.661 112.815 101.58 114.15 103.706C114.822 97.7836 114.332 89.877 117.928 84.8482C120.986 86.3913 124.354 87.2218 127.779 87.2775C125.746 85.58 124.132 83.436 123.065 81.0125C126.521 83.7949 130.839 85.1782 135.011 86.508C138.93 87.7616 142.943 88.7082 147.011 89.3391C148.388 94.0384 149.495 98.8129 150.327 103.639C150.306 103.333 150.286 103.025 150.262 102.723C150.719 101.537 151.336 100.461 152.159 100.004C152.563 99.7811 152.987 99.8045 153.41 100.012C155.689 95.8499 156.579 90.8539 156.884 86.0456C156.951 84.9423 156.996 83.8264 156.785 82.7424Z" fill="#8446FF"/>
<path d="M151.308 107.062C149.097 106.493 149.536 99.9401 150.873 98.8257C151.795 98.0502 153.194 98.3456 153.354 98.3947C153.608 98.5012 154.508 98.9378 155.017 100.299C155.535 101.685 155.296 103.098 155.226 103.468L155.215 103.513C154.698 105.829 152.94 107.427 151.308 107.062Z" fill="#FFB887"/>
<path d="M123.969 118.132C123.969 118.132 124.524 113.998 126.579 111.609C126.846 111.298 129.845 108.575 133.833 109.386C137.38 110.107 139.06 113.102 139.538 113.956C140.233 115.203 140.652 116.585 140.768 118.008L123.969 118.132Z" fill="#8446FF"/>
<path d="M140.768 118.001C140.749 117.608 140.627 116.066 139.38 114.838C138.809 114.276 138.099 113.875 137.322 113.674C135.559 113.251 133.574 114.086 132.184 115.744C131.709 114.689 131.11 114.189 130.644 113.926C128.973 112.984 125.558 114.497 125.166 115.124C124.592 116.047 124.186 117.066 123.969 118.132L140.768 118.001Z" fill="#8446FF"/>
<path d="M137.833 111.614C136.91 110.671 135.605 109.743 133.833 109.383C130.293 108.663 127.533 110.727 126.77 111.417C130.428 112.017 134.154 112.083 137.833 111.614Z" fill="#D0E0FE"/>
<path d="M162.907 83.5171C162.819 83.9981 162.359 84.3171 161.877 84.2297L153.333 82.6756C152.852 82.5881 152.532 82.1272 152.62 81.646C152.708 81.165 153.169 80.8459 153.65 80.9334L162.194 82.4874C162.676 82.5749 162.994 83.036 162.907 83.5171ZM158.363 69.7295C158.696 70.0869 158.677 70.6472 158.319 70.9809L151.255 77.5752C150.898 77.9089 150.337 77.8896 150.004 77.5322C149.671 77.1748 149.689 76.6145 150.047 76.2808L157.111 69.6864C157.468 69.3527 158.029 69.372 158.363 69.7295ZM145.531 66.7332C146.02 66.7649 146.389 67.1862 146.358 67.6742L145.888 74.9038C145.857 75.3919 145.436 75.7617 144.948 75.73C144.46 75.6984 144.09 75.2771 144.122 74.7891L144.591 67.5594C144.623 67.0714 145.043 66.7015 145.531 66.7332Z" fill="#8446FF"/>
<path d="M63.011 60.653C50.451 67.337 47.2903 77.6636 50.3467 84.0785C52.2905 88.1525 55.8003 89.8701 60.7324 88.2123C61.3957 87.9888 62.0444 87.7242 62.6746 87.4198C68.3285 84.7224 67.3762 79.5008 70.7286 76.6441C71.1747 76.2644 71.6692 75.9458 72.1993 75.6963C75.3774 74.1799 77.7611 75.089 78.5617 76.7627C80.1562 80.1037 70.6228 86.7021 72.6194 94.9744C73.7882 99.7948 77.9133 101.744 82.7191 100.249C86.3226 97.7519 87.5691 93.5226 87.5639 89.8884C87.5619 83.7441 98.2907 78.6283 93.1072 67.7733C88.8901 58.9275 77.6697 54.3737 63.011 60.653ZM84.14 103.974C79.8616 106.842 78.6524 111.699 80.7944 116.188C82.9364 120.677 87.4744 122.794 92.3915 121.269C96.6701 118.401 97.8804 113.546 95.7377 109.054C93.5952 104.562 89.0605 102.453 84.1394 103.975L84.14 103.974Z" fill="#8446FF"/>
<path d="M96.4396 66.1819C101.619 77.0371 90.8925 82.1561 90.8984 88.3017C90.9037 92.4017 89.3188 97.2578 84.5516 99.5319C83.9609 99.8162 83.3502 100.057 82.7241 100.252C86.3277 97.7546 87.5741 93.5254 87.5691 89.8911C87.5619 83.7443 98.2905 78.6284 93.1071 67.7734C88.8881 58.9296 77.6677 54.3759 63.0089 60.6552C63.5319 60.3751 64.0726 60.1019 64.6312 59.8358C80.1271 52.4408 92.0568 56.9981 96.4396 66.1819Z" fill="#8446FF"/>
<path d="M99.069 107.468C101.46 112.479 99.6767 117.942 94.1153 120.597C93.5589 120.864 92.984 121.09 92.3948 121.273C96.6733 118.406 97.8837 113.551 95.741 109.059C93.5983 104.567 89.0603 102.453 84.1433 103.979C84.6567 103.635 85.1942 103.33 85.752 103.065C91.3095 100.406 96.6792 102.46 99.069 107.468Z" fill="#8446FF"/>
<path d="M190.549 63.7192C179.771 59.744 171.849 63.3904 169.626 68.6803C168.217 72.0414 169.068 75.0796 172.719 77.1605C173.209 77.44 173.718 77.6885 174.24 77.9047C178.904 79.8616 181.539 76.4811 185.062 76.9655C185.531 77.0301 185.989 77.1568 186.424 77.3421C189.046 78.4421 189.78 80.367 189.202 81.7491C188.045 84.5058 178.945 82.3083 175.033 87.958C172.757 91.2534 173.8 94.7868 177.284 96.8789C180.726 97.708 183.944 96.1857 186.131 94.2291C189.832 90.9251 198.682 94.6399 202.437 85.6815C205.5 78.3856 202.213 69.1767 190.549 63.7192ZM175.803 99.7375C171.775 98.701 168.199 100.583 166.645 104.287C165.091 107.991 166.255 111.863 169.817 114.006C173.846 115.043 177.422 113.163 178.976 109.457C180.531 105.751 179.365 101.885 175.802 99.7375L175.803 99.7375Z" fill="#D0E0FE"/>
<path d="M205.187 86.8343C201.43 95.7902 192.58 92.0784 188.88 95.3854C186.412 97.5926 182.634 99.2479 178.701 97.5977C178.213 97.3947 177.739 97.1559 177.285 96.8834C180.727 97.7125 183.946 96.1902 186.133 94.2336C189.832 90.9251 198.683 94.6399 202.437 85.6815C205.498 78.3854 202.211 69.1766 190.547 63.7191C190.997 63.8837 191.452 64.0627 191.913 64.2562C204.698 69.6183 208.365 79.2565 205.187 86.8343Z" fill="#D0E0FE"/>
<path d="M181.723 110.611C179.989 114.746 175.738 116.608 171.149 114.684C170.689 114.492 170.244 114.267 169.817 114.011C173.844 115.047 177.421 113.167 178.975 109.461C180.53 105.755 179.365 101.885 175.802 99.7419C176.285 99.8668 176.759 100.027 177.218 100.22C181.807 102.14 183.456 106.479 181.723 110.611Z" fill="#D0E0FE"/>
</g>
</g>
<defs>
<clipPath id="clip0_1629_2420">
<rect width="255" height="255" fill="white"/>
</clipPath>
</defs>
</svg>
