<svg width="205" height="205" viewBox="0 0 205 205" fill="none" xmlns="http://www.w3.org/2000/svg">
<g opacity="0.2">
<g clip-path="url(#clip0_1629_2894)">
<mask id="mask0_1629_2894" style="mask-type:luminance" maskUnits="userSpaceOnUse" x="0" y="0" width="205" height="205">
<path d="M205 0H0V205H205V0Z" fill="white"/>
</mask>
<g mask="url(#mask0_1629_2894)">
<path d="M428.86 -238.62V425.58H-209.1V-238.62H428.86Z" fill="#D0E0FE"/>
<path d="M154.427 90.3336C153.404 90.3048 152.319 90.3414 151.207 90.4793C144.495 91.3109 139.494 97.0759 139.507 103.838C139.511 105.808 139.721 108.012 140.34 110.206C142.213 116.849 142.79 122.706 142.574 125.558L148.844 128.928C148.844 128.928 151.746 124.758 154.55 122.959C157.354 121.16 166.688 116.351 170.383 111.408C172.765 108.221 173.223 101.681 167.545 95.9604C164.075 92.4654 159.35 90.4723 154.427 90.3336Z" fill="#8446FF"/>
<path d="M139.606 132.812L145.27 135.874L141.583 140.556L137.808 138.84L139.606 132.812Z" fill="#FF8E3A"/>
<path d="M139.881 133.001C139.831 132.983 140.393 131.302 141.136 129.247C141.88 127.19 142.523 125.539 142.574 125.558C142.624 125.576 142.062 127.256 141.318 129.312C140.575 131.368 139.932 133.019 139.881 133.001Z" fill="#FF8E3A"/>
<path d="M144.913 135.644C144.867 135.616 145.754 134.028 146.895 132.097C148.036 130.165 148.998 128.621 149.043 128.648C149.09 128.676 148.203 130.264 147.062 132.195C145.921 134.127 144.959 135.671 144.913 135.644Z" fill="#FF8E3A"/>
<path d="M156.316 90.5112C156.062 90.5256 152.945 94.1736 151.566 96.6427C146.928 104.949 146.72 113.033 145.433 122.46C145.248 123.806 144.579 126.71 144.592 126.642C145.278 127.18 147.585 128.251 147.585 128.251C147.585 128.251 149.76 125.625 150.624 124.305C154.085 119.018 157.843 114.896 160.806 109.314C163.769 103.732 166.621 98.7814 163.879 93.0877C163.879 93.0877 159.129 90.3538 156.316 90.5112Z" fill="#FF8E3A"/>
<path d="M170.407 112.244C170.403 112.245 170.375 112.184 170.326 112.064C170.274 111.946 170.215 111.764 170.109 111.538C169.905 111.085 169.571 110.433 169.015 109.697C168.457 108.968 167.68 108.144 166.609 107.452C165.556 106.744 164.2 106.184 162.663 105.991L162.625 105.986L162.603 105.956C161.882 104.985 161.056 103.982 160.072 103.052C159.09 102.124 157.941 101.27 156.618 100.673C155.298 100.084 153.877 99.8226 152.535 99.8943C151.193 99.962 149.935 100.389 148.961 101.085L148.905 101.126L148.853 101.08C147.689 100.056 146.294 99.5262 145.037 99.3836C143.772 99.2379 142.649 99.4709 141.793 99.7973C140.93 100.126 140.322 100.544 139.929 100.846C139.733 101 139.587 101.124 139.492 101.212C139.396 101.298 139.344 101.341 139.34 101.338C139.337 101.334 139.382 101.285 139.472 101.192C139.562 101.097 139.702 100.965 139.895 100.804C140.279 100.485 140.885 100.048 141.755 99.7007C142.618 99.3556 143.759 99.1036 145.053 99.2407C146.338 99.3743 147.768 99.904 148.968 100.949L148.86 100.944C149.858 100.221 151.152 99.7786 152.525 99.7061C153.898 99.6294 155.349 99.8946 156.697 100.496C158.045 101.104 159.211 101.973 160.202 102.914C161.195 103.858 162.023 104.872 162.743 105.853L162.683 105.819C164.251 106.023 165.627 106.603 166.689 107.331C167.769 108.043 168.547 108.889 169.099 109.634C169.648 110.387 169.971 111.053 170.16 111.517C170.258 111.747 170.309 111.933 170.352 112.055C170.393 112.178 170.412 112.242 170.407 112.244Z" fill="#FF8E3A"/>
<path d="M158.752 120.521C158.714 120.534 158.722 119.954 158.212 119.159C157.954 118.773 157.57 118.334 157.008 118.003C156.459 117.663 155.725 117.435 154.933 117.511L154.855 117.519L154.843 117.441C154.717 116.636 154.383 115.779 153.814 115.019C153.248 114.264 152.454 113.59 151.488 113.214C150.694 112.898 149.85 112.787 149.056 112.841C148.261 112.898 147.519 113.124 146.889 113.453L146.831 113.484L146.784 113.435C146.157 112.763 145.348 112.386 144.607 112.256C143.862 112.105 143.183 112.181 142.655 112.317C141.583 112.609 141.126 113.127 141.105 113.086C141.102 113.082 141.13 113.054 141.188 113.001C141.248 112.952 141.33 112.868 141.454 112.782C141.698 112.605 142.086 112.376 142.627 112.217C143.165 112.062 143.862 111.97 144.633 112.113C145.401 112.237 146.247 112.617 146.913 113.317L146.807 113.299C147.455 112.953 148.221 112.715 149.042 112.653C149.862 112.594 150.736 112.707 151.559 113.034C152.563 113.425 153.383 114.126 153.963 114.909C154.548 115.696 154.885 116.584 155.007 117.417L154.916 117.347C155.754 117.274 156.517 117.526 157.079 117.888C157.655 118.241 158.041 118.703 158.293 119.107C158.544 119.518 158.655 119.883 158.708 120.133C158.736 120.257 158.74 120.356 158.749 120.421C158.755 120.487 158.757 120.521 158.752 120.521Z" fill="#FF8E3A"/>
<path d="M144.175 137.349C144.161 137.36 144.114 137.271 143.967 137.211C143.822 137.15 143.586 137.141 143.305 137.231C143.161 137.269 142.999 137.322 142.804 137.323C142.609 137.326 142.393 137.232 142.244 137.076C141.943 136.763 141.829 136.31 141.545 135.997C141.404 135.845 141.22 135.766 141.023 135.778C140.826 135.785 140.629 135.85 140.433 135.896C140.237 135.943 140.03 135.972 139.839 135.927C139.65 135.887 139.495 135.793 139.375 135.69C139.135 135.479 139.03 135.231 139.002 135.06C138.973 134.887 139.001 134.792 139.011 134.793C139.027 134.793 139.026 134.888 139.075 135.042C139.122 135.195 139.238 135.41 139.462 135.584C139.573 135.669 139.712 135.743 139.871 135.77C140.027 135.8 140.203 135.772 140.39 135.722C140.578 135.676 140.779 135.602 141.016 135.588C141.254 135.567 141.519 135.677 141.686 135.865C142.015 136.239 142.118 136.685 142.373 136.952C142.496 137.083 142.649 137.157 142.808 137.162C142.968 137.169 143.126 137.129 143.273 137.098C143.569 137.021 143.846 137.049 144.001 137.143C144.159 137.237 144.183 137.348 144.175 137.349Z" fill="#FF8E3A"/>
<path d="M144.825 136.439C144.8 136.487 143.563 135.876 142.062 135.075C140.561 134.274 139.364 133.587 139.389 133.54C139.414 133.493 140.651 134.104 142.153 134.904C143.654 135.705 144.85 136.392 144.825 136.439Z" fill="#FF8E3A"/>
<path d="M143.7 137.868C143.703 137.883 143.621 137.907 143.484 137.97C143.415 138.001 143.336 138.048 143.228 138.092C143.12 138.137 142.98 138.153 142.838 138.143C142.555 138.123 142.206 138.035 141.904 137.783C141.755 137.661 141.628 137.482 141.549 137.293C141.465 137.109 141.4 136.919 141.274 136.784C141.015 136.507 140.596 136.477 140.249 136.489C139.891 136.503 139.539 136.513 139.263 136.396C138.992 136.282 138.827 136.089 138.766 135.939C138.702 135.786 138.725 135.692 138.734 135.693C138.751 135.691 138.757 135.78 138.833 135.904C138.907 136.027 139.067 136.182 139.312 136.268C139.556 136.355 139.877 136.336 140.242 136.311C140.597 136.293 141.077 136.299 141.417 136.653C141.578 136.831 141.644 137.043 141.722 137.216C141.795 137.394 141.893 137.536 142.021 137.649C142.276 137.874 142.591 137.973 142.85 138.007C143.113 138.055 143.302 137.945 143.457 137.9C143.61 137.856 143.698 137.857 143.7 137.868Z" fill="#FF8E3A"/>
<path d="M135.033 88.776C130.621 83.3852 131.385 75.906 133.411 69.5607C133.749 68.5014 133.949 67.3408 134.723 66.546C135.496 65.7516 136.864 65.4452 137.695 66.1658C138.383 66.7639 138.468 67.7854 138.697 68.6746C139.001 69.8583 139.645 70.948 140.53 71.7782C141.111 72.3237 141.893 72.7776 142.67 72.5965C143.735 72.3479 144.203 71.1043 144.497 70.0384C145.044 68.0524 145.591 66.0667 146.138 64.0811C146.432 63.0156 146.735 61.9287 147.351 61.0126C147.967 60.0961 148.962 59.365 150.054 59.3669C151.146 59.3693 152.232 60.3055 152.152 61.4069C152.119 61.8655 151.904 62.2903 151.809 62.74C151.714 63.1898 151.782 63.7365 152.166 63.9778C152.556 64.2224 153.066 64.0406 153.472 63.8192C154.873 63.055 156.008 61.8818 157.093 60.7026C158.177 59.523 159.251 58.3055 160.577 57.4149C161.904 56.5248 163.544 55.9855 165.091 56.3292C166.639 56.673 167.997 58.071 167.96 59.6748C167.923 61.2837 166.619 62.5581 165.324 63.503C163.403 64.9056 161.283 66.0267 159.051 66.82C158.648 66.9635 158.213 67.118 157.973 67.4759C157.542 68.1199 158.015 69.0137 158.649 69.4441C159.367 69.9319 160.251 70.0927 161.052 70.4242C161.854 70.7561 162.649 71.3751 162.742 72.2476C162.871 73.4577 161.641 74.3407 160.536 74.8345C158.322 75.8238 155.943 76.4268 153.536 76.6106C152.672 76.6761 151.778 76.695 150.992 77.0666C150.206 77.4383 149.555 78.2866 149.725 79.1434C149.895 80.0012 150.805 80.5171 151.668 80.5962C152.53 80.6754 153.389 80.4374 154.253 80.363C155.871 80.224 157.73 80.8574 158.31 82.3849C158.691 83.389 158.419 84.5606 157.828 85.4626C157.238 86.3645 156.366 87.039 155.474 87.6361C152.355 89.7234 148.732 91.0903 145.009 91.309C141.287 91.5279 138.055 90.9593 135.033 88.776Z" fill="#D0E0FE"/>
<path d="M135.945 89.4397C136.893 86.9674 135.959 88.1889 137.821 85.226C139.676 82.2589 141.979 79.1752 144.499 76.0325C145.132 75.2493 145.758 74.4751 146.374 73.7126C146.991 72.9525 147.602 72.1988 148.247 71.4987C149.528 70.0924 150.868 68.8379 152.178 67.6869C153.486 66.5348 154.771 65.4896 155.979 64.5211C157.189 63.5546 158.334 62.6746 159.412 61.9177C161.564 60.3948 163.442 59.3745 164.759 58.7267C165.418 58.4004 165.937 58.1643 166.291 58.009C166.461 57.9359 166.594 57.878 166.694 57.8347C166.786 57.7969 166.833 57.7787 166.835 57.7818C166.837 57.7854 166.791 57.8096 166.703 57.8538C166.605 57.9019 166.474 57.9653 166.308 58.0468C165.96 58.214 165.446 58.4616 164.794 58.798C163.489 59.4669 161.629 60.5032 159.494 62.0366C158.424 62.7989 157.287 63.6827 156.083 64.6541C154.881 65.628 153.603 66.6766 152.3 67.8294C150.998 68.981 149.666 70.2339 148.392 71.6343C147.753 72.3319 147.148 73.0793 146.53 73.8417C145.914 74.6042 145.29 75.378 144.657 76.1612C142.139 79.3013 139.837 82.3741 137.978 85.327C136.114 88.275 137.041 87.0349 136.079 89.4922" fill="#D0E0FE"/>
<path d="M148.305 71.5065C148.291 71.5048 148.301 71.3337 148.329 71.0238C148.356 70.7142 148.41 70.2674 148.485 69.7166C148.633 68.6149 148.89 67.1008 149.18 65.4324C149.47 63.7633 149.704 62.2505 149.836 61.1497C149.903 60.5997 149.953 60.1539 149.983 59.8453C150.016 59.5367 150.04 59.3655 150.054 59.3661C150.068 59.367 150.071 59.5395 150.062 59.8502C150.056 60.161 150.027 60.6105 149.978 61.1643C149.883 62.2726 149.67 63.7956 149.38 65.4663C149.09 67.1116 148.827 68.6002 148.627 69.7378C148.54 70.2522 148.466 70.6858 148.407 71.0337C148.354 71.3395 148.319 71.5083 148.305 71.5065Z" fill="#D0E0FE"/>
<path d="M162.702 72.81C162.698 72.8235 162.497 72.7919 162.137 72.7217C161.777 72.6541 161.258 72.5529 160.611 72.449C159.321 72.2305 157.527 71.9917 155.537 71.8147C153.546 71.6408 151.737 71.56 150.428 71.5399C149.772 71.5249 149.242 71.5273 148.876 71.5266C148.509 71.5274 148.306 71.5211 148.305 71.507C148.305 71.4925 148.507 71.4719 148.874 71.4466C149.24 71.4228 149.772 71.3986 150.429 71.3945C151.743 71.3778 153.559 71.4355 155.557 71.6097C157.553 71.7873 159.349 72.0504 160.637 72.3059C161.282 72.4288 161.8 72.5514 162.155 72.6437C162.51 72.7379 162.704 72.7957 162.702 72.81Z" fill="#D0E0FE"/>
<path d="M138.06 85.0217C138.053 85.0225 138.037 84.9564 138.013 84.8282C137.987 84.6767 137.956 84.4917 137.919 84.2679C137.839 83.7803 137.743 83.0722 137.634 82.1959C137.417 80.4432 137.192 78.0123 136.981 75.327C136.769 72.6405 136.567 70.2109 136.386 68.4563C136.296 67.6026 136.221 66.9004 136.166 66.3784C136.143 66.1521 136.125 65.9658 136.11 65.8123C136.099 65.6828 136.096 65.6145 136.103 65.6128C136.11 65.6123 136.127 65.6785 136.15 65.8066C136.176 65.9582 136.207 66.1427 136.245 66.3669C136.324 66.8541 136.421 67.5623 136.529 68.4386C136.747 70.1917 136.971 72.6222 137.182 75.3087C137.394 77.9944 137.596 80.4235 137.777 82.1789C137.867 83.0322 137.942 83.7348 137.997 84.2565C138.02 84.4828 138.038 84.6695 138.053 84.8222C138.064 84.9521 138.067 85.0208 138.06 85.0217Z" fill="#D0E0FE"/>
<path d="M157.884 84.2934C157.884 84.3008 157.814 84.3084 157.682 84.3168C157.527 84.3246 157.336 84.3337 157.105 84.3449C156.573 84.3656 155.855 84.3931 154.981 84.4262C153.188 84.4954 150.712 84.6194 147.976 84.7601C145.24 84.9015 142.76 85.0023 140.965 85.0344C140.067 85.0509 139.341 85.0567 138.839 85.0505C138.607 85.0461 138.416 85.0423 138.261 85.04C138.129 85.0351 138.059 85.0291 138.059 85.0221C138.06 85.0151 138.129 85.0071 138.26 84.9982C138.416 84.9908 138.606 84.9818 138.838 84.9706C139.37 84.9499 140.088 84.9227 140.962 84.8893C142.755 84.8201 145.231 84.696 147.968 84.555C150.703 84.4144 153.182 84.3127 154.978 84.281C155.876 84.2646 156.602 84.2588 157.104 84.2649C157.336 84.2693 157.527 84.2724 157.682 84.2755C157.814 84.2803 157.884 84.2864 157.884 84.2934Z" fill="#D0E0FE"/>
<path d="M114.748 165.073L136.496 166.003L137.021 167.27L122.768 190.406L97.0367 189.656L114.748 165.073Z" fill="#FF8E3A"/>
<path d="M96.0602 187.4L121.946 188.879L135.467 167.896L125.973 168.668L101.944 177.13L96.0602 187.4Z" fill="#D0E0FE"/>
<path d="M92.4242 185.844L116.195 186.219C115.208 183.178 117.536 178.895 120.732 177.454C122.85 176.5 126.836 175.262 128.892 174.208C132.8 172.203 136.331 168.407 136.023 165.149L126.26 164.838L113.799 164.357C112.757 167.448 110.528 169.473 107.14 170.691C104.108 171.781 100.657 171.778 97.6996 173.017C92.9391 175.011 90.652 181.47 92.4242 185.844Z" fill="#D0E0FE"/>
<path d="M92.4246 185.844C92.4246 185.844 92.402 185.794 92.365 185.691C92.3265 185.583 92.2723 185.43 92.2022 185.232C92.1193 185.033 92.071 184.771 91.9997 184.463C91.9144 184.157 91.8859 183.791 91.8357 183.38C91.7757 182.558 91.7839 181.53 92.0246 180.358C92.2665 179.192 92.7257 177.877 93.5491 176.586C93.7626 176.269 93.9674 175.934 94.2335 175.63C94.362 175.476 94.4827 175.311 94.6226 175.16C94.7671 175.014 94.9135 174.865 95.0615 174.715C95.2041 174.559 95.3681 174.423 95.5367 174.288C95.705 174.154 95.8678 174.009 96.0458 173.879C96.4186 173.646 96.78 173.372 97.2034 173.189C98.8502 172.358 100.818 172.008 102.867 171.637C103.895 171.45 104.953 171.254 106.015 170.962C107.072 170.662 108.137 170.262 109.148 169.701C109.656 169.426 110.147 169.106 110.611 168.742C111.079 168.382 111.516 167.973 111.909 167.516C112.707 166.613 113.309 165.515 113.715 164.328L113.737 164.266L113.803 164.268C117.112 164.394 120.585 164.526 124.185 164.663C127.785 164.805 131.513 164.902 135.33 165.03C135.564 165.038 135.798 165.046 136.026 165.053L136.112 165.056L136.12 165.141C136.185 165.894 136.047 166.643 135.805 167.338C135.694 167.692 135.525 168.018 135.37 168.35C135.186 168.667 135.015 168.99 134.801 169.285C133.991 170.496 132.952 171.509 131.856 172.398C130.751 173.282 129.551 174.016 128.302 174.594C127.048 175.158 125.779 175.617 124.535 176.077C123.292 176.537 122.063 176.973 120.896 177.481C120.323 177.748 119.773 178.052 119.296 178.452C119.044 178.632 118.833 178.86 118.602 179.062C118.399 179.292 118.172 179.5 117.992 179.745C117.224 180.687 116.647 181.754 116.329 182.869C115.993 183.977 115.955 185.148 116.271 186.194L116.303 186.3L116.194 186.298C108.994 186.171 103.054 186.065 98.9067 185.992C96.84 185.949 95.2212 185.917 94.1127 185.895C93.5655 185.881 93.1452 185.87 92.855 185.863C92.5711 185.855 92.4246 185.844 92.4246 185.844C92.4246 185.844 92.5711 185.838 92.8554 185.839C93.1456 185.841 93.5659 185.844 94.1135 185.847C95.2224 185.86 96.8412 185.878 98.9082 185.901C103.056 185.958 108.996 186.041 116.197 186.14L116.12 186.244C115.79 185.16 115.829 183.954 116.17 182.823C116.493 181.683 117.078 180.597 117.858 179.636C118.042 179.386 118.271 179.173 118.479 178.938C118.714 178.732 118.929 178.499 119.187 178.314C119.672 177.906 120.239 177.59 120.823 177.318C122.001 176.804 123.229 176.366 124.472 175.905C125.714 175.444 126.982 174.983 128.224 174.423C129.457 173.851 130.645 173.124 131.737 172.249C132.82 171.369 133.846 170.367 134.642 169.178C134.852 168.888 135.018 168.571 135.198 168.261C135.349 167.937 135.516 167.617 135.623 167.274C135.858 166.599 135.989 165.877 135.927 165.159L136.02 165.246C135.792 165.239 135.558 165.231 135.324 165.224C131.507 165.096 127.779 164.997 124.179 164.853C120.578 164.712 117.105 164.576 113.796 164.446L113.884 164.385C113.47 165.591 112.855 166.711 112.039 167.63C111.638 168.095 111.191 168.51 110.715 168.875C110.242 169.245 109.743 169.569 109.228 169.846C108.202 170.412 107.126 170.815 106.057 171.115C104.984 171.407 103.922 171.601 102.894 171.785C100.843 172.149 98.8868 172.493 97.2614 173.306C96.8439 173.484 96.4879 173.752 96.119 173.981C95.943 174.107 95.7817 174.25 95.615 174.382C95.4483 174.514 95.2859 174.648 95.1445 174.801C94.9977 174.949 94.8524 175.095 94.7087 175.239C94.5704 175.387 94.45 175.55 94.3219 175.702C94.0578 176 93.8533 176.332 93.6403 176.644C92.8192 177.918 92.3549 179.22 92.1068 180.376C91.8599 181.537 91.8427 182.558 91.8933 183.376C91.9389 183.785 91.9623 184.148 92.0429 184.454C92.1087 184.761 92.1524 185.024 92.2307 185.223C92.2945 185.423 92.344 185.576 92.3791 185.686C92.4118 185.789 92.4246 185.844 92.4246 185.844Z" fill="#FF8E3A"/>
<path d="M120.477 164.742C120.46 164.737 120.508 164.589 120.531 164.317C120.552 164.047 120.534 163.642 120.344 163.194C120.161 162.753 119.797 162.262 119.22 161.991C118.653 161.717 117.903 161.66 117.217 161.918C116.527 162.172 116.029 162.734 115.77 163.311C115.501 163.892 115.464 164.491 115.541 164.967C115.619 165.447 115.801 165.808 115.948 166.037C116.095 166.268 116.205 166.377 116.193 166.389C116.186 166.396 116.057 166.305 115.886 166.08C115.716 165.857 115.506 165.492 115.407 164.991C115.308 164.495 115.331 163.859 115.608 163.238C115.873 162.623 116.402 162.012 117.149 161.737C117.887 161.459 118.69 161.526 119.299 161.83C119.918 162.135 120.295 162.672 120.471 163.143C120.654 163.623 120.651 164.049 120.606 164.326C120.583 164.465 120.554 164.571 120.526 164.64C120.501 164.709 120.484 164.744 120.477 164.742Z" fill="#FF8E3A"/>
<path d="M124.203 164.742C124.185 164.737 124.234 164.589 124.257 164.317C124.277 164.047 124.259 163.642 124.07 163.194C123.887 162.753 123.522 162.262 122.945 161.991C122.378 161.717 121.629 161.66 120.943 161.918C120.252 162.172 119.755 162.734 119.496 163.311C119.226 163.892 119.19 164.491 119.267 164.967C119.345 165.447 119.527 165.808 119.673 166.037C119.821 166.268 119.93 166.377 119.918 166.389C119.912 166.396 119.783 166.305 119.611 166.08C119.441 165.857 119.232 165.492 119.132 164.991C119.034 164.495 119.056 163.859 119.333 163.238C119.598 162.623 120.127 162.012 120.875 161.737C121.613 161.459 122.416 161.526 123.024 161.83C123.643 162.135 124.02 162.672 124.197 163.143C124.38 163.623 124.376 164.049 124.331 164.326C124.308 164.465 124.28 164.571 124.252 164.64C124.226 164.709 124.209 164.744 124.203 164.742Z" fill="#FF8E3A"/>
<path d="M127.032 164.936C127.015 164.931 127.055 164.782 127.061 164.508C127.067 164.238 127.026 163.834 126.812 163.398C126.603 162.967 126.213 162.498 125.622 162.259C125.04 162.019 124.287 162.004 123.617 162.301C122.943 162.593 122.478 163.183 122.252 163.774C122.016 164.369 122.013 164.969 122.117 165.439C122.222 165.915 122.424 166.265 122.583 166.485C122.743 166.707 122.859 166.81 122.848 166.823C122.841 166.83 122.707 166.746 122.524 166.532C122.341 166.319 122.112 165.966 121.984 165.471C121.857 164.982 121.844 164.345 122.085 163.71C122.315 163.08 122.809 162.441 123.539 162.125C124.261 161.805 125.066 161.826 125.691 162.095C126.326 162.363 126.733 162.879 126.935 163.34C127.145 163.808 127.166 164.234 127.137 164.513C127.122 164.653 127.1 164.761 127.075 164.831C127.054 164.902 127.039 164.937 127.032 164.936Z" fill="#FF8E3A"/>
<path d="M130.066 165.108C130.048 165.105 130.08 164.953 130.073 164.68C130.064 164.409 130.002 164.008 129.764 163.585C129.534 163.165 129.118 162.718 128.516 162.51C127.922 162.301 127.17 162.326 126.517 162.658C125.858 162.986 125.425 163.599 125.231 164.201C125.027 164.808 125.056 165.408 125.185 165.872C125.314 166.341 125.534 166.679 125.705 166.891C125.877 167.105 125.998 167.201 125.987 167.214C125.982 167.222 125.844 167.145 125.649 166.94C125.455 166.738 125.207 166.398 125.053 165.911C124.901 165.429 124.854 164.793 125.061 164.146C125.257 163.506 125.716 162.841 126.429 162.486C127.133 162.129 127.938 162.107 128.576 162.343C129.225 162.577 129.658 163.071 129.885 163.52C130.12 163.977 130.162 164.401 130.148 164.68C130.14 164.822 130.124 164.93 130.104 165.002C130.085 165.073 130.073 165.11 130.066 165.108Z" fill="#FF8E3A"/>
<path d="M133.105 165.037C133.087 165.034 133.115 164.882 133.1 164.609C133.083 164.338 133.01 163.94 132.761 163.522C132.519 163.11 132.091 162.674 131.483 162.484C130.883 162.291 130.132 162.338 129.489 162.688C128.839 163.034 128.424 163.659 128.247 164.266C128.059 164.879 128.105 165.477 128.247 165.938C128.39 166.403 128.62 166.735 128.796 166.942C128.974 167.15 129.098 167.243 129.088 167.257C129.082 167.265 128.942 167.192 128.741 166.993C128.542 166.796 128.284 166.462 128.117 165.98C127.951 165.503 127.887 164.868 128.075 164.216C128.253 163.57 128.694 162.893 129.396 162.518C130.089 162.141 130.894 162.097 131.538 162.315C132.193 162.531 132.641 163.011 132.88 163.455C133.127 163.904 133.182 164.327 133.175 164.607C133.171 164.749 133.158 164.857 133.14 164.929C133.124 165.001 133.112 165.038 133.105 165.037Z" fill="#FF8E3A"/>
<path d="M135.667 165.379C135.649 165.375 135.683 165.224 135.678 164.95C135.673 164.68 135.615 164.278 135.383 163.851C135.157 163.429 134.747 162.977 134.147 162.763C133.555 162.546 132.803 162.563 132.146 162.887C131.484 163.207 131.044 163.815 130.842 164.414C130.631 165.019 130.653 165.619 130.776 166.085C130.901 166.555 131.117 166.896 131.285 167.109C131.454 167.325 131.574 167.423 131.563 167.436C131.558 167.444 131.421 167.366 131.228 167.158C131.037 166.954 130.792 166.61 130.645 166.122C130.497 165.638 130.459 165.002 130.674 164.358C130.876 163.719 131.344 163.06 132.061 162.713C132.768 162.365 133.574 162.353 134.209 162.596C134.856 162.838 135.283 163.336 135.504 163.788C135.734 164.248 135.771 164.672 135.754 164.951C135.744 165.093 135.726 165.201 135.705 165.272C135.686 165.344 135.673 165.38 135.667 165.379Z" fill="#FF8E3A"/>
<path d="M68.1982 110C68.1982 110 65.8206 111.689 70.1791 116.554C74.5379 121.419 77.2631 123.677 77.2631 123.677C77.2631 123.677 78.1179 124.848 77.0725 125.342C76.0272 125.836 73.5046 126.091 73.3708 127.565C73.2324 129.094 74.5944 130.142 76.9541 130.753C79.3143 131.363 84.4354 132.89 84.8983 133.03C85.3523 133.168 85.9045 133.672 85.2467 134.122C84.5884 134.572 79.2948 136.582 80.3987 139.037C81.5024 141.491 88.3569 142.112 89.1046 142.194C89.8525 142.276 90.0912 142.521 90.1347 142.908C90.1777 143.295 88.3352 143.803 86.8529 144.436C85.3706 145.07 83.7629 146.064 84.5184 147.426C85.2739 148.789 89.7895 150.877 99.0148 149.378L103.244 148.403L104.588 144.256C106.924 135.206 105.257 130.519 103.969 129.643C102.68 128.765 101.544 130.275 100.778 131.693C100.012 133.112 99.338 134.901 98.9568 134.822C98.5748 134.743 98.353 134.484 98.3394 133.732C98.3258 132.979 98.3339 126.097 95.9904 124.773C93.6466 123.45 91.1624 128.538 90.6538 129.152C90.1451 129.767 89.6934 129.171 89.5981 128.706C89.5012 128.232 88.4481 122.993 88.0558 120.587C87.6635 118.181 86.7441 116.729 85.2088 116.727C83.728 116.726 83.244 119.215 82.6565 120.211C82.0694 121.207 80.9812 120.248 80.9812 120.248C80.9812 120.248 78.9814 117.328 74.5347 112.544C70.0887 107.759 68.1526 110.038 68.1526 110.038" fill="#D0E0FE"/>
<path d="M103.723 149.332C100.471 145.805 94.7972 139.44 89.8974 134C84.9995 128.562 80.5598 123.643 77.3266 120.1C75.7105 118.333 74.4016 116.902 73.4932 115.908C73.0437 115.416 72.6933 115.032 72.4513 114.767C72.3363 114.639 72.2469 114.539 72.1824 114.468C72.1227 114.4 72.095 114.363 72.095 114.363C72.095 114.363 72.1297 114.394 72.1927 114.459C72.2596 114.528 72.3518 114.624 72.471 114.749C72.7173 115.01 73.0739 115.388 73.5315 115.872C74.4508 116.849 75.7713 118.271 77.3964 120.035C80.6481 123.562 85.0995 128.471 89.9974 133.91C94.8972 139.35 100.56 145.724 103.793 149.268" fill="#D0E0FE"/>
<path d="M76.9143 127.351C76.9152 127.341 77.0269 127.343 77.2283 127.355C77.4302 127.365 77.7207 127.389 78.0799 127.422C78.7979 127.488 79.7871 127.606 80.877 127.756C81.9503 127.907 82.9218 128.044 83.6645 128.148C83.9992 128.193 84.2822 128.232 84.5091 128.262C84.7089 128.288 84.8195 128.307 84.8187 128.316C84.8179 128.325 84.7063 128.324 84.5046 128.314C84.3027 128.303 84.0118 128.28 83.653 128.243C82.9356 128.169 81.9476 128.039 80.8588 127.889C79.7841 127.745 78.8127 127.616 78.0694 127.516C77.7337 127.473 77.4507 127.436 77.2233 127.407C77.0238 127.379 76.9135 127.36 76.9143 127.351Z" fill="#D0E0FE"/>
<path d="M85.0344 127.972C84.9971 127.969 85.1498 125.918 85.3751 123.393C85.6002 120.866 85.8129 118.821 85.8501 118.825C85.887 118.828 85.7347 120.878 85.5095 123.405C85.2839 125.93 85.0713 127.975 85.0344 127.972Z" fill="#D0E0FE"/>
<path d="M92.1805 136.664C92.1718 136.66 92.2088 136.552 92.2822 136.36C92.3674 136.142 92.4734 135.87 92.5992 135.548C92.8657 134.863 93.2296 133.915 93.593 132.855C93.9588 131.795 94.2563 130.824 94.4663 130.119C94.5658 129.788 94.6489 129.509 94.7157 129.285C94.776 129.088 94.813 128.98 94.8223 128.982C94.8312 128.985 94.8109 129.097 94.7668 129.298C94.722 129.499 94.6523 129.789 94.5582 130.145C94.3719 130.858 94.0874 131.835 93.7208 132.899C93.3562 133.962 92.9771 134.907 92.6876 135.584C92.541 135.922 92.4201 136.195 92.3306 136.38C92.2419 136.566 92.1892 136.668 92.1805 136.664Z" fill="#D0E0FE"/>
<path d="M84.7126 137.718C84.7111 137.709 84.814 137.684 85.0002 137.647C85.2156 137.608 85.4804 137.56 85.7925 137.503C86.4623 137.388 87.3896 137.237 88.4148 137.079C89.44 136.921 90.3695 136.785 91.043 136.693C91.3579 136.653 91.6246 136.619 91.8421 136.592C92.031 136.571 92.1361 136.564 92.1376 136.573C92.1387 136.582 92.0366 136.607 91.8496 136.644C91.6343 136.683 91.3694 136.731 91.0577 136.788C90.3875 136.903 89.4607 137.054 88.4354 137.212C87.4098 137.37 86.4808 137.506 85.8072 137.598C85.4927 137.637 85.2253 137.672 85.0085 137.699C84.8192 137.72 84.7141 137.727 84.7126 137.718Z" fill="#D0E0FE"/>
<path d="M90.0472 146.193C90.0456 146.183 90.1768 146.152 90.4159 146.106C90.6803 146.057 91.0218 145.993 91.4308 145.917C92.2887 145.764 93.4749 145.562 94.7867 145.347C96.0988 145.131 97.2884 144.944 98.1501 144.815C98.5623 144.756 98.9052 144.707 99.1717 144.669C99.4131 144.637 99.5476 144.624 99.5492 144.634C99.5507 144.643 99.4191 144.674 99.18 144.721C98.916 144.77 98.5749 144.833 98.1655 144.909C97.3076 145.062 96.1214 145.264 94.8089 145.48C93.4971 145.695 92.3075 145.882 91.4459 146.012C91.034 146.07 90.6911 146.119 90.425 146.157C90.1832 146.189 90.0486 146.202 90.0472 146.193Z" fill="#D0E0FE"/>
<path d="M99.3116 144.607C99.3029 144.604 99.3457 144.466 99.4308 144.219C99.5247 143.95 99.6472 143.599 99.7952 143.176C100.102 142.295 100.522 141.076 100.946 139.718C101.373 138.361 101.727 137.122 101.977 136.223C102.097 135.791 102.197 135.433 102.274 135.159C102.345 134.907 102.389 134.77 102.398 134.771C102.406 134.774 102.38 134.916 102.325 135.171C102.269 135.426 102.183 135.794 102.069 136.247C101.842 137.153 101.502 138.399 101.075 139.758C100.649 141.119 100.215 142.335 99.8847 143.208C99.7184 143.644 99.5805 143.996 99.4798 144.237C99.3794 144.479 99.3202 144.61 99.3116 144.607Z" fill="#D0E0FE"/>
<path d="M52.1613 102.643L53.7099 105.123C53.7099 105.123 60.3162 99.0444 66.8696 100.763C66.8696 100.763 60.9799 95.7687 52.1613 102.643Z" fill="#8446FF"/>
<path d="M66.8696 100.763C66.8696 100.763 71.7188 95.4977 78.8292 96.6985L80.7685 96.9906L80.1492 95.8708C80.1492 95.8708 67.7826 91.635 66.8696 100.763Z" fill="#8446FF"/>
<path d="M56.6343 83.0071C56.6343 83.0071 46.9213 81.3358 40.5499 84.7829L50.6656 103.829C50.6656 103.829 58.9463 95.8474 66.8692 100.763L56.6343 83.0071Z" fill="#D0E0FE"/>
<path d="M56.6343 83.0076C56.6358 83.0056 56.6534 83.0317 56.6861 83.0851C56.7227 83.1451 56.7698 83.2238 56.8314 83.325C56.9622 83.5463 57.1496 83.8625 57.3911 84.2715C57.8822 85.112 58.5938 86.3316 59.4967 87.8767C61.3059 90.9978 63.8778 95.4326 66.9439 100.72C66.9673 100.761 66.9533 100.814 66.9128 100.837C66.8844 100.854 66.8501 100.852 66.824 100.836C65.7256 100.162 64.4636 99.6497 63.1008 99.4067C62.418 99.2941 61.7141 99.2466 61.001 99.261C60.2882 99.2898 59.568 99.3798 58.8501 99.5313C55.9811 100.168 53.1942 101.726 50.8155 103.822L50.733 103.899C50.6944 103.936 50.6332 103.935 50.5959 103.897C50.59 103.891 50.5842 103.882 50.5803 103.875C46.8224 96.7861 43.3391 90.2153 40.479 84.8203C40.4583 84.7829 40.472 84.7354 40.5098 84.7144L40.5117 84.7132C42.7393 83.5614 44.9995 83.0621 46.986 82.7969C48.9822 82.5394 50.7345 82.5308 52.1671 82.5717C53.6012 82.6192 54.7195 82.7342 55.4778 82.828C55.8572 82.874 56.1466 82.9184 56.341 82.9507C56.4329 82.9671 56.5057 82.9799 56.5614 82.9897C56.6117 83.0002 56.6354 83.006 56.6343 83.0076C56.6331 83.0091 56.607 83.0072 56.5583 83.0013C56.5022 82.9947 56.4298 82.9858 56.3371 82.9745C56.1419 82.9503 55.8518 82.9137 55.4724 82.8751C54.7133 82.7969 53.5954 82.6968 52.1648 82.6629C50.7353 82.6356 48.988 82.657 47.0027 82.9246C45.0272 83.1992 42.784 83.7071 40.5877 84.853L40.62 84.7459C43.4883 90.1362 46.9825 96.7012 50.7513 103.784L50.5986 103.76L50.6854 103.679C51.8843 102.605 53.195 101.705 54.5578 100.962C55.9238 100.225 57.3556 99.6618 58.8112 99.3479C59.5396 99.1952 60.271 99.1044 60.9959 99.0764C61.7215 99.0635 62.4363 99.1126 63.1315 99.2287C64.5181 99.4784 65.8015 100.003 66.9147 100.69L66.7952 100.806C63.7629 95.5144 61.2187 91.0757 59.4289 87.9527C58.5417 86.3931 57.8417 85.1627 57.3587 84.3144C57.1243 83.8968 56.9424 83.5735 56.8154 83.3476C56.757 83.2413 56.7126 83.1591 56.6779 83.0964C56.6475 83.0395 56.6331 83.0095 56.6343 83.0076Z" fill="#FF8E3A"/>
<path d="M71.9019 79.0993C71.9019 79.0993 64.5544 74.4167 56.7585 83.0079L66.9942 100.764C66.9942 100.764 69.0831 93.5564 81.3033 96.0628L71.9019 79.0993Z" fill="#D0E0FE"/>
<path d="M71.9023 79.0993C71.9042 79.0978 71.9206 79.1235 71.9514 79.1741C71.9852 79.2317 72.0293 79.3069 72.0861 79.4035C72.2069 79.6154 72.3794 79.918 72.6014 80.3079C73.0529 81.1111 73.7068 82.2749 74.5361 83.7507C76.1969 86.73 78.5588 90.9654 81.378 96.0219C81.401 96.0632 81.3862 96.115 81.3449 96.138C81.3274 96.1477 81.3079 96.1505 81.29 96.1477L81.2865 96.1466C80.691 96.0488 80.0845 95.9491 79.4668 95.8478C79.1594 95.7859 78.8439 95.7687 78.5269 95.7434C78.2094 95.7185 77.8901 95.6924 77.5676 95.6667C77.2458 95.6289 76.9202 95.6371 76.5919 95.6437C76.2639 95.6476 75.9336 95.6519 75.601 95.6562C75.2683 95.6636 74.9373 95.724 74.6019 95.7555C74.2677 95.798 73.9269 95.8151 73.5974 95.9066C73.2647 95.9818 72.9302 96.0581 72.5932 96.1341C72.2676 96.2478 71.9404 96.3623 71.6113 96.4776C71.2814 96.5918 70.9784 96.7733 70.6582 96.9189C70.4958 96.9887 70.347 97.0833 70.1998 97.1811L69.7518 97.4681C69.4566 97.6652 69.1921 97.9083 68.9129 98.1326C68.6675 98.3932 68.3909 98.6277 68.1767 98.9202C67.7175 99.4733 67.3253 100.111 67.0877 100.79L67.0857 100.796C67.0682 100.846 67.0129 100.872 66.9622 100.854C66.94 100.847 66.9221 100.831 66.9108 100.812C66.7807 100.586 66.6394 100.341 66.498 100.096C62.8791 93.8061 59.5064 87.9456 56.688 83.0481C56.6705 83.0169 56.6756 82.978 56.6989 82.9526C58.4295 81.0651 60.3396 79.6248 62.2435 78.7838C64.143 77.9219 65.9963 77.7076 67.474 77.8027C68.9612 77.895 70.088 78.2564 70.8202 78.5521C71.1879 78.7005 71.4582 78.8403 71.6382 78.9373C71.7223 78.9864 71.7878 79.0245 71.8388 79.0541C71.8828 79.0833 71.9038 79.0981 71.9023 79.0993C71.9007 79.1009 71.877 79.0892 71.8318 79.065C71.78 79.0382 71.7126 79.0039 71.6265 78.9595C71.4434 78.8703 71.1704 78.739 70.8015 78.5984C70.0673 78.3188 68.9436 77.9744 67.4686 77.8969C66.0029 77.8167 64.1723 78.0418 62.2976 78.9053C60.4183 79.7482 58.5319 81.1828 56.8193 83.0625L56.8298 82.9671C59.6556 87.8603 63.0369 93.7153 66.6658 99.9995C66.8072 100.244 66.9478 100.489 67.0783 100.715L66.9015 100.736C67.1558 100.01 67.5543 99.3705 68.0271 98.7987C68.2476 98.4988 68.5308 98.2569 68.7832 97.9901C69.0687 97.7607 69.3401 97.5129 69.642 97.3112L70.1001 97.0183C70.2512 96.9186 70.4031 96.822 70.5686 96.7503C70.8954 96.6019 71.2055 96.4169 71.5412 96.3012C71.8766 96.1843 72.21 96.0687 72.5414 95.9534C72.8834 95.8763 73.2235 95.7995 73.5612 95.7236C73.8961 95.6316 74.2412 95.6133 74.5797 95.5709C74.919 95.5393 75.2547 95.4801 75.5912 95.4727C75.9274 95.4692 76.2608 95.4653 76.5922 95.4618C76.9241 95.456 77.2528 95.4486 77.5769 95.4871C77.9017 95.5136 78.2239 95.5405 78.5436 95.5666C78.863 95.5927 79.1813 95.6114 79.4905 95.6741C80.1118 95.7777 80.7221 95.8798 81.3208 95.9799L81.2289 96.1049C78.4389 91.0402 76.1023 86.7982 74.4586 83.8138C73.6461 82.3263 73.0046 81.1531 72.5621 80.3434C72.3483 79.9461 72.1823 79.6384 72.0663 79.4226C72.0133 79.3217 71.9728 79.2438 71.9416 79.1834C71.9136 79.1297 71.9007 79.1009 71.9023 79.0993Z" fill="#FF8E3A"/>
<path d="M43.2853 75.6277L54.2396 96.7195C54.2396 96.7195 63.1424 96.33 66.9105 100.669L56.7585 83.0072C56.7585 83.0072 50.8054 75.6277 43.2853 75.6277Z" fill="#D0E0FE"/>
<path d="M43.2857 75.6277C43.2857 75.6277 43.3757 75.6293 43.5634 75.6363C43.7628 75.6445 44.0444 75.6565 44.4082 75.6713C44.5009 75.6768 44.601 75.6772 44.7042 75.6885C44.8055 75.7052 44.9122 75.7231 45.024 75.7414C45.2484 75.7788 45.4926 75.819 45.7563 75.863C46.0235 75.8945 46.2981 75.9849 46.5953 76.0636C46.8893 76.1532 47.2134 76.2131 47.5347 76.3413C50.153 77.2126 53.6639 79.3245 56.8208 82.9577L56.8267 82.9659L56.8278 82.9678C59.7179 87.9862 63.2172 94.062 66.9949 100.621C67.0214 100.667 67.0055 100.726 66.9591 100.752C66.9209 100.775 66.8734 100.767 66.843 100.737L66.838 100.732C66.7024 100.597 66.5552 100.451 66.408 100.305C65.5935 99.5154 64.6291 98.8922 63.604 98.452C62.5846 98.0014 61.5322 97.6532 60.4704 97.4249C58.3535 96.9493 56.2405 96.7706 54.2443 96.8103H54.2415C54.2061 96.8111 54.1749 96.7912 54.1598 96.7616C50.9666 90.5689 48.2386 85.2784 46.3043 81.5279C45.3504 79.6696 44.5925 78.1934 44.0694 77.1736C43.8146 76.6755 43.6179 76.2895 43.4801 76.0199C43.4173 75.8953 43.3683 75.7979 43.3317 75.7251C43.2989 75.6593 43.2834 75.6265 43.2857 75.6277C43.288 75.6289 43.3079 75.6647 43.3445 75.7333C43.3846 75.8077 43.438 75.9074 43.5061 76.0355C43.6503 76.3078 43.8559 76.6977 44.1216 77.2009C44.6579 78.2214 45.4342 79.6988 46.411 81.5586C48.3581 85.2811 51.1053 90.5315 54.3202 96.6779L54.2361 96.6292C56.2557 96.5852 58.3738 96.7628 60.5129 97.2399C61.584 97.4689 62.6489 97.8195 63.6834 98.276C64.723 98.7223 65.7076 99.3564 66.5435 100.167C66.6946 100.317 66.845 100.467 66.984 100.606L66.8271 100.717C63.0606 94.1516 59.5719 88.0703 56.6899 83.0469L56.6973 83.057C55.1553 81.2443 53.4738 79.825 51.9022 78.7188C50.3162 77.6286 48.8072 76.8698 47.5051 76.427C47.1865 76.2965 46.8652 76.2338 46.5738 76.1415C46.2798 76.0597 46.0071 75.967 45.7423 75.9315C45.4805 75.8844 45.2383 75.8396 45.0155 75.7995C44.9045 75.7792 44.7985 75.7601 44.6976 75.7418C44.5967 75.729 44.5017 75.7263 44.4117 75.7185C43.743 75.6643 43.4321 75.6394 43.2857 75.6277Z" fill="#FF8E3A"/>
<path d="M64.6086 124.069C63.719 128.267 59.5953 130.948 55.3982 130.058C51.2011 129.168 48.5195 125.045 49.4091 120.848C50.2987 116.651 54.4224 113.97 58.6195 114.859C62.8166 115.749 65.4982 119.872 64.6086 124.069Z" fill="#8446FF"/>
<path d="M55.5184 124.622C55.3732 125.306 54.7005 125.743 54.0161 125.598C53.3314 125.453 52.8942 124.781 53.0394 124.096C53.1845 123.411 53.8569 122.974 54.5416 123.119C55.2259 123.264 55.6635 123.937 55.5184 124.622Z" fill="#D0E0FE"/>
<path d="M54.518 120.672C54.4336 121.07 54.0424 121.325 53.6442 121.24C53.2461 121.156 52.9917 120.765 53.0761 120.367C53.1605 119.968 53.5517 119.714 53.9499 119.798C54.3481 119.882 54.6024 120.274 54.518 120.672Z" fill="#D0E0FE"/>
<path d="M49.2444 122.744C49.2508 122.884 41.383 127.771 42.785 129.465C44.1867 131.158 52.0033 129.233 59.0815 125.632C66.1597 122.032 72.9373 117.274 71.7587 115.385C70.5804 113.496 62.0429 116.54 62.0429 116.54L62.8236 117.307C62.8236 117.307 68.0109 115.345 69.2143 116.789C70.4178 118.232 65.3589 121.801 58.6482 124.812C51.9379 127.822 45.6914 129.61 45.0659 128.263C44.4409 126.916 49.3754 123.911 49.3754 123.911L49.2444 122.744Z" fill="#8446FF"/>
<path d="M49.2445 122.744C49.2509 122.883 41.383 127.771 42.785 129.465C44.1867 131.158 52.0033 129.233 59.0815 125.632C66.1597 122.032 72.9373 117.274 71.7587 115.385C70.5804 113.496 62.0429 116.54 62.0429 116.54L62.8236 117.307C62.8236 117.307 68.0109 115.345 69.2143 116.789C70.4178 118.232 65.3589 121.801 58.6482 124.812C51.9379 127.822 45.6914 129.61 45.0659 128.263C44.4409 126.916 49.3754 123.911 49.3754 123.911L49.2445 122.744Z" fill="#8446FF"/>
<path d="M53.9558 116.218C54.0016 116.304 53.3937 116.633 52.6248 117.387C51.8583 118.127 50.9578 119.366 50.5883 120.946C50.2217 122.528 50.4823 124.037 50.8427 125.04C51.1994 126.056 51.5997 126.619 51.5203 126.676C51.471 126.721 50.9346 126.239 50.4489 125.2C50.2067 124.684 49.9952 124.028 49.8926 123.274C49.7887 122.523 49.8064 121.671 50.0028 120.81C50.2073 119.95 50.567 119.179 50.9924 118.551C51.4172 117.92 51.8967 117.425 52.3416 117.069C53.2371 116.352 53.9308 116.156 53.9558 116.218Z" fill="#D0E0FE"/>
<path d="M136.184 51.9849C136.268 48.4467 139.204 45.6466 142.743 45.7303C146.281 45.8145 149.081 48.7505 148.997 52.2887C148.913 55.827 145.977 58.6271 142.439 58.5433C138.901 58.4592 136.1 55.5232 136.184 51.9849Z" fill="#8446FF"/>
<path d="M144.678 49.6823C144.692 49.1054 145.171 48.6485 145.748 48.6622C146.326 48.6762 146.782 49.1549 146.768 49.7317C146.754 50.309 146.276 50.7659 145.699 50.7522C145.122 50.7382 144.665 50.2595 144.678 49.6823Z" fill="#FF8E3A"/>
<path d="M146.769 52.1224C146.777 51.7867 147.055 51.5211 147.391 51.5292C147.727 51.537 147.992 51.8155 147.984 52.1513C147.976 52.487 147.698 52.7527 147.362 52.7449C147.026 52.7367 146.761 52.4582 146.769 52.1224Z" fill="#FF8E3A"/>
<path d="M145.953 53.9893C146.077 53.9924 146.175 54.0949 146.172 54.2187C146.169 54.3426 146.066 54.4407 145.943 54.4376C145.819 54.4349 145.721 54.3321 145.724 54.2082C145.727 54.0844 145.829 53.9866 145.953 53.9893Z" fill="#FF8E3A"/>
<path d="M109.36 45.0608C109.022 39.8275 104.505 35.8593 99.2721 36.1973C94.0388 36.5354 90.0706 41.0521 90.4086 46.2854C90.6536 50.0744 93.0896 53.1986 96.4011 54.507C96.4732 55.6299 96.5553 56.8977 96.5553 56.8977L104.86 56.361C104.86 56.361 104.824 55.016 104.765 53.8172C107.715 52.0461 109.597 48.7307 109.36 45.0608Z" fill="#8446FF"/>
<path d="M101.855 56.516C101.855 56.516 101.853 56.4759 101.856 56.3984C101.861 56.3162 101.866 56.2017 101.873 56.0541C101.89 55.7518 101.915 55.3055 101.962 54.7317C102.009 54.158 102.076 53.4561 102.206 52.6475C102.339 51.8413 102.532 50.9228 102.896 49.9549C103.077 49.4716 103.292 48.9749 103.583 48.4869C103.733 48.2474 103.925 48.0113 104.193 47.8629C104.46 47.7133 104.805 47.6911 105.095 47.8341C105.238 47.9054 105.364 48.0323 105.419 48.1901C105.48 48.3447 105.475 48.5255 105.411 48.6785C105.284 48.9882 105.018 49.2149 104.72 49.3566C104.108 49.6161 103.384 49.6079 102.741 49.3446C102.096 49.0824 101.559 48.5309 101.301 47.8501C101.176 47.5116 101.096 47.1369 101.174 46.7606C101.24 46.3875 101.576 46.0354 101.993 46.0467C102.199 46.0482 102.394 46.1768 102.496 46.3493C102.603 46.5211 102.641 46.7303 102.61 46.9289C102.545 47.3301 102.279 47.6444 102.005 47.9136C101.44 48.4456 100.644 48.7724 99.8376 48.6968C99.0368 48.6213 98.2913 48.1434 97.9174 47.4497C97.7226 47.1088 97.6541 46.6847 97.7787 46.3057C97.8418 46.1187 97.9754 45.9392 98.1674 45.8597C98.356 45.7729 98.576 45.7943 98.754 45.8757C98.9344 45.9563 99.0855 46.0985 99.1809 46.266C99.2802 46.4323 99.3324 46.6181 99.3609 46.8023C99.4119 47.1719 99.3827 47.5443 99.2869 47.8945C99.1003 48.5963 98.6473 49.2079 98.0537 49.5701C97.4636 49.9358 96.759 50.0679 96.1105 49.9662C95.7903 49.9167 95.4592 49.8116 95.2283 49.5689C95.0024 49.3321 94.9175 48.9395 95.1165 48.6598C95.2158 48.5247 95.3728 48.446 95.529 48.4238C95.6859 48.4024 95.8445 48.4242 95.987 48.4826C96.2772 48.6034 96.4657 48.853 96.6087 49.0953C96.8801 49.5939 97.1037 50.0807 97.3281 50.545C98.2091 52.406 98.8483 53.945 99.2791 55.0122C99.4941 55.5458 99.6546 55.963 99.7624 56.2461C99.8139 56.3844 99.8536 56.4919 99.8824 56.569C99.9089 56.6422 99.9194 56.6804 99.9194 56.6804C99.9194 56.6804 99.9011 56.645 99.8711 56.5733C99.84 56.4974 99.7967 56.3914 99.7402 56.2547C99.6234 55.97 99.4543 55.5579 99.237 55.0293C98.7941 53.9679 98.1433 52.4349 97.2537 50.5808C97.0282 50.1205 96.7991 49.6277 96.5312 49.1409C96.3925 48.9064 96.2094 48.6739 95.952 48.5695C95.7019 48.4659 95.3623 48.4885 95.1948 48.7167C95.0304 48.9434 95.0993 49.2935 95.3007 49.5004C95.5068 49.7169 95.8168 49.8186 96.1265 49.8649C96.7504 49.9612 97.4305 49.8318 97.9972 49.4786C98.5663 49.13 99.0006 48.5414 99.1794 47.8656C99.2709 47.5291 99.2978 47.1696 99.2491 46.8191C99.2016 46.4747 99.0329 46.1215 98.7073 45.9801C98.5511 45.9092 98.3676 45.8932 98.2134 45.9649C98.056 46.0303 97.9446 46.1772 97.8878 46.3435C97.7768 46.6835 97.8352 47.0742 98.019 47.3943C98.3723 48.051 99.087 48.5099 99.8489 48.5808C100.616 48.6532 101.382 48.3404 101.925 47.829C102.19 47.5704 102.44 47.2662 102.496 46.9118C102.523 46.7384 102.489 46.5561 102.399 46.4101C102.311 46.2632 102.156 46.1627 101.988 46.1608C101.821 46.155 101.652 46.2286 101.527 46.3431C101.4 46.4568 101.321 46.6161 101.284 46.7852C101.212 47.1256 101.285 47.4863 101.405 47.8103C101.651 48.4631 102.166 48.9932 102.782 49.2453C103.395 49.5 104.1 49.507 104.676 49.2636C104.956 49.1331 105.206 48.9157 105.318 48.6427C105.438 48.3704 105.31 48.0409 105.051 47.9206C104.797 47.7928 104.479 47.8096 104.238 47.9451C103.991 48.0803 103.807 48.3027 103.659 48.5348C103.372 49.0104 103.155 49.5066 102.972 49.9841C102.607 50.9427 102.409 51.8553 102.27 52.6584C102.135 53.4631 102.062 54.1631 102.008 54.7356C101.96 55.3051 101.922 55.7491 101.897 56.0557C101.884 56.2029 101.875 56.3174 101.868 56.3992C101.861 56.4767 101.855 56.516 101.855 56.516Z" fill="#FF8E3A"/>
<path d="M104.321 57.9396L97.1898 58.4004C96.8946 58.4195 96.6387 58.1955 96.6196 57.8999C96.6009 57.6043 96.8253 57.3495 97.1209 57.3304L104.251 56.8697C104.547 56.8506 104.802 57.0749 104.821 57.3706C104.84 57.6658 104.616 57.9205 104.321 57.9396Z" fill="#FF8E3A"/>
<path d="M104.351 58.4074L97.2198 58.8682C96.9246 58.8872 96.7002 59.1428 96.7193 59.4384C96.7388 59.7336 96.9935 59.958 97.2892 59.9389L98.0721 59.8883L99.2382 61.7972C99.3718 62.0157 99.6153 62.1423 99.8704 62.1259L102.418 61.9616C102.676 61.9448 102.903 61.7843 103.006 61.5475L103.888 59.5124L104.42 59.4781C104.716 59.459 104.94 59.2035 104.921 58.9079C104.902 58.6123 104.646 58.3883 104.351 58.4074Z" fill="#FF8E3A"/>
<path d="M93.4066 40.0288C94.006 39.3994 94.6472 38.9429 95.2228 38.6449C95.7989 38.345 96.2998 38.1853 96.6558 38.1261C97.0122 38.0657 97.2182 38.0871 97.2405 38.1615C97.293 38.331 96.5912 38.6324 95.6649 39.3413C94.7418 40.0362 93.6052 41.2211 92.977 42.8324C92.3542 44.4457 92.3943 46.0875 92.6073 47.2229C92.8134 48.3711 93.1281 49.0668 92.9754 49.1567C92.9088 49.1965 92.7417 49.0734 92.5197 48.7887C92.2965 48.5047 92.0344 48.049 91.8112 47.439C91.5872 46.8306 91.4213 46.0614 91.4034 45.1924C91.3839 44.3254 91.5277 43.3583 91.8895 42.4102" fill="#D0E0FE"/>
<path d="M99.5459 38.423C98.9449 38.4561 98.4043 38.326 98.3221 38.0121C98.2859 37.8563 98.3856 37.681 98.5944 37.5357C98.8016 37.3908 99.1175 37.2798 99.4766 37.2584C99.8357 37.2373 100.163 37.3098 100.385 37.4294C100.61 37.5486 100.73 37.711 100.712 37.8699" fill="#D0E0FE"/>
<path d="M102.884 61.7247C102.877 61.743 102.692 61.6725 102.385 61.6055C102.078 61.5378 101.643 61.4875 101.165 61.5311C100.688 61.5771 100.27 61.7072 99.981 61.8307C99.6908 61.9537 99.5226 62.0574 99.512 62.041C99.5046 62.0309 99.6581 61.9016 99.9463 61.7559C100.233 61.6098 100.662 61.4622 101.155 61.4151C101.647 61.3699 102.096 61.4353 102.405 61.5253C102.715 61.6149 102.89 61.7134 102.884 61.7247Z" fill="#FF8E3A"/>
<path d="M103.904 59.535C103.907 59.5674 102.619 59.6764 101.029 59.7792C99.4388 59.8821 98.1484 59.9397 98.1464 59.9078C98.1441 59.8754 99.4314 59.7656 101.022 59.6632C102.612 59.56 103.902 59.5027 103.904 59.535Z" fill="#FF8E3A"/>
<path d="M103.513 60.4098C103.515 60.4254 103.249 60.4717 102.816 60.5271C102.383 60.5824 101.783 60.6462 101.12 60.6984C100.455 60.751 99.8529 60.7814 99.4162 60.7946C98.98 60.8075 98.7101 60.8044 98.7093 60.7884C98.7085 60.7721 98.9773 60.7463 99.4119 60.7121C99.8817 60.6762 100.465 60.6314 101.11 60.582C101.755 60.5298 102.337 60.483 102.808 60.4449C103.242 60.4106 103.511 60.3935 103.513 60.4098Z" fill="#FF8E3A"/>
<path d="M75.8381 39.971H75.2679C74.1033 39.971 73.1595 39.0272 73.1595 37.8626V27.9946H77.9465V37.8626C77.9465 39.0272 77.0024 39.971 75.8381 39.971Z" fill="#8446FF"/>
<path d="M73.1595 27.9943L75.553 23.6046L77.9465 27.9943H73.1595Z" fill="#FF8E3A"/>
<path d="M74.605 25.3433C74.605 25.3433 75.3318 26.4366 76.5011 25.3433L75.553 23.605L74.605 25.3433Z" fill="#8446FF"/>
<path d="M-217.893 -43.9775H280.667V236.462H-217.893V-43.9775ZM-217.893 236.462H280.667V-43.9775H-217.893V236.462ZM73.8685 27.995H74.896H73.8685Z" fill="#D0E0FE"/>
<path d="M78.0128 37.382C78.0128 37.4354 76.923 37.479 75.5796 37.479C74.2354 37.479 73.146 37.4354 73.146 37.382C73.146 37.3287 74.2354 37.285 75.5796 37.285C76.923 37.285 78.0128 37.3287 78.0128 37.382Z" fill="#FF8E3A"/>
<path d="M77.9637 36.6481C77.9637 36.7015 76.8957 36.7455 75.5792 36.7455C74.2619 36.7455 73.1947 36.7015 73.1947 36.6481C73.1947 36.5947 74.2619 36.5515 75.5792 36.5515C76.8957 36.5515 77.9637 36.5947 77.9637 36.6481Z" fill="#FF8E3A"/>
<path d="M74.5645 28.0648C74.6183 28.0648 74.6611 29.9757 74.6611 32.3322C74.6611 34.6894 74.6183 36.5995 74.5645 36.5995C74.5112 36.5995 74.4675 34.6894 74.4675 32.3322C74.4675 29.9757 74.5112 28.0648 74.5645 28.0648Z" fill="#D0E0FE"/>
<path d="M76.5015 28.0648C76.5549 28.0648 76.5981 29.9757 76.5981 32.3322C76.5981 34.6894 76.5549 36.5995 76.5015 36.5995C76.4478 36.5995 76.4045 34.6894 76.4045 32.3322C76.4045 29.9757 76.4478 28.0648 76.5015 28.0648Z" fill="#D0E0FE"/>
<path d="M93.3782 105.884L103.173 104.432L98.4896 97.7976L95.9785 97.946C94.288 98.0453 92.7986 99.09 92.1287 100.645C91.7727 101.471 91.6737 102.384 91.8443 103.267L93.3782 105.884Z" fill="#FF8E3A"/>
<path d="M93.3782 105.884L103.173 104.432L98.4896 97.7976L95.9785 97.946C94.288 98.0453 92.7986 99.09 92.1287 100.645C91.7727 101.471 91.6737 102.384 91.8443 103.267L93.3782 105.884Z" fill="#8446FF"/>
<path d="M135.451 116.737C135.552 117.018 135.662 117.349 135.773 117.747C135.869 118.088 135.903 118.443 135.879 118.796C135.85 119.224 135.788 119.792 135.658 120.092C135.497 120.463 135.871 120.837 136.189 120.652C136.506 120.466 136.975 119.453 136.946 118.149C136.917 116.846 138.247 118.408 138.742 118.969C139.237 119.53 140.849 121.193 141.142 121.177C141.571 121.154 141.626 120.69 141.119 120.141C140.605 119.586 139.206 117.841 139.515 117.594C139.819 117.351 142.299 120.24 142.299 120.24C142.299 120.24 142.729 120.943 143.096 120.669C143.756 120.176 140.894 117.299 140.615 117.032C140.42 116.846 140.746 116.566 140.944 116.776C141.148 116.993 143.351 119.715 144.028 119.219C144.548 118.839 141.696 116.831 141.552 116.013C141.409 115.194 143.561 117.755 144.042 117.371C144.222 117.228 144.336 117.096 142.888 115.804C142.185 115.176 139.513 113.307 139.513 113.307L131.474 90.2893L125.266 93.8447L135.451 116.737Z" fill="#FF8E3A"/>
<path d="M87.5953 73.207L78.6119 62.4864H78.6115C78.495 62.118 78.3544 61.7585 78.1717 61.4176C77.7226 60.581 76.9799 59.8526 76.0525 59.6497C75.4826 59.5251 74.8306 59.585 74.3835 59.2103C74.1836 59.0429 74.0508 58.8045 73.8409 58.6491C73.6317 58.4937 73.2831 58.4633 73.1491 58.6872C73.0537 58.8465 73.1141 59.0506 73.1865 59.2216C73.5195 60.0131 74.0645 60.7123 74.7457 61.235C73.9036 61.4909 72.7004 61.878 72.7004 61.878C72.7004 61.878 70.8016 59.8176 69.829 59.8242C68.8561 59.8304 70.6147 61.6638 70.6147 61.6638C70.6147 61.6638 69.057 60.2242 68.5741 60.6301C68.0911 61.0355 69.3289 62.1043 69.3289 62.1043C68.9359 61.8944 68.5051 61.677 68.0654 61.7503C67.6252 61.8231 67.247 62.3427 67.4839 62.7205C67.5746 62.865 67.73 62.9542 67.8792 63.0376C68.6765 63.4816 69.4734 63.9256 70.2703 64.37C70.6704 64.5932 71.0906 64.8219 71.5487 64.8359C72.7612 64.8733 73.6839 64.1223 74.8968 64.1547C74.8968 64.1547 81.671 78.4146 82.3561 79.15C83.0416 79.8854 97.9233 80.8868 97.9233 80.8868L106.537 73.4657L87.5953 73.207Z" fill="#FF8E3A"/>
<path d="M114.577 150.883L123.751 154.878L118.838 166.317C117.775 165.781 118.122 158.921 118.122 158.921L112.139 156.603L114.577 150.883Z" fill="#8446FF"/>
<path d="M119.146 155.171C119.301 154.976 119.616 154.93 119.817 155.077C120.019 155.225 120.069 155.544 119.916 155.742C119.764 155.94 119.388 156.007 119.204 155.838C119.021 155.669 118.983 155.291 119.178 155.135" fill="#D0E0FE"/>
<path d="M123.751 154.879L122.811 154.512L118.452 165.617C118.452 165.617 118.455 166.221 118.839 166.318L123.751 154.879Z" fill="#D0E0FE"/>
<path d="M117.984 159.082C118.041 159.104 118.186 158.835 118.484 158.638C118.776 158.432 119.08 158.394 119.079 158.334C119.091 158.278 118.721 158.217 118.365 158.463C118.007 158.706 117.928 159.072 117.984 159.082Z" fill="#FF8E3A"/>
<path d="M117.965 160.494C118.014 160.531 118.213 160.329 118.531 160.241C118.846 160.144 119.122 160.205 119.143 160.149C119.174 160.1 118.864 159.921 118.471 160.038C118.077 160.152 117.913 160.47 117.965 160.494Z" fill="#FF8E3A"/>
<path d="M119.109 161.793C119.142 161.747 118.896 161.549 118.529 161.561C118.161 161.571 117.927 161.782 117.964 161.826C117.996 161.877 118.233 161.778 118.535 161.773C118.837 161.761 119.079 161.846 119.109 161.793Z" fill="#FF8E3A"/>
<path d="M116.68 158.402C116.74 158.401 116.773 158.111 116.93 157.805C117.081 157.495 117.293 157.295 117.257 157.245C117.231 157.196 116.921 157.347 116.741 157.711C116.558 158.072 116.624 158.41 116.68 158.402Z" fill="#FF8E3A"/>
<path d="M115.439 157.546C115.462 157.557 115.591 157.351 115.682 156.972C115.727 156.784 115.758 156.552 115.755 156.294C115.754 156.165 115.743 156.029 115.722 155.89C115.711 155.823 115.704 155.746 115.662 155.659C115.63 155.573 115.497 155.474 115.376 155.506C115.263 155.527 115.18 155.614 115.143 155.696C115.104 155.779 115.091 155.855 115.08 155.924C115.057 156.064 115.047 156.201 115.05 156.332C115.055 156.593 115.105 156.825 115.17 157.009C115.301 157.38 115.471 157.56 115.49 157.546C115.519 157.528 115.4 157.324 115.313 156.967C115.27 156.789 115.239 156.572 115.244 156.333C115.248 156.213 115.26 156.087 115.284 155.96C115.304 155.825 115.348 155.722 115.415 155.714C115.441 155.712 115.449 155.713 115.474 155.753C115.496 155.794 115.506 155.857 115.518 155.924C115.54 156.053 115.554 156.179 115.561 156.3C115.574 156.542 115.56 156.762 115.535 156.945C115.486 157.312 115.408 157.535 115.439 157.546Z" fill="#FF8E3A"/>
<path d="M115.55 157.508C115.568 157.492 115.415 157.296 115.062 157.12C114.887 157.033 114.661 156.958 114.401 156.929C114.271 156.914 114.133 156.911 113.991 156.925C113.849 156.943 113.662 156.96 113.545 157.166C113.492 157.278 113.54 157.409 113.601 157.474C113.663 157.545 113.726 157.581 113.786 157.623C113.911 157.702 114.043 157.755 114.172 157.789C114.431 157.857 114.676 157.845 114.869 157.799C115.261 157.702 115.428 157.498 115.411 157.485C115.391 157.455 115.2 157.603 114.842 157.652C114.665 157.676 114.447 157.671 114.225 157.602C114.114 157.567 114.003 157.517 113.899 157.449C113.785 157.379 113.707 157.291 113.739 157.251C113.762 157.193 113.895 157.136 114.012 157.131C114.14 157.117 114.265 157.115 114.384 157.123C114.621 157.14 114.832 157.193 115.003 157.257C115.346 157.386 115.529 157.535 115.55 157.508Z" fill="#FF8E3A"/>
<path d="M107.512 166.598L111.306 174.547L112.494 181.699C112.58 182.216 113.085 182.551 113.593 182.43C113.878 182.363 114.111 182.165 114.221 181.893C114.918 180.166 117.452 173.8 117.142 173.234C116.783 172.578 113.696 164.583 113.696 164.583L107.512 166.598Z" fill="#8446FF"/>
<path d="M113.593 182.43L116.898 172.692L117.051 173.032C117.184 173.326 117.209 173.658 117.119 173.968C116.878 174.796 116.164 177.071 114.245 181.883C114.134 182.162 113.888 182.369 113.593 182.43Z" fill="#D0E0FE"/>
<path d="M114.084 170.841C113.945 171.071 114.016 171.405 114.24 171.553C114.464 171.701 114.805 171.632 114.947 171.404C115.09 171.177 115.017 170.774 114.778 170.652C114.539 170.529 114.144 170.633 114.06 170.888" fill="#D0E0FE"/>
<path d="M113.851 178.095C113.816 178.137 113.445 177.798 112.866 177.786C112.286 177.757 111.894 178.07 111.862 178.025C111.846 178.009 111.919 177.9 112.095 177.789C112.269 177.678 112.553 177.582 112.872 177.593C113.192 177.605 113.469 177.72 113.634 177.843C113.802 177.966 113.868 178.079 113.851 178.095Z" fill="#FF8E3A"/>
<path d="M113.763 179.428C113.74 179.48 113.365 179.334 112.896 179.402C112.425 179.46 112.101 179.698 112.066 179.653C112.024 179.623 112.334 179.279 112.87 179.21C113.405 179.136 113.795 179.387 113.763 179.428Z" fill="#FF8E3A"/>
<path d="M114.297 176.236C114.276 176.292 113.7 176.065 112.961 176.107C112.222 176.137 111.671 176.417 111.645 176.364C111.612 176.327 112.159 175.948 112.952 175.913C113.744 175.871 114.325 176.196 114.297 176.236Z" fill="#FF8E3A"/>
<path d="M113.345 173.724C113.345 173.781 112.818 173.796 112.231 174.034C111.641 174.265 111.248 174.618 111.209 174.575C111.169 174.546 111.525 174.104 112.159 173.855C112.79 173.6 113.353 173.675 113.345 173.724Z" fill="#FF8E3A"/>
<path d="M112.29 171.362C112.286 171.419 111.719 171.353 111.122 171.655C110.518 171.943 110.225 172.433 110.177 172.401C110.156 172.39 110.199 172.25 110.336 172.06C110.471 171.87 110.713 171.641 111.037 171.481C111.36 171.322 111.69 171.271 111.923 171.279C112.157 171.287 112.294 171.339 112.29 171.362Z" fill="#FF8E3A"/>
<path d="M110.934 171.199C110.924 171.204 110.857 171.104 110.786 170.9C110.717 170.698 110.645 170.386 110.67 169.996C110.69 169.808 110.694 169.575 110.871 169.369C110.958 169.265 111.134 169.211 111.277 169.275C111.418 169.336 111.507 169.454 111.567 169.58C111.788 170.094 111.572 170.784 111.031 171.115C110.484 171.437 109.814 171.343 109.388 171.005C109.287 170.913 109.19 170.789 109.191 170.625C109.191 170.461 109.33 170.332 109.453 170.3C109.708 170.229 109.92 170.298 110.106 170.338C110.483 170.436 110.76 170.593 110.935 170.716C111.112 170.839 111.191 170.93 111.184 170.938C111.165 170.972 110.803 170.635 110.075 170.471C109.896 170.439 109.684 170.392 109.505 170.453C109.417 170.482 109.361 170.548 109.361 170.629C109.36 170.707 109.422 170.801 109.505 170.871C109.86 171.144 110.472 171.229 110.931 170.95C111.389 170.675 111.578 170.068 111.405 169.653C111.361 169.554 111.29 169.467 111.211 169.431C111.133 169.397 111.047 169.417 110.986 169.48C110.859 169.613 110.829 169.829 110.807 170.008C110.733 170.75 110.974 171.191 110.934 171.199Z" fill="#FF8E3A"/>
<path d="M120.296 151.854L109.894 144.852L113.337 111.047L103.483 105.292L94.4731 103.205C94.4731 103.205 90.7097 111.033 89.0364 116.045C85.4776 126.704 82.9793 130.523 83.5495 138.249C83.7303 140.694 92.7604 146.812 98.4631 150.21C98.5414 150.99 98.6411 151.671 98.7658 152.234C100.714 161.043 106.662 172.759 106.662 172.759L115.702 168.556L112.785 158.566L115.823 160.339L120.296 151.854ZM97.9365 130.056L99.1502 124.637C98.8935 128.082 98.659 131.677 98.4915 135.124C97.9073 133.531 97.7079 131.76 97.9365 130.056Z" fill="#FF8E3A"/>
<path d="M106.662 172.758C106.659 172.76 106.636 172.711 106.592 172.616C106.546 172.511 106.484 172.37 106.405 172.189C106.241 171.803 106.006 171.25 105.706 170.541C105.106 169.106 104.246 167.026 103.211 164.445C102.182 161.862 100.957 158.786 99.7235 155.32C99.4158 154.454 99.1143 153.56 98.8316 152.638C98.7061 152.171 98.5488 151.71 98.4666 151.216C98.4428 151.094 98.4152 150.971 98.3949 150.849L98.3517 150.48C98.3244 150.234 98.2964 149.986 98.2687 149.737C98.1632 148.742 98.0752 147.726 98.0101 146.694C97.9774 146.178 97.9497 145.657 97.9291 145.133C97.9104 144.611 97.887 144.078 97.917 143.548C98.0697 139.3 98.4269 135.273 98.7206 131.608C99.0267 127.947 99.3025 124.648 99.5342 121.875C99.7586 119.104 99.9155 116.86 100.004 115.309C100.053 114.533 100.08 113.93 100.098 113.521C100.109 113.324 100.117 113.17 100.123 113.057C100.13 112.952 100.135 112.898 100.138 112.898C100.142 112.898 100.143 112.952 100.143 113.057C100.142 113.171 100.14 113.325 100.137 113.523C100.131 113.932 100.117 114.536 100.08 115.313C100.014 116.866 99.8778 119.113 99.6709 121.886C99.4505 124.66 99.1887 127.959 98.8982 131.623C98.6146 135.286 98.2629 139.317 98.1106 143.551C98.0802 144.08 98.1036 144.602 98.1223 145.126C98.1425 145.648 98.1698 146.167 98.2021 146.682C98.2664 147.711 98.3533 148.724 98.4576 149.717C98.4849 149.965 98.5118 150.212 98.5391 150.458L98.5815 150.826C98.6014 150.947 98.6282 151.065 98.6512 151.184C98.7287 151.66 98.8857 152.123 99.0088 152.585C99.2881 153.502 99.5868 154.395 99.8914 155.261C101.114 158.725 102.326 161.807 103.338 164.395C104.365 166.971 105.196 169.058 105.776 170.511C106.061 171.226 106.285 171.785 106.441 172.174C106.513 172.358 106.569 172.502 106.61 172.608C106.648 172.706 106.665 172.757 106.662 172.758Z" fill="#FF8E3A"/>
<path d="M99.7099 111.756C99.7017 111.766 99.6184 111.699 99.4727 111.564C99.3372 111.421 99.1724 111.181 99.0326 110.857C98.7525 110.206 98.6107 109.234 98.5893 108.175C98.5698 107.112 98.6485 106.155 98.7182 105.466C98.7903 104.777 98.8483 104.353 98.8744 104.355C98.9017 104.356 98.8916 104.786 98.855 105.476C98.8203 106.167 98.7638 107.12 98.7829 108.171C98.8043 109.218 98.9227 110.169 99.1603 110.807C99.2791 111.125 99.4174 111.363 99.53 111.515C99.6527 111.659 99.7181 111.746 99.7099 111.756Z" fill="#FF8E3A"/>
<path d="M95.8195 103.71C95.839 103.706 95.9329 104.065 95.8967 104.656C95.8643 105.242 95.6649 106.067 95.1512 106.821C94.6374 107.575 93.9425 108.062 93.4093 108.307C92.8718 108.557 92.5037 108.6 92.5006 108.581C92.4913 108.549 92.8422 108.458 93.347 108.185C93.8494 107.916 94.5003 107.432 94.9915 106.712C95.4822 105.992 95.6949 105.209 95.7607 104.643C95.8301 104.073 95.7864 103.713 95.8195 103.71Z" fill="#FF8E3A"/>
<path d="M111.983 123.364C111.987 123.365 111.986 123.4 111.981 123.468C111.975 123.546 111.966 123.645 111.956 123.768C111.928 124.046 111.89 124.432 111.84 124.922C111.729 125.939 111.572 127.384 111.378 129.164C110.971 132.756 110.412 137.694 109.795 143.148C109.556 145.879 109.794 148.507 110.307 150.823C110.56 151.984 110.896 153.061 111.248 154.058C111.599 155.056 111.925 155.987 112.223 156.839C112.809 158.53 113.285 159.904 113.62 160.87C113.777 161.336 113.901 161.704 113.991 161.969C114.028 162.087 114.058 162.181 114.083 162.257C114.102 162.322 114.111 162.356 114.107 162.357C114.104 162.358 114.089 162.326 114.064 162.263C114.035 162.19 113.999 162.097 113.954 161.982C113.857 161.72 113.721 161.357 113.549 160.895C113.2 159.934 112.704 158.567 112.094 156.885C111.789 156.036 111.455 155.107 111.098 154.112C110.737 153.115 110.392 152.029 110.133 150.862C109.607 148.532 109.361 145.884 109.602 143.132C110.21 137.662 110.815 132.728 111.242 129.15C111.461 127.373 111.64 125.93 111.765 124.915C111.83 124.427 111.881 124.042 111.917 123.764C111.936 123.642 111.95 123.544 111.962 123.466C111.973 123.399 111.98 123.364 111.983 123.364Z" fill="#FF8E3A"/>
<path d="M94.4734 103.139L96.0688 99.062L99.7091 104.491L94.8548 103.278" fill="#FF8E3A"/>
<path d="M132.576 90.8832L128.254 81.1956C127.737 79.6383 126.768 79.3965 125.956 78.4924L115.131 72.3874C107.242 69.1557 102.946 79.9932 102.946 79.9932L95.776 96.3487C87.3433 99.1445 93.3135 105.62 93.3135 105.62C93.3135 105.62 91.0202 101.633 93.2758 100.195C95.6377 98.6888 98.2567 102.657 100.772 106.426C103.743 110.876 113.394 113.766 113.394 113.766C114.523 112.574 114.208 108.41 115.092 106.176C115.372 105.467 122.056 89.9854 122.056 89.9854L124.646 96.263C124.646 96.263 127.968 92.3692 129.577 91.7502C131.187 91.1309 132.576 90.8832 132.576 90.8832Z" fill="#8446FF"/>
<path d="M113.394 97.7676C113.4 97.7774 113.287 97.8639 113.066 97.9963C112.846 98.1295 112.513 98.2997 112.082 98.4633C111.225 98.7928 109.929 99.0491 108.524 98.8321C107.119 98.6152 105.96 97.9803 105.243 97.4077C104.881 97.1219 104.615 96.8589 104.445 96.6657C104.275 96.4729 104.193 96.3565 104.202 96.3487C104.228 96.3234 104.592 96.7635 105.325 97.2983C106.051 97.8327 107.187 98.4298 108.553 98.6409C109.919 98.8516 111.183 98.6253 112.036 98.3344C112.896 98.0454 113.376 97.7353 113.394 97.7676Z" fill="#FF8E3A"/>
<path d="M95.4546 82.4058L102.135 83.0364L112.822 71.7401L106.537 71.5243L95.344 72.6289C95.344 72.6289 96.3353 77.294 95.4546 82.4058Z" fill="#8446FF"/>
<path d="M104.733 76.4538C104.739 76.4569 104.711 76.5282 104.652 76.661C104.581 76.8118 104.493 77.003 104.384 77.2379C104.138 77.761 103.802 78.4784 103.392 79.3544C102.561 81.1446 101.459 83.6378 100.264 86.4028C99.0696 89.169 97.9825 91.6716 97.161 93.4676C96.7509 94.3661 96.4124 95.0906 96.169 95.5864C96.0537 95.8182 95.9602 96.0063 95.8858 96.1555C95.8192 96.2848 95.7814 96.3514 95.7752 96.3487C95.769 96.346 95.7954 96.2735 95.8504 96.1391C95.9158 95.9861 95.9988 95.7925 96.1004 95.5545C96.3318 95.0252 96.6488 94.2988 97.036 93.4123C97.8259 91.5777 98.8994 89.083 100.087 86.3261C101.282 83.5602 102.405 81.0733 103.268 79.296C103.698 78.4072 104.057 77.6924 104.316 77.2044C104.438 76.9761 104.538 76.7903 104.616 76.6439C104.687 76.5165 104.727 76.4511 104.733 76.4538Z" fill="#FF8E3A"/>
<path d="M125.123 79.7393C125.142 79.772 124.727 79.9882 124.162 80.4692C123.877 80.7068 123.569 81.0246 123.259 81.4028C122.958 81.7884 122.662 82.2387 122.412 82.7451C122.169 83.2549 122 83.7671 121.884 84.2419C121.778 84.7194 121.72 85.1584 121.71 85.5288C121.683 86.2708 121.77 86.7296 121.732 86.7351C121.719 86.7378 121.691 86.6253 121.65 86.4177C121.628 86.314 121.608 86.1863 121.599 86.0363C121.588 85.8868 121.565 85.7158 121.573 85.5265C121.566 85.1471 121.61 84.6957 121.709 84.203C121.819 83.7134 121.989 83.1848 122.239 82.6605C122.495 82.1402 122.805 81.6794 123.121 81.2903C123.447 80.9078 123.773 80.5927 124.075 80.3637C124.219 80.2398 124.368 80.1518 124.491 80.0676C124.615 79.9816 124.728 79.9192 124.823 79.8725C125.011 79.7751 125.117 79.7276 125.123 79.7393Z" fill="#FF8E3A"/>
<path d="M126.99 64.2247L120.722 75.9397C119.699 77.8525 117.371 78.6483 115.391 77.7622C113.211 76.7865 112.309 74.1706 113.426 72.0595C114.017 70.942 114.507 70.0298 114.507 70.0298C114.507 70.0298 111.782 68.2638 113.057 65.3196C114.193 62.6928 118.367 55.2787 119.254 53.7109L124.535 56.0748C127.502 57.6161 128.612 61.3019 126.99 64.2247Z" fill="#FF8E3A"/>
<path d="M114.521 69.9855C114.521 69.9855 116.304 70.9639 118.823 70.6087C118.823 70.6087 116.978 72.3123 114.174 70.7411L114.521 69.9855Z" fill="#FF8E3A"/>
<path d="M116.534 60.6188C116.428 60.8361 116.523 61.1056 116.748 61.2213C116.973 61.3362 117.241 61.2544 117.348 61.0371C117.454 60.8197 117.358 60.5498 117.134 60.4345C116.909 60.3188 116.64 60.4014 116.534 60.6188Z" fill="#FF8E3A"/>
<path d="M116.558 60.2456C116.585 60.3235 117.006 60.2311 117.456 60.4333C117.908 60.6296 118.135 61.0086 118.208 60.9755C118.243 60.9618 118.234 60.8395 118.138 60.6705C118.042 60.5026 117.847 60.2939 117.566 60.1696C117.284 60.0457 117.003 60.0426 116.82 60.0878C116.634 60.1318 116.543 60.2097 116.558 60.2456Z" fill="#FF8E3A"/>
<path d="M120.744 62.6897C120.637 62.907 120.733 63.1766 120.958 63.2918C121.182 63.4071 121.451 63.325 121.557 63.108C121.664 62.8907 121.568 62.6207 121.344 62.5054C121.119 62.3898 120.85 62.4723 120.744 62.6897Z" fill="#FF8E3A"/>
<path d="M120.943 62.3092C120.97 62.3871 121.393 62.2947 121.842 62.4973C122.294 62.6932 122.52 63.0722 122.594 63.0391C122.628 63.0254 122.621 62.9035 122.523 62.7341C122.428 62.5666 122.232 62.3575 121.951 62.2332C121.67 62.1093 121.388 62.1062 121.206 62.1514C121.02 62.1958 120.929 62.2733 120.943 62.3092Z" fill="#FF8E3A"/>
<path d="M117.817 64.9153C117.83 64.8908 117.572 64.7175 117.145 64.4565C117.035 64.3934 116.936 64.3217 116.952 64.2345C116.962 64.1395 117.066 64.0374 117.181 63.9283C117.414 63.6985 117.657 63.4578 117.913 63.2054C118.942 62.1709 119.742 61.2996 119.701 61.2583C119.659 61.2174 118.79 62.0225 117.76 63.057C117.509 63.3137 117.27 63.5575 117.041 63.7916C116.939 63.9026 116.798 64.0175 116.779 64.2158C116.772 64.3155 116.828 64.4156 116.893 64.4686C116.957 64.5239 117.021 64.5543 117.077 64.5827C117.522 64.8113 117.804 64.9403 117.817 64.9153Z" fill="#FF8E3A"/>
<path d="M119.001 65.8189C118.93 65.7819 118.711 66.2699 118.138 66.4292C117.565 66.5905 117.068 66.3026 117.034 66.3693C117.013 66.3969 117.108 66.5161 117.325 66.6205C117.537 66.7241 117.883 66.7958 118.233 66.6984C118.584 66.5998 118.82 66.365 118.927 66.1722C119.037 65.9762 119.036 65.831 119.001 65.8189Z" fill="#FF8E3A"/>
<path d="M121.616 60.4937C121.606 60.6359 122.08 60.7788 122.58 61.0787C123.085 61.3689 123.442 61.714 123.561 61.6353C123.616 61.5972 123.593 61.4488 123.474 61.2532C123.357 61.0585 123.134 60.8244 122.833 60.6472C122.532 60.4707 122.219 60.3913 121.992 60.3835C121.763 60.3749 121.623 60.4271 121.616 60.4937Z" fill="#FF8E3A"/>
<path d="M117.306 59.0175C117.339 59.1554 117.697 59.1877 118.072 59.3498C118.452 59.4982 118.729 59.7264 118.85 59.652C118.905 59.6142 118.901 59.4896 118.807 59.3311C118.714 59.1741 118.522 58.9934 118.262 58.8867C118.002 58.7803 117.739 58.7737 117.562 58.8201C117.383 58.866 117.293 58.9521 117.306 59.0175Z" fill="#FF8E3A"/>
<path d="M125.019 65.9806C125.078 65.9814 127.297 66.286 126.337 68.2592C125.378 70.2324 123.594 68.8617 123.619 68.8037C123.643 68.7453 125.019 65.9806 125.019 65.9806Z" fill="#FF8E3A"/>
<path d="M124.585 68.3491C124.597 68.3472 124.608 68.3896 124.653 68.4449C124.696 68.4983 124.786 68.5637 124.907 68.5754C125.152 68.6004 125.489 68.3546 125.672 68.0036C125.764 67.8268 125.81 67.6367 125.815 67.4646C125.825 67.2909 125.78 67.1444 125.684 67.0751C125.592 66.9999 125.487 67.0268 125.436 67.0708C125.383 67.1128 125.376 67.1584 125.364 67.1569C125.356 67.1588 125.338 67.1031 125.393 67.0291C125.42 66.9944 125.467 66.959 125.531 66.9434C125.598 66.9282 125.676 66.9422 125.745 66.9859C125.892 67.0704 125.962 67.2768 125.956 67.4661C125.958 67.6605 125.911 67.8755 125.808 68.0741C125.601 68.4656 125.217 68.739 124.891 68.6825C124.735 68.651 124.64 68.5524 124.602 68.4769C124.565 68.3986 124.577 68.3491 124.585 68.3491Z" fill="#FF8E3A"/>
<path d="M126.163 66.4113C125.891 66.2006 125.237 66.2462 124.979 66.474C124.72 66.7015 124.547 67.0123 124.289 67.2406C124.031 67.4684 123.622 67.5962 123.349 67.3866C123.161 67.2425 123.098 66.9777 123.136 66.7436C123.174 66.5091 123.296 66.2976 123.419 66.0951C123.956 65.2128 124.567 64.3739 125.026 63.4492C125.485 62.5245 125.788 61.4861 125.653 60.4629C125.517 59.4393 124.873 58.4429 123.9 58.0986C123.255 57.8704 122.54 57.9393 121.883 57.7492C121.104 57.5241 120.445 56.9184 120.155 56.1616C120.118 56.065 119.897 55.7188 119.897 55.7188C119.919 55.6705 120.151 55.2728 120.384 55.1941C122.118 54.6087 124.47 55.281 125.907 56.4137C127.344 57.5459 128.351 59.3688 128.369 61.1987C128.386 63.0285 127.235 65.0473 126.163 66.4113Z" fill="#FF8E3A"/>
<path d="M126.182 66.2135C126.73 65.281 127.62 64.606 128.299 63.7643C128.978 62.9226 129.444 61.7366 128.961 60.7691C128.796 60.4388 128.531 60.1614 128.393 59.8187C128.254 59.474 128.254 59.0927 128.201 58.725C128.036 57.5888 127.318 56.5461 126.315 55.9868C125.622 55.6 124.822 55.4419 124.119 55.0722C123.006 54.4872 122.192 53.4028 121.023 52.9405C120.635 52.787 120.18 52.7126 119.81 52.9039C119.438 53.0951 119.239 53.633 119.51 53.9509C119.462 53.5777 118.978 53.3725 118.635 53.5279C118.292 53.6829 118.117 54.0911 118.14 54.4666C118.163 54.842 118.35 55.1883 118.565 55.4968C119.275 56.5138 120.361 57.2612 121.564 57.5623L124.253 57.3524L126.457 58.9859L128.088 61.5827L125.13 65.4263L126.182 66.2135Z" fill="#FF8E3A"/>
</g>
</g>
</g>
<defs>
<clipPath id="clip0_1629_2894">
<rect width="205" height="205" rx="102.5" fill="white"/>
</clipPath>
</defs>
</svg>
