<svg width="76" height="77" viewBox="0 0 76 77" fill="none" xmlns="http://www.w3.org/2000/svg">
<path d="M28.5655 15.4071C27.9622 15.0133 27.3283 14.7614 26.7009 14.6664C26.0735 14.5713 25.4653 14.6349 24.9118 14.8534C24.3582 15.072 23.8706 15.4411 23.4774 15.9392C23.0842 16.4372 22.7933 17.0542 22.6219 17.7539" stroke="#5B2DB6" stroke-width="3" stroke-linecap="round" stroke-linejoin="round"/>
<path d="M47.2465 15.4071C47.8498 15.0133 48.4837 14.7614 49.1111 14.6664C49.7385 14.5713 50.3467 14.6349 50.9003 14.8534C51.4538 15.072 51.9414 15.4411 52.3346 15.9392C52.7278 16.4372 53.0187 17.0542 53.1901 17.7539" stroke="#5B2DB6" stroke-width="3" stroke-linecap="round" stroke-linejoin="round"/>
<path d="M1.5 38.5C1.5 43.2932 2.4441 48.0396 4.2784 52.4679C6.11269 56.8963 8.80126 60.9201 12.1906 64.3094C15.5799 67.6987 19.6037 70.3873 24.0321 72.2216C28.4604 74.0559 33.2068 75 38 75C42.7932 75 47.5396 74.0559 51.9679 72.2216C56.3963 70.3873 60.4201 67.6987 63.8094 64.3094C67.1987 60.9201 69.8873 56.8963 71.7216 52.4679C73.5559 48.0396 74.5 43.2932 74.5 38.5C74.5 33.7068 73.5559 28.9604 71.7216 24.5321C69.8873 20.1037 67.1987 16.0799 63.8094 12.6906C60.4201 9.30126 56.3963 6.61269 51.9679 4.7784C47.5396 2.9441 42.7932 2 38 2C33.2068 2 28.4604 2.9441 24.0321 4.7784C19.6037 6.61269 15.5799 9.30126 12.1906 12.6906C8.80126 16.0799 6.11269 20.1037 4.2784 24.5321C2.4441 28.9604 1.5 33.7068 1.5 38.5Z" stroke="#5B2DB6" stroke-width="3" stroke-linecap="round" stroke-linejoin="round"/>
<path d="M21.4179 47.7655C21.3621 47.747 21.3016 47.742 21.2427 47.7508C21.1839 47.7597 21.1289 47.7821 21.0835 47.8158C21.038 47.8495 21.0039 47.8932 20.9846 47.9423C20.9654 47.9914 20.9617 48.044 20.9739 48.0948C21.8297 51.577 24.0356 54.6987 27.2232 56.9384C30.4107 59.178 34.3867 60.3999 38.4868 60.3999C42.587 60.3999 46.563 59.178 49.7505 56.9384C52.938 54.6987 55.144 51.577 55.9998 48.0948C56.012 48.044 56.0083 47.9914 55.989 47.9423C55.9698 47.8932 55.9356 47.8495 55.8902 47.8158C55.8448 47.7821 55.7898 47.7597 55.731 47.7508C55.6721 47.742 55.6116 47.747 55.5558 47.7655C50.656 49.3762 44.7904 50.3124 38.4868 50.3124C32.1833 50.3124 26.3177 49.3762 21.4179 47.7655Z" stroke="#5B2DB6" stroke-width="3" stroke-miterlimit="10"/>
<ellipse cx="50.167" cy="28.7667" rx="4.86667" ry="5.35333" fill="#5B2DB6"/>
<ellipse cx="25.833" cy="28.7667" rx="4.86667" ry="5.35333" fill="#5B2DB6"/>
</svg>
