<svg width="141" height="174" viewBox="0 0 141 174" fill="none" xmlns="http://www.w3.org/2000/svg">
<g clip-path="url(#clip0_1113_103)" filter="url(#filter0_d_1113_103)">
<mask id="mask0_1113_103" style="mask-type:luminance" maskUnits="userSpaceOnUse" x="4" y="0" width="133" height="166">
<path d="M137 0H4V166H137V0Z" fill="white"/>
</mask>
<g mask="url(#mask0_1113_103)">
<path d="M119.287 39.1365C130.456 54.8114 136.496 70.4388 136.962 85.2516C137.485 100.066 132.448 114.111 125.796 128.589C119.143 143.019 110.827 157.878 99.6613 159.844C88.4958 161.762 74.4778 150.831 59.1784 144.649C43.8245 138.511 27.2003 137.169 16.8342 127.919C6.48205 118.618 2.44263 101.408 4.53429 84.6285C6.67247 67.8516 15.0362 51.4966 27.8645 36.1639C40.7423 20.7763 58.1798 6.39428 75.0003 7.06486C91.868 7.73691 108.166 23.4594 119.287 39.1365Z" fill="#C2C9EB"/>
<path d="M90.7511 104.709C94.1735 114.357 95.5776 158.509 95.5776 166H77.869L70.4995 149.244L83.2915 102.326L90.7511 104.709Z" fill="#BD55D7"/>
<path d="M84.4826 105.937C83.5168 112.388 74.9154 160.883 72.9959 166.001H47.4105C46.3233 162.345 42.2163 119.333 47.4105 103.494C52.6048 87.6553 84.4826 105.937 84.4826 105.937Z" fill="#C477D7"/>
<path d="M88.9192 80.2994C90.5479 79.9762 112.714 69.7748 117.734 65.434C122.756 61.0924 116.758 57.7388 114.866 58.8569C112.975 59.9743 93.2885 68.5258 89.2448 69.7748C85.2017 71.0246 88.9192 80.2994 88.9192 80.2994Z" fill="#DE8E68"/>
<path d="M122.861 34.038L106.741 35.3061L109.17 66.7291L125.291 65.4603L122.861 34.038Z" fill="#DEDEDE"/>
<path d="M98.5996 37.5591L108.391 54.0997" stroke="black" stroke-width="8" stroke-linecap="round" stroke-linejoin="round"/>
<path d="M66.617 34.1141C71.2073 33.6081 74.339 27.7498 73.6108 21.0294C72.8825 14.3096 68.5706 9.27261 63.9803 9.77938C59.3899 10.2854 56.2583 16.1437 56.9865 22.8634C57.7147 29.5831 62.0267 34.6202 66.617 34.1141Z" fill="#DE8E68"/>
<path d="M63.6421 36.0535C91.5758 36.0535 92.8781 104.699 91.6506 105.937C90.4245 107.174 62.0192 112.982 46.5425 106.508C42.7655 89.942 45.3346 36.0535 63.6421 36.0535Z" fill="#EEB040"/>
<path d="M107.238 45.8936C107.11 44.2931 105.15 41.1032 102.71 41.899C101.031 42.4461 98.9531 46.0955 98.0516 47.6472C94.7952 50.322 74.432 70.2855 72.8947 72.1827C72.7082 70.7212 71.0765 67.8987 69.1803 65.32L55.7128 75.7387C57.5107 79.7305 67.5418 89.8433 71.1113 89.5498C80.4808 88.7793 97.3809 61.5806 101.633 54.309C103.752 52.5524 107.494 49.0865 107.238 45.8936Z" fill="#DE8E68"/>
<path d="M50.9521 15.9952C50.9521 12.4215 53.8265 10.33 54.7612 9.35377C56.6486 7.37347 57.7802 2.09292 61.768 2.09292C62.9003 2.09292 64.6599 2.75765 65.766 2.75765C67.1491 2.7518 69.9028 0 72.6791 0C77.3305 0 78.3647 4.31893 78.3647 5.64619C78.3647 10.5055 72.3659 14.1729 71.5693 14.6109C71.2314 14.053 69.6819 11.9659 69.1666 11.65C68.5496 12.9487 64.3837 15.1104 61.236 17.0461C59.4729 18.132 58.3631 26.5556 58.39 27.2203C55.4487 27.2299 50.9521 22.7288 50.9521 15.9952Z" fill="#8446FF"/>
<path d="M57.9276 26.4108C59.2358 26.4108 60.2962 25.3409 60.2962 24.021C60.2962 22.701 59.2358 21.6312 57.9276 21.6312C56.6194 21.6312 55.5591 22.701 55.5591 24.021C55.5591 25.3409 56.6194 26.4108 57.9276 26.4108Z" fill="#DE8E68"/>
<path d="M67.6057 40.6064C67.7947 41.7998 60.3743 41.497 60.2878 40.2254L59.4702 28.2595L66.1893 27.5194C66.1893 27.5194 67.4284 39.4166 67.6057 40.6064Z" fill="#DE8E68"/>
<path d="M48.1698 46.686C40.2121 51.9358 49.5422 75.0335 54.9914 77.029C60.9287 76.5407 72.2214 66.8971 71.9885 63.9741C71.7556 61.0519 58.4925 39.8811 48.1698 46.686Z" fill="#F1BE61"/>
<path d="M118.541 48.0954C118.541 52.0465 123.197 54.1314 123.876 54.1314C125.294 54.1314 125.294 49.8073 125.294 48.6877C125.294 46.1363 122.826 44.2679 120.952 44.2679C119.078 44.2679 118.541 45.8562 118.541 48.0954Z" fill="#DE8E68"/>
</g>
</g>
<defs>
<filter id="filter0_d_1113_103" x="0" y="0" width="141" height="174" filterUnits="userSpaceOnUse" color-interpolation-filters="sRGB">
<feFlood flood-opacity="0" result="BackgroundImageFix"/>
<feColorMatrix in="SourceAlpha" type="matrix" values="0 0 0 0 0 0 0 0 0 0 0 0 0 0 0 0 0 0 127 0" result="hardAlpha"/>
<feOffset dy="4"/>
<feGaussianBlur stdDeviation="2"/>
<feComposite in2="hardAlpha" operator="out"/>
<feColorMatrix type="matrix" values="0 0 0 0 0 0 0 0 0 0 0 0 0 0 0 0 0 0 0.25 0"/>
<feBlend mode="normal" in2="BackgroundImageFix" result="effect1_dropShadow_1113_103"/>
<feBlend mode="normal" in="SourceGraphic" in2="effect1_dropShadow_1113_103" result="shape"/>
</filter>
<clipPath id="clip0_1113_103">
<rect width="133" height="166" fill="white" transform="translate(4)"/>
</clipPath>
</defs>
</svg>
