<svg width="31" height="41" viewBox="0 0 31 41" fill="none" xmlns="http://www.w3.org/2000/svg">
<path d="M15.1274 14.1382C18.4793 14.1382 21.1965 11.4209 21.1965 8.06908C21.1965 4.71722 18.4793 2 15.1274 2C11.7756 2 9.05835 4.71722 9.05835 8.06908C9.05835 11.4209 11.7756 14.1382 15.1274 14.1382Z" stroke="#46E9FF" stroke-width="4" stroke-linecap="round" stroke-linejoin="round"/>
<path d="M6.68509 30.3231L17.9415 18.7947C18.4945 18.2126 19.1601 17.749 19.8978 17.4323C20.6356 17.1155 21.4301 16.9521 22.233 16.9521C23.0359 16.9521 23.8304 17.1155 24.5682 17.4323C25.3059 17.749 25.9715 18.2126 26.5245 18.7947C27.623 19.9535 28.2353 21.4895 28.2353 23.0862C28.2353 24.6829 27.623 26.2189 26.5245 27.3777C22.6786 31.3362 15.1274 38.9999 15.1274 38.9999C15.1274 38.9999 7.62312 31.233 3.80532 27.3777C3.23381 26.8186 2.77972 26.151 2.46971 25.4141C2.15969 24.6771 2 23.8857 2 23.0862C2 22.2867 2.15969 21.4953 2.46971 20.7583C2.77972 20.0214 3.23381 19.3538 3.80532 18.7947C4.96197 17.6919 6.49873 17.0767 8.09683 17.0767C9.69492 17.0767 11.2317 17.6919 12.3883 18.7947L23.701 30.3231" stroke="#46E9FF" stroke-width="4" stroke-linecap="round" stroke-linejoin="round"/>
</svg>
