<svg width="38" height="41" viewBox="0 0 38 41" fill="none" xmlns="http://www.w3.org/2000/svg">
<path d="M16.6406 0C20.6813 0.000259641 24.584 1.44911 27.6207 4.07629C30.6574 6.70347 32.6206 10.3296 33.1443 14.2782L37.8245 21.5332C38.1324 22.0108 38.07 22.7222 37.3565 23.0256L33.2816 24.7435V30.75C33.2816 31.8374 32.8432 32.8802 32.063 33.6491C31.2828 34.418 30.2247 34.85 29.1213 34.85H24.9631L24.9611 41H6.23997V33.4273C6.23997 31.0083 5.33303 28.7185 3.65229 26.6521C1.69231 24.2403 0.463559 21.3319 0.107601 18.2619C-0.248356 15.1919 0.282963 12.0853 1.64035 9.29996C2.99773 6.5146 5.12595 4.16382 7.77982 2.51845C10.4337 0.873086 13.5052 7.61765e-05 16.6406 0ZM16.6406 4.1C14.2892 4.0999 11.9856 4.75445 9.99513 5.98825C8.0047 7.22205 6.40842 8.98489 5.39019 11.0737C4.37195 13.1625 3.97318 15.4923 4.23982 17.7948C4.50646 20.0972 5.42765 22.2785 6.89728 24.0875C9.17294 26.8837 10.4002 30.0673 10.4002 33.4273V36.9H20.8008L20.805 30.75H29.1213V22.0416L32.3455 20.6804L29.1359 15.7092L29.0173 14.803C28.6235 11.8427 27.1507 9.12444 24.8735 7.15518C22.5963 5.18593 19.6702 4.10005 16.6406 4.1ZM15.5381 11.8141L16.6406 12.9007L17.743 11.8141C18.0788 11.4714 18.4804 11.1981 18.9245 11.01C19.3686 10.8218 19.8462 10.7228 20.3295 10.7186C20.8129 10.7143 21.2922 10.805 21.7397 10.9853C22.1871 11.1656 22.5936 11.4319 22.9354 11.7687C23.2773 12.1054 23.5476 12.5059 23.7308 12.9468C23.9139 13.3876 24.0061 13.86 24.002 14.3364C23.9979 14.8127 23.8976 15.2835 23.7069 15.7212C23.5162 16.1589 23.239 16.5548 22.8913 16.8859L16.6406 23.0481L10.3898 16.8859C10.0422 16.5548 9.76496 16.1589 9.57427 15.7212C9.38358 15.2835 9.28326 14.8127 9.27916 14.3364C9.27505 13.86 9.36726 13.3876 9.55038 12.9468C9.7335 12.5059 10.0039 12.1054 10.3457 11.7687C10.6876 11.4319 11.0941 11.1656 11.5415 10.9853C11.9889 10.805 12.4683 10.7143 12.9516 10.7186C13.4349 10.7228 13.9126 10.8218 14.3567 11.01C14.8008 11.1981 15.2024 11.4714 15.5381 11.8141Z" fill="#FFDE43"/>
</svg>
