<svg width="50" height="50" viewBox="0 0 50 50" fill="none" xmlns="http://www.w3.org/2000/svg">
<path d="M45.7549 23.0498H47.4609V26.9502H45.7549V23.0498ZM42.393 28.0922H44.099V21.9078H42.393V28.0922ZM39.0875 31.291H40.7936V18.709H39.0875V31.291ZM35.9452 33.7594H37.6513V16.3558H35.9452V33.7552V33.7594ZM32.5812 29.5093H34.2872V20.4907H32.5812V29.5093ZM29.1638 36.3334H30.8698V13.2807H29.1584V36.3334H29.1638ZM25.8008 39.6387H27.5068V10.3613H25.8008V39.6387ZM22.4953 35.1188H24.2014V14.8812H22.4953V35.1188V35.1188ZM19.0758 29.3717H20.7818V20.8414H19.0758V29.3717ZM15.7704 27.3382H17.4765V22.6543H15.7704V27.3459V27.3382ZM12.4649 29.844H14.171V20.1526H12.4649V29.8472V29.844ZM9.21279 34.5355H10.9188V14.91H9.21289V34.5389L9.21279 34.5355ZM5.90742 31.5372H7.61348V18.2942H5.90742V31.5405V31.5372ZM2.53906 28.0922H4.24512V21.9078H2.53906V28.0922Z" fill="#AAD5C8"/>
</svg>
