<svg width="40" height="41" viewBox="0 0 40 41" fill="none" xmlns="http://www.w3.org/2000/svg">
<path d="M23.6364 11.0625V7.875C24.6364 7.4375 25.6594 7.10938 26.7055 6.89063C27.7503 6.67188 28.8485 6.5625 30 6.5625C30.7879 6.5625 31.5606 6.625 32.3182 6.75C33.0758 6.875 33.8182 7.03125 34.5455 7.21875V10.2188C33.8182 9.9375 33.0836 9.72688 32.3418 9.58687C31.5988 9.44563 30.8182 9.375 30 9.375C28.8485 9.375 27.7424 9.52375 26.6818 9.82125C25.6212 10.1175 24.6061 10.5312 23.6364 11.0625ZM23.6364 21.375V18.1875C24.6364 17.75 25.6594 17.4219 26.7055 17.2031C27.7503 16.9844 28.8485 16.875 30 16.875C30.7879 16.875 31.5606 16.9375 32.3182 17.0625C33.0758 17.1875 33.8182 17.3438 34.5455 17.5312V20.5312C33.8182 20.25 33.0836 20.0394 32.3418 19.8994C31.5988 19.7581 30.8182 19.6875 30 19.6875C28.8485 19.6875 27.7424 19.8281 26.6818 20.1094C25.6212 20.3906 24.6061 20.8125 23.6364 21.375ZM23.6364 16.2188V13.0312C24.6364 12.5938 25.6594 12.2656 26.7055 12.0469C27.7503 11.8281 28.8485 11.7188 30 11.7188C30.7879 11.7188 31.5606 11.7813 32.3182 11.9063C33.0758 12.0313 33.8182 12.1875 34.5455 12.375V15.375C33.8182 15.0938 33.0836 14.8831 32.3418 14.7431C31.5988 14.6019 30.8182 14.5312 30 14.5312C28.8485 14.5312 27.7424 14.68 26.6818 14.9775C25.6212 15.2738 24.6061 15.6875 23.6364 16.2188ZM21.8182 24.4687C23.1515 23.8125 24.4927 23.32 25.8418 22.9912C27.1897 22.6637 28.5758 22.5 30 22.5C31.0909 22.5 32.1594 22.5938 33.2055 22.7812C34.2503 22.9688 35.303 23.25 36.3636 23.625V5.0625C35.3636 4.625 34.3261 4.29688 33.2509 4.07813C32.1745 3.85938 31.0909 3.75 30 3.75C28.5758 3.75 27.1667 3.9375 25.7727 4.3125C24.3788 4.6875 23.0606 5.25 21.8182 6V24.4687ZM20 30C18.5455 28.8125 16.9697 27.8906 15.2727 27.2344C13.5758 26.5781 11.8182 26.25 10 26.25C8.72727 26.25 7.47758 26.4219 6.25091 26.7656C5.02303 27.1094 3.84848 27.5937 2.72727 28.2187C2.09091 28.5625 1.47758 28.5469 0.887273 28.1719C0.295758 27.7969 0 27.25 0 26.5312V3.9375C0 3.59375 0.0836364 3.26562 0.250909 2.95312C0.41697 2.64062 0.666667 2.40625 1 2.25C2.42424 1.53125 3.88667 0.97625 5.38727 0.585C6.88667 0.195 8.42424 0 10 0C11.7576 0 13.4776 0.234375 15.16 0.703125C16.8412 1.17188 18.4545 1.875 20 2.8125C21.5455 1.875 23.1594 1.17188 24.8418 0.703125C26.523 0.234375 28.2424 0 30 0C31.5758 0 33.1139 0.195 34.6145 0.585C36.1139 0.97625 37.5758 1.53125 39 2.25C39.3333 2.40625 39.5836 2.64062 39.7509 2.95312C39.917 3.26562 40 3.59375 40 3.9375V26.5312C40 27.25 39.7048 27.7969 39.1145 28.1719C38.523 28.5469 37.9091 28.5625 37.2727 28.2187C36.1515 27.5937 34.977 27.1094 33.7491 26.7656C32.5224 26.4219 31.2727 26.25 30 26.25C28.1818 26.25 26.4242 26.5781 24.7273 27.2344C23.0303 27.8906 21.4545 28.8125 20 30Z" fill="#B1FFC7"/>
<circle cx="20" cy="31" r="10" fill="#9E5ECA"/>
<path d="M18.8672 35.8438C18.7204 35.8438 18.5775 35.7967 18.4595 35.7094C18.4529 35.7048 18.4466 35.6999 18.4405 35.6947L15.8169 33.5468H13.8141C13.6313 33.5468 13.456 33.4742 13.3268 33.3449C13.1976 33.2157 13.125 33.0404 13.125 32.8577V29.6419C13.125 29.4592 13.1976 29.2839 13.3268 29.1547C13.456 29.0254 13.6313 28.9528 13.8141 28.9528H15.8167L18.44 26.8049C18.446 26.7997 18.4524 26.7948 18.4589 26.7902C18.5615 26.7148 18.6831 26.6692 18.81 26.6586C18.937 26.6481 19.0644 26.6729 19.178 26.7304C19.2917 26.7878 19.3873 26.8757 19.454 26.9842C19.5208 27.0927 19.5562 27.2176 19.5563 27.3449V35.1547C19.5563 35.3374 19.4837 35.5127 19.3544 35.6419C19.2252 35.7711 19.0499 35.8438 18.8672 35.8438ZM21.3938 33.5468C21.3154 33.5468 21.2383 33.5267 21.1698 33.4885C21.1014 33.4502 21.0439 33.3951 21.0028 33.3284C20.9616 33.2616 20.9383 33.1855 20.9349 33.1072C20.9315 33.0289 20.9482 32.951 20.9835 32.8809C21.2559 32.3391 21.394 31.7899 21.394 31.2498C21.394 30.6934 21.2602 30.1605 20.9849 29.621C20.9322 29.5127 20.924 29.3881 20.9622 29.274C21.0004 29.1598 21.0818 29.0652 21.1891 29.0104C21.2963 28.9557 21.4207 28.9453 21.5356 28.9814C21.6504 29.0175 21.7465 29.0973 21.8032 29.2035C22.1457 29.8751 22.3125 30.5446 22.3125 31.2498C22.3125 31.9349 22.1402 32.6225 21.8043 33.2938C21.766 33.3699 21.7074 33.4338 21.6349 33.4785C21.5624 33.5232 21.4789 33.5468 21.3938 33.5468Z" fill="white"/>
<path d="M22.8048 35.1875C22.7184 35.1875 22.6335 35.1648 22.5587 35.1216C22.4838 35.0783 22.4217 35.0162 22.3785 34.9413C22.3353 34.8664 22.3125 34.7815 22.3125 34.695C22.3125 34.6085 22.3352 34.5236 22.3784 34.4487C22.9601 33.4356 23.2969 32.5866 23.2969 31.2472C23.2969 29.8875 22.9607 29.0443 22.3797 28.0476C22.3159 27.9349 22.2991 27.8016 22.3329 27.6765C22.3667 27.5515 22.4483 27.4448 22.5601 27.3796C22.6719 27.3143 22.8048 27.2958 22.9302 27.3279C23.0556 27.3601 23.1632 27.4403 23.2299 27.5513C23.8789 28.6648 24.2812 29.6714 24.2812 31.2472C24.2812 32.7996 23.8795 33.8112 23.2314 34.9412C23.1882 35.0162 23.126 35.0784 23.0511 35.1216C22.9762 35.1649 22.8912 35.1876 22.8048 35.1875Z" fill="white"/>
<path d="M24.675 36.5C24.6041 36.4999 24.5346 36.4767 24.4737 36.4326C24.4128 36.3886 24.3628 36.3255 24.3291 36.2499C24.2953 36.1743 24.279 36.0891 24.2819 36.0032C24.2848 35.9174 24.3068 35.834 24.3455 35.762C25.0159 34.5155 25.4625 33.2714 25.4625 31.2502C25.4625 29.2666 25.0151 28.0102 24.3431 26.7344C24.3152 26.6816 24.2963 26.6225 24.2873 26.5608C24.2783 26.499 24.2794 26.4357 24.2905 26.3745C24.3017 26.3132 24.3227 26.2553 24.3524 26.2039C24.3821 26.1525 24.4198 26.1087 24.4634 26.0749C24.507 26.0412 24.5557 26.0182 24.6067 26.0073C24.6576 25.9964 24.7099 25.9977 24.7604 26.0113C24.8109 26.0248 24.8587 26.0503 24.9011 26.0862C24.9435 26.1222 24.9797 26.1679 25.0075 26.2208C25.7531 27.6376 26.25 29.0351 26.25 31.2502C26.25 33.1816 25.8892 34.6396 25.0048 36.2834C24.969 36.3499 24.9201 36.4046 24.8626 36.4424C24.805 36.4802 24.7405 36.5 24.675 36.5Z" fill="white"/>
</svg>
