<svg width="39" height="37" viewBox="0 0 39 37" fill="none" xmlns="http://www.w3.org/2000/svg">
<path d="M2.925 31.1579C3.70076 31.1579 4.44474 31.4656 4.99329 32.0135C5.54183 32.5613 5.85 33.3042 5.85 34.0789C5.85 34.8537 5.54183 35.5966 4.99329 36.1444C4.44474 36.6922 3.70076 37 2.925 37C2.14924 37 1.40526 36.6922 0.856713 36.1444C0.308169 35.5966 0 34.8537 0 34.0789C0 33.3042 0.308169 32.5613 0.856713 32.0135C1.40526 31.4656 2.14924 31.1579 2.925 31.1579ZM12.675 25.3158C13.9679 25.3158 15.2079 25.8287 16.1221 26.7417C17.0364 27.6547 17.55 28.893 17.55 30.1842C17.55 31.4754 17.0364 32.7137 16.1221 33.6267C15.2079 34.5397 13.9679 35.0526 12.675 35.0526C11.3821 35.0526 10.1421 34.5397 9.22785 33.6267C8.31361 32.7137 7.8 31.4754 7.8 30.1842C7.8 28.893 8.31361 27.6547 9.22785 26.7417C10.1421 25.8287 11.3821 25.3158 12.675 25.3158ZM24.375 23.3684C22.0545 23.3684 19.9485 22.3947 18.525 20.7395C17.1015 22.3947 14.9955 23.3684 12.675 23.3684C8.853 23.3684 5.6745 20.6226 5.0115 17.02C3.53886 16.4513 2.27252 15.4517 1.37831 14.1521C0.484093 12.8526 0.00368843 11.3136 0 9.73684C0 7.67095 0.821783 5.68966 2.28457 4.22885C3.74735 2.76804 5.73131 1.94737 7.8 1.94737L9.3015 2.08368C10.725 0.798421 12.5775 0 14.625 0C16.9455 0 19.0515 0.973684 20.475 2.62895C21.8985 0.973684 24.0045 0 26.325 0C30.147 0 33.3255 2.74579 33.9885 6.34842C35.4611 6.91716 36.7275 7.91675 37.6217 9.2163C38.5159 10.5159 38.9963 12.0548 39 13.6316C39 15.6975 38.1782 17.6788 36.7154 19.1396C35.2526 20.6004 33.2687 21.4211 31.2 21.4211L29.6985 21.2847C28.275 22.57 26.4225 23.3684 24.375 23.3684ZM7.8 5.8421C6.76566 5.84211 5.77368 6.25244 5.04228 6.98285C4.31089 7.71325 3.9 8.70389 3.9 9.73684C3.9 10.7698 4.31089 11.7604 5.04228 12.4908C5.77368 13.2212 6.76566 13.6316 7.8 13.6316C8.4435 13.6316 9.048 13.4758 9.594 13.2032C9.06568 13.883 8.77768 14.7184 8.775 15.5789C8.775 16.6119 9.18589 17.6025 9.91728 18.3329C10.6487 19.0633 11.6407 19.4737 12.675 19.4737C13.845 19.4737 14.898 18.9479 15.6 18.13L18.4665 14.8584L21.45 18.1884C22.191 18.9674 23.2245 19.4737 24.375 19.4737C26.325 19.4737 27.9435 18.0326 28.275 16.1632C28.938 17.0005 30.0105 17.5263 31.2 17.5263C32.2343 17.5263 33.2263 17.116 33.9577 16.3856C34.6891 15.6552 35.1 14.6645 35.1 13.6316C35.1 12.5986 34.6891 11.608 33.9577 10.8776C33.2263 10.1472 32.2343 9.73684 31.2 9.73684C30.5565 9.73684 29.952 9.89263 29.406 10.1653C29.9343 9.48544 30.2223 8.65001 30.225 7.78947C30.225 6.75653 29.8141 5.76588 29.0827 5.03548C28.3513 4.30507 27.3593 3.89474 26.325 3.89474C25.1745 3.89474 24.141 4.40105 23.4 5.18L20.4165 8.51L17.55 5.23842C16.848 4.42053 15.795 3.89474 14.625 3.89474C12.675 3.89474 11.0565 5.33579 10.725 7.20526C10.062 6.36789 8.9895 5.8421 7.8 5.8421ZM12.675 28.2368C12.1578 28.2368 11.6618 28.442 11.2961 28.8072C10.9304 29.1724 10.725 29.6677 10.725 30.1842C10.725 30.7007 10.9304 31.196 11.2961 31.5612C11.6618 31.9264 12.1578 32.1316 12.675 32.1316C13.1922 32.1316 13.6882 31.9264 14.0539 31.5612C14.4196 31.196 14.625 30.7007 14.625 30.1842C14.625 29.6677 14.4196 29.1724 14.0539 28.8072C13.6882 28.442 13.1922 28.2368 12.675 28.2368Z" fill="#E3D6FF"/>
</svg>
