<svg width="42" height="42" viewBox="0 0 42 42" fill="none" xmlns="http://www.w3.org/2000/svg">
<path d="M21 3.5C18.7019 3.5 16.4262 3.95265 14.303 4.83211C12.1798 5.71157 10.2507 7.00061 8.62563 8.62563C5.34374 11.9075 3.5 16.3587 3.5 21C3.5 25.6413 5.34374 30.0925 8.62563 33.3744C10.2507 34.9994 12.1798 36.2884 14.303 37.1679C16.4262 38.0474 18.7019 38.5 21 38.5C25.6413 38.5 30.0925 36.6563 33.3744 33.3744C36.6563 30.0925 38.5 25.6413 38.5 21C38.5 18.97 38.1325 16.9575 37.4325 15.0675L34.6325 17.8675C34.8775 18.9 35 19.95 35 21C35 24.713 33.525 28.274 30.8995 30.8995C28.274 33.525 24.713 35 21 35C17.287 35 13.726 33.525 11.1005 30.8995C8.475 28.274 7 24.713 7 21C7 17.287 8.475 13.726 11.1005 11.1005C13.726 8.475 17.287 7 21 7C22.05 7 23.1 7.1225 24.1325 7.3675L26.95 4.55C25.0425 3.8675 23.03 3.5 21 3.5ZM33.25 3.5L26.25 10.5V13.125L21.7875 17.5875C21.525 17.5 21.2625 17.5 21 17.5C20.0717 17.5 19.1815 17.8687 18.5251 18.5251C17.8687 19.1815 17.5 20.0717 17.5 21C17.5 21.9283 17.8687 22.8185 18.5251 23.4749C19.1815 24.1313 20.0717 24.5 21 24.5C21.9283 24.5 22.8185 24.1313 23.4749 23.4749C24.1313 22.8185 24.5 21.9283 24.5 21C24.5 20.7375 24.5 20.475 24.4125 20.2125L28.875 15.75H31.5L38.5 8.75H33.25V3.5ZM21 10.5C18.2152 10.5 15.5445 11.6062 13.5754 13.5754C11.6062 15.5445 10.5 18.2152 10.5 21C10.5 23.7848 11.6062 26.4555 13.5754 28.4246C15.5445 30.3938 18.2152 31.5 21 31.5C23.7848 31.5 26.4555 30.3938 28.4246 28.4246C30.3938 26.4555 31.5 23.7848 31.5 21H28C28 22.8565 27.2625 24.637 25.9497 25.9497C24.637 27.2625 22.8565 28 21 28C19.1435 28 17.363 27.2625 16.0503 25.9497C14.7375 24.637 14 22.8565 14 21C14 19.1435 14.7375 17.363 16.0503 16.0503C17.363 14.7375 19.1435 14 21 14V10.5Z" fill="#FFCACA"/>
</svg>
