<svg width="46" height="38" viewBox="0 0 46 38" fill="none" xmlns="http://www.w3.org/2000/svg">
<g clip-path="url(#clip0_792_87)">
<path d="M26.2803 28.6314C28.6199 27.1322 30.7075 25.272 32.4657 23.1199C34.7177 20.5594 37.36 18.2917 39.8371 15.9113C40.3326 15.4383 40.8655 14.9952 41.3384 14.5597C41.2108 14.2819 41.1883 14.1467 41.1057 14.0717C38.561 11.5336 36.0838 8.91301 33.4415 6.48012C31.7822 4.97041 29.6761 4.04299 27.4424 3.83838C25.2087 3.63377 22.9692 4.16315 21.0633 5.34628C19.6325 6.21499 18.4299 7.41296 17.5555 8.8405C16.681 10.268 16.1601 11.8838 16.036 13.5534C15.9119 15.2231 16.1882 16.8982 16.842 18.4394C17.4958 19.9806 18.5081 21.3433 19.7947 22.4141C20.125 22.6919 20.4703 22.9547 20.9207 23.3001C20.7141 23.3926 20.4974 23.4606 20.2751 23.5029C19.6202 23.5441 18.9633 23.5441 18.3084 23.5029C17.1142 23.4739 15.9604 23.0642 15.0153 22.3335C14.0701 21.6028 13.3829 20.5892 13.0538 19.4405C11.9858 16.473 11.9074 13.2392 12.8303 10.2233C13.7531 7.20745 15.6277 4.5717 18.1733 2.71064C23.3003 -1.04382 30.7392 -0.886141 35.5058 3.33387C38.9739 6.39001 42.1341 9.79906 45.3919 13.0955C45.5732 13.2622 45.718 13.4647 45.817 13.6902C45.916 13.9158 45.9671 14.1595 45.9671 14.4058C45.9671 14.6521 45.916 14.8958 45.817 15.1213C45.718 15.3469 45.5732 15.5494 45.3919 15.7161C42.1491 18.975 38.9514 22.2939 35.5809 25.4101C33.2639 27.4774 30.2781 28.6374 27.1736 28.6765C26.8809 28.6465 26.5806 28.6314 26.2803 28.6314Z" fill="#FF46EC"/>
<path d="M19.637 0.0901782C18.2044 1.09715 16.8287 2.18259 15.5159 3.34153C11.9803 6.78062 8.54989 10.3323 5.07436 13.854C4.94675 13.9892 4.84166 14.1394 4.654 14.3571C5.05935 14.7927 5.40463 15.2357 5.84751 15.6487C7.83674 17.6385 9.83348 19.6209 11.8527 21.6183C13.6331 23.4718 16.0283 24.612 18.5892 24.8249C21.15 25.0378 23.7005 24.3088 25.7624 22.7746C27.829 21.2327 29.2512 18.9794 29.7545 16.45C30.2577 13.9206 29.8062 11.2943 28.4872 9.07836C27.6503 7.92016 26.6998 6.84855 25.6497 5.87955C25.4387 5.67602 25.2156 5.48544 24.9816 5.30887C26.0792 5.07882 27.2122 5.07607 28.3109 5.30078C29.4095 5.52549 30.4505 5.97291 31.3697 6.61544C31.9033 7.1459 32.2956 7.80159 32.5107 8.52269C33.8762 11.5729 34.1314 15.0049 33.2323 18.2237C32.3331 21.4424 30.3362 24.2449 27.5879 26.1452C24.8396 28.0455 21.5131 28.9237 18.1852 28.6277C14.8574 28.3316 11.738 26.8799 9.36808 24.5242C6.5231 21.7084 3.70064 18.87 0.870681 16.0391C-0.292831 14.8752 -0.292831 13.8916 0.870681 12.7277C3.76069 9.82174 6.64322 6.90827 9.57077 4.03986C12.0759 1.57574 15.4264 0.160452 18.9389 0.0826619C19.1564 0.0714044 19.3744 0.0714044 19.592 0.0826619C19.6445 0.0601351 19.682 0.120214 19.637 0.0901782Z" fill="#FF46EC"/>
</g>
<circle cx="24" cy="29" r="9" fill="#A974E3"/>
<path d="M24.7278 24.9355L24.7278 28.7363L28.6181 28.7363C28.7068 28.7336 28.7952 28.7484 28.8779 28.7797C28.9606 28.811 29.0359 28.8582 29.0994 28.9185C29.2337 29.049 29.3092 29.2261 29.3092 29.4108C29.3092 29.5955 29.2337 29.7725 29.0994 29.9031C29.0384 29.9646 28.9652 30.0134 28.8842 30.0464C28.8032 30.0794 28.7161 30.096 28.6283 30.0951L24.7126 30.0705V33.9008C24.7144 34.0613 24.6527 34.2164 24.5403 34.3341C24.406 34.4646 24.2238 34.538 24.0338 34.538C23.8438 34.538 23.6616 34.4646 23.5272 34.3341C23.46 34.2739 23.4063 34.2008 23.3697 34.1195C23.3331 34.0381 23.3143 33.9502 23.3145 33.8614L23.3398 30.0853L19.4393 30.0853C19.3523 30.0867 19.2658 30.0713 19.185 30.04C19.1041 30.0087 19.0304 29.9622 18.9682 29.9031C18.8338 29.7725 18.7584 29.5955 18.7584 29.4108C18.7584 29.2261 18.8338 29.049 18.9682 28.9185C19.0291 28.857 19.1023 28.8082 19.1833 28.7752C19.2643 28.7422 19.3514 28.7256 19.4393 28.7265L23.355 28.7511L23.355 24.9208C23.3532 24.7602 23.4148 24.6052 23.5272 24.4875C23.6616 24.357 23.8438 24.2836 24.0338 24.2836C24.2238 24.2836 24.406 24.357 24.5403 24.4875C24.6604 24.6072 24.7278 24.7682 24.7278 24.9355Z" fill="white"/>
<defs>
<clipPath id="clip0_792_87">
<rect width="46" height="28.6541" fill="white"/>
</clipPath>
</defs>
</svg>
