<svg width="46" height="46" viewBox="0 0 46 46" fill="none" xmlns="http://www.w3.org/2000/svg">
<g clip-path="url(#clip0_700_19)">
<path d="M22.9999 42.1667C20.3485 42.1667 17.8569 41.6633 15.5249 40.6564C13.193 39.6508 11.1645 38.2855 9.4395 36.5605C7.7145 34.8355 6.3492 32.807 5.34359 30.4751C4.3367 28.1431 3.83325 25.6515 3.83325 23.0001C3.83325 20.3487 4.3367 17.857 5.34359 15.5251C6.3492 13.1931 7.7145 11.1647 9.4395 9.43966C11.1645 7.71466 13.193 6.34872 15.5249 5.34183C17.8569 4.33622 20.3485 3.83341 22.9999 3.83341C24.4374 3.83341 25.8353 3.98483 27.1936 4.28766C28.5506 4.59178 29.836 5.03133 31.0499 5.60633C30.9221 5.92578 30.8263 6.26119 30.7624 6.61258C30.6985 6.96397 30.6666 7.31536 30.6666 7.66675C30.6666 8.11397 30.7145 8.53691 30.8103 8.93558C30.9062 9.33553 31.0339 9.71119 31.1937 10.0626C30.0117 9.32786 28.7339 8.74455 27.3603 8.31266C25.9867 7.88205 24.5333 7.66675 22.9999 7.66675C18.7513 7.66675 15.1339 9.15983 12.1478 12.146C9.16031 15.1334 7.66659 18.7515 7.66659 23.0001C7.66659 27.2487 9.16031 30.8667 12.1478 33.8542C15.1339 36.8403 18.7513 38.3334 22.9999 38.3334C27.2485 38.3334 30.8666 36.8403 33.854 33.8542C36.8402 30.8667 38.3333 27.2487 38.3333 23.0001C38.3333 21.7223 38.1818 20.4924 37.879 19.3105C37.5749 18.1286 37.1513 17.0105 36.6083 15.9563C37.1194 16.3716 37.6784 16.6911 38.2853 16.9147C38.8923 17.1383 39.5471 17.2501 40.2499 17.2501C40.4096 17.2501 40.5777 17.2424 40.754 17.2271C40.9291 17.2105 41.0964 17.1862 41.2562 17.1542C41.5437 18.0806 41.7673 19.0313 41.927 20.0062C42.0867 20.9799 42.1666 21.9779 42.1666 23.0001C42.1666 25.6515 41.6631 28.1431 40.6563 30.4751C39.6506 32.807 38.2853 34.8355 36.5603 36.5605C34.8353 38.2855 32.8069 39.6508 30.4749 40.6564C28.143 41.6633 25.6513 42.1667 22.9999 42.1667ZM29.7083 21.0834C30.5388 21.0834 31.2256 20.8119 31.7687 20.2688C32.3117 19.7258 32.5833 19.039 32.5833 18.2084C32.5833 17.3779 32.3117 16.6911 31.7687 16.148C31.2256 15.6049 30.5388 15.3334 29.7083 15.3334C28.8777 15.3334 28.1909 15.6049 27.6478 16.148C27.1048 16.6911 26.8333 17.3779 26.8333 18.2084C26.8333 19.039 27.1048 19.7258 27.6478 20.2688C28.1909 20.8119 28.8777 21.0834 29.7083 21.0834ZM16.2916 21.0834C17.1221 21.0834 17.8089 20.8119 18.352 20.2688C18.8951 19.7258 19.1666 19.039 19.1666 18.2084C19.1666 17.3779 18.8951 16.6911 18.352 16.148C17.8089 15.6049 17.1221 15.3334 16.2916 15.3334C15.461 15.3334 14.7742 15.6049 14.2312 16.148C13.6881 16.6911 13.4166 17.3779 13.4166 18.2084C13.4166 19.039 13.6881 19.7258 14.2312 20.2688C14.7742 20.8119 15.461 21.0834 16.2916 21.0834ZM22.9999 33.5417C25.268 33.5417 27.2722 32.9188 29.0125 31.673C30.7541 30.4272 32.0083 28.814 32.7749 26.8334H13.2249C13.9916 28.814 15.2457 30.4272 16.9873 31.673C18.7277 32.9188 20.7319 33.5417 22.9999 33.5417ZM38.3333 9.58341H36.4166C35.8735 9.58341 35.4186 9.39941 35.0519 9.03141C34.6839 8.66469 34.4999 8.2098 34.4999 7.66675C34.4999 7.12369 34.6839 6.66816 35.0519 6.30016C35.4186 5.93344 35.8735 5.75008 36.4166 5.75008H38.3333V3.83341C38.3333 3.29036 38.5173 2.83483 38.8853 2.46683C39.252 2.10011 39.7069 1.91675 40.2499 1.91675C40.793 1.91675 41.2479 2.10011 41.6146 2.46683C41.9826 2.83483 42.1666 3.29036 42.1666 3.83341V5.75008H44.0833C44.6263 5.75008 45.0812 5.93344 45.4479 6.30016C45.8159 6.66816 45.9999 7.12369 45.9999 7.66675C45.9999 8.2098 45.8159 8.66469 45.4479 9.03141C45.0812 9.39941 44.6263 9.58341 44.0833 9.58341H42.1666V11.5001C42.1666 12.0431 41.9826 12.4987 41.6146 12.8667C41.2479 13.2334 40.793 13.4167 40.2499 13.4167C39.7069 13.4167 39.252 13.2334 38.8853 12.8667C38.5173 12.4987 38.3333 12.0431 38.3333 11.5001V9.58341Z" fill="#46E9FF"/>
</g>
<defs>
<clipPath id="clip0_700_19">
<rect width="46" height="46" fill="white"/>
</clipPath>
</defs>
</svg>
