<svg width="52" height="48" viewBox="0 0 52 48" fill="none" xmlns="http://www.w3.org/2000/svg">
<g filter="url(#filter0_d_656_169)">
<path d="M28.48 38L26 36.6154L31.7143 26.9231H40.2857C40.6611 26.9236 41.0329 26.8524 41.3798 26.7134C41.7267 26.5744 42.0419 26.3705 42.3073 26.1132C42.5727 25.856 42.7831 25.5505 42.9265 25.2142C43.0699 24.878 43.1434 24.5177 43.1429 24.1538V7.53846C43.1434 7.17465 43.0699 6.8143 42.9265 6.47808C42.7831 6.14185 42.5727 5.83636 42.3073 5.5791C42.0419 5.32184 41.7267 5.11789 41.3798 4.97891C41.0329 4.83994 40.6611 4.76868 40.2857 4.76923H11.7143C11.3389 4.76868 10.9671 4.83994 10.6202 4.97891C10.2733 5.11789 9.95815 5.32184 9.69272 5.5791C9.4273 5.83636 9.21687 6.14185 9.07348 6.47808C8.9301 6.8143 8.85658 7.17465 8.85714 7.53846V24.1538C8.85658 24.5177 8.9301 24.878 9.07348 25.2142C9.21687 25.5505 9.4273 25.856 9.69272 26.1132C9.95815 26.3705 10.2733 26.5744 10.6202 26.7134C10.9671 26.8524 11.3389 26.9236 11.7143 26.9231H24.5714V29.6923H11.7143C10.1988 29.6923 8.74531 29.1088 7.67368 28.0701C6.60204 27.0315 6 25.6227 6 24.1538V7.53846C5.99981 6.81109 6.14749 6.09081 6.43459 5.41877C6.7217 4.74673 7.1426 4.1361 7.67326 3.62177C8.20392 3.10744 8.83393 2.69949 9.5273 2.42122C10.2207 2.14295 10.9638 1.99982 11.7143 2H40.2857C41.0362 1.99982 41.7793 2.14295 42.4727 2.42122C43.1661 2.69949 43.7961 3.10744 44.3267 3.62177C44.8574 4.1361 45.2783 4.74673 45.5654 5.41877C45.8525 6.09081 46.0002 6.81109 46 7.53846V24.1538C46 25.6227 45.398 27.0315 44.3263 28.0701C43.2547 29.1088 41.8012 29.6923 40.2857 29.6923H33.3786L28.48 38Z" fill="#545454" stroke="#FF7A00" stroke-width="2.9" stroke-linejoin="round"/>
<path d="M28.3027 12C27.947 12 27.5948 12.0714 27.2671 12.2098C26.9394 12.3483 26.6427 12.551 26.3947 12.806L26.0017 13.211L25.6047 12.806C25.3566 12.551 25.06 12.3484 24.7323 12.21C24.4046 12.0716 24.0524 12.0003 23.6967 12.0003C23.341 12.0003 22.9888 12.0716 22.6611 12.21C22.3334 12.3484 22.0368 12.551 21.7887 12.806C21.2828 13.3283 21 14.0269 21 14.754C21 15.4811 21.2828 16.1797 21.7887 16.702L26.0017 21L30.2107 16.702C30.7166 16.1797 30.9994 15.4811 30.9994 14.754C30.9994 14.0269 30.7166 13.3283 30.2107 12.806C29.9627 12.551 29.666 12.3483 29.3383 12.2098C29.0106 12.0714 28.6585 12 28.3027 12Z" fill="#FF7A00"/>
</g>
<defs>
<filter id="filter0_d_656_169" x="0.550049" y="0.550049" width="50.8999" height="46.9001" filterUnits="userSpaceOnUse" color-interpolation-filters="sRGB">
<feFlood flood-opacity="0" result="BackgroundImageFix"/>
<feColorMatrix in="SourceAlpha" type="matrix" values="0 0 0 0 0 0 0 0 0 0 0 0 0 0 0 0 0 0 127 0" result="hardAlpha"/>
<feOffset dy="4"/>
<feGaussianBlur stdDeviation="2"/>
<feComposite in2="hardAlpha" operator="out"/>
<feColorMatrix type="matrix" values="0 0 0 0 0 0 0 0 0 0 0 0 0 0 0 0 0 0 0.25 0"/>
<feBlend mode="normal" in2="BackgroundImageFix" result="effect1_dropShadow_656_169"/>
<feBlend mode="normal" in="SourceGraphic" in2="effect1_dropShadow_656_169" result="shape"/>
</filter>
</defs>
</svg>
