<svg width="40" height="30" viewBox="0 0 40 30" fill="none" xmlns="http://www.w3.org/2000/svg">
<path d="M23.6364 11.0625V7.875C24.6364 7.4375 25.6594 7.10938 26.7055 6.89063C27.7503 6.67188 28.8485 6.5625 30 6.5625C30.7879 6.5625 31.5606 6.625 32.3182 6.75C33.0758 6.875 33.8182 7.03125 34.5455 7.21875V10.2188C33.8182 9.9375 33.0836 9.72688 32.3418 9.58687C31.5988 9.44563 30.8182 9.375 30 9.375C28.8485 9.375 27.7424 9.52375 26.6818 9.82125C25.6212 10.1175 24.6061 10.5312 23.6364 11.0625ZM23.6364 21.375V18.1875C24.6364 17.75 25.6594 17.4219 26.7055 17.2031C27.7503 16.9844 28.8485 16.875 30 16.875C30.7879 16.875 31.5606 16.9375 32.3182 17.0625C33.0758 17.1875 33.8182 17.3438 34.5455 17.5312V20.5312C33.8182 20.25 33.0836 20.0394 32.3418 19.8994C31.5988 19.7581 30.8182 19.6875 30 19.6875C28.8485 19.6875 27.7424 19.8281 26.6818 20.1094C25.6212 20.3906 24.6061 20.8125 23.6364 21.375ZM23.6364 16.2188V13.0312C24.6364 12.5938 25.6594 12.2656 26.7055 12.0469C27.7503 11.8281 28.8485 11.7188 30 11.7188C30.7879 11.7188 31.5606 11.7813 32.3182 11.9063C33.0758 12.0313 33.8182 12.1875 34.5455 12.375V15.375C33.8182 15.0938 33.0836 14.8831 32.3418 14.7431C31.5988 14.6019 30.8182 14.5312 30 14.5312C28.8485 14.5312 27.7424 14.68 26.6818 14.9775C25.6212 15.2738 24.6061 15.6875 23.6364 16.2188ZM21.8182 24.4687C23.1515 23.8125 24.4927 23.32 25.8418 22.9912C27.1897 22.6637 28.5758 22.5 30 22.5C31.0909 22.5 32.1594 22.5938 33.2055 22.7812C34.2503 22.9688 35.303 23.25 36.3636 23.625V5.0625C35.3636 4.625 34.3261 4.29688 33.2509 4.07813C32.1745 3.85938 31.0909 3.75 30 3.75C28.5758 3.75 27.1667 3.9375 25.7727 4.3125C24.3788 4.6875 23.0606 5.25 21.8182 6V24.4687ZM20 30C18.5455 28.8125 16.9697 27.8906 15.2727 27.2344C13.5758 26.5781 11.8182 26.25 10 26.25C8.72727 26.25 7.47758 26.4219 6.25091 26.7656C5.02303 27.1094 3.84848 27.5937 2.72727 28.2187C2.09091 28.5625 1.47758 28.5469 0.887273 28.1719C0.295758 27.7969 0 27.25 0 26.5312V3.9375C0 3.59375 0.0836364 3.26562 0.250909 2.95312C0.41697 2.64062 0.666667 2.40625 1 2.25C2.42424 1.53125 3.88667 0.97625 5.38727 0.585C6.88667 0.195 8.42424 0 10 0C11.7576 0 13.4776 0.234375 15.16 0.703125C16.8412 1.17188 18.4545 1.875 20 2.8125C21.5455 1.875 23.1594 1.17188 24.8418 0.703125C26.523 0.234375 28.2424 0 30 0C31.5758 0 33.1139 0.195 34.6145 0.585C36.1139 0.97625 37.5758 1.53125 39 2.25C39.3333 2.40625 39.5836 2.64062 39.7509 2.95312C39.917 3.26562 40 3.59375 40 3.9375V26.5312C40 27.25 39.7048 27.7969 39.1145 28.1719C38.523 28.5469 37.9091 28.5625 37.2727 28.2187C36.1515 27.5937 34.977 27.1094 33.7491 26.7656C32.5224 26.4219 31.2727 26.25 30 26.25C28.1818 26.25 26.4242 26.5781 24.7273 27.2344C23.0303 27.8906 21.4545 28.8125 20 30Z" fill="#46FF7A"/>
</svg>
