<svg width="64" height="65" viewBox="0 0 64 65" fill="none" xmlns="http://www.w3.org/2000/svg">
<path d="M63.2187 32.0641C63.2187 49.637 49.1202 63.8783 31.7344 63.8783C14.3485 63.8783 0.25 49.637 0.25 32.0641C0.25 14.4912 14.3485 0.25 31.7344 0.25C49.1202 0.25 63.2187 14.4912 63.2187 32.0641Z" stroke="url(#paint0_linear_1917_14)" stroke-width="0.5"/>
<ellipse cx="31.734" cy="32.0937" rx="24.8356" ry="25.0937" fill="url(#paint1_linear_1917_14)"/>
<path d="M35.8571 41.0293C35.15 41.0293 34.5449 40.7777 34.0417 40.2746C33.5377 39.7706 33.2857 39.165 33.2857 38.4579V25.6007C33.2857 24.8936 33.5377 24.2884 34.0417 23.7853C34.5449 23.2813 35.15 23.0293 35.8571 23.0293H38.4286C39.1357 23.0293 39.7413 23.2813 40.2453 23.7853C40.7484 24.2884 41 24.8936 41 25.6007V38.4579C41 39.165 40.7484 39.7706 40.2453 40.2746C39.7413 40.7777 39.1357 41.0293 38.4286 41.0293H35.8571ZM25.5714 41.0293C24.8643 41.0293 24.2591 40.7777 23.756 40.2746C23.252 39.7706 23 39.165 23 38.4579V25.6007C23 24.8936 23.252 24.2884 23.756 23.7853C24.2591 23.2813 24.8643 23.0293 25.5714 23.0293H28.1429C28.85 23.0293 29.4556 23.2813 29.9596 23.7853C30.4627 24.2884 30.7143 24.8936 30.7143 25.6007V38.4579C30.7143 39.165 30.4627 39.7706 29.9596 40.2746C29.4556 40.7777 28.85 41.0293 28.1429 41.0293H25.5714Z" fill="white"/>
<defs>
<linearGradient id="paint0_linear_1917_14" x1="31.7344" y1="0" x2="31.7344" y2="64.1283" gradientUnits="userSpaceOnUse">
<stop stop-color="white"/>
<stop offset="1" stop-color="white" stop-opacity="0"/>
</linearGradient>
<linearGradient id="paint1_linear_1917_14" x1="31.734" y1="7" x2="31.734" y2="57.1873" gradientUnits="userSpaceOnUse">
<stop stop-color="#8446FF"/>
</linearGradient>
</defs>
</svg>
