<svg width="104" height="104" viewBox="0 0 104 104" fill="none" xmlns="http://www.w3.org/2000/svg">
<path d="M45.9332 59.8001L36.5082 50.3751C35.7137 49.5806 34.7387 49.1834 33.5832 49.1834C32.4276 49.1834 31.4165 49.6167 30.5498 50.4834C29.7554 51.2779 29.3582 52.289 29.3582 53.5167C29.3582 54.7445 29.7554 55.7556 30.5498 56.5501L42.8998 68.9001C43.6943 69.6945 44.7054 70.0917 45.9332 70.0917C47.1609 70.0917 48.1721 69.6945 48.9665 68.9001L73.5582 44.3084C74.3526 43.514 74.7498 42.539 74.7498 41.3834C74.7498 40.2279 74.3165 39.2167 73.4498 38.3501C72.6554 37.5556 71.6443 37.1584 70.4165 37.1584C69.1887 37.1584 68.1776 37.5556 67.3832 38.3501L45.9332 59.8001ZM51.9998 95.3334C46.0054 95.3334 40.3721 94.1952 35.0998 91.9187C29.8276 89.6452 25.2415 86.5584 21.3415 82.6584C17.4415 78.7584 14.3547 74.1723 12.0812 68.9001C9.80473 63.6279 8.6665 57.9945 8.6665 52.0001C8.6665 46.0056 9.80473 40.3723 12.0812 35.1001C14.3547 29.8279 17.4415 25.2417 21.3415 21.3417C25.2415 17.4417 29.8276 14.3535 35.0998 12.0771C40.3721 9.80353 46.0054 8.66675 51.9998 8.66675C57.9943 8.66675 63.6276 9.80353 68.8998 12.0771C74.1721 14.3535 78.7582 17.4417 82.6582 21.3417C86.5582 25.2417 89.6449 29.8279 91.9185 35.1001C94.1949 40.3723 95.3332 46.0056 95.3332 52.0001C95.3332 57.9945 94.1949 63.6279 91.9185 68.9001C89.6449 74.1723 86.5582 78.7584 82.6582 82.6584C78.7582 86.5584 74.1721 89.6452 68.8998 91.9187C63.6276 94.1952 57.9943 95.3334 51.9998 95.3334Z" fill="white"/>
</svg>
