<svg width="32" height="32" viewBox="0 0 32 32" fill="none" xmlns="http://www.w3.org/2000/svg">
<path d="M6.99924 4.98131e-07C6.73063 0.000152037 6.46698 0.0759793 6.23585 0.219561C6.00471 0.363143 5.81457 0.569211 5.68527 0.816238L0.185421 11.3077C0.0404757 11.5844 -0.0217757 11.9005 0.00675773 12.2148C0.0352912 12.5292 0.15329 12.8272 0.345417 13.0703L14.845 31.4304C14.9858 31.6086 15.1623 31.752 15.3619 31.8505C15.5615 31.949 15.7794 32 16 32C16.2206 32 16.4385 31.949 16.6381 31.8505C16.8377 31.752 17.0142 31.6086 17.155 31.4304L31.6546 13.0703C31.8467 12.8272 31.9647 12.5292 31.9932 12.2148C32.0218 11.9005 31.9595 11.5844 31.8146 11.3077L26.3147 0.816238C26.1853 0.568899 25.9948 0.362628 25.7633 0.219027C25.5318 0.0754255 25.2677 -0.000223981 24.9988 4.98131e-07H6.99924ZM4.31131 9.96691L7.88522 3.14745H10.8851L8.6092 9.96691H4.31131ZM8.28721 13.1144L12.1451 23.0771L4.27531 13.1144H8.28721ZM15.977 24.6151L11.5251 13.1144H20.2969L15.977 24.6151ZM11.7891 9.96691L14.0631 3.14745H17.9529L20.3469 9.96691H11.7891ZM23.5448 9.96691L21.1509 3.14745H24.1108L27.6867 9.96691H23.5448ZM23.5208 13.1144H27.7207L19.7109 23.2575L23.5208 13.1144Z" fill="#8446FF"/>
</svg>
