<svg width="20" height="20" viewBox="0 0 20 20" fill="none" xmlns="http://www.w3.org/2000/svg">
<path d="M4.37452 3.11332e-07C4.20664 9.5023e-05 4.04186 0.0474871 3.8974 0.137226C3.75294 0.226964 3.6341 0.355757 3.5533 0.510149L0.115888 7.06732C0.0252973 7.24028 -0.0136098 7.43782 0.00422358 7.63428C0.022057 7.83074 0.0958065 8.01703 0.215886 8.16893L9.27814 19.644C9.36611 19.7554 9.47641 19.845 9.60118 19.9066C9.72596 19.9681 9.86213 20 10 20C10.1379 20 10.274 19.9681 10.3988 19.9066C10.5236 19.845 10.6339 19.7554 10.7219 19.644L19.7841 8.16893C19.9042 8.01703 19.9779 7.83074 19.9958 7.63428C20.0136 7.43782 19.9747 7.24028 19.8841 7.06732L16.4467 0.510149C16.3658 0.355562 16.2468 0.226643 16.1021 0.136892C15.9574 0.0471409 15.7923 -0.000139988 15.6242 3.11332e-07H4.37452ZM2.69457 6.22932L4.92826 1.96715H6.80321L5.38075 6.22932H2.69457ZM5.1795 8.19647L7.59069 14.4232L2.67207 8.19647H5.1795ZM9.98563 15.3844L7.2032 8.19647H12.6856L9.98563 15.3844ZM7.3682 6.22932L8.78941 1.96715H11.2206L12.7168 6.22932H7.3682ZM14.7155 6.22932L13.2193 1.96715H15.0692L17.3042 6.22932H14.7155ZM14.7005 8.19647H17.3254L12.3193 14.5359L14.7005 8.19647Z" fill="#EFEFEF"/>
</svg>
