<svg width="154" height="154" viewBox="0 0 154 154" fill="none" xmlns="http://www.w3.org/2000/svg">
<g clip-path="url(#clip0_1182_10)">
<path d="M24.4838 113.319C35.076 126.155 46.7763 134.698 59.0437 138.402C71.2996 142.153 84.1579 141.089 97.7377 138.774C111.279 136.447 125.55 132.827 129.691 123.941C133.791 115.045 127.799 100.891 126.06 86.7289C124.37 72.5318 126.969 58.3467 121.563 47.6189C116.112 36.8914 102.642 29.6663 88.1596 27.658C73.6689 25.6893 58.1375 29.0146 42.4607 36.2975C26.7271 43.6094 10.8128 54.9547 7.60857 69.1533C4.39501 83.3916 13.8791 100.522 24.4838 113.319Z" fill="#C2C9EB"/>
<mask id="mask0_1182_10" style="mask-type:luminance" maskUnits="userSpaceOnUse" x="0" y="0" width="154" height="154">
<path d="M154 0H0V154H154V0Z" fill="white"/>
</mask>
<g mask="url(#mask0_1182_10)">
<path d="M143.36 105.379L110.944 105.369L83.4172 105.361L79.6258 105.36L15.4262 105.341C15.4262 105.341 12.0415 96.9719 12.9483 87.922C13.0617 86.7898 13.2419 85.6475 13.5048 84.5093C13.506 84.506 13.5063 84.503 13.5075 84.4994C13.6687 83.801 13.8609 83.1038 14.088 82.4126C15.0475 79.4851 16.6245 76.6496 19.0806 74.1709C33.9747 59.1402 53.2217 71.7042 60.4441 71.3381C67.6655 70.9712 68.0728 56.549 89.6511 54.8267C101.62 53.8714 114.468 56.1068 118.618 66.1445C120.253 70.0998 120.537 75.2663 118.885 81.9265C117.924 85.8003 118.748 88.1698 120.581 89.7047C124.389 92.8936 132.552 92.4815 138.118 94.467C142.265 95.9459 144.971 98.7561 143.36 105.379Z" fill="#E5D7FF"/>
<path d="M120.582 89.7044L27.0118 101.861C26.1627 98.7858 25.7266 95.4463 25.9459 91.8877L118.618 66.1442C120.253 70.0994 120.538 75.2663 118.885 81.9268C117.924 85.8005 118.748 88.1695 120.582 89.7044Z" fill="#E5D7FF"/>
<path d="M81.4523 70.8689L12.9487 87.922C13.0618 86.7898 13.2423 85.6472 13.5052 84.509C13.5061 84.5054 13.5067 84.503 13.5076 84.4994C13.6688 83.801 13.8613 83.1035 14.0881 82.412L81.4523 70.8689Z" fill="#E5D7FF"/>
<path d="M79.6263 105.361L15.426 105.341C15.426 105.341 11.142 94.7473 13.5049 84.5094C13.5058 84.5057 13.5064 84.5027 13.5073 84.4994C17.4743 84.3144 23.9917 84.7813 30.8528 88.6827C41.6878 94.8445 59.476 90.3361 64.6245 93.7921C69.773 97.2486 70.955 100.828 74.7837 101.443C78.1242 101.979 79.3649 104.68 79.6257 105.36C79.6263 105.361 79.6263 105.361 79.6263 105.361Z" fill="#CDE2F2"/>
<path d="M105.529 63.8324C105.529 62.8435 106.331 62.0419 107.32 62.0419C108.309 62.0419 109.11 62.8435 109.11 63.8324C109.11 64.8214 108.309 65.623 107.32 65.623C106.331 65.623 105.529 64.8214 105.529 63.8324Z" fill="#F7FAFD"/>
<path d="M59.7278 43.4009C59.7278 43.4009 57.8764 41.895 57.3748 41.9095C56.8731 41.9239 54.9856 43.1948 54.9263 43.5957C54.8666 43.9966 57.1035 42.8835 57.2903 43.2483C57.4773 43.613 57.6607 43.853 58.3321 43.7841C59.0033 43.715 59.6386 44.0065 59.6386 44.0065L59.7278 43.4009Z" fill="#FAB788"/>
<path d="M59.3013 42.6243C59.3013 42.6243 58.9717 42.7685 58.7837 43.2452C58.5435 43.8549 58.7609 44.1786 58.7609 44.1786C58.7609 44.1786 63.0507 47.8662 62.7963 48.565C62.6704 48.9119 59.7771 50.7266 58.3513 51.6042L57.2073 52.4858L60.5002 58.7459C60.4993 58.7243 61.4883 58.0072 61.4877 57.9865C61.4798 57.7688 61.4708 57.498 61.4648 57.3158C61.4648 57.3158 61.4648 57.3152 61.4642 57.3143C61.4483 57.2603 60.9993 55.7154 61.9431 54.5771C62.904 53.4181 66.248 50.489 67.3164 48.4462L67.317 48.445C67.3619 48.288 67.397 48.1375 67.4205 47.9939C67.6755 46.4662 59.3013 42.6243 59.3013 42.6243Z" fill="#EFA05D"/>
<path d="M61.943 54.5771C60.9992 55.7154 61.4482 57.2606 61.4641 57.3146C61.4644 57.3152 61.4645 57.3161 61.4645 57.3161L61.4648 57.3158C61.4648 57.3158 61.4653 57.3152 61.4659 57.3146C61.4668 57.314 61.4674 57.313 61.4688 57.3115C61.6262 57.1298 66.4253 51.5597 67.3164 48.4466C66.248 50.4893 62.904 53.4181 61.943 54.5771Z" fill="#E6904F"/>
<path d="M61.967 105.134C61.4545 104.821 61.7463 102.488 61.7463 102.488C61.7463 102.488 64.1336 100.578 64.4617 102.04C64.7902 103.503 66.7299 104.159 67.8341 104.338C68.5963 104.462 68.8324 104.884 68.9055 105.134H61.967Z" fill="#414F71"/>
<path d="M61.5394 103.651C60.9276 103.42 57.521 95.2432 57.6627 92.5879C57.6795 92.2727 57.6178 89.689 57.521 89.1539C57.4452 88.7367 57.3438 88.2512 57.222 87.7122C57.0358 86.8914 56.8036 85.9472 56.5452 84.9339C55.821 82.0867 54.8982 78.7017 54.2617 76.0067C55.4038 73.4459 56.8677 71.2045 58.2101 70.439C59.1681 70.5557 60.0915 70.7328 60.7754 70.8808C61.3205 71.2008 61.7277 71.4746 62.03 71.7083C62.1362 72.2391 62.2914 73.1249 62.4168 74.2658C62.4974 75.0117 62.5654 75.8681 62.5973 76.8038C62.8244 83.4462 61.6633 90.6641 64.6242 102.445C64.7073 102.774 62.4869 104.009 61.5394 103.651Z" fill="#8469D2"/>
<path d="M62.417 74.2656C61.9234 76.7353 60.7362 82.0131 56.5457 84.9337C55.8215 82.0865 54.8987 78.7015 54.2622 76.0065C55.4043 73.4457 56.8679 71.204 58.2103 70.4385C59.1683 70.5555 60.0919 70.7323 60.7756 70.8803C61.3209 71.2004 61.7279 71.4744 62.0305 71.7081C62.1367 72.239 62.2916 73.1251 62.417 74.2656Z" fill="#9A4FCB"/>
<path d="M58.8789 71.7478C58.8789 71.7478 56.7088 81.4176 56.0131 85.7822C55.7526 87.4155 55.21 92.6476 55.1254 94.2992C55.009 96.5658 54.2619 103.502 54.2619 103.502C54.2619 103.502 53.001 102.706 51.1308 103.449C51.1308 103.449 50.6582 100.34 50.3578 93.8272C50.2696 91.9185 50.6384 89.0505 50.5939 88.1196C50.3737 83.5396 48.9104 71.6984 50.0738 70.9387C51.2369 70.1786 58.8789 71.7478 58.8789 71.7478Z" fill="#8469D2"/>
<path d="M58.2213 51.6854C57.6666 51.639 57.2374 51.6429 57.2236 51.6429L57.223 51.6439C57.223 51.6439 56.3053 54.4399 53.0193 51.4261C52.4421 52.2656 47.9679 54.3271 48.7446 57.8857C48.9274 58.7221 49.085 59.5111 49.2213 60.2552C50.1444 65.2972 50.0722 68.2719 49.8923 69.9124C49.7522 71.1925 49.2213 71.321 49.6962 71.6617C49.6962 71.6617 50.6202 72.0759 52.3494 72.4342C53.6344 72.7003 55.3642 72.9368 57.4892 72.9503C60.8694 72.9716 62.1489 71.8067 62.1489 71.8067C63.0437 70.9317 61.2736 67.4878 61.4153 65.0015C61.4808 63.8538 61.4225 57.7329 61.4011 55.5516L58.9747 52.0204C58.8526 51.6784 58.6111 51.6784 58.2213 51.6854Z" fill="#EFA05D"/>
<path d="M57.2569 51.1144L57.2384 51.5285C57.2384 51.5285 57.2992 52.8277 55.6973 52.9533C54.096 53.0792 52.9157 52.3368 52.9988 51.3396C53.1732 50.5717 53.3519 50.0469 53.3882 49.4075C53.4016 49.1696 53.3954 48.9162 53.3622 48.6295L56.454 48.6912L57.3581 48.8762L57.2569 51.1144Z" fill="#FAB788"/>
<path d="M57.3583 48.8756L57.2572 51.1145C56.9232 51.2541 56.5492 51.3325 56.1342 51.316C54.7144 51.2595 53.838 50.1819 53.3884 49.4072C53.4018 49.1696 53.3956 48.9165 53.3628 48.6295L56.4545 48.6906L57.3583 48.8756Z" fill="#EA9D6B"/>
<path d="M57.4952 49.9707C57.4952 49.9707 53.507 50.6124 53.1456 48.123C52.7842 45.633 52.0261 44.0396 54.5571 43.5248C57.0881 43.0097 57.722 43.8874 58.0447 44.6889C58.3674 45.4908 58.5234 49.7398 57.4952 49.9707Z" fill="#DE8E68"/>
<path d="M54.6064 105.134C54.6064 105.134 54.3901 103.95 54.0476 103.265C53.7047 102.579 51.524 103.015 51.524 103.015C51.524 103.015 51.0879 103.389 50.9946 105.134H54.6064Z" fill="#414F71"/>
<path d="M58.949 42.9824C58.949 42.9824 57.8529 42.8243 56.5912 42.1732C55.567 41.6445 54.2024 42.0612 53.7554 42.26C53.7718 42.1912 53.806 42.0982 53.878 42.0071C53.878 42.0071 53.675 42.1317 53.6337 42.3222C53.6127 42.3356 53.6033 42.3452 53.6085 42.3489C53.6085 42.3489 53.3908 42.294 53.2453 42.3482C53.2453 42.3482 53.3455 42.3407 53.3767 42.4064C53.3799 42.4136 53.3846 42.4196 53.3909 42.4251C51.6928 43.1106 51.3686 45.7008 51.858 46.3374C52.4468 47.1035 53.1024 48.7842 53.1024 48.7842C53.1024 48.7842 53.4065 48.4174 53.3329 47.7728C53.2594 47.1283 53.8095 47.1648 54.5235 46.9213C55.2375 46.6782 54.7127 45.8291 55.3534 45.3773C55.9939 44.9255 58.2039 45.3631 58.2001 44.9849C59.0476 44.7382 58.9433 43.067 58.949 42.9824Z" fill="#8446FF"/>
<path d="M49.8922 69.9121C50.0721 68.2717 50.1443 65.2972 49.2212 60.2553C49.2844 60.0546 49.3472 59.8615 49.4092 59.6778C49.6892 58.8464 50.8791 58.8882 51.0987 59.7373C51.7811 62.3755 52.3953 66.8601 49.8922 69.9121Z" fill="#E6904F"/>
<path d="M48.8829 67.1555C48.8829 67.1555 50.9381 65.9132 51.5749 66.0705C52.212 66.2281 53.5937 66.8288 53.508 67.1961C53.4226 67.563 51.8173 67.8136 51.5379 67.7706C51.2585 67.7272 50.8076 67.7781 50.6247 67.936C50.4416 68.0936 48.9852 68.1525 48.8074 67.7263C48.6296 67.2998 48.8829 67.1555 48.8829 67.1555Z" fill="#FAB788"/>
<path d="M53.0189 51.4252C53.0189 51.4252 50.4993 51.608 49.1301 52.4105C48.2443 52.9297 43.1118 61.1076 43.1118 62.3113C43.1118 63.5151 48.5018 67.785 48.5018 67.785C48.5018 67.785 49.5022 68.117 49.5377 66.5241C49.5377 66.5241 46.8487 62.5499 46.9904 62.0897C47.0791 61.8006 51.0419 58.6217 51.0419 58.6217L53.0189 51.4252Z" fill="#EFA05D"/>
<path d="M52.0684 51.8908C52.0576 51.6725 53.0917 51.3711 53.0917 51.3711C53.0917 51.3711 54.2753 53.0122 56.2252 53.0404C56.2252 53.0404 55.6697 54.1217 55.0146 54.4018C55.0146 54.4018 52.1328 53.1875 52.0684 51.8908Z" fill="#E6904F"/>
<path d="M56.2251 53.0019C56.2251 53.0019 57.2583 52.3895 57.2616 51.7257C57.2616 51.7257 57.9287 51.6421 58.2202 51.9657C58.2202 51.9657 58.4647 53.1033 58.1399 53.7644C58.1399 53.7644 56.6528 53.5376 56.2251 53.0019Z" fill="#E6904F"/>
<path d="M59.8169 68.4163C59.7971 68.9523 59.5784 69.4622 59.203 69.8459L58.6135 70.449C58.4652 70.6006 58.2195 70.5937 58.0802 70.4343L57.2615 69.4997C57.0422 69.2492 56.9282 68.9235 56.9423 68.5905C56.9754 67.8494 57.0347 66.4213 57.0702 65.044C57.0991 63.9281 57.1126 62.8447 57.0837 62.1878C56.9908 60.0898 56.2256 53.4242 56.2256 53.4242H56.73C56.73 53.4242 58.1139 55.9547 58.9525 59.4525C59.1591 60.3136 59.3321 61.2325 59.4439 62.1878C59.4439 62.1878 59.9053 65.9935 59.8169 68.4163Z" fill="#CB655B"/>
<path d="M55.5236 52.9032L56.9244 52.5676C56.9244 52.5676 57.1075 52.5835 57.1024 52.8115C57.0973 53.0398 56.7078 53.7066 56.5355 53.7599C56.3628 53.8134 55.1922 53.3649 55.5236 52.9032Z" fill="#C05F57"/>
<path d="M52.0684 51.5723C52.0576 51.3539 53.0917 51.0526 53.0917 51.0526C53.0917 51.0526 54.2753 52.6933 56.2252 52.7216C56.2252 52.7216 55.6697 53.8032 55.0146 54.0832C55.0146 54.0832 52.1328 52.869 52.0684 51.5723Z" fill="#EFA05D"/>
<path d="M56.2251 52.7216C56.2251 52.7216 57.2583 52.1092 57.2616 51.4454C57.2616 51.4454 57.9287 51.3618 58.2202 51.6854C58.2202 51.6854 58.4647 52.823 58.1399 53.4841C58.1399 53.4841 56.6528 53.2573 56.2251 52.7216Z" fill="#EFA05D"/>
<path d="M59.8167 68.4166C59.7968 68.9526 59.5781 69.4625 59.2028 69.8463L58.6132 70.4493C58.4649 70.6009 58.2192 70.594 58.0799 70.4346L57.2612 69.5001C57.042 69.2495 56.928 68.9238 56.9421 68.5908C56.9752 67.8497 57.0347 66.4216 57.0702 65.0443C58.378 63.4107 58.8283 61.2244 58.9522 59.4528C59.1588 60.3139 59.3318 61.2328 59.4437 62.1881C59.4437 62.1881 59.9051 65.9938 59.8167 68.4166Z" fill="#C05F57"/>
<path d="M44.3381 105.134H41.5264C39.4763 105.134 37.7988 103.456 37.7988 101.406C37.7988 99.3556 39.4763 97.6785 41.5264 97.6785H44.3378C46.3879 97.6785 48.0657 99.3556 48.0657 101.406C48.0657 103.456 46.3882 105.134 44.3381 105.134Z" fill="#414F71"/>
<path d="M47.2863 98.5278V104.284C47.2863 104.751 46.904 105.134 46.4366 105.134H37.8691C37.402 105.134 37.02 104.751 37.02 104.284V98.5278C37.02 98.0604 37.402 97.6781 37.8691 97.6781H46.4366C46.904 97.6781 47.2863 98.0604 47.2863 98.5278Z" fill="#465B95"/>
<path d="M40.2809 97.6782C40.8289 97.0306 41.5426 96.7755 41.9992 96.7755C43.1166 96.7755 43.7405 97.6448 43.7639 97.6782L43.4917 97.6968C43.4716 97.6682 43.0294 97.1118 42.0642 97.1118C41.6675 97.1118 41.0855 97.1133 40.6075 97.6782C40.5768 97.7149 40.2743 97.686 40.2809 97.6782Z" fill="#414F71"/>
<path d="M47.2863 98.7637V100.437C47.2863 100.904 46.904 101.287 46.4366 101.287H37.8691C37.402 101.287 37.02 100.904 37.02 100.437V98.7637C37.02 98.2963 37.402 97.9143 37.8691 97.9143H46.4366C46.904 97.9143 47.2863 98.2963 47.2863 98.7637Z" fill="#414F71"/>
<path d="M47.2863 98.5278V100.201C47.2863 100.668 46.904 101.051 46.4366 101.051H37.8691C37.402 101.051 37.02 100.668 37.02 100.201V98.5278C37.02 98.0604 37.402 97.6781 37.8691 97.6781H46.4366C46.904 97.6781 47.2863 98.0604 47.2863 98.5278Z" fill="#465B95"/>
<path d="M41.7407 100.392C41.7407 100.249 41.8568 100.133 42 100.133C42.1435 100.133 42.2599 100.249 42.2599 100.392C42.2599 100.536 42.1435 100.652 42 100.652C41.8568 100.652 41.7407 100.536 41.7407 100.392Z" fill="#414F71"/>
<path d="M99.4418 100.235C101.266 99.6883 103.614 98.7914 102.352 98.0794C101.001 97.317 99.2452 98.8762 98.2904 99.9104C98.2416 99.9018 98.1926 99.8931 98.1435 99.8857C97.9033 99.8483 97.6601 99.8292 97.413 99.8248C99.2433 96.9724 101.293 93.1708 99.5953 92.6625C97.7658 92.1144 96.3913 96.7516 95.7 100.003C93.9007 100.37 91.9598 101.216 89.941 101.771C89.2637 99.1767 87.6763 95.3014 84.2476 95.3428C80.6468 95.386 85.0878 99.627 88.0835 102.173C87.4053 102.274 86.7208 102.319 86.0324 102.277C81.6335 102.017 78.8372 104.965 78.8372 104.965L102.477 105.266C103.383 103.871 102.071 101.259 99.4418 100.235Z" fill="#AED4A6"/>
<path d="M143.692 105.589L110.568 105.157L110.524 105.148C110.524 105.148 113.493 101.167 119.175 101.254C124.856 101.34 124.823 98.3911 132.288 96.6509C134.498 96.1353 136.606 95.2968 138.478 94.3705C142.696 95.9358 145.424 98.8423 143.692 105.589Z" fill="#AED4A6"/>
<path d="M7.52158 105.042L32.4229 105.522C32.4229 105.522 30.1793 100.864 24.4524 101.781C20.838 102.36 19.6556 101.402 18.1835 100.458C20.9442 99.454 25.0361 97.7881 23.1468 97.3484C21.3441 96.9288 18.857 98.6582 17.3226 99.9476C17.0075 99.7803 16.6633 99.6244 16.2734 99.4891C19.5599 96.4969 25.7496 90.5262 23.0518 90.3197C20.4052 90.1165 16.9762 96.0579 15.3404 99.2306C15.157 99.1917 14.9647 99.1573 14.7622 99.1279C13.9372 99.008 13.1644 99.1481 12.4535 99.452C12.1185 98.1228 11.4875 96.5987 10.6193 96.8966C9.74271 97.1971 10.7094 98.7449 11.6002 99.9102C9.0706 101.545 7.52158 105.042 7.52158 105.042Z" fill="#8DB984"/>
<path d="M80.1564 61.8331L74.1128 64.4352L79.9242 67.5215L93.8313 67.0381V62.6973L80.1564 61.8331Z" fill="#8446FE"/>
<path d="M80.1569 61.8331H79.2789L73.2354 64.4355H74.1133L80.1569 61.8331Z" fill="#CEB5FF"/>
<path d="M79.9247 67.5212H79.4564L73.2354 64.4352H74.1133L79.9247 67.5212Z" fill="#9A4FCB"/>
<path d="M92.9215 63.3488C92.871 63.4859 92.8872 63.6772 92.9576 63.7756C93.0283 63.8739 93.1269 63.8427 93.1778 63.7055C93.2286 63.5684 93.2123 63.3774 93.1414 63.279C93.0707 63.1803 92.9723 63.2116 92.9215 63.3488Z" fill="#9A4FCB"/>
<path d="M92.9215 66.0082C92.871 66.1454 92.8872 66.3364 92.9576 66.4347C93.0283 66.5334 93.1269 66.5021 93.1778 66.3649C93.2286 66.2278 93.2123 66.0368 93.1414 65.9384C93.0707 65.8401 92.9723 65.871 92.9215 66.0082Z" fill="#9A4FCB"/>
<path d="M107.506 69.3607L113.55 71.9628L107.738 75.0491L93.8311 74.566V70.2252L107.506 69.3607Z" fill="#8446FE"/>
<path d="M107.506 69.3607H108.384L114.427 71.9631H113.549L107.506 69.3607Z" fill="#CEB5FF"/>
<path d="M107.739 75.0488H108.207L114.428 71.9628H113.55L107.739 75.0488Z" fill="#9A4FCB"/>
<path d="M94.7416 70.876C94.7925 71.0132 94.7759 71.2045 94.7052 71.3028C94.6349 71.4012 94.5362 71.3696 94.4857 71.2327C94.4348 71.0953 94.4511 70.9046 94.5218 70.8062C94.5925 70.7076 94.6908 70.7389 94.7416 70.876Z" fill="#9A4FCB"/>
<path d="M94.7416 73.5359C94.7925 73.6731 94.7759 73.8644 94.7052 73.9627C94.6349 74.0611 94.5362 74.0295 94.4857 73.8926C94.4348 73.7552 94.4511 73.5645 94.5218 73.4661C94.5925 73.3675 94.6908 73.3988 94.7416 73.5359Z" fill="#9A4FCB"/>
<path d="M85.1489 76.4436L81.2817 79.0502L84.7885 82.1254L93.4682 81.5776V78.0714L85.1489 76.4436Z" fill="#8446FE"/>
<path d="M92.8887 78.55C92.8492 78.6568 92.8619 78.8063 92.9169 78.8827C92.972 78.9594 93.0487 78.935 93.0884 78.8282C93.1278 78.7215 93.1154 78.5723 93.0601 78.4956C93.0051 78.4186 92.9284 78.4435 92.8887 78.55Z" fill="#9A4FCB"/>
<path d="M92.8887 80.6235C92.8492 80.7303 92.8619 80.8795 92.9169 80.9559C92.972 81.0326 93.0487 81.0082 93.0884 80.9017C93.1278 80.7946 93.1154 80.6458 93.0601 80.5691C93.0051 80.4924 92.9284 80.517 92.8887 80.6235Z" fill="#9A4FCB"/>
<path d="M85.149 76.4436H84.6482L80.541 79.0736H81.2818L85.149 76.4436Z" fill="#CEB5FF"/>
<path d="M84.7886 82.1251H84.114L80.541 79.0734H81.2818L84.7886 82.1251Z" fill="#9A4FCB"/>
<path d="M94.7097 58.5609V104.384C94.7097 104.796 94.3951 105.134 94.0107 105.134H93.312C93.1204 105.134 92.9465 105.05 92.8199 104.915C92.6924 104.779 92.6133 104.591 92.6133 104.384V58.5609C92.6133 58.2917 92.7474 58.0547 92.9474 57.923C93.0533 57.8523 93.1784 57.8114 93.312 57.8114H94.0107C94.3951 57.8114 94.7097 58.1483 94.7097 58.5609Z" fill="#8446FE"/>
<path d="M93.1529 58.4536V104.277C93.1529 104.545 93.019 104.783 92.8199 104.915C92.6924 104.779 92.6133 104.591 92.6133 104.384V58.5609C92.6133 58.2917 92.7468 58.0547 92.9468 57.923C93.0735 58.0586 93.1529 58.2466 93.1529 58.4536Z" fill="#CEB5FF"/>
<path d="M96.2661 99.9629V105.134H91.0571V99.943C91.0571 98.979 91.7883 98.1873 92.7259 98.0905C92.7896 98.0839 92.8543 98.0806 92.9193 98.0806H94.3838C95.4236 98.0806 96.2661 98.9234 96.2661 99.9629Z" fill="#8446FE"/>
<path d="M94.4128 99.9626V105.134H91.0566V99.9427C91.0566 98.9787 91.7881 98.1871 92.726 98.0902C93.674 98.188 94.4128 98.9892 94.4128 99.9626Z" fill="#CEB5FF"/>
<path d="M93.9034 56.357V56.1769H93.4429L93.4432 56.1796C93.3178 56.1916 93.2089 56.2421 93.1175 56.3315C93.0116 56.4346 92.959 56.5622 92.959 56.7135C92.959 56.8594 93.0131 56.9854 93.1214 57.091C93.2297 57.1968 93.3566 57.2495 93.5028 57.2495H93.9034V57.069C93.9886 56.9706 94.0316 56.8524 94.0316 56.7135C94.0316 56.5742 93.9886 56.4554 93.9034 56.357Z" fill="#E6904F"/>
<path d="M94.7872 51.9616C94.4596 51.6846 94.0518 51.5463 93.5633 51.5463C93.2511 51.5463 92.9536 51.6182 92.6715 51.7616C92.3893 51.9054 92.1704 52.1081 92.0143 52.3698C91.9186 52.531 91.8711 52.6922 91.8711 52.8532C91.8711 52.9792 91.9102 53.0839 91.9881 53.1669C92.0663 53.2499 92.1656 53.2914 92.2865 53.2914H92.6868C92.6868 53.2914 92.682 53.1413 92.6817 53.0384L92.959 52.6646C93.1049 52.5184 93.2986 52.4453 93.5401 52.4453C93.7468 52.4453 93.9194 52.5021 94.0581 52.6152C94.1964 52.7286 94.2659 52.8887 94.2659 53.095C94.2659 53.332 94.1928 53.5158 94.0466 53.6466C93.9411 53.7423 93.7594 53.8304 93.5025 53.911C93.3112 53.9715 93.184 54.0328 93.1211 54.0957C93.058 54.1589 93.0264 54.2536 93.0264 54.3793V55.1349C93.0264 55.2859 93.067 55.4119 93.1479 55.5127C93.2282 55.6134 93.3416 55.6634 93.4878 55.6634H93.8884V55.4348C93.9062 55.399 93.9218 55.3602 93.9336 55.316C93.9537 55.2353 93.9636 55.029 93.9636 54.6966C94.3766 54.616 94.7026 54.4386 94.9418 54.164C95.1809 53.8897 95.3006 53.5435 95.3006 53.1254C95.3006 52.6468 95.1298 52.2588 94.7872 51.9616Z" fill="#E6904F"/>
<path d="M95.7015 53.1246C95.7015 53.5427 95.5818 53.8889 95.3426 54.1635C95.1032 54.4381 94.7775 54.6159 94.3645 54.6962C94.3645 55.0288 94.3543 55.2355 94.3344 55.3158C94.274 55.5477 94.1254 55.6632 93.8887 55.6632C93.7425 55.6632 93.6291 55.6126 93.5488 55.5119C93.4682 55.4111 93.4276 55.2854 93.4276 55.1341V54.3791C93.4276 54.2531 93.4592 54.1587 93.5223 54.0958C93.5852 54.0326 93.7118 53.971 93.9034 53.9105C94.1603 53.8299 94.3419 53.7418 94.4478 53.6458C94.5937 53.515 94.6668 53.3315 94.6668 53.0948C94.6668 52.8885 94.5976 52.7284 94.459 52.6151C94.3203 52.502 94.1479 52.4451 93.9416 52.4451C93.6998 52.4451 93.5058 52.5182 93.3599 52.6644L93.0579 53.0719C92.9517 53.2178 92.8284 53.2909 92.6874 53.2909C92.5667 53.2909 92.4672 53.2494 92.389 53.1664C92.3108 53.0834 92.272 52.9787 92.272 52.8527C92.272 52.6915 92.3198 52.5308 92.4151 52.3696C92.5713 52.1076 92.7902 51.9046 93.0724 51.7611C93.3545 51.6177 93.6517 51.5458 93.9642 51.5458C94.4526 51.5458 94.8608 51.6847 95.188 51.9618C95.5303 52.2586 95.7015 52.6463 95.7015 53.1246ZM94.4325 56.7132C94.4325 56.8642 94.3823 56.9914 94.2815 57.0949C94.1807 57.1978 94.0544 57.2498 93.9034 57.2498C93.7575 57.2498 93.6306 57.1966 93.5223 57.091C93.4137 56.9851 93.3599 56.8594 93.3599 56.7132C93.3599 56.5622 93.4125 56.4353 93.5184 56.3321C93.624 56.2289 93.7524 56.1769 93.9034 56.1769C94.0544 56.1769 94.1807 56.2289 94.2815 56.3321C94.3823 56.4353 94.4325 56.5622 94.4325 56.7132Z" fill="#F1AA62"/>
<path d="M150.16 105.516H6.39735C6.29208 105.516 6.20605 105.43 6.20605 105.325C6.20605 105.22 6.29238 105.134 6.39735 105.134H150.16C150.265 105.134 150.351 105.22 150.351 105.325C150.351 105.43 150.265 105.516 150.16 105.516Z" fill="#484D63"/>
</g>
</g>
<defs>
<clipPath id="clip0_1182_10">
<rect width="154" height="154" fill="white"/>
</clipPath>
</defs>
</svg>
