<svg width="58" height="58" viewBox="0 0 58 58" fill="none" xmlns="http://www.w3.org/2000/svg">
<circle cx="29" cy="29" r="29" fill="#8446FF"/>
<path d="M31 26.9V25.2C31.55 24.9667 32.1127 24.7917 32.688 24.675C33.2627 24.5583 33.8667 24.5 34.5 24.5C34.9333 24.5 35.3583 24.5333 35.775 24.6C36.1917 24.6667 36.6 24.75 37 24.85V26.45C36.6 26.3 36.196 26.1877 35.788 26.113C35.3793 26.0377 34.95 26 34.5 26C33.8667 26 33.2583 26.0793 32.675 26.238C32.0917 26.396 31.5333 26.6167 31 26.9ZM31 32.4V30.7C31.55 30.4667 32.1127 30.2917 32.688 30.175C33.2627 30.0583 33.8667 30 34.5 30C34.9333 30 35.3583 30.0333 35.775 30.1C36.1917 30.1667 36.6 30.25 37 30.35V31.95C36.6 31.8 36.196 31.6877 35.788 31.613C35.3793 31.5377 34.95 31.5 34.5 31.5C33.8667 31.5 33.2583 31.575 32.675 31.725C32.0917 31.875 31.5333 32.1 31 32.4ZM31 29.65V27.95C31.55 27.7167 32.1127 27.5417 32.688 27.425C33.2627 27.3083 33.8667 27.25 34.5 27.25C34.9333 27.25 35.3583 27.2833 35.775 27.35C36.1917 27.4167 36.6 27.5 37 27.6V29.2C36.6 29.05 36.196 28.9377 35.788 28.863C35.3793 28.7877 34.95 28.75 34.5 28.75C33.8667 28.75 33.2583 28.8293 32.675 28.988C32.0917 29.146 31.5333 29.3667 31 29.65ZM30 34.05C30.7333 33.7 31.471 33.4373 32.213 33.262C32.9543 33.0873 33.7167 33 34.5 33C35.1 33 35.6877 33.05 36.263 33.15C36.8377 33.25 37.4167 33.4 38 33.6V23.7C37.45 23.4667 36.8793 23.2917 36.288 23.175C35.696 23.0583 35.1 23 34.5 23C33.7167 23 32.9417 23.1 32.175 23.3C31.4083 23.5 30.6833 23.8 30 24.2V34.05ZM29 37C28.2 36.3667 27.3333 35.875 26.4 35.525C25.4667 35.175 24.5 35 23.5 35C22.8 35 22.1127 35.0917 21.438 35.275C20.7627 35.4583 20.1167 35.7167 19.5 36.05C19.15 36.2333 18.8127 36.225 18.488 36.025C18.1627 35.825 18 35.5333 18 35.15V23.1C18 22.9167 18.046 22.7417 18.138 22.575C18.2293 22.4083 18.3667 22.2833 18.55 22.2C19.3333 21.8167 20.1377 21.5207 20.963 21.312C21.7877 21.104 22.6333 21 23.5 21C24.4667 21 25.4127 21.125 26.338 21.375C27.2627 21.625 28.15 22 29 22.5C29.85 22 30.7377 21.625 31.663 21.375C32.5877 21.125 33.5333 21 34.5 21C35.3667 21 36.2127 21.104 37.038 21.312C37.8627 21.5207 38.6667 21.8167 39.45 22.2C39.6333 22.2833 39.771 22.4083 39.863 22.575C39.9543 22.7417 40 22.9167 40 23.1V35.15C40 35.5333 39.8377 35.825 39.513 36.025C39.1877 36.225 38.85 36.2333 38.5 36.05C37.8833 35.7167 37.2373 35.4583 36.562 35.275C35.8873 35.0917 35.2 35 34.5 35C33.5 35 32.5333 35.175 31.6 35.525C30.6667 35.875 29.8 36.3667 29 37Z" fill="white"/>
</svg>
