<svg width="155" height="166" viewBox="0 0 155 166" fill="none" xmlns="http://www.w3.org/2000/svg">
<mask id="mask0_1830_1797" style="mask-type:luminance" maskUnits="userSpaceOnUse" x="-40" y="-10" width="235" height="235">
<path d="M195 -10H-40V225H195V-10Z" fill="white"/>
</mask>
<g mask="url(#mask0_1830_1797)">
<g opacity="0.8">
<g opacity="0.833333">
<path d="M60.1509 36.5932C59.3346 36.5932 58.6729 35.9315 58.6729 35.1152V27.7685C58.6729 26.9522 59.3346 26.2905 60.1509 26.2905C60.9672 26.2905 61.6289 26.9522 61.6289 27.7685V35.1152C61.6289 35.9315 60.9672 36.5932 60.1509 36.5932Z" fill="#8446FF"/>
<path d="M65.3026 31.4419C65.3026 32.2582 64.6409 32.9199 63.8246 32.9199H56.478C55.6617 32.9199 55 32.2582 55 31.4419C55 30.6256 55.6617 29.9639 56.478 29.9639H63.8246C64.6409 29.9639 65.3026 30.6256 65.3026 31.4419Z" fill="#8446FF"/>
</g>
<g opacity="0.526316">
<path d="M160.177 133.838C160.177 134.353 159.759 134.771 159.243 134.771H154.603C154.088 134.771 153.67 134.353 153.67 133.838C153.67 133.322 154.088 132.904 154.603 132.904H159.243C159.759 132.904 160.177 133.322 160.177 133.838Z" fill="#8446FF"/>
</g>
<g opacity="0.0555556">
<path d="M146.04 58.8829C145.986 58.8829 145.941 58.8388 145.941 58.7844V58.2946C145.941 58.2402 145.986 58.196 146.04 58.196C146.094 58.196 146.138 58.2402 146.138 58.2946V58.7844C146.138 58.8388 146.094 58.8829 146.04 58.8829Z" fill="#ED509E"/>
<path d="M146.383 58.5395C146.383 58.5939 146.339 58.638 146.285 58.638H145.795C145.74 58.638 145.696 58.5939 145.696 58.5395C145.696 58.485 145.74 58.4409 145.795 58.4409H146.285C146.339 58.4409 146.383 58.485 146.383 58.5395Z" fill="#ED509E"/>
</g>
<g opacity="0.1">
<path d="M7.02959 168.212C7.02959 168.212 -10.0462 157.965 -5.84974 116.769C-1.65325 75.5737 30.092 48.1867 51.1211 39.9926C87.8856 25.6673 163.52 22.1654 165.035 109.26C166.11 171.118 138.5 167.676 138.5 167.676L7.02959 168.212Z" fill="#8446FF"/>
</g>
<path d="M109.608 143.787L97.7729 128.346L93.66 165.432C93.5621 166.314 92.8152 166.981 91.9276 166.978L60.7846 166.883C59.8943 166.88 59.1501 166.205 59.0611 165.319L55.3599 128.492L44.3891 143.137C43.0912 144.87 40.5849 145.113 38.9781 143.662L38.2849 143.036C37.6842 142.493 37.5449 141.604 37.9512 140.904L52.5551 115.734C53.8841 113.445 55.7362 111.504 57.9613 110.071C60.6673 108.325 63.8192 107.397 67.0395 107.397H85.7389C87.5314 107.397 89.3019 107.67 90.9926 108.199C92.6833 108.729 94.2942 109.513 95.767 110.534C97.8877 112.004 99.6597 113.923 100.955 116.155L116.072 143.17C114.807 145.7 111.329 146.032 109.608 143.787Z" fill="#ED509E"/>
<path d="M106.07 126.355L99.9351 130.445C99.6032 130.666 99.1548 130.576 98.9336 130.244L98.3888 129.427C98.1923 129.132 97.7344 129.242 97.6939 129.595L93.4691 166.344C93.4273 166.709 93.1173 166.985 92.7496 166.984L59.7747 166.883C59.4053 166.882 59.0964 166.602 59.0585 166.234L55.3261 130.007C55.2865 129.623 54.7871 129.499 54.5727 129.821L54.0951 130.537C53.871 130.873 53.4145 130.961 53.0825 130.73L46.79 126.364C46.4761 126.146 46.3862 125.721 46.5849 125.395L52.4621 115.737C53.792 113.447 55.6438 111.507 57.8683 110.074C60.5752 108.327 63.7262 107.399 66.9459 107.399H85.6461C87.4385 107.399 89.2096 107.673 90.9001 108.201C92.5906 108.732 94.2019 109.516 95.6748 110.537C97.7944 112.007 99.567 113.925 100.862 116.159L106.292 125.388C106.486 125.718 106.389 126.142 106.07 126.355Z" fill="#8446FF"/>
<path d="M53.023 129.02L53.6441 128.272C54.97 127.22 56.9338 128.061 57.087 129.747L56.8824 133.432L56.5685 130.802C56.4085 129.587 55.259 128.758 54.0559 128.989L53.3625 129.413C53.1089 129.568 52.8331 129.249 53.023 129.02Z" fill="#8446FF"/>
<path d="M100.185 128.411L99.5633 127.663C98.2374 126.611 96.2738 127.453 96.1208 129.138L94.6514 145.3L96.6392 130.193C96.7989 128.979 97.9485 128.149 99.1516 128.381L99.845 128.804C100.099 128.959 100.374 128.64 100.185 128.411Z" fill="#8446FF"/>
<path d="M76.6761 114.164C72.9811 114.164 69.958 111.141 69.958 107.446V96.6104H83.3941V107.446C83.3941 111.141 80.3711 114.164 76.6761 114.164Z" fill="#ED509E"/>
<path d="M83.3941 99.257V101.344C81.241 102.438 79.049 103.041 76.9595 103.041C74.7995 103.041 72.3776 102.241 69.958 100.812V98.9131C72.3207 100.281 74.6811 101.042 76.7899 101.042C78.9341 101.042 81.1863 100.408 83.3941 99.257Z" fill="#8446FF"/>
<path d="M54.5816 112.245L54.5771 112.253" stroke="#2500C4" stroke-width="0.32374" stroke-miterlimit="10"/>
<path d="M98.9874 112.768L98.9854 112.764" stroke="#2500C4" stroke-width="0.32374" stroke-miterlimit="10"/>
<path d="M43.084 142.877C42.9483 144.148 41.6049 144.926 40.4441 144.39C38.6937 143.582 37.0727 141.868 36.9892 137.493L36.4216 107.755C36.4208 107.647 36.4261 107.539 36.4384 107.435C36.5523 106.266 37.3176 105.254 38.2612 105.085C39.1827 104.921 39.9789 105.623 40.1596 106.727C40.1678 106.781 40.1752 106.838 40.1807 106.896L43.5986 138.056L43.084 142.877Z" fill="#ED509E"/>
<path d="M39.1483 92.9819L40.2373 101.386C40.2461 101.465 40.3178 101.486 40.3377 101.415L40.8799 99.4901C40.9958 98.9381 41.4011 98.6776 41.7753 98.9146C42.1255 99.1363 41.9502 99.6402 41.853 100.163L41.1298 104.139L40.7434 105.891C40.5215 106.663 40.1157 106.975 39.5449 107.03L36.6124 107.314C36.3303 107.342 36.0447 107.169 35.8391 106.848L35.4392 106.221C34.7561 105.152 34.3105 103.8 34.1726 102.377L34.0505 100.128C33.9995 99.6023 34.2759 99.1054 34.474 99.045C34.8248 98.9869 35.1652 99.3679 35.2387 99.9012L35.3856 100.776L35.3305 99.1849C35.2897 98.6118 35.4862 98.1535 35.8621 98.1054C36.2394 98.0572 36.6004 98.4662 36.6837 99.0363L36.8757 100.25L36.7823 98.7465C36.7512 98.1364 37.0376 97.6326 37.4387 97.5919C37.8259 97.5909 38.1268 97.9937 38.2168 98.596L38.4863 99.8317L38.2076 93.0808C38.1721 92.5575 38.2426 92.2204 38.5869 92.1871C38.9372 92.1531 39.09 92.4512 39.1483 92.9819Z" fill="#ED509E"/>
<path d="M111.825 142.79C111.339 143.977 112.155 145.303 113.435 145.383C115.366 145.503 117.613 144.761 119.77 140.938L134.43 114.948C134.482 114.853 134.529 114.756 134.568 114.658C135.024 113.571 134.83 112.313 134.077 111.715C133.341 111.131 132.304 111.372 131.619 112.261C131.586 112.304 131.552 112.351 131.52 112.4L113.665 138.288L111.825 142.79Z" fill="#ED509E"/>
<path d="M139.055 100.605L134.092 107.508C134.047 107.573 133.974 107.557 133.99 107.485L134.428 105.527C134.588 104.985 134.354 104.562 133.911 104.593C133.496 104.622 133.411 105.15 133.248 105.658L131.994 109.513L131.5 111.245C131.329 112.031 131.539 112.5 132.017 112.821L134.471 114.468C134.707 114.627 135.041 114.61 135.376 114.424L136.027 114.062C137.139 113.442 138.177 112.46 138.976 111.27L140.155 109.342C140.45 108.902 140.442 108.332 140.296 108.184C140.014 107.966 139.532 108.14 139.213 108.576L138.667 109.279L139.473 107.9C139.782 107.413 139.827 106.915 139.518 106.694C139.207 106.471 138.694 106.661 138.349 107.124L137.601 108.105L138.4 106.822C138.718 106.298 138.705 105.716 138.37 105.489C138.029 105.304 137.571 105.517 137.205 106.006L136.379 106.969L139.839 101.14C140.119 100.695 140.218 100.364 139.93 100.17C139.636 99.9734 139.36 100.164 139.055 100.605Z" fill="#ED509E"/>
<path d="M78.1371 60.0799C80.6584 58.0538 83.9238 56.9436 87.3823 57.2183C90.9787 57.5039 94.1322 59.2347 96.3145 61.7937C98.497 64.3525 99.7082 67.7396 99.4226 71.3362L98.1386 87.504C97.6356 93.8371 100.937 99.5476 106.036 102.15C104.031 102.662 101.896 102.858 99.7014 102.684C96.6638 102.443 93.8523 101.519 91.4223 100.084C89.6761 99.0534 88.1267 97.7589 86.8319 96.2661L78.1371 60.0799Z" fill="#2500C4"/>
<path d="M78.1371 60.0799C80.6584 58.0538 83.9238 56.9436 87.3823 57.2183C90.9787 57.5039 94.1322 59.2347 96.3145 61.7937C98.497 64.3525 99.7082 67.7396 99.4226 71.3362L98.1386 87.504C97.6356 93.8371 100.937 99.5476 106.036 102.15C104.031 102.662 101.896 102.858 99.7014 102.684C96.6638 102.443 93.8523 101.519 91.4223 100.084C89.6761 99.0534 88.1267 97.7589 86.8319 96.2661L78.1371 60.0799Z" stroke="#2500C4" stroke-width="0.2753" stroke-miterlimit="10"/>
<path d="M61.3529 87.5307L62.702 87.4153C62.996 87.3902 63.2158 87.1293 63.1907 86.8355L62.3006 76.4231C62.2754 76.1293 62.0144 75.9094 61.7204 75.9346L60.3713 76.05C60.0774 76.075 59.8575 76.336 59.8827 76.6298L60.7728 87.042C60.798 87.3359 61.0591 87.5557 61.3529 87.5307Z" fill="#8446FF"/>
<path d="M59.1092 86.5488L61.7212 86.3255C62.0027 86.3014 62.2135 86.0515 62.1893 85.7701L61.4974 77.676C61.4733 77.3945 61.2234 77.1839 60.9419 77.2079L58.3296 77.4312C57.4731 77.5045 56.8323 78.2652 56.9055 79.1218L57.4186 85.1247C57.4919 85.9812 58.2527 86.622 59.1092 86.5488Z" fill="#8446FF"/>
<path d="M95.8025 81.6698C94.0298 93.0029 84.4823 102.032 76.8865 101.749C70.0648 101.495 60.51 91.7459 59.5169 80.3181C58.2959 66.2712 68.4128 59.8652 78.4328 60.2385C88.4528 60.6118 97.9647 67.8458 95.8025 81.6698Z" fill="#ED509E"/>
<path d="M96.131 78.0483C84.5095 77.3422 78.5905 76.5574 70.5645 70.3458L69.3969 69.3716C67.5952 72.7206 63.4 77.1289 59.379 78.811L59.1536 77.0585C59.0333 69.8836 61.0802 66.9559 64.8905 63.5128C66.9875 61.8468 69.0977 60.9805 71.6001 60.2745C73.8183 59.6497 76.4598 59.3897 78.8001 59.4768C87.5979 59.8046 95.2319 63.9767 96.3444 74.0273C96.4928 75.3697 96.4151 76.7279 96.131 78.0483Z" fill="#8446FF"/>
<path d="M95.6919 81.7173C95.6665 81.8813 95.6391 82.0445 95.6099 82.2073C95.5891 82.3253 95.5676 82.4432 95.5448 82.5601C95.5424 82.5745 95.5389 82.5897 95.5365 82.6042C95.5162 82.7066 95.4961 82.809 95.4749 82.9105C95.4654 82.9594 95.4549 83.0082 95.4444 83.0561C95.4223 83.1595 95.3999 83.2629 95.3759 83.3661C95.363 83.4265 95.3494 83.4867 95.3346 83.547C95.3185 83.6169 95.3014 83.6867 95.2843 83.7565C95.2603 83.8579 95.2342 83.9601 95.2083 84.0614C95.1644 84.2325 95.1196 84.4027 95.0719 84.5717C95.0241 84.7426 94.9752 84.9125 94.9236 85.0822C94.8896 85.194 94.8557 85.3046 94.8206 85.4153C94.7824 85.5373 94.743 85.6593 94.7029 85.7805C94.666 85.892 94.6282 86.0035 94.5893 86.1148C94.5569 86.2092 94.5234 86.3026 94.4891 86.3958C94.4525 86.4987 94.4151 86.5996 94.3776 86.7014C94.3392 86.8032 94.3007 86.904 94.2613 87.0048C94.2313 87.0839 94.2003 87.1627 94.1685 87.2417C94.1302 87.3376 94.091 87.4337 94.0517 87.5287C94.0263 87.5925 94 87.6552 93.9725 87.7188C93.9228 87.8366 93.8721 87.9534 93.8216 88.0701C93.7699 88.1869 93.7184 88.3027 93.6659 88.4176C93.6449 88.464 93.6239 88.5105 93.6019 88.557C93.5578 88.6528 93.5128 88.7486 93.467 88.8434C93.422 88.9382 93.376 89.0331 93.3301 89.1278C93.2602 89.2709 93.1883 89.413 93.1156 89.554C93.0429 89.696 92.9694 89.8361 92.8949 89.9751C92.8202 90.1151 92.7437 90.2542 92.6673 90.3912C92.6033 90.5056 92.5384 90.6179 92.4735 90.7312C92.4723 90.7341 92.4702 90.738 92.4682 90.7409C92.4259 90.8145 92.3836 90.8872 92.3405 90.96C92.2993 91.0298 92.2574 91.0995 92.2153 91.1694C92.2028 91.1901 92.1905 91.212 92.1772 91.2327C92.1011 91.3582 92.0242 91.4835 91.9463 91.607C91.7794 91.872 91.6096 92.1331 91.4362 92.39C91.3485 92.518 91.2609 92.645 91.1723 92.7719C90.9952 93.025 90.8135 93.2729 90.6299 93.5179C90.4454 93.7619 90.2573 94.0019 90.0673 94.2379C89.7804 94.5921 89.4881 94.9352 89.1885 95.2685L89.1895 95.2697C85.6663 99.195 81.2885 101.66 77.3685 101.719C75.0303 99.7541 73.584 96.7706 73.7059 93.4983L74.4648 73.1233C80.7021 76.8844 86.3903 77.5256 95.9987 78.1094C95.9975 78.1913 95.9965 78.2732 95.9944 78.3562C95.9941 78.3909 95.9936 78.4267 95.9923 78.4622C95.966 79.5034 95.8679 80.5882 95.6919 81.7173Z" fill="#ED509E"/>
<path d="M59.3102 79.2241C59.3067 78.8801 59.3118 78.5352 59.3247 78.1886C59.8972 62.8177 68.3853 58.2928 78.6338 58.6745C88.7787 59.0524 96.8738 63.789 96.4511 79.1012L96.9612 79.1898L96.9625 79.1545C97.5748 63.1852 89.2705 58.2682 78.8361 57.8796C68.4017 57.4909 59.76 62.0979 59.1771 77.747C59.1584 78.2478 59.1562 78.7459 59.1704 79.2393L59.3102 79.2241Z" fill="#8446FF"/>
<path d="M94.7329 89.0649L93.3961 88.8495C93.105 88.8025 92.9051 88.5262 92.952 88.2349L94.6143 77.9176C94.6612 77.6265 94.9379 77.4267 95.229 77.4736L96.5658 77.689C96.857 77.7359 97.0569 78.0125 97.0099 78.3037L95.3476 88.6208C95.3006 88.9119 95.0241 89.1118 94.7329 89.0649Z" fill="#8446FF"/>
<path d="M97.0435 88.2526L94.4551 87.8356C94.1762 87.7906 93.9848 87.5257 94.0297 87.2469L95.3218 79.2267C95.3668 78.9478 95.6319 78.7563 95.9108 78.8013L98.499 79.2183C99.3477 79.355 99.9302 80.1614 99.7935 81.0101L98.8351 86.9582C98.6984 87.8069 97.8922 88.3893 97.0435 88.2526Z" fill="#8446FF"/>
<path d="M79.0575 59.4885C78.786 59.7265 78.5248 59.9744 78.274 60.2335C76.0924 62.4816 74.6997 65.5073 74.5747 68.864L74.4201 73.0139C73.1693 72.258 71.8959 71.3765 70.5641 70.3463L69.3971 69.3716C67.6024 72.7078 63.4342 77.0919 59.4284 78.7895C59.4115 78.7967 59.3958 78.8038 59.379 78.811L59.1536 77.0585C59.0333 69.8836 61.0803 66.9563 64.8906 63.513C66.9875 61.847 69.0982 60.981 71.6001 60.2748C73.8181 59.65 76.4595 59.3899 78.8001 59.4771C78.8862 59.4803 78.9723 59.4834 79.0575 59.4885Z" fill="#8446FF"/>
<g opacity="0.866667">
<path d="M131.86 66.7362C132.546 67.4216 133.909 67.169 134.906 66.1722C135.903 65.1753 136.155 63.8117 135.47 63.1263C134.785 62.441 133.421 62.6936 132.424 63.6903C131.427 64.6872 131.175 66.0509 131.86 66.7362Z" fill="#2500C4"/>
<path d="M131.86 66.7362C132.546 67.4216 133.909 67.169 134.906 66.1722C135.903 65.1753 136.155 63.8117 135.47 63.1263C134.785 62.441 133.421 62.6936 132.424 63.6903C131.427 64.6872 131.175 66.0509 131.86 66.7362Z" stroke="#2500C4" stroke-width="0.16972" stroke-miterlimit="10"/>
<path d="M135.38 64.2931C135.138 64.2931 134.941 64.0967 134.941 63.8543V51.4902C134.941 51.2479 135.138 51.0515 135.38 51.0515C135.622 51.0515 135.819 51.2479 135.819 51.4902V63.8543C135.819 64.0967 135.622 64.2931 135.38 64.2931Z" fill="#2500C4"/>
<path d="M135.38 64.2931C135.138 64.2931 134.941 64.0967 134.941 63.8543V51.4902C134.941 51.2479 135.138 51.0515 135.38 51.0515C135.622 51.0515 135.819 51.2479 135.819 51.4902V63.8543C135.819 64.0967 135.622 64.2931 135.38 64.2931Z" stroke="#2500C4" stroke-width="0.16972" stroke-miterlimit="10"/>
<path d="M138.96 66.7362C139.645 67.4216 141.009 67.169 142.006 66.1722C143.003 65.1753 143.255 63.8117 142.57 63.1263C141.884 62.441 140.521 62.6936 139.524 63.6903C138.527 64.6872 138.274 66.0509 138.96 66.7362Z" fill="#2500C4"/>
<path d="M138.96 66.7362C139.645 67.4216 141.009 67.169 142.006 66.1722C143.003 65.1753 143.255 63.8117 142.57 63.1263C141.884 62.441 140.521 62.6936 139.524 63.6903C138.527 64.6872 138.274 66.0509 138.96 66.7362Z" stroke="#2500C4" stroke-width="0.16972" stroke-miterlimit="10"/>
<path d="M142.48 64.2931C142.237 64.2931 142.041 64.0967 142.041 63.8543V51.4902C142.041 51.2479 142.237 51.0515 142.48 51.0515C142.722 51.0515 142.918 51.2479 142.918 51.4902V63.8543C142.918 64.0967 142.722 64.2931 142.48 64.2931Z" fill="#2500C4"/>
<path d="M142.48 64.2931C142.237 64.2931 142.041 64.0967 142.041 63.8543V51.4902C142.041 51.2479 142.237 51.0515 142.48 51.0515C142.722 51.0515 142.918 51.2479 142.918 51.4902V63.8543C142.918 64.0967 142.722 64.2931 142.48 64.2931Z" stroke="#2500C4" stroke-width="0.16972" stroke-miterlimit="10"/>
<path d="M146.059 66.7362C146.745 67.4216 148.108 67.169 149.105 66.1722C150.102 65.1753 150.355 63.8117 149.669 63.1263C148.984 62.441 147.62 62.6936 146.624 63.6903C145.627 64.6872 145.374 66.0509 146.059 66.7362Z" fill="#2500C4"/>
<path d="M146.059 66.7362C146.745 67.4216 148.108 67.169 149.105 66.1722C150.102 65.1753 150.355 63.8117 149.669 63.1263C148.984 62.441 147.62 62.6936 146.624 63.6903C145.627 64.6872 145.374 66.0509 146.059 66.7362Z" stroke="#2500C4" stroke-width="0.16972" stroke-miterlimit="10"/>
<path d="M149.579 64.2931C149.337 64.2931 149.141 64.0967 149.141 63.8543V51.4902C149.141 51.2479 149.337 51.0515 149.579 51.0515C149.822 51.0515 150.018 51.2479 150.018 51.4902V63.8543C150.018 64.0967 149.822 64.2931 149.579 64.2931Z" fill="#2500C4"/>
<path d="M149.579 64.2931C149.337 64.2931 149.141 64.0967 149.141 63.8543V51.4902C149.141 51.2479 149.337 51.0515 149.579 51.0515C149.822 51.0515 150.018 51.2479 150.018 51.4902V63.8543C150.018 64.0967 149.822 64.2931 149.579 64.2931Z" stroke="#2500C4" stroke-width="0.16972" stroke-miterlimit="10"/>
<path d="M150.011 51.4719C150.011 51.7143 149.814 51.9107 149.572 51.9107H135.373C135.131 51.9107 134.935 51.7143 134.935 51.4719C134.935 51.2296 135.131 51.0332 135.373 51.0332H149.572C149.814 51.0332 150.011 51.2296 150.011 51.4719Z" fill="#2500C4"/>
<path d="M150.011 51.4719C150.011 51.7143 149.814 51.9107 149.572 51.9107H135.373C135.131 51.9107 134.935 51.7143 134.935 51.4719C134.935 51.2296 135.131 51.0332 135.373 51.0332H149.572C149.814 51.0332 150.011 51.2296 150.011 51.4719Z" stroke="#2500C4" stroke-width="0.16972" stroke-miterlimit="10"/>
<path d="M149.892 53.8848C149.892 54.1161 149.704 54.3036 149.473 54.3036H142.772C142.541 54.3036 142.354 54.1161 142.354 53.8848C142.354 53.6536 142.541 53.4661 142.772 53.4661H149.473C149.704 53.4661 149.892 53.6536 149.892 53.8848Z" fill="#2500C4"/>
<path d="M149.892 53.8848C149.892 54.1161 149.704 54.3036 149.473 54.3036H142.772C142.541 54.3036 142.354 54.1161 142.354 53.8848C142.354 53.6536 142.541 53.4661 142.772 53.4661H149.473C149.704 53.4661 149.892 53.6536 149.892 53.8848Z" stroke="#2500C4" stroke-width="0.16972" stroke-miterlimit="10"/>
</g>
<g opacity="0.947368">
<path d="M30.6101 94.1723C31.2604 94.8227 32.5545 94.5831 33.5004 93.6371C34.4464 92.6911 34.6859 91.3971 34.0357 90.7468C33.3853 90.0965 32.0913 90.3361 31.1453 91.282C30.1994 92.228 29.9597 93.522 30.6101 94.1723Z" fill="#2500C4"/>
<path d="M30.6101 94.1723C31.2604 94.8227 32.5545 94.5831 33.5004 93.6371C34.4464 92.6911 34.6859 91.3971 34.0357 90.7468C33.3853 90.0965 32.0913 90.3361 31.1453 91.282C30.1994 92.228 29.9597 93.522 30.6101 94.1723Z" stroke="#2500C4" stroke-width="0.161053" stroke-miterlimit="10"/>
<path d="M33.9505 91.8541C33.7205 91.8541 33.5342 91.6678 33.5342 91.4378V79.7051C33.5342 79.4752 33.7205 79.2888 33.9505 79.2888C34.1805 79.2888 34.3668 79.4752 34.3668 79.7051V91.4378C34.3668 91.6678 34.1805 91.8541 33.9505 91.8541Z" fill="#2500C4"/>
<path d="M33.9505 91.8541C33.7205 91.8541 33.5342 91.6678 33.5342 91.4378V79.7051C33.5342 79.4752 33.7205 79.2888 33.9505 79.2888C34.1805 79.2888 34.3668 79.4752 34.3668 79.7051V91.4378C34.3668 91.6678 34.1805 91.8541 33.9505 91.8541Z" stroke="#2500C4" stroke-width="0.161053" stroke-miterlimit="10"/>
<path d="M37.3474 94.1723C37.9977 94.8227 39.2918 94.5831 40.2377 93.6371C41.1837 92.6911 41.4232 91.3971 40.773 90.7468C40.1226 90.0965 38.8286 90.3361 37.8826 91.282C36.9367 92.228 36.697 93.522 37.3474 94.1723Z" fill="#2500C4"/>
<path d="M37.3474 94.1723C37.9977 94.8227 39.2918 94.5831 40.2377 93.6371C41.1837 92.6911 41.4232 91.3971 40.773 90.7468C40.1226 90.0965 38.8286 90.3361 37.8826 91.282C36.9367 92.228 36.697 93.522 37.3474 94.1723Z" stroke="#2500C4" stroke-width="0.161053" stroke-miterlimit="10"/>
<path d="M40.6868 91.8541C40.4569 91.8541 40.2705 91.6678 40.2705 91.4378V79.7051C40.2705 79.4752 40.4569 79.2888 40.6868 79.2888C40.9168 79.2888 41.1031 79.4752 41.1031 79.7051V91.4378C41.1031 91.6678 40.9168 91.8541 40.6868 91.8541Z" fill="#2500C4"/>
<path d="M40.6868 91.8541C40.4569 91.8541 40.2705 91.6678 40.2705 91.4378V79.7051C40.2705 79.4752 40.4569 79.2888 40.6868 79.2888C40.9168 79.2888 41.1031 79.4752 41.1031 79.7051V91.4378C41.1031 91.6678 40.9168 91.8541 40.6868 91.8541Z" stroke="#2500C4" stroke-width="0.161053" stroke-miterlimit="10"/>
<path d="M41.0968 79.6876C41.0968 79.9175 40.9105 80.1039 40.6805 80.1039H33.9437C33.7137 80.1039 33.5273 79.9175 33.5273 79.6876C33.5273 79.4576 33.7137 79.2712 33.9437 79.2712H40.6805C40.9105 79.2712 41.0968 79.4576 41.0968 79.6876Z" fill="#2500C4"/>
<path d="M41.0968 79.6876C41.0968 79.9175 40.9105 80.1039 40.6805 80.1039H33.9437C33.7137 80.1039 33.5273 79.9175 33.5273 79.6876C33.5273 79.4576 33.7137 79.2712 33.9437 79.2712H40.6805C40.9105 79.2712 41.0968 79.4576 41.0968 79.6876Z" stroke="#2500C4" stroke-width="0.161053" stroke-miterlimit="10"/>
</g>
</g>
</g>
</svg>
