<svg width="155" height="151" viewBox="0 0 155 151" fill="none" xmlns="http://www.w3.org/2000/svg">
<g opacity="0.8" clip-path="url(#clip0_1833_31)">
<mask id="mask0_1833_31" style="mask-type:luminance" maskUnits="userSpaceOnUse" x="14" y="11" width="128" height="128">
<path d="M142 11H14V139H142V11Z" fill="white"/>
</mask>
<g mask="url(#mask0_1833_31)">
<g opacity="0.259139">
<path d="M68.5482 69.6404C68.5482 70.3382 59.2798 70.9038 47.8467 70.9038C36.4137 70.9038 27.1455 70.3382 27.1455 69.6404C27.1455 68.9426 36.4137 68.377 47.8467 68.377C59.2798 68.377 68.5482 68.9426 68.5482 69.6404Z" fill="#3D3E00"/>
</g>
<g opacity="0.259139">
<path d="M128.519 69.6404C128.519 70.3382 119.251 70.9038 107.817 70.9038C96.3844 70.9038 87.1162 70.3382 87.1162 69.6404C87.1162 68.9426 96.3844 68.377 107.817 68.377C119.251 68.377 128.519 68.9426 128.519 69.6404Z" fill="#3D3E00"/>
</g>
<g opacity="0.259139">
<path d="M68.9037 130.44C68.9037 131.138 59.6353 131.704 48.2022 131.704C36.7692 131.704 27.501 131.138 27.501 130.44C27.501 129.743 36.7692 129.177 48.2022 129.177C59.6353 129.177 68.9037 129.743 68.9037 130.44Z" fill="#3D3E00"/>
</g>
<g opacity="0.259139">
<path d="M127.571 130.203C127.571 130.901 118.302 131.467 106.869 131.467C95.4362 131.467 86.168 130.901 86.168 130.203C86.168 129.506 95.4362 128.94 106.869 128.94C118.302 128.94 127.571 129.506 127.571 130.203Z" fill="#3D3E00"/>
</g>
<path d="M99.4796 119.1L98.7627 121.056L106.973 125.727L115.184 121.056L114.377 118.855C109.527 120.134 104.369 120.219 99.4796 119.1Z" fill="#9C73F8"/>
<path d="M99.2649 119.686L98.7627 121.056L104.961 124.582C104.072 123.413 102.108 121.154 99.2649 119.686Z" fill="#9C73F8"/>
<path d="M114.682 119.686C111.838 121.154 109.874 123.413 108.985 124.582L115.184 121.056L114.682 119.686Z" fill="#9C73F8"/>
<path d="M113.04 112.656C113.063 111.822 113.167 110.988 113.357 110.168L113.842 108.084L112.517 100.532L110.924 100.422C110.509 102.482 108.9 104.02 106.973 104.02C105.046 104.02 103.436 102.482 103.021 100.422L101.428 100.532L100.104 108.084L100.588 110.168C100.829 111.204 100.935 112.262 100.907 113.315C104.938 113.949 109.102 113.723 113.04 112.656Z" fill="#FF8E3A"/>
<path d="M112.112 111.927C108.745 112.606 105.248 112.639 101.869 112.023L101.911 112.001C102.7 111.599 103.59 111.418 104.47 111.521C106.141 111.718 107.837 111.702 109.505 111.476C110.388 111.356 111.287 111.522 112.087 111.915L112.112 111.927Z" fill="#FF8E3A"/>
<path d="M111.506 101.851C111.191 102.592 110.628 103.347 109.842 103.906C109.063 104.467 108.066 104.83 107.058 104.814C106.05 104.795 105.066 104.397 104.308 103.809C103.541 103.223 103.005 102.449 102.716 101.698C102.882 102.484 103.356 103.357 104.127 104.028C104.888 104.701 105.945 105.172 107.051 105.192C108.158 105.211 109.231 104.777 110.015 104.131C110.809 103.487 111.312 102.631 111.506 101.851Z" fill="#FF8E3A"/>
<path d="M110.242 104.699C109.81 104.962 109.282 105.211 108.691 105.374C108.101 105.537 107.449 105.614 106.804 105.571C106.159 105.527 105.524 105.363 104.961 105.122C104.397 104.882 103.908 104.564 103.515 104.245C103.853 104.621 104.319 104.999 104.886 105.284C105.45 105.57 106.112 105.763 106.788 105.808C107.465 105.854 108.146 105.752 108.744 105.544C109.344 105.338 109.856 105.026 110.242 104.699Z" fill="#FF8E3A"/>
<path d="M113.041 112.656C109.102 113.723 104.938 113.949 100.907 113.315C100.871 114.656 100.619 115.99 100.153 117.262L99.4795 119.1C104.368 120.219 109.527 120.134 114.377 118.855L113.794 117.262C113.251 115.781 112.999 114.218 113.041 112.656Z" fill="#ED509E"/>
<path d="M111.714 114.077L113.21 115.053C113.077 114.261 113.019 113.459 113.04 112.656C109.102 113.723 104.938 113.949 100.907 113.315C100.888 114.041 100.803 114.766 100.656 115.48L102.364 114.603C105.481 114.931 108.653 114.753 111.714 114.077Z" fill="#ED509E"/>
<path d="M106.973 104.02C108.9 104.02 110.51 102.482 110.925 100.422L109.571 100.328C108.994 100.288 108.538 99.8237 108.509 99.2462L108.381 96.7134H106.973H105.565L105.437 99.2462C105.408 99.8237 104.952 100.288 104.376 100.328L103.021 100.422C103.437 102.482 105.046 104.02 106.973 104.02Z" fill="#ED509E"/>
<path d="M106.163 106.777L106.283 104.017L106.422 104.071C106.754 104.199 106.974 104.518 106.974 104.874L106.975 106.777L106.163 106.777Z" fill="#ED509E"/>
<path d="M106.975 105.543L106.977 110.459C106.978 111.142 106.483 111.726 105.809 111.838L105.148 111.948L95.4621 116.546C94.6905 116.912 93.7728 116.764 93.1559 116.173C92.5181 115.562 92.3415 114.612 92.717 113.812L97.6157 103.38C98.3321 101.854 99.7618 100.786 101.428 100.532L100.107 108.085L97.5912 112.033L104.965 109.938L106.164 106.777L106.356 104.704C106.723 104.818 106.975 105.158 106.975 105.543Z" fill="#ED509E"/>
<path d="M97.5911 112.033L95.1471 112.727C96.3533 110.839 97.8784 111.582 97.8784 111.582L97.5911 112.033Z" fill="#ED509E"/>
<path d="M106.975 105.543L106.977 110.459C106.513 108.818 106.57 107.729 106.975 105.543Z" fill="#ED509E"/>
<path d="M107.782 106.777L107.662 104.017L107.523 104.071C107.191 104.199 106.971 104.518 106.971 104.874L106.97 106.777L107.782 106.777Z" fill="#ED509E"/>
<path d="M106.971 105.543L106.969 110.459C106.968 111.142 107.463 111.726 108.137 111.838L108.798 111.948L118.484 116.546C119.255 116.912 120.173 116.764 120.79 116.173C121.427 115.561 121.604 114.612 121.229 113.812L116.33 103.38C115.614 101.854 114.184 100.786 112.518 100.532L113.839 108.084L116.354 112.033L108.98 109.938L107.782 106.777L107.59 104.704C107.222 104.818 106.971 105.158 106.971 105.543Z" fill="#ED509E"/>
<path d="M116.355 112.032L118.799 112.727C117.592 110.838 116.067 111.582 116.067 111.582L116.355 112.032Z" fill="#ED509E"/>
<path d="M106.895 125.071L106.893 128.484C112.228 131.003 119.645 125.929 124.332 120.866C125.267 119.855 125.351 118.321 124.549 117.202C123.743 116.077 122.257 115.673 120.993 116.239C116.757 118.134 109.81 122.721 106.895 125.071Z" fill="#9C73F8"/>
<path d="M120.713 118.349L124.83 120.118C124.642 120.351 124.438 120.603 124.228 120.83C119.541 125.893 112.229 131.003 106.893 128.484L106.895 126.287C109.785 126.289 115.999 117.439 120.713 118.349Z" fill="#3D3E00"/>
<path d="M104.632 128.163C102.22 127.346 99.8725 126.727 98.8469 126.468C98.5399 126.391 98.2233 126.554 98.1091 126.849C98.0164 127.089 98.0798 127.362 98.2691 127.536L98.5524 127.797L98.8832 129.528C98.9751 130.009 99.3957 130.357 99.8855 130.357L104.503 130.36C103.97 129.282 104.632 128.163 104.632 128.163Z" fill="#ED509E"/>
<path d="M120.724 118.323C114.196 119.119 112.452 125.768 104.632 128.163C104.632 128.163 103.97 129.283 104.502 130.36C114.358 130.366 121.234 125.632 124.833 120.116L120.724 118.323Z" fill="#9C73F8"/>
<path d="M107.134 125.071L107.137 128.484C101.802 131.003 94.3844 125.929 89.6973 120.866C88.7619 119.855 88.6783 118.322 89.4803 117.202C90.287 116.077 91.7729 115.673 93.0366 116.239C97.2727 118.134 104.219 122.721 107.134 125.071Z" fill="#9C73F8"/>
<path d="M93.3175 118.349L89.2003 120.118C89.324 120.386 89.4883 120.64 89.6976 120.866C94.3849 125.93 101.802 131.004 107.137 128.485L107.136 126.287C104.245 126.289 98.0311 117.439 93.3175 118.349Z" fill="#3D3E00"/>
<path d="M115.921 126.849C115.806 126.554 115.49 126.391 115.183 126.468C114.157 126.727 111.81 127.346 109.398 128.163C109.398 128.163 110.06 129.282 109.527 130.36L114.144 130.357C114.634 130.357 115.055 130.009 115.146 129.528L115.477 127.797L115.761 127.536C115.95 127.361 116.013 127.089 115.921 126.849Z" fill="#ED509E"/>
<path d="M109.398 128.163C101.578 125.768 99.7925 119.112 93.264 118.316L89.2003 120.118C92.7992 125.634 99.6715 130.366 109.527 130.36C110.06 129.283 109.398 128.163 109.398 128.163Z" fill="#9C73F8"/>
<path d="M108.408 96.3792H107H105.592L105.552 97.17C105.72 98.0433 106.488 98.4701 107 98.4701C107.512 98.4701 108.28 98.0433 108.448 97.17L108.408 96.3792Z" fill="#3D3E00"/>
<path d="M111.501 83.8116C111.501 85.4977 110.134 86.8646 108.448 86.8646C106.762 86.8646 105.395 85.4977 105.395 83.8116C105.395 82.1253 106.762 80.7585 108.448 80.7585C110.134 80.7585 111.501 82.1253 111.501 83.8116Z" fill="#3D3E00"/>
<path d="M107 83.6218C103.629 83.6218 102.14 86.2245 102.053 87.0352L107 85.7552L111.947 87.0352C111.859 86.2245 110.37 83.6218 107 83.6218Z" fill="#3D3E00"/>
<path d="M106.989 84.4539C103.374 84.4539 100.883 86.0537 101.798 89.2752L106.989 86.8006L112.181 89.2752C113.095 86.0537 110.605 84.4539 106.989 84.4539Z" fill="#FF8E3A"/>
<path d="M102.936 93.1589C102.731 93.0014 102.45 92.9183 102.21 93.0135C101.911 93.1318 101.768 93.4923 101.803 93.8113C101.839 94.1301 102.014 94.4147 102.195 94.6795C102.356 94.9163 102.534 95.1537 102.781 95.2996C103.028 95.4455 103.362 95.4793 103.593 95.3094C103.822 95.141 103.891 94.8172 103.833 94.5387C103.737 94.0702 103.313 93.4495 102.936 93.1589Z" fill="#ED509E"/>
<path d="M102.053 93.7024C102.128 93.5503 102.332 93.4969 102.494 93.5477C102.656 93.5987 102.781 93.7291 102.879 93.8677C103.033 94.0851 103.14 94.3355 103.191 94.597C103.212 94.7001 103.209 94.8335 103.114 94.8782C103.02 94.9223 102.915 94.8405 102.86 94.7525C102.741 94.5603 102.727 94.3067 102.826 94.103C102.741 93.972 102.642 93.8277 102.514 93.7388C102.386 93.6499 102.185 93.6193 102.053 93.7024Z" fill="#3D3E00"/>
<path d="M111.065 93.1589C111.27 93.0014 111.551 92.9183 111.791 93.0135C112.09 93.1318 112.233 93.4923 112.198 93.8113C112.162 94.1301 111.988 94.4147 111.806 94.6795C111.645 94.9163 111.467 95.1537 111.22 95.2996C110.973 95.4455 110.639 95.4793 110.408 95.3094C110.179 95.141 110.11 94.8172 110.168 94.5387C110.264 94.0702 110.688 93.4495 111.065 93.1589Z" fill="#ED509E"/>
<path d="M111.947 93.7024C111.872 93.5503 111.667 93.4969 111.505 93.5477C111.343 93.5987 111.219 93.7291 111.121 93.8677C110.967 94.0851 110.86 94.3355 110.808 94.597C110.788 94.7001 110.79 94.8335 110.886 94.8782C110.979 94.9223 111.085 94.8405 111.14 94.7525C111.259 94.5603 111.272 94.3067 111.174 94.103C111.259 93.972 111.357 93.8277 111.485 93.7388C111.614 93.6499 111.815 93.6193 111.947 93.7024Z" fill="#3D3E00"/>
<path d="M111.925 88.4859C111.159 86.7792 107.714 86.8005 106.989 86.8005C106.263 86.8005 102.818 86.7792 102.053 88.4859C101.287 90.1924 101.752 91.6432 103.481 94.4587H106.989H110.497C112.226 91.6432 112.691 90.1924 111.925 88.4859Z" fill="#3D3E00"/>
<path d="M110.072 89.1685C109.688 88.4858 107.853 88.8912 106.989 88.8912C106.126 88.8912 104.291 88.4858 103.907 89.1685C103.523 89.8512 103.886 91.4025 103.118 91.9709C103.087 92.239 103.066 92.4988 103.051 92.7455C103.291 94.1764 103.926 95.5229 104.899 96.6258C105.431 97.2286 106.196 97.5738 107 97.5738C107.804 97.5738 108.569 97.2286 109.101 96.6258C110.054 95.5459 110.682 94.232 110.933 92.8344C110.918 92.5615 110.895 92.2716 110.861 91.9709C110.093 91.4025 110.456 89.8512 110.072 89.1685Z" fill="#ED509E"/>
<path d="M107.875 94.3022H106.104C106.48 94.6308 106.794 94.6739 106.989 94.6739C107.185 94.6739 107.444 94.6399 107.875 94.3022Z" fill="#ED509E"/>
<path d="M107.697 96.0055C107.284 95.9701 106.704 96.0099 106.3 96.101C106.669 96.3031 107.359 96.2557 107.697 96.0055Z" fill="#ED509E"/>
<path d="M42.625 122.583L47.8307 125.29L52.4329 122.897C49.1676 123.207 45.8634 123.103 42.625 122.583Z" fill="#3D3E00"/>
<path d="M55.9144 112.944C56.0323 111.772 56.3723 110.638 56.8642 109.567C57.6209 107.92 58.2833 104.86 57.386 98.9561L52.2551 97.7874C51.4475 99.4169 49.7723 100.54 47.8304 100.54C45.8885 100.54 44.2131 99.4169 43.4056 97.7874L38.2748 98.9561C37.3775 104.86 38.0397 107.92 38.7965 109.567C39.2883 110.638 39.6285 111.772 39.7464 112.944L40.6102 121.535L42.6246 122.583C45.863 123.102 49.1672 123.207 52.4325 122.897L55.0505 121.535L55.9144 112.944Z" fill="#9C73F8"/>
<path d="M52.2177 99.364C51.738 99.9064 51.0897 100.439 50.3038 100.819C49.5217 101.202 48.6067 101.432 47.689 101.42C46.7713 101.405 45.8636 101.148 45.0931 100.743C44.3187 100.339 43.6863 99.788 43.2227 99.2317C43.5929 99.8533 44.1859 100.492 44.9672 100.965C45.7435 101.44 46.7038 101.745 47.684 101.76C48.6643 101.774 49.6331 101.497 50.423 101.045C51.2179 100.596 51.8295 99.9743 52.2177 99.364Z" fill="#9C73F8"/>
<path d="M55.0965 110.691C54.2432 110.31 53.2084 109.977 52.0727 109.755C50.9377 109.532 49.7035 109.422 48.471 109.447C47.2385 109.473 46.0098 109.634 44.885 109.903C43.7593 110.171 42.7392 110.548 41.9023 110.963C43.7521 110.688 46.1126 110.377 48.4892 110.336C50.8657 110.279 53.237 110.492 55.0965 110.691Z" fill="#9C73F8"/>
<path d="M53.3882 115.747C52.5462 115.838 51.5762 115.907 50.5434 115.899C49.5111 115.893 48.4172 115.81 47.3361 115.641C46.2552 115.469 45.189 115.211 44.2048 114.9C43.2198 114.589 42.3181 114.225 41.5449 113.879C42.254 114.341 43.1262 114.802 44.1059 115.181C45.0846 115.561 46.1692 115.858 47.2741 116.034C48.3794 116.207 49.5027 116.258 50.551 116.197C51.5997 116.139 52.5714 115.968 53.3882 115.747Z" fill="#9C73F8"/>
<path d="M54.351 113.922C53.2858 114.242 51.8822 114.595 50.4504 114.779C49.0196 114.971 47.5726 114.992 46.4609 114.958C47.553 115.166 49.0309 115.233 50.4844 115.038C51.9391 114.851 53.3497 114.404 54.351 113.922Z" fill="#9C73F8"/>
<path d="M54.9547 118.674C54.1521 119.008 53.2178 119.36 52.2001 119.657C51.1831 119.956 50.084 120.201 48.9718 120.361C47.8591 120.518 46.7352 120.589 45.6753 120.586C44.6151 120.584 43.6197 120.507 42.7559 120.41C43.5934 120.641 44.5893 120.822 45.6648 120.892C46.7399 120.964 47.8927 120.926 49.0293 120.765C50.1656 120.602 51.2834 120.317 52.2955 119.948C53.3087 119.581 54.2146 119.129 54.9547 118.674Z" fill="#9C73F8"/>
<path d="M50.3485 119.491C49.5901 119.622 48.6213 119.768 47.6441 119.796C46.6671 119.831 45.6912 119.749 44.9258 119.667C45.6258 119.985 46.6393 120.199 47.6562 120.162C48.6733 120.133 49.6707 119.853 50.3485 119.491Z" fill="#9C73F8"/>
<path d="M47.8302 100.54C49.772 100.54 51.4475 99.4169 52.2551 97.7874L51.4005 97.5929C50.9521 97.4907 50.6267 97.1022 50.605 96.6427L50.4222 92.7634H47.8302H45.2382L45.0553 96.6427C45.0336 97.1022 44.7083 97.4907 44.2598 97.5929L43.4053 97.7874C44.2129 99.4169 45.8884 100.54 47.8302 100.54Z" fill="#ED509E"/>
<path d="M57.3859 98.9565C59.7273 99.491 61.4266 101.519 61.5436 103.917L61.9011 111.253C63.5223 111.382 64.0777 112.772 65.6572 112.868L65.6563 114.542L64.744 116.123L60.5724 116.421C58.952 116.537 57.5293 115.353 57.3494 113.738L56.5305 106.388L57.3859 98.9565Z" fill="#ED509E"/>
<path d="M56.8632 109.374L56.5305 106.388L57.3859 98.9565C59.7273 99.491 61.4265 101.519 61.5435 103.917L61.7696 108.556C61.3352 108.807 60.8366 108.965 60.345 109.082C59.2076 109.352 58.03 109.448 56.8632 109.374Z" fill="#ED509E"/>
<path d="M61.9009 111.253C60.3677 111.563 59.343 113.083 59.343 113.083C59.2641 110.827 61.2883 110.603 61.884 110.908L61.9009 111.253Z" fill="#ED509E"/>
<path d="M57.3855 98.9564L58.0448 99.107C60.1044 99.5771 61.6411 101.299 61.8751 103.398L62.3216 107.404C59.7291 108.459 56.2092 108.233 56.2092 108.233L57.3855 98.9564Z" fill="#9C73F8"/>
<path d="M58.4958 108.2C57.1895 108.296 56.2095 108.233 56.2095 108.233L57.0623 101.508C57.6394 102.261 58.0866 103.114 58.3645 104.022C58.7776 105.37 58.8199 106.828 58.4958 108.2Z" fill="#9C73F8"/>
<path d="M70.0495 113.811C70.0086 114.031 69.7564 114.161 69.5333 114.14C69.3101 114.119 69.1144 113.987 68.9387 113.848C68.763 113.709 68.5906 113.555 68.3795 113.48C68.1682 113.405 67.9022 113.429 67.7612 113.604C67.6569 113.733 67.6432 113.919 67.6929 114.077C67.7426 114.236 67.8475 114.371 67.9618 114.491C68.4069 114.96 69.0324 115.254 69.6776 115.296C69.6354 115.073 69.6126 114.841 69.6511 114.617C69.6712 114.5 69.7042 114.381 69.7798 114.289C69.8972 114.146 70.1149 114.097 70.2819 114.176C70.3948 114.614 70.4976 115.051 70.6103 115.489C70.6466 115.63 70.6805 115.79 70.6039 115.914C70.5197 116.05 70.3386 116.085 70.1785 116.091C69.8855 116.103 69.5904 116.066 69.3097 115.982C69.9995 116.543 70.6873 117.151 71.3772 117.712C71.5576 117.859 71.7584 118.071 71.6796 118.29C71.6204 118.454 71.4265 118.53 71.267 118.582C70.7738 118.741 70.2518 118.808 69.7362 118.755C68.1329 118.588 66.8506 117.708 65.5969 116.831C65.293 116.619 64.9862 116.403 64.7435 116.123C64.5008 115.842 64.3251 115.487 64.3328 115.116C64.3403 114.745 64.5625 114.368 64.9134 114.248C64.9194 113.721 65.2339 113.182 65.6568 112.868C66.0797 112.554 66.6013 112.398 67.1224 112.32C67.4343 112.274 67.7498 112.253 68.0651 112.259C68.6324 112.269 69.1696 112.537 69.5237 112.981C69.7319 113.242 69.9146 113.523 70.0495 113.811Z" fill="#ED509E"/>
<path d="M65.5095 114.325C65.8406 114.354 66.216 114.36 66.5747 114.283C66.9338 114.208 67.2748 114.051 67.5656 113.89C67.4563 114.204 67.0943 114.535 66.6471 114.625C66.2017 114.724 65.7366 114.568 65.5095 114.325Z" fill="#ED509E"/>
<path d="M38.2734 98.9561C35.932 99.4906 34.2326 101.518 34.1156 103.917L33.7582 111.252C32.1369 111.381 31.5815 112.771 30.0021 112.868L30.0029 114.542L30.9152 116.122L35.0869 116.421C36.7072 116.537 38.1299 115.352 38.3098 113.738L39.1288 106.388L38.2734 98.9561Z" fill="#ED509E"/>
<path d="M38.7961 109.374L39.1287 106.388L38.2733 98.9561C35.9318 99.4906 34.2326 101.518 34.1156 103.917L33.8896 108.556C34.324 108.806 34.8225 108.964 35.3141 109.081C36.4515 109.351 37.6293 109.448 38.7961 109.374Z" fill="#ED509E"/>
<path d="M33.758 111.252C35.2912 111.563 36.316 113.082 36.316 113.082C36.3949 110.826 34.3707 110.602 33.7749 110.907L33.758 111.252Z" fill="#ED509E"/>
<path d="M38.2733 98.956L37.6141 99.1066C35.5545 99.5768 34.0178 101.298 33.7838 103.398L33.3372 107.404C35.9298 108.459 39.4497 108.233 39.4497 108.233L38.2733 98.956Z" fill="#9C73F8"/>
<path d="M37.1634 108.2C38.4696 108.296 39.4497 108.233 39.4497 108.233L38.5968 101.507C38.0198 102.261 37.5726 103.114 37.2946 104.021C36.8815 105.37 36.8393 106.828 37.1634 108.2Z" fill="#9C73F8"/>
<path d="M25.6098 113.81C25.6507 114.03 25.9027 114.161 26.1259 114.14C26.349 114.119 26.5449 113.986 26.7206 113.847C26.8963 113.708 27.0686 113.555 27.2798 113.48C27.4911 113.405 27.757 113.429 27.898 113.603C28.0024 113.732 28.0159 113.918 27.9662 114.077C27.9165 114.235 27.8118 114.37 27.6975 114.491C27.2523 114.96 26.6268 115.253 25.9816 115.296C26.0238 115.072 26.0466 114.841 26.0081 114.617C25.988 114.499 25.9551 114.38 25.8794 114.288C25.762 114.145 25.5443 114.097 25.3772 114.175C25.2644 114.614 25.1616 115.05 25.0489 115.488C25.0125 115.63 24.9786 115.789 25.0552 115.913C25.1395 116.05 25.3208 116.084 25.4808 116.091C25.7738 116.103 26.0688 116.066 26.3495 115.981C25.6596 116.542 24.9718 117.15 24.282 117.712C24.1015 117.858 23.9008 118.07 23.9796 118.289C24.0388 118.454 24.2327 118.53 24.3922 118.581C24.8854 118.74 25.4075 118.808 25.923 118.754C27.5264 118.588 28.8086 117.708 30.0623 116.831C30.3662 116.618 30.6729 116.403 30.9156 116.122C31.1583 115.842 31.334 115.486 31.3264 115.115C31.3188 114.745 31.0968 114.367 30.7459 114.248C30.7398 113.721 30.4254 113.182 30.0025 112.867C29.5795 112.553 29.0579 112.397 28.5367 112.32C28.2249 112.273 27.9093 112.253 27.5941 112.258C27.0267 112.268 26.4895 112.537 26.1355 112.98C25.9273 113.241 25.7446 113.523 25.6098 113.81Z" fill="#ED509E"/>
<path d="M30.15 114.325C29.819 114.354 29.4433 114.36 29.0848 114.282C28.7255 114.208 28.3846 114.05 28.0938 113.889C28.2031 114.203 28.5651 114.534 29.0123 114.624C29.4576 114.723 29.9228 114.568 30.15 114.325Z" fill="#ED509E"/>
<path d="M48.2402 124.64L48.238 128.335C54.0134 131.062 62.0424 125.569 67.1165 120.087C68.1291 118.993 68.2197 117.333 67.3513 116.121C66.4782 114.903 64.8697 114.466 63.5016 115.078C58.916 117.13 51.3962 122.095 48.2402 124.64Z" fill="#9C73F8"/>
<path d="M63.1983 117.362L67.6554 119.278C67.5215 119.568 67.3437 119.842 67.117 120.087C62.0429 125.569 54.0138 131.061 48.2385 128.334L48.2399 125.956C51.369 125.958 58.0957 116.378 63.1983 117.362Z" fill="#3D3E00"/>
<path d="M45.7902 127.987C43.1784 127.103 40.6378 126.433 39.5273 126.152C39.195 126.068 38.8525 126.245 38.7288 126.564C38.6284 126.824 38.6971 127.119 38.9019 127.307L39.2087 127.59L39.5668 129.464C39.6663 129.985 40.1216 130.362 40.6517 130.362L45.6503 130.365C45.0735 129.198 45.7902 127.987 45.7902 127.987Z" fill="#ED509E"/>
<path d="M63.2674 117.32C56.2001 118.182 54.2562 125.393 45.7907 127.987C45.7907 127.987 45.0741 129.198 45.6508 130.365C56.3201 130.371 63.7594 125.249 67.6554 119.277L63.2674 117.32Z" fill="#9C73F8"/>
<path d="M58.124 127.615C58.144 127.283 58.1049 126.797 57.9806 126.348C57.8392 125.836 57.2916 125.551 56.7823 125.701L50.6599 127.499C50.11 127.214 49.5601 126.929 49.0102 126.644C48.0448 127.161 46.9848 127.621 45.7899 127.987C45.7899 127.987 45.0733 129.199 45.6499 130.365C50.4806 130.368 54.6467 129.317 58.124 127.615Z" fill="#3D3E00"/>
<path d="M48.3615 124.639L48.3637 128.335C42.5884 131.061 34.5593 125.569 29.4852 120.087C28.4727 118.993 28.382 117.333 29.2504 116.121C30.1236 114.903 31.7321 114.466 33.1002 115.078C37.6857 117.13 45.2056 122.095 48.3615 124.639Z" fill="#9C73F8"/>
<path d="M33.4035 117.362L28.9465 119.277C29.0804 119.568 29.2582 119.842 29.4848 120.087C34.5589 125.568 42.5881 131.061 48.3634 128.334L48.362 125.956C45.2328 125.957 38.5061 116.378 33.4035 117.362Z" fill="#3D3E00"/>
<path d="M57.8731 126.565C57.7494 126.245 57.4069 126.068 57.0746 126.152C55.9643 126.433 53.4235 127.103 50.8117 127.987C50.8117 127.987 51.5284 129.199 50.9516 130.365L55.9502 130.362C56.4803 130.362 56.9356 129.985 57.0351 129.464L57.3932 127.59L57.7 127.308C57.9048 127.119 57.9735 126.824 57.8731 126.565Z" fill="#ED509E"/>
<path d="M50.8112 127.987C42.3457 125.394 40.4049 118.184 33.3376 117.322L28.9465 119.278C32.8423 125.249 40.2816 130.372 50.951 130.365C51.5277 129.199 50.8112 127.987 50.8112 127.987Z" fill="#9C73F8"/>
<path d="M50.2111 93.1431H47.619H45.027L44.9473 94.8365C45.5391 96.8051 46.947 97.1571 47.619 97.1571C48.291 97.1571 49.699 96.8051 50.2908 94.8365L50.2111 93.1431Z" fill="#ED509E"/>
<path d="M43.215 90.727C42.9684 90.5373 42.6293 90.4371 42.34 90.5518C41.9805 90.6943 41.8074 91.1289 41.8501 91.5131C41.8929 91.8973 42.1035 92.2404 42.3217 92.5595C42.5168 92.8447 42.7307 93.1307 43.0282 93.3066C43.3259 93.4824 43.7285 93.5231 44.0071 93.3183C44.2831 93.1154 44.3656 92.7253 44.2967 92.3896C44.1809 91.8252 43.67 91.0771 43.215 90.727Z" fill="#ED509E"/>
<path d="M42.1514 91.3817C42.2424 91.1985 42.4882 91.134 42.6834 91.1954C42.8786 91.2567 43.0288 91.414 43.1469 91.5811C43.3324 91.8432 43.4617 92.1446 43.5237 92.4598C43.5482 92.5841 43.5449 92.7449 43.4303 92.7989C43.3174 92.8518 43.1902 92.7532 43.1243 92.6473C42.9805 92.4157 42.9642 92.1101 43.0827 91.8646C42.9804 91.7068 42.8619 91.5327 42.7073 91.4257C42.5528 91.3187 42.3105 91.2816 42.1514 91.3817Z" fill="#ED509E"/>
<path d="M52.0229 90.727C52.2696 90.5373 52.6085 90.4371 52.8978 90.5518C53.2573 90.6943 53.4304 91.1289 53.3877 91.5131C53.3449 91.8973 53.1341 92.2404 52.916 92.5595C52.7209 92.8447 52.5071 93.1307 52.2096 93.3066C51.9119 93.4824 51.5094 93.5231 51.2309 93.3183C50.9548 93.1154 50.8721 92.7253 50.941 92.3896C51.0568 91.8252 51.5679 91.0771 52.0229 90.727Z" fill="#ED509E"/>
<path d="M53.086 91.3817C52.995 91.1985 52.7491 91.134 52.5539 91.1954C52.3587 91.2567 52.2085 91.414 52.0903 91.5811C51.9049 91.8432 51.7754 92.1446 51.7135 92.4598C51.6889 92.5841 51.6924 92.7449 51.807 92.7989C51.9199 92.8518 52.0471 92.7532 52.113 92.6473C52.2567 92.4157 52.2731 92.1101 52.1546 91.8646C52.2569 91.7068 52.3753 91.5327 52.5298 91.4257C52.6844 91.3187 52.9268 91.2816 53.086 91.3817Z" fill="#ED509E"/>
<path d="M47.6189 83.9998C45.1307 83.9998 43.1705 86.1205 43.366 88.6009L43.5972 91.5352C43.7067 92.9251 44.3086 94.2303 45.2945 95.2162L45.4862 95.4079C45.8519 95.7734 46.3478 95.9787 46.8649 95.9787H47.6189H48.3729C48.89 95.9787 49.3859 95.7734 49.7516 95.4079L49.9433 95.2162C50.9292 94.2303 51.5311 92.9251 51.6406 91.5352L51.8718 88.6009C52.0673 86.1205 50.1071 83.9998 47.6189 83.9998Z" fill="#ED509E"/>
<path d="M46.8496 92.1812C46.9761 92.5666 47.273 92.837 47.619 92.837C47.9651 92.837 48.262 92.5666 48.3885 92.1812C48.1568 92.2319 47.896 92.2612 47.619 92.2612C47.3422 92.2612 47.0814 92.2319 46.8496 92.1812Z" fill="#ED509E"/>
<path d="M49.0587 93.7917C48.2635 93.6072 46.974 93.6072 46.1787 93.7917C46.974 93.9763 48.2635 93.9763 49.0587 93.7917Z" fill="#ED509E"/>
<path d="M48.1747 94.4008C47.8685 94.2836 47.3705 94.2797 47.0625 94.3922C47.3688 94.5094 47.8666 94.5132 48.1747 94.4008Z" fill="#ED509E"/>
<path d="M52.1448 85.2009C52.1246 85.1612 52.1004 85.1238 52.0787 85.0848C52.1414 84.6246 52.1389 84.1554 52.0676 83.6964C52.0213 83.3989 51.9438 83.0986 51.7717 82.8517C51.5996 82.6048 51.3177 82.4184 51.0169 82.4264C50.716 82.4342 50.3989 82.6898 50.3919 82.9907C49.9253 82.4432 49.3962 81.9492 48.8179 81.5214C48.5739 81.3408 48.3127 81.1684 48.0154 81.107C47.7182 81.0455 47.3755 81.1178 47.1877 81.3563C46.9998 81.5945 46.9986 82.0531 47.271 82.1871C46.6201 81.8521 45.9442 81.5102 45.2132 81.4728C44.4823 81.4352 43.6774 81.7893 43.4261 82.4767C43.287 82.8573 43.3368 83.2936 43.5208 83.6547C43.6148 83.839 43.7422 84.0036 43.8907 84.1477C43.5671 84.4499 43.2942 84.8068 43.0919 85.2009C42.6039 86.1515 42.5326 87.2727 42.6932 88.3293C42.8538 89.3859 43.2101 90.3967 43.5859 91.3971L43.5064 88.6771L43.9548 88.2943C44.0885 88.1802 44.1758 88.021 44.2001 87.8469L44.4344 86.1651C44.4344 86.1651 46.1144 85.9571 47.6184 85.9571C49.1224 85.9571 50.8024 86.1651 50.8024 86.1651L51.0367 87.8469C51.061 88.021 51.1482 88.1802 51.2819 88.2943L51.7304 88.6771L51.651 91.3971C52.0267 90.3967 52.3829 89.3859 52.5435 88.3293C52.7041 87.2727 52.633 86.1515 52.1448 85.2009Z" fill="#3D3E00"/>
<path d="M106.973 42.0776C109.382 42.0776 111.433 39.7534 112.202 36.5047L111.398 36.3215L110.543 36.1269C110.095 36.0247 109.769 35.6361 109.748 35.1766L109.565 31.2974H106.973H104.381L104.198 35.1766C104.176 35.6361 103.851 36.0247 103.402 36.1269L102.548 36.3215L101.743 36.5047C102.513 39.7534 104.563 42.0776 106.973 42.0776Z" fill="#ED509E"/>
<path d="M99.8047 38.945C99.8047 38.2639 99.7655 37.6029 99.692 36.9719L97.4171 37.49C96.7585 41.8238 96.9406 44.624 97.3831 46.4589C98.7944 45.3572 99.8047 42.4096 99.8047 38.945Z" fill="#ED509E"/>
<path d="M114.141 38.9449C114.141 38.2638 114.18 37.6029 114.253 36.972L112.202 36.5046C111.432 39.7533 109.382 42.0775 106.973 42.0775C104.563 42.0775 102.513 39.7533 101.743 36.5046L99.6917 36.972C99.7652 37.6029 99.8044 38.2638 99.8044 38.9449C99.8044 42.4095 98.7941 45.3571 97.3828 46.4588C97.5432 47.1235 97.7374 47.6629 97.9387 48.101C98.4305 49.1717 98.7707 50.3055 98.8886 51.4779L99.7525 60.0692L101.767 61.1168C105.005 61.6363 108.31 61.7408 111.575 61.4307L114.193 60.0692L115.057 51.4779C115.174 50.3055 115.514 49.1717 116.006 48.101C116.208 47.6629 116.402 47.1235 116.562 46.4588C115.151 45.3571 114.141 42.4095 114.141 38.9449Z" fill="#9C73F8"/>
<path d="M100.205 49.2339H106.973H113.741L113.526 48.9839C113.183 48.5843 112.694 48.4337 112.236 48.5787C109.73 49.3708 108.856 48.5454 106.973 48.5454C105.091 48.5454 104.216 49.3708 101.71 48.5787C101.252 48.4337 100.764 48.5843 100.42 48.9839L100.205 49.2339Z" fill="#9C73F8"/>
<path d="M106.168 42.8297C107.365 42.99 108.587 42.7063 109.558 42.162C110.538 41.6213 111.263 40.8212 111.668 40.0373C111.144 40.7483 110.375 41.432 109.415 41.8851C108.462 42.3409 107.325 42.5648 106.223 42.418C105.122 42.2685 104.084 41.7523 103.286 41.0608C102.48 40.3703 101.918 39.5074 101.601 38.6833C101.784 39.5463 102.272 40.5098 103.075 41.2902C103.868 42.0719 104.971 42.6681 106.168 42.8297Z" fill="#9C73F8"/>
<path d="M100.474 41.0385C100.536 40.3284 100.5 39.6591 100.408 39.0935C100.423 40.2392 100.25 41.7285 99.7489 43.1234C99.2607 44.5231 98.4574 45.7889 97.7246 46.6697C98.152 46.2881 98.6014 45.7908 99.0002 45.1998C99.4 44.6103 99.7486 43.9291 100.003 43.2133C100.256 42.4971 100.414 41.7483 100.474 41.0385Z" fill="#9C73F8"/>
<path d="M114.198 43.1233C113.696 41.7283 113.523 40.2392 113.538 39.0935C113.446 39.6591 113.41 40.3282 113.472 41.0385C113.533 41.7483 113.691 42.4969 113.944 43.2132C114.198 43.9288 114.546 44.6101 114.946 45.1997C115.345 45.7905 115.794 46.2881 116.222 46.6697C115.489 45.7889 114.686 44.523 114.198 43.1233Z" fill="#9C73F8"/>
<path d="M105.923 50.4786C108.067 50.5024 110.202 50.7315 111.838 50.9575C110.259 50.4786 108.101 50.1145 105.928 50.0908C103.755 50.0561 101.588 50.362 99.9971 50.7983C101.638 50.6163 103.779 50.4446 105.923 50.4786Z" fill="#9C73F8"/>
<path d="M107.028 56.1261C105.087 55.9504 103.179 55.5301 101.731 55.1328C103.098 55.7517 105.022 56.2994 106.995 56.4775C108.966 56.6683 110.958 56.4869 112.416 56.1322C110.92 56.2542 108.967 56.3133 107.028 56.1261Z" fill="#9C73F8"/>
<path d="M105.628 55.4484C106.885 55.6737 108.591 55.7061 110.25 55.3976C111.911 55.101 113.496 54.4689 114.592 53.8147C113.406 54.2891 111.827 54.8105 110.196 55.1023C108.567 55.4046 106.905 55.4738 105.628 55.4484Z" fill="#9C73F8"/>
<path d="M116.528 37.49L114.253 36.9719C114.18 37.603 114.141 38.264 114.141 38.945C114.141 42.4097 115.151 45.3572 116.562 46.4589C117.005 44.624 117.187 41.8238 116.528 37.49Z" fill="#ED509E"/>
<path d="M101.768 61.1169L106.973 63.8241L111.575 61.4309C108.31 61.7411 105.006 61.6364 101.768 61.1169Z" fill="#3D3E00"/>
<path d="M110.57 59.1268L107.563 61.0474L103.385 61.0482L90.9777 56.6021C89.0723 55.9193 88.0477 53.8523 88.6576 51.9222L91.7868 42.0209C92.4718 39.8535 94.2542 38.2114 96.4705 37.7062L98.3949 37.2675L97.385 46.4593L94.151 52.8021L103.384 58.7656C103.62 58.396 104.105 58.0956 104.529 57.9861C104.953 57.8766 105.397 57.875 105.835 57.8739L107.365 57.8707C107.614 57.8701 107.816 58.0735 107.813 58.3225C107.81 58.5524 107.633 58.7409 107.404 58.7598C106.806 58.809 106.196 58.9657 105.651 59.1864C106.233 59.359 106.816 59.5645 107.399 59.7371C108.045 59.4615 108.709 59.1895 109.365 58.9157C109.771 58.746 110.239 58.8272 110.566 59.1228L110.57 59.1268Z" fill="#ED509E"/>
<path d="M110.57 59.1267L110.566 59.1226C110.239 58.8271 109.771 58.7459 109.365 58.9156C108.709 59.1894 108.045 59.4614 107.399 59.737C106.816 59.5644 106.233 59.3589 105.651 59.1863C106.197 58.9655 106.806 58.8089 107.404 58.7595C107.633 58.7408 107.81 58.5523 107.813 58.3224C107.816 58.0734 107.615 57.87 107.366 57.8705L105.836 57.8738C105.397 57.8749 104.954 57.8765 104.529 57.986C104.105 58.0954 103.62 58.3959 103.384 58.7654L102.781 58.3758C102.57 58.4474 102.371 58.5527 102.194 58.6883L104.184 61.048L107.563 61.0473L110.57 59.1267Z" fill="#3D3E00"/>
<path d="M103.376 59.1268L106.383 61.0474L110.561 61.0483L122.968 56.6022C124.873 55.9193 125.898 53.8523 125.288 51.9222L122.159 42.0209C121.474 39.8535 119.691 38.2115 117.475 37.7062L115.551 37.2676L116.561 46.4594L119.795 52.8022L110.561 58.7656C110.326 58.396 109.841 58.0956 109.417 57.9861C108.992 57.8766 108.548 57.875 108.11 57.874L106.58 57.8707C106.331 57.8702 106.13 58.0735 106.133 58.3225C106.136 58.5524 106.313 58.7409 106.542 58.7598C107.14 58.809 107.749 58.9657 108.295 59.1865C107.712 59.359 107.13 59.5646 106.547 59.7371C105.901 59.4616 105.236 59.1895 104.581 58.9157C104.175 58.7461 103.706 58.8273 103.38 59.1228L103.376 59.1268Z" fill="#ED509E"/>
<path d="M106.972 63.8213L106.969 67.5164C112.745 70.2433 120.774 64.7506 125.848 59.269C126.861 58.1751 126.951 56.5149 126.083 55.3034C125.21 54.0852 123.601 53.6481 122.233 54.2601C117.647 56.3115 110.128 61.2768 106.972 63.8213Z" fill="#9C73F8"/>
<path d="M121.929 56.5441L126.386 58.4593L126.386 58.4595C126.252 58.7496 126.017 58.9546 125.79 59.1995C120.716 64.6811 112.744 70.2431 106.969 67.5162L106.97 65.1376C110.099 65.1395 116.826 55.5596 121.929 56.5441Z" fill="#3D3E00"/>
<path d="M104.522 67.1681C101.91 66.2843 99.3692 65.6142 98.2588 65.3337C97.9265 65.2497 97.5839 65.4265 97.4603 65.7462C97.3599 66.0057 97.4284 66.3006 97.6333 66.4891L97.9401 66.7715L98.2982 68.6459C98.3977 69.1667 98.8531 69.5434 99.3832 69.5437L104.382 69.5467C103.805 68.3801 104.522 67.1681 104.522 67.1681Z" fill="#3D3E00"/>
<path d="M121.896 56.4735C114.829 57.3353 112.987 64.5755 104.521 67.1684C104.521 67.1684 103.805 68.3804 104.381 69.547C115.051 69.5534 122.49 64.431 126.386 58.4593L121.896 56.4735Z" fill="#9C73F8"/>
<path d="M116.855 66.7963C116.876 66.4643 116.836 65.9787 116.712 65.5291C116.571 65.0176 116.023 64.7328 115.514 64.8825L109.391 66.681C108.842 66.3956 108.292 66.1104 107.742 65.8251C106.776 66.3428 105.716 66.8023 104.521 67.1682C104.521 67.1682 103.805 68.3804 104.381 69.5469C109.212 69.5499 113.378 68.499 116.855 66.7963Z" fill="#3D3E00"/>
<path d="M106.974 63.8212L106.976 67.5162C101.201 70.2432 93.1716 64.7505 88.0976 59.2689C87.085 58.175 86.9943 56.5148 87.8627 55.3033C88.7359 54.0851 90.3443 53.648 91.7125 54.26C96.298 56.3114 103.818 61.2767 106.974 63.8212Z" fill="#9C73F8"/>
<path d="M92.0159 56.5439L87.5588 58.4592L87.5588 58.4593C87.6927 58.7494 87.9602 58.9777 88.1869 59.2226C93.2609 64.7041 101.2 70.243 106.976 67.516L106.974 65.1374C103.845 65.1393 97.1184 55.5594 92.0159 56.5439Z" fill="#3D3E00"/>
<path d="M116.485 65.7464C116.362 65.4266 116.019 65.2499 115.687 65.3338C114.577 65.6143 112.036 66.2845 109.424 67.1683C109.424 67.1683 110.141 68.3803 109.564 69.547L114.562 69.544C115.093 69.5437 115.548 69.1669 115.647 68.6461L116.006 66.7718L116.312 66.4892C116.517 66.3007 116.586 66.006 116.485 65.7464Z" fill="#ED509E"/>
<path d="M109.423 67.1682C100.958 64.5753 99.0438 57.3352 91.9765 56.4734L87.5588 58.4592C91.4547 64.4309 98.8941 69.5532 109.564 69.5468C110.14 68.3803 109.423 67.1682 109.423 67.1682Z" fill="#9C73F8"/>
<path d="M109.593 30.3147H107.001H104.409L104.329 32.0081C104.921 33.9767 106.329 34.3287 107.001 34.3287C107.673 34.3287 109.081 33.9767 109.673 32.0081L109.593 30.3147Z" fill="#3D3E00"/>
<path d="M102.597 27.8985C102.35 27.7086 102.011 27.6085 101.722 27.7232C101.363 27.8658 101.189 28.3003 101.232 28.6845C101.275 29.0688 101.485 29.4117 101.704 29.7308C101.899 30.0162 102.113 30.3022 102.41 30.4779C102.708 30.6538 103.11 30.6945 103.389 30.4898C103.665 30.2868 103.748 29.8967 103.679 29.5611C103.563 28.9966 103.052 28.2486 102.597 27.8985Z" fill="#3D3E00"/>
<path d="M101.533 28.5533C101.624 28.3699 101.87 28.3057 102.065 28.3671C102.261 28.4284 102.41 28.5855 102.529 28.7526C102.714 29.0147 102.844 29.3163 102.906 29.6313C102.93 29.7556 102.927 29.9162 102.812 29.9702C102.699 30.0233 102.572 29.9248 102.506 29.8187C102.362 29.5871 102.346 29.2814 102.465 29.0359C102.362 28.8782 102.244 28.7043 102.089 28.5972C101.935 28.4901 101.692 28.4531 101.533 28.5533Z" fill="#3D3E00"/>
<path d="M111.405 27.8985C111.651 27.7086 111.99 27.6085 112.28 27.7232C112.639 27.8658 112.812 28.3003 112.769 28.6845C112.727 29.0688 112.516 29.4117 112.298 29.7308C112.103 30.0162 111.889 30.3022 111.591 30.4779C111.294 30.6538 110.891 30.6945 110.613 30.4898C110.337 30.2868 110.254 29.8967 110.323 29.5611C110.439 28.9966 110.95 28.2486 111.405 27.8985Z" fill="#3D3E00"/>
<path d="M112.468 28.5533C112.377 28.3699 112.131 28.3057 111.936 28.3671C111.74 28.4284 111.59 28.5855 111.472 28.7526C111.287 29.0147 111.157 29.3163 111.095 29.6313C111.071 29.7556 111.074 29.9162 111.189 29.9702C111.302 30.0233 111.429 29.9248 111.495 29.8187C111.639 29.5871 111.655 29.2814 111.536 29.0359C111.639 28.8782 111.757 28.7043 111.912 28.5972C112.066 28.4901 112.309 28.4531 112.468 28.5533Z" fill="#3D3E00"/>
<path d="M107.001 21.1711C104.513 21.1711 102.552 23.2919 102.748 25.7724L102.979 28.7065C103.089 30.0965 103.69 31.4018 104.676 32.3876L104.868 32.5791C105.234 32.9448 105.73 33.15 106.247 33.15H107.001H107.755C108.272 33.15 108.768 32.9448 109.133 32.5791L109.325 32.3876C110.311 31.4018 110.913 30.0965 111.023 28.7065L111.254 25.7724C111.449 23.2919 109.489 21.1711 107.001 21.1711Z" fill="#ED509E"/>
<path d="M111.277 22.9206C110.678 21.7088 109.444 20.9421 108.093 20.9421H107H105.908C104.557 20.9421 103.323 21.7088 102.724 22.9206C102.4 23.5766 102.286 24.3167 102.399 25.0397L102.996 28.8819L103.048 25.9877C103.048 25.9877 103.651 24.6327 103.702 23.118C103.702 23.118 105.251 22.2008 107 22.2008C108.75 22.2008 110.299 23.118 110.299 23.118C110.35 24.6327 110.952 25.9877 110.952 25.9877L111.005 28.8819L111.602 25.0397C111.715 24.3167 111.601 23.5766 111.277 22.9206Z" fill="#3D3E00"/>
<path d="M40.3359 57.6427L39.6191 59.5987L47.8295 64.2697L56.0399 59.5987L55.2336 57.3984C50.3839 58.6768 45.2247 58.7621 40.3359 57.6427Z" fill="#3D3E00"/>
<path d="M40.1213 58.2285L39.6191 59.5991L45.8179 63.1255C44.9288 61.9563 42.9649 59.6973 40.1213 58.2285Z" fill="#3D3E00"/>
<path d="M55.5374 58.2285C52.6938 59.6973 50.7299 61.9563 49.8408 63.1255L56.0396 59.5991L55.5374 58.2285Z" fill="#3D3E00"/>
<path d="M47.8296 42.5625C49.7564 42.5625 51.3662 41.0249 51.7812 38.9648L50.4273 38.871C49.8506 38.8311 49.3947 38.3665 49.3655 37.7892L49.2376 35.2563H47.8296H46.4216L46.2937 37.7892C46.2644 38.3665 45.8086 38.8311 45.2319 38.871L43.8779 38.9648C44.293 41.0249 45.9027 42.5625 47.8296 42.5625Z" fill="#ED509E"/>
<path d="M55.2337 57.3983L54.6499 55.8055C53.8173 53.5334 53.6658 51.0676 54.2141 48.7106L54.6988 46.6269L53.3738 39.0751L51.7813 38.9646C51.3662 41.0248 49.7564 42.5625 47.8295 42.5625C45.9028 42.5625 44.2929 41.0248 43.8779 38.9646L42.2853 39.0751L40.9602 46.6269L41.4449 48.7106C41.9932 51.0676 41.8418 53.5334 41.0092 55.8055L40.3359 57.6428C45.2247 58.7622 50.3841 58.6766 55.2337 57.3983Z" fill="#9C73F8"/>
<path d="M52.9682 49.9577C49.6011 50.6372 46.1048 50.6698 42.7256 50.0535L42.7679 50.0318C43.5568 49.6295 44.4465 49.4491 45.326 49.5524C46.9975 49.7483 48.6938 49.733 50.3615 49.5065C51.2448 49.3867 52.1435 49.5526 52.9435 49.9456L52.9682 49.9577Z" fill="#9C73F8"/>
<path d="M49.9302 42.9941C49.4701 43.1604 48.921 43.2894 48.3296 43.3153C47.7392 43.3431 47.1092 43.268 46.5166 43.0728C45.9241 42.8769 45.3733 42.5621 44.9154 42.1884C44.4556 41.8156 44.091 41.3852 43.8203 40.9778C44.0237 41.4222 44.3512 41.9028 44.8022 42.3187C45.2509 42.7354 45.821 43.0854 46.4444 43.2913C47.0681 43.4969 47.7345 43.5551 48.343 43.4873C48.953 43.4215 49.5022 43.2302 49.9302 42.9941Z" fill="#9C73F8"/>
<path d="M51.7493 40.6736C51.5973 40.9585 51.4022 41.3209 51.174 41.6629C50.9477 42.0061 50.6897 42.3267 50.4863 42.5775C50.7579 42.4035 51.068 42.1032 51.3021 41.7477C51.5384 41.3939 51.6945 40.9915 51.7493 40.6736Z" fill="#9C73F8"/>
<path d="M53.3572 56.9458C51.7473 57.0815 49.65 57.2304 47.5492 57.234C45.4483 57.2457 43.35 57.1121 41.7393 56.9882C43.3102 57.3624 45.4274 57.6255 47.5506 57.6137C49.6738 57.6101 51.7889 57.3312 53.3572 56.9458Z" fill="#9C73F8"/>
<path d="M53.342 55.6453C52.3287 55.9188 51.0003 56.2357 49.6502 56.4261C48.3009 56.6228 46.9371 56.6919 45.8877 56.7141C46.9271 56.8563 48.3179 56.8698 49.6851 56.6702C51.0533 56.4776 52.3844 56.0738 53.342 55.6453Z" fill="#9C73F8"/>
<path d="M43.4521 55.2148C44.1198 55.5283 45.0481 55.8327 46.0054 55.9956C46.9618 56.1631 47.9385 56.1876 48.6727 56.1161C47.9361 56.0719 46.9795 55.9901 46.0349 55.8247C45.0896 55.6638 44.1609 55.4201 43.4521 55.2148Z" fill="#9C73F8"/>
<path d="M40.96 46.6272L41.4601 43.7766C42.176 45.8806 41.4447 48.7108 41.4447 48.7108L40.96 46.6272Z" fill="#9C73F8"/>
<path d="M54.6991 46.6272L54.199 43.7766C53.4831 45.8806 54.2144 48.7108 54.2144 48.7108L54.6991 46.6272Z" fill="#9C73F8"/>
<path d="M26.1486 54.3079C25.7338 53.9409 25.3192 53.5738 24.9044 53.2067C24.7758 53.0929 24.6452 52.9767 24.5564 52.8296C24.4675 52.6826 24.401 52.4311 24.4623 52.2707L26.6105 53.4188L26.1486 54.3079Z" fill="#ED509E"/>
<path d="M42.2856 39.075L40.9643 46.6277L39.9882 51.7652C39.7674 52.9281 38.898 53.8605 37.7533 54.1623L29.4952 56.3393C28.4314 56.6198 27.312 56.6118 26.2523 56.3163L24.5102 55.8307C24.138 55.7268 23.8488 55.4334 23.7503 55.0597L23.3354 53.4834C23.2819 53.2802 23.3592 53.065 23.5297 52.9423L24.4622 52.2706C24.7063 52.4813 24.6994 52.8619 24.4477 53.0635L24.292 53.1882L24.5272 54.3613L24.6334 53.2733L25.4922 52.9809C25.6271 52.9349 25.7732 52.933 25.9093 52.9753L27.0136 53.3192C27.2767 53.4011 27.3223 53.754 27.0885 53.9L26.8299 54.0616L26.938 54.4668C27.6207 54.5945 28.0049 54.9568 28.0049 54.9568L36.8384 50.8218L37.7302 43.408C38.0127 41.0579 39.9245 39.2397 42.2856 39.075Z" fill="#ED509E"/>
<path d="M36.8381 50.8217C37.5901 50.9654 38.6467 51.8448 38.6467 51.8448C38.4059 50.261 37.4003 50.3879 36.8632 50.613L36.8381 50.8217Z" fill="#ED509E"/>
<path d="M69.5111 54.3078C69.9259 53.9407 70.3405 53.5736 70.7553 53.2066C70.8839 53.0927 71.0146 52.9765 71.1033 52.8295C71.1922 52.6825 71.2587 52.431 71.1974 52.2706L69.0492 53.4187L69.5111 54.3078Z" fill="#ED509E"/>
<path d="M53.374 39.075L54.6953 46.6277L55.6712 51.7652C55.892 52.9281 56.7615 53.8605 57.9061 54.1623L66.1643 56.3393C67.2282 56.6198 68.3475 56.6118 69.4072 56.3163L71.1492 55.8306C71.5214 55.7268 71.8106 55.4333 71.9091 55.0597L72.3241 53.4834C72.3776 53.2801 72.3004 53.065 72.1299 52.9422L71.1973 52.2706C70.9532 52.4813 70.96 52.8619 71.2118 53.0635L71.3675 53.1881L71.1323 54.3612L71.0262 53.2733L70.1672 52.9808C70.0323 52.9349 69.8863 52.9329 69.7502 52.9753L68.6458 53.3192C68.3827 53.401 68.3371 53.754 68.5709 53.9L68.8296 54.0615L68.7216 54.4668C68.0388 54.5945 67.6547 54.9568 67.6547 54.9568L58.8211 50.8218L57.9296 43.408C57.6469 41.0579 55.7353 39.2397 53.374 39.075Z" fill="#ED509E"/>
<path d="M58.8216 50.8217C58.0695 50.9653 57.013 51.8448 57.013 51.8448C57.2538 50.2609 58.2592 50.3878 58.7964 50.6129L58.8216 50.8217Z" fill="#ED509E"/>
<path d="M47.7699 64.2668L47.7679 67.6801C53.103 70.1991 60.5199 65.1252 65.2071 60.0615C66.1425 59.0508 66.2263 57.5172 65.4241 56.3981C64.6175 55.2727 63.1315 54.8691 61.8678 55.4345C57.6318 57.3296 50.6852 61.9163 47.7699 64.2668Z" fill="#3D3E00"/>
<path d="M61.5877 57.5444L65.7049 59.3138C65.5813 59.5819 65.417 59.8353 65.2076 60.0616C60.5204 65.1253 53.1034 70.1992 47.7683 67.6802L47.7696 65.4829C50.6603 65.4846 56.8742 56.6349 61.5877 57.5444Z" fill="#3D3E00"/>
<path d="M45.5072 67.3587C43.0945 66.5422 40.7475 65.9233 39.7218 65.6641C39.4148 65.5866 39.0983 65.7499 38.9841 66.0451C38.8914 66.285 38.9548 66.5573 39.144 66.7313L39.4274 66.9924L39.7582 68.7237C39.85 69.2048 40.2707 69.5529 40.7604 69.5532L45.3779 69.556C44.8452 68.4783 45.5072 67.3587 45.5072 67.3587Z" fill="#ED509E"/>
<path d="M61.5942 57.4972C55.0657 58.2932 53.3268 64.9635 45.5067 67.3588C45.5067 67.3588 44.8447 68.4784 45.3774 69.5562C55.2334 69.5621 62.1055 64.8301 65.7045 59.3138L61.5942 57.4972Z" fill="#3D3E00"/>
<path d="M47.8906 64.2669L47.8926 67.6802C42.5576 70.1992 35.1404 65.1252 30.4533 60.0615C29.5178 59.0509 29.4341 57.5173 30.2363 56.3981C31.0428 55.2728 32.5287 54.8692 33.7926 55.4346C38.0285 57.3296 44.9753 61.9164 47.8906 64.2669Z" fill="#3D3E00"/>
<path d="M34.0734 57.5444L29.9562 59.3137C30.0798 59.5819 30.2441 59.8353 30.4535 60.0615C35.1407 65.1253 42.5577 70.1992 47.8928 67.6802L47.8915 65.4829C45.0008 65.4846 38.7869 56.6349 34.0734 57.5444Z" fill="#3D3E00"/>
<path d="M56.6764 66.0452C56.5622 65.7498 56.2458 65.5865 55.9388 65.6641C54.9132 65.9232 52.566 66.5422 50.1534 67.3587C50.1534 67.3587 50.8154 68.4783 50.2827 69.556L54.9002 69.5532C55.3899 69.5529 55.8105 69.2048 55.9025 68.7237L56.2332 66.9924L56.5166 66.7314C56.7058 66.5571 56.7691 66.285 56.6764 66.0452Z" fill="#ED509E"/>
<path d="M50.1539 67.3589C42.3338 64.9636 40.5521 58.3102 34.0236 57.5142L29.9562 59.3138C33.5551 64.8302 40.4273 69.5622 50.2833 69.5563C50.8159 68.4786 50.1539 67.3589 50.1539 67.3589Z" fill="#3D3E00"/>
<path d="M50.4229 22.1091C50.4229 24.0885 48.8183 25.6931 46.8389 25.6931C44.8595 25.6931 43.2549 24.0885 43.2549 22.1091C43.2549 20.1298 44.8595 18.5251 46.8389 18.5251C48.8183 18.5251 50.4229 20.1298 50.4229 22.1091Z" fill="#3D3E00"/>
<path d="M47.3057 19.1676C48.202 19.1676 49.0274 19.4623 49.6983 19.9551C49.0442 19.0881 48.0085 18.5251 46.8389 18.5251C44.8594 18.5251 43.2549 20.1298 43.2549 22.1091C43.2549 22.2927 43.273 22.4717 43.2996 22.6479C43.5776 20.6816 45.2627 19.1676 47.3057 19.1676Z" fill="#ED509E"/>
<path d="M46.8396 25.693C48.4148 25.693 49.7496 24.6754 50.2303 23.2629C49.5794 22.3613 48.5222 21.7722 47.3253 21.7722C45.75 21.7722 44.4153 22.7898 43.9346 24.2023C44.5855 25.104 45.6425 25.693 46.8396 25.693Z" fill="#3D3E00"/>
<path d="M48.6785 23.6603C48.6785 24.517 47.9841 25.2115 47.1275 25.2115C46.2708 25.2115 45.5762 24.517 45.5762 23.6603C45.5762 22.8037 46.2708 22.1094 47.1275 22.1094C47.9841 22.1094 48.6785 22.8037 48.6785 23.6603Z" fill="#9C73F8"/>
<path d="M52.9562 28.5092C52.9562 26.5252 51.9536 22.8452 47.8468 22.8452C43.7402 22.8452 42.7375 26.5252 42.7375 28.5092C42.7375 30.4932 42.6735 34.5572 44.8815 37.7892C44.7216 36.7652 44.4335 33.6932 44.4335 30.2052L47.8468 30.3172L51.2602 30.2052C51.2602 33.6932 50.9722 36.7652 50.8122 37.7892C53.0202 34.5572 52.9562 30.4932 52.9562 28.5092Z" fill="#3D3E00"/>
<path d="M47.8468 22.8452C43.7401 22.8452 42.7375 26.5252 42.7375 28.5092C42.7375 30.4584 42.6809 34.4131 44.7724 37.6162C43.2092 34.6 43.2551 31.1691 43.2551 29.3968C43.2551 27.4128 44.2578 23.7328 48.3645 23.7328C50.3032 23.7328 51.5494 24.5532 52.3257 25.6278C51.6383 24.1519 50.2938 22.8452 47.8468 22.8452Z" fill="#ED509E"/>
<path d="M49.2544 34.8665H47.8464H46.4384L46.3984 35.6572C46.5664 36.5305 47.3344 36.9571 47.8464 36.9571C48.3584 36.9571 49.1264 36.5305 49.2943 35.6572L49.2544 34.8665Z" fill="#ED509E"/>
<path d="M51.8936 29.3754C51.8929 29.347 51.8885 29.3196 51.8872 29.2914C50.2631 28.9241 48.7371 28.0202 47.6832 26.7502C46.7793 28.1063 45.3669 29.111 43.7961 29.5393L43.791 29.7235C43.7374 31.7027 44.4359 33.6285 45.7459 35.113C46.2778 35.7158 47.043 36.0611 47.8469 36.0611C48.6509 36.0611 49.4162 35.7158 49.9481 35.113C51.2581 33.6285 51.9566 31.7027 51.9031 29.7235L51.8936 29.3754Z" fill="#ED509E"/>
<path d="M48.5505 32.6333H47.1221C47.4258 33.1344 47.6788 33.1105 47.8363 33.1105C47.9939 33.1105 48.203 33.1483 48.5505 32.6333Z" fill="#ED509E"/>
<path d="M49.0604 33.8162C48.7194 33.9223 48.2732 34.0048 47.825 33.9806C47.3765 33.9608 46.9405 33.8352 46.6113 33.6963C46.8791 33.9324 47.3371 34.1304 47.8165 34.1503C48.2955 34.1774 48.7709 34.0249 49.0604 33.8162Z" fill="#ED509E"/>
<path d="M48.301 34.4664C48.0318 34.4071 47.6456 34.3824 47.3711 34.4073C47.5966 34.5728 48.0562 34.6021 48.301 34.4664Z" fill="#ED509E"/>
</g>
</g>
<path d="M38.6592 149.834C39.6939 149.779 5.53601 157.582 -11.001 119.886C-21.9732 94.8731 -9.43708 66.9266 15.2487 56.6912C40.6178 46.1723 45.828 25.9801 58.2062 14.0375C77.3534 -4.34205 117.554 -5.63719 136.031 15.9064C154.507 37.4499 181.054 115.834 134.173 135.115C90.6271 153.026 37.6245 149.888 38.6592 149.834Z" fill="#9C73F8" fill-opacity="0.2"/>
<defs>
<clipPath id="clip0_1833_31">
<rect width="128" height="128" fill="white" transform="translate(14 11)"/>
</clipPath>
</defs>
</svg>
