<svg width="25" height="25" viewBox="0 0 25 25" fill="none" xmlns="http://www.w3.org/2000/svg">
<path d="M17.7083 17.7083V14.5833C17.7083 14.2882 17.8083 14.0406 18.0083 13.8406C18.2076 13.6413 18.4548 13.5416 18.75 13.5416C19.0451 13.5416 19.2923 13.6371 19.4916 13.8281C19.6916 14.0191 19.7916 14.2621 19.7916 14.5573V18.75C19.7916 19.0451 19.6916 19.2923 19.4916 19.4916C19.2923 19.6916 19.0451 19.7916 18.75 19.7916H7.1354L7.99477 20.651C8.2031 20.8593 8.31179 21.1111 8.32081 21.4062C8.32915 21.7013 8.22915 21.9531 8.02081 22.1614C7.81248 22.3698 7.56526 22.4739 7.27915 22.4739C6.99234 22.4739 6.75345 22.3784 6.56248 22.1875L3.85415 19.4791C3.66317 19.2882 3.56769 19.0451 3.56769 18.75C3.56769 18.4548 3.66317 18.2118 3.85415 18.0208L6.53644 15.3385C6.74477 15.1302 6.99234 15.026 7.27915 15.026C7.56526 15.026 7.81248 15.1302 8.02081 15.3385C8.22915 15.5468 8.33331 15.7944 8.33331 16.0812C8.33331 16.3673 8.22915 16.6145 8.02081 16.8229L7.1354 17.7083H17.7083ZM7.29165 7.29163V10.4166C7.29165 10.7118 7.19199 10.959 6.99269 11.1583C6.79269 11.3583 6.54512 11.4583 6.24998 11.4583C5.95484 11.4583 5.70727 11.3628 5.50727 11.1718C5.30797 10.9809 5.20831 10.7378 5.20831 10.4427V6.24996C5.20831 5.95482 5.30797 5.70725 5.50727 5.50725C5.70727 5.30795 5.95484 5.20829 6.24998 5.20829H17.8646L17.0052 4.34892C16.7969 4.14058 16.6885 3.88885 16.6802 3.59371C16.6712 3.29857 16.7708 3.04683 16.9791 2.8385C17.1875 2.63017 17.4351 2.526 17.7219 2.526C18.008 2.526 18.2465 2.62149 18.4375 2.81246L21.1458 5.52079C21.3368 5.71177 21.4323 5.95482 21.4323 6.24996C21.4323 6.5451 21.3368 6.78815 21.1458 6.97913L18.4635 9.66142C18.2552 9.86975 18.008 9.97392 17.7219 9.97392C17.4351 9.97392 17.1875 9.86975 16.9791 9.66142C16.7708 9.45308 16.6666 9.20551 16.6666 8.91871C16.6666 8.6326 16.7708 8.38538 16.9791 8.17704L17.8646 7.29163H7.29165Z" fill="#8446FF"/>
</svg>
