<svg width="27" height="31" viewBox="0 0 27 31" fill="none" xmlns="http://www.w3.org/2000/svg">
<g filter="url(#filter0_d_1864_2199)">
<path d="M18.708 17.7377V14.6127C18.708 14.3176 18.808 14.07 19.008 13.87C19.2073 13.6707 19.4545 13.571 19.7497 13.571C20.0448 13.571 20.292 13.6665 20.4913 13.8575C20.6913 14.0485 20.7913 14.2915 20.7913 14.5867V18.7794C20.7913 19.0745 20.6913 19.3217 20.4913 19.521C20.292 19.721 20.0448 19.821 19.7497 19.821H8.13509L8.99447 20.6804C9.2028 20.8888 9.31148 21.1405 9.32051 21.4356C9.32884 21.7308 9.22884 21.9825 9.02051 22.1908C8.81217 22.3992 8.56495 22.5033 8.27884 22.5033C7.99204 22.5033 7.75315 22.4079 7.56218 22.2169L4.85384 19.5085C4.66287 19.3176 4.56738 19.0745 4.56738 18.7794C4.56738 18.4842 4.66287 18.2412 4.85384 18.0502L7.53613 15.3679C7.74447 15.1596 7.99204 15.0554 8.27884 15.0554C8.56495 15.0554 8.81217 15.1596 9.02051 15.3679C9.22884 15.5763 9.33301 15.8238 9.33301 16.1106C9.33301 16.3967 9.22884 16.644 9.02051 16.8523L8.13509 17.7377H18.708ZM8.29134 7.32104V10.446C8.29134 10.7412 8.19169 10.9884 7.99238 11.1877C7.79238 11.3877 7.54481 11.4877 7.24967 11.4877C6.95454 11.4877 6.70697 11.3922 6.50697 11.2013C6.30766 11.0103 6.20801 10.7672 6.20801 10.4721V6.27938C6.20801 5.98424 6.30766 5.73667 6.50697 5.53667C6.70697 5.33736 6.95454 5.23771 7.24967 5.23771H18.8643L18.0049 4.37834C17.7966 4.17 17.6882 3.91827 17.6799 3.62313C17.6709 3.32799 17.7705 3.07625 17.9788 2.86792C18.1872 2.65959 18.4347 2.55542 18.7216 2.55542C19.0077 2.55542 19.2462 2.65091 19.4372 2.84188L22.1455 5.55021C22.3365 5.74118 22.432 5.98424 22.432 6.27938C22.432 6.57452 22.3365 6.81757 22.1455 7.00854L19.4632 9.69084C19.2549 9.89917 19.0077 10.0033 18.7216 10.0033C18.4347 10.0033 18.1872 9.89917 17.9788 9.69084C17.7705 9.4825 17.6663 9.23493 17.6663 8.94813C17.6663 8.66202 17.7705 8.41479 17.9788 8.20646L18.8643 7.32104H8.29134Z" fill="#D9D9D9"/>
</g>
<defs>
<filter id="filter0_d_1864_2199" x="-3" y="0.0292969" width="33" height="33" filterUnits="userSpaceOnUse" color-interpolation-filters="sRGB">
<feFlood flood-opacity="0" result="BackgroundImageFix"/>
<feColorMatrix in="SourceAlpha" type="matrix" values="0 0 0 0 0 0 0 0 0 0 0 0 0 0 0 0 0 0 127 0" result="hardAlpha"/>
<feOffset dy="4"/>
<feGaussianBlur stdDeviation="2"/>
<feComposite in2="hardAlpha" operator="out"/>
<feColorMatrix type="matrix" values="0 0 0 0 0 0 0 0 0 0 0 0 0 0 0 0 0 0 0.25 0"/>
<feBlend mode="normal" in2="BackgroundImageFix" result="effect1_dropShadow_1864_2199"/>
<feBlend mode="normal" in="SourceGraphic" in2="effect1_dropShadow_1864_2199" result="shape"/>
</filter>
</defs>
</svg>
