<svg width="62" height="62" viewBox="0 0 62 62" fill="none" xmlns="http://www.w3.org/2000/svg">
<path d="M41.9692 42.9231C41.9692 42.9231 38.8352 48.6462 31 48.6462C23.1648 48.6462 20.0308 42.9231 20.0308 42.9231" stroke="#417131" stroke-width="3" stroke-linecap="round" stroke-linejoin="round"/>
<path d="M27.2496 23.3349V22.8923C27.2496 21.8804 26.8543 20.9099 26.1506 20.1944C25.4469 19.4789 24.4925 19.0769 23.4973 19.0769H13.2908C12.7205 19.0769 12.1576 19.2091 11.645 19.4635C11.1324 19.7179 10.6836 20.0878 10.3327 20.545C9.98182 21.0022 9.73804 21.5348 9.61992 22.1022C9.5018 22.6695 9.51244 23.2569 9.65105 23.8194L10.818 28.5581C11.2239 30.209 12.1607 31.6745 13.4797 32.7218C14.7987 33.7692 16.4241 34.3382 18.0976 34.3384H19.7449C21.631 34.3389 23.4482 33.6172 24.8346 32.3171C26.2211 31.0169 27.0753 29.2335 27.2271 27.3219C28.4416 26.8991 29.7184 26.6913 31.002 26.7077C32.4767 26.7077 33.7787 26.9519 34.7769 27.3219C34.9287 29.2335 35.7829 31.0169 37.1693 32.3171C38.5558 33.6172 40.373 34.3389 42.2591 34.3384H43.9026C45.5761 34.3382 47.2015 33.7692 48.5205 32.7218C49.8395 31.6745 50.7764 30.209 51.1822 28.5581L52.3492 23.8194C52.4877 23.2572 52.4984 22.6702 52.3805 22.1031C52.2626 21.536 52.0191 21.0037 51.6687 20.5465C51.3182 20.0894 50.8699 19.7194 50.3577 19.4648C49.8456 19.2102 49.2832 19.0775 48.7131 19.0769H38.5067C37.5115 19.0769 36.5571 19.4789 35.8534 20.1944C35.1497 20.9099 34.7544 21.8804 34.7544 22.8923V23.3349C33.5254 23.0356 32.2657 22.887 31.002 22.8923C29.6887 22.8923 28.4129 23.0449 27.2496 23.3349Z" fill="#417131"/>
<circle cx="31" cy="31" r="29.5" stroke="#417131" stroke-width="3"/>
</svg>
