<svg width="25" height="26" viewBox="0 0 25 26" fill="none" xmlns="http://www.w3.org/2000/svg">
<path d="M21.2207 21.0841L21.1425 21.1622H21.1328L21.0546 21.2403L21.0156 21.2696L20.9667 21.3087L20.9082 21.338L20.8691 21.3673L20.8105 21.3868L20.7617 21.4161L20.7031 21.4356L20.6542 21.4552H20.5957L20.5371 21.4747H16.4062C16.0954 21.4747 15.7973 21.3512 15.5776 21.1315C15.3578 20.9117 15.2343 20.6136 15.2343 20.3028C15.2343 19.992 15.3578 19.6939 15.5776 19.4742C15.7973 19.2544 16.0954 19.1309 16.4062 19.1309H17.4804L3.85737 5.54695C3.63722 5.3268 3.51354 5.02822 3.51354 4.71688C3.51354 4.56272 3.5439 4.41007 3.6029 4.26764C3.66189 4.12522 3.74836 3.99581 3.85737 3.8868C3.96638 3.77779 4.09579 3.69132 4.23821 3.63233C4.38064 3.57333 4.53329 3.54297 4.68745 3.54297C4.99879 3.54297 5.29738 3.66665 5.51753 3.8868L19.1406 17.5098V16.4356C19.1406 16.1248 19.264 15.8268 19.4838 15.607C19.7036 15.3872 20.0016 15.2638 20.3124 15.2638C20.6232 15.2638 20.9213 15.3872 21.1411 15.607C21.3609 15.8268 21.4843 16.1248 21.4843 16.4356V20.3419C21.4859 20.3812 21.4826 20.4206 21.4746 20.4591V20.5079C21.4667 20.5264 21.4634 20.5465 21.4648 20.5665C21.455 20.586 21.455 20.6055 21.4453 20.6251C21.4355 20.6446 21.4355 20.6641 21.4355 20.6837C21.4355 20.7032 21.4257 20.7227 21.416 20.7325C21.4062 20.7423 21.4062 20.7716 21.3964 20.7911C21.3867 20.8106 21.3769 20.8204 21.3769 20.8399L21.3476 20.8985L21.3183 20.9376L21.289 20.9962L21.25 21.045L21.2207 21.0841ZM15.2636 10.9376C15.5743 10.9362 15.8722 10.8136 16.0937 10.5958L19.1406 7.54891V8.62313C19.1406 8.93393 19.264 9.232 19.4838 9.45177C19.7036 9.67154 20.0016 9.795 20.3124 9.795C20.6232 9.795 20.9213 9.67154 21.1411 9.45177C21.3609 9.232 21.4843 8.93393 21.4843 8.62313V4.71688C21.4859 4.67756 21.4826 4.6382 21.4746 4.59969V4.55086C21.4667 4.53238 21.4634 4.5123 21.4648 4.49227C21.455 4.47274 21.455 4.4532 21.4453 4.43367C21.4355 4.41414 21.4355 4.39461 21.4355 4.37508C21.4355 4.35555 21.4257 4.33602 21.416 4.32625C21.4062 4.31649 21.4062 4.28719 21.3964 4.26766C21.3867 4.24813 21.3769 4.23836 21.3769 4.21883L21.3476 4.16024L21.3183 4.12117L21.289 4.06258L21.25 4.01375L21.2207 3.97469C21.1971 3.94625 21.171 3.92009 21.1425 3.89656H21.1328L21.0546 3.81844L21.0156 3.78914L20.9667 3.75008L20.9082 3.72078L20.8691 3.69149L20.8105 3.66219L20.7617 3.64266L20.7031 3.62313L20.6542 3.6036H20.5957L20.5371 3.58406H16.4062C16.0954 3.58406 15.7973 3.70753 15.5776 3.9273C15.3578 4.14707 15.2343 4.44514 15.2343 4.75594C15.2343 5.06674 15.3578 5.36481 15.5776 5.58458C15.7973 5.80435 16.0954 5.92781 16.4062 5.92781H17.4804L14.4335 8.93563C14.2691 9.09953 14.157 9.30859 14.1115 9.53629C14.0661 9.76399 14.0893 10.0001 14.1782 10.2146C14.2672 10.429 14.4178 10.6123 14.6111 10.741C14.8043 10.8697 15.0314 10.9381 15.2636 10.9376ZM8.9062 14.463L3.85737 19.5118C3.74812 19.6207 3.66144 19.75 3.60229 19.8925C3.54314 20.0349 3.5127 20.1876 3.5127 20.3419C3.5127 20.4961 3.54314 20.6488 3.60229 20.7913C3.66144 20.9337 3.74812 21.0631 3.85737 21.172C4.07851 21.3902 4.37673 21.5126 4.68745 21.5126C4.99817 21.5126 5.29638 21.3902 5.51753 21.172L10.5664 16.1231C10.7865 15.903 10.9102 15.6044 10.9102 15.293C10.9102 14.9817 10.7865 14.6831 10.5664 14.463C10.3462 14.2428 10.0476 14.1191 9.73628 14.1191C9.42494 14.1191 9.12635 14.2428 8.9062 14.463Z" fill="#D9D9D9"/>
</svg>
