<svg width="390" height="392" viewBox="0 0 390 392" fill="none" xmlns="http://www.w3.org/2000/svg">
<g clip-path="url(#clip0_1191_3683)">
<path d="M390 0H0V392H390V0Z" fill="#CEB5FF"/>
<path d="M365.208 72.3693C319.041 22.6868 155.22 30.7561 124.388 47.6998C97.6076 82.8676 85.9596 175.301 108.897 197.755C148.863 236.878 330.594 240.898 349.718 222.424C367.994 204.768 397.064 106.652 365.208 72.3693Z" fill="#96C8CD"/>
<path d="M187.463 78.9449C165.119 98.0004 148.869 139.514 159.587 173.143L223.952 190.478C223.986 190.376 224.02 190.276 224.052 190.174C246.143 193.565 267.704 179.776 273.622 157.575L284.853 115.443C291.205 91.6196 277.14 67.1332 253.439 60.7496L249.446 59.6743C227.921 53.8773 207.45 61.8983 187.463 78.9449Z" fill="#8446FF"/>
<path d="M278.079 108.296C275.148 123.478 265.377 135.101 253.286 143.474L249.18 225.177L201.275 212.277L224.769 156.768C209.756 161.118 196.045 161.482 190.496 158.331C184.902 155.156 183.703 144.315 185.396 131.28C181.214 128.415 179.088 125.301 179.224 123.596C179.382 121.541 187.147 112.697 189.864 110.704L189.907 110.791C194.063 97.0888 200.311 83.9105 207.202 76.5387C224.548 57.984 286.528 64.5541 278.079 108.296Z" fill="#DE8E68"/>
<path d="M390 217.98C390 217.98 390.108 380.349 390.108 391.974H-0.000381194C-0.217053 376.32 -0.000381194 266.319 -0.000381194 266.319C24.3218 258.887 46.2837 255.062 66.4377 251.553C118.04 242.569 157.803 235.646 195.065 175.52L195.188 175.587C264.627 165.7 300.733 183.62 331.994 199.137C350.987 208.565 368.193 217.105 390 217.98Z" fill="#9D4FCC"/>
<path d="M242.271 132.736C233.71 155.972 227.34 183.425 232.196 191.657L290.081 207.247C308.321 151.792 271.337 165.208 285.473 112.179C284.039 109.747 282.705 107.362 281.324 105.244L281.803 103.701C277.279 80.3754 267.311 66.6391 251.901 62.489C228.788 56.2633 218.608 65.1078 209.951 72.613C210.325 89.8855 227.719 97.1171 241.074 111.417C243.372 110.384 246.026 110.108 248.649 110.814C254.713 112.447 258.311 118.711 256.686 124.805C255.06 130.898 248.829 134.516 242.767 132.883C242.599 132.838 242.434 132.788 242.271 132.736Z" fill="#8446FF"/>
<path d="M256.261 103.074C254.092 88.8039 242.846 49.001 217.344 49.001C202.027 49.001 193.715 61.4565 190.261 76.6002C191.176 75.9238 192.077 75.2282 192.966 74.5422C194.853 73.0872 196.686 71.6716 198.487 70.5678C201.959 62.6026 207.419 56.7021 215.99 57.1676C234.435 58.1694 242.732 87.0726 244.193 104.67C239.513 108.748 234.616 115.597 234.616 123.358C234.616 135.858 247.319 145.991 251.361 145.991C255.978 145.991 268.104 135.858 268.104 123.358C268.104 114.469 261.387 106.776 256.261 103.074Z" fill="#E9EAEB"/>
<g opacity="0.159249">
<path d="M337.187 49.8359L340.87 67.0763L358.023 70.7783L340.87 74.4802L337.187 91.7206L333.504 74.4802L316.352 70.7783L333.504 67.0763L337.187 49.8359Z" fill="#E9EAEB"/>
</g>
<g opacity="0.99999">
<path d="M73.1243 156.528L75.0391 165.493L83.9577 167.417L75.0391 169.342L73.1243 178.306L71.2096 169.342L62.291 167.417L71.2096 165.493L73.1243 156.528Z" fill="#E9EAEB"/>
</g>
<g opacity="0.01">
<path d="M65.6761 63.9724L70.1056 84.7008L90.7283 89.153L70.1056 93.6038L65.6761 114.334L61.2467 93.6038L40.624 89.153L61.2467 84.7008L65.6761 63.9724Z" fill="#E9EAEB"/>
</g>
</g>
<defs>
<clipPath id="clip0_1191_3683">
<rect width="390" height="392" fill="white"/>
</clipPath>
</defs>
</svg>
