<svg width="64" height="66" viewBox="0 0 64 66" fill="none" xmlns="http://www.w3.org/2000/svg">
<g filter="url(#filter0_d_1763_2862)">
<ellipse cx="31.734" cy="32.0641" rx="24.8356" ry="25.0937" fill="url(#paint0_linear_1763_2862)"/>
</g>
<path d="M63.2187 32.0641C63.2187 49.637 49.1202 63.8783 31.7344 63.8783C14.3485 63.8783 0.25 49.637 0.25 32.0641C0.25 14.4912 14.3485 0.25 31.7344 0.25C49.1202 0.25 63.2187 14.4912 63.2187 32.0641Z" stroke="url(#paint1_linear_1763_2862)" stroke-width="0.5"/>
<path d="M41.28 33.6265L28.6603 41.06C27.5893 41.6902 26.2148 40.9271 26.2148 39.6566V24.7896C26.2148 23.5212 27.5873 22.7561 28.6603 23.3883L41.28 30.8218C41.5236 30.963 41.7261 31.1671 41.867 31.4134C42.0078 31.6596 42.082 31.9394 42.082 32.2241C42.082 32.5089 42.0078 32.7886 41.867 33.0349C41.7261 33.2812 41.5236 33.4853 41.28 33.6265Z" fill="white"/>
<defs>
<filter id="filter0_d_1763_2862" x="2.89844" y="6.97046" width="57.6709" height="58.1873" filterUnits="userSpaceOnUse" color-interpolation-filters="sRGB">
<feFlood flood-opacity="0" result="BackgroundImageFix"/>
<feColorMatrix in="SourceAlpha" type="matrix" values="0 0 0 0 0 0 0 0 0 0 0 0 0 0 0 0 0 0 127 0" result="hardAlpha"/>
<feOffset dy="4"/>
<feGaussianBlur stdDeviation="2"/>
<feComposite in2="hardAlpha" operator="out"/>
<feColorMatrix type="matrix" values="0 0 0 0 0 0 0 0 0 0 0 0 0 0 0 0 0 0 0.25 0"/>
<feBlend mode="normal" in2="BackgroundImageFix" result="effect1_dropShadow_1763_2862"/>
<feBlend mode="normal" in="SourceGraphic" in2="effect1_dropShadow_1763_2862" result="shape"/>
</filter>
<linearGradient id="paint0_linear_1763_2862" x1="31.734" y1="6.97046" x2="31.734" y2="57.1578" gradientUnits="userSpaceOnUse">
<stop stop-color="#D512DE"/>
</linearGradient>
<linearGradient id="paint1_linear_1763_2862" x1="31.7344" y1="0" x2="31.7344" y2="64.1283" gradientUnits="userSpaceOnUse">
<stop stop-color="white"/>
<stop offset="1" stop-color="white" stop-opacity="0"/>
</linearGradient>
</defs>
</svg>
