<svg width="390" height="1186" viewBox="0 0 390 1186" fill="none" xmlns="http://www.w3.org/2000/svg">
<mask id="mask0_1746_814" style="mask-type:luminance" maskUnits="userSpaceOnUse" x="0" y="0" width="390" height="1186">
<path d="M390 0H0V1186H390V0Z" fill="white"/>
</mask>
<g mask="url(#mask0_1746_814)">
<path d="M390 0H0V1186H390V0Z" fill="#2E183B"/>
<path d="M151.456 1058.98C151.648 1058.98 151.805 1058.29 151.805 1057.44C151.805 1056.59 151.648 1055.9 151.456 1055.9C151.264 1055.9 151.107 1056.59 151.107 1057.44C151.107 1058.29 151.264 1058.98 151.456 1058.98Z" fill="white"/>
<path d="M48.99 729.398C49.1314 729.398 49.2466 728.889 49.2466 728.262C49.2466 727.636 49.1314 727.128 48.99 727.128C48.8483 727.128 48.7334 727.636 48.7334 728.262C48.7334 728.889 48.8483 729.398 48.99 729.398Z" fill="white"/>
<path d="M175.063 357.686C175.193 357.686 175.299 357.217 175.299 356.642C175.299 356.065 175.193 355.598 175.063 355.598C174.933 355.598 174.827 356.065 174.827 356.642C174.827 357.217 174.933 357.686 175.063 357.686Z" fill="white"/>
<path d="M27.2906 11.866C27.3575 11.866 27.4122 11.6258 27.4122 11.329C27.4122 11.0333 27.3575 10.7942 27.2906 10.7942C27.2236 10.7942 27.1689 11.0333 27.1689 11.329C27.1689 11.6258 27.2236 11.866 27.2906 11.866Z" fill="white"/>
<path d="M290.152 625.163C290.219 625.163 290.274 624.922 290.274 624.626C290.274 624.331 290.219 624.089 290.152 624.089C290.085 624.089 290.03 624.331 290.03 624.626C290.03 624.922 290.085 625.163 290.152 625.163Z" fill="white"/>
<path d="M365.165 988.292C365.301 988.292 365.413 987.798 365.413 987.192C365.413 986.585 365.301 986.092 365.165 986.092C365.027 986.092 364.916 986.585 364.916 987.192C364.916 987.798 365.027 988.292 365.165 988.292Z" fill="white"/>
<path d="M214.832 948.188C214.937 948.188 215.022 947.811 215.022 947.347C215.022 946.883 214.937 946.508 214.832 946.508C214.728 946.508 214.643 946.883 214.643 947.347C214.643 947.811 214.728 948.188 214.832 948.188Z" fill="white"/>
<path d="M354.327 31.2139C354.451 31.2139 354.553 30.7656 354.553 30.2151C354.553 29.6636 354.451 29.2175 354.327 29.2175C354.203 29.2175 354.102 29.6636 354.102 30.2151C354.102 30.7656 354.203 31.2139 354.327 31.2139Z" fill="white"/>
<path d="M70.7745 1025.51C70.9666 1025.51 71.1232 1024.82 71.1232 1023.97C71.1232 1023.12 70.9666 1022.42 70.7745 1022.42C70.582 1022.42 70.4258 1023.12 70.4258 1023.97C70.4258 1024.82 70.582 1025.51 70.7745 1025.51Z" fill="white"/>
<path d="M103.395 498.303C103.491 498.303 103.57 497.957 103.57 497.531C103.57 497.105 103.491 496.759 103.395 496.759C103.299 496.759 103.221 497.105 103.221 497.531C103.221 497.957 103.299 498.303 103.395 498.303Z" fill="white"/>
<path d="M115.651 364.142C115.718 364.142 115.773 363.902 115.773 363.605C115.773 363.309 115.718 363.07 115.651 363.07C115.584 363.07 115.529 363.309 115.529 363.605C115.529 363.902 115.584 364.142 115.651 364.142Z" fill="white"/>
<path d="M278.639 973.565C278.762 973.565 278.862 973.123 278.862 972.58C278.862 972.035 278.762 971.595 278.639 971.595C278.516 971.595 278.416 972.035 278.416 972.58C278.416 973.123 278.516 973.565 278.639 973.565Z" fill="white"/>
<path d="M348.679 586.651C348.796 586.651 348.892 586.228 348.892 585.708C348.892 585.187 348.796 584.767 348.679 584.767C348.561 584.767 348.466 585.187 348.466 585.708C348.466 586.228 348.561 586.651 348.679 586.651Z" fill="white"/>
<path d="M20.2153 1057.82C20.3225 1057.82 20.4105 1057.43 20.4105 1056.95C20.4105 1056.48 20.3225 1056.09 20.2153 1056.09C20.1077 1056.09 20.0205 1056.48 20.0205 1056.95C20.0205 1057.43 20.1077 1057.82 20.2153 1057.82Z" fill="white"/>
<path d="M51.2445 331.093C51.3407 331.093 51.419 330.747 51.419 330.321C51.419 329.895 51.3407 329.552 51.2445 329.552C51.1483 329.552 51.0703 329.895 51.0703 330.321C51.0703 330.747 51.1483 331.093 51.2445 331.093Z" fill="white"/>
<path d="M29.2704 447.129C29.3977 447.129 29.5014 446.672 29.5014 446.108C29.5014 445.545 29.3977 445.088 29.2704 445.088C29.1432 445.088 29.04 445.545 29.04 446.108C29.04 446.672 29.1432 447.129 29.2704 447.129Z" fill="white"/>
<path d="M18.7444 887.735C18.8586 887.735 18.9523 887.324 18.9523 886.817C18.9523 886.312 18.8586 885.901 18.7444 885.901C18.63 885.901 18.5371 886.312 18.5371 886.817C18.5371 887.324 18.63 887.735 18.7444 887.735Z" fill="white"/>
<path d="M9.59112 475.394C9.71941 475.394 9.82435 474.933 9.82435 474.365C9.82435 473.796 9.71941 473.335 9.59112 473.335C9.46257 473.335 9.3584 473.796 9.3584 474.365C9.3584 474.933 9.46257 475.394 9.59112 475.394Z" fill="white"/>
<path d="M19.6232 387.228C19.763 387.228 19.8777 386.724 19.8777 386.104C19.8777 385.484 19.763 384.981 19.6232 384.981C19.4828 384.981 19.3691 385.484 19.3691 386.104C19.3691 386.724 19.4828 387.228 19.6232 387.228Z" fill="white"/>
<path d="M9.23406 94.7712C9.36106 94.7712 9.46472 94.3139 9.46472 93.7509C9.46472 93.188 9.36106 92.7329 9.23406 92.7329C9.10679 92.7329 9.00391 93.188 9.00391 93.7509C9.00391 94.3139 9.10679 94.7712 9.23406 94.7712Z" fill="white"/>
<path d="M53.9867 1047.02C54.0829 1047.02 54.1612 1046.68 54.1612 1046.25C54.1612 1045.82 54.0829 1045.48 53.9867 1045.48C53.8905 1045.48 53.8125 1045.82 53.8125 1046.25C53.8125 1046.68 53.8905 1047.02 53.9867 1047.02Z" fill="white"/>
<path d="M115.505 719.63C115.565 719.63 115.615 719.414 115.615 719.145C115.615 718.879 115.565 718.663 115.505 718.663C115.445 718.663 115.396 718.879 115.396 719.145C115.396 719.414 115.445 719.63 115.505 719.63Z" fill="white"/>
<path d="M160.15 1178.23C160.223 1178.23 160.283 1177.97 160.283 1177.64C160.283 1177.31 160.223 1177.05 160.15 1177.05C160.076 1177.05 160.016 1177.31 160.016 1177.64C160.016 1177.97 160.076 1178.23 160.15 1178.23Z" fill="white"/>
<path d="M150.772 421.485C150.846 421.485 150.906 421.22 150.906 420.894C150.906 420.566 150.846 420.302 150.772 420.302C150.698 420.302 150.638 420.566 150.638 420.894C150.638 421.22 150.698 421.485 150.772 421.485Z" fill="white"/>
<path d="M118.74 893.761C118.801 893.761 118.85 893.545 118.85 893.277C118.85 893.01 118.801 892.794 118.74 892.794C118.68 892.794 118.631 893.01 118.631 893.277C118.631 893.545 118.68 893.761 118.74 893.761Z" fill="white"/>
<path d="M111.059 123.52C111.155 123.52 111.233 123.174 111.233 122.748C111.233 122.323 111.155 121.978 111.059 121.978C110.963 121.978 110.885 122.323 110.885 122.748C110.885 123.174 110.963 123.52 111.059 123.52Z" fill="white"/>
<path d="M85.4023 34.9828C85.4985 34.9828 85.5773 34.6366 85.5773 34.2099C85.5773 33.7832 85.4985 33.437 85.4023 33.437C85.3058 33.437 85.2275 33.7832 85.2275 34.2099C85.2275 34.6366 85.3058 34.9828 85.4023 34.9828Z" fill="white"/>
<path d="M158.434 46.6743C158.508 46.6743 158.568 46.4103 158.568 46.084C158.568 45.7566 158.508 45.4915 158.434 45.4915C158.36 45.4915 158.3 45.7566 158.3 46.084C158.3 46.4103 158.36 46.6743 158.434 46.6743Z" fill="white"/>
<path d="M222.486 434.168C222.553 434.168 222.607 433.927 222.607 433.63C222.607 433.335 222.553 433.096 222.486 433.096C222.419 433.096 222.364 433.335 222.364 433.63C222.364 433.927 222.419 434.168 222.486 434.168Z" fill="white"/>
<path d="M138.505 610.765C138.592 610.765 138.663 610.452 138.663 610.067C138.663 609.681 138.592 609.369 138.505 609.369C138.418 609.369 138.347 609.681 138.347 610.067C138.347 610.452 138.418 610.765 138.505 610.765Z" fill="white"/>
<path d="M182.724 607.769C182.791 607.769 182.846 607.529 182.846 607.232C182.846 606.936 182.791 606.695 182.724 606.695C182.657 606.695 182.603 606.936 182.603 607.232C182.603 607.529 182.657 607.769 182.724 607.769Z" fill="white"/>
<path d="M202.787 109.074C202.882 109.074 202.961 108.727 202.961 108.302C202.961 107.876 202.882 107.531 202.787 107.531C202.69 107.531 202.612 107.876 202.612 108.302C202.612 108.727 202.69 109.074 202.787 109.074Z" fill="white"/>
<path d="M232.984 56.9906C233.044 56.9906 233.093 56.7753 233.093 56.5102C233.093 56.2451 233.044 56.0298 232.984 56.0298C232.924 56.0298 232.875 56.2451 232.875 56.5102C232.875 56.7753 232.924 56.9906 232.984 56.9906Z" fill="white"/>
<path d="M314.745 1169.1C314.849 1169.1 314.934 1168.72 314.934 1168.26C314.934 1167.8 314.849 1167.43 314.745 1167.43C314.642 1167.43 314.558 1167.8 314.558 1168.26C314.558 1168.72 314.642 1169.1 314.745 1169.1Z" fill="white"/>
<path d="M294.75 231.514C294.85 231.514 294.931 231.155 294.931 230.712C294.931 230.27 294.85 229.911 294.75 229.911C294.65 229.911 294.569 230.27 294.569 230.712C294.569 231.155 294.65 231.514 294.75 231.514Z" fill="white"/>
<path d="M206.878 772.63C206.966 772.63 207.038 772.314 207.038 771.924C207.038 771.533 206.966 771.218 206.878 771.218C206.79 771.218 206.719 771.533 206.719 771.924C206.719 772.314 206.79 772.63 206.878 772.63Z" fill="white"/>
<path d="M189.679 411.187C189.749 411.187 189.806 410.936 189.806 410.628C189.806 410.318 189.749 410.068 189.679 410.068C189.61 410.068 189.553 410.318 189.553 410.628C189.553 410.936 189.61 411.187 189.679 411.187Z" fill="white"/>
<path d="M334.635 741.773C334.753 741.773 334.849 741.351 334.849 740.83C334.849 740.309 334.753 739.887 334.635 739.887C334.517 739.887 334.422 740.309 334.422 740.83C334.422 741.351 334.517 741.773 334.635 741.773Z" fill="white"/>
<path d="M252.159 862.12C252.245 862.12 252.316 861.809 252.316 861.426C252.316 861.043 252.245 860.731 252.159 860.731C252.073 860.731 252.002 861.043 252.002 861.426C252.002 861.809 252.073 862.12 252.159 862.12Z" fill="white"/>
<path d="M346.663 386.715C346.787 386.715 346.889 386.268 346.889 385.717C346.889 385.165 346.787 384.718 346.663 384.718C346.539 384.718 346.438 385.165 346.438 385.717C346.438 386.268 346.539 386.715 346.663 386.715Z" fill="white"/>
<path d="M366.007 820.91C366.104 820.91 366.183 820.559 366.183 820.129C366.183 819.697 366.104 819.348 366.007 819.348C365.909 819.348 365.83 819.697 365.83 820.129C365.83 820.559 365.909 820.91 366.007 820.91Z" fill="white"/>
<path d="M357.537 931.477C357.667 931.477 357.772 931.01 357.772 930.436C357.772 929.862 357.667 929.395 357.537 929.395C357.407 929.395 357.302 929.862 357.302 930.436C357.302 931.01 357.407 931.477 357.537 931.477Z" fill="white"/>
<path d="M379.513 307.163C379.625 307.163 379.717 306.759 379.717 306.261C379.717 305.763 379.625 305.359 379.513 305.359C379.4 305.359 379.309 305.763 379.309 306.261C379.309 306.759 379.4 307.163 379.513 307.163Z" fill="white"/>
<path d="M334.125 240.237C334.192 240.237 334.246 239.997 334.246 239.7C334.246 239.404 334.192 239.165 334.125 239.165C334.057 239.165 334.003 239.404 334.003 239.7C334.003 239.997 334.057 240.237 334.125 240.237Z" fill="white"/>
<path d="M77.7389 409.772C77.8351 409.772 77.9139 409.425 77.9139 409C77.9139 408.573 77.8351 408.228 77.7389 408.228C77.6427 408.228 77.5645 408.573 77.5645 409C77.5645 409.425 77.6427 409.772 77.7389 409.772Z" fill="white"/>
<path d="M234.828 298.661C234.933 298.661 235.018 298.284 235.018 297.82C235.018 297.356 234.933 296.979 234.828 296.979C234.723 296.979 234.638 297.356 234.638 297.82C234.638 298.284 234.723 298.661 234.828 298.661Z" fill="white"/>
<path d="M312.215 881.402C312.311 881.402 312.391 881.056 312.391 880.628C312.391 880.2 312.311 879.854 312.215 879.854C312.119 879.854 312.04 880.2 312.04 880.628C312.04 881.056 312.119 881.402 312.215 881.402Z" fill="white"/>
<g opacity="0.030281">
<path d="M380.228 743.514C380.363 743.514 380.474 743.024 380.474 742.423C380.474 741.822 380.363 741.334 380.228 741.334C380.092 741.334 379.981 741.822 379.981 742.423C379.981 743.024 380.092 743.514 380.228 743.514Z" fill="white"/>
<path d="M365.164 1077.37C365.241 1077.37 365.304 1077.1 365.304 1076.75C365.304 1076.41 365.241 1076.14 365.164 1076.14C365.087 1076.14 365.024 1076.41 365.024 1076.75C365.024 1077.1 365.087 1077.37 365.164 1077.37Z" fill="white"/>
<path d="M375.219 436.238C375.318 436.238 375.398 435.884 375.398 435.446C375.398 435.007 375.318 434.653 375.219 434.653C375.12 434.653 375.04 435.007 375.04 435.446C375.04 435.884 375.12 436.238 375.219 436.238Z" fill="white"/>
<path d="M382.882 61.4667C382.981 61.4667 383.062 61.1126 383.062 60.6745C383.062 60.2376 382.981 59.8823 382.882 59.8823C382.783 59.8823 382.703 60.2376 382.703 60.6745C382.703 61.1126 382.783 61.4667 382.882 61.4667Z" fill="white"/>
<path d="M326.266 224.599C326.333 224.599 326.388 224.359 326.388 224.062C326.388 223.766 326.333 223.527 326.266 223.527C326.199 223.527 326.145 223.766 326.145 224.062C326.145 224.359 326.199 224.599 326.266 224.599Z" fill="white"/>
<path d="M209.53 259.93C209.637 259.93 209.724 259.546 209.724 259.074C209.724 258.602 209.637 258.219 209.53 258.219C209.423 258.219 209.337 258.602 209.337 259.074C209.337 259.546 209.423 259.93 209.53 259.93Z" fill="white"/>
<path d="M227.942 812.496C228.047 812.496 228.133 812.117 228.133 811.649C228.133 811.183 228.047 810.804 227.942 810.804C227.837 810.804 227.751 811.183 227.751 811.649C227.751 812.117 227.837 812.496 227.942 812.496Z" fill="white"/>
<path d="M218.428 458.638C218.483 458.638 218.528 458.442 218.528 458.201C218.528 457.959 218.483 457.764 218.428 457.764C218.374 457.764 218.329 457.959 218.329 458.201C218.329 458.442 218.374 458.638 218.428 458.638Z" fill="white"/>
<path d="M265.729 396.569C265.796 396.569 265.851 396.329 265.851 396.032C265.851 395.737 265.796 395.498 265.729 395.498C265.662 395.498 265.607 395.737 265.607 396.032C265.607 396.329 265.662 396.569 265.729 396.569Z" fill="white"/>
<path d="M248.62 1125.41C248.711 1125.41 248.786 1125.08 248.786 1124.68C248.786 1124.27 248.711 1123.94 248.62 1123.94C248.528 1123.94 248.454 1124.27 248.454 1124.68C248.454 1125.08 248.528 1125.41 248.62 1125.41Z" fill="white"/>
<path d="M226.09 83.8276C226.144 83.8276 226.189 83.6316 226.189 83.3902C226.189 83.1489 226.144 82.9529 226.09 82.9529C226.035 82.9529 225.99 83.1489 225.99 83.3902C225.99 83.6316 226.035 83.8276 226.09 83.8276Z" fill="white"/>
<path d="M273.39 22.3712C273.528 22.3712 273.64 21.8741 273.64 21.2624C273.64 20.6507 273.528 20.1536 273.39 20.1536C273.251 20.1536 273.139 20.6507 273.139 21.2624C273.139 21.8741 273.251 22.3712 273.39 22.3712Z" fill="white"/>
<path d="M291.462 962.145C291.574 962.145 291.664 961.745 291.664 961.253C291.664 960.759 291.574 960.361 291.462 960.361C291.351 960.361 291.261 960.759 291.261 961.253C291.261 961.745 291.351 962.145 291.462 962.145Z" fill="white"/>
<path d="M108.059 274.345C108.126 274.345 108.181 274.105 108.181 273.808C108.181 273.513 108.126 273.273 108.059 273.273C107.992 273.273 107.938 273.513 107.938 273.808C107.938 274.105 107.992 274.345 108.059 274.345Z" fill="white"/>
<path d="M96.9102 511.897C97.0077 511.897 97.0872 511.547 97.0872 511.115C97.0872 510.682 97.0077 510.333 96.9102 510.333C96.8127 510.333 96.7334 510.682 96.7334 511.115C96.7334 511.547 96.8127 511.897 96.9102 511.897Z" fill="white"/>
<path d="M114.896 867.327C115.032 867.327 115.142 866.839 115.142 866.239C115.142 865.639 115.032 865.151 114.896 865.151C114.76 865.151 114.65 865.639 114.65 866.239C114.65 866.839 114.76 867.327 114.896 867.327Z" fill="white"/>
<path d="M143.506 403.014C143.6 403.014 143.676 402.677 143.676 402.261C143.676 401.847 143.6 401.511 143.506 401.511C143.412 401.511 143.336 401.847 143.336 402.261C143.336 402.677 143.412 403.014 143.506 403.014Z" fill="white"/>
<path d="M153.534 1096.92C153.726 1096.92 153.883 1096.23 153.883 1095.38C153.883 1094.53 153.726 1093.83 153.534 1093.83C153.342 1093.83 153.186 1094.53 153.186 1095.38C153.186 1096.23 153.342 1096.92 153.534 1096.92Z" fill="white"/>
<path d="M116.692 413.142C116.79 413.142 116.87 412.787 116.87 412.353C116.87 411.917 116.79 411.564 116.692 411.564C116.593 411.564 116.514 411.917 116.514 412.353C116.514 412.787 116.593 413.142 116.692 413.142Z" fill="white"/>
<path d="M148.977 643.25C149.071 643.25 149.147 642.914 149.147 642.5C149.147 642.087 149.071 641.75 148.977 641.75C148.884 641.75 148.808 642.087 148.808 642.5C148.808 642.914 148.884 643.25 148.977 643.25Z" fill="white"/>
<path d="M107.652 636.063C107.734 636.063 107.802 635.767 107.802 635.403C107.802 635.039 107.734 634.743 107.652 634.743C107.57 634.743 107.503 635.039 107.503 635.403C107.503 635.767 107.57 636.063 107.652 636.063Z" fill="white"/>
<path d="M92.5269 226.375C92.5939 226.375 92.6485 226.135 92.6485 225.838C92.6485 225.542 92.5939 225.303 92.5269 225.303C92.4599 225.303 92.4053 225.542 92.4053 225.838C92.4053 226.135 92.4599 226.375 92.5269 226.375Z" fill="white"/>
<path d="M123.985 36.7296C124.083 36.7296 124.164 36.3755 124.164 35.9397C124.164 35.5038 124.083 35.1509 123.985 35.1509C123.886 35.1509 123.807 35.5038 123.807 35.9397C123.807 36.3755 123.886 36.7296 123.985 36.7296Z" fill="white"/>
<path d="M185.213 396.175C185.309 396.175 185.388 395.829 185.388 395.403C185.388 394.978 185.309 394.634 185.213 394.634C185.117 394.634 185.039 394.978 185.039 395.403C185.039 395.829 185.117 396.175 185.213 396.175Z" fill="white"/>
<path d="M180.884 756.479C181.013 756.479 181.119 756.014 181.119 755.44C181.119 754.865 181.013 754.401 180.884 754.401C180.754 754.401 180.648 754.865 180.648 755.44C180.648 756.014 180.754 756.479 180.884 756.479Z" fill="white"/>
<path d="M192.877 21.3978C192.973 21.3978 193.051 21.0516 193.051 20.6249C193.051 20.1993 192.973 19.8542 192.877 19.8542C192.78 19.8542 192.702 20.1993 192.702 20.6249C192.702 21.0516 192.78 21.3978 192.877 21.3978Z" fill="white"/>
<path d="M166.332 572.667C166.42 572.667 166.492 572.348 166.492 571.957C166.492 571.564 166.42 571.246 166.332 571.246C166.243 571.246 166.171 571.564 166.171 571.957C166.171 572.348 166.243 572.667 166.332 572.667Z" fill="white"/>
<path d="M17.8804 539.366C17.9474 539.366 18.002 539.124 18.002 538.828C18.002 538.533 17.9474 538.294 17.8804 538.294C17.8132 538.294 17.7588 538.533 17.7588 538.828C17.7588 539.124 17.8132 539.366 17.8804 539.366Z" fill="white"/>
<path d="M36.9208 65.3625C37.0478 65.3625 37.1515 64.9051 37.1515 64.3422C37.1515 63.7792 37.0478 63.323 36.9208 63.323C36.7936 63.323 36.6904 63.7792 36.6904 64.3422C36.6904 64.9051 36.7936 65.3625 36.9208 65.3625Z" fill="white"/>
<path d="M335.232 677.638C335.345 677.638 335.438 677.231 335.438 676.728C335.438 676.226 335.345 675.818 335.232 675.818C335.119 675.818 335.026 676.226 335.026 676.728C335.026 677.231 335.119 677.638 335.232 677.638Z" fill="white"/>
<path d="M53.9087 1036.36C54.0478 1036.36 54.1612 1035.86 54.1612 1035.24C54.1612 1034.62 54.0478 1034.12 53.9087 1034.12C53.7694 1034.12 53.6562 1034.62 53.6562 1035.24C53.6562 1035.86 53.7694 1036.36 53.9087 1036.36Z" fill="white"/>
<path d="M83.943 342.919C84.039 342.919 84.1175 342.573 84.1175 342.149C84.1175 341.723 84.039 341.378 83.943 341.378C83.8468 341.378 83.7686 341.723 83.7686 342.149C83.7686 342.573 83.8468 342.919 83.943 342.919Z" fill="white"/>
<path d="M35.5137 368.252C35.6474 368.252 35.7564 367.771 35.7564 367.179C35.7564 366.587 35.6474 366.107 35.5137 366.107C35.38 366.107 35.2715 366.587 35.2715 367.179C35.2715 367.771 35.38 368.252 35.5137 368.252Z" fill="white"/>
<path d="M166.001 496.422C166.086 496.422 166.156 496.115 166.156 495.735C166.156 495.356 166.086 495.049 166.001 495.049C165.915 495.049 165.846 495.356 165.846 495.735C165.846 496.115 165.915 496.422 166.001 496.422Z" fill="white"/>
<path d="M299.137 949.514C299.191 949.514 299.235 949.319 299.235 949.081C299.235 948.842 299.191 948.648 299.137 948.648C299.083 948.648 299.039 948.842 299.039 949.081C299.039 949.319 299.083 949.514 299.137 949.514Z" fill="white"/>
<path d="M36.7328 911.337C36.8087 911.337 36.8708 911.064 36.8708 910.727C36.8708 910.39 36.8087 910.118 36.7328 910.118C36.6566 910.118 36.5947 910.39 36.5947 910.727C36.5947 911.064 36.6566 911.337 36.7328 911.337Z" fill="white"/>
<path d="M10.5611 469.067C10.628 469.067 10.6827 468.827 10.6827 468.53C10.6827 468.235 10.628 467.996 10.5611 467.996C10.4941 467.996 10.4395 468.235 10.4395 468.53C10.4395 468.827 10.4941 469.067 10.5611 469.067Z" fill="white"/>
<path d="M227.045 1114.03C227.142 1114.03 227.221 1113.68 227.221 1113.25C227.221 1112.82 227.142 1112.48 227.045 1112.48C226.949 1112.48 226.87 1112.82 226.87 1113.25C226.87 1113.68 226.949 1114.03 227.045 1114.03Z" fill="white"/>
<path d="M26.8661 1108.35C26.9533 1108.35 27.0246 1108.03 27.0246 1107.65C27.0246 1107.26 26.9533 1106.95 26.8661 1106.95C26.7788 1106.95 26.708 1107.26 26.708 1107.65C26.708 1108.03 26.7788 1108.35 26.8661 1108.35Z" fill="white"/>
<path d="M45.2776 878.404C45.3584 878.404 45.4244 878.111 45.4244 877.753C45.4244 877.395 45.3584 877.103 45.2776 877.103C45.1965 877.103 45.1309 877.395 45.1309 877.753C45.1309 878.111 45.1965 878.404 45.2776 878.404Z" fill="white"/>
<path d="M368.74 1078.08C368.805 1078.08 368.858 1077.85 368.858 1077.56C368.858 1077.27 368.805 1077.04 368.74 1077.04C368.675 1077.04 368.622 1077.27 368.622 1077.56C368.622 1077.85 368.675 1078.08 368.74 1078.08Z" fill="white"/>
<path d="M253.562 1138.57C253.667 1138.57 253.752 1138.19 253.752 1137.73C253.752 1137.27 253.667 1136.89 253.562 1136.89C253.458 1136.89 253.373 1137.27 253.373 1137.73C253.373 1138.19 253.458 1138.57 253.562 1138.57Z" fill="white"/>
</g>
<path d="M251.924 431.223L301.774 69.0127L252.604 433.395C252.604 433.395 252.472 439.204 251.57 437.288C250.668 435.373 251.924 431.223 251.924 431.223Z" fill="#2E183B"/>
</g>
</svg>
