<svg width="38" height="44" viewBox="0 0 38 44" fill="none" xmlns="http://www.w3.org/2000/svg">
<g opacity="0.25">
<path d="M37.7737 24.6329C37.7737 31.3043 34.3558 37.1703 29.1897 40.5443C29.0981 40.605 29.0056 40.6638 28.9122 40.7226C26.0354 42.5314 22.6388 43.5758 18.9999 43.5758C15.3609 43.5758 11.9643 42.5314 9.08757 40.7226C8.99415 40.6638 8.90165 40.605 8.81007 40.5443C3.64395 37.1703 0.226074 31.3043 0.226074 24.6329C0.226074 14.1711 8.63155 5.68994 18.9999 5.68994C29.3682 5.68994 37.7737 14.1711 37.7737 24.6329Z" fill="#7C6F66"/>
</g>
<path d="M33.9144 36.1391C30.4836 40.6602 25.0788 43.5759 18.9997 43.5759C12.9206 43.5759 7.51676 40.6601 4.08594 36.14C5.19501 31.268 9.20766 27.5151 14.1879 26.8337C14.3904 26.7497 14.5958 26.6713 14.8039 26.5976C14.8973 26.564 14.9908 26.5323 15.0851 26.5024C15.5495 26.3494 16.0249 26.2243 16.5115 26.1263C17.3162 25.9648 18.1487 25.8799 18.9997 25.8799C20.3585 25.8799 21.6665 26.0955 22.893 26.4959L23.1354 26.5771C23.3648 26.6555 23.5896 26.7413 23.8125 26.8337C28.7918 27.5151 32.8044 31.268 33.9144 36.1391Z" fill="#0056A8"/>
<path d="M23.2389 27.4936C23.2389 29.8661 21.326 31.7962 18.9746 31.7962C16.6233 31.7962 14.7095 29.8661 14.7095 27.4936C14.7095 27.1986 14.74 26.9037 14.7983 26.6162C14.7992 26.6097 14.801 26.6032 14.8038 26.5976C14.8972 26.564 14.9907 26.5322 15.085 26.5024C15.1442 26.5425 15.1757 26.6172 15.1609 26.6928C15.1072 26.9541 15.0795 27.2238 15.0795 27.4936C15.0795 29.6608 16.8268 31.4229 18.9746 31.4229C21.1225 31.4229 22.8689 29.6608 22.8689 27.4936C22.8689 27.2266 22.843 26.9597 22.7903 26.7012C22.7727 26.6153 22.8171 26.5304 22.8929 26.4958L23.1353 26.577C23.1436 26.592 23.1492 26.6088 23.1529 26.6265C23.2102 26.9102 23.2389 27.2014 23.2389 27.4936Z" fill="#013E70"/>
<path d="M9.08756 37.9077V40.7226C8.99413 40.6638 8.90163 40.605 8.81006 40.5444V37.9077C8.81006 37.8302 8.87203 37.7677 8.94881 37.7677C9.02558 37.7677 9.08756 37.8302 9.08756 37.9077Z" fill="#013E70"/>
<path d="M29.1896 37.9077V40.5444C29.098 40.605 29.0055 40.6638 28.9121 40.7226V37.9077C28.9121 37.8302 28.9741 37.7677 29.0509 37.7677C29.1276 37.7677 29.1896 37.8302 29.1896 37.9077Z" fill="#013E70"/>
<mask id="mask0_759_182" style="mask-type:luminance" maskUnits="userSpaceOnUse" x="15" y="18" width="8" height="13">
<path d="M18.9505 18.36C17.1816 18.36 15.7622 19.6608 15.7622 26.8249C15.7622 28.8739 17.1961 30.3249 18.965 30.3249C20.7339 30.3249 22.1678 28.8739 22.1678 26.8249C22.1678 19.0245 20.7194 18.36 18.9505 18.36Z" fill="white"/>
</mask>
<g mask="url(#mask0_759_182)">
<path d="M18.9746 30.3659C17.2427 30.3659 15.8389 28.9493 15.8389 27.2018V16.5822C15.8389 14.8347 17.2427 13.4181 18.9746 13.4181C20.7065 13.4181 22.1104 14.8347 22.1104 16.5822V27.2018C22.1104 28.9493 20.7065 30.3659 18.9746 30.3659Z" fill="#FFD9BB"/>
<path d="M22.1105 16.5812L22.1199 25.1784C19.8144 25.0297 17.6715 24.2736 15.8489 23.0645L15.8394 16.5812C15.8394 14.8342 17.2435 13.4175 18.9749 13.4175C19.8412 13.4175 20.6257 13.7713 21.1927 14.3447C21.7597 14.9168 22.1105 15.707 22.1105 16.5812Z" fill="#F4C7A6"/>
</g>
<path d="M28.2672 15.4039C28.2672 16.243 27.5929 16.9233 26.7613 16.9233C25.9296 16.9233 25.2554 16.243 25.2554 15.4039C25.2554 14.5647 25.9296 13.8844 26.7613 13.8844C27.5929 13.8844 28.2672 14.5647 28.2672 15.4039Z" fill="#F6C9A7"/>
<path d="M12.7447 15.4039C12.7447 16.243 12.0705 16.9233 11.2388 16.9233C10.4071 16.9233 9.73291 16.243 9.73291 15.4039C9.73291 14.5647 10.4071 13.8844 11.2388 13.8844C12.0705 13.8844 12.7447 14.5647 12.7447 15.4039Z" fill="#F6C9A7"/>
<path d="M22.7503 22.1346C20.4944 23.7703 17.4556 23.7703 15.1997 22.1346C12.6974 20.3202 11.2139 17.4013 11.2139 14.2922V10.5685C11.2139 6.24349 14.6886 2.73743 18.975 2.73743C23.2613 2.73743 26.7361 6.24349 26.7361 10.5685V14.2922C26.7361 17.4013 25.2526 20.3202 22.7503 22.1346Z" fill="#FFD9BB"/>
<path d="M18.9747 20.4832C17.8278 20.4832 16.8979 19.5451 16.8979 18.3878H21.0515C21.0515 19.5451 20.1217 20.4832 18.9747 20.4832Z" fill="white"/>
<path d="M18.9748 17.053C18.4835 17.053 18.0992 16.6259 18.1465 16.1326L18.3168 14.3574C18.3497 14.0155 18.6344 13.7546 18.9748 13.7546C19.3152 13.7546 19.5999 14.0155 19.6327 14.3574L19.803 16.1326C19.8504 16.6259 19.466 17.053 18.9748 17.053Z" fill="#F4C7A6"/>
<path d="M15.6759 15.1341C15.1785 15.1341 14.7754 14.7915 14.7754 14.2897C14.7754 13.7878 15.1785 13.3811 15.6759 13.3811C16.1733 13.3811 16.5764 13.7878 16.5764 14.2897C16.5764 14.7915 16.1733 15.1341 15.6759 15.1341Z" fill="#563C00"/>
<path d="M22.1354 15.1341C21.638 15.1341 21.2349 14.7915 21.2349 14.2897C21.2349 13.7878 21.638 13.3811 22.1354 13.3811C22.6327 13.3811 23.0358 13.7878 23.0358 14.2897C23.0358 14.7915 22.6327 15.1341 22.1354 15.1341Z" fill="#563C00"/>
<path d="M16.3877 12.2246H14.8417C14.6054 12.2246 14.4141 12.0314 14.4141 11.793C14.4141 11.5547 14.6054 11.3615 14.8417 11.3615H16.3877C16.624 11.3615 16.8154 11.5547 16.8154 11.793C16.8154 12.0314 16.624 12.2246 16.3877 12.2246Z" fill="#563C00"/>
<path d="M22.9087 12.2246H21.3627C21.1264 12.2246 20.9351 12.0314 20.9351 11.793C20.9351 11.5547 21.1264 11.3615 21.3627 11.3615H22.9087C23.145 11.3615 23.3364 11.5547 23.3364 11.793C23.3364 12.0314 23.145 12.2246 22.9087 12.2246Z" fill="#563C00"/>
<path d="M19.161 1.9951C22.588 3.9915 24.5019 7.12031 23.4357 8.98352C22.3696 10.8467 18.7272 10.7387 15.3002 8.74235C11.8733 6.74595 9.95939 3.61714 11.0255 1.75392C12.0917 -0.10929 15.7341 -0.00130361 19.161 1.9951Z" fill="#563C00"/>
<path d="M15.0179 8.48174C14.2409 10.7075 12.5931 12.1499 11.3374 11.7036C10.0817 11.2573 9.69379 9.09111 10.4708 6.86539C11.2478 4.63967 12.8956 3.1972 14.1513 3.64352C15.407 4.08984 15.7949 6.25602 15.0179 8.48174Z" fill="#563C00"/>
<path d="M26.28 4.63759C26.28 6.69756 23.5345 8.36748 20.1478 8.36748C16.7611 8.36748 14.0156 6.69756 14.0156 4.63759C14.0156 2.57764 16.7611 0.907715 20.1478 0.907715C23.5345 0.907715 26.28 2.57764 26.28 4.63759Z" fill="#563C00"/>
<path d="M27.7168 7.67878C27.7168 9.42113 26.5002 10.8336 24.9995 10.8336C23.4988 10.8336 22.2822 9.42113 22.2822 7.67878C22.2822 5.93643 23.4988 4.52393 24.9995 4.52393C26.5002 4.52393 27.7168 5.93643 27.7168 7.67878Z" fill="#563C00"/>
<path d="M28.2668 10.1554C28.2668 12.3824 27.5354 14.1879 26.6332 14.1879C25.7309 14.1879 24.9995 12.3824 24.9995 10.1554C24.9995 7.92836 25.7309 6.12292 26.6332 6.12292C27.5354 6.12292 28.2668 7.92836 28.2668 10.1554Z" fill="#563C00"/>
<path d="M13.3239 10.1554C13.3239 12.3824 12.5925 14.1879 11.6903 14.1879C10.788 14.1879 10.0566 12.3824 10.0566 10.1554C10.0566 7.92836 10.788 6.12292 11.6903 6.12292C12.5925 6.12292 13.3239 7.92836 13.3239 10.1554Z" fill="#563C00"/>
</svg>
