<svg width="155" height="166" viewBox="0 0 155 166" fill="none" xmlns="http://www.w3.org/2000/svg">
<g opacity="0.15" clip-path="url(#clip0_1183_3499)">
<mask id="mask0_1183_3499" style="mask-type:luminance" maskUnits="userSpaceOnUse" x="-12" y="-10" width="179" height="180">
<path d="M167 -10H-12V170H167V-10Z" fill="white"/>
</mask>
<g mask="url(#mask0_1183_3499)">
<path d="M167 -10H-12V170H167V-10Z" fill="#CEB5FF"/>
<path d="M155.626 23.229C134.437 0.418988 59.2438 4.12929 45.092 11.9099C32.7986 28.058 27.4493 70.4987 37.9766 80.8076C56.3196 98.7698 139.733 100.609 148.511 92.1266C156.9 84.0194 170.246 38.9686 155.626 23.229Z" fill="#96C8CD"/>
<path d="M74.0406 26.2502C63.7854 35.0002 56.327 54.0627 61.2464 69.5045L90.7882 77.4645C90.8038 77.4177 90.8193 77.3714 90.8342 77.3245C100.973 78.882 110.869 72.5502 113.585 62.3558L118.74 43.0095C121.656 32.0702 115.2 20.8264 104.322 17.8952L102.489 17.4014C92.6099 14.7395 83.2143 18.4227 74.0406 26.2502Z" fill="#8446FF"/>
<path d="M115.631 39.7279C114.286 46.6991 109.801 52.036 104.252 55.881L102.367 93.3979L80.3801 87.4741L91.163 61.9854C84.2728 63.9829 77.9798 64.1497 75.4328 62.7029C72.8652 61.2454 72.3152 56.2672 73.0921 50.2816C71.1728 48.966 70.197 47.536 70.2592 46.7535C70.3319 45.8097 73.8957 41.7485 75.1425 40.8335L75.1624 40.8735C77.0699 34.5816 79.9376 28.5304 83.1006 25.1454C91.0617 16.6254 119.509 19.6422 115.631 39.7279Z" fill="#DE8E68"/>
<path d="M167 90.093C167 90.093 167.05 164.65 167.05 169.988H-12C-12.0994 162.8 -12 112.289 -12 112.289C-0.836731 108.877 9.24321 107.12 18.4934 105.509C42.1773 101.384 60.4279 98.2049 77.5298 70.5961L77.5864 70.6267C109.457 66.0867 126.029 74.3155 140.377 81.4405C149.094 85.7699 156.992 89.6911 167 90.093Z" fill="#9D4FCC"/>
<path d="M99.1964 50.9502C95.2671 61.6196 92.3435 74.2258 94.5723 78.0058L121.14 85.1646C129.511 59.7002 112.537 65.8608 119.025 41.5108C118.367 40.394 117.755 39.299 117.121 38.3265L117.341 37.6177C115.264 26.9071 110.689 20.5996 103.616 18.694C93.0079 15.8352 88.3359 19.8965 84.3624 23.3427C84.534 31.274 92.5175 34.5946 98.647 41.1608C99.7017 40.6865 100.92 40.5596 102.124 40.884C104.907 41.634 106.558 44.5102 105.813 47.3083C105.066 50.1065 102.206 51.7677 99.4239 51.0177C99.3468 50.9971 99.271 50.974 99.1964 50.9502Z" fill="#8446FF"/>
<path d="M105.617 37.3299C104.622 30.7774 99.46 12.5005 87.7554 12.5005C80.7253 12.5005 76.9103 18.2199 75.3248 25.1736C75.745 24.863 76.1583 24.5436 76.5666 24.2286C77.4324 23.5605 78.2739 22.9105 79.1006 22.4036C80.6942 18.7461 83.2002 16.0368 87.1338 16.2505C95.5997 16.7105 99.4078 29.9824 100.078 38.063C97.9304 39.9355 95.6829 43.0805 95.6829 46.6443C95.6829 52.3836 101.513 57.0368 103.368 57.0368C105.488 57.0368 111.053 52.3836 111.053 46.6443C111.053 42.5624 107.97 39.0299 105.617 37.3299Z" fill="#E9EAEB"/>
<g opacity="0.159249">
<path d="M142.76 12.8838L144.451 20.8003L152.323 22.5002L144.451 24.2001L142.76 32.1166L141.07 24.2001L133.198 22.5002L141.07 20.8003L142.76 12.8838Z" fill="#E9EAEB"/>
</g>
<g opacity="0.99999">
<path d="M21.5625 61.8752L22.4413 65.9915L26.5347 66.8752L22.4413 67.759L21.5625 71.8752L20.6837 67.759L16.5903 66.8752L20.6837 65.9915L21.5625 61.8752Z" fill="#E9EAEB"/>
</g>
<g opacity="0.01">
<path d="M18.144 19.3751L20.177 28.8932L29.6423 30.9376L20.177 32.9814L18.144 42.5001L16.111 32.9814L6.64572 30.9376L16.111 28.8932L18.144 19.3751Z" fill="#E9EAEB"/>
</g>
</g>
</g>
<defs>
<clipPath id="clip0_1183_3499">
<rect width="179" height="180" fill="white" transform="translate(-12 -10)"/>
</clipPath>
</defs>
</svg>
