<svg width="45" height="41" viewBox="0 0 45 41" fill="none" xmlns="http://www.w3.org/2000/svg">
<path d="M11.2926 2C10.8004 3.52811 10.5505 5.12384 10.552 6.72925C10.552 15.2308 17.444 22.1228 25.9456 22.1228C28.0438 22.1254 30.1202 21.6975 32.0465 20.8657C30.0514 27.0547 24.2454 31.53 17.3936 31.53C8.89204 31.53 2 24.638 2 16.1364C2 9.80198 5.8253 4.36206 11.2926 2Z" stroke="#9A4FCB" stroke-opacity="0.4" stroke-width="4" stroke-linejoin="round"/>
<path d="M23.9444 4.16367H31.9319L23.3799 11.0053H31.9319" stroke="#9A4FCB" stroke-opacity="0.4" stroke-width="4" stroke-linecap="round" stroke-linejoin="round"/>
<circle cx="32.9565" cy="28.9565" r="11.9565" fill="white"/>
<path opacity="0.4" d="M29.2425 22.0725C29.1208 22.0725 29.0014 22.1069 28.8967 22.1719C28.792 22.2369 28.7059 22.3303 28.6474 22.4421L26.1565 27.1937C26.0908 27.319 26.0626 27.4622 26.0756 27.6046C26.0885 27.7469 26.1419 27.8819 26.2289 27.992L32.7958 36.3072C32.8595 36.3879 32.9395 36.4529 33.0299 36.4975C33.1203 36.5421 33.219 36.5652 33.3189 36.5652C33.4188 36.5652 33.5175 36.5421 33.6079 36.4975C33.6983 36.4529 33.7782 36.3879 33.842 36.3072L40.4088 27.992C40.4958 27.8819 40.5493 27.7469 40.5622 27.6046C40.5751 27.4622 40.5469 27.319 40.4813 27.1937L37.9904 22.4421C37.9318 22.3301 37.8455 22.2367 37.7407 22.1717C37.6358 22.1066 37.5162 22.0724 37.3944 22.0725H29.2425ZM28.0251 26.5865L29.6437 23.4979H31.0024L29.9716 26.5865H28.0251ZM29.8258 28.0119L31.573 32.524L28.0088 28.0119H29.8258ZM33.3085 33.2206L31.2922 28.0119H35.2649L33.3085 33.2206ZM31.4118 26.5865L32.4416 23.4979H34.2034L35.2876 26.5865H31.4118ZM36.7359 26.5865L35.6517 23.4979H36.9922L38.6118 26.5865H36.7359ZM36.725 28.0119H38.6272L34.9995 32.6058L36.725 28.0119Z" fill="#9A4FCB"/>
</svg>
