<svg width="62" height="62" viewBox="0 0 62 62" fill="none" xmlns="http://www.w3.org/2000/svg">
<path d="M11.8252 28.0943C11.7291 28.0328 11.6159 28 11.5 28C11.3841 28 11.2709 28.0328 11.1748 28.0943C11.0006 28.2043 7 30.8441 7 34.7378C7 35.8682 7.47411 36.9523 8.31802 37.7516C9.16193 38.551 10.3065 39 11.5 39C12.6935 39 13.8381 38.551 14.682 37.7516C15.5259 36.9523 16 35.8682 16 34.7378C16 30.7781 11.9935 28.1988 11.8252 28.0943ZM11.5 37.9001C10.615 37.8986 9.76667 37.565 9.14087 36.9723C8.51507 36.3795 8.16283 35.5761 8.16129 34.7378C8.16129 31.988 10.6058 29.9147 11.5 29.2382C12.4 29.9037 14.8387 31.988 14.8387 34.7378C14.8372 35.5761 14.4849 36.3795 13.8591 36.9723C13.2333 37.565 12.385 37.8986 11.5 37.9001Z" fill="#844D4D"/>
<path d="M42.3958 44.9484C42.4575 44.9798 42.5326 44.9978 42.6107 44.9998C42.6887 45.0018 42.7658 44.9878 42.8311 44.9597C42.8964 44.9316 42.9466 44.8909 42.9748 44.8432C43.003 44.7954 43.0077 44.7431 42.9882 44.6936C41.65 41.4233 36.7912 39 31.001 39C25.2108 39 20.3472 41.4255 19.0122 44.6978C18.9923 44.7475 18.9968 44.8001 19.025 44.8481C19.0532 44.896 19.1037 44.937 19.1693 44.9652C19.235 44.9933 19.3125 45.0073 19.3909 45.005C19.4693 45.0028 19.5446 44.9844 19.6062 44.9526C22.486 43.5401 26.528 42.6604 31.001 42.6604C35.474 42.6604 39.5128 43.5401 42.3958 44.9484Z" fill="#844D4D"/>
<path d="M42.3958 44.9484C42.4575 44.9798 42.5326 44.9978 42.6107 44.9998C42.6887 45.0018 42.7658 44.9878 42.8311 44.9597C42.8964 44.9316 42.9466 44.8909 42.9748 44.8432C43.003 44.7954 43.0077 44.7431 42.9882 44.6936C41.65 41.4233 36.7912 39 31.001 39C25.2108 39 20.3472 41.4255 19.0122 44.6978C18.9923 44.7475 18.9968 44.8001 19.025 44.8481C19.0532 44.896 19.1037 44.937 19.1693 44.9652C19.235 44.9933 19.3125 45.0073 19.3909 45.005C19.4693 45.0028 19.5446 44.9844 19.6062 44.9526C22.486 43.5401 26.528 42.6604 31.001 42.6604C35.474 42.6604 39.5128 43.5401 42.3958 44.9484Z" fill="#844D4D"/>
<circle cx="31" cy="31" r="29.5" stroke="#844D4D" stroke-width="3"/>
<path d="M15.7619 18.5441C16.4344 18.8532 17.1166 19.0134 17.7686 19.0152C18.4205 19.0171 19.029 18.8606 19.5585 18.5549C20.088 18.2492 20.5278 17.8004 20.8522 17.2349C21.1766 16.6694 21.3789 15.9985 21.4475 15.2615" stroke="#844D4D" stroke-width="3" stroke-linecap="round" stroke-linejoin="round"/>
<path d="M46.201 18.5441C45.5285 18.8532 44.8463 19.0134 44.1943 19.0152C43.5424 19.0171 42.9339 18.8606 42.4044 18.5549C41.8749 18.2492 41.4351 17.8004 41.1107 17.2349C40.7863 16.6694 40.5839 15.9985 40.5154 15.2615" stroke="#844D4D" stroke-width="3" stroke-linecap="round" stroke-linejoin="round"/>
<ellipse cx="23" cy="25.5" rx="3" ry="3.5" fill="#844D4D"/>
<ellipse cx="39" cy="25.5" rx="3" ry="3.5" fill="#844D4D"/>
</svg>
