<svg width="155" height="166" viewBox="0 0 155 166" fill="none" xmlns="http://www.w3.org/2000/svg">
<g opacity="0.15" clip-path="url(#clip0_1135_203)">
<mask id="mask0_1135_203" style="mask-type:luminance" maskUnits="userSpaceOnUse" x="-26" y="-9" width="267" height="183">
<path d="M241 -9H-26V174H241V-9Z" fill="white"/>
</mask>
<g mask="url(#mask0_1135_203)">
<path d="M220.322 138.926C216.468 162.215 213.643 164.744 210.989 167.183C210.786 168.053 208.662 167.499 202.341 167.651C164.294 167.651 7.16731 167.686 7.11009 167.686C7.11571 167.691 -4.03152 154.944 -5.97897 135.487C-4.79934 107.9 16.5734 109.732 40.0293 87.3259C52.8611 75.6832 57.1576 38.9026 72.2109 26.4841C86.8843 14.3493 114.775 6.60323 139.205 31.9112C153.572 44.0143 154.378 88.6665 180.435 98.2654C211.731 107.405 220.297 118.08 220.322 138.926Z" fill="url(#paint0_linear_1135_203)"/>
<mask id="mask1_1135_203" style="mask-type:luminance" maskUnits="userSpaceOnUse" x="-7" y="15" width="228" height="153">
<path d="M220.321 138.82C216.467 162.109 213.609 164.677 210.955 167.117C210.751 167.987 208.628 167.432 202.306 167.585C164.26 167.584 7.12997 167.619 7.07276 167.619C7.07838 167.624 -4.05631 154.881 -6.00357 135.439C-4.85045 107.816 16.4923 109.59 39.9737 87.2701C52.8275 75.6649 57.1914 39.0109 72.2132 26.56C86.8439 14.4134 114.655 6.65151 139.054 31.848C153.485 43.9231 154.306 88.4513 180.34 98.0862C211.639 107.3 220.311 117.961 220.321 138.82Z" fill="white"/>
</mask>
<g mask="url(#mask1_1135_203)">
<path d="M166.238 -1.27301C211.161 48.1913 239.253 97.8883 201.543 121.467C112.501 177.144 133.598 195.682 133.598 195.682C133.598 195.682 141.327 208.313 154.978 190.013C168.629 171.713 176.761 167.045 221.679 153.565C266.596 140.085 262.982 76.6321 262.982 76.6321M116.935 205.229C116.935 205.229 123.962 149.932 66.3458 149.335C8.73005 148.738 -24.1933 145.953 -33.8293 107.961C-43.4654 69.9685 12.9539 87.1635 64.9446 113.376C116.935 139.588 175.756 116.713 161.904 43.712C148.052 -29.2891 68.8552 -37.9418 76.8853 -11.2875C84.9154 15.3669 165.417 65.0951 128.015 100.352C92.6927 133.649 -49.9899 -11.2875 -49.9899 -11.2875" stroke="white" stroke-width="7" stroke-miterlimit="10"/>
<path d="M116.935 205.229C116.935 205.229 123.962 149.932 66.3458 149.335C8.73005 148.738 -24.1933 145.953 -33.8293 107.961C-43.4654 69.9685 12.9539 87.1635 64.9446 113.376C116.935 139.588 175.756 116.713 161.904 43.712C148.052 -29.2891 68.8552 -37.9418 76.8853 -11.2875C84.9154 15.3669 165.417 65.0951 128.015 100.352C92.6927 133.649 -49.9899 -11.2875 -49.9899 -11.2875" stroke="white" stroke-width="7" stroke-miterlimit="10"/>
</g>
<path d="M-15.5363 110.565C-19.1023 115.523 -21.5756 139.943 -4.78648 143.11C-4.78648 143.11 2.00079 144.518 3.79532 152.656C5.59005 160.793 17.747 173.873 30.5954 165.721C43.4435 157.568 36.6387 139.881 30.2044 134.58C23.77 129.278 24.6625 129.1 21.085 123.442C17.5075 117.784 17.1498 117.43 13.9371 118.849C10.7243 120.268 13.9472 128.05 17.5233 132.293C21.0993 136.536 17.531 139.37 16.1015 138.664C14.6722 137.958 13.2367 131.59 5.73635 131.244C-1.76404 130.898 -2.8445 122.76 -3.56378 118.16C-3.85428 116.301 -4.52404 114.588 -5.21873 113.206C-5.59232 113.578 -6.07508 113.804 -6.60426 113.804C-7.78768 113.806 -8.74828 112.683 -8.74979 111.297C-8.75064 110.515 -8.44526 109.816 -7.96657 109.355C-8.69925 108.856 -9.98541 108.157 -11.4414 108.158C-12.7622 108.16 -14.2222 108.737 -15.5363 110.565Z" fill="url(#paint1_linear_1135_203)"/>
<g style="mix-blend-mode:overlay" opacity="0.34">
<path d="M33.2037 163.687C32.4167 162.179 31.4817 160.761 30.2608 159.345C28.0275 155.176 27.4874 151.213 26.9616 147.349C26.3121 142.578 25.6989 138.072 22.0919 133.486C16.6772 126.603 15.7807 120.797 15.6841 118.213C15.4607 118.261 15.2213 118.334 14.9621 118.428C15.0803 121.202 16.0738 126.988 21.5285 133.922C25.0169 138.356 25.6176 142.77 26.2537 147.443C26.7034 150.748 27.1626 154.124 28.6532 157.645C24.6162 153.73 18.0017 149.564 5.91524 143.316C-5.95285 137.181 -10.4272 127.62 -12.0908 120.68C-13.3595 115.388 -13.2349 110.775 -13.0441 108.469C-13.2921 108.569 -13.5409 108.694 -13.7888 108.852C-13.9598 111.325 -13.9978 115.771 -12.7924 120.817C-11.0975 127.909 -6.53327 137.679 5.58449 143.943C19.3608 151.065 25.9401 155.515 29.6262 159.676C30.4125 161.142 31.4033 162.635 32.6708 164.16L32.6761 164.156C32.6781 164.16 32.6799 164.164 32.6819 164.168C32.862 164.011 33.0373 163.853 33.2067 163.692L33.2037 163.687Z" fill="#690058"/>
</g>
<path d="M-8.70895 107.026C-14.296 111.746 -7.30287 120.972 -0.778047 125.286C5.747 129.6 8.76752 133.26 10.0069 150.849C11.2464 168.437 25.1122 167.566 28.3011 166.792C31.4896 166.018 37.7211 157.817 34.7164 146.238C31.7118 134.658 24.8601 134.46 26.9584 121.168C29.0566 107.875 19.4075 112.017 16.2108 116.751C13.014 121.484 10.6253 120.678 6.65272 115.112C5.37111 113.317 4.36375 111.945 3.58514 110.908C3.47223 111.513 3.31344 112.081 3.07216 112.558C2.91031 112.877 2.65469 113.119 2.35502 113.266C1.91856 113.48 1.38867 113.494 0.919882 113.258C0.128423 112.86 -0.190828 111.901 0.206891 111.116C0.506326 110.524 0.605432 108.973 0.670833 107.947C0.683774 107.742 0.696381 107.55 0.709342 107.366C-0.263461 106.429 -2.31215 104.87 -4.92018 105.208C-6.08663 105.359 -7.36461 105.89 -8.70895 107.026Z" fill="url(#paint2_linear_1135_203)"/>
<g style="mix-blend-mode:overlay" opacity="0.34">
<path d="M21.5297 112.572C20.0911 117.37 16.2385 132.651 20.2821 147.54C19.3081 145.345 18.3309 142.892 17.3792 140.155C11.0002 121.815 -5.78423 110.787 -9.85807 108.331C-9.98842 108.532 -10.1074 108.736 -10.2072 108.947C-6.18017 111.376 10.4086 122.278 16.7057 140.384C22.0067 155.625 28.0233 162.34 31.0167 164.927C31.1767 164.758 31.3363 164.577 31.4955 164.387C30.6061 163.612 29.4282 162.452 28.0701 160.778C26.5944 158.96 24.7524 156.331 22.7933 152.686C15.7982 135.98 20.9111 116.96 22.3475 112.332C22.0773 112.394 21.804 112.475 21.5297 112.572Z" fill="#690058"/>
</g>
<path d="M24.0639 161.987L22.9441 162.519L1.94867 119.066L14.3375 96.1442L15.4316 96.7249L3.34008 119.097L24.0639 161.987Z" fill="#253138"/>
<path d="M1.17738 120.028C1.70495 120.831 2.78962 121.058 3.59985 120.535C4.41028 120.012 4.63934 118.938 4.11177 118.135C3.58399 117.332 2.49953 117.105 1.68909 117.628C0.878859 118.151 0.649801 119.225 1.17738 120.028Z" fill="#2D3092"/>
<path d="M13.212 97.5134C13.7396 98.3162 14.8241 98.5435 15.6343 98.0208C16.4448 97.4978 16.674 96.4233 16.1462 95.6203C15.6187 94.8175 14.5338 94.5903 13.7236 95.1131C12.9133 95.636 12.6845 96.7105 13.212 97.5134Z" fill="#2D3092"/>
<path d="M25.9305 95.1731L19.9814 105.877L15.2248 102.196L13.801 101.092C12.9519 100.434 12.7102 99.2626 13.2309 98.3269L15.8869 93.555C16.4072 92.6199 17.5358 92.197 18.5504 92.557L20.2522 93.1605L25.9305 95.1731Z" fill="#8446FF"/>
<path d="M25.9305 95.1731L19.9814 105.877L15.2248 102.196L20.2522 93.1605L25.9305 95.1731Z" fill="#0000C6" fill-opacity="0.2"/>
<path d="M37.5362 98.757L29.2371 113.682C28.6954 114.657 27.3974 114.909 26.5237 114.211L19.7238 108.775C17.6724 107.135 17.1042 104.273 18.3764 101.985L21.7538 95.9103C23.026 93.6226 25.7713 92.5692 28.2668 93.411L36.5372 96.2019C37.5998 96.5604 38.0778 97.7829 37.5362 98.757Z" fill="#8446FF"/>
<path d="M33.9262 166.279H12.6947C13.4515 162.44 16.8461 159.67 20.7934 159.67H25.8275C29.7747 159.67 33.1694 162.44 33.9262 166.279Z" fill="url(#paint3_linear_1135_203)"/>
<path d="M123.932 97.5118C123.932 97.5118 112.409 100.265 105.342 105.772C98.2738 111.279 93.4199 139.273 93.4199 139.273C93.4199 139.273 89.4739 140.19 90.1781 143.862C90.1781 143.862 96.773 142.971 100.191 149.974C101.025 151.672 101.664 153.838 101.979 156.592C101.979 156.592 105.462 156.372 105.684 153.379C105.684 153.379 108.815 150.277 109.584 144.412C109.602 144.302 109.621 144.201 109.63 144.091C109.63 144.091 109.978 160.116 108.236 166.119L156.994 166.152L167.168 166.119C167.168 166.119 168.127 163.18 167.589 161.233C167.589 161.233 171.168 156.343 167.524 150.434C167.524 150.434 168.33 117.125 163.699 109.214C159.067 101.302 135.798 96.7131 135.798 96.7131L123.932 97.5118Z" fill="url(#paint4_linear_1135_203)"/>
<g style="mix-blend-mode:multiply">
<path d="M109.528 144.372C108.759 150.237 105.628 153.339 105.628 153.339C105.406 156.331 101.923 156.551 101.923 156.551C101.608 153.798 100.969 151.632 100.135 149.934C101.979 148.172 104.072 145.446 105.285 141.453C107.74 133.413 106.175 124.675 106.063 124.052C108.064 131.568 109.157 140.792 109.528 144.372Z" fill="#3050BB" fill-opacity="0.3"/>
</g>
<g style="mix-blend-mode:multiply">
<path d="M167.468 150.393C167.468 150.393 157.219 144.762 149.957 150.09C150.211 144.608 150.117 132.303 145.348 121.22C145.348 121.22 146.39 143.706 137.127 150.016C127.864 156.326 112.117 155.064 108.18 166.078H167.111C167.697 164.147 167.79 162.49 167.533 161.193C167.533 161.193 171.111 156.813 167.468 150.393Z" fill="#3050BB" fill-opacity="0.3"/>
</g>
<path d="M139.773 159.661C139.773 159.661 150.268 152.387 161.552 154.981C171.609 157.293 169.872 164.5 167.111 166.078H138.906L139.773 159.661Z" fill="#CEB5FF"/>
<path d="M140.385 159.827C140.385 159.827 135.601 156.966 131.75 153.745C131.354 153.413 130.844 153.248 130.326 153.283C128.398 153.412 123.491 153.79 120.073 154.491C119.63 154.581 119.308 154.972 119.312 155.422C119.316 155.965 119.411 156.702 119.809 157.325C119.809 157.325 120.658 158.29 121.834 158.946C121.834 158.946 121.373 159.599 121.339 159.921C121.305 160.243 121.702 161.308 122.263 161.576C122.263 161.576 122.067 161.882 122.16 162.412C122.251 162.942 122.743 163.724 123.159 163.815C123.576 163.906 124.344 163.918 124.344 163.918C124.344 163.918 123.983 164.549 124.002 164.99C124.022 165.431 124.734 166.138 125.212 166.268C125.69 166.397 129.03 166.1 129.673 165.904C130.316 165.709 131.67 164.203 131.67 164.203C131.67 164.203 136.66 166.448 140.75 166.194L140.385 159.827Z" fill="#CEB5FF"/>
<path d="M119.612 156.954L124.733 156.423C124.733 156.423 122.853 157.951 121.827 158.941C121.827 158.941 119.863 157.816 119.612 156.954Z" fill="#CEB5FF"/>
<path d="M131.675 164.195L129.847 163.498L127.367 165.154C127.367 165.154 129.46 163.807 131.357 164.534L131.675 164.195Z" fill="#CEB5FF"/>
<path d="M131.68 153.696C131.68 153.696 130.221 158.771 132.168 161.113C134.116 163.456 140.751 166.196 140.751 166.196C140.751 166.196 140.573 163.093 140.386 159.834C140.386 159.834 134.422 156.086 131.68 153.696Z" fill="#CEB5FF"/>
<path d="M122.305 161.504L126.527 158.403C126.647 158.314 126.817 158.339 126.906 158.459C126.996 158.579 126.97 158.748 126.849 158.836C126.843 158.841 126.836 158.846 126.829 158.85L122.35 161.57C122.331 161.582 122.306 161.576 122.294 161.557C122.283 161.539 122.288 161.516 122.305 161.504Z" fill="#CEB5FF"/>
<path d="M124.329 163.886L128.287 160.747C128.405 160.653 128.577 160.672 128.671 160.789C128.766 160.907 128.746 161.078 128.628 161.172C128.621 161.177 128.614 161.182 128.606 161.187L124.363 163.933C124.349 163.941 124.331 163.938 124.323 163.924C124.315 163.912 124.317 163.895 124.329 163.886Z" fill="#CEB5FF"/>
<path d="M90.1217 143.993L74.8138 163.464L89.758 163.42L101.923 156.723C101.923 156.723 104.595 143.022 90.1217 143.993Z" fill="#CEB5FF"/>
<path d="M86.4728 163.272C86.3666 163.285 76.483 163.653 76.483 163.653C76.483 163.653 75.6407 158.194 75.788 158.222C75.9356 158.249 83.5437 156.687 83.9466 156.744C84.3495 156.8 87.2598 162.673 87.2598 162.673L86.4728 163.272Z" fill="#494949"/>
<path d="M87.995 160.824L85.9268 161.651C85.2453 161.923 84.8652 162.647 85.0309 163.356C85.1364 163.808 85.5855 164.094 86.0436 164L87.9909 163.605L88.7207 163.494C89.0738 163.44 89.3625 163.187 89.46 162.847C89.5909 162.39 89.7535 161.8 89.7586 161.672C89.767 161.457 88.1399 157.273 88.1399 157.273L87.995 160.824Z" fill="#CEB5FF"/>
<path d="M75.7372 156.351L76.2078 156.245C76.4417 156.192 76.6523 156.065 76.8074 155.884L77.3222 155.284C77.5384 155.031 77.8578 154.889 78.192 154.896L78.8206 154.909C79.1643 154.916 79.4919 154.766 79.7079 154.501L80.0133 154.126C80.2548 153.83 80.6338 153.678 81.0152 153.726L82.2412 153.878C82.4375 153.903 82.6371 153.875 82.819 153.797L84.3154 153.158C84.3154 153.158 88.112 154.428 88.3184 158.573L88.1246 160.493C88.0795 160.939 87.7434 161.303 87.2987 161.386L85.8029 161.668C85.4633 161.732 85.1306 161.528 85.0367 161.199L84.2895 158.58L84.7386 161.235C84.8183 161.706 84.5161 162.157 84.0474 162.268L82.877 162.544C82.3795 162.661 81.8815 162.352 81.7706 161.858L81.0303 158.562L81.4683 161.986C81.5263 162.439 81.2023 162.854 80.7442 162.911L79.6425 163.05C79.2562 163.099 78.8919 162.861 78.7843 162.49L77.69 158.722L78.4725 162.459C78.5492 162.826 78.3295 163.191 77.9668 163.297L77.0245 163.575C76.6133 163.696 76.1803 163.469 76.049 163.065L74.6957 158.895C74.5657 158.495 74.5729 158.063 74.7162 157.667L74.9388 157.052C75.0667 156.699 75.3679 156.434 75.7372 156.351Z" fill="#CEB5FF"/>
<path d="M137.897 98.0699C135.952 103.934 132.761 112.006 125.725 111.836C119.582 111.687 120.545 104.402 121.852 100.416C122.046 99.8231 121.919 100.158 122.066 99.7651C121.414 96.0406 121.184 92.206 120.859 88.4211C126.37 86.0886 131.896 83.8383 137.378 81.4104C137.399 82.2673 137.403 82.3102 137.407 83.2565C137.411 84.2029 137.395 81.4943 137.405 83.8632C137.416 86.232 137.494 94.4901 137.897 98.0699Z" fill="#CEB5FF"/>
<path d="M121.922 100.128C121.888 100.347 122.02 99.8436 122.059 99.7857C121.422 96.0153 121.181 92.2175 120.858 88.4208C126.377 86.0757 131.881 83.8645 137.39 81.3883C137.39 81.3883 137.572 81.5176 137.162 84.3027C136.287 88.2742 131.743 103.179 121.922 100.128Z" fill="#A7A7A7"/>
<path d="M112.041 49.9415C111.643 51.4533 111.151 54.2059 112.269 55.8417C109.937 54.4701 110.305 54.4226 108.471 52.7659C106.481 50.9679 106.213 60.8371 106.617 62.561C107.02 64.2848 107.544 69.3996 110.161 70.3155C111.073 74.2421 113.453 77.1927 115.759 78.7947C118.913 80.9866 124.762 80.9235 130.082 80.8351C132.359 80.7971 134.539 80.7544 136.37 80.8818C136.74 80.4949 137.084 80.1654 137.414 79.863C137.426 80.4672 137.476 81.0322 137.613 81.1612C137.933 81.4628 137.832 85.2008 137.832 85.2008C137.832 85.2008 139.154 81.8081 139.192 80.0793C139.21 79.2378 139.223 78.6382 139.232 78.2423C139.771 77.7404 140.326 77.1713 140.953 76.3958C142.506 74.4758 143.889 71.018 144.619 68.2836C144.815 69.2846 144.904 70.0219 144.904 70.0219C145.376 66.2936 145.311 64.5662 145.118 63.7762C144.913 62.6497 144.286 61.7535 142.897 61.407C144.915 58.7473 142.312 54.1822 142.312 54.1822C142.481 55.3426 142.283 56.6811 142.032 57.7556C141.904 56.8563 141.682 55.9935 141.034 55.1601C139.335 51.8992 132.271 50.5071 132.271 50.5071C132.7 50.6806 133.466 51.3655 134.284 52.187C131.261 51.9081 127.744 52.3609 124.355 53.3106C121.089 54.2262 115.453 50.8874 113.269 49.4725C113.142 49.3906 113.004 49.3486 112.866 49.3419C112.501 49.3242 112.143 49.5552 112.041 49.9415Z" fill="url(#paint5_linear_1135_203)"/>
<path d="M136.844 78.959C134.35 76.4464 133.709 71.8185 135.885 69.7909C132.838 72.63 124.859 71.2673 124.859 71.2673C124.859 71.2673 126.803 70.6465 127.325 68.779C127.325 68.779 118.228 70.0628 116.489 71.1397C116.489 71.1397 116.455 69.436 118.272 68.0972C115.969 68.1654 114.084 68.5541 113.899 69.6202C113.402 72.4759 114.291 89.3133 119.783 93.5326C125.275 97.7521 132.067 91.9301 134.749 89.0225C137.43 86.1147 136.383 84.9613 137.897 82.4386C139.989 81.7434 140.791 82.0785 141.421 78.2344C142.052 74.3904 138.731 73.0634 136.844 78.959Z" fill="#CEB5FF"/>
<path d="M100.915 163.42H47.8903C47.5699 163.42 47.3104 163.678 47.3104 163.995V165.709C47.3104 166.026 47.5699 166.284 47.8903 166.284H100.915C101.235 166.284 101.495 166.026 101.495 165.709V163.995C101.495 163.678 101.235 163.42 100.915 163.42Z" fill="#182960"/>
<path d="M61.5013 124.033H16.5536C14.5194 124.033 13.1211 126.076 13.8599 127.97L26.9887 161.622C27.4213 162.731 28.4909 163.461 29.6824 163.461H76.2166C77.4878 163.461 78.3615 162.185 77.8999 161.002L64.195 125.872C63.7624 124.763 62.693 124.033 61.5013 124.033Z" fill="white"/>
<path d="M16.2705 124.849C14.2624 124.849 12.8822 126.85 13.6114 128.704L26.5723 161.658C26.9993 162.744 28.0553 163.46 29.2315 163.46H75.1699C76.4248 163.46 77.2874 162.209 76.8317 161.051L63.3023 126.65C62.8753 125.564 61.8193 124.849 60.6429 124.849H16.2705Z" fill="url(#paint6_linear_1135_203)"/>
<g style="mix-blend-mode:overlay" opacity="0.66">
<path d="M47.2503 144.458C48.3292 147.061 47.7317 149.769 45.9163 150.508C44.1009 151.247 41.7548 149.736 40.6761 147.133C39.5973 144.53 40.1947 141.821 42.0099 141.083C43.8255 140.344 46.1717 141.855 47.2503 144.458Z" fill="#E3EBF7"/>
</g>
<path d="M77.4478 163.42H28.6246C28.3058 163.42 28.0474 163.676 28.0474 163.992V165.712C28.0474 166.027 28.3058 166.284 28.6246 166.284H77.4478C77.7664 166.284 78.025 166.027 78.025 165.712V163.992C78.025 163.676 77.7664 163.42 77.4478 163.42Z" fill="#3756C2"/>
<path d="M155.151 163.726H107.601V166.25H155.151V163.726ZM140.485 163.726H155.151V166.25H140.485V163.726Z" fill="#ABDAF7"/>
<path d="M140.485 163.726H155.152V166.25H140.485V163.726Z" fill="#6FB1DD"/>
</g>
</g>
<defs>
<linearGradient id="paint0_linear_1135_203" x1="104.958" y1="87.8221" x2="129.605" y2="195.841" gradientUnits="userSpaceOnUse">
<stop offset="0.01" stop-color="#D9E5F5"/>
<stop offset="0.41" stop-color="#DBE2FA"/>
<stop offset="1" stop-color="#DDDFFF"/>
</linearGradient>
<linearGradient id="paint1_linear_1135_203" x1="27.9143" y1="163.604" x2="-9.51279" y2="116.898" gradientUnits="userSpaceOnUse">
<stop stop-color="#6956AB"/>
<stop offset="0.41" stop-color="#867FC0"/>
<stop offset="1" stop-color="#A4A8D5"/>
</linearGradient>
<linearGradient id="paint2_linear_1135_203" x1="29.3134" y1="168.303" x2="3.51954" y2="138.457" gradientUnits="userSpaceOnUse">
<stop stop-color="#6956AB"/>
<stop offset="0.41" stop-color="#867FC0"/>
<stop offset="1" stop-color="#A4A8D5"/>
</linearGradient>
<linearGradient id="paint3_linear_1135_203" x1="15.5317" y1="167.612" x2="28.5472" y2="159.011" gradientUnits="userSpaceOnUse">
<stop stop-color="#666666"/>
<stop offset="0.41" stop-color="#414141"/>
<stop offset="1" stop-color="#1C1C1C"/>
</linearGradient>
<linearGradient id="paint4_linear_1135_203" x1="140.003" y1="120.796" x2="79.4429" y2="120.476" gradientUnits="userSpaceOnUse">
<stop stop-color="#FFA866"/>
<stop offset="0.41" stop-color="#FFA866"/>
<stop offset="1" stop-color="#FFA886"/>
</linearGradient>
<linearGradient id="paint5_linear_1135_203" x1="143.958" y1="67.365" x2="109.936" y2="57.2126" gradientUnits="userSpaceOnUse">
<stop stop-color="#5E3434"/>
<stop offset="0.41" stop-color="#4F2C2C"/>
<stop offset="1" stop-color="#3F2323"/>
</linearGradient>
<linearGradient id="paint6_linear_1135_203" x1="39.6342" y1="123.21" x2="41.3724" y2="165.051" gradientUnits="userSpaceOnUse">
<stop stop-color="#3997DE"/>
<stop offset="0.41" stop-color="#3574CD"/>
<stop offset="1" stop-color="#3150BC"/>
</linearGradient>
<clipPath id="clip0_1135_203">
<rect width="267" height="183" fill="white" transform="translate(-26 -9)"/>
</clipPath>
</defs>
</svg>
