<svg width="66" height="66" viewBox="0 0 66 66" fill="none" xmlns="http://www.w3.org/2000/svg">
<path d="M11 57.75C9.4875 57.75 8.19317 57.2119 7.117 56.1357C6.039 55.0578 5.5 53.7625 5.5 52.25V22C5.5 20.4875 6.039 19.1932 7.117 18.117C8.19317 17.039 9.4875 16.5 11 16.5H22V11C22 9.4875 22.539 8.19225 23.617 7.11425C24.6932 6.03808 25.9875 5.5 27.5 5.5H38.5C40.0125 5.5 41.3078 6.03808 42.3857 7.11425C43.4619 8.19225 44 9.4875 44 11V16.5H55C56.5125 16.5 57.8078 17.039 58.8857 18.117C59.9619 19.1932 60.5 20.4875 60.5 22V52.25C60.5 53.7625 59.9619 55.0578 58.8857 56.1357C57.8078 57.2119 56.5125 57.75 55 57.75H11ZM11 52.25H55V22H11V52.25ZM27.5 16.5H38.5V11H27.5V16.5ZM11 52.25V22V52.25Z" fill="#9A4FCB"/>
</svg>
