<svg width="69" height="69" viewBox="0 0 69 69" fill="none" xmlns="http://www.w3.org/2000/svg">
<path d="M34.7875 53.3313L34.5 53.6188L34.1838 53.3313C20.5275 40.94 11.5 32.7463 11.5 24.4375C11.5 18.6875 15.8125 14.375 21.5625 14.375C25.99 14.375 30.3025 17.25 31.8262 21.16H37.1738C38.6975 17.25 43.01 14.375 47.4375 14.375C53.1875 14.375 57.5 18.6875 57.5 24.4375C57.5 32.7463 48.4725 40.94 34.7875 53.3313ZM47.4375 8.625C42.435 8.625 37.6338 10.9538 34.5 14.605C31.3662 10.9538 26.565 8.625 21.5625 8.625C12.7075 8.625 5.75 15.5538 5.75 24.4375C5.75 35.2763 15.525 44.16 30.3313 57.5863L34.5 61.3813L38.6688 57.5863C53.475 44.16 63.25 35.2763 63.25 24.4375C63.25 15.5538 56.2925 8.625 47.4375 8.625Z" fill="#914FC7"/>
</svg>
