<svg width="155" height="148" viewBox="0 0 155 148" fill="none" xmlns="http://www.w3.org/2000/svg">
<g opacity="0.1" clip-path="url(#clip0_1135_1237)">
<mask id="mask0_1135_1237" style="mask-type:luminance" maskUnits="userSpaceOnUse" x="-101" y="0" width="263" height="148">
<path d="M162 0H-101V148H162V0Z" fill="white"/>
</mask>
<g mask="url(#mask0_1135_1237)">
<mask id="mask1_1135_1237" style="mask-type:luminance" maskUnits="userSpaceOnUse" x="-95" y="-7" width="251" height="155">
<path d="M-94.8359 -6.85187H155.973V147.726H-94.8359V-6.85187Z" fill="white"/>
</mask>
<g mask="url(#mask1_1135_1237)">
<path d="M149.018 137.79C149.018 139.46 96.0127 140.814 30.6282 140.814C-34.757 140.814 -87.7625 139.46 -87.7625 137.79C-87.7625 136.12 -34.757 134.766 30.6282 134.766C96.0127 134.766 149.018 136.12 149.018 137.79Z" fill="#EDF1F4"/>
<path d="M67.7219 20.4807H107.61C106.683 17.6152 103.41 16.1248 100.599 17.2403C99.133 15.178 97.2878 12.9386 94.7384 12.3203C92.7503 11.8385 91.2045 12.6178 89.4888 10.8112C88.5424 9.81417 87.9231 8.82552 86.6316 8.18402C81.7007 5.73268 76.7628 9.18234 75.4224 13.9633C74.3183 12.7312 72.4796 12.3615 70.8308 13.0597C68.1532 14.1939 67.6285 17.4091 67.7972 20.0195C67.7 20.1451 67.6781 20.3216 67.7219 20.4807Z" fill="#E4F3F7"/>
<path d="M136.855 27.0554C135.44 25.1863 133.471 23.5439 131.262 22.7356C129.881 22.2287 128.399 22.0483 126.904 22.342C126.777 22.362 126.65 22.3884 126.524 22.4219C127.679 17.7356 126.257 12.8548 123.341 9.06253C122.04 7.37377 120.477 5.96453 118.736 4.79618C116.94 3.59499 114.964 2.66043 112.909 1.95195C111.881 1.59127 110.827 1.29178 109.773 1.04445C104.634 -0.15739 98.6549 -0.731905 93.556 0.930451C88.4178 2.60698 85.6611 7.01244 84.4597 12.08C83.0453 18.0886 83.9859 24.4656 86.9892 29.8397C84.4134 30.9276 83.2655 34.4603 82.6983 36.9503C82.6114 37.338 82.538 37.7238 82.4781 38.1116C82.0101 41.0492 82.2508 44.1072 83.232 46.9115C83.4457 47.5331 83.6988 48.1334 83.9795 48.7137C86.4491 53.8147 91.3864 57.4866 96.9797 58.5152C97.1594 58.5487 97.2926 58.4482 97.3532 58.3213C98.4006 60.7115 98.3414 63.3625 99.3148 65.7926C99.9824 67.4749 101.171 68.8165 102.745 69.6976C106.276 71.6736 110.807 71.4746 114.684 71.034C118.575 70.5928 122.98 69.4239 125.263 65.9459C127.031 63.2485 127.358 59.5238 125.209 57.0196C129.847 55.7579 133.965 52.9536 136.741 49.1813L136.748 49.1748C137.488 48.1726 138.129 47.1048 138.663 45.9763C139.644 43.9269 140.252 41.6836 140.405 39.307C140.686 34.9872 139.484 30.5205 136.855 27.0554Z" fill="#CEB5FF"/>
<path d="M136.741 49.1811C133.386 52.6443 129.087 54.9874 124.036 54.4876C123.53 53.5937 122.957 52.7364 122.368 51.883C122.149 51.5642 121.694 51.7658 121.758 52.14C122.084 54.0381 122.41 55.9368 122.736 57.8349C122.747 57.8967 122.771 57.9418 122.802 57.9798C122.834 58.439 122.86 58.8995 122.86 59.3626C122.866 61.365 122.172 62.8883 120.677 64.2028C118.328 66.2729 115.132 67.3144 112.029 67.2274C105.922 67.0471 100.977 62.2133 100.143 56.2582C100.123 56.1584 100.009 56.0444 99.9097 56.025C94.0369 54.9565 88.5775 52.4524 83.9788 48.7135C86.4484 53.8146 91.3864 57.4864 96.9798 58.515C97.1594 58.5485 98.3414 63.3623 99.3148 65.7924C99.9825 67.4747 101.171 68.8163 102.745 69.6974C106.276 71.6735 110.807 71.4738 114.684 71.0332C118.575 70.5921 122.98 69.4237 125.263 65.9457C127.031 63.2483 127.358 59.5236 125.209 57.0195C129.847 55.7577 133.965 52.9534 136.741 49.1811Z" fill="#E2E9FF"/>
<path d="M123.34 9.06237C122.039 7.3736 120.477 5.96437 118.736 4.79602C124.188 10.9521 125.015 20.1585 122.033 28.0033C121.912 28.317 122.372 28.5714 122.593 28.3311C124.248 26.4743 125.689 24.4718 126.904 22.3419C126.777 22.3619 126.65 22.3883 126.524 22.4218C127.679 17.7355 126.256 12.8547 123.34 9.06237Z" fill="#E2E9FF"/>
<path d="M94.3305 6.77141C98.7013 1.18342 106.429 1.37729 112.909 1.95116C111.881 1.59048 110.827 1.29098 109.773 1.04366C104.634 -0.158185 98.6549 -0.732698 93.556 0.929657C88.4178 2.60618 85.661 7.01229 84.4597 12.0799C83.0453 18.0884 83.9852 24.4648 86.9886 29.8389C84.4127 30.9268 83.2655 34.4595 82.6983 36.9495C82.6114 37.3372 82.538 37.7237 82.4781 38.1114C85.6771 32.4655 88.6721 30.8089 92.3817 30.1816C94.317 30.34 96.231 30.9364 97.6139 31.699C97.9474 31.8832 98.2789 31.453 98.0182 31.1747C96.7158 29.7822 95.2936 28.5482 93.7369 27.4926C91.2995 20.7774 89.594 12.8283 94.3305 6.77141Z" fill="#9D4FCC"/>
<path d="M136.855 27.0552C135.44 25.1861 133.471 23.5437 131.262 22.7354C137.461 27.9138 140.405 39.3068 138.663 45.9762C139.645 43.9267 140.252 41.6828 140.405 39.3061C140.686 34.9863 139.484 30.5203 136.855 27.0552Z" fill="#9D4FCC"/>
<path d="M105.445 54.8174C103.964 55.1929 102.437 55.7049 100.906 55.8002C99.2614 55.9027 97.5753 55.694 95.958 55.4363C95.5383 55.3694 95.3567 56.0128 95.7804 56.0804C97.1587 56.2994 98.5719 56.4752 99.976 56.4817C99.8157 56.5384 99.658 56.6021 99.5028 56.6788C99.2749 56.7902 99.2955 57.138 99.5028 57.2552C101.318 58.2819 104.212 56.4289 105.702 55.4273C106.01 55.2206 105.824 54.7214 105.445 54.8174Z" fill="#E2E9FF"/>
<path d="M125.261 40.6838C123.852 41.3724 122.401 41.9308 120.905 42.381C122.017 39.4247 122.843 36.3434 123.3 33.344C123.347 33.0574 122.601 33.0097 122.566 33.1772C121.84 36.3685 120.752 39.4395 119.329 42.3443C119.329 42.3642 119.323 42.3778 119.309 42.3977C117.475 46.1495 115.086 49.6281 112.209 52.7126C112.082 46.5301 112.195 40.3348 112.556 34.1523C112.623 34.0789 112.202 34.0054 111.668 33.952C110.8 33.8586 109.632 33.8315 109.746 33.9584C109.746 33.9584 109.74 33.9584 109.74 33.9649C109.685 35.3026 109.638 36.6255 109.596 37.9394C109.019 37.4628 108.529 36.8967 108.142 36.2533C107.921 35.8848 107.344 36.2204 107.566 36.5895C108.07 37.4287 108.721 38.1365 109.506 38.7207C109.527 38.7368 109.55 38.7413 109.572 38.7516C109.313 47.1664 109.275 55.2006 109.326 63.7887V64.1964C107.223 62.7472 105.182 60.5168 103.453 58.1936C101.559 55.6566 99.9966 52.9328 99.1958 49.8484C99.1758 49.755 98.9479 49.715 98.7348 49.7286C98.5082 49.7415 98.2938 49.8213 98.3479 49.9817C98.7779 51.264 99.2099 52.5528 99.6741 53.8281C99.0824 53.4597 98.5565 53.0018 98.127 52.4446C97.8695 52.1091 97.2895 52.4408 97.5508 52.7808C98.1534 53.5627 98.8867 54.1965 99.7629 54.6532C99.8447 54.6957 99.9226 54.6976 99.9934 54.6802C100.701 56.55 101.492 58.3869 102.472 60.1304C104.254 63.3018 106.757 65.8581 109.352 68.3687C109.411 74.9293 109.734 129.135 109.809 137.817H116.669C116.17 130.85 112.651 66.1054 112.309 56.0708C115.546 53.0842 118.328 48.6633 120.338 43.7986C122.178 43.2923 123.993 42.6998 125.411 41.3653C125.421 41.3556 125.424 41.3459 125.432 41.3363C125.487 41.3099 125.543 41.2867 125.598 41.2603C125.984 41.0716 125.646 40.4958 125.261 40.6838Z" fill="#855E4F"/>
<path d="M109.079 64.9648C107.83 63.8898 101.456 58.6168 98.7348 49.7286C98.9479 49.715 99.1758 49.7556 99.1958 49.849C99.9967 52.9335 101.559 55.6573 103.453 58.1943C105.182 60.5174 107.223 62.7472 109.325 64.1964V63.7887C109.479 64.056 109.594 64.3368 109.633 64.6369C109.687 64.9712 109.345 65.1921 109.079 64.9648Z" fill="#613D44"/>
<path d="M112.209 52.7126C112.082 46.5301 112.195 40.3354 112.556 34.1529C112.623 34.0795 112.202 34.0055 111.668 33.952C111.147 37.1569 110.634 40.4082 110.874 43.6595C110.994 45.2548 111.361 46.818 111.341 48.4269C111.321 50.1691 111.115 51.8444 111.428 53.5744C111.474 53.8217 111.821 53.8957 111.982 53.7218C113.764 51.845 115.232 49.7486 116.58 47.5516C117.615 45.8757 118.696 44.2398 119.309 42.3977C117.475 46.1495 115.086 49.6281 112.209 52.7126Z" fill="#613D44"/>
<path d="M-83.4099 137.181L-1.91679 136.496C-0.413506 136.323 1.14064 136.175 2.55958 135.715C4.52317 135.08 6.65867 132.842 5.16118 130.692C4.38218 129.576 3.57549 129.996 2.47009 130.437C1.15029 130.963 -0.0600586 131.676 -1.1983 132.513C-1.20988 130.362 -3.40396 129.16 -5.12227 129.923C-3.65247 127.682 -1.24851 125.17 -3.42907 122.787C-4.2879 121.848 -5.48344 122.039 -6.43305 122.726C-8.19707 124.003 -9.7422 125.827 -11.2744 127.451C-11.418 126.767 -12.0155 126.173 -12.7854 126.08C-14.5862 125.863 -15.5841 127.803 -16.7712 128.992C-15.9993 126.342 -14.6312 121.204 -18.6157 122.335C-21.4774 123.148 -23.7764 126.129 -25.1297 128.91C-25.1735 126.82 -25.646 123.917 -27.5472 124.251C-28.7138 124.455 -29.778 126.155 -30.4816 126.955C-31.5362 128.155 -32.5373 129.398 -33.5127 130.662C-33.8783 129.724 -34.8569 129.159 -35.9321 129.174C-37.6105 129.198 -38.6695 130.618 -39.4492 131.982C-40.0537 129.692 -41.0915 127.175 -43.7369 126.874C-44.6047 126.777 -45.4796 126.97 -46.1292 127.573C-47.0885 128.465 -47.1484 129.89 -48.0014 130.837C-49.2723 129.527 -51.6447 130.054 -52.3619 131.652C-53.2368 130.065 -54.2064 128.537 -55.3054 127.093C-56.0676 126.091 -56.949 124.936 -58.3422 125.016C-61.1189 125.173 -61.5097 128.024 -61.3545 130.325C-62.3125 128.995 -63.6671 126.525 -64.6476 126.694C-65.7568 126.885 -66.606 129.918 -67.0341 131.618C-68.4878 129.866 -72.0436 127.239 -72.9397 128.241C-73.5662 128.941 -72.7292 131.286 -72.3468 132.76C-73.7174 131.046 -75.1988 129.427 -76.8161 127.935C-77.9189 126.918 -80.1774 124.213 -81.9555 124.752C-83.3468 125.173 -83.547 127.066 -83.4022 128.269C-83.2283 129.717 -82.5414 131.162 -81.7148 132.484C-83.0197 131.706 -84.5456 131.353 -86.1422 131.489C-86.3443 131.505 -86.5156 131.681 -86.4531 131.896C-85.9291 133.695 -84.7162 135.928 -83.4099 137.181Z" fill="#CEB5FF"/>
</g>
<mask id="mask2_1135_1237" style="mask-type:luminance" maskUnits="userSpaceOnUse" x="-32" y="39" width="147" height="113">
<path d="M-31.8255 39.4666H114.194V151.426H-31.8255V39.4666Z" fill="white"/>
</mask>
<g mask="url(#mask2_1135_1237)">
<path d="M4.47983 112.564H1.5119L9.69656 87.2891C10.2419 85.6062 11.8095 84.4655 13.578 84.4655L4.47983 112.564Z" fill="#D4D4D4"/>
<path d="M94.5471 94.6908H8.43597L10.9738 87.1938H97.0849L94.5471 94.6908Z" fill="#D9D9D9"/>
<path d="M91.2283 105.244H5.11719L7.65634 97.7469H93.7674L91.2283 105.244Z" fill="#D9D9D9"/>
<path d="M88.1297 114.987H2.01855L4.33818 108.3H90.4499L88.1297 114.987Z" fill="#D9D9D9"/>
<path d="M91.2978 112.564H88.3318L96.5152 87.2891C97.0612 85.6062 98.6275 84.4655 100.397 84.4655L91.2978 112.564Z" fill="#D4D4D4"/>
<path d="M90.0373 137.68H87.7112C87.4833 137.68 87.2992 137.495 87.2992 137.267V112.564H90.45V137.267C90.45 137.495 90.2658 137.68 90.0373 137.68Z" fill="#D4D4D4"/>
<path d="M72.4737 137.68H70.1477C69.9191 137.68 69.735 137.495 69.735 137.267V112.564H72.8858V137.267C72.8858 137.495 72.7016 137.68 72.4737 137.68Z" fill="#D4D4D4"/>
<path d="M88.2752 125.122H71.311V123.241H88.2752V125.122Z" fill="#D4D4D4"/>
<path d="M2.683 137.68H0.499225C0.271319 137.68 0.0865479 137.495 0.0865479 137.267V112.564H3.09568V137.267C3.09568 137.495 2.91091 137.68 2.683 137.68Z" fill="#D4D4D4"/>
<path d="M1.01813 125.122H-15.1799V123.241H1.01813V125.122Z" fill="#D4D4D4"/>
<path d="M88.1748 115.688H7.54565V112.521H91.3391C91.3391 114.27 89.9227 115.688 88.1748 115.688Z" fill="#E57D15"/>
<path d="M66.0222 115.688H-14.7389C-16.4869 115.688 -17.9039 114.27 -17.9039 112.521H69.1871C69.1871 114.27 67.7701 115.688 66.0222 115.688Z" fill="#D4D4D4"/>
<path d="M25.6241 100.797C25.1326 100.291 24.7497 99.6798 22.9893 100.589C21.6119 101.3 14.0116 107.519 14.0116 107.519L15.3856 108.701C15.3856 108.701 22.5554 105.849 24.7485 104.597C26.2676 103.728 26.957 102.17 25.6241 100.797Z" fill="#CEB5FF"/>
<path d="M12.1396 108.43C12.5605 107.539 13.3972 107.439 14.2091 107.221C14.7799 106.823 15.4761 107.476 15.5076 108.203C15.5567 109.336 14.5251 110.762 14.1449 110.964C13.6808 111.212 12.5863 111.215 12.1397 110.4C11.8967 109.955 12.0293 108.663 12.1396 108.43Z" fill="#CEB5FF"/>
<path d="M10.3619 111.649C10.1742 111.685 9.96257 111.774 9.82701 111.592C9.77598 111.523 9.76177 111.42 9.80943 111.339C10.117 110.815 10.5203 110.692 11.018 110.504C11.555 110.302 11.8998 110.033 12.2157 109.5C12.4712 109.069 12.6819 108.6 12.8886 108.139C12.9984 107.897 13.3051 108.112 13.1971 108.353C13.1548 108.447 13.1112 108.543 13.0682 108.64C13.1928 108.605 13.3098 108.737 13.2804 108.897C13.117 109.798 12.7039 110.824 11.9077 111.213C11.43 111.445 10.8663 111.549 10.3619 111.649Z" fill="#CEB5FF"/>
<path d="M11.1327 112.887C10.9448 112.924 10.7335 113.012 10.598 112.83C10.5474 112.762 10.5325 112.658 10.5802 112.577C10.8878 112.053 11.2912 111.929 11.7886 111.743C12.3257 111.541 12.6705 111.272 12.9864 110.738C13.2414 110.307 13.4526 109.838 13.6594 109.377C13.7684 109.135 14.076 109.349 13.9672 109.591C13.9252 109.684 13.882 109.782 13.839 109.878C13.963 109.843 14.08 109.975 14.0512 110.136C13.8877 111.037 13.4743 112.064 12.6786 112.451C12.1999 112.684 11.6371 112.787 11.1327 112.887Z" fill="#CEB5FF"/>
<path d="M12.359 113.197C12.1814 113.279 11.9896 113.417 11.8222 113.273C11.7599 113.219 11.725 113.121 11.7564 113.032C11.9605 112.45 12.3347 112.232 12.7895 111.93C13.2807 111.602 13.569 111.258 13.7793 110.665C13.9488 110.185 14.0688 109.68 14.1857 109.183C14.2467 108.921 14.5898 109.054 14.5287 109.314C14.5054 109.415 14.4814 109.52 14.4571 109.623C14.573 109.559 15.418 107.849 15.4779 107.995C15.8725 108.94 14.5112 111.829 13.8006 112.398C13.3727 112.741 12.8369 112.978 12.359 113.197Z" fill="#CEB5FF"/>
<path d="M10.5311 112.541C10.3435 112.578 10.1318 112.666 9.99645 112.484C9.94604 112.415 9.93103 112.312 9.9785 112.232C10.2861 111.707 10.6895 111.584 11.1871 111.396C11.7242 111.194 12.069 110.925 12.3849 110.392C12.6403 109.961 12.8513 109.491 13.0579 109.031C13.167 108.788 13.4743 109.004 13.3665 109.244C13.3245 109.338 13.2805 109.435 13.2377 109.531C13.3621 109.497 13.4791 109.629 13.4497 109.789C13.2862 110.69 12.8731 111.716 12.0771 112.104C11.5986 112.337 11.0358 112.441 10.5311 112.541Z" fill="#CEB5FF"/>
<path d="M10.6857 110.256C10.5744 110.239 10.4926 110.095 10.5492 109.971C10.805 109.412 11.0279 108.638 11.4798 108.23C11.9186 107.834 12.5451 107.681 13.0722 107.541C13.2041 107.505 13.2696 107.624 13.2617 107.745C13.3147 107.787 13.3484 107.857 13.3294 107.937C13.1432 108.698 12.5228 108.666 12.0397 109.077C11.5529 109.492 11.4319 110.377 10.6857 110.256Z" fill="#CEB5FF"/>
<path d="M12.2003 110.174C12.2003 110.174 12.8103 111.449 14.1429 111.25C13.1384 110.913 12.2003 110.174 12.2003 110.174Z" fill="black"/>
<path d="M12.5118 109.115C12.5118 109.115 13.0375 109.66 13.8971 109.196C13.8971 109.196 13.2194 109.629 12.9521 109.583C12.6213 109.526 12.5118 109.115 12.5118 109.115Z" fill="black"/>
<path d="M33.0276 83.0401C34.6524 83.7586 34.4324 90.3794 27.3966 101.535C26.6827 102.667 24.4624 99.7173 24.6935 97.7279C24.9858 95.2094 29.7783 84.7329 29.7783 84.7329C29.7783 84.7329 29.9967 81.7001 33.0276 83.0401Z" fill="#CEB5FF"/>
<path d="M38.6491 91.21C38.9284 92.5864 39.7295 93.6038 40.8389 94.0694C41.1465 94.212 41.4772 94.2993 41.8274 94.343C44.4281 94.6729 49.7831 89.1348 53.3643 83.5523C55.2876 80.5547 55.991 74.5376 54.8926 74.7556C52.3982 75.2508 45.5942 83.462 42.3591 86.1403C40.3407 87.8051 38.4509 90.2701 38.6491 91.21Z" fill="#C3E7F3"/>
<path d="M40.7068 95.6539C43.7524 96.6221 49.7829 89.1354 53.3641 83.5527C55.2874 80.5551 55.7382 76.4767 55.7498 75.0213C55.6202 74.9601 55.4825 74.912 55.3374 74.8683C55.1989 74.8254 55.0463 74.7875 54.8923 74.7558C54.3396 75.1032 53.789 75.5959 53.2402 76.2024C50.5506 79.1481 48.8906 86.0944 45.5503 89.302C41.0467 93.627 40.6736 95.6252 40.7068 95.6539Z" fill="#9ED4E3"/>
<path d="M45.796 88.4116C45.796 88.4116 48.5657 90.4869 46.0874 93.7103C43.6097 96.9335 40.1575 97.4212 39.7831 94.9904C39.4087 92.5595 40.9281 88.9679 45.796 88.4116Z" fill="#9ED4E3"/>
<path d="M31.9586 84.417L34.2714 81.6555C34.2714 81.6555 36.8814 83.9801 41.3036 87.4471C43.3168 89.0343 45.2828 90.1616 45.6567 90.7037C46.8582 92.4415 43.4648 98.2232 40.3753 95.0581C36.5499 91.1392 31.9586 84.417 31.9586 84.417Z" fill="#CEB5FF"/>
<path d="M7.54461 104.859C5.981 107.437 12.0307 136.39 12.0307 136.39L13.7614 136.518L13.9128 111.126C13.9128 111.126 8.73154 102.903 7.54461 104.859Z" fill="#544F5B"/>
<path d="M13.9125 111.126L13.9098 111.658L13.7543 136.481L12.5749 136.696C12.5749 136.696 10.8387 110.719 11.9619 108.478C13.9255 111.001 14.6467 111.436 13.9125 111.126Z" fill="#3B343F"/>
<path d="M7.54461 104.859C5.98099 107.437 13.4847 111.348 13.4847 111.348C13.4847 111.348 25.8793 110.708 27.3552 108.179C28.7394 105.808 28.7394 101.627 28.7394 101.627C28.0627 101.659 32.3399 98.7094 32.3399 98.7094C22.074 98.7094 8.73154 102.903 7.54461 104.859Z" fill="#544F5B"/>
<path d="M11.6352 110.406C11.6352 110.406 11.477 107.712 12.3729 105.738C14.2577 101.586 27.6947 100.247 27.6947 100.247L20.4855 110.415C20.4855 110.415 16.6822 111.291 13.9084 111.377C12.6502 111.416 11.8749 110.507 11.6352 110.406Z" fill="#3B343F"/>
<path d="M13.8001 134.954L14.1131 136.821H7.09973C7.09973 136.821 9.28729 134.956 11.7351 134.954C11.7063 135.197 13.1296 135.602 13.7329 134.988L13.8001 134.954Z" fill="#EA5081"/>
<path d="M14.1131 137.35H7.09973V136.821H14.1131V137.35Z" fill="#D8326E"/>
<path d="M14.0688 106.558C13.2182 109.054 21.7589 136.346 21.7589 136.346L23.6314 136.517L22.5342 110.892C22.5342 110.892 14.8181 104.36 14.0688 106.558Z" fill="#544F5B"/>
<path d="M14.0688 106.558C13.2182 109.054 22.3971 111.097 22.3971 111.097C22.3971 111.097 33.5822 114.015 39.8544 110.861C42.307 109.627 41.9776 100.603 41.9776 100.603C41.3009 100.635 35.1684 99.1927 35.1684 99.1927C24.9025 99.1927 14.8181 104.36 14.0688 106.558Z" fill="#544F5B"/>
<path d="M23.532 134.954L23.845 136.822H16.8317C16.8317 136.822 18.8788 134.957 21.3266 134.954C21.2979 135.197 22.8615 135.602 23.4642 134.989L23.532 134.954Z" fill="#EA5081"/>
<path d="M23.845 137.351H16.8317V136.822H23.845V137.351Z" fill="#D8326E"/>
<path d="M36.6476 106.913C35.0516 109.336 32.9811 136.553 32.9811 136.553L34.7477 136.673L43.1474 112.804C43.1474 112.804 55.361 112.41 56.8668 110.034C58.2793 107.805 58.2793 103.875 58.2793 103.875C57.5885 103.905 62.166 99.992 62.166 99.992C51.6881 99.992 37.8586 105.074 36.6476 106.913Z" fill="#564E4E"/>
<path d="M43.1472 112.804L34.8525 136.537L33.6485 136.739C33.6485 136.739 40.6995 109.952 41.5757 107.739C43.1691 103.712 55.5829 100.946 55.5829 100.946L49.855 112.136C49.855 112.136 43.8966 113.095 43.1472 112.804Z" fill="#473D3D"/>
<path d="M43.3066 108.51C42.4382 110.856 45.4042 136.512 45.4042 136.512L47.3156 136.673L51.9458 112.583C51.9458 112.583 68.048 114.029 69.5538 111.653C70.9663 109.424 70.8318 103.666 70.8318 103.666C70.141 103.697 64.5508 99.921 64.5508 99.921C54.0736 99.921 44.0702 106.444 43.3066 108.51Z" fill="#564E4E"/>
<path d="M35.3973 135.202L35.6915 136.958H28.4385C28.4385 136.958 30.7961 135.208 33.097 135.205C33.0693 135.433 34.767 135.811 35.3342 135.235L35.3973 135.202Z" fill="#D4D4D4"/>
<path d="M35.6915 137.455H28.4385V136.958H35.6915V137.455Z" fill="black"/>
<path d="M47.5588 135.202L47.853 136.958H40.6012C40.6012 136.958 42.9576 135.208 45.2585 135.205C45.2308 135.433 46.9298 135.811 47.4964 135.235L47.5588 135.202Z" fill="#D4D4D4"/>
<path d="M47.853 137.455H40.6012V136.958H47.853V137.455Z" fill="black"/>
<path d="M64.0486 72.6961C64.0486 72.6961 69.3181 76.1823 71.2786 77.7078C71.2786 77.7078 70.7608 100.257 71.2506 107.012C71.2506 107.012 55.1344 106.473 52.0853 102.986C52.0853 102.986 52.2223 92.7412 52.2223 86.8583C52.2223 80.9761 52.7669 75.6375 55.1624 74.1126C55.1624 74.1126 58.8217 76.5086 64.0486 72.6961Z" fill="#C3E7F3"/>
<path d="M66.2612 74.2649C63.209 79.2976 61.7972 85.1026 61.5319 90.9403C61.3072 95.8578 58.219 104.739 57.637 105.564C57.1966 105.691 55.4983 105.049 55.5962 104.921C59.8278 99.3769 58.902 91.8845 60.1349 85.46C60.7169 82.4258 61.2692 79.1533 62.7789 76.4586C63.1852 75.7334 64.053 73.7548 64.9305 73.4334C65.1146 73.3658 66.4292 73.9873 66.2612 74.2649Z" fill="#855E4F"/>
<path d="M59.229 91.1185C59.229 91.1185 59.05 92.8156 59.229 92.9947C59.4079 93.1737 61.2324 93.1589 61.4037 92.9496C61.5756 92.7403 61.6503 91.2216 61.5299 91.1011C61.4101 90.9813 59.3783 90.7598 59.229 91.1185Z" fill="#D9D9D9"/>
<path d="M54.4671 89.9124C54.2431 94.8298 54.0306 103.498 53.4486 104.323C53.007 104.45 52.0896 103.704 52.1154 103.545C52.9246 98.5106 53.1132 91.3905 53.4165 84.8559C53.551 81.9569 53.9263 77.4459 54.1163 76.1514C54.2566 75.1962 54.3731 74.4646 55.2506 74.1432C55.4347 74.0755 54.733 84.0746 54.4671 89.9124Z" fill="#855E4F"/>
<path d="M52.5462 89.6059C52.5462 89.6059 52.3672 91.3024 52.5462 91.4814C52.7258 91.6611 54.5497 91.6463 54.7216 91.437C54.8928 91.2277 54.9675 89.7083 54.8477 89.5885C54.7274 89.4687 52.6956 89.2465 52.5462 89.6059Z" fill="#D9D9D9"/>
<path d="M71.0767 95.1212C71.0767 95.1212 71.127 97.0036 71.1105 97.2667C71.1105 97.2667 66.5543 96.9309 66.1002 91.1978C65.2097 79.961 71.206 77.6823 71.206 77.6823C71.206 77.6823 71.9493 91.331 71.0767 95.1212Z" fill="#9ED4E3"/>
<path d="M54.9586 68.0087C55.0433 68.2247 55.1217 68.4267 55.1809 68.6166C55.344 69.1334 55.4682 69.6431 55.5465 70.1402C55.6376 70.6366 55.6905 71.1068 55.7166 71.5453C55.8077 72.9573 55.5529 74.2738 55.5529 74.2738C59.5249 76.2346 63.9422 73.2313 63.9422 73.2313C63.753 72.6757 63.6027 71.9958 63.4849 71.3159C63.2428 69.9235 63.1454 68.5255 63.1256 68.1202C63.1193 68.0941 63.1193 68.0737 63.1193 68.0545C63.1122 68.0214 63.1122 68.0087 63.1122 68.0087H54.9586Z" fill="#CEB5FF"/>
<path d="M55.2695 73.7902C55.2695 73.7902 55.5937 74.3382 56.8447 74.5873L54.8306 76.4066C54.8306 76.4066 54.802 74.2127 54.8313 73.8985C54.8606 73.5844 55.2695 73.7902 55.2695 73.7902Z" fill="white"/>
<path d="M64.2193 72.4023C64.2193 72.4023 61.0728 74.5797 56.8447 74.5873C56.8447 74.5873 57.5924 76.1071 57.7937 77.1879C57.7937 77.1879 63.2677 75.6439 64.2193 72.4023Z" fill="white"/>
<path d="M54.9586 68.0087C55.0433 68.2247 55.1217 68.4267 55.1809 68.6166C55.4096 69.264 55.514 69.7598 55.5465 70.1395C55.6376 70.6359 55.6905 71.1062 55.7166 71.5446C57.6045 72.3749 59.7345 72.7082 61.2829 72.3749C62.2823 72.1659 63.0409 71.6752 63.4849 71.3159C63.2428 69.9235 63.1447 68.5248 63.125 68.1195C63.1186 68.0934 63.1193 68.0737 63.1193 68.0545C63.1122 68.0214 63.1122 68.0087 63.1122 68.0087H54.9586Z" fill="black"/>
<path d="M64.369 64.5781C64.369 64.5781 63.8041 67.6413 62.9481 68.4067C62.0921 69.1721 62.285 64.2126 62.285 64.2126L64.369 64.5781Z" fill="#613D44"/>
<path d="M62.8851 65.301C62.8851 65.301 63.6065 69.6288 62.4047 70.92C61.2029 72.2111 56.0813 73.9521 54.5643 72.9995C53.0475 72.0476 49.7501 61.1912 49.8872 60.2167C50.0243 59.2422 56.123 53.8084 59.6539 56.4617C63.1855 59.1154 62.8851 65.301 62.8851 65.301Z" fill="#CEB5FF"/>
<path d="M46.6974 56.7816C47.6713 57.642 51.7098 53.2366 55.5831 52.475C58.7721 51.8481 61.9995 54.8793 62.0108 55.0565C62.8595 55.0586 64.0841 56.7693 64.2652 58.1977C64.9428 63.5498 62.6692 65.2651 62.1435 65.286C59.7087 65.3869 58.1633 61.2897 58.3645 57.6971C56.3338 58.147 54.5798 58.4038 52.5989 59.6032C51.7296 60.1297 50.2471 61.5543 49.103 61.2879C47.4029 60.8934 45.7904 57.7263 46.6974 56.7816Z" fill="#613D44"/>
<path d="M54.0837 65.4418C53.9169 66.1432 53.7829 66.7188 53.5558 67.2924L53.4572 67.5395L53.6705 67.6765C53.8485 67.7914 54.0555 67.8246 54.2305 67.8046C54.4083 67.791 54.5641 67.7323 54.7025 67.6551C54.9722 67.4977 55.1429 67.3015 55.3558 67.103C55.0576 67.0801 54.773 67.1874 54.5386 67.2207C54.3079 67.2589 54.1027 67.2271 54.0136 67.1549L54.1284 67.5396C54.4351 66.8792 54.4714 66.0668 54.0837 65.4418Z" fill="black"/>
<path d="M57.4464 59.3027C57.2173 59.0261 54.1644 59.4614 53.9839 59.7345C53.8285 59.9699 53.9956 60.5895 54.3121 61.2054C54.3891 61.3559 54.5844 61.4109 54.7218 61.312C55.3317 60.8739 56.7983 60.5578 57.3192 60.4561C57.4318 60.4335 57.5149 60.3409 57.522 60.2267C57.5407 59.9439 57.5575 59.4367 57.4464 59.3027Z" fill="#613D44"/>
<path d="M49.4211 62.5421C49.3799 62.1843 51.6542 60.2999 51.9573 60.3608C52.2183 60.4139 52.5336 60.9639 52.7498 61.6198C52.8028 61.7808 52.7146 61.9588 52.558 61.9883C51.8635 62.1204 50.6984 62.9507 50.2916 63.2532C50.2039 63.3192 50.0869 63.3137 50.0039 63.2395C49.7982 63.0559 49.4411 62.7151 49.4211 62.5421Z" fill="#613D44"/>
<path d="M57.801 68.9135C57.4977 69.2854 57.1907 69.6062 56.8217 69.8374C56.6421 69.9588 56.4456 70.0508 56.2377 70.1264C56.0302 70.2093 55.8064 70.2439 55.5696 70.3048C55.7997 70.376 56.0484 70.4037 56.2949 70.3644C56.5439 70.339 56.7827 70.2393 56.9943 70.1048C57.4135 69.8305 57.7239 69.394 57.801 68.9135Z" fill="black"/>
<path d="M57.5932 70.5481C57.4081 70.4649 57.2344 70.4912 57.0754 70.5563C56.927 70.6273 56.7624 70.7619 56.753 70.972C56.948 70.9353 57.0673 70.9066 57.207 70.8458C57.3394 70.7793 57.4683 70.7059 57.5932 70.5481Z" fill="black"/>
<path d="M61.9172 63.1549C62.2445 62.4918 63.9393 61.7973 64.469 62.5436C65.3175 63.7376 64.7338 66.2453 62.4791 65.8282C61.6568 65.6762 61.6336 63.7295 61.9172 63.1549Z" fill="#CEB5FF"/>
<path d="M62.5581 63.8825C62.5581 63.8825 63.5608 62.7498 63.8511 63.1552C64.4183 63.9469 63.5979 64.7228 63.2801 64.9675C63.2801 64.9675 63.5121 64.407 63.2243 64.1355C62.9365 63.8639 62.5581 63.8825 62.5581 63.8825Z" fill="black"/>
<path d="M63.2278 66.1536C63.4323 67.9984 64.0676 70.6069 62.7089 72.2706C61.9081 73.2511 58.3597 74.8999 56.7336 75.0983C55.3232 75.2702 53.8249 75.2455 53.3346 73.7047C53.0933 72.947 52.5351 70.3926 52.5619 70.0543C52.6431 69.0297 53.9596 69.1483 53.7974 67.8029C53.7683 67.5585 54.8787 67.253 54.9515 67.3017C55.6164 67.7467 55.9709 68.562 56.793 68.6906C58.4516 68.9492 60.4562 68.1112 60.3937 66.1881C60.3716 65.5053 60.2008 64.8949 60.2672 64.2061C60.286 64.0104 60.5629 63.8895 60.7233 63.9894C61.0184 64.1742 61.1231 64.2386 61.3281 64.5277C61.4415 64.6871 62.2842 66.8369 62.6255 66.0232C62.7581 65.7074 63.1958 65.8632 63.2278 66.1536Z" fill="#613D44"/>
<path d="M53.6489 70.4674C54.8477 70.3695 56.3844 69.5677 56.3844 69.5677C56.3844 69.5677 56.4005 70.9337 55.14 71.1366C54.2419 71.2815 53.6489 70.4674 53.6489 70.4674Z" fill="white"/>
<path d="M51.0463 69.7818C51.0463 69.7818 52.8188 67.9066 53.3606 67.7661C53.9024 67.6255 54.5634 67.5042 55.0351 67.4327C55.7563 67.3235 57.8925 67.7223 58.2096 67.9055C58.5259 68.088 56.3188 69.3147 54.6207 69.791C52.9231 70.2666 51.6873 70.2796 51.0463 69.7818Z" fill="#56353D"/>
<path d="M36.3683 79.2555C36.3683 79.2555 31.4494 80.3696 27.6948 84.4876C27.6948 84.4876 32.2226 88.302 32.2445 89.9992L34.9636 89.0783C34.9636 89.0783 38.3353 83.9757 36.3683 79.2555Z" fill="#7059A1"/>
<path d="M31.9468 60.5809C32.0193 61.0321 31.3278 61.1541 31.2553 60.7029C31.2518 60.6827 31.2412 60.6623 31.2376 60.642L30.3632 61.4747L29.8197 61.9908C29.5169 61.9302 29.2329 61.9017 28.9719 61.8768C28.8553 62.2257 28.5956 62.4928 28.1314 62.5747C27.8117 62.6235 27.4813 62.5684 27.1809 62.4426C27.0799 62.7179 26.8497 62.9512 26.5827 63.0978C26.3958 63.2094 26.1626 63.3076 25.9358 63.3546C26.1872 64.1736 26.0281 65.0511 25.4968 65.7231C25.7728 66.0737 25.8477 66.5384 25.9072 66.9989C25.9834 67.5496 26.001 68.0961 25.9098 68.6326C26.2088 68.8727 26.4244 69.2479 26.5475 69.5831C26.7306 70.0934 26.7318 70.6296 26.5718 71.1351C26.7695 71.286 26.9369 71.47 27.0504 71.7074C27.193 72.0314 27.2072 72.4359 27.0556 72.7479C27.4664 72.9753 27.7883 73.3456 27.9512 73.824C28.0559 74.1339 28.0899 74.8563 27.9098 75.3306C28.4383 75.8586 28.6373 76.6645 28.6639 77.4237C28.683 77.8127 28.4914 78.1464 28.2091 78.3249C28.2122 78.7453 28.1386 79.0581 27.9404 79.228C27.933 79.2294 27.9276 79.238 27.9208 79.2392C27.7778 79.5211 27.5581 79.7742 27.2696 79.9608C26.8335 80.2374 26.2071 80.3264 25.7577 80.085C25.7454 80.0941 25.7312 80.0966 25.7177 80.099C25.2433 80.525 24.5252 80.7018 23.9171 80.5309C23.7967 80.4951 23.6948 80.4414 23.5972 80.3731C22.995 80.7222 22.1924 80.7066 21.6406 80.2474C21.4491 80.0885 21.316 79.8977 21.2143 79.6875C21.0456 79.496 20.9391 79.2581 20.9438 79.0006C20.9459 78.8506 20.9858 78.7142 21.0493 78.5889L21.0481 78.5821C21.0685 78.5361 21.09 78.4961 21.119 78.4555C21.1295 78.3966 21.1474 78.3364 21.1665 78.283C20.8382 77.9986 20.5972 77.6411 20.5629 77.1623C20.5292 76.6471 20.721 76.2 21.0189 75.826C20.4934 75.1487 20.2178 74.3541 20.4949 73.4989C20.271 73.3179 20.0636 73.1117 19.8968 72.8559C19.4694 72.2106 19.4346 71.6101 19.5769 70.8781C18.709 70.1603 18.0517 69.1854 18.3426 68.0843C18.371 67.922 18.4126 67.7512 18.462 67.5852C17.5842 66.8552 17.3297 65.6945 17.8156 64.5673C17.4842 64.2619 17.2135 63.902 17.1479 63.4503C17.0432 62.7334 17.4455 61.9771 17.747 61.3388C17.4477 60.8559 17.298 60.2903 17.482 59.7159C17.6696 59.1186 18.1574 58.405 18.7655 58.1334C18.6897 57.4977 18.9518 56.8378 19.4582 56.3916C20.2993 55.658 21.5132 55.544 22.5848 55.6331C22.8748 55.2967 23.2426 55.0314 23.7277 54.9103C24.712 54.6656 25.6126 55.2413 25.8626 56.1747C27.3785 55.8285 28.9451 56.6227 29.4804 58.2048C29.7557 58.2272 30.0378 58.2853 30.2938 58.4036C31.1849 58.8029 31.7798 59.6329 31.9468 60.5809Z" fill="#855E4F"/>
<path d="M29.4166 60.5926C29.2767 60.4462 29.0838 60.4448 28.9171 60.5528C28.2526 60.6701 27.5807 60.781 26.9162 60.8983C26.7589 60.8544 26.601 60.8899 26.5037 61.0282C26.0185 61.7135 25.3981 61.9586 24.6578 61.7679C24.4809 61.7351 24.2888 61.904 24.2782 62.0847C24.2276 63.014 24.1936 64.0329 23.19 64.5315C22.9944 64.637 22.9203 64.9074 23.0725 65.0802C23.7345 65.8414 23.8143 66.8194 23.2292 67.6719C23.1436 67.7941 23.136 67.9958 23.2483 68.104C23.8952 68.6174 24.0601 69.309 23.7338 70.1729C23.7138 70.2335 23.7132 70.3011 23.7261 70.3663C24.3891 70.979 24.5139 71.8886 24.0628 72.5741C24.5149 73.2763 24.4376 74.2869 23.9231 74.6873C23.9969 75.2878 23.831 75.8779 23.4625 76.1947C23.5872 76.5234 23.5921 76.8752 23.347 77.2253C23.1309 77.5347 22.8294 77.6867 22.5116 77.715C22.2525 78.3604 21.6185 78.8007 20.981 78.7671C20.9594 78.8419 20.945 78.9182 20.9442 79.0004C20.9394 79.258 21.0462 79.4965 21.2148 79.688C21.3166 79.8982 21.4503 80.0889 21.6418 80.2478C22.1936 80.707 22.9954 80.722 23.5975 80.3729C23.6951 80.4413 23.7971 80.4949 23.9175 80.5307C24.5256 80.7017 25.2436 80.5248 25.7181 80.0988C25.7316 80.0964 25.7457 80.0939 25.758 80.0848C26.2075 80.3262 26.8345 80.2371 27.2706 79.9605C27.5591 79.7739 27.7781 79.5209 27.9211 79.239C27.9279 79.2378 27.9333 79.2292 27.9408 79.2279C28.139 79.0579 28.2125 78.7451 28.2094 78.3247C28.4917 78.1462 28.6833 77.8126 28.6642 77.4236C28.6376 76.6644 28.4386 75.8584 27.9101 75.3304C28.0902 74.8562 28.0563 74.1345 27.9516 73.8246C27.7887 73.3462 27.4667 72.9751 27.0559 72.7478C27.2076 72.4358 27.1933 72.0313 27.0507 71.7073C26.9372 71.4699 26.7699 71.2858 26.5722 71.135C26.7322 70.6295 26.731 70.094 26.5479 69.5837C26.4249 69.2485 26.2091 68.8726 25.9102 68.6325C26.0014 68.096 25.9838 67.5502 25.9077 66.9995C25.8481 66.539 25.7731 66.0736 25.4971 65.723C26.0284 65.0511 26.1876 64.1735 25.9362 63.3546C26.163 63.3076 26.3961 63.2094 26.583 63.0978C26.8501 62.9511 27.0802 62.7178 27.1813 62.4426C27.4817 62.5683 27.8122 62.6241 28.1319 62.5753C28.596 62.4934 28.8557 62.2263 28.9723 61.8774C29.2334 61.9023 29.5173 61.9308 29.8202 61.9914L30.3635 61.4746C30.0252 61.2129 29.7098 60.9187 29.4166 60.5926Z" fill="#724C40"/>
<path d="M29.1707 63.5577C29.1707 63.5577 27.3574 63.1111 27.5987 61.7725C27.8834 60.1869 30.9382 57.4473 32.3813 59.3931C33.4085 60.7785 29.1707 63.5577 29.1707 63.5577Z" fill="#D9D9D9"/>
<path d="M44.6381 67.4918C45.0385 66.4916 44.666 65.3482 43.7293 64.8087C42.7572 61.8655 41.1716 59.6603 41.1716 59.6603C40.0523 62.7075 39.1247 69.6224 39.1247 69.6224C39.942 71.9598 38.1729 77.5017 38.1729 77.5017C39.9905 76.7281 41.3194 75.7825 42.2819 74.7388C42.5824 74.8653 42.9018 74.8583 43.1902 74.5646C43.599 74.1488 43.9568 73.5778 43.7001 73.0011C44.118 72.7319 44.4807 72.3784 44.7021 71.9296C44.9632 71.3979 44.7782 70.8454 44.531 70.3387C45.1891 69.49 45.2099 68.3802 44.6381 67.4918Z" fill="#775044"/>
<path d="M27.351 99.1485C32.3398 102.663 42.1496 103.592 42.1496 103.592C42.1496 103.592 44.0084 93.6835 44.0084 89.9643C44.0077 89.9568 44.0152 89.9568 44.0145 89.9492C44.1858 89.5306 44.357 89.1044 44.5275 88.6713C44.5761 88.5487 44.6241 88.4192 44.6727 88.2966C45.0446 87.3585 45.3884 86.4294 45.6747 85.5873C45.7049 85.5085 45.7295 85.4359 45.7459 85.3646C46.1918 84.0278 46.4541 81.6523 44.4323 80.2902C43.331 79.5474 40.5681 78.9445 40.5681 78.9445C38.6429 80.0202 35.2068 79.7071 35.2068 79.7071C35.2068 79.7071 29.3352 84.6055 28.4051 86.6555C27.4757 88.7125 29.5961 90.694 29.5961 90.694C29.8687 92.2617 29.2838 97.6993 27.351 99.1485Z" fill="#7059A1"/>
<path d="M34.7437 74.5174C35.0718 76.4579 35.3019 78.4682 35.2067 79.707C33.6986 82.308 40.7626 79.0253 40.7626 79.0253C40.6516 78.5182 40.6653 78.386 40.6098 77.7693C40.4955 76.5052 40.4838 75.2403 40.4859 74.8744C40.4825 74.8504 40.3804 72.8799 40.3811 72.862C40.3777 72.8326 39.7619 72.1357 39.7619 72.1357L34.7437 74.5174Z" fill="#CEB5FF"/>
<g opacity="0.67">
<path d="M39.1885 74.1508C39.1721 74.354 39.1577 74.5444 39.1547 74.7209C39.1243 75.326 39.1506 75.7798 39.202 76.1186C39.237 76.5701 39.3262 77.2661 39.3652 77.7399C38.2299 78.7612 34.7559 77.2775 33.6969 76.2212C33.5354 74.9411 33.2301 73.5598 33.2301 73.5598L39.1885 74.1508Z" fill="black"/>
</g>
<path d="M31.3964 66.6066C31.3964 66.6066 32.3963 73.0797 33.3316 74.6971C34.2668 76.3144 37.9274 78.1966 39.6293 78.0027C41.3312 77.8088 43.1831 73.4872 43.4168 72.0462C43.6511 70.6044 42.874 66.0949 42.624 65.0628C42.3739 64.03 41.0866 61.2593 40.6011 60.8726C40.1149 60.4854 32.1713 62.1419 31.3964 66.6066Z" fill="#CEB5FF"/>
<path d="M39.5495 69.6428C39.4854 70.0646 39.5323 70.4772 39.6312 70.8807C39.7418 71.2793 39.9007 71.6763 40.1774 72.0268L40.1361 71.6974C40.1004 71.815 39.9359 71.9665 39.7082 72.0721C39.4789 72.1835 39.1611 72.2591 38.91 72.4606C39.2197 72.5089 39.4889 72.5804 39.8236 72.5575C39.993 72.5436 40.1678 72.5016 40.3341 72.4068C40.5022 72.3187 40.6662 72.1639 40.7559 71.9546L40.8269 71.789L40.7152 71.6251C40.3178 71.0427 40.0201 70.3362 39.5495 69.6428Z" fill="black"/>
<path d="M41.3043 68.0781C42.6365 68.0523 42.7146 68.6813 42.765 69.2636C42.814 68.1594 41.8262 68.0274 41.2874 68.0811C40.7137 68.1383 39.7132 68.3242 39.8259 69.5564C39.7447 68.9968 39.866 68.1059 41.3043 68.0781Z" fill="#CEB5FF"/>
<path d="M36.4541 68.9796C37.7276 68.5875 37.976 69.1706 38.185 69.7165C37.9277 68.6415 36.9418 68.787 36.4387 68.9871C35.9029 69.2002 34.9923 69.6548 35.4403 70.8082C35.208 70.2927 35.0791 69.4028 36.4541 68.9796Z" fill="#CEB5FF"/>
<path d="M37.4775 66.3903C37.78 66.4099 37.8063 67.041 37.6908 67.3174C37.5748 67.5945 36.2606 67.3118 34.2913 68.364C34.1826 68.4221 36.1058 66.2985 37.4775 66.3903Z" fill="#855E4F"/>
<path d="M39.9256 65.9978C39.6637 66.1219 39.8794 66.7147 40.087 66.9298C40.2954 67.1455 41.3603 66.4234 43.5143 66.704C43.6331 66.7192 41.1147 65.4318 39.9256 65.9978Z" fill="#855E4F"/>
<path d="M37.657 74.3222C37.657 74.3222 39.1531 74.6148 40.3571 74.0866C40.3571 74.0866 39.631 74.6314 38.8665 74.5471C38.1019 74.4629 37.657 74.3222 37.657 74.3222Z" fill="white"/>
<path d="M29.5981 90.683C31.6261 91.5087 36.1293 92.1788 38.4484 91.1346C38.4484 91.1346 35.5561 93.4148 29.5981 93.0798C29.5981 93.0798 29.7296 92.0143 29.5981 90.683Z" fill="#5D4A93"/>
<path d="M42.1495 103.592C42.1495 103.592 44.0084 94.6968 44.0084 89.9636C43.6145 90.4316 43.8159 86.5267 42.2228 84.2409C40.2846 86.1279 39.7778 99.0169 38.1758 102.634C39.5442 103.297 42.1495 103.592 42.1495 103.592Z" fill="#5D4A93"/>
<path d="M45.0718 63.6607C44.8623 62.9373 44.3644 62.381 43.7995 61.9109C43.8721 61.7701 43.9152 61.6122 43.9203 61.4749C43.9579 60.4408 42.9464 59.9974 42.0604 59.7892C41.9916 59.2288 41.7694 58.6857 41.1382 58.5696C40.6847 58.4862 40.0732 58.5683 39.7021 58.8864C39.4195 58.6635 39.031 58.5665 38.6202 58.5959C38.0905 58.633 37.6328 58.791 37.2581 59.0721C36.5066 58.4423 35.4996 58.396 34.5673 58.5995C34.1943 58.6813 33.9171 58.8408 33.7076 59.0573C33.0631 58.7627 32.2389 58.9401 31.6635 59.3262C31.4576 59.4641 31.302 59.6391 31.1648 59.8233C31.1594 59.8242 31.155 59.8229 31.1497 59.8246C30.2516 60.0881 29.0437 60.3931 28.5958 61.3132C28.4271 61.6588 28.3492 62.0413 28.334 62.4329C28.3151 62.448 28.2932 62.4582 28.2751 62.4774C27.7127 63.1067 27.1662 63.8188 27.1805 64.7054C27.1862 65.0536 27.3038 65.3578 27.4578 65.6478C27.1464 66.324 26.8964 67.0917 26.9205 67.8325C26.9419 68.491 27.3766 68.9847 27.7865 69.4675C27.6636 70.7561 28.3919 71.6724 29.4284 72.3285C29.4342 73.4434 30.508 74.7496 31.6497 74.8069C31.6974 75.3341 31.9891 75.8371 32.4425 76.1209C32.9851 76.4607 33.8974 76.404 33.8751 75.5905C33.8656 75.2645 33.7826 74.8799 33.581 74.6163C33.506 74.5182 33.4046 74.4283 33.2931 74.368C33.0436 73.1132 32.7642 71.5193 32.8337 70.9665C32.8656 70.9031 32.8955 70.8359 32.9265 70.7706C32.9492 70.7652 32.9712 70.7599 33.002 70.7809C33.002 70.7809 33.0101 70.6967 33.0174 70.5723C33.6699 69.0685 33.9045 67.1551 32.8413 65.8971C33.5094 65.9586 34.1746 65.739 34.8056 65.4356C35.3736 65.1622 35.7991 64.8846 35.9307 64.4196C36.521 64.6118 37.2184 64.5597 37.8464 64.4565C38.4642 64.3551 39.1645 64.2281 39.5164 63.8293C39.5256 63.8297 39.5337 63.8283 39.5428 63.8288C40.0361 64.1932 40.6545 64.3867 41.2931 64.4111C41.5591 64.4211 41.8524 64.384 42.081 64.2449C42.2459 64.4662 42.4238 64.6783 42.6342 64.8659C43.1014 65.2836 43.907 65.794 44.564 65.6147C45.3132 65.4102 45.2356 64.2273 45.0718 63.6607Z" fill="#855E4F"/>
<path d="M33.0296 70.3845C32.4544 70.0568 30.8009 70.2728 30.5931 71.2174C30.3317 72.403 32.6399 74.4785 33.6576 72.8678C34.0814 72.1975 33.5276 70.6687 33.0296 70.3845Z" fill="#CEB5FF"/>
<path d="M32.528 71.09C32.528 71.09 31.2462 70.7513 31.3163 71.3665C31.421 72.2886 32.3741 72.6999 32.71 72.6956C32.71 72.6956 32.2449 72.3261 32.2649 71.8433C32.2848 71.3597 32.528 71.09 32.528 71.09Z" fill="black"/>
<path d="M44.9754 81.4015C46.7123 81.0301 49.1416 88.6466 50.0197 101.806C50.2443 105.177 44.9446 103.025 44.5932 101.052C44.2419 99.08 41.9769 88.7152 41.9769 88.7152C41.9769 88.7152 41.7345 82.0949 44.9754 81.4015Z" fill="#CEB5FF"/>
<path d="M43.2638 80.7896C43.2638 80.7896 46.5972 79.5405 49.5601 87.9025C49.5601 87.9025 42.6283 90.3315 41.9776 91.8978L41.1064 88.7035C41.1064 88.7035 39.6853 84.441 43.2638 80.7896Z" fill="#7059A1"/>
<path d="M50.0104 101.466C50.1001 101.969 49.8809 104.317 47.9091 104.551C43.0279 105.128 33.2167 103.027 33.2167 103.027C33.2167 103.027 32.5236 101.28 33.2462 101.074C37.9446 99.7331 45.9702 98.6389 47.5845 98.9273C49.2008 99.2165 49.7878 100.223 50.0104 101.466Z" fill="#CEB5FF"/>
<path d="M49.83 102.854C49.83 102.854 47.8164 103.616 44.8474 103.562C41.8784 103.509 33.2172 103.027 33.2172 103.027C33.2172 103.027 44.8782 105.594 48.4992 104.399C48.9794 104.24 49.6423 103.779 49.83 102.854Z" fill="black"/>
<path d="M30.5852 96.5516L31.9764 96.6487L32.0103 96.1617C32.0271 95.9208 31.8461 95.7113 31.6052 95.6945L31.085 95.6582C30.8441 95.6414 30.6359 95.8237 30.6191 96.0646L30.5852 96.5516Z" fill="#7DC7E7"/>
<path d="M26.3866 96.5688L33.0357 97.033L31.135 105.143L27.145 104.865L26.3866 96.5688Z" fill="#7DC7E7"/>
<path d="M26.4962 98.771L32.6235 99.1988C32.6755 99.2025 32.7112 99.2547 32.6985 99.3074L31.8401 102.925C31.83 102.967 31.7939 102.995 31.7528 102.992L26.833 102.649C26.7919 102.646 26.7593 102.613 26.7558 102.57L26.4075 98.8681C26.4016 98.8141 26.4448 98.7674 26.4962 98.771Z" fill="#67B2D0"/>
<path d="M28.3021 100.735C28.3456 100.11 28.8869 99.6395 29.5106 99.683C30.1355 99.7267 30.6064 100.268 30.5629 100.893C30.5194 101.517 29.978 101.988 29.3531 101.945C28.7294 101.901 28.2586 101.359 28.3021 100.735Z" fill="white"/>
<path d="M27.0222 96.5412L32.412 96.9173C32.604 96.9307 32.7716 96.7856 32.785 96.5929C32.7984 96.4002 32.6527 96.2319 32.4607 96.2185L27.0709 95.8424C26.8782 95.8289 26.7112 95.9754 26.6978 96.1681C26.6844 96.3608 26.8296 96.5278 27.0222 96.5412Z" fill="#7DC7E7"/>
<path d="M28.575 100.755C28.6079 100.281 29.0188 99.9237 29.4915 99.9567C29.9655 99.9898 30.3229 100.401 30.2899 100.874C30.2569 101.348 29.8462 101.704 29.3721 101.671C28.8994 101.638 28.542 101.228 28.575 100.755Z" fill="#7059A1"/>
<path d="M26.3141 96.9876L33.0307 97.4563C33.2632 97.4725 33.4652 97.2969 33.4814 97.0644C33.4976 96.8318 33.3219 96.6298 33.0894 96.6136L26.3728 96.1449C26.1403 96.1287 25.9383 96.3044 25.9221 96.5369C25.9059 96.7694 26.0816 96.9714 26.3141 96.9876Z" fill="#67B2D0"/>
<path d="M33.6485 101.167C33.5166 100.743 33.3719 100.239 32.9532 100.01C32.7224 99.8845 32.4429 99.86 32.1894 99.8035C31.847 99.728 31.5095 99.6364 31.1732 99.5371C30.9279 99.4638 30.7436 99.7568 30.8153 99.9657C30.954 100.366 31.2207 100.686 31.6109 100.861C31.8623 100.974 32.1597 100.993 32.3951 101.134C32.6324 101.275 32.7844 101.541 32.9784 101.738C33.1766 101.942 33.4273 101.773 33.4778 101.553C33.6081 101.485 33.7039 101.346 33.6485 101.167Z" fill="#CEB5FF"/>
<path d="M28.2527 100.341C29.0188 100.111 29.8577 99.7727 30.6787 99.7737C31.5667 99.7761 32.7968 100.861 33.6018 101.12C33.9267 101.224 33.6124 101.353 33.5013 101.561C33.4525 101.781 33.2192 101.993 32.877 101.939C32.4042 101.865 31.9974 101.25 31.5417 101.128C31.0966 101.009 30.6737 100.83 30.2105 100.761C30.1333 100.75 30.0727 100.727 30.0216 100.698C29.5019 100.798 29.2451 100.834 28.7634 100.978C28.1479 101.162 27.6413 100.523 28.2527 100.341Z" fill="#CEB5FF"/>
<path d="M28.0306 101.331C28.7937 101.029 29.6537 100.708 30.5083 100.63C31.4346 100.545 32.3954 101.377 33.2724 101.554C33.6266 101.625 33.7266 101.904 33.6433 102.121C33.6262 102.344 33.414 102.576 33.0501 102.556C32.5462 102.529 32.1062 101.961 31.6131 101.885C31.1319 101.81 30.6642 101.675 30.1712 101.652C30.0888 101.649 30.0219 101.632 29.9646 101.608C29.4382 101.757 29.2694 101.802 28.7902 101.992C28.1768 102.234 27.4215 101.571 28.0306 101.331Z" fill="#CEB5FF"/>
<path d="M28.8273 102.089C29.4686 101.77 30.152 101.338 30.8959 101.227C31.7021 101.108 32.5698 101.883 33.3593 102.014C33.6769 102.067 33.7931 102.328 33.7404 102.537C33.7476 102.749 33.584 102.98 33.2616 102.977C32.8153 102.972 32.4308 102.427 31.9896 102.374C31.5592 102.324 31.1351 102.215 30.6991 102.214C30.6271 102.215 30.566 102.202 30.5128 102.181C30.0648 102.345 29.9398 102.443 29.5372 102.642C29.0213 102.898 28.3152 102.342 28.8273 102.089Z" fill="#CEB5FF"/>
<path d="M29.767 102.706C30.316 102.407 31.0419 101.99 31.6914 101.87C32.3942 101.74 33.1633 102.455 33.864 102.544C34.1471 102.581 34.2618 102.806 34.2258 102.992C34.2428 103.177 34.0967 103.491 33.8193 103.537C32.8947 103.69 31.5431 102.7 31.4018 102.719C31.0164 102.877 30.829 103.013 30.484 103.201C30.0434 103.442 29.3295 102.945 29.767 102.706Z" fill="#CEB5FF"/>
<path d="M46.6218 106.724C46.6972 105.986 47.3376 104.261 48.2251 103.903C49.0942 103.552 50.7705 102.881 51.6835 102.859C52.0452 102.851 51.6859 104.141 51.544 104.399C51.5766 104.596 51.5 104.8 51.2622 104.841C50.4982 104.974 49.6411 105.009 48.9026 105.262C48.2311 105.492 47.9834 106.384 47.5038 106.918C47.2637 107.185 46.6017 106.923 46.6218 106.724Z" fill="#CEB5FF"/>
<path d="M48.7035 108.254C48.7871 107.33 49.2433 105.741 50.1031 105.31C50.9455 104.889 52.0007 104.474 52.9106 104.376C53.2699 104.338 53.5345 105.302 53.3001 105.362C52.5477 105.557 51.5935 106.296 50.875 106.609C50.2218 106.893 50.0381 107.803 49.5974 108.374C49.3778 108.66 48.6764 108.553 48.7035 108.254Z" fill="#CEB5FF"/>
<path d="M50.3263 108.183C50.1494 107.399 50.3723 105.609 51.1646 105.045C51.9409 104.493 53.1735 104.394 54.0628 104.15C54.4148 104.053 54.6736 104.368 54.5897 104.653C54.6634 104.835 54.5459 105.887 53.6983 106.268C52.9823 106.591 52.4786 106.066 51.8097 106.491C51.2009 106.877 51.4573 107.506 51.1018 108.139C50.9241 108.456 50.3698 108.377 50.3263 108.183Z" fill="#CEB5FF"/>
<path d="M47.5458 108.137C47.4444 107.538 47.8393 105.578 48.6534 105.054C49.4509 104.54 50.6822 104.504 51.5781 104.306C51.9327 104.227 52.1035 104.615 52.0062 104.896C52.0717 105.083 52.0302 105.298 51.8024 105.385C51.0719 105.663 50.2335 105.865 49.5485 106.257C48.9258 106.614 48.8297 107.538 48.4472 108.155C48.2557 108.464 47.5793 108.335 47.5458 108.137Z" fill="#CEB5FF"/>
<path d="M53.2397 102.52C54.9983 102.493 56.7636 102.977 56.7636 102.977L57.2076 104.101L54.7449 105.421L54.0106 105.409C54.0106 105.409 52.5241 102.53 53.2397 102.52Z" fill="#CEB5FF"/>
<path d="M50.74 103.018C50.74 103.018 52.5221 102.345 53.4766 102.552C54.4314 102.759 54.5892 104.652 54.5892 104.652L53.3114 105.068L50.8479 105.103L50.6342 103.389L50.74 103.018Z" fill="#CEB5FF"/>
<path d="M50.2928 107.103C50.2928 107.103 50.268 105.53 51.1647 105.045C51.1647 105.045 49.7895 105.884 49.8767 107.44C49.8933 107.736 49.4326 108.491 49.4326 108.491C49.4326 108.491 49.6535 108.453 49.9426 107.874C50.2315 107.294 50.2928 107.103 50.2928 107.103Z" fill="black"/>
<path d="M47.7659 106.536C47.7659 106.536 48.2751 105.323 48.6532 105.054C49.0321 104.785 49.7451 104.598 49.7451 104.598C49.7451 104.598 48.646 104.611 48.375 105.049C48.104 105.487 47.5039 106.918 47.5039 106.918L47.7659 106.536Z" fill="black"/>
<path d="M73.3542 100.087C72.0806 101.403 68.7717 98.3558 68.3248 95.8323C67.6704 92.1375 67.7526 88.1866 67.7526 88.1866C67.7526 88.1866 67.6548 84.2116 68.2287 80.9534C68.3334 80.358 68.4999 79.7664 68.7473 79.1996C69.0245 78.5637 69.5149 77.9874 70.6314 77.7866C70.8226 77.7524 71.0322 77.7291 71.2623 77.7183C74.8591 82.5016 76.6665 96.6629 73.3542 100.087Z" fill="#C3E7F3"/>
<path d="M67.9013 94.21C67.9013 94.21 72.6173 91.5496 74.6598 95.0641C76.7024 98.5792 73.7414 102.206 71.3505 101.633C68.9603 101.059 65.9217 96.2833 67.9013 94.21Z" fill="#9ED4E3"/>
<path d="M55.1439 104.845L53.9507 102.316C53.9507 102.316 60.2046 98.9421 65.343 96.6691C67.6903 95.6383 69.61 94.4333 70.2637 94.3578C72.3615 94.1139 75.7686 99.5368 71.6187 101.067C66.1396 103.088 55.1439 104.845 55.1439 104.845Z" fill="#CEB5FF"/>
<path d="M29.0187 85.6798L31.6261 82.9116C31.6261 82.9116 29.631 83.7462 28.4359 85.1405L29.0187 85.6798Z" fill="#5D4A93"/>
<path d="M29.6377 81.5866C29.5113 82.053 29.7362 82.5522 30.0393 82.9851C30.1791 83.1222 30.3869 83.3006 30.6118 83.4317C31.0247 83.6715 31.5868 83.2145 31.5868 83.2145C31.974 83.3702 32.3701 82.8823 32.3701 82.8823C32.7903 83.0542 33.2163 82.2755 33.2163 82.2755C33.6016 82.3894 33.9444 82.0321 33.9962 81.8106C34.0245 81.6873 33.4562 79.3116 32.5746 79.5569C32.2281 79.6551 32.078 79.8653 32.0509 80.1183C31.919 80.0511 31.7711 80.0184 31.5982 80.0597C31.2365 80.1455 31.1144 80.3948 31.1208 80.6989C30.9548 80.6165 30.7655 80.6192 30.5522 80.7796C30.3347 80.9382 30.2615 81.1386 30.2564 81.356C30.042 81.2145 29.704 81.3467 29.6377 81.5866Z" fill="#CEB5FF"/>
</g>
</g>
</g>
<defs>
<clipPath id="clip0_1135_1237">
<rect width="263" height="148" fill="white" transform="translate(-101)"/>
</clipPath>
</defs>
</svg>
