<svg width="68" height="68" viewBox="0 0 68 68" fill="none" xmlns="http://www.w3.org/2000/svg">
<path d="M34 0C15.2203 0 0 15.2203 0 34C0 52.7797 15.2203 68 34 68C52.7797 68 68 52.7797 68 34C68 15.2203 52.7797 0 34 0ZM11.5812 22.9234L28.1562 17.7172L29.2719 21.2766L12.6969 26.4562L11.5812 22.9234ZM15.3797 33.2031C15.3797 29.9625 17.9828 27.3594 21.2234 27.3594C24.4641 27.3594 27.0672 29.9625 27.0672 33.2031C27.0672 36.4437 24.4641 39.0469 21.2234 39.0469C17.9828 39.0469 15.3797 36.4437 15.3797 33.2031ZM45.6344 55.1438L41.4906 51.8766L36.4969 55.8078L31.5031 51.8766L26.5094 55.8078L20.6656 51.2125L22.3656 49.0609L26.5094 52.3281L31.5031 48.3969L36.4969 52.3281L41.4906 48.3969L47.3344 52.9922L45.6344 55.1438ZM46.7766 39.0469C43.5359 39.0469 40.9328 36.4437 40.9328 33.2031C40.9328 29.9625 43.5359 27.3594 46.7766 27.3594C50.0172 27.3594 52.6203 29.9625 52.6203 33.2031C52.6203 36.4437 50.0172 39.0469 46.7766 39.0469ZM55.3031 26.4562L38.7281 21.2766L39.8438 17.7172L56.4187 22.8969L55.3031 26.4562Z" fill="#BD0000"/>
</svg>
